<?xml version="1.0" encoding="UTF-8"?>
<!DOCTYPE svg PUBLIC "-//W3C//DTD SVG 1.1//EN" "http://www.w3.org/Graphics/SVG/1.1/DTD/svg11.dtd">
<!-- Creator: CorelDRAW X8 -->
<svg xmlns="http://www.w3.org/2000/svg" xml:space="preserve" width="65.5219mm" height="8.2689mm" version="1.1" style="shape-rendering:geometricPrecision; text-rendering:geometricPrecision; image-rendering:optimizeQuality; fill-rule:evenodd; clip-rule:evenodd"
viewBox="0 0 7548 953"
 xmlns:xlink="http://www.w3.org/1999/xlink">
 <defs>
  <style type="text/css">
   <![CDATA[
    .fil0 {fill:white;fill-rule:nonzero}
   ]]>
  </style>
 </defs>
 <g id="Capa_x0020_1">
  <metadata id="CorelCorpID_0Corel-Layer"/>
  <path class="fil0" d="M178 157c-24,23 -41,52 -53,85 -12,34 -20,67 -25,99 -5,32 -8,64 -10,96 -1,33 -2,65 -2,97 0,37 3,77 9,120 6,44 17,86 33,125 16,39 39,72 68,97 14,11 28,18 43,23 16,6 32,8 48,8 29,0 56,-8 81,-25 44,-30 82,-67 111,-109 30,-43 54,-90 73,-140 18,-50 32,-101 41,-151 1,-4 3,-7 6,-9 2,-1 4,-2 7,-2 1,0 2,0 3,0 3,1 6,3 8,6 2,2 2,4 2,6 0,1 0,3 0,4 -9,49 -23,101 -42,154 -19,54 -44,105 -74,152 -31,47 -68,86 -111,116 -19,13 -40,24 -62,32 -22,8 -44,12 -67,12 -24,0 -47,-4 -69,-10 -22,-7 -43,-17 -63,-32 -35,-27 -63,-62 -82,-105 -20,-43 -33,-88 -40,-137 -7,-48 -11,-93 -11,-135 0,-33 1,-66 2,-99 2,-33 5,-66 10,-99 5,-29 12,-58 21,-87 9,-29 21,-56 37,-81 16,-24 36,-44 60,-59 24,-16 54,-23 88,-23 32,0 61,9 88,27 25,19 44,42 57,71 12,29 19,59 19,90 0,44 -14,84 -43,117 -3,4 -7,6 -12,6 -5,0 -10,-1 -13,-4 -4,-3 -6,-7 -6,-12 0,-5 1,-10 4,-13 23,-27 34,-59 34,-95 0,-41 -13,-77 -40,-108 -18,-21 -39,-31 -63,-31 -12,0 -24,2 -35,5 -11,4 -21,10 -30,18z"/>
  <path id="1" class="fil0" d="M775 608c-10,1 -21,2 -32,2 -17,0 -31,-4 -43,-13 -12,-9 -21,-21 -27,-35 -6,-14 -9,-29 -9,-45 0,-24 7,-45 21,-61 13,-17 33,-25 58,-25 12,0 23,3 34,10 10,8 18,17 23,30 5,12 9,25 11,38 2,14 3,27 3,38 0,6 0,13 0,19 24,-8 43,-15 57,-21 15,-7 33,-19 54,-35 19,-14 37,-30 53,-46 3,-3 6,-4 9,-4 3,0 7,1 9,3 3,3 4,6 4,10 0,3 -1,6 -3,9 -16,16 -33,31 -52,46 -21,16 -42,30 -63,43 -21,12 -45,22 -72,30 -4,28 -13,56 -27,84 -14,29 -35,49 -62,61 -10,3 -21,5 -31,5 -14,0 -26,-2 -38,-7 -15,-7 -29,-16 -40,-28 -11,-12 -20,-25 -27,-40 -15,-33 -23,-67 -23,-102 0,-31 6,-59 19,-86 12,-27 30,-48 54,-64 23,-17 51,-25 84,-25l0 0c5,1 8,4 10,7 2,3 3,6 3,9 0,1 0,3 0,4 -1,3 -3,6 -5,9 -3,2 -7,4 -11,4 -16,0 -29,5 -39,15 -9,10 -17,23 -21,38 -5,15 -9,31 -10,47 -2,17 -2,31 -2,42 0,9 1,21 3,36 2,14 5,29 10,44 5,14 11,27 19,37 9,10 19,15 31,15 10,0 20,-3 28,-11 8,-8 15,-17 19,-26 10,-19 17,-40 21,-61zm5 -34c1,-9 2,-18 2,-27 0,-5 -1,-12 -2,-21 0,-10 -2,-19 -5,-28 -2,-9 -6,-17 -10,-23 -5,-7 -11,-10 -19,-10 -8,0 -15,3 -20,9 -5,6 -8,13 -10,21 -2,8 -3,15 -3,22 0,8 1,17 4,26 3,10 7,18 13,24 6,7 14,10 24,10 9,0 18,-1 26,-3z"/>
  <path id="2" class="fil0" d="M1052 580c4,-11 8,-23 13,-34 13,-34 29,-66 49,-97 4,-6 9,-14 15,-21 7,-8 14,-14 21,-20 8,-5 16,-8 24,-8 6,0 11,1 15,4 16,8 26,22 30,43 4,21 6,45 6,74 0,19 -1,37 -2,56 -1,23 -3,50 -6,81 -3,32 -5,56 -5,73 0,12 1,25 3,39 2,14 6,21 10,21 15,0 42,-51 81,-153 40,-101 61,-155 64,-161 2,-4 4,-6 8,-7 1,-1 2,-1 3,-1 3,0 4,0 6,2 4,1 6,4 7,7 1,1 1,3 1,4 0,2 0,4 -2,6 -2,6 -22,57 -59,152 -37,96 -66,156 -87,180 -22,24 -42,36 -62,36 -6,0 -11,-1 -17,-3 -15,-9 -26,-24 -30,-44 -5,-21 -7,-39 -7,-56 -1,-11 -1,-21 -1,-32 0,-14 1,-28 1,-43 1,-10 4,-32 7,-66 3,-33 5,-66 5,-98 0,-10 0,-21 -1,-32 0,-3 -1,-5 -3,-5 -3,0 -6,2 -8,6 -13,24 -25,49 -36,75 -8,21 -16,41 -23,63 -5,17 -10,34 -14,52 0,1 0,1 0,1 -1,4 -3,7 -6,9 -3,2 -6,4 -10,4 -14,0 -28,-2 -41,-7 -6,-2 -11,-5 -16,-9 -5,-4 -8,-9 -9,-16 -1,-29 -4,-57 -7,-85 -2,-17 -5,-33 -8,-49 -2,-9 -5,-18 -8,-28 -2,-7 -5,-13 -9,-19 -2,-3 -3,-6 -3,-10 0,-2 0,-3 1,-5 2,-6 5,-9 11,-11 8,-2 17,-3 26,-3 11,0 21,2 31,7 4,2 7,4 10,7 3,3 5,5 7,9 6,14 11,29 14,44 4,18 7,35 9,53 1,5 1,10 2,15z"/>
  <path id="3" class="fil0" d="M1570 459c-39,32 -77,65 -115,99 8,20 15,40 21,60 9,29 16,59 22,89 4,22 7,43 9,64 2,18 3,35 3,53l0 17c0,16 -3,32 -8,50 -5,17 -15,30 -30,38 -6,4 -13,5 -21,5 -13,0 -24,-4 -33,-14 -9,-10 -17,-21 -23,-34 -6,-13 -10,-24 -14,-35 -8,-25 -15,-50 -20,-76 -5,-29 -10,-57 -14,-86 -8,-55 -11,-110 -11,-166 0,-198 13,-335 40,-410 27,-75 70,-113 129,-113 10,0 20,2 29,8 10,6 17,15 21,25 4,11 6,22 6,33 0,5 -1,9 -4,12 -3,3 -7,5 -12,5 -4,0 -8,-1 -11,-4 -4,-3 -5,-7 -5,-13 0,-4 -1,-9 -4,-14 -2,-4 -6,-7 -12,-7 -42,0 -69,43 -79,129 -11,85 -17,202 -17,349 0,54 4,108 11,161 5,44 14,87 25,129 3,14 8,28 13,41 2,6 5,12 7,17 3,-10 4,-21 4,-31l0 -17c0,-16 -1,-32 -2,-48 -3,-21 -6,-41 -9,-62 -6,-29 -13,-58 -21,-86 -6,-23 -15,-45 -25,-66 -1,-3 -2,-5 -2,-7 0,-5 3,-9 6,-13 50,-39 99,-78 147,-118 6,-6 14,-8 23,-8 18,0 33,4 46,11 8,5 12,13 12,22 -3,28 -4,56 -4,83 0,7 0,14 0,21 1,36 4,72 9,107 1,7 2,14 4,22 3,11 5,23 8,35 2,7 3,13 5,20 2,6 4,12 7,17 2,5 4,8 6,12 0,1 1,1 2,2 1,1 2,1 2,1 1,0 1,0 1,0 1,0 1,0 2,-1 0,0 0,0 0,-1 2,-2 4,-4 6,-6 5,-7 9,-13 13,-21 6,-10 12,-21 17,-32 35,-73 64,-150 86,-229 1,-4 3,-6 6,-8 1,-1 4,-2 6,-2 1,0 3,1 4,1 3,1 6,3 7,6 1,2 2,4 2,7 0,1 0,2 0,3 -11,40 -23,80 -36,120 -12,40 -28,79 -46,116 -12,26 -27,51 -45,73 -5,6 -10,11 -15,15 -10,9 -22,14 -36,14l-2 0c-17,-3 -31,-12 -42,-29 -11,-16 -20,-34 -26,-55 -6,-20 -11,-38 -13,-53 -8,-40 -12,-80 -13,-122 0,-10 0,-20 0,-30 0,-25 1,-50 3,-75zm108 -157c0,7 -1,16 -2,26 -2,10 -5,20 -9,28 -5,8 -11,12 -19,12 -8,0 -17,-1 -27,-2 -11,-1 -20,-3 -29,-7 -8,-5 -12,-11 -12,-21 0,-7 1,-16 2,-26 2,-10 6,-18 11,-25 5,-7 12,-11 22,-11 6,0 14,1 24,2 10,0 19,3 27,6 8,4 12,10 12,18z"/>
  <path id="4" class="fil0" d="M1930 503c13,2 26,4 39,4 5,0 9,2 13,6 2,3 4,7 4,10 0,1 -1,3 -1,4 -11,49 -19,98 -24,148 -2,21 -3,42 -3,63 0,6 0,12 0,19 1,10 2,19 3,29 1,6 2,12 3,18 1,5 2,10 4,15 0,1 1,3 2,5 1,2 2,4 3,6 1,1 3,2 5,2 2,0 4,-2 7,-5 2,-3 4,-6 6,-8l1 -3c5,-6 9,-12 13,-18 21,-34 42,-74 62,-120 20,-47 37,-90 50,-128l13 -38 4 -10c1,-2 1,-3 1,-4 4,-10 7,-20 11,-30 1,-3 3,-5 7,-7 1,-1 3,-1 5,-1 2,0 3,0 5,1 3,1 6,3 7,7 1,1 1,3 1,4 0,2 0,4 -1,5 -3,10 -7,20 -10,29 -1,1 -1,3 -1,4l-4 10 -14 39 -14 41c-12,37 -25,73 -40,109 -14,36 -32,71 -54,106 -6,10 -13,19 -21,30 -8,10 -17,19 -28,26 -10,7 -21,11 -32,11 -12,0 -24,-3 -34,-9 -13,-9 -23,-21 -30,-37 -6,-15 -10,-32 -12,-50 -2,-18 -3,-34 -3,-48 0,-22 1,-44 3,-66 5,-48 13,-95 23,-142 -13,-4 -26,-8 -39,-14 -18,-7 -35,-17 -49,-31 -20,-18 -29,-40 -29,-66 0,-29 10,-66 31,-110 3,-7 8,-10 15,-10 13,0 25,2 38,6 5,1 10,3 15,6 4,2 7,6 9,10 -27,42 -41,79 -43,110 0,33 28,57 83,72z"/>
  <path id="5" class="fil0" d="M2672 473c2,-3 4,-6 7,-8 2,0 4,-1 6,-1 1,0 3,0 4,1 3,1 6,3 8,6 1,2 1,4 1,6 0,2 0,3 0,4 -4,12 -21,54 -49,125 -28,71 -51,121 -68,148 -5,9 -12,17 -19,25 -7,9 -15,16 -24,21 -9,6 -19,9 -30,9 -6,0 -12,-2 -18,-4 -11,-7 -19,-17 -23,-31 -4,-13 -7,-26 -7,-38 -1,-16 -1,-31 -1,-46 0,-13 0,-26 0,-39 2,-23 2,-40 2,-52 0,-14 0,-29 -1,-43 0,-6 -1,-11 -2,-16 0,-4 -2,-6 -3,-6 -2,0 -3,0 -5,1 -1,1 -2,2 -3,4 -12,21 -23,44 -30,68 -8,21 -15,44 -20,66l0 1c-1,4 -3,7 -6,9 -2,2 -6,4 -10,4l-4 -1 -3 1c-5,0 -9,0 -14,-1l-1 0c-14,0 -26,-4 -36,-13 -6,-7 -9,-14 -9,-23l0 -2c1,-13 1,-26 1,-39 0,-15 -1,-30 -1,-46 -1,-17 -4,-33 -7,-49 0,-2 -1,-3 -1,-5 -1,-1 -3,-1 -4,-1 -2,0 -4,0 -5,2 -1,2 -2,3 -3,5 -11,27 -19,55 -26,84 -7,28 -14,58 -19,87 -2,9 -3,17 -5,26 -2,11 -4,22 -6,34l0 0c-1,4 -3,7 -6,9 -3,3 -7,4 -11,4 -13,0 -26,-1 -39,-4 -6,-1 -13,-3 -19,-6 -6,-3 -9,-8 -10,-15 -2,-48 -6,-95 -12,-141 -3,-26 -7,-52 -12,-77 -2,-9 -4,-18 -6,-27 -3,-9 -6,-18 -10,-27 -1,-2 -2,-5 -2,-7 0,-3 1,-6 3,-9 3,-5 8,-7 13,-7 7,0 16,0 26,1 11,1 21,3 30,7 9,3 15,8 18,15 6,19 11,38 14,58 5,23 8,45 11,68 1,11 2,21 3,32 2,-10 5,-20 7,-30 5,-17 9,-33 14,-50 6,-18 13,-36 21,-53 5,-12 13,-24 22,-36 10,-11 22,-17 37,-18 6,0 12,1 18,4 13,6 23,16 30,31 7,14 12,30 15,47 3,17 5,32 5,45 0,1 0,2 1,3 5,-13 13,-27 21,-42 9,-15 19,-28 30,-39 12,-11 24,-17 38,-17 8,0 16,3 23,6 12,8 20,19 25,35 5,15 8,38 8,68 0,18 -1,39 -2,64 -1,26 -2,43 -2,53 0,14 1,25 3,31 1,7 4,10 7,10 16,0 56,-86 122,-259z"/>
  <path id="6" class="fil0" d="M2877 559c-4,13 -9,27 -15,43 -6,15 -14,30 -25,44 -10,15 -23,26 -40,36 -16,9 -36,13 -60,13 -15,0 -28,-3 -39,-9 -12,-7 -23,-16 -31,-28 -11,-15 -18,-30 -22,-47 -5,-17 -7,-34 -7,-53 0,-18 4,-38 11,-58 7,-21 16,-39 28,-54 16,-19 35,-34 56,-43 22,-10 45,-15 70,-15 16,0 30,2 42,5 14,4 29,10 44,16 7,-2 14,-3 21,-3 8,0 16,1 25,4 5,2 10,5 14,10 4,4 7,9 7,15 -1,13 -1,27 -1,40l0 13c0,21 1,42 2,63 2,21 6,43 11,64 3,11 7,21 14,31 2,2 4,5 7,7 3,2 6,3 9,3 6,0 11,-2 16,-7 5,-5 10,-9 13,-13 17,-23 35,-48 52,-78 17,-30 31,-58 43,-83 1,-3 4,-5 7,-7 1,0 3,0 4,0 2,0 4,0 6,1 3,2 5,4 7,7 0,2 1,4 1,5 0,2 -1,4 -1,5l-11 22c-11,26 -23,51 -35,75 -13,24 -29,48 -47,72 -7,9 -15,18 -24,27 -9,9 -19,16 -29,22 -11,6 -22,9 -34,9 -16,0 -30,-5 -40,-16 -11,-11 -20,-23 -26,-38 -6,-15 -11,-29 -14,-43 -4,-19 -8,-38 -9,-57zm-10 -59c4,-14 6,-34 7,-62 -18,-9 -33,-13 -45,-13 -16,0 -32,4 -47,14 -15,10 -27,22 -36,35 -8,11 -14,25 -19,41 -5,15 -7,30 -7,43 0,13 1,25 3,36 3,12 7,23 12,34 7,15 17,22 31,22 19,-1 34,-10 47,-27 14,-18 25,-38 33,-61 9,-24 16,-44 21,-62z"/>
  <path id="7" class="fil0" d="M3321 408l-66 -3c-5,0 -8,-2 -11,-5 -3,-3 -4,-7 -5,-12 1,-5 3,-8 6,-11 3,-3 6,-4 11,-4l1 0 74 3c12,-32 28,-61 48,-88 4,-4 8,-7 13,-7 6,0 13,1 20,2 6,0 12,2 18,4 6,2 11,5 15,10 3,3 4,7 4,11 0,2 0,4 0,5 -1,3 -2,4 -3,6 -13,20 -24,40 -33,61l68 4c5,0 8,2 11,5 3,3 4,7 4,12 0,5 -2,8 -5,11 -3,3 -7,5 -12,5l-77 -4c-12,40 -17,81 -17,122 0,20 1,41 4,63 4,21 9,41 16,61 4,10 10,20 18,30 7,9 16,15 27,18 3,1 5,1 8,1 7,0 14,-2 20,-6 7,-3 13,-8 18,-13 22,-23 42,-47 59,-73 17,-26 32,-54 46,-83 10,-22 19,-43 28,-65 1,-3 4,-5 7,-7 1,-1 3,-1 5,-1 2,0 3,0 5,1 3,1 6,3 7,7 1,1 1,3 1,4 0,2 0,4 -1,5 -8,23 -18,45 -28,67 -9,19 -20,41 -33,65 -13,24 -29,48 -45,70 -17,23 -36,42 -56,57 -20,15 -41,22 -63,22 -9,0 -18,-1 -27,-4 -18,-6 -34,-17 -46,-32 -12,-15 -21,-31 -28,-49 -9,-22 -15,-44 -19,-68 -3,-24 -5,-47 -5,-70 0,-43 6,-85 18,-127z"/>
  <path id="8" class="fil0" d="M3844 374l2 -14c0,-4 2,-8 5,-10 3,-3 7,-4 11,-4 12,0 25,1 38,4 4,1 9,2 13,4 4,2 7,4 10,8 2,3 3,6 3,9l0 3c-5,35 -7,70 -8,105 0,8 1,17 2,26 1,13 2,26 4,39 1,5 2,13 4,22 3,10 6,19 10,28 4,8 10,13 16,13 9,0 21,-6 34,-18 14,-11 28,-25 42,-40 14,-15 26,-30 37,-44 10,-13 17,-23 21,-28 2,-3 5,-5 9,-5l2 0c2,0 5,1 7,2 3,2 5,5 6,8l0 3c0,2 -1,5 -2,7 -10,14 -22,30 -35,48 -14,18 -29,35 -45,52 -16,16 -33,30 -51,41 -18,11 -36,16 -54,16 -8,0 -16,-1 -24,-4 -22,-9 -38,-27 -47,-51 -9,-25 -14,-50 -15,-75 -7,18 -15,36 -24,55 -10,19 -21,37 -33,53 -13,17 -28,30 -44,41 -16,10 -35,16 -55,16 -12,0 -24,-4 -35,-10 -15,-9 -27,-23 -35,-42 -7,-18 -12,-38 -15,-59 -2,-20 -3,-39 -3,-55l0 -12c1,-29 4,-58 8,-87 2,-10 4,-21 6,-31 3,-11 6,-21 10,-32 3,-7 8,-10 15,-10 12,0 24,2 37,5 4,1 9,3 14,6 6,4 10,10 10,17 0,2 0,3 -1,5 -5,19 -9,37 -11,56 -4,24 -6,48 -6,72 0,9 0,19 0,28 1,13 2,26 4,39 0,6 2,15 4,25 3,10 6,20 11,29 4,9 10,13 17,13 8,0 16,-3 24,-11 8,-8 15,-17 21,-26 7,-9 12,-17 15,-23 8,-13 15,-27 21,-41 5,-10 10,-20 13,-30 10,-27 18,-55 25,-82 5,-18 9,-36 12,-54z"/>
  <path id="9" class="fil0" d="M4506 559c-3,13 -8,27 -14,43 -6,15 -15,30 -25,44 -10,15 -24,26 -40,36 -16,9 -36,13 -61,13 -14,0 -27,-3 -39,-9 -12,-7 -22,-16 -30,-28 -11,-15 -19,-30 -23,-47 -4,-17 -6,-34 -6,-53 0,-18 4,-38 11,-58 7,-21 16,-39 28,-54 16,-19 34,-34 56,-43 22,-10 45,-15 70,-15 16,0 30,2 41,5 15,4 29,10 45,16 7,-2 14,-3 21,-3 8,0 16,1 24,4 6,2 11,5 15,10 4,4 6,9 6,15 0,13 -1,27 -1,40l0 13c0,21 1,42 3,63 2,21 6,43 11,64 3,11 7,21 14,31 1,2 4,5 6,7 3,2 6,3 10,3 5,0 10,-2 16,-7 5,-5 9,-9 13,-13 17,-23 34,-48 51,-78 18,-30 32,-58 44,-83 1,-3 3,-5 7,-7 1,0 3,0 4,0 2,0 4,0 5,1 4,2 6,4 7,7 1,2 2,4 2,5 0,2 -1,4 -2,5l-10 22c-11,26 -23,51 -36,75 -12,24 -28,48 -47,72 -7,9 -15,18 -23,27 -9,9 -19,16 -30,22 -10,6 -21,9 -33,9 -16,0 -30,-5 -41,-16 -10,-11 -19,-23 -25,-38 -7,-15 -11,-29 -14,-43 -5,-19 -8,-38 -10,-57zm-9 -59c4,-14 6,-34 6,-62 -17,-9 -32,-13 -44,-13 -17,0 -32,4 -47,14 -15,10 -27,22 -36,35 -8,11 -14,25 -19,41 -5,15 -7,30 -7,43 0,13 1,25 3,36 3,12 6,23 12,34 7,15 17,22 31,22 18,-1 34,-10 47,-27 13,-18 24,-38 33,-61 9,-24 16,-44 21,-62z"/>
  <path id="10" class="fil0" d="M4812 695c-5,-7 -10,-13 -14,-19 -9,-10 -17,-21 -26,-32 -9,-13 -18,-26 -27,-40 -8,-14 -15,-29 -20,-44 -6,-16 -8,-32 -8,-48 0,-18 3,-36 11,-53 7,-18 18,-32 32,-43 14,-11 31,-17 51,-17 19,0 37,7 52,19 15,15 22,31 22,50 0,6 -1,12 -2,18 -1,4 -3,7 -7,10 -3,2 -6,3 -10,3l-2 0c-5,-1 -8,-4 -10,-8 -2,-2 -3,-5 -3,-8 0,-1 0,-2 0,-3 1,-4 1,-7 1,-11 0,-8 -2,-15 -6,-22 -3,-3 -7,-5 -11,-5 -4,0 -8,2 -12,5 -8,8 -14,18 -19,30 -4,12 -6,23 -6,35 0,10 2,21 5,31 6,17 15,34 26,48 11,15 23,28 35,41 0,1 1,2 1,2 36,-36 75,-71 115,-105 4,-4 8,-7 12,-11 13,-11 27,-23 41,-34 1,0 1,-1 2,-1 7,-6 15,-12 23,-17 2,-1 5,-2 7,-2 1,0 2,0 3,1 4,0 6,3 8,6 1,2 2,4 2,6 0,1 0,2 0,3 -1,4 -3,6 -7,8 -6,5 -13,10 -19,15 -1,0 -2,1 -3,2 -14,11 -27,22 -40,33 -40,36 -79,74 -116,114 -2,2 -4,5 -6,7 12,15 23,30 32,47 9,17 14,35 14,55 0,35 -11,62 -34,81 -22,20 -50,29 -84,29 -13,0 -26,-4 -37,-12 -8,-6 -14,-14 -19,-23 -4,-8 -6,-18 -6,-28 0,-13 4,-26 10,-39 7,-14 15,-28 24,-41 8,-13 17,-24 25,-33zm20 27c-4,4 -7,9 -11,14 -7,9 -14,21 -22,35 -9,14 -13,26 -13,37 0,4 1,8 2,11 2,4 5,6 9,9 6,2 12,3 18,3 11,0 19,-2 25,-8 6,-5 10,-12 12,-21 2,-9 3,-17 3,-26 0,-9 -2,-19 -7,-28 -5,-10 -10,-19 -16,-26z"/>
  <path id="11" class="fil0" d="M5292 485c-10,40 -22,80 -35,120 -13,40 -28,79 -46,116 -12,26 -27,51 -45,73 -5,6 -10,11 -16,15 -10,9 -22,14 -35,14l-3 0c-17,-3 -31,-12 -42,-29 -11,-16 -19,-34 -26,-55 -6,-20 -10,-38 -13,-53 -7,-40 -11,-80 -12,-122 0,-10 -1,-20 -1,-30 0,-36 2,-71 6,-106 1,-5 2,-8 6,-11 3,-2 6,-4 10,-4 14,0 28,3 42,8 3,2 6,3 10,5 8,5 12,13 12,22 -3,28 -4,56 -4,83 0,7 0,14 0,21 1,36 4,72 9,107 1,7 2,14 4,22 2,11 5,23 7,35 2,7 4,13 6,20 2,6 4,12 6,17 2,5 4,8 7,12 0,1 1,1 2,2 0,1 1,1 2,1 0,0 1,0 1,0 1,0 1,0 1,-1 0,0 1,0 1,-1 2,-2 4,-4 6,-6 4,-7 9,-13 12,-21 7,-10 12,-21 18,-32 35,-73 63,-150 85,-229 1,-4 3,-6 6,-8 2,-1 4,-2 7,-2 1,0 2,1 3,1 4,1 6,3 8,6 1,2 2,4 2,7 0,1 0,2 -1,3zm-162 -183c0,7 -1,16 -2,26 -2,10 -5,20 -10,28 -4,8 -11,12 -19,12 -7,0 -16,-1 -27,-2 -10,-1 -20,-3 -28,-7 -9,-5 -13,-11 -13,-21 0,-7 1,-16 3,-26 2,-10 5,-18 10,-25 6,-7 13,-11 22,-11 7,0 15,1 25,2 10,0 19,3 27,6 8,4 12,10 12,18z"/>
  <path id="12" class="fil0" d="M5384 626c5,5 12,10 19,15 33,28 54,49 62,65 9,17 14,35 14,55 0,35 -11,62 -34,81 -22,20 -50,29 -84,29 -13,0 -26,-4 -37,-12 -8,-6 -14,-14 -18,-23 -5,-8 -7,-22 -7,-41 0,-19 11,-56 31,-110 -21,-18 -34,-32 -41,-41 -10,-13 -19,-26 -27,-40 -9,-14 -16,-29 -21,-44 -5,-16 -8,-32 -8,-48 0,-18 4,-36 11,-53 8,-18 18,-32 32,-43 15,-11 32,-17 52,-17 25,0 38,7 39,22 0,14 -5,21 -15,21 -5,0 -9,2 -13,5 -8,8 -14,18 -18,30 -4,12 -6,23 -6,35 0,10 1,21 4,31 7,17 15,34 27,48 2,3 7,8 15,16 19,-45 42,-97 70,-156 52,-112 90,-193 116,-243 25,-50 52,-75 80,-75 16,0 30,6 43,19 12,12 18,43 18,91 0,37 -5,83 -15,137l70 4c4,0 8,2 11,5 3,3 4,7 4,12 0,5 -2,8 -5,11 -4,3 -7,5 -12,5l-75 -5c-13,62 -20,117 -20,165 0,44 7,77 20,98 13,22 30,33 53,33 8,0 15,-2 21,-6 7,-3 13,-8 18,-13 22,-23 42,-47 59,-73 17,-26 32,-54 46,-83 10,-22 19,-43 28,-65 1,-3 3,-5 6,-7 2,-1 4,-1 6,-1 1,0 3,0 5,1 3,1 5,3 7,7 1,1 1,3 1,4 0,2 0,4 -1,5 -9,23 -18,45 -29,67 -8,19 -19,41 -32,65 -14,24 -29,48 -46,70 -16,23 -35,42 -55,57 -20,15 -41,22 -63,22 -38,0 -68,-15 -91,-46 -23,-31 -34,-76 -34,-135 0,-49 8,-106 25,-171l-18 -1c-4,0 -8,-2 -11,-5 -3,-3 -5,-7 -5,-12 1,-5 3,-8 6,-11 3,-3 7,-4 11,-4l1 0 25 1c19,-70 28,-122 28,-157 0,-20 -5,-30 -15,-30 -17,0 -68,90 -153,269 -31,66 -56,122 -75,170zm-23 205c11,0 19,-2 25,-8 6,-5 10,-12 12,-21 2,-9 3,-17 3,-26 0,-9 -2,-19 -7,-28 -4,-8 -17,-22 -41,-43 -14,41 -21,71 -21,90 0,13 4,22 10,28 7,6 13,8 19,8z"/>
  <path id="13" class="fil0" d="M5946 567c3,28 9,55 18,82 3,8 6,17 11,25 2,5 5,9 8,13 4,4 8,5 14,5 5,0 10,-1 15,-4 5,-3 10,-7 13,-11 27,-26 53,-57 77,-91 25,-35 48,-69 69,-102 2,-3 4,-6 6,-9 2,-3 5,-4 8,-5l3 -1c2,0 5,1 7,2 3,3 5,6 6,9 0,1 0,2 0,3 0,2 -1,4 -2,7 -11,17 -22,34 -33,51 -17,29 -35,57 -54,84 -19,27 -40,52 -64,75 -11,12 -24,22 -39,32 -15,10 -30,15 -47,15 -12,0 -23,-4 -32,-11 -10,-7 -18,-15 -24,-25 -7,-10 -12,-21 -16,-31 -18,-42 -29,-86 -32,-132 0,-6 -1,-13 -1,-20 0,-5 0,-10 0,-14 0,-17 1,-34 3,-53 3,-25 9,-47 18,-69 9,-22 24,-38 43,-49 11,-6 23,-9 36,-9 18,0 34,5 48,16 16,13 26,29 32,49 5,20 8,39 8,58 0,17 -2,35 -7,52 -5,18 -15,33 -30,44 -16,10 -34,14 -53,14 -3,0 -6,0 -9,0zm-3 -33c3,1 6,1 10,1 4,0 9,-1 14,-1 8,-1 15,-4 22,-8 10,-8 16,-18 19,-32 3,-13 4,-26 4,-37 0,-11 -1,-23 -3,-35 -2,-12 -6,-23 -12,-33 -1,-3 -3,-5 -6,-7 -2,-2 -5,-2 -8,-2 -3,0 -5,0 -7,2 -2,1 -4,3 -5,6 -9,11 -14,24 -18,37 -8,27 -11,55 -11,83 0,6 0,12 0,18 0,3 0,5 1,8z"/>
  <path id="14" class="fil0" d="M6253 580c4,-11 8,-23 13,-34 13,-34 29,-66 48,-97 5,-6 10,-14 16,-21 7,-8 14,-14 21,-20 8,-5 16,-8 24,-8 6,0 11,1 15,4 16,8 26,22 30,43 3,21 6,45 6,74 0,19 -1,37 -2,56 -1,23 -3,50 -6,81 -3,32 -5,56 -5,73 0,12 1,25 3,39 2,14 5,21 10,21 14,0 41,-51 81,-153 40,-101 61,-155 64,-161 2,-4 4,-6 8,-7 1,-1 2,-1 3,-1 2,0 4,0 6,2 4,1 6,4 7,7 1,1 1,3 1,4 0,2 -1,4 -2,6 -3,6 -23,57 -59,152 -37,96 -67,156 -88,180 -21,24 -41,36 -61,36 -6,0 -12,-1 -17,-3 -16,-9 -26,-24 -30,-44 -5,-21 -7,-39 -7,-56 -1,-11 -1,-21 -1,-32 0,-14 0,-28 1,-43 1,-10 4,-32 7,-66 2,-33 4,-66 5,-98 0,-10 0,-21 -1,-32 0,-3 -1,-5 -3,-5 -3,0 -6,2 -8,6 -14,24 -25,49 -36,75 -8,21 -16,41 -23,63 -5,17 -10,34 -14,52 0,1 0,1 0,1 -1,4 -3,7 -6,9 -3,2 -6,4 -10,4 -14,0 -28,-2 -41,-7 -6,-2 -11,-5 -16,-9 -5,-4 -8,-9 -9,-16 -1,-29 -4,-57 -7,-85 -2,-17 -5,-33 -8,-49 -2,-9 -5,-18 -8,-28 -2,-7 -5,-13 -9,-19 -2,-3 -3,-6 -3,-10 0,-2 0,-3 0,-5 2,-6 6,-9 11,-11 9,-2 18,-3 27,-3 11,0 21,2 31,7 3,2 6,4 10,7 3,3 5,5 7,9 6,14 11,29 14,44 4,18 6,35 9,53 0,5 1,10 2,15z"/>
  <path id="15" class="fil0" d="M6673 480c0,-4 1,-8 1,-11 0,-2 0,-5 -1,-7 0,-5 -1,-10 -3,-14 -3,-5 -7,-7 -12,-7 -3,0 -6,1 -9,2 -9,5 -17,13 -21,26 -5,12 -7,23 -9,33 -1,8 -1,16 -1,24 0,12 0,27 2,45 2,17 5,35 10,52 5,18 13,32 22,44 10,12 23,18 39,18 17,0 34,-8 51,-23 18,-15 35,-34 51,-57 16,-22 30,-45 42,-67 11,-23 19,-41 24,-57 1,-3 3,-6 6,-7 2,-2 4,-2 7,-2 1,0 2,0 3,0 3,1 6,3 8,6 1,2 2,4 2,7 0,1 -1,2 -1,3 -9,32 -24,65 -46,102 -22,37 -48,68 -78,95 -31,26 -63,40 -98,42 -28,-1 -50,-7 -66,-20 -17,-12 -30,-28 -38,-48 -9,-20 -14,-42 -17,-65 -3,-24 -5,-46 -5,-68 0,-14 2,-28 5,-42 3,-14 8,-28 16,-40 9,-13 20,-24 34,-32 14,-8 29,-12 45,-12 18,0 35,6 50,18 14,15 21,31 21,50 0,6 0,12 -2,18 -1,4 -3,7 -7,10 -3,2 -6,3 -9,3l-3 0c-4,-1 -8,-4 -11,-8 -1,-2 -2,-6 -2,-9l0 -2z"/>
  <path id="16" class="fil0" d="M7099 485c-11,40 -23,80 -35,120 -13,40 -29,79 -47,116 -12,26 -27,51 -45,73 -4,6 -10,11 -15,15 -10,9 -22,14 -35,14l-3 0c-17,-3 -31,-12 -42,-29 -11,-16 -20,-34 -26,-55 -6,-20 -11,-38 -13,-53 -8,-40 -12,-80 -12,-122 -1,-10 -1,-20 -1,-30 0,-36 2,-71 6,-106 0,-5 2,-8 5,-11 3,-2 7,-4 11,-4 14,0 28,3 41,8 4,2 7,3 10,5 8,5 13,13 13,22 -3,28 -5,56 -5,83 0,7 0,14 1,21 0,36 3,72 8,107 1,7 3,14 4,22 3,11 5,23 8,35 2,7 4,13 6,20 2,6 4,12 6,17 2,5 4,8 6,12 1,1 1,1 2,2 1,1 2,1 3,1 0,0 0,0 1,0 0,0 0,0 1,-1 0,0 0,0 1,-1 2,-2 3,-4 5,-6 5,-7 9,-13 13,-21 6,-10 12,-21 17,-32 35,-73 64,-150 86,-229 1,-4 3,-6 6,-8 2,-1 4,-2 7,-2 1,0 2,1 3,1 3,1 6,3 8,6 1,2 1,4 1,7 0,1 0,2 0,3zm-162 -183c0,7 -1,16 -3,26 -1,10 -4,20 -9,28 -5,8 -11,12 -19,12 -7,0 -16,-1 -27,-2 -11,-1 -20,-3 -29,-7 -8,-5 -12,-11 -12,-21 0,-7 1,-16 3,-26 1,-10 5,-18 10,-25 5,-7 12,-11 22,-11 6,0 14,1 25,2 10,0 19,3 27,6 7,4 12,10 12,18z"/>
  <path id="17" class="fil0" d="M7278 559c-4,13 -8,27 -15,43 -6,15 -14,30 -25,44 -10,15 -23,26 -40,36 -16,9 -36,13 -60,13 -14,0 -27,-3 -39,-9 -12,-7 -22,-16 -31,-28 -11,-15 -18,-30 -22,-47 -4,-17 -6,-34 -6,-53 0,-18 3,-38 10,-58 7,-21 17,-39 28,-54 16,-19 35,-34 56,-43 22,-10 45,-15 70,-15 16,0 30,2 42,5 14,4 29,10 45,16 7,-2 13,-3 20,-3 9,0 17,1 25,4 5,2 10,5 14,10 5,4 7,9 7,15 -1,13 -1,27 -1,40l0 13c0,21 1,42 2,63 2,21 6,43 11,64 3,11 8,21 14,31 2,2 4,5 7,7 3,2 6,3 9,3 6,0 11,-2 16,-7 6,-5 10,-9 13,-13 18,-23 35,-48 52,-78 17,-30 31,-58 43,-83 1,-3 4,-5 7,-7 2,0 3,0 4,0 2,0 4,0 6,1 3,2 6,4 7,7 1,2 1,4 1,5 0,2 0,4 -1,5l-10 22c-12,26 -24,51 -36,75 -13,24 -28,48 -47,72 -7,9 -15,18 -24,27 -9,9 -19,16 -29,22 -11,6 -22,9 -34,9 -16,0 -30,-5 -40,-16 -11,-11 -19,-23 -26,-38 -6,-15 -11,-29 -14,-43 -4,-19 -7,-38 -9,-57zm-10 -59c4,-14 6,-34 7,-62 -18,-9 -32,-13 -45,-13 -16,0 -32,4 -46,14 -15,10 -27,22 -37,35 -7,11 -14,25 -19,41 -4,15 -7,30 -7,43 0,13 1,25 4,36 2,12 6,23 12,34 6,15 16,22 31,22 18,-1 33,-10 47,-27 13,-18 24,-38 33,-61 8,-24 15,-44 20,-62z"/>
 </g>
</svg>
