<?xml version="1.0" encoding="UTF-8"?>
<!DOCTYPE svg PUBLIC "-//W3C//DTD SVG 1.1//EN" "http://www.w3.org/Graphics/SVG/1.1/DTD/svg11.dtd">
<!-- Creator: CorelDRAW X8 -->
<svg xmlns="http://www.w3.org/2000/svg" xml:space="preserve" width="50.1788mm" height="18.2419mm" version="1.1" style="shape-rendering:geometricPrecision; text-rendering:geometricPrecision; image-rendering:optimizeQuality; fill-rule:evenodd; clip-rule:evenodd"
viewBox="0 0 5733 2084"
 xmlns:xlink="http://www.w3.org/1999/xlink">
 <defs>
  <style type="text/css">
   <![CDATA[
    .fil0 {fill:white;fill-rule:nonzero}
   ]]>
  </style>
 </defs>
 <g id="Capa_x0020_1">
  <metadata id="CorelCorpID_0Corel-Layer"/>
  <path class="fil0" d="M245 124l0 -15c1,-5 3,-9 6,-13 3,-4 8,-5 13,-5 8,0 17,0 26,2 9,1 17,4 25,8 4,2 8,5 12,8 3,4 6,8 7,12 23,-1 50,-3 82,-8 32,-5 62,-12 91,-23 28,-11 48,-26 59,-46 4,-8 6,-17 6,-26 0,-5 1,-9 5,-13 4,-3 8,-5 13,-5 6,0 13,0 20,1 7,0 14,2 20,4 2,0 5,1 7,2 9,5 13,12 13,22l0 1c-1,11 -4,22 -9,32 -11,20 -27,36 -47,47 -20,12 -40,20 -61,26 -54,14 -108,22 -163,24 -12,0 -23,1 -35,1l0 14c-1,27 -1,54 -1,81 0,64 2,127 6,191 2,36 5,73 9,109 3,32 8,65 15,96 4,20 9,39 16,57 4,10 8,20 14,29 3,7 9,10 16,10 6,0 11,-1 16,-4 5,-2 10,-6 14,-9 35,-30 65,-63 92,-99 27,-36 52,-73 76,-113 4,-7 8,-14 12,-21 2,-3 5,-5 8,-6 1,0 3,0 4,0 2,0 4,0 7,1 3,2 5,5 6,9l0 2c0,3 -1,5 -2,7l-13 22c-1,2 -2,3 -3,5 -21,36 -47,76 -76,118 -29,43 -59,77 -89,104 -13,11 -27,20 -42,28 -14,7 -29,11 -45,11 -5,0 -10,-1 -15,-2 -16,-5 -30,-15 -40,-30 -11,-14 -20,-31 -26,-49 -7,-19 -12,-35 -15,-50 -8,-36 -14,-72 -19,-108 -4,-40 -8,-81 -10,-121 -3,-67 -5,-135 -5,-203l0 -72c0,-2 0,-4 0,-6l-49 -1c-34,-1 -69,-1 -103,-1 -6,0 -12,1 -18,2 -5,2 -10,5 -15,9 -10,9 -16,21 -19,37 -3,16 -5,30 -5,42 0,29 4,57 11,86 6,26 14,52 22,77 15,44 34,87 55,128 8,17 17,32 27,48 6,11 13,20 21,29 4,4 6,8 6,12l0 1c0,5 -2,9 -6,13 -4,3 -7,5 -12,5l-1 0c-5,0 -9,-2 -12,-5 -10,-11 -19,-23 -27,-35 -10,-17 -20,-34 -28,-51 -22,-43 -41,-88 -57,-134 -9,-26 -17,-54 -23,-81 -8,-31 -12,-62 -12,-93 0,-18 2,-38 7,-57 5,-20 15,-37 30,-50 8,-7 16,-12 26,-15 10,-3 20,-4 30,-4 22,0 45,0 68,1 19,0 38,0 56,0l28 0z"/>
  <path id="1" class="fil0" d="M680 579c3,29 10,56 19,83 3,9 6,17 10,26 2,4 5,8 9,12 3,4 8,6 13,6 6,0 11,-1 16,-5 5,-3 10,-6 14,-10 27,-27 52,-58 77,-93 25,-35 49,-69 70,-102 2,-3 4,-6 6,-10 2,-2 5,-4 8,-5l3 -1c2,0 5,1 7,3 3,2 5,5 6,8 0,1 0,2 0,3 0,3 -1,5 -2,7 -11,17 -22,35 -33,52 -18,29 -36,57 -55,85 -19,27 -41,53 -64,76 -12,12 -25,22 -40,32 -15,10 -31,15 -47,15 -13,0 -24,-3 -33,-11 -10,-7 -18,-15 -24,-26 -7,-10 -13,-20 -17,-30 -18,-43 -28,-87 -31,-134 -1,-6 -1,-14 -2,-21 0,-4 0,-9 0,-14 0,-16 1,-34 3,-53 3,-25 9,-48 18,-70 10,-21 24,-38 44,-49 11,-6 24,-9 37,-9 18,0 34,5 48,16 16,13 27,29 32,49 6,21 8,40 8,59 0,17 -2,35 -7,53 -5,18 -15,33 -30,44 -17,10 -34,15 -53,15 -3,0 -7,0 -10,-1zm-3 -33c3,0 7,1 10,1 5,0 10,-1 14,-1 9,-1 16,-4 23,-8 10,-8 16,-19 19,-32 3,-14 4,-27 4,-38 0,-11 -1,-23 -3,-35 -2,-13 -6,-24 -12,-34 -2,-2 -3,-5 -6,-6 -2,-2 -5,-3 -8,-3 -3,0 -5,1 -7,2 -3,2 -4,4 -6,6 -8,11 -14,24 -18,38 -7,27 -11,55 -11,84 0,6 0,12 0,18 0,3 1,5 1,8z"/>
  <path id="2" class="fil0" d="M991 593c4,-12 8,-24 13,-35 13,-34 30,-67 49,-98 4,-7 10,-14 16,-21 6,-8 13,-15 21,-20 8,-5 16,-8 24,-8 6,0 11,1 15,3 16,9 26,23 30,44 4,21 6,45 7,75 0,19 -1,38 -3,57 -1,22 -3,50 -6,82 -3,32 -5,56 -5,73 0,12 1,25 3,39 3,15 6,22 11,22 14,0 41,-52 82,-155 40,-102 61,-157 64,-163 2,-4 4,-6 8,-7 1,-1 2,-1 4,-1 2,0 4,1 6,2 3,2 5,4 7,7 0,2 0,3 0,4 0,2 0,4 -1,6 -3,6 -23,58 -61,154 -37,97 -66,158 -88,182 -21,24 -42,37 -62,37 -6,0 -12,-2 -17,-4 -16,-9 -26,-23 -31,-44 -4,-21 -7,-39 -7,-56 0,-11 0,-22 0,-33 0,-14 0,-29 1,-43 1,-11 3,-33 6,-67 3,-33 5,-67 6,-99 0,-11 -1,-22 -1,-32 -1,-4 -2,-5 -4,-5 -3,0 -5,2 -7,5 -14,25 -26,50 -37,76 -8,21 -16,42 -23,63 -6,18 -10,36 -14,54 0,0 0,0 0,1 -1,4 -3,7 -6,9 -3,2 -6,3 -10,3 -15,0 -28,-2 -42,-7 -6,-2 -11,-5 -16,-9 -5,-4 -8,-9 -9,-16 -1,-29 -4,-57 -8,-86 -2,-16 -4,-33 -8,-49 -2,-10 -4,-19 -8,-28 -2,-7 -5,-14 -9,-20 -2,-3 -3,-6 -3,-10 0,-1 0,-3 1,-5 2,-6 6,-9 11,-11 9,-2 18,-3 27,-3 11,0 21,2 31,7 4,2 7,4 10,7 3,3 6,6 7,9 7,14 11,29 14,44 4,18 7,37 9,55 1,5 2,10 3,15z"/>
  <path id="3" class="fil0" d="M1367 579c4,29 10,56 19,83 3,9 6,17 10,26 3,4 6,8 9,12 4,4 8,6 14,6 5,0 10,-1 15,-5 5,-3 10,-6 14,-10 27,-27 53,-58 78,-93 25,-35 48,-69 69,-102 2,-3 4,-6 6,-10 2,-2 5,-4 9,-5l2 -1c3,0 5,1 7,3 4,2 5,5 6,8 0,1 0,2 0,3 0,3 0,5 -2,7 -11,17 -22,35 -33,52 -17,29 -36,57 -55,85 -19,27 -40,53 -64,76 -11,12 -25,22 -40,32 -15,10 -30,15 -47,15 -12,0 -23,-3 -33,-11 -9,-7 -17,-15 -24,-26 -7,-10 -12,-20 -17,-30 -17,-43 -28,-87 -31,-134 -1,-6 -1,-14 -1,-21 -1,-4 -1,-9 -1,-14 0,-16 1,-34 4,-53 2,-25 8,-48 18,-70 9,-21 24,-38 43,-49 12,-6 24,-9 37,-9 18,0 34,5 49,16 15,13 26,29 31,49 6,21 9,40 9,59 0,17 -3,35 -8,53 -5,18 -15,33 -30,44 -16,10 -34,15 -53,15 -3,0 -6,0 -10,-1zm-3 -33c4,0 7,1 10,1 5,0 10,-1 15,-1 8,-1 15,-4 22,-8 10,-8 16,-19 19,-32 3,-14 5,-27 5,-38 0,-11 -1,-23 -4,-35 -2,-13 -6,-24 -12,-34 -1,-2 -3,-5 -6,-6 -2,-2 -5,-3 -8,-3 -3,0 -5,1 -7,2 -2,2 -4,4 -6,6 -8,11 -14,24 -18,38 -7,27 -11,55 -11,84 0,6 0,12 1,18 0,3 0,5 0,8z"/>
  <path id="4" class="fil0" d="M2133 484c1,-3 3,-6 6,-7 2,-1 4,-2 7,-2 1,0 2,0 3,1 4,1 6,3 8,6 1,2 1,4 1,7 0,1 0,2 0,3 -4,13 -20,55 -49,127 -28,72 -51,122 -69,149 -5,9 -12,18 -19,26 -7,8 -15,15 -24,21 -9,6 -19,9 -30,9 -7,0 -13,-2 -19,-4 -11,-7 -19,-18 -23,-31 -4,-14 -7,-27 -7,-39 -1,-16 -2,-31 -2,-47 0,-13 1,-26 1,-39 1,-23 2,-40 2,-52 0,-15 0,-30 -1,-44 -1,-6 -1,-11 -2,-16 -1,-4 -2,-7 -3,-7 -2,0 -4,1 -5,2 -1,1 -2,2 -3,4 -13,22 -23,44 -31,68 -8,22 -15,45 -19,68l0 1c-2,4 -4,7 -6,9 -3,2 -7,3 -11,3l-4 0 -3 0c-5,0 -10,0 -14,0l-2 0c-13,0 -25,-4 -36,-14 -6,-6 -9,-14 -9,-23l0 -2c1,-13 1,-26 1,-39 0,-16 0,-31 -1,-46 -1,-18 -3,-34 -7,-50 0,-2 0,-4 -1,-5 -1,-1 -2,-2 -4,-2 -2,0 -3,1 -5,3 -1,1 -2,3 -3,5 -11,27 -20,55 -27,84 -7,29 -13,59 -19,89 -1,8 -3,17 -5,26 -2,11 -4,23 -6,34l0 1c-1,3 -3,6 -6,9 -3,2 -6,3 -10,3 -14,0 -27,-1 -40,-3 -7,-1 -13,-3 -19,-7 -7,-2 -10,-8 -11,-15 -2,-48 -6,-96 -12,-143 -2,-26 -7,-52 -12,-78 -2,-9 -4,-18 -6,-27 -3,-9 -6,-18 -10,-27 -1,-2 -2,-5 -2,-7 0,-3 1,-6 3,-9 3,-5 8,-8 14,-8 6,0 15,1 26,2 10,1 20,3 29,7 10,3 16,9 19,16 6,18 11,38 15,58 4,23 7,46 10,69 1,10 3,21 3,32 3,-10 5,-20 8,-30 4,-17 9,-34 14,-51 6,-18 12,-36 21,-54 5,-12 13,-24 22,-36 10,-11 22,-18 37,-19 7,0 13,2 19,4 13,6 23,17 30,32 7,15 12,31 15,48 3,17 5,32 5,45 0,1 1,2 1,4 6,-14 13,-28 21,-43 9,-16 19,-29 31,-40 12,-11 24,-16 38,-16 8,0 16,2 24,6 11,7 20,18 25,34 5,16 7,39 7,70 0,17 0,39 -1,64 -2,26 -2,44 -2,53 0,15 1,26 2,32 2,7 4,11 8,11 16,0 57,-88 124,-263z"/>
  <path id="5" class="fil0" d="M2314 621c-11,1 -21,2 -32,2 -18,0 -32,-5 -45,-14 -12,-9 -21,-20 -27,-35 -6,-14 -9,-29 -9,-45 0,-25 7,-45 21,-62 14,-17 34,-26 59,-26 13,0 24,4 34,11 11,8 19,17 24,30 5,12 9,25 11,39 2,14 4,27 4,39 0,6 -1,12 -1,18 24,-7 44,-15 58,-21 15,-7 33,-19 54,-35 20,-15 38,-31 54,-47 2,-3 6,-4 9,-4 3,0 7,1 9,3 3,3 4,6 4,10 0,3 -1,7 -3,9 -16,17 -34,32 -52,46 -22,17 -43,32 -64,44 -21,13 -46,23 -73,30 -4,29 -13,58 -27,86 -15,28 -36,49 -63,61 -10,4 -21,5 -32,5 -13,0 -26,-2 -38,-7 -15,-6 -29,-16 -40,-28 -11,-12 -20,-25 -28,-40 -15,-34 -23,-68 -23,-103 0,-32 7,-61 19,-88 13,-26 31,-48 55,-65 23,-16 52,-24 85,-24l0 0c5,1 8,3 11,7 2,3 3,6 3,9 0,1 -1,2 -1,3 -1,4 -3,7 -5,10 -3,2 -7,3 -11,3 -16,0 -30,5 -39,16 -10,10 -17,23 -22,38 -5,16 -8,32 -10,48 -1,17 -2,31 -2,43 0,9 1,21 3,36 2,14 5,29 10,44 5,15 11,27 20,38 8,10 18,15 31,15 10,0 20,-4 28,-12 8,-8 15,-16 19,-26 11,-19 18,-40 22,-61zm5 -35c1,-9 2,-18 2,-26 0,-6 -1,-13 -2,-23 -1,-9 -2,-18 -5,-28 -3,-9 -6,-17 -11,-23 -5,-7 -11,-10 -19,-10 -8,0 -15,3 -20,9 -5,6 -8,13 -10,21 -2,8 -3,16 -3,23 0,8 1,17 4,26 3,10 7,18 13,24 6,7 14,10 24,10 9,0 18,-1 27,-3z"/>
  <path id="6" class="fil0" d="M2577 708c-4,-6 -9,-12 -14,-18 -9,-11 -17,-22 -26,-33 -9,-13 -18,-26 -27,-40 -9,-15 -16,-30 -21,-45 -5,-16 -8,-32 -8,-49 0,-18 4,-36 11,-53 8,-18 19,-32 33,-43 14,-12 32,-17 52,-17 19,0 37,6 52,19 15,14 22,31 22,50 0,6 0,12 -2,18 -1,5 -3,8 -7,11 -3,1 -6,2 -10,2l-2 0c-5,-1 -8,-3 -11,-7 -1,-3 -2,-6 -2,-9 0,-1 0,-2 0,-3 1,-4 1,-7 1,-11 0,-7 -2,-15 -7,-22 -3,-3 -6,-5 -10,-5 -5,0 -9,2 -12,5 -9,9 -15,18 -19,30 -4,12 -6,24 -6,35 0,11 1,22 4,32 7,18 16,34 27,49 11,14 23,28 35,41 0,1 1,2 1,2 37,-37 75,-72 116,-106 5,-4 9,-7 13,-11 13,-12 27,-23 41,-34 1,-1 1,-1 2,-2 7,-6 15,-12 24,-17 2,-1 4,-2 6,-2 1,0 2,0 4,1 3,1 6,3 8,6 1,2 1,4 1,7 0,1 0,2 0,3 -1,3 -3,6 -6,8 -7,4 -14,9 -20,14 -1,1 -2,2 -3,3 -14,11 -27,22 -40,33 -41,36 -80,75 -117,115 -3,3 -5,5 -7,7 13,15 24,31 33,48 9,17 13,35 13,55 0,36 -11,63 -33,83 -23,19 -51,29 -85,29 -14,0 -27,-4 -38,-12 -8,-7 -14,-14 -19,-23 -4,-9 -6,-19 -6,-29 0,-13 3,-26 10,-40 7,-14 15,-27 24,-41 9,-13 17,-24 25,-34zm21 28c-4,4 -8,9 -11,14 -7,9 -15,21 -23,35 -9,15 -13,27 -13,38 0,4 1,8 3,11 1,4 4,6 8,9 6,2 13,4 19,4 10,0 19,-3 25,-9 5,-5 10,-13 12,-21 2,-9 3,-18 3,-27 0,-9 -2,-18 -7,-28 -5,-10 -11,-19 -16,-26z"/>
  <path id="7" class="fil0" d="M3094 579c4,29 10,56 19,83 3,9 7,17 11,26 2,4 5,8 8,12 4,4 9,6 14,6 5,0 11,-1 16,-5 5,-3 9,-6 13,-10 27,-27 53,-58 78,-93 25,-35 48,-69 70,-102 2,-3 3,-6 5,-10 3,-2 5,-4 9,-5l2 -1c3,0 5,1 8,3 3,2 5,5 5,8 1,1 1,2 1,3 0,3 -1,5 -3,7 -11,17 -22,35 -33,52 -17,29 -35,57 -55,85 -19,27 -40,53 -64,76 -11,12 -24,22 -39,32 -15,10 -31,15 -48,15 -12,0 -23,-3 -32,-11 -10,-7 -18,-15 -25,-26 -7,-10 -12,-20 -16,-30 -18,-43 -29,-87 -32,-134 0,-6 -1,-14 -1,-21 0,-4 0,-9 0,-14 0,-16 1,-34 3,-53 3,-25 9,-48 18,-70 10,-21 24,-38 43,-49 12,-6 24,-9 37,-9 18,0 34,5 49,16 15,13 26,29 32,49 5,21 8,40 8,59 0,17 -3,35 -7,53 -6,18 -16,33 -31,44 -16,10 -34,15 -53,15 -3,0 -6,0 -10,-1zm-3 -33c4,0 7,1 11,1 4,0 9,-1 14,-1 8,-1 16,-4 22,-8 10,-8 17,-19 20,-32 3,-14 4,-27 4,-38 0,-11 -1,-23 -3,-35 -2,-13 -7,-24 -13,-34 -1,-2 -3,-5 -5,-6 -3,-2 -6,-3 -9,-3 -2,0 -5,1 -7,2 -2,2 -4,4 -5,6 -8,11 -15,24 -18,38 -8,27 -11,55 -11,84 0,6 0,12 0,18 0,3 0,5 0,8z"/>
  <path id="8" class="fil0" d="M3375 468c0,5 0,9 0,14 0,20 1,40 2,60 2,27 4,54 7,81 2,20 4,40 8,59 3,17 7,34 11,51 1,2 2,4 3,6 2,2 4,3 6,3 3,0 7,-1 11,-4 3,-3 7,-6 9,-9 23,-29 47,-67 70,-114 24,-46 41,-88 50,-126 1,-4 3,-7 6,-9 2,-1 4,-2 7,-2l3 0c3,1 6,3 8,6 2,2 2,5 2,8 0,0 0,1 0,2 -18,83 -52,160 -104,233 -7,10 -15,21 -25,33 -11,12 -22,23 -35,32 -12,9 -25,13 -39,13 -22,0 -42,-25 -58,-75 -16,-50 -24,-116 -24,-197 0,-125 15,-218 43,-280 29,-62 67,-93 113,-93 12,0 24,3 35,9 12,8 21,17 26,29 5,13 8,25 8,39 0,28 -8,56 -23,85 -16,29 -34,56 -56,81 -21,25 -43,47 -64,65zm2 -46c5,-6 10,-11 15,-16 14,-14 28,-30 42,-49 14,-18 26,-38 36,-59 10,-21 15,-42 15,-61 0,-9 -2,-17 -5,-25 -3,-5 -7,-8 -13,-8 -3,0 -7,1 -11,2 -4,2 -8,4 -10,6 -17,15 -30,34 -39,58 -10,25 -17,50 -21,77 -5,27 -8,52 -9,75z"/>
  <path id="9" class="fil0" d="M4067 573c26,-15 54,-30 85,-46 31,-17 60,-31 86,-43 2,0 4,-1 6,-1 1,0 3,0 4,1 4,1 6,3 8,7 1,1 1,3 1,5 0,2 0,3 -1,5 -1,3 -3,6 -7,7 -30,15 -57,29 -81,42 -24,14 -48,29 -73,45 -6,4 -13,8 -20,13 4,25 7,50 8,76 1,9 1,18 1,27 0,20 -1,40 -4,61 -3,31 -11,60 -23,87 -11,28 -28,52 -51,71 -17,13 -35,23 -54,29 -20,7 -40,10 -61,10 -28,0 -51,-9 -71,-28 -20,-18 -29,-41 -29,-69 0,-25 7,-49 21,-73 14,-24 31,-48 53,-70 21,-22 43,-42 66,-60 23,-19 44,-34 63,-48 -2,-13 -5,-27 -8,-40 -7,-27 -16,-52 -29,-76 -5,20 -12,41 -22,60 -10,20 -23,36 -39,49 -16,13 -36,19 -61,19 -17,0 -32,-4 -44,-12 -13,-8 -23,-19 -31,-32 -8,-13 -14,-28 -18,-43 -4,-16 -6,-31 -6,-46 0,-28 4,-55 13,-81 8,-25 22,-46 41,-62 20,-16 46,-24 78,-24l2 0c26,0 49,9 68,26 14,13 23,29 27,48 0,1 1,2 1,3 0,3 -1,6 -3,9 -3,3 -6,6 -11,7 -1,0 -2,0 -3,0 -3,0 -6,-1 -9,-3 -4,-2 -6,-5 -8,-10 -2,-12 -8,-22 -16,-30 -8,-6 -17,-9 -26,-9 -9,0 -18,2 -27,7 -12,9 -21,20 -28,33 -6,14 -10,28 -13,43 -2,16 -3,30 -3,43 0,12 1,24 4,37 3,12 8,24 14,34 7,11 16,17 27,17 10,0 18,-4 24,-12 12,-15 22,-32 29,-52 7,-21 12,-40 15,-59 0,-1 0,-2 0,-3 0,-2 0,-3 1,-5 2,-6 6,-9 12,-11 8,-2 16,-3 24,-3 8,0 16,2 24,4 5,1 9,2 14,5 4,2 8,5 11,8 24,35 40,72 49,113zm-68 85c-16,12 -34,25 -54,41 -19,17 -39,34 -57,54 -18,19 -34,39 -46,59 -12,21 -18,40 -18,60 0,19 6,34 19,46 14,12 29,18 48,18 20,0 38,-7 51,-19 14,-13 25,-29 33,-48 8,-20 15,-41 18,-64 4,-22 7,-44 8,-65 0,-11 1,-21 1,-30 0,-9 -1,-17 -1,-24 0,-10 -1,-19 -2,-28z"/>
  <path id="10" class="fil0" d="M4449 384l1 -14c1,-4 3,-8 6,-10 3,-3 7,-4 11,-4 12,0 25,1 38,4 5,1 9,2 13,4 4,2 8,4 10,8 2,3 3,6 3,10l0 2c-4,35 -7,70 -7,106 0,9 0,18 1,27 1,13 2,26 5,39 0,5 1,13 4,23 2,10 5,19 10,27 4,9 9,13 16,13 9,0 21,-5 34,-17 14,-12 28,-25 42,-41 14,-16 27,-30 38,-44 10,-14 18,-23 21,-28 3,-4 6,-5 9,-6l2 0c3,0 5,1 8,2 3,2 5,5 5,9l0 2c0,2 0,5 -2,8 -10,14 -22,30 -35,48 -14,18 -29,35 -45,52 -16,17 -34,31 -52,42 -18,11 -36,16 -54,16 -9,0 -17,-1 -24,-4 -23,-9 -39,-27 -48,-52 -9,-25 -14,-50 -16,-75 -7,18 -15,36 -24,56 -9,19 -21,37 -34,53 -12,17 -27,31 -44,41 -16,11 -35,16 -55,16 -13,0 -25,-3 -36,-9 -15,-10 -27,-24 -35,-43 -8,-18 -12,-38 -15,-59 -2,-21 -3,-40 -3,-57l0 -11c1,-30 3,-59 8,-88 2,-11 4,-21 6,-32 3,-11 6,-21 10,-32 3,-7 9,-10 15,-10 13,0 25,2 37,5 5,1 10,3 14,6 7,4 11,10 11,17 0,2 0,4 -1,5 -5,19 -9,38 -11,57 -4,24 -6,48 -7,73 0,9 1,19 1,28 1,13 2,26 4,40 0,6 2,14 4,25 3,10 6,20 11,29 4,9 10,14 18,14 7,0 15,-4 23,-12 8,-8 15,-17 22,-26 6,-10 11,-17 15,-23 8,-14 15,-28 21,-42 5,-10 10,-20 14,-31 9,-27 18,-54 25,-83 4,-18 8,-36 12,-54z"/>
  <path id="11" class="fil0" d="M4811 639c6,5 13,10 20,16 33,27 54,49 63,65 9,17 14,35 14,55 0,36 -12,63 -34,83 -23,19 -51,29 -85,29 -14,0 -26,-4 -38,-12 -8,-7 -14,-14 -18,-23 -5,-9 -7,-23 -7,-42 0,-20 11,-57 31,-111 -21,-19 -35,-33 -41,-42 -10,-13 -19,-26 -28,-40 -9,-15 -16,-30 -21,-45 -5,-16 -8,-32 -8,-49 0,-18 4,-36 11,-53 8,-18 19,-32 33,-43 14,-12 32,-17 52,-17 26,0 39,7 40,21 -1,15 -6,22 -16,22 -4,0 -9,2 -12,5 -9,9 -15,18 -19,30 -4,12 -6,24 -6,35 0,11 1,22 4,32 7,18 16,34 27,49 2,3 8,8 16,15 19,-45 42,-97 70,-157 53,-113 92,-195 117,-246 26,-50 53,-75 81,-75 16,0 31,6 44,18 12,13 19,44 19,92 0,38 -6,84 -16,139l71 4c4,0 8,2 11,5 2,4 4,8 4,12 0,5 -2,9 -5,12 -4,3 -8,4 -12,4l-76 -4c-13,62 -20,118 -20,167 0,44 6,77 20,99 13,22 31,33 54,33 7,0 14,-2 21,-6 7,-4 12,-8 18,-13 23,-23 42,-48 60,-74 17,-27 32,-55 46,-84 10,-22 20,-44 28,-65 2,-4 4,-6 7,-8 2,-1 4,-1 6,-1 1,0 3,0 4,1 4,1 6,4 8,7 0,1 1,3 1,5 0,1 -1,3 -1,5 -9,23 -19,45 -29,67 -9,19 -20,41 -34,66 -13,24 -28,48 -45,71 -17,23 -36,42 -56,57 -20,15 -42,23 -64,23 -38,0 -69,-16 -92,-47 -23,-31 -35,-77 -35,-136 0,-50 9,-108 26,-174l-18 0c-5,-1 -9,-2 -11,-6 -3,-3 -5,-7 -5,-12 0,-4 2,-8 6,-11 3,-3 6,-4 11,-4l1 0 25 1c19,-70 29,-123 29,-158 0,-21 -6,-31 -16,-31 -17,0 -69,91 -154,273 -31,66 -57,122 -77,171zm-22 208c11,0 19,-3 25,-9 6,-5 10,-13 12,-21 2,-9 3,-18 3,-27 0,-9 -2,-18 -7,-28 -4,-8 -18,-22 -41,-43 -15,42 -22,72 -22,91 0,13 4,22 10,28 7,6 14,9 20,9z"/>
  <path id="12" class="fil0" d="M5506 621c-11,1 -22,2 -33,2 -17,0 -32,-5 -44,-14 -12,-9 -21,-20 -27,-35 -6,-14 -9,-29 -9,-45 0,-25 7,-45 21,-62 14,-17 33,-26 59,-26 12,0 23,4 34,11 10,8 18,17 23,30 6,12 10,25 12,39 2,14 3,27 3,39 0,6 0,12 0,18 24,-7 43,-15 58,-21 14,-7 32,-19 54,-35 19,-15 37,-31 53,-47 3,-3 6,-4 10,-4 3,0 6,1 9,3 3,3 4,6 4,10 0,3 -1,7 -4,9 -16,17 -33,32 -52,46 -21,17 -42,32 -64,44 -21,13 -45,23 -73,30 -4,29 -13,58 -27,86 -14,28 -35,49 -63,61 -10,4 -20,5 -31,5 -14,0 -26,-2 -39,-7 -15,-6 -28,-16 -39,-28 -12,-12 -21,-25 -28,-40 -16,-34 -23,-68 -23,-103 0,-32 6,-61 19,-88 12,-26 30,-48 54,-65 24,-16 52,-24 85,-24l1 0c4,1 8,3 10,7 2,3 3,6 3,9 0,1 0,2 0,3 -1,4 -3,7 -6,10 -3,2 -6,3 -10,3 -17,0 -30,5 -40,16 -9,10 -17,23 -22,38 -5,16 -8,32 -9,48 -2,17 -3,31 -3,43 0,9 1,21 3,36 2,14 6,29 11,44 4,15 11,27 19,38 9,10 19,15 31,15 11,0 20,-4 29,-12 8,-8 14,-16 19,-26 10,-19 17,-40 22,-61zm5 -35c1,-9 1,-18 1,-26 0,-6 0,-13 -1,-23 -1,-9 -3,-18 -5,-28 -3,-9 -7,-17 -11,-23 -5,-7 -11,-10 -19,-10 -9,0 -16,3 -20,9 -5,6 -9,13 -11,21 -2,8 -3,16 -3,23 0,8 2,17 4,26 3,10 7,18 13,24 6,7 15,10 25,10 9,0 18,-1 27,-3z"/>
  <path id="13" class="fil0" d="M622 1643c-7,-44 -13,-87 -17,-131 -1,-18 -2,-36 -2,-54 0,-18 2,-40 5,-65 4,-24 10,-47 20,-68 10,-21 25,-36 45,-45 8,-3 16,-5 25,-5 8,0 16,2 24,5 18,9 32,23 41,43 9,20 14,42 17,66 3,24 4,44 4,61 0,37 -3,74 -8,111 -6,50 -15,99 -27,147 -4,15 -8,30 -13,45 11,28 26,53 46,76 4,4 8,7 13,10 5,2 10,4 15,4 12,0 24,-6 36,-18 13,-12 25,-26 36,-44 12,-17 23,-35 32,-52 10,-18 17,-33 24,-45l4 -9c2,-4 5,-6 8,-7 2,0 3,-1 4,-1 2,0 4,1 6,2 3,2 6,4 7,8 0,1 0,2 0,4 0,2 0,4 -1,6l-9 18c-9,18 -19,37 -30,57 -12,21 -24,41 -39,60 -14,20 -29,35 -45,48 -17,13 -34,19 -53,19 -18,0 -35,-4 -50,-12 -14,-8 -27,-19 -39,-33 -9,20 -21,39 -35,58 -14,18 -30,34 -48,46 -19,12 -40,18 -64,18 -41,0 -72,-13 -93,-38 -22,-25 -33,-63 -33,-114 0,-53 13,-96 38,-128 25,-32 62,-48 111,-48 15,0 30,1 45,5zm57 170c-12,-22 -22,-44 -30,-68 -8,-21 -14,-42 -19,-64 -15,-6 -29,-9 -42,-9 -21,0 -39,13 -54,37 -16,25 -23,62 -23,113 0,36 6,62 18,78 12,16 26,25 43,25 14,0 27,-4 38,-13 16,-12 29,-27 41,-45 11,-18 21,-36 28,-54zm39 -117c0,-1 0,-3 1,-5 11,-45 19,-90 24,-136 3,-19 5,-39 6,-58 1,-16 2,-31 2,-47 0,-16 -1,-32 -3,-48 -1,-17 -4,-33 -9,-48 -1,-2 -2,-5 -3,-9 -2,-3 -3,-7 -6,-9 -2,-3 -4,-4 -7,-4 -3,0 -5,0 -8,2 -2,2 -4,4 -5,7 -6,7 -10,14 -12,23 -5,15 -8,31 -10,47 -1,16 -2,31 -2,47 0,30 2,59 5,88 3,38 9,75 17,112 3,13 6,25 10,38z"/>
  <path id="14" class="fil0" d="M997 1766c4,28 10,56 19,82 3,9 6,18 10,26 3,5 6,9 9,13 4,3 8,5 14,5 5,0 10,-1 15,-4 5,-3 10,-7 14,-11 27,-27 53,-58 78,-93 25,-35 48,-69 69,-102 2,-3 4,-6 6,-9 2,-3 5,-5 9,-6l2 0c3,0 5,1 7,2 4,2 5,5 6,8 0,2 0,3 0,4 0,2 0,4 -2,6 -11,18 -22,35 -33,52 -17,29 -36,58 -55,85 -19,28 -40,53 -64,76 -11,12 -25,23 -40,33 -15,10 -31,14 -47,14 -12,0 -23,-3 -33,-10 -9,-7 -17,-16 -24,-26 -7,-10 -12,-21 -17,-31 -17,-42 -28,-87 -31,-133 -1,-7 -1,-14 -1,-21 -1,-5 -1,-10 -1,-14 0,-17 1,-35 4,-54 2,-24 8,-48 18,-69 9,-22 24,-39 43,-50 12,-6 24,-9 37,-9 18,0 34,5 49,16 15,13 26,30 31,50 6,20 9,39 9,58 0,18 -3,36 -8,53 -5,18 -15,33 -30,44 -16,10 -34,15 -53,15 -3,0 -6,0 -10,0zm-3 -34c3,1 7,1 10,1 5,0 10,0 15,-1 8,-1 15,-4 22,-8 10,-8 16,-19 19,-32 3,-14 5,-26 5,-38 0,-11 -1,-23 -4,-35 -2,-12 -6,-23 -12,-33 -1,-3 -3,-5 -6,-7 -2,-2 -5,-3 -8,-3 -3,0 -5,1 -7,2 -2,2 -4,4 -6,6 -8,12 -14,24 -18,38 -7,28 -11,55 -11,84 0,6 0,12 1,18 0,3 0,6 0,8z"/>
  <path id="15" class="fil0" d="M1690 1683c-10,40 -23,81 -35,121 -13,40 -29,80 -47,118 -12,26 -27,50 -46,73 -4,6 -10,11 -15,16 -11,9 -22,13 -36,13l-3 0c-17,-2 -31,-12 -42,-28 -11,-17 -20,-36 -26,-56 -7,-21 -11,-39 -14,-54 -7,-40 -11,-81 -12,-123 0,-11 0,-21 0,-31 0,-36 1,-72 5,-107 1,-5 3,-8 6,-11 3,-3 6,-4 10,-4 14,0 29,3 43,8 3,2 6,3 9,5 9,5 13,13 13,22 -3,28 -4,57 -4,85 0,6 0,13 0,21 1,36 3,72 9,108 1,7 2,14 4,21 2,12 5,24 8,36 1,7 3,14 5,20 2,6 4,12 7,18 1,4 4,8 6,11 0,1 1,2 2,3 1,1 2,1 2,1 1,0 1,0 2,0 0,0 0,-1 1,-1 0,0 0,0 0,-1 3,-2 4,-4 6,-6 5,-7 9,-14 13,-21 6,-11 12,-22 18,-33 35,-74 64,-151 86,-231 1,-4 3,-7 6,-8 2,-2 4,-2 7,-2 1,0 2,0 3,0 4,2 6,4 8,7 1,2 2,4 2,6 0,1 0,3 -1,4zm-164 -186c0,8 -1,16 -2,27 -2,10 -5,20 -9,28 -5,8 -12,12 -20,12 -7,0 -16,0 -27,-1 -11,-1 -20,-4 -29,-8 -8,-4 -13,-11 -13,-21 0,-7 1,-16 3,-26 2,-10 6,-18 11,-26 5,-7 12,-10 22,-10 6,0 15,0 25,1 10,1 19,3 27,7 8,4 12,9 12,17z"/>
  <path id="16" class="fil0" d="M1743 1779c4,-12 9,-23 13,-35 14,-34 30,-67 49,-97 5,-7 10,-15 16,-22 7,-8 14,-14 21,-20 8,-5 16,-8 25,-8 5,0 10,1 15,4 16,8 26,22 30,43 4,21 6,46 6,75 0,19 -1,38 -2,57 -1,23 -3,50 -6,82 -3,32 -5,57 -5,73 0,12 1,25 3,40 2,14 5,21 10,21 15,0 42,-52 82,-154 40,-103 62,-158 65,-164 1,-3 4,-6 7,-7 2,0 3,-1 4,-1 2,0 4,1 6,2 4,2 6,4 7,7 1,2 1,3 1,5 0,2 -1,4 -2,6 -3,6 -23,57 -60,154 -38,97 -67,157 -88,181 -22,25 -42,37 -62,37 -6,0 -12,-1 -18,-3 -15,-9 -26,-24 -30,-45 -5,-20 -7,-39 -7,-56 -1,-11 -1,-22 -1,-32 0,-15 1,-29 1,-44 1,-11 4,-33 7,-67 3,-33 5,-66 5,-99 0,-10 0,-21 -1,-32 0,-3 -1,-5 -3,-5 -3,0 -6,2 -8,6 -14,24 -26,49 -36,76 -9,20 -16,41 -23,63 -6,17 -11,35 -14,53 0,0 -1,1 -1,1 -1,4 -3,7 -6,9 -3,2 -6,4 -10,4 -14,0 -28,-3 -41,-8 -6,-1 -12,-5 -17,-8 -5,-4 -8,-10 -8,-16 -2,-29 -4,-58 -8,-87 -2,-16 -5,-32 -8,-49 -2,-9 -5,-18 -8,-28 -2,-7 -5,-14 -9,-20 -2,-3 -4,-6 -4,-9 0,-2 1,-4 1,-6 2,-5 6,-9 12,-11 8,-2 17,-3 27,-3 11,0 21,3 31,8 3,1 6,4 9,6 4,3 6,6 8,9 6,14 11,29 14,45 4,18 7,36 9,54 1,5 1,10 2,15z"/>
  <path id="17" class="fil0" d="M2294 1708c12,2 25,3 38,3 17,0 34,-2 52,-6 30,-7 56,-21 80,-40 3,-2 5,-3 8,-3l1 0c4,0 7,2 9,4 2,3 3,6 3,9l0 1c0,3 -1,6 -4,9 -26,21 -57,36 -94,47 -27,8 -53,11 -78,11 -10,0 -20,0 -30,-1 -2,4 -4,9 -6,15 -18,37 -39,72 -63,105 -9,13 -18,24 -28,35 -4,4 -9,8 -14,12 -5,3 -11,5 -17,5 -9,0 -18,-3 -26,-11 -7,-7 -14,-16 -19,-26 -6,-9 -10,-18 -13,-26 -17,-39 -30,-80 -39,-122 -8,-32 -14,-64 -19,-97 -2,-12 -3,-24 -4,-36 -1,-8 -1,-16 -1,-24 0,-5 0,-10 0,-15 1,-4 2,-8 5,-11 4,-2 7,-4 12,-4l10 0c13,1 26,4 39,8 6,2 11,5 17,8 6,4 9,10 9,17 1,22 3,43 7,65 4,28 10,55 16,81 7,28 15,55 24,82 4,13 9,26 15,39 1,-1 2,-2 2,-3 22,-31 41,-63 57,-97 1,-3 2,-5 4,-8 -28,-9 -50,-24 -66,-44 -16,-21 -24,-46 -24,-76 0,-15 3,-30 10,-45 6,-16 15,-29 27,-40 12,-11 26,-16 43,-16 17,0 31,5 43,15 12,10 20,23 26,38 6,15 9,30 9,45 0,14 -1,27 -4,40 -3,13 -7,26 -11,39 -2,6 -4,12 -6,18zm-32 -10c2,-6 4,-11 6,-17 4,-11 7,-22 10,-34 3,-12 4,-24 4,-36 0,-7 -1,-15 -3,-24 -3,-10 -6,-18 -12,-25 -5,-8 -12,-11 -21,-11 -3,0 -7,0 -10,2 -10,5 -17,14 -22,27 -5,12 -8,24 -8,34 0,40 19,68 56,84z"/>
  <path id="18" class="fil0" d="M2702 1683c-11,40 -23,81 -36,121 -13,40 -28,80 -47,118 -12,26 -27,50 -45,73 -5,6 -10,11 -16,16 -10,9 -22,13 -35,13l-3 0c-17,-2 -31,-12 -42,-28 -12,-17 -20,-36 -27,-56 -6,-21 -10,-39 -13,-54 -7,-40 -12,-81 -12,-123 -1,-11 -1,-21 -1,-31 0,-36 2,-72 6,-107 0,-5 2,-8 5,-11 4,-3 7,-4 11,-4 14,0 28,3 42,8 4,2 7,3 10,5 8,5 13,13 13,22 -3,28 -5,57 -5,85 0,6 0,13 1,21 0,36 3,72 8,108 1,7 3,14 5,21 2,12 5,24 7,36 2,7 4,14 6,20 2,6 4,12 6,18 2,4 4,8 7,11 0,1 1,2 2,3 0,1 1,1 2,1 0,0 1,0 1,0 1,0 1,-1 1,-1 1,0 1,0 1,-1 2,-2 4,-4 6,-6 5,-7 9,-14 13,-21 6,-11 12,-22 17,-33 36,-74 64,-151 87,-231 1,-4 3,-7 6,-8 2,-2 4,-2 7,-2 1,0 2,0 3,0 3,2 6,4 8,7 1,2 1,4 1,6 0,1 0,3 0,4zm-164 -186c0,8 -1,16 -3,27 -1,10 -4,20 -9,28 -4,8 -11,12 -19,12 -8,0 -17,0 -27,-1 -11,-1 -21,-4 -29,-8 -9,-4 -13,-11 -13,-21 0,-7 1,-16 3,-26 2,-10 5,-18 10,-26 6,-7 13,-10 22,-10 7,0 15,0 26,1 10,1 19,3 27,7 8,4 12,9 12,17z"/>
  <path id="19" class="fil0" d="M2660 1605l-66 -3c-5,0 -9,-2 -12,-6 -2,-3 -4,-7 -4,-11 0,-5 2,-9 6,-11 3,-3 6,-5 10,-5l2 0 75 4c12,-32 28,-62 48,-90 4,-4 8,-6 13,-6 7,0 13,0 20,1 7,1 13,2 19,4 6,2 11,6 15,10 3,4 4,8 4,12 0,2 0,3 0,5 -1,2 -2,4 -4,6 -12,20 -23,40 -32,62l68 3c5,1 9,3 11,6 3,3 5,7 5,12 -1,5 -2,8 -6,11 -3,3 -7,5 -11,5l-78 -4c-12,40 -18,81 -18,123 0,21 1,42 5,63 3,22 8,43 16,63 4,10 10,20 17,30 8,9 17,16 28,18 3,1 5,1 8,1 7,0 14,-2 21,-5 6,-4 12,-9 17,-14 23,-23 43,-48 60,-74 17,-26 33,-54 47,-84 10,-22 19,-43 28,-65 1,-3 3,-6 7,-7 1,-1 3,-2 5,-2 2,0 3,1 5,1 3,2 6,4 7,7 1,1 2,3 2,5 0,1 -1,3 -2,5 -8,23 -18,45 -28,67 -9,20 -20,42 -34,66 -13,25 -28,48 -45,71 -17,23 -36,42 -56,57 -20,16 -42,23 -65,23 -9,0 -18,-1 -27,-4 -18,-7 -34,-18 -46,-33 -12,-15 -21,-32 -28,-49 -9,-22 -15,-45 -19,-69 -4,-24 -6,-48 -6,-71 0,-43 6,-86 18,-128z"/>
  <path id="20" class="fil0" d="M3178 1757c-3,13 -8,28 -14,44 -7,15 -15,30 -26,45 -10,14 -23,26 -40,36 -16,9 -37,13 -61,13 -15,0 -28,-3 -40,-10 -12,-6 -22,-15 -31,-27 -11,-15 -18,-31 -22,-48 -4,-17 -7,-35 -7,-53 0,-19 4,-39 11,-59 7,-21 17,-39 29,-54 16,-20 35,-35 56,-45 22,-9 46,-14 71,-14 16,0 30,1 42,4 14,5 29,10 45,17 7,-2 14,-3 21,-3 8,0 17,1 25,4 5,2 10,5 15,10 4,4 6,9 6,15 0,14 -1,27 -1,41l0 13c0,21 1,42 3,63 2,22 5,44 11,65 3,11 7,22 14,31 1,3 4,5 7,7 3,2 6,3 9,3 6,0 11,-2 16,-7 6,-4 10,-9 13,-13 18,-23 35,-49 53,-79 17,-30 31,-58 43,-83 2,-4 4,-6 7,-7 2,-1 3,-1 5,-1 1,0 3,0 5,1 4,2 6,5 7,8 1,1 1,3 1,5 0,2 0,3 -1,5l-10 22c-12,26 -24,52 -36,76 -13,24 -29,49 -48,73 -7,9 -15,18 -24,27 -9,9 -19,16 -29,22 -11,6 -22,10 -34,10 -17,0 -31,-6 -41,-17 -11,-11 -20,-24 -26,-38 -7,-15 -11,-30 -14,-44 -5,-19 -8,-39 -10,-58zm-9 -59c3,-14 6,-35 6,-63 -17,-9 -32,-13 -45,-13 -16,0 -32,5 -47,15 -15,9 -27,21 -37,34 -7,12 -14,26 -19,42 -5,16 -7,30 -7,44 0,12 1,25 3,36 3,12 7,23 12,35 7,14 17,22 32,22 18,-1 34,-10 47,-28 14,-18 25,-38 34,-62 8,-23 16,-44 21,-62z"/>
  <path id="21" class="fil0" d="M3541 1701c13,2 26,4 39,4 6,0 10,2 13,6 3,3 4,7 4,10 0,2 0,3 0,4 -11,49 -19,99 -24,150 -3,21 -4,42 -4,63 0,7 0,13 1,19 0,10 1,20 2,30 1,6 2,12 3,18 1,5 3,10 4,15 1,2 1,3 2,5 1,3 2,4 4,6 1,2 2,2 4,2 2,0 5,-1 7,-4 3,-3 5,-6 7,-9l1 -2c5,-6 9,-13 13,-19 21,-34 42,-74 62,-122 21,-47 38,-90 51,-129l14 -38 3 -11c1,-1 1,-2 2,-3 3,-10 6,-20 10,-30 2,-3 4,-6 7,-7 2,-1 4,-2 6,-2 1,0 3,1 4,1 4,2 6,4 8,7 1,1 1,3 1,5 0,1 0,3 -1,5 -4,10 -7,19 -11,29 0,1 0,3 -1,4l-3 10 -14 39 -15 42c-12,37 -25,73 -40,110 -15,36 -33,72 -55,108 -6,9 -13,19 -21,29 -8,11 -18,20 -28,27 -10,7 -21,11 -33,11 -12,0 -23,-3 -34,-9 -14,-9 -24,-22 -30,-37 -7,-16 -11,-33 -13,-51 -2,-18 -3,-35 -3,-49 0,-22 1,-44 4,-66 5,-49 12,-97 23,-144 -14,-4 -27,-8 -40,-14 -18,-7 -35,-17 -49,-31 -20,-18 -30,-41 -30,-67 0,-30 10,-67 32,-111 3,-7 8,-11 15,-11 13,0 26,2 38,6 6,2 10,4 15,6 4,3 7,6 9,11 -27,43 -41,80 -42,111 0,34 27,58 83,73z"/>
  <path id="22" class="fil0" d="M3742 1605l-66 -3c-5,0 -9,-2 -11,-6 -3,-3 -5,-7 -5,-11 1,-5 2,-9 6,-11 3,-3 6,-5 11,-5l1 0 75 4c12,-32 28,-62 49,-90 3,-4 7,-6 13,-6 6,0 12,0 19,1 7,1 13,2 19,4 6,2 11,6 15,10 3,4 4,8 4,12 0,2 0,3 0,5 -1,2 -2,4 -3,6 -13,20 -24,40 -33,62l68 3c5,1 9,3 12,6 2,3 4,7 4,12 0,5 -2,8 -6,11 -3,3 -7,5 -11,5l-78 -4c-12,40 -18,81 -18,123 0,21 2,42 5,63 3,22 8,43 16,63 4,10 10,20 17,30 8,9 17,16 29,18 2,1 4,1 7,1 7,0 14,-2 21,-5 6,-4 12,-9 17,-14 23,-23 43,-48 60,-74 17,-26 33,-54 47,-84 10,-22 19,-43 28,-65 1,-3 4,-6 7,-7 2,-1 3,-2 5,-2 2,0 4,1 5,1 4,2 6,4 7,7 1,1 2,3 2,5 0,1 -1,3 -2,5 -8,23 -18,45 -28,67 -9,20 -20,42 -34,66 -13,25 -28,48 -45,71 -17,23 -36,42 -56,57 -20,16 -42,23 -64,23 -9,0 -19,-1 -27,-4 -19,-7 -34,-18 -47,-33 -12,-15 -21,-32 -28,-49 -9,-22 -15,-45 -19,-69 -4,-24 -6,-48 -6,-71 0,-43 6,-86 18,-128z"/>
  <path id="23" class="fil0" d="M4109 1766c4,28 10,56 19,82 3,9 7,18 11,26 2,5 5,9 9,13 3,3 8,5 13,5 6,0 11,-1 16,-4 5,-3 9,-7 13,-11 27,-27 53,-58 78,-93 25,-35 48,-69 70,-102 2,-3 4,-6 5,-9 3,-3 5,-5 9,-6l2 0c3,0 5,1 8,2 3,2 5,5 5,8 1,2 1,3 1,4 0,2 -1,4 -2,6 -12,18 -23,35 -33,52 -18,29 -36,58 -55,85 -20,28 -41,53 -65,76 -11,12 -24,23 -39,33 -15,10 -31,14 -48,14 -12,0 -23,-3 -32,-10 -10,-7 -18,-16 -25,-26 -7,-10 -12,-21 -16,-31 -18,-42 -28,-87 -32,-133 0,-7 -1,-14 -1,-21 0,-5 0,-10 0,-14 0,-17 1,-35 3,-54 3,-24 9,-48 18,-69 10,-22 24,-39 43,-50 12,-6 24,-9 37,-9 18,0 35,5 49,16 16,13 26,30 32,50 5,20 8,39 8,58 0,18 -2,36 -7,53 -6,18 -16,33 -31,44 -16,10 -34,15 -53,15 -3,0 -6,0 -10,0zm-2 -34c3,1 6,1 10,1 4,0 9,0 14,-1 8,-1 16,-4 22,-8 10,-8 17,-19 20,-32 3,-14 4,-26 4,-38 0,-11 -1,-23 -3,-35 -2,-12 -6,-23 -12,-33 -2,-3 -4,-5 -6,-7 -3,-2 -5,-3 -9,-3 -2,0 -5,1 -7,2 -2,2 -4,4 -5,6 -8,12 -14,24 -18,38 -8,28 -11,55 -11,84 0,6 0,12 0,18 0,3 0,6 1,8z"/>
  <path id="24" class="fil0" d="M4767 1757c-4,13 -9,28 -15,44 -6,15 -15,30 -25,45 -11,14 -24,26 -41,36 -16,9 -36,13 -61,13 -14,0 -27,-3 -39,-10 -12,-6 -23,-15 -31,-27 -11,-15 -19,-31 -23,-48 -4,-17 -6,-35 -6,-53 0,-19 3,-39 10,-59 8,-21 17,-39 29,-54 16,-20 35,-35 57,-45 22,-9 45,-14 70,-14 17,0 31,1 42,4 15,5 30,10 46,17 7,-2 14,-3 21,-3 8,0 16,1 24,4 6,2 11,5 15,10 4,4 7,9 7,15 -1,14 -1,27 -1,41l0 13c0,21 1,42 2,63 2,22 6,44 11,65 3,11 8,22 14,31 2,3 4,5 7,7 3,2 6,3 10,3 5,0 10,-2 16,-7 5,-4 9,-9 13,-13 17,-23 35,-49 52,-79 17,-30 32,-58 44,-83 1,-4 3,-6 7,-7 1,-1 3,-1 4,-1 2,0 4,0 6,1 3,2 5,5 7,8 1,1 1,3 1,5 0,2 0,3 -1,5l-11 22c-11,26 -23,52 -36,76 -12,24 -28,49 -47,73 -7,9 -15,18 -24,27 -9,9 -19,16 -30,22 -11,6 -22,10 -34,10 -16,0 -30,-6 -41,-17 -10,-11 -19,-24 -26,-38 -6,-15 -11,-30 -14,-44 -4,-19 -7,-39 -9,-58zm-10 -59c4,-14 6,-35 7,-63 -18,-9 -33,-13 -45,-13 -17,0 -33,5 -48,15 -15,9 -27,21 -36,34 -8,12 -14,26 -19,42 -5,16 -7,30 -7,44 0,12 1,25 3,36 2,12 6,23 12,35 7,14 17,22 31,22 19,-1 34,-10 48,-28 13,-18 24,-38 33,-62 9,-23 16,-44 21,-62z"/>
  <path id="25" class="fil0" d="M5046 1892c16,0 27,5 32,16 5,12 7,25 7,40 -1,32 -16,48 -45,48 -36,0 -55,-13 -56,-39 0,-28 5,-46 16,-54 11,-7 26,-11 46,-11z"/>
  <path id="26" class="fil0" d="M5199 1892c16,0 27,5 32,16 5,12 7,25 7,40 -1,32 -16,48 -45,48 -36,0 -55,-13 -56,-39 0,-28 5,-46 16,-54 11,-7 26,-11 46,-11z"/>
  <path id="27" class="fil0" d="M5352 1892c16,0 27,5 32,16 5,12 7,25 7,40 -1,32 -16,48 -45,48 -36,0 -55,-13 -56,-39 0,-28 5,-46 16,-54 11,-7 26,-11 46,-11z"/>
 </g>
</svg>
