<?xml version="1.0" encoding="UTF-8"?>
<!DOCTYPE svg PUBLIC "-//W3C//DTD SVG 1.1//EN" "http://www.w3.org/Graphics/SVG/1.1/DTD/svg11.dtd">
<!-- Creator: CorelDRAW 2020 (64-Bit) -->
<svg xmlns="http://www.w3.org/2000/svg" xml:space="preserve" width="8.3818mm" height="8.3818mm" version="1.1" style="shape-rendering:geometricPrecision; text-rendering:geometricPrecision; image-rendering:optimizeQuality; fill-rule:evenodd; clip-rule:evenodd"
viewBox="0 0 6.1 6.1"
 xmlns:xlink="http://www.w3.org/1999/xlink"
 xmlns:xodm="http://www.corel.com/coreldraw/odm/2003">
 <defs>
  <style type="text/css">
   <![CDATA[
    .fil0 {fill:white;fill-rule:nonzero}
   ]]>
  </style>
 </defs>
 <g id="diseño">
  <metadata id="CorelCorpID_0Corel-Layer"/>
  <path class="fil0" d="M6.1 3.05c0,-1.68 -1.36,-3.05 -3.05,-3.05 -1.68,0 -3.05,1.36 -3.05,3.05 0,1.68 1.36,3.05 3.05,3.05 0.02,0 0.04,0 0.05,-0l0 -2.37 -0.65 0 0 -0.76 0.65 0 0 -0.56c0,-0.65 0.4,-1.01 0.98,-1.01 0.28,0 0.52,0.02 0.59,0.03l0 0.68 -0.4 0c-0.32,0 -0.38,0.15 -0.38,0.37l0 0.49 0.76 0 -0.1 0.76 -0.66 0 0 2.26c1.27,-0.37 2.21,-1.54 2.21,-2.93z"/>
 </g>
</svg>
