<?xml version="1.0" encoding="UTF-8"?>
<!DOCTYPE svg PUBLIC "-//W3C//DTD SVG 1.1//EN" "http://www.w3.org/Graphics/SVG/1.1/DTD/svg11.dtd">
<!-- Creator: CorelDRAW 2020 (64-Bit) -->
<svg xmlns="http://www.w3.org/2000/svg" xml:space="preserve" width="8.3818mm" height="8.3818mm" version="1.1" style="shape-rendering:geometricPrecision; text-rendering:geometricPrecision; image-rendering:optimizeQuality; fill-rule:evenodd; clip-rule:evenodd"
viewBox="0 0 5.85 5.85"
 xmlns:xlink="http://www.w3.org/1999/xlink"
 xmlns:xodm="http://www.corel.com/coreldraw/odm/2003">
 <defs>
  <style type="text/css">
   <![CDATA[
    .fil0 {fill:white;fill-rule:nonzero}
   ]]>
  </style>
 </defs>
 <g id="diseño">
  <metadata id="CorelCorpID_0Corel-Layer"/>
  <g id="_3012667193392">
   <path class="fil0" d="M3.48 2.92c0,0.31 -0.25,0.56 -0.56,0.56 -0.31,0 -0.56,-0.25 -0.56,-0.56 0,-0.31 0.25,-0.56 0.56,-0.56 0.31,0 0.56,0.25 0.56,0.56z"/>
   <path class="fil0" d="M4.23 1.93c-0.03,-0.07 -0.07,-0.14 -0.13,-0.19 -0.05,-0.06 -0.12,-0.1 -0.19,-0.13 -0.06,-0.02 -0.15,-0.05 -0.31,-0.06 -0.18,-0.01 -0.23,-0.01 -0.68,-0.01 -0.45,0 -0.5,0 -0.68,0.01 -0.16,0.01 -0.25,0.03 -0.31,0.06 -0.07,0.03 -0.14,0.07 -0.19,0.13 -0.06,0.05 -0.1,0.12 -0.13,0.19 -0.02,0.06 -0.05,0.15 -0.06,0.31 -0.01,0.18 -0.01,0.23 -0.01,0.68 0,0.45 0,0.5 0.01,0.68 0.01,0.16 0.03,0.25 0.06,0.31 0.03,0.07 0.07,0.14 0.13,0.19 0.05,0.06 0.12,0.1 0.19,0.13 0.06,0.02 0.15,0.05 0.31,0.06 0.18,0.01 0.23,0.01 0.68,0.01 0.45,0 0.5,-0 0.68,-0.01 0.16,-0.01 0.25,-0.03 0.31,-0.06 0.15,-0.06 0.26,-0.17 0.32,-0.32 0.02,-0.06 0.05,-0.15 0.06,-0.31 0.01,-0.18 0.01,-0.23 0.01,-0.68 0,-0.45 -0,-0.5 -0.01,-0.68 -0.01,-0.16 -0.03,-0.25 -0.06,-0.31zm-1.31 1.85l0 0c-0.48,0 -0.86,-0.39 -0.86,-0.86 0,-0.48 0.39,-0.86 0.86,-0.86 0.48,0 0.86,0.39 0.86,0.86 0,0.48 -0.39,0.86 -0.86,0.86zm0.9 -1.56l0 0c-0.11,0 -0.2,-0.09 -0.2,-0.2 0,-0.11 0.09,-0.2 0.2,-0.2 0.11,0 0.2,0.09 0.2,0.2 -0,0.11 -0.09,0.2 -0.2,0.2z"/>
   <path class="fil0" d="M2.92 0c-1.61,0 -2.92,1.31 -2.92,2.92 0,1.61 1.31,2.92 2.92,2.92 1.61,0 2.92,-1.31 2.92,-2.92 0,-1.61 -1.31,-2.92 -2.92,-2.92zm1.67 3.62l0 0c-0.01,0.18 -0.04,0.3 -0.08,0.41 -0.09,0.23 -0.27,0.4 -0.49,0.49 -0.11,0.04 -0.23,0.07 -0.41,0.08 -0.18,0.01 -0.24,0.01 -0.69,0.01 -0.46,0 -0.51,-0 -0.69,-0.01 -0.18,-0.01 -0.3,-0.04 -0.41,-0.08 -0.11,-0.04 -0.21,-0.11 -0.3,-0.19 -0.09,-0.08 -0.15,-0.19 -0.19,-0.3 -0.04,-0.11 -0.07,-0.23 -0.08,-0.41 -0.01,-0.18 -0.01,-0.24 -0.01,-0.69 0,-0.46 0,-0.51 0.01,-0.69 0.01,-0.18 0.04,-0.3 0.08,-0.41 0.04,-0.11 0.11,-0.21 0.19,-0.3 0.08,-0.09 0.19,-0.15 0.3,-0.19 0.11,-0.04 0.23,-0.07 0.41,-0.08 0.18,-0.01 0.24,-0.01 0.69,-0.01 0.46,0 0.51,0 0.69,0.01 0.18,0.01 0.3,0.04 0.41,0.08 0.11,0.04 0.21,0.11 0.3,0.19 0.09,0.08 0.15,0.19 0.19,0.3 0.04,0.11 0.07,0.23 0.08,0.41 0.01,0.18 0.01,0.24 0.01,0.69 0,0.46 -0,0.51 -0.01,0.69z"/>
  </g>
 </g>
</svg>
