<?xml version="1.0" encoding="UTF-8"?>
<!DOCTYPE svg PUBLIC "-//W3C//DTD SVG 1.1//EN" "http://www.w3.org/Graphics/SVG/1.1/DTD/svg11.dtd">
<!-- Creator: CorelDRAW 2020 (64-Bit) -->
<svg xmlns="http://www.w3.org/2000/svg" xml:space="preserve" width="91.0166mm" height="13.1472mm" version="1.1" style="shape-rendering:geometricPrecision; text-rendering:geometricPrecision; image-rendering:optimizeQuality; fill-rule:evenodd; clip-rule:evenodd"
viewBox="0 0 1727.8 249.58"
 xmlns:xlink="http://www.w3.org/1999/xlink"
 xmlns:xodm="http://www.corel.com/coreldraw/odm/2003">
 <defs>
  <style type="text/css">
   <![CDATA[
    .fil1 {fill:#28AAE2;fill-rule:nonzero}
    .fil0 {fill:white;fill-rule:nonzero}
   ]]>
  </style>
 </defs>
 <g id="diseño">
  <metadata id="CorelCorpID_0Corel-Layer"/>
  <g id="_3012469768048">
   <path class="fil0" d="M98.61 128.53l-51.18 0 -26.96 53.91 20.22 0 -0.5 4.74 -40.19 0 0.5 -4.74 13.48 0 85.88 -169.21 29.96 0 24.46 169.21 14.73 0 -0.5 4.74 -77.89 0 0.5 -4.74 13.48 0 -5.99 -53.91zm-48.43 -5.49l0 0 47.93 0 -9.24 -75.62 -38.69 75.62z"/>
   <path class="fil0" d="M249.37 164.47c0,-13.72 -11.23,-16.97 -27.96,-23.21 -14.23,-5.24 -29.7,-13.47 -29.7,-34.19 0,-27.45 26.46,-41.18 60.91,-41.18 20.22,0 44.68,3.24 44.68,24.96 0,11.23 -7.74,18.72 -20.72,18.72 -8.74,0 -16.97,-4.49 -16.97,-11.98 0,-4.24 1,-8.24 3.74,-11.73l7.99 0c1,-2.25 1.5,-4.24 1.5,-5.99 0,-5.74 -5.49,-8.73 -16.73,-8.73 -18.72,0 -26.46,7.99 -26.46,16.72 0,12.23 8.74,15.72 25.21,22.21 16.73,6.49 35.2,12.98 35.2,33.94 0,30.45 -28.21,45.67 -65.41,45.67 -27.96,0 -46.68,-8.73 -46.68,-27.2 0,-13.73 8.99,-20.71 21.47,-20.71 10.74,0 16.48,6.74 16.48,15.47 0,3.25 -0.75,6.74 -2.25,10.23l-9.99 0c-0.75,1.75 -1,3.24 -1,4.74 0,6.49 5.99,11.98 19.97,11.98 21.72,0 26.71,-11.48 26.71,-19.72z"/>
   <path class="fil0" d="M421.86 94.09c0,24.46 -26.71,31.69 -49.92,34.94 -7.99,1 -14.23,1.25 -19.47,1.25 -3.5,35.19 3.49,50.41 20.97,50.41 12.23,0 25.71,-8.74 34.45,-35.94l4.99 1.5c-9.24,30.7 -27.46,43.43 -57.42,43.43 -31.7,0 -50.43,-16.97 -50.43,-46.42 0,-51.16 30.95,-77.37 75.14,-77.37 28.21,0 41.69,9.73 41.69,28.2zm-43.93 -23.46l0 0c-13.48,0 -21.22,24.71 -24.97,54.91 16.97,-0.75 32.45,-8.98 32.45,-39.68 0,-9.24 -1.5,-15.22 -7.49,-15.22z"/>
   <path class="fil0" d="M450.81 228.11c-2.25,10.23 2.74,15.72 13.98,15.72 19.22,0 29.71,-13.48 40.44,-56.9 1.5,-6.49 2.5,-10.23 4.24,-18.47l-1 -0.5c-6.24,11.23 -16.72,21.71 -38.44,21.71 -25.71,0 -39.44,-13.98 -39.44,-42.68 0,-37.68 14.48,-81.11 59.91,-81.11 18.73,0 25.71,10.48 29.21,18.22l3.5 -14.73c11.73,0.25 35.95,-0.25 45.68,-2.25 -5.24,25.46 -8.49,38.43 -18.47,104.07 -7.99,52.91 -39.94,78.37 -84.87,78.37 -21.97,0 -44.44,-8.74 -44.44,-28.95 0,-15.97 10.74,-24.46 23.21,-24.46 12.48,0 23.97,7.24 20.72,27.7l-14.23 4.24zm56.67 -74.12l0 0c5.49,-15.73 9.24,-35.94 9.24,-53.41 0,-16.22 -5.49,-26.2 -14.23,-26.2 -8.49,0 -14.23,8.98 -18.72,25.46 -5.24,19.22 -8.99,40.68 -8.99,61.64 0,9.24 2,18.47 11.23,18.47 7.49,0 15.23,-7.74 21.47,-25.95z"/>
   <path class="fil0" d="M601.58 72.88l-16.97 0 0.75 -4.49 63.91 0c-10.74,46.67 -16.97,74.87 -19.72,92.84 -1,6.24 -2.5,14.47 5.99,14.47 10.98,0 23.71,-25.71 30.46,-61.9 2.74,-14.22 5.49,-31.95 5.49,-42.93 7.74,0.25 42.93,-1.5 49.92,-3 -6.24,30.2 -14.98,73.63 -17.72,96.34 -1,8.23 -2,15.97 5.74,15.97 4.49,0 9.73,-3.75 16.47,-13.98l4 2.99c-10.24,15.72 -21.22,20.47 -35.95,20.47 -27.96,0 -37.19,-14.22 -28.71,-42.68l-1.5 -0.5c-8.99,24.21 -21.47,43.18 -50.18,43.18 -23.72,0 -31.46,-16.47 -27.46,-37.94 3.99,-21.21 12.23,-63.64 15.48,-78.86z"/>
   <path class="fil0" d="M748.6 138.02l8.99 -65.14 -16.98 0 0.75 -4.49 61.66 0 -10.74 46.92 1.25 0.25c7.24,-19.22 25.21,-49.67 53.17,-49.67 10.99,0 23.21,5.49 23.21,22.21 0,16.47 -10.73,23.96 -23.71,24.21 -5.49,0 -11.48,-1.25 -17.23,-4.24l-1.5 -20.71c-13.48,0.5 -26.71,18.72 -32.95,45.92 -5.24,22.96 -6.49,38.43 -6.99,52.66 -10.48,-0.5 -37.44,1.5 -50.18,3.24l11.23 -51.16z"/>
   <path class="fil0" d="M1017.19 168.47c-8.99,14.73 -19.72,21.21 -33.45,21.21 -24.71,0 -33.95,-12.48 -29.96,-32.69l-1.25 -0.25c-6.74,19.46 -19.47,32.94 -41.19,32.94 -28.96,0 -40.19,-16.72 -40.19,-43.43 0,-45.92 20.97,-80.36 61.41,-80.36 18.47,0 24.21,6.99 27.96,16.47l3.49 -13.23c11.98,0.25 35.95,0 45.69,-2 -6.24,30.7 -12.73,59.65 -18.22,95.84 -0.5,3.25 -1,6.74 -1,8.98 0,6.49 3,7.99 6.49,7.99 3.74,0 9.23,-2.5 16.47,-13.73l3.75 2.25zm-68.4 -16.97l0 0c5.49,-17.47 8.74,-38.18 8.74,-58.15 0,-14.97 -6.99,-20.71 -13.98,-20.71 -7.49,0 -12.73,6.99 -17.72,24.46 -5.49,19.22 -9.99,46.67 -9.99,64.64 0,8.49 1,18.22 10.73,18.22 7.74,0 16.23,-8.73 22.22,-28.45z"/>
   <path class="fil0" d="M1157.23 99.58c-4.24,23.71 -8.24,44.42 -11.48,63.39 -0.5,3.25 -1,6.74 -1,8.98 0,6.49 3,7.99 6.49,7.99 3.75,0 9.24,-2.5 16.48,-13.73l3.75 2.25c-8.99,14.73 -20.22,21.21 -33.95,21.21 -24.71,0 -33.95,-12.48 -29.96,-32.69l-1.25 -0.25c-6.74,19.46 -19.47,32.94 -41.19,32.94 -28.96,0 -40.19,-16.72 -40.19,-43.43 0,-45.92 20.97,-80.36 61.41,-80.36 17.72,0 24.46,7.99 28.71,19.22l12.23 -80.61 -16.23 0 0.75 -4.49 63.41 0 -17.98 99.58zm-54.67 51.91l0 0c5.49,-17.47 8.74,-38.18 8.74,-58.15 0,-14.97 -6.99,-20.71 -13.98,-20.71 -7.49,0 -12.73,6.99 -17.72,24.46 -5.49,19.22 -9.99,46.67 -9.99,64.64 0,8.49 1,18.22 10.73,18.22 7.74,0 16.23,-8.73 22.22,-28.45z"/>
   <path class="fil0" d="M1178.94 142.76c0,-44.67 25.46,-76.87 73.39,-76.87 33.2,0 51.18,13.48 51.18,44.92 0,52.41 -29.71,78.86 -73.14,78.86 -34.45,0 -51.42,-15.97 -51.42,-46.92zm82.38 -54.9l0 0c0,-11.23 -3,-17.47 -10.23,-17.47 -15.48,0 -19.72,19.22 -26.46,59.15 -2.74,15.97 -3.99,30.2 -3.99,38.94 0,11.48 3,16.72 11.23,16.72 13.98,0 17.72,-13.73 25.46,-59.9 2.5,-15.47 3.99,-27.95 3.99,-37.43z"/>
   <path class="fil0" d="M1381.88 164.47c0,-13.72 -11.23,-16.97 -27.96,-23.21 -14.23,-5.24 -29.71,-13.47 -29.71,-34.19 0,-27.45 26.46,-41.18 60.91,-41.18 20.22,0 44.68,3.24 44.68,24.96 0,11.23 -7.74,18.72 -20.72,18.72 -8.74,0 -16.98,-4.49 -16.98,-11.98 0,-4.24 1,-8.24 3.75,-11.73l7.99 0c1,-2.25 1.5,-4.24 1.5,-5.99 0,-5.74 -5.49,-8.73 -16.72,-8.73 -18.72,0 -26.46,7.99 -26.46,16.72 0,12.23 8.74,15.72 25.21,22.21 16.72,6.49 35.2,12.98 35.2,33.94 0,30.45 -28.21,45.67 -65.4,45.67 -27.96,0 -46.68,-8.73 -46.68,-27.2 0,-13.73 8.98,-20.71 21.47,-20.71 10.73,0 16.47,6.74 16.47,15.47 0,3.25 -0.75,6.74 -2.24,10.23l-9.99 0c-0.75,1.75 -1,3.24 -1,4.74 0,6.49 5.99,11.98 19.97,11.98 21.72,0 26.71,-11.48 26.71,-19.72z"/>
   <path class="fil1" d="M1487.22 163.47c0,16.22 -10.23,26.2 -25.46,26.2 -14.23,0 -18.72,-9.73 -18.72,-18.47 0,-14.98 12.48,-24.46 25.21,-24.46 11.48,0 18.97,5.99 18.97,16.72z"/>
   <path class="fil1" d="M1559.96 168.05c-2.3,8.76 -7.84,20.28 -24.78,20.28 -16.14,0 -24.32,-8.07 -24.32,-22.24 0,-21.09 13.02,-34.92 35.62,-34.92 12.68,0 17.75,6.34 17.75,13.02 0,6.22 -3.34,12.1 -11.06,12.1 -6.22,0 -8.07,-3.8 -8.07,-7.26 0,-1.96 0.81,-4.15 1.73,-6.11l4.84 0c0.92,-2.19 1.27,-3.92 1.27,-5.3 0,-3.57 -2.54,-4.38 -4.84,-4.38 -7.38,0 -11.07,8.64 -13.02,19.36 -1.04,5.76 -1.96,11.87 -1.96,18.32 0,9.56 2.88,13.36 9.11,13.36 5.19,0 12.1,-4.49 15.45,-16.82l2.3 0.58z"/>
   <path class="fil1" d="M1566.89 166.67c0,-20.63 11.76,-35.49 33.89,-35.49 15.33,0 23.63,6.22 23.63,20.74 0,24.2 -13.72,36.41 -33.77,36.41 -15.9,0 -23.74,-7.38 -23.74,-21.66zm38.04 -25.35l0 0c0,-5.19 -1.38,-8.07 -4.72,-8.07 -7.15,0 -9.11,8.87 -12.22,27.31 -1.27,7.38 -1.85,13.95 -1.85,17.98 0,5.3 1.38,7.72 5.19,7.72 6.45,0 8.18,-6.34 11.75,-27.66 1.15,-7.15 1.85,-12.91 1.85,-17.29z"/>
   <path class="fil1" d="M1671.79 147.43c1.96,-7.49 2.19,-10.37 -1.04,-10.37 -2.54,0 -6.34,2.77 -10.72,11.98 -4.15,8.76 -6.45,19.13 -7.72,37.8 -3.57,-0.12 -19.71,0.46 -22.94,1.15l4.84 -21.44 4.72 -32.15 -7.95 0 0.23 -2.07 29.16 0 -4.5 19.13 0.35 0.12c5.18,-11.41 10.6,-20.4 23.86,-20.4 7.49,0 10.49,3.8 10.49,9.45 0,2.53 -0.69,5.41 -1.73,8.53l0.46 0.11c3.23,-7.03 8.76,-18.09 22.36,-18.09 7.72,0 11.87,4.38 11.99,10.83 0,3.69 -0.58,7.03 -1.27,9.91l-5.42 21.66c-0.69,2.88 -1.38,5.99 -1.38,7.26 0,2.31 1.38,2.77 3,2.77 1.73,0 4.38,-1.85 7.26,-6.68l1.96 1.15c-4.38,6.91 -8.65,10.25 -17.06,10.25 -8.76,0 -15.1,-3.69 -15.1,-13.48 0,-7.61 5.88,-25.12 6.8,-27.43 1.96,-5.42 3.92,-10.37 -0.23,-10.37 -2.54,0 -5.88,3.57 -9.34,10.25 -4.96,9.57 -7.61,22.82 -9.45,39.53 -3.34,-0.12 -19.02,0.46 -21.9,1.15 3,-13.71 6.57,-26.16 10.26,-40.57z"/>
  </g>
 </g>
</svg>
