<?xml version="1.0" encoding="UTF-8"?>
<!DOCTYPE svg PUBLIC "-//W3C//DTD SVG 1.1//EN" "http://www.w3.org/Graphics/SVG/1.1/DTD/svg11.dtd">
<!-- Creator: CorelDRAW 2020 (64-Bit) -->
<svg xmlns="http://www.w3.org/2000/svg" xml:space="preserve" width="8.3818mm" height="8.3818mm" version="1.1" style="shape-rendering:geometricPrecision; text-rendering:geometricPrecision; image-rendering:optimizeQuality; fill-rule:evenodd; clip-rule:evenodd"
viewBox="0 0 5.97 5.97"
 xmlns:xlink="http://www.w3.org/1999/xlink"
 xmlns:xodm="http://www.corel.com/coreldraw/odm/2003">
 <defs>
  <style type="text/css">
   <![CDATA[
    .fil0 {fill:white;fill-rule:nonzero}
   ]]>
  </style>
 </defs>
 <g id="diseño">
  <metadata id="CorelCorpID_0Corel-Layer"/>
  <g id="_3012963938624">
   <polygon class="fil0" points="2.61,3.54 3.58,2.98 2.61,2.43 "/>
   <path class="fil0" d="M2.98 0c-1.65,0 -2.98,1.34 -2.98,2.98 0,1.65 1.34,2.98 2.98,2.98 1.65,0 2.98,-1.34 2.98,-2.98 0,-1.65 -1.34,-2.98 -2.98,-2.98zm1.87 2.99l0 0c0,0 0,0.61 -0.08,0.9 -0.04,0.16 -0.17,0.29 -0.33,0.33 -0.29,0.08 -1.46,0.08 -1.46,0.08 0,0 -1.16,0 -1.46,-0.08 -0.16,-0.04 -0.29,-0.17 -0.33,-0.33 -0.08,-0.29 -0.08,-0.9 -0.08,-0.9 0,0 0,-0.61 0.08,-0.9 0.04,-0.16 0.17,-0.29 0.33,-0.33 0.29,-0.08 1.46,-0.08 1.46,-0.08 0,0 1.17,0 1.46,0.08 0.16,0.04 0.29,0.17 0.33,0.33 0.08,0.29 0.08,0.9 0.08,0.9z"/>
  </g>
 </g>
</svg>
