<?xml version="1.0" encoding="UTF-8"?>
<!DOCTYPE svg PUBLIC "-//W3C//DTD SVG 1.1//EN" "http://www.w3.org/Graphics/SVG/1.1/DTD/svg11.dtd">
<!-- Creator: CorelDRAW X8 -->
<svg xmlns="http://www.w3.org/2000/svg" xml:space="preserve" width="66.6748mm" height="80.2127mm" version="1.1" shape-rendering="geometricPrecision" text-rendering="geometricPrecision" image-rendering="optimizeQuality" fill-rule="evenodd" clip-rule="evenodd"
viewBox="0 0 6456 7767"
 xmlns:xlink="http://www.w3.org/1999/xlink">
 <g id="Capa_x0020_1">
  <metadata id="CorelCorpID_0Corel-Layer"/>
  <path fill="black" d="M1947 30c-172,46 -596,481 -737,621 -215,215 -435,516 -559,824 -430,1066 318,2169 840,3033l250 442c371,640 621,1442 515,2204 -32,227 -83,363 -130,562 97,-47 240,-92 352,-136l656 -317c111,-62 201,-127 300,-186 537,-323 1166,-980 1394,-1553 92,-232 21,-133 167,-319l473 -502c108,-83 152,-140 263,-223 205,-152 377,-304 725,-223 -24,-90 -14,-68 -104,-101 -170,-64 -440,-69 -607,-47 -231,32 -485,111 -596,276 -508,-118 -408,-167 -915,340 -254,253 -479,454 -980,454l0 52c165,3 264,73 410,76 -27,99 -3,57 -91,90 -29,10 -148,34 -167,35 -115,4 -218,-53 -306,-73 18,212 261,263 307,435 -151,4 -145,51 -333,51 0,-414 -529,-1219 -776,-1555 -192,-262 -538,-843 -684,-1135 -498,-992 -517,-1862 113,-2807l220 -318z"/>
  <path fill="black" d="M0 2720c0,506 190,982 405,1337 709,1174 1465,2107 1465,3531 0,88 -19,99 -25,179 84,-62 178,-338 210,-455 195,-697 54,-1248 -262,-1876 -453,-903 -1225,-1838 -1428,-2799 -59,-280 -58,-455 -58,-788 -131,96 -307,611 -307,871z"/>
  <path fill="black" d="M4304 30c-156,104 -274,273 -348,471 -386,1028 935,2483 -799,4428 -48,54 -68,62 -108,122 119,0 281,-36 389,-46 210,-21 207,2 318,-143 142,-187 252,-341 384,-538 207,-308 474,-881 519,-1326 62,-614 -57,-1100 -227,-1559 -135,-368 -389,-874 -205,-1256 33,-69 57,-78 77,-153z"/>
  <path fill="black" d="M3459 2566c0,555 -14,839 -256,1333 -150,306 -334,526 -513,794 73,108 142,240 205,358 72,-53 259,-323 323,-420 199,-298 399,-675 513,-1023 231,-706 40,-1226 -96,-1885 -30,-143 -23,-285 -23,-463 -18,26 -1,-9 -27,49l-61 221c-24,109 -46,227 -59,326 -15,118 -14,263 -26,360 -14,112 20,204 20,350z"/>
  <path fill="black" d="M2434 4206c71,106 143,217 205,333 220,-161 563,-1055 563,-1486 0,-143 26,-420 -128,-461 0,476 -162,896 -404,1286 -79,126 -157,210 -236,328z"/>
  <polygon fill="black" points="1947,30 1973,30 1951,0 "/>
  <polygon fill="black" points="4304,30 4330,30 4308,0 "/>
 </g>
</svg>
