<svg id="ev0ecLtQaFG1" xmlns="http://www.w3.org/2000/svg" xmlns:xlink="http://www.w3.org/1999/xlink" viewBox="0 0 235 370" shape-rendering="geometricPrecision" text-rendering="geometricPrecision"><path d="M143.002,319.437c7.005.465,12.977-5.113,13.034-12.202.057-8.948-9.934-19.058-9.532-30.214.632-16.792,9.015-21.673,12.288-38.407c6.144-31.435,5.512-50.377,2.412-82.277-.402-4.183-1.551-25.449-1.436-31.725.115-6.74-3.675-10.517-5.742-9.761-3.732,1.452-3.675,6.507-3.847,10.284-.402,9.994-2.412,35.502-5.11,34.398-3.101-1.278-2.699-8.309-2.986-9.936-2.699-14.584,5.283-42.881-5.225-45.786-3.446-.988-6.374,4.881-6.604,8.483-.861,13.771-.344,30.098-1.033,44.218-.115,2.15-2.814,3.021-4.077,1.336-1.837-2.324-2.01-6.798-1.895-10.226.402-12.202-.689-25.45-1.206-38.756-.459-11.7373-3.33-16.5018-7.522-16.8505-5.397-.4648-7.866,9.5875-6.833,19.8135c1.551,15.166,4.422,32.074,1.436,47.065-.632,3.138-5.053,3.312-5.742.174-.46-1.917-.632-4.009-.632-5.636-.23-13.48-3.1006-33.294-7.2922-46.077-1.7801-5.52-10.6802-4.241-10.6228,6.392.1149,15.456,8.1537,56.536,7.1776,88.377-.1149,4.3-4.9382,6.798-8.3834,4.3-8.4981-6.101-15.044-17.49-24.748-20.511-3.2155-.988-7.522-.523-7.8666,4.067-.0574.814.0575,1.685.2871,2.499c4.9956,18.244,21.5326,28.064,33.4185,42.706c4.9382,6.043,5.2253,19.64,5.2253,23.184c0,2.15-5.2253,13.945-3.962,26.147c2.3542,22.952,10.2782,32.655,15.4455,34.282c11.025,3.661,26.931-.348,41.573.639Z" fill="#ef4a24"/><path d="M93.9649,166.099c2.4116-1.685,5.6272-1.976,8.2681-.639.402.232.919.116,1.149-.291.229-.348.115-.987-.287-1.162-3.1584-1.569-7.063-1.394-9.934.639-.4019.291-.5742.756-.3445,1.162.2297.349.8039.582,1.1484.291Z"/><path d="M113.66,163.775c2.125-1.104,4.766-1.104,6.833.116.919.523,1.837-.93.861-1.453-2.584-1.51-5.857-1.568-8.498-.116-1.033.523-.172,1.976.804,1.453Z"/><path d="M131.633,163.019c2.296-.813,4.765-.697,7.005.233.402.174.919-.174,1.033-.581.115-.465-.172-.872-.574-1.046-2.469-1.046-5.34-1.162-7.866-.291-.46.175-.747.581-.632,1.046s.632.814,1.034.639Z"/><path d="M149.949,163.542c1.838-.871,4.02-.581,5.685.581.402.291.919.059,1.148-.29.23-.407.115-.93-.287-1.162-2.124-1.511-4.995-1.743-7.407-.639-.402.174-.517.813-.344,1.162.287.465.746.523,1.205.348Z"/><g id="ev0ecLtQaFG7" transform="translate(.000001 0.000001)"><path d="M99.0178,191.375c6.0862-6.857,15.0442-11.04,24.1742-11.215c9.129-.174,18.259,3.603,24.575,10.227-9.129,9.529-20.039,10.575-33.648,8.832-5.168-.698-12.632-3.254-15.1012-7.844Z" fill="#fee8df"/><path d="M120.608,180.741c-2.354-.174-4.651,1.163-6.029,3.138-1.321,1.976-1.838,4.416-1.723,6.798.058,1.046.172,2.092.517,3.08c1.148,3.486,4.823,5.868,8.441,5.868c3.675-.058,7.12-2.382,8.842-5.636.575-1.104.976-2.324,1.091-3.544.287-2.905-1.091-5.869-3.387-7.67-2.297-1.801-5.341-2.498-8.154-2.034" fill="#050606"/></g><g id="ev0ecLtQaFG10" transform="translate(0 0.000001)"><path d="M95.9747,184.751c1.3206,1.22,2.6987,2.382,4.0194,3.544.2869.232.6889.291.9759,0c.23-.232.287-.697,0-.988-1.3779-1.162-2.6986-2.324-4.0192-3.544-.2871-.233-.689-.291-.9761,0-.2297.29-.2871.755,0,.988Z" fill="#050606"/><path d="M100.511,180.335c.229.406.517.755.804,1.104.287.348.631.755.918,1.104.632.755,1.206,1.452,1.838,2.208.229.29.746.29.976,0c.287-.291.287-.698,0-.988-.574-.697-1.206-1.453-1.78-2.15-.287-.349-.574-.697-.861-1.046-.115-.174-.287-.349-.402-.523-.058-.058-.058-.116-.115-.116.057.058-.058-.116,0,0-.058-.058-.115-.174-.172-.291-.173-.348-.632-.464-.919-.232-.345.232-.459.639-.287.93Z" fill="#050606"/><path d="M106.77,176.325c.803,1.744,1.665,3.487,2.526,5.172.172.348.632.465.919.232.344-.174.459-.639.229-.929-.918-1.685-1.78-3.429-2.526-5.172-.172-.348-.632-.407-.919-.232-.287.174-.344.581-.229.929Z" fill="#050606"/><path d="M114.521,173.885c.574,1.743,1.091,3.428,1.665,5.171.115.349.46.581.804.523.345-.116.575-.465.517-.871-.574-1.743-1.091-3.428-1.665-5.172-.115-.348-.459-.581-.861-.523-.287.175-.575.523-.46.872Z" fill="#050606"/><path d="M122.273,172.374c-.057,1.86,0,3.661.115,5.52c0,.349.287.698.689.698.344,0,.689-.291.689-.698-.115-1.859-.172-3.66-.115-5.52.057-.871-1.321-.929-1.378,0Z" fill="#050606"/><path d="M130.427,173.13c-.23,1.569-.46,3.195-.689,4.764-.058.349.057.756.459.872.345.116.804-.116.861-.465.287-1.685.517-3.428.747-5.113.057-.349-.345-.697-.689-.697-.402,0-.689.29-.689.639Z" fill="#050606"/><path d="M138.523,173.943c-.804,1.569-1.436,3.254-2.01,4.939-.115.349.115.755.46.872.344.116.746-.117.861-.465.517-1.569,1.148-3.138,1.895-4.59.172-.349.115-.756-.23-.93-.344-.233-.804-.174-.976.174Z" fill="#050606"/><path d="M146.275,179.289c-.919,1.394-1.838,2.731-2.814,4.125-.23.291-.057.756.23.93.344.174.746.058.919-.233.918-1.394,1.837-2.73,2.813-4.125.23-.29.058-.755-.23-.93-.287-.174-.689-.058-.918.233Z" fill="#050606"/><path d="M150.926,183.937c-.632.465-1.206.93-1.838,1.395-.287.232-.574.465-.861.697-.172.116-.287.232-.402.407-.172.232-.172.523-.172.813.057.349.517.581.861.523.402-.116.574-.465.517-.871c0,.058,0,.116,0,.174s-.057.116,0,.058c-.115.174,0,0,.057-.058.115-.116.23-.174.402-.291.287-.232.517-.406.804-.639.517-.407,1.091-.813,1.608-1.278.115-.116.23-.349.23-.465c0-.174-.058-.349-.173-.465-.344-.29-.689-.29-1.033,0Z" fill="#050606"/></g><path d="M99.2475,199.335c.9185-.581,1.8375-1.104,2.8135-1.511.172-.058.287-.29.345-.407.057-.174.057-.406-.058-.522-.115-.175-.229-.291-.402-.349-.172-.058-.344,0-.516.058-.977.407-1.9528.93-2.8141,1.511-.2871.174-.4594.639-.2297.929.1149.349.5742.523.8613.291Z" fill="#050606"/><path d="M105.219,199.393c-.861,1.278-1.493,2.731-1.952,4.242-.115.348.115.755.459.871.345.116.747-.116.862-.465.114-.348.229-.697.344-1.045.172-.349.23-.582.402-.93.287-.639.689-1.278,1.091-1.918.172-.29.058-.755-.23-.929-.402-.233-.746-.116-.976.174Z" fill="#050606"/><path d="M111.593,201.601c-.057,1.569-.345,3.08-.746,4.532-.115.349.114.756.459.872.344.116.746-.116.861-.465.46-1.627.747-3.254.804-4.939c0-.349-.287-.697-.689-.697-.344,0-.632.29-.689.697Z" fill="#050606"/><path d="M120.608,202.473c.115,1.104.23,2.266.345,3.37.057.29.057.523.114.813.058.291,0,.581.115.872.115.465.632.755,1.091.523.402-.233.46-.639.287-1.046-.115-.291-.516-.407-.746-.349-.345.058-.574.465-.517.872.115.348.459.581.861.523-.229-.117-.516-.233-.746-.349-.058-.116-.058-.232-.115-.349c0,0,0,0,0,.059.115-.175.23-.407.345-.582.229,0,.459,0,.689,0h-.058c.058.059.172.175.23.233.057.174.057.174.057.058c0-.058,0-.058,0-.116c0-.116,0-.233-.057-.349c0-.174-.058-.407-.058-.581-.057-.407-.057-.813-.114-1.22-.058-.814-.173-1.627-.23-2.382-.057-.349-.287-.698-.689-.698-.459.058-.861.349-.804.698Z" fill="#050606"/><path d="M128.474,202.647c.517,1.685,1.149,3.312,1.953,4.823.172.348.631.464.918.232.345-.174.402-.581.23-.93-.746-1.452-1.321-2.905-1.837-4.474-.115-.348-.46-.581-.862-.523-.229.116-.516.465-.402.872Z" fill="#050606"/><path d="M137.661,201.369c.46.813,1.034,1.568,1.608,2.324.287.348.574.755.804,1.104.115.174.287.348.402.581.172.232.345.523.632.581.229.058.516,0,.689-.174.287-.349.287-.698,0-1.046-.115-.175-.46-.233-.689-.175-.345.117-.575.465-.517.872.115.349.459.639.861.523-.23-.058-.459-.116-.689-.174-.057-.175-.115-.349-.172-.465.057-.175.115-.349.23-.465.229-.058.459-.116.689-.174h-.058c.115.058.172.116.287.174-.287-.291-.516-.697-.804-1.046-.287-.349-.516-.697-.803-1.046-.46-.639-.977-1.278-1.379-2.034-.172-.29-.631-.464-.918-.232-.23.116-.402.523-.173.872Z" fill="#050606"/><path d="M144.322,197.243c1.034,1.511,2.355,2.847,3.905,3.777.287.174.746.116.919-.232.172-.349.114-.756-.23-.93-.345-.233-.689-.465-1.034-.697-.057-.059-.115-.059-.172-.117.057.058.057,0,0,0-.057-.058-.172-.116-.23-.174-.172-.116-.344-.29-.459-.465-.287-.29-.574-.581-.861-.929-.058-.059-.115-.175-.173-.233-.057-.058-.057-.058-.114-.116c0,0-.115-.116-.058-.058.058.058-.057-.058-.057-.058-.058-.058-.058-.058-.115-.116-.057-.117-.115-.175-.172-.291-.173-.291-.575-.465-.919-.232-.287.116-.459.523-.23.871Z" fill="#050606"/><path d="M149.547,297.88c-1.607-4.125-4.593-7.379-5.742-11.737-1.205-4.416-1.033-9.006.287-13.364.517-1.743-2.124-2.44-2.698-.697-1.321,4.416-1.551,9.006-.575,13.538.46,2.092,1.149,4.184,2.125,6.101c1.206,2.383,2.986,4.474,3.962,6.973.632,1.627,3.33.871,2.641-.814Z" fill="#fee8df"/><path d="M146.562,263.947c.574-1.801,1.091-3.66,1.665-5.462.517-1.743-2.182-2.44-2.699-.697-.574,1.801-1.091,3.661-1.665,5.462-.517,1.685,2.182,2.44,2.699.697Z" fill="#fee8df"/><path d="M42.8588,236.867c14.9039-15.711,40.1327-20.649,59.9742-11.851c6.375,2.873,13.198,7.003,19.842,4.848c2.335-.808,4.22-2.244,6.285-3.591c17.059-11.043,41.3-9.607,57.012,3.232c7.182,5.926,13.108,14.186,22.086,16.7-8.26,42.736-49.021,77.123-93.014,78.29-6.644.179-13.378-.359-19.4831-2.963-6.8234-2.873-12.2103-8.17-17.1483-13.647-17.8667-19.842-30.7953-43.993-37.4392-69.761" fill="#f389b7"/><path d="M40.0755,116.829c9.4271-8.799,22.8944-11.672,35.7333-13.288c39.3242-5.2075,79.7262-2.694,118.0632,7.362c1.527.449,3.322.808,4.669,0c1.796-.988,2.065-3.412,2.065-5.387c0-16.7892-4.669-33.8478-14.724-47.4049-10.056-13.5571-25.678-23.2536-42.647-24.8697-13.198-1.2569-26.306,2.4242-39.055,6.195-15.263,4.5789-30.9749,9.7863-43.0955,20.0215C44.9237,73.1047,36.9331,94.2035,34.4192,115.033" fill="#fee7dd"/><path d="M108.938,48.0555c.449,16.879.808,33.8479,1.257,50.7269.09,4.1296,6.644,4.3996,6.554.1796-.448-16.8791-.808-33.8479-1.256-50.727-.09-4.2197-6.644-4.3993-6.555-.1795Z" fill="#070707"/><path d="M68.1774,65.8324c-1.3468,13.0184,1.1671,25.947,4.4891,38.5166c1.0774,4.04,7.4519,2.514,6.3746-1.526-3.2322-12.0312-5.5665-24.3314-4.3096-36.7213.4489-4.3095-6.195-4.3993-6.5541-.2693Z" fill="#070707"/><path d="M149.071,55.8665c3.412,15.263,4.13,31.9625,1.975,47.4055-.538,4.13,6.016,4.309,6.554.179c2.155-15.9811,1.347-33.3989-2.244-49.1108-.808-4.13-7.183-2.5139-6.285,1.5263Z" fill="#070707"/><path d="M224.488,66.6404c-9.247-23.7923-22.625-47.7641-45.16-60.06427-22.536-12.30016-56.024-7.451926-67.247,15.44257C98.7033,6.48634,73.7439,4.87026,55.2488,13.9383c-18.4952,9.068-31.334,26.4857-40.6714,44.7115C-6.25202,99.2313,-1.13445,148.073,7.66421,192.695C7.12551,273.139,12.692,299.176,44.2056,335.538C75.6293,371.9,131.025,378.723,173.492,355.739c16.699-9.068,25.767-22.984,36.451-38.517c24.331-35.464,19.753-88.974,22.177-131.8c2.244-40.222,7.003-81.073-7.632-118.7816ZM183.009,274.845c-9.517,17.328-22.805,33.938-41.659,40.492-32.591,11.223-67.8755-12.749-85.2932-42.287-20.7397-35.285-24.8697-78.021-21.6375-118.692c2.2445-28.372,8.5293-57.9099,27.2938-79.4576c18.136-20.8295,60.6929-36.1823,84.6649-22.9843c17.956,9.4272,26.934,18.7645,36.541,36.272c31.514,56.9219,31.514,129.6459.09,186.6569Z" fill="#f04d25"/><path d="M121.867,225.465c-13.826,12.121-20.201,30.526-17.148,48.482.718,4.13,7.093,2.604,6.374-1.526-2.693-15.712,3.232-31.693,15.263-42.197c3.143-2.784-1.346-7.542-4.489-4.759Z" fill="#070707"/><path d="M31.4565,67.7178C34.15,52.0957,45.0136,38.8079,60.2766,33.7801c3.9504-1.3467,2.4241-7.6315-1.6161-6.2847-17.2382,5.746-30.526,20.4703-33.5786,38.4267-.6284,3.9505,5.6564,5.9257,6.3746,1.7957Z" fill="#fee7dd"/><path d="M71.6789,27.4954c3.5015-.8978,6.9133-1.1672,10.5046-.8978c4.2197.2693,4.3993-6.195.1795-6.4644-4.1299-.2693-8.2599.0898-12.3001,1.0774s-2.5139,7.2724,1.616,6.2848Z" fill="#fee7dd"/><path d="M195.758,310.758c-6.734,19.393-24.421,33.309-44.891,36.003-4.22.539-2.604,6.823,1.616,6.285c22.715-2.963,42.108-19.034,49.56-40.402c1.436-3.951-4.849-5.836-6.285-1.886Z" fill="#fee7dd"/>
<script><![CDATA[
!function(t,n){"object"==typeof exports&&"undefined"!=typeof module?module.exports=n():"function"==typeof __SVGATOR_DEFINE__&&__SVGATOR_DEFINE__.amd?__SVGATOR_DEFINE__(n):((t="undefined"!=typeof globalThis?globalThis:t||self).__SVGATOR_PLAYER__=t.__SVGATOR_PLAYER__||{},t.__SVGATOR_PLAYER__["5c7f360c"]=n())}(this,(function(){"use strict";function t(t,n){var e=Object.keys(t);if(Object.getOwnPropertySymbols){var r=Object.getOwnPropertySymbols(t);n&&(r=r.filter((function(n){return Object.getOwnPropertyDescriptor(t,n).enumerable}))),e.push.apply(e,r)}return e}function n(n){for(var e=1;e<arguments.length;e++){var r=null!=arguments[e]?arguments[e]:{};e%2?t(Object(r),!0).forEach((function(t){o(n,t,r[t])})):Object.getOwnPropertyDescriptors?Object.defineProperties(n,Object.getOwnPropertyDescriptors(r)):t(Object(r)).forEach((function(t){Object.defineProperty(n,t,Object.getOwnPropertyDescriptor(r,t))}))}return n}function e(t){return(e="function"==typeof Symbol&&"symbol"==typeof Symbol.iterator?function(t){return typeof t}:function(t){return t&&"function"==typeof Symbol&&t.constructor===Symbol&&t!==Symbol.prototype?"symbol":typeof t})(t)}function r(t,n){if(!(t instanceof n))throw new TypeError("Cannot call a class as a function")}function i(t,n){for(var e=0;e<n.length;e++){var r=n[e];r.enumerable=r.enumerable||!1,r.configurable=!0,"value"in r&&(r.writable=!0),Object.defineProperty(t,r.key,r)}}function u(t,n,e){return n&&i(t.prototype,n),e&&i(t,e),t}function o(t,n,e){return n in t?Object.defineProperty(t,n,{value:e,enumerable:!0,configurable:!0,writable:!0}):t[n]=e,t}function a(t){return(a=Object.setPrototypeOf?Object.getPrototypeOf:function(t){return t.__proto__||Object.getPrototypeOf(t)})(t)}function l(t,n){return(l=Object.setPrototypeOf||function(t,n){return t.__proto__=n,t})(t,n)}function s(){if("undefined"==typeof Reflect||!Reflect.construct)return!1;if(Reflect.construct.sham)return!1;if("function"==typeof Proxy)return!0;try{return Boolean.prototype.valueOf.call(Reflect.construct(Boolean,[],(function(){}))),!0}catch(t){return!1}}function f(t,n,e){return(f=s()?Reflect.construct:function(t,n,e){var r=[null];r.push.apply(r,n);var i=new(Function.bind.apply(t,r));return e&&l(i,e.prototype),i}).apply(null,arguments)}function c(t,n){if(n&&("object"==typeof n||"function"==typeof n))return n;if(void 0!==n)throw new TypeError("Derived constructors may only return object or undefined");return function(t){if(void 0===t)throw new ReferenceError("this hasn't been initialised - super() hasn't been called");return t}(t)}function h(t,n,e){return(h="undefined"!=typeof Reflect&&Reflect.get?Reflect.get:function(t,n,e){var r=function(t,n){for(;!Object.prototype.hasOwnProperty.call(t,n)&&null!==(t=a(t)););return t}(t,n);if(r){var i=Object.getOwnPropertyDescriptor(r,n);return i.get?i.get.call(e):i.value}})(t,n,e||t)}function v(t){return function(t){if(Array.isArray(t))return y(t)}(t)||function(t){if("undefined"!=typeof Symbol&&null!=t[Symbol.iterator]||null!=t["@@iterator"])return Array.from(t)}(t)||function(t,n){if(!t)return;if("string"==typeof t)return y(t,n);var e=Object.prototype.toString.call(t).slice(8,-1);"Object"===e&&t.constructor&&(e=t.constructor.name);if("Map"===e||"Set"===e)return Array.from(t);if("Arguments"===e||/^(?:Ui|I)nt(?:8|16|32)(?:Clamped)?Array$/.test(e))return y(t,n)}(t)||function(){throw new TypeError("Invalid attempt to spread non-iterable instance.\nIn order to be iterable, non-array objects must have a [Symbol.iterator]() method.")}()}function y(t,n){(null==n||n>t.length)&&(n=t.length);for(var e=0,r=new Array(n);e<n;e++)r[e]=t[e];return r}Number.isInteger||(Number.isInteger=function(t){return"number"==typeof t&&isFinite(t)&&Math.floor(t)===t}),Number.EPSILON||(Number.EPSILON=2220446049250313e-31);var g=d(Math.pow(10,-6));function d(t){var n=arguments.length>1&&void 0!==arguments[1]?arguments[1]:6;if(Number.isInteger(t))return t;var e=Math.pow(10,n);return Math.round((+t+Number.EPSILON)*e)/e}function p(t,n){var e=arguments.length>2&&void 0!==arguments[2]?arguments[2]:g;return Math.abs(t-n)<e}var m=Math.PI/180;function b(t){return t}function w(t,n,e){var r=1-e;return 3*e*r*(t*r+n*e)+e*e*e}function A(){var t=arguments.length>0&&void 0!==arguments[0]?arguments[0]:0,n=arguments.length>1&&void 0!==arguments[1]?arguments[1]:0,e=arguments.length>2&&void 0!==arguments[2]?arguments[2]:1,r=arguments.length>3&&void 0!==arguments[3]?arguments[3]:1;return t<0||t>1||e<0||e>1?null:p(t,n)&&p(e,r)?b:function(i){if(i<=0)return t>0?i*n/t:0===n&&e>0?i*r/e:0;if(i>=1)return e<1?1+(i-1)*(r-1)/(e-1):1===e&&t<1?1+(i-1)*(n-1)/(t-1):1;for(var u,o=0,a=1;o<a;){var l=w(t,e,u=(o+a)/2);if(p(i,l))break;l<i?o=u:a=u}return w(n,r,u)}}function _(){return 1}function x(t){return 1===t?1:0}function k(){var t=arguments.length>0&&void 0!==arguments[0]?arguments[0]:1,n=arguments.length>1&&void 0!==arguments[1]?arguments[1]:0;if(1===t){if(0===n)return x;if(1===n)return _}var e=1/t;return function(t){return t>=1?1:(t+=n*e)-t%e}}var S=Math.sin,O=Math.cos,j=Math.acos,E=Math.asin,M=Math.tan,P=Math.atan2,I=Math.PI/180,R=180/Math.PI,F=Math.sqrt,N=function(){function t(){var n=arguments.length>0&&void 0!==arguments[0]?arguments[0]:1,e=arguments.length>1&&void 0!==arguments[1]?arguments[1]:0,i=arguments.length>2&&void 0!==arguments[2]?arguments[2]:0,u=arguments.length>3&&void 0!==arguments[3]?arguments[3]:1,o=arguments.length>4&&void 0!==arguments[4]?arguments[4]:0,a=arguments.length>5&&void 0!==arguments[5]?arguments[5]:0;r(this,t),this.m=[n,e,i,u,o,a],this.i=null,this.w=null,this.s=null}return u(t,[{key:"determinant",get:function(){var t=this.m;return t[0]*t[3]-t[1]*t[2]}},{key:"isIdentity",get:function(){if(null===this.i){var t=this.m;this.i=1===t[0]&&0===t[1]&&0===t[2]&&1===t[3]&&0===t[4]&&0===t[5]}return this.i}},{key:"point",value:function(t,n){var e=this.m;return{x:e[0]*t+e[2]*n+e[4],y:e[1]*t+e[3]*n+e[5]}}},{key:"translateSelf",value:function(){var t=arguments.length>0&&void 0!==arguments[0]?arguments[0]:0,n=arguments.length>1&&void 0!==arguments[1]?arguments[1]:0;if(!t&&!n)return this;var e=this.m;return e[4]+=e[0]*t+e[2]*n,e[5]+=e[1]*t+e[3]*n,this.w=this.s=this.i=null,this}},{key:"rotateSelf",value:function(){var t=arguments.length>0&&void 0!==arguments[0]?arguments[0]:0;if(t%=360){var n=S(t*=I),e=O(t),r=this.m,i=r[0],u=r[1];r[0]=i*e+r[2]*n,r[1]=u*e+r[3]*n,r[2]=r[2]*e-i*n,r[3]=r[3]*e-u*n,this.w=this.s=this.i=null}return this}},{key:"scaleSelf",value:function(){var t=arguments.length>0&&void 0!==arguments[0]?arguments[0]:1,n=arguments.length>1&&void 0!==arguments[1]?arguments[1]:1;if(1!==t||1!==n){var e=this.m;e[0]*=t,e[1]*=t,e[2]*=n,e[3]*=n,this.w=this.s=this.i=null}return this}},{key:"skewSelf",value:function(t,n){if(n%=360,(t%=360)||n){var e=this.m,r=e[0],i=e[1],u=e[2],o=e[3];t&&(t=M(t*I),e[2]+=r*t,e[3]+=i*t),n&&(n=M(n*I),e[0]+=u*n,e[1]+=o*n),this.w=this.s=this.i=null}return this}},{key:"resetSelf",value:function(){var t=arguments.length>0&&void 0!==arguments[0]?arguments[0]:1,n=arguments.length>1&&void 0!==arguments[1]?arguments[1]:0,e=arguments.length>2&&void 0!==arguments[2]?arguments[2]:0,r=arguments.length>3&&void 0!==arguments[3]?arguments[3]:1,i=arguments.length>4&&void 0!==arguments[4]?arguments[4]:0,u=arguments.length>5&&void 0!==arguments[5]?arguments[5]:0,o=this.m;return o[0]=t,o[1]=n,o[2]=e,o[3]=r,o[4]=i,o[5]=u,this.w=this.s=this.i=null,this}},{key:"recomposeSelf",value:function(){var t=arguments.length>0&&void 0!==arguments[0]?arguments[0]:null,n=arguments.length>1&&void 0!==arguments[1]?arguments[1]:null,e=arguments.length>2&&void 0!==arguments[2]?arguments[2]:null,r=arguments.length>3&&void 0!==arguments[3]?arguments[3]:null,i=arguments.length>4&&void 0!==arguments[4]?arguments[4]:null;return this.isIdentity||this.resetSelf(),t&&(t.x||t.y)&&this.translateSelf(t.x,t.y),n&&this.rotateSelf(n),e&&(e.x&&this.skewSelf(e.x,0),e.y&&this.skewSelf(0,e.y)),!r||1===r.x&&1===r.y||this.scaleSelf(r.x,r.y),i&&(i.x||i.y)&&this.translateSelf(i.x,i.y),this}},{key:"decompose",value:function(){var t=arguments.length>0&&void 0!==arguments[0]?arguments[0]:0,n=arguments.length>1&&void 0!==arguments[1]?arguments[1]:0,e=this.m,r=e[0]*e[0]+e[1]*e[1],i=[[e[0],e[1]],[e[2],e[3]]],u=F(r);if(0===u)return{origin:{x:d(e[4]),y:d(e[5])},translate:{x:d(t),y:d(n)},scale:{x:0,y:0},skew:{x:0,y:0},rotate:0};i[0][0]/=u,i[0][1]/=u;var o=e[0]*e[3]-e[1]*e[2]<0;o&&(u=-u);var a=i[0][0]*i[1][0]+i[0][1]*i[1][1];i[1][0]-=i[0][0]*a,i[1][1]-=i[0][1]*a;var l=F(i[1][0]*i[1][0]+i[1][1]*i[1][1]);if(0===l)return{origin:{x:d(e[4]),y:d(e[5])},translate:{x:d(t),y:d(n)},scale:{x:d(u),y:0},skew:{x:0,y:0},rotate:0};i[1][0]/=l,i[1][1]/=l,a/=l;var s=0;return i[1][1]<0?(s=j(i[1][1])*R,i[0][1]<0&&(s=360-s)):s=E(i[0][1])*R,o&&(s=-s),a=P(a,F(i[0][0]*i[0][0]+i[0][1]*i[0][1]))*R,o&&(a=-a),{origin:{x:d(e[4]),y:d(e[5])},translate:{x:d(t),y:d(n)},scale:{x:d(u),y:d(l)},skew:{x:d(a),y:0},rotate:d(s)}}},{key:"clone",value:function(){var t=this.m;return new this.constructor(t[0],t[1],t[2],t[3],t[4],t[5])}},{key:"toString",value:function(){var t=arguments.length>0&&void 0!==arguments[0]?arguments[0]:" ";if(null===this.s){var n=this.m.map((function(t){return d(t)}));1===n[0]&&0===n[1]&&0===n[2]&&1===n[3]?this.s="translate("+n[4]+t+n[5]+")":this.s="matrix("+n.join(t)+")"}return this.s}}],[{key:"create",value:function(t){return t?Array.isArray(t)?f(this,v(t)):t instanceof this?t.clone():(new this).recomposeSelf(t.origin,t.rotate,t.skew,t.scale,t.translate):new this}}]),t}();function T(t,n,e){return t>=.5?e:n}function B(t,n,e){return 0===t||n===e?n:t*(e-n)+n}function q(t,n,e){var r=B(t,n,e);return r<=0?0:r}function D(t,n,e){var r=B(t,n,e);return r<=0?0:r>=1?1:r}function L(t,n,e){return 0===t?n:1===t?e:{x:B(t,n.x,e.x),y:B(t,n.y,e.y)}}function C(t,n,e){var r=function(t,n,e){return Math.round(B(t,n,e))}(t,n,e);return r<=0?0:r>=255?255:r}function V(t,n,e){return 0===t?n:1===t?e:{r:C(t,n.r,e.r),g:C(t,n.g,e.g),b:C(t,n.b,e.b),a:B(t,null==n.a?1:n.a,null==e.a?1:e.a)}}function G(t,n){for(var e=[],r=0;r<t;r++)e.push(n);return e}function z(t,n){if(--n<=0)return t;var e=(t=Object.assign([],t)).length;do{for(var r=0;r<e;r++)t.push(t[r])}while(--n>0);return t}var Y,$=function(){function t(n){r(this,t),this.list=n,this.length=n.length}return u(t,[{key:"setAttribute",value:function(t,n){for(var e=this.list,r=0;r<this.length;r++)e[r].setAttribute(t,n)}},{key:"removeAttribute",value:function(t){for(var n=this.list,e=0;e<this.length;e++)n[e].removeAttribute(t)}},{key:"style",value:function(t,n){for(var e=this.list,r=0;r<this.length;r++)e[r].style[t]=n}}]),t}(),U=/-./g,Q=function(t,n){return n.toUpperCase()};function H(t){return"function"==typeof t?t:T}function J(t){return t?"function"==typeof t?t:Array.isArray(t)?function(t){var n=arguments.length>1&&void 0!==arguments[1]?arguments[1]:b;if(!Array.isArray(t))return n;switch(t.length){case 1:return k(t[0])||n;case 2:return k(t[0],t[1])||n;case 4:return A(t[0],t[1],t[2],t[3])||n}return n}(t,null):function(t,n){var e=arguments.length>2&&void 0!==arguments[2]?arguments[2]:b;switch(t){case"linear":return b;case"steps":return k(n.steps||1,n.jump||0)||e;case"bezier":case"cubic-bezier":return A(n.x1||0,n.y1||0,n.x2||0,n.y2||0)||e}return e}(t.type,t.value,null):null}function Z(t,n,e){var r=arguments.length>3&&void 0!==arguments[3]&&arguments[3],i=n.length-1;if(t<=n[0].t)return r?[0,0,n[0].v]:n[0].v;if(t>=n[i].t)return r?[i,1,n[i].v]:n[i].v;var u,o=n[0],a=null;for(u=1;u<=i;u++){if(!(t>n[u].t)){a=n[u];break}o=n[u]}return null==a?r?[i,1,n[i].v]:n[i].v:o.t===a.t?r?[u,1,a.v]:a.v:(t=(t-o.t)/(a.t-o.t),o.e&&(t=o.e(t)),r?[u,t,e(t,o.v,a.v)]:e(t,o.v,a.v))}function K(t,n){var e=arguments.length>2&&void 0!==arguments[2]?arguments[2]:null;return t&&t.length?"function"!=typeof n?null:("function"!=typeof e&&(e=null),function(r){var i=Z(r,t,n);return null!=i&&e&&(i=e(i)),i}):null}function W(t,n){return t.t-n.t}function X(t,n,r,i,u){var o,a="@"===r[0],l="#"===r[0],s=Y[r],f=T;switch(a?(o=r.substr(1),r=o.replace(U,Q)):l&&(r=r.substr(1)),e(s)){case"function":if(f=s(i,u,Z,J,r,a,n,t),l)return f;break;case"string":f=K(i,H(s));break;case"object":if((f=K(i,H(s.i),s.f))&&"function"==typeof s.u)return s.u(n,f,r,a,t)}return f?function(t,n,e){if(arguments.length>3&&void 0!==arguments[3]&&arguments[3])return t instanceof $?function(r){return t.style(n,e(r))}:function(r){return t.style[n]=e(r)};if(Array.isArray(n)){var r=n.length;return function(i){var u=e(i);if(null==u)for(var o=0;o<r;o++)t[o].removeAttribute(n);else for(var a=0;a<r;a++)t[a].setAttribute(n,u)}}return function(r){var i=e(r);null==i?t.removeAttribute(n):t.setAttribute(n,i)}}(n,r,f,a):null}function tt(t,n,r,i){if(!i||"object"!==e(i))return null;var u=null,o=null;return Array.isArray(i)?o=function(t){if(!t||!t.length)return null;for(var n=0;n<t.length;n++)t[n].e&&(t[n].e=J(t[n].e));return t.sort(W)}(i):(o=i.keys,u=i.data||null),o?X(t,n,r,o,u):null}function nt(t,n,e){if(!e)return null;var r=[];for(var i in e)if(e.hasOwnProperty(i)){var u=tt(t,n,i,e[i]);u&&r.push(u)}return r.length?r:null}function et(t,n){if(!n.settings.duration||n.settings.duration<0)return null;var e,r,i,u,o,a=function(t,n){if(!n)return null;var e=[];if(Array.isArray(n))for(var r=n.length,i=0;i<r;i++){var u=n[i];if(2===u.length){var o=null;if("string"==typeof u[0])o=t.getElementById(u[0]);else if(Array.isArray(u[0])){o=[];for(var a=0;a<u[0].length;a++)if("string"==typeof u[0][a]){var l=t.getElementById(u[0][a]);l&&o.push(l)}o=o.length?1===o.length?o[0]:new $(o):null}if(o){var s=nt(t,o,u[1]);s&&(e=e.concat(s))}}}else for(var f in n)if(n.hasOwnProperty(f)){var c=t.getElementById(f);if(c){var h=nt(t,c,n[f]);h&&(e=e.concat(h))}}return e.length?e:null}(t,n.elements);return a?(e=a,r=n.settings,i=r.duration,u=e.length,o=null,function(t,n){var a=r.iterations||1/0,l=(r.alternate&&a%2==0)^r.direction>0?i:0,s=t%i,f=1+(t-s)/i;n*=r.direction,r.alternate&&f%2==0&&(n=-n);var c=!1;if(f>a)s=l,c=!0,-1===r.fill&&(s=r.direction>0?0:i);else if(n<0&&(s=i-s),s===o)return!1;o=s;for(var h=0;h<u;h++)e[h](s);return c}):null}function rt(t,n){if(Y=n,!t||!t.root||!Array.isArray(t.animations))return null;var e=function(t){for(var n=document.getElementsByTagName("svg"),e=0;e<n.length;e++)if(n[e].id===t.root&&!n[e].svgatorAnimation)return n[e].svgatorAnimation=!0,n[e];return null}(t);if(!e)return null;var r=t.animations.map((function(t){return et(e,t)})).filter((function(t){return!!t}));return r.length?{svg:e,animations:r,animationSettings:t.animationSettings,options:t.options||void 0}:null}function it(t){var n=arguments.length>1&&void 0!==arguments[1]?arguments[1]:null,e=arguments.length>2&&void 0!==arguments[2]?arguments[2]:Number,r=arguments.length>3&&void 0!==arguments[3]?arguments[3]:"undefined"!=typeof BigInt&&BigInt,i="0x"+(t.replace(/[^0-9a-fA-F]+/g,"")||27);return n&&r&&e.isSafeInteger&&!e.isSafeInteger(+i)?e(r(i))%n+n:+i}function ut(t,n,e){return!t||!e||n>t.length?t:t.substring(0,n)+ut(t.substring(n+1),e,e)}function ot(t){var n=arguments.length>1&&void 0!==arguments[1]?arguments[1]:27;return!t||t%n?t%n:[0,1].includes(n)?n:ot(t/n,n)}function at(t,n,e){if(t&&t.length){var r=it(e),i=ot(r)+5,u=ut(t,ot(r,5),i);return u=u.replace(/\x7c$/g,"==").replace(/\x2f$/g,"="),u=function(t,n,e){var r=+("0x"+t.substring(0,4));t=t.substring(4);for(var i=it(n,r)%r+e%27,u=[],o=0;o<t.length;o+=2)if("|"!==t[o]){var a=+("0x"+t[o]+t[o+1])-i;u.push(a)}else{var l=+("0x"+t.substring(o+1,o+1+4))-i;o+=3,u.push(l)}return String.fromCharCode.apply(String,u)}(u=(u=atob(u)).replace(/[\x41-\x5A]/g,""),n,r),u=JSON.parse(u)}}var lt=[{key:"alternate",def:!1},{key:"fill",def:1},{key:"iterations",def:0},{key:"direction",def:1},{key:"speed",def:1},{key:"fps",def:100}],st=function(){function t(n,e){var i=this,u=arguments.length>2&&void 0!==arguments[2]?arguments[2]:null;r(this,t),this._id=0,this._running=!1,this._rollingBack=!1,this._animations=n,this._settings=e,(!u||u<"2022-05-02")&&delete this._settings.speed,lt.forEach((function(t){i._settings[t.key]=i._settings[t.key]||t.def})),this.duration=e.duration,this.offset=e.offset||0,this.rollbackStartOffset=0}return u(t,[{key:"alternate",get:function(){return this._settings.alternate}},{key:"fill",get:function(){return this._settings.fill}},{key:"iterations",get:function(){return this._settings.iterations}},{key:"direction",get:function(){return this._settings.direction}},{key:"speed",get:function(){return this._settings.speed}},{key:"fps",get:function(){return this._settings.fps}},{key:"maxFiniteDuration",get:function(){return this.iterations>0?this.iterations*this.duration:this.duration}},{key:"_apply",value:function(t){for(var n=arguments.length>1&&void 0!==arguments[1]?arguments[1]:{},e=this._animations,r=e.length,i=0,u=0;u<r;u++)n[u]?i++:(n[u]=e[u](t,1),n[u]&&i++);return i}},{key:"_rollback",value:function(t){var n=this,e=1/0,r=null;this.rollbackStartOffset=t,this._rollingBack=!0,this._running=!0;this._id=window.requestAnimationFrame((function i(u){if(n._rollingBack){null==r&&(r=u);var o=Math.round(t-(u-r)*n.speed);if(o>n.duration&&e!==1/0){var a=!!n.alternate&&o/n.duration%2>1,l=o%n.duration;o=(l+=a?n.duration:0)||n.duration}var s=(n.fps?1e3/n.fps:0)*n.speed,f=Math.max(0,o);f<=e-s&&(n.offset=f,e=f,n._apply(f));var c=n.iterations>0&&-1===n.fill&&o>=n.maxFiniteDuration;(o<=0||n.offset<o||c)&&n.stop(),n._id=window.requestAnimationFrame(i)}}))}},{key:"_start",value:function(){var t=this,n=arguments.length>0&&void 0!==arguments[0]?arguments[0]:0,e=-1/0,r=null,i={};this._running=!0;var u=function u(o){null==r&&(r=o);var a=Math.round((o-r)*t.speed+n),l=(t.fps?1e3/t.fps:0)*t.speed;if(a>=e+l&&!t._rollingBack&&(t.offset=a,e=a,t._apply(a,i)===t._animations.length))return void t.pause(!0);t._id=window.requestAnimationFrame(u)};this._id=window.requestAnimationFrame(u)}},{key:"_pause",value:function(){this._id&&window.cancelAnimationFrame(this._id),this._running=!1}},{key:"play",value:function(){if(!this._running)return this._rollingBack?this._rollback(this.offset):this._start(this.offset)}},{key:"stop",value:function(){this._pause(),this.offset=0,this.rollbackStartOffset=0,this._rollingBack=!1,this._apply(0)}},{key:"reachedToEnd",value:function(){return this.iterations>0&&this.offset>=this.iterations*this.duration}},{key:"restart",value:function(){var t=arguments.length>0&&void 0!==arguments[0]&&arguments[0];this.stop(t),this.play(t)}},{key:"pause",value:function(){this._pause()}},{key:"reverse",value:function(){this.direction=-this.direction}}],[{key:"build",value:function(t,n){delete t.animationSettings,t.options=at(t.options,t.root,"5c7f360c"),t.animations.map((function(n){n.settings=at(n.s,t.root,"5c7f360c"),delete n.s,t.animationSettings||(t.animationSettings=n.settings)}));var e=t.version;if(!(t=rt(t,n)))return null;var r=t.options||{},i=new this(t.animations,t.animationSettings,e);return{el:t.svg,options:r,player:i}}},{key:"push",value:function(t){return this.build(t)}},{key:"init",value:function(){var t=this,n=window.__SVGATOR_PLAYER__&&window.__SVGATOR_PLAYER__["5c7f360c"];Array.isArray(n)&&n.splice(0).forEach((function(n){return t.build(n)}))}}]),t}();function ft(t){return d(t)+""}function ct(t){var n=arguments.length>1&&void 0!==arguments[1]?arguments[1]:" ";return t&&t.length?t.map(ft).join(n):""}function ht(t){if(!t)return"transparent";if(null==t.a||t.a>=1){var n=function(t){return 1===(t=parseInt(t).toString(16)).length?"0"+t:t},e=function(t){return t.charAt(0)===t.charAt(1)},r=n(t.r),i=n(t.g),u=n(t.b);return e(r)&&e(i)&&e(u)&&(r=r.charAt(0),i=i.charAt(0),u=u.charAt(0)),"#"+r+i+u}return"rgba("+t.r+","+t.g+","+t.b+","+t.a+")"}function vt(t){return t?"url(#"+t+")":"none"}!function(){for(var t=0,n=["ms","moz","webkit","o"],e=0;e<n.length&&!window.requestAnimationFrame;++e)window.requestAnimationFrame=window[n[e]+"RequestAnimationFrame"],window.cancelAnimationFrame=window[n[e]+"CancelAnimationFrame"]||window[n[e]+"CancelRequestAnimationFrame"];window.requestAnimationFrame||(window.requestAnimationFrame=function(n){var e=Date.now(),r=Math.max(0,16-(e-t)),i=window.setTimeout((function(){n(e+r)}),r);return t=e+r,i},window.cancelAnimationFrame=window.clearTimeout)}();var yt={f:null,i:function(t,n,e){return 0===t?n:1===t?e:{x:q(t,n.x,e.x),y:q(t,n.y,e.y)}},u:function(t,n){return function(e){var r=n(e);t.setAttribute("rx",ft(r.x)),t.setAttribute("ry",ft(r.y))}}},gt={f:null,i:function(t,n,e){return 0===t?n:1===t?e:{width:q(t,n.width,e.width),height:q(t,n.height,e.height)}},u:function(t,n){return function(e){var r=n(e);t.setAttribute("width",ft(r.width)),t.setAttribute("height",ft(r.height))}}};Object.freeze({M:2,L:2,Z:0,H:1,V:1,C:6,Q:4,T:2,S:4,A:7});var dt={},pt=null;function mt(t){var n=function(){if(pt)return pt;if("object"!==("undefined"==typeof document?"undefined":e(document))||!document.createElementNS)return{};var t=document.createElementNS("http://www.w3.org/2000/svg","svg");return t&&t.style?(t.style.position="absolute",t.style.opacity="0.01",t.style.zIndex="-9999",t.style.left="-9999px",t.style.width="1px",t.style.height="1px",pt={svg:t}):{}}().svg;if(!n)return function(t){return null};var r=document.createElementNS(n.namespaceURI,"path");r.setAttributeNS(null,"d",t),r.setAttributeNS(null,"fill","none"),r.setAttributeNS(null,"stroke","none"),n.appendChild(r);var i=r.getTotalLength();return function(t){var n=r.getPointAtLength(i*t);return{x:n.x,y:n.y}}}function bt(t){return dt[t]?dt[t]:dt[t]=mt(t)}function wt(t,n,e,r){if(!t||!r)return!1;var i=["M",t.x,t.y];if(n&&e&&(i.push("C"),i.push(n.x),i.push(n.y),i.push(e.x),i.push(e.y)),n?!e:e){var u=n||e;i.push("Q"),i.push(u.x),i.push(u.y)}return n||e||i.push("L"),i.push(r.x),i.push(r.y),i.join(" ")}function At(t,n,e,r){var i=arguments.length>4&&void 0!==arguments[4]?arguments[4]:1,u=wt(t,n,e,r),o=bt(u);try{return o(i)}catch(t){return null}}function _t(t,n,e){return t+(n-t)*e}function xt(t,n,e){var r=arguments.length>3&&void 0!==arguments[3]&&arguments[3],i={x:_t(t.x,n.x,e),y:_t(t.y,n.y,e)};return r&&(i.a=kt(t,n)),i}function kt(t,n){return Math.atan2(n.y-t.y,n.x-t.x)}function St(t,n,e,r){var i=1-r;return i*i*t+2*i*r*n+r*r*e}function Ot(t,n,e,r){return 2*(1-r)*(n-t)+2*r*(e-n)}function jt(t,n,e,r){var i=arguments.length>4&&void 0!==arguments[4]&&arguments[4],u=At(t,n,null,e,r);return u||(u={x:St(t.x,n.x,e.x,r),y:St(t.y,n.y,e.y,r)}),i&&(u.a=Et(t,n,e,r)),u}function Et(t,n,e,r){return Math.atan2(Ot(t.y,n.y,e.y,r),Ot(t.x,n.x,e.x,r))}function Mt(t,n,e,r,i){var u=i*i;return i*u*(r-t+3*(n-e))+3*u*(t+e-2*n)+3*i*(n-t)+t}function Pt(t,n,e,r,i){var u=1-i;return 3*(u*u*(n-t)+2*u*i*(e-n)+i*i*(r-e))}function It(t,n,e,r,i){var u=arguments.length>5&&void 0!==arguments[5]&&arguments[5],o=At(t,n,e,r,i);return o||(o={x:Mt(t.x,n.x,e.x,r.x,i),y:Mt(t.y,n.y,e.y,r.y,i)}),u&&(o.a=Rt(t,n,e,r,i)),o}function Rt(t,n,e,r,i){return Math.atan2(Pt(t.y,n.y,e.y,r.y,i),Pt(t.x,n.x,e.x,r.x,i))}function Ft(t,n,e){var r=arguments.length>3&&void 0!==arguments[3]&&arguments[3];if(Tt(n)){if(Bt(e))return jt(n,e.start,e,t,r)}else if(Tt(e)){if(qt(n))return jt(n,n.end,e,t,r)}else{if(qt(n))return Bt(e)?It(n,n.end,e.start,e,t,r):jt(n,n.end,e,t,r);if(Bt(e))return jt(n,e.start,e,t,r)}return xt(n,e,t,r)}function Nt(t,n,e){var r=Ft(t,n,e,!0);return r.a=function(t){return arguments.length>1&&void 0!==arguments[1]&&arguments[1]?t+Math.PI:t}(r.a)/m,r}function Tt(t){return!t.type||"corner"===t.type}function Bt(t){return null!=t.start&&!Tt(t)}function qt(t){return null!=t.end&&!Tt(t)}var Dt=new N;var Lt={f:ft,i:B},Ct={f:ft,i:D};function Vt(t,n,e){return t.map((function(t){return function(t,n,e){var r=t.v;if(!r||"g"!==r.t||r.s||!r.v||!r.r)return t;var i=e.getElementById(r.r),u=i&&i.querySelectorAll("stop")||[];return r.s=r.v.map((function(t,n){var e=u[n]&&u[n].getAttribute("offset");return{c:t,o:e=d(parseInt(e)/100)}})),delete r.v,t}(t,0,e)}))}var Gt={gt:"gradientTransform",c:{x:"cx",y:"cy"},rd:"r",f:{x:"x1",y:"y1"},to:{x:"x2",y:"y2"}};function zt(t,n,r,i,u,o,a,l){return Vt(t,0,l),n=function(t,n,e){for(var r,i,u,o=t.length-1,a={},l=0;l<=o;l++)(r=t[l]).e&&(r.e=n(r.e)),r.v&&"g"===(i=r.v).t&&i.r&&(u=e.getElementById(i.r))&&(a[i.r]={e:u,s:u.querySelectorAll("stop")});return a}(t,i,l),function(i){var u=r(i,t,Yt);if(!u)return"none";if("c"===u.t)return ht(u.v);if("g"===u.t){if(!n[u.r])return vt(u.r);var o=n[u.r];return function(t,n){for(var e=t.s,r=e.length;r<n.length;r++){var i=e[e.length-1].cloneNode();i.id=Qt(i.id),t.e.appendChild(i),e=t.s=t.e.querySelectorAll("stop")}for(var u=0,o=e.length,a=n.length-1;u<o;u++)e[u].setAttribute("stop-color",ht(n[Math.min(u,a)].c)),e[u].setAttribute("offset",n[Math.min(u,a)].o)}(o,u.s),Object.keys(Gt).forEach((function(t){if(void 0!==u[t])if("object"!==e(Gt[t])){var n,r="gt"===t?(n=u[t],Array.isArray(n)?"matrix("+n.join(" ")+")":""):u[t],i=Gt[t];o.e.setAttribute(i,r)}else Object.keys(Gt[t]).forEach((function(n){if(void 0!==u[t][n]){var e=u[t][n],r=Gt[t][n];o.e.setAttribute(r,e)}}))})),vt(u.r)}return"none"}}function Yt(t,e,r){if(0===t)return e;if(1===t)return r;if(e&&r){var i=e.t;if(i===r.t)switch(e.t){case"c":return{t:i,v:V(t,e.v,r.v)};case"g":if(e.r===r.r){var u={t:i,s:$t(t,e.s,r.s),r:e.r};return e.gt&&r.gt&&(u.gt=function(t,n,e){var r=n.length;if(r!==e.length)return T(t,n,e);for(var i=new Array(r),u=0;u<r;u++)i[u]=B(t,n[u],e[u]);return i}(t,e.gt,r.gt)),e.c?(u.c=L(t,e.c,r.c),u.rd=q(t,e.rd,r.rd)):e.f&&(u.f=L(t,e.f,r.f),u.to=L(t,e.to,r.to)),u}}if("c"===e.t&&"g"===r.t||"c"===r.t&&"g"===e.t){var o="c"===e.t?e:r,a="g"===e.t?n({},e):n({},r),l=a.s.map((function(t){return{c:o.v,o:t.o}}));return a.s="c"===e.t?$t(t,l,a.s):$t(t,a.s,l),a}}return T(t,e,r)}function $t(t,n,e){if(n.length===e.length)return n.map((function(n,r){return Ut(t,n,e[r])}));for(var r=Math.max(n.length,e.length),i=[],u=0;u<r;u++){var o=Ut(t,n[Math.min(u,n.length-1)],e[Math.min(u,e.length-1)]);i.push(o)}return i}function Ut(t,n,e){return{o:D(t,n.o,e.o||0),c:V(t,n.c,e.c||{})}}function Qt(t){return t.replace(/-fill-([0-9]+)$/,(function(t,n){return"-fill-"+(+n+1)}))}var Ht={fill:zt,"fill-opacity":Ct,stroke:zt,"stroke-opacity":Ct,"stroke-width":Lt,"stroke-dashoffset":{f:ft,i:B},"stroke-dasharray":{f:function(t){var n=arguments.length>1&&void 0!==arguments[1]?arguments[1]:" ";return t&&t.length>0&&(t=t.map((function(t){return d(t,4)}))),ct(t,n)},i:function(t,n,e){var r,i,u,o=n.length,a=e.length;if(o!==a)if(0===o)n=G(o=a,0);else if(0===a)a=o,e=G(o,0);else{var l=(u=(r=o)*(i=a)/function(t,n){for(var e;n;)e=n,n=t%n,t=e;return t||1}(r,i))<0?-u:u;n=z(n,Math.floor(l/o)),e=z(e,Math.floor(l/a)),o=a=l}for(var s=[],f=0;f<o;f++)s.push(d(q(t,n[f],e[f])));return s}},opacity:Ct,transform:function(t,n,r,i){if(!(t=function(t,n){if(!t||"object"!==e(t))return null;var r=!1;for(var i in t)t.hasOwnProperty(i)&&(t[i]&&t[i].length?(t[i].forEach((function(t){t.e&&(t.e=n(t.e))})),r=!0):delete t[i]);return r?t:null}(t,i)))return null;var u=function(e,i,u){var o=arguments.length>3&&void 0!==arguments[3]?arguments[3]:null;return t[e]?r(i,t[e],u):n&&n[e]?n[e]:o};return n&&n.a&&t.o?function(n){var e=r(n,t.o,Nt);return Dt.recomposeSelf(e,u("r",n,B,0)+e.a,u("k",n,L),u("s",n,L),u("t",n,L)).toString()}:function(t){return Dt.recomposeSelf(u("o",t,Ft,null),u("r",t,B,0),u("k",t,L),u("s",t,L),u("t",t,L)).toString()}},r:Lt,"#size":gt,"#radius":yt,_:function(t,n){if(Array.isArray(t))for(var e=0;e<t.length;e++)this[t[e]]=n;else this[t]=n}},Jt=function(t){!function(t,n){if("function"!=typeof n&&null!==n)throw new TypeError("Super expression must either be null or a function");t.prototype=Object.create(n&&n.prototype,{constructor:{value:t,writable:!0,configurable:!0}}),n&&l(t,n)}(o,t);var n,e,i=(n=o,e=s(),function(){var t,r=a(n);if(e){var i=a(this).constructor;t=Reflect.construct(r,arguments,i)}else t=r.apply(this,arguments);return c(this,t)});function o(){return r(this,o),i.apply(this,arguments)}return u(o,null,[{key:"build",value:function(t){var n=h(a(o),"build",this).call(this,t,Ht);if(!n)return null;n.el,n.options,function(t,n,e){t.play()}(n.player)}}]),o}(st);return Jt.init(),Jt}));
(function(s,i,o,w,d,a,b){w[o]=w[o]||{};w[o][s]=w[o][s]||[];w[o][s].push(i);})('5c7f360c',{"root":"ev0ecLtQaFG1","version":"2022-05-04","animations":[{"elements":{"ev0ecLtQaFG7":{"transform":{"data":{"o":{"x":123.392399,"y":190.034302,"type":"corner"},"t":{"x":-123.392398,"y":-190.034301}},"keys":{"s":[{"t":0,"v":{"x":1,"y":1}},{"t":400,"v":{"x":1,"y":0.05}},{"t":800,"v":{"x":1,"y":1}}]}}},"ev0ecLtQaFG10":{"opacity":[{"t":0,"v":1},{"t":230,"v":0},{"t":450,"v":0},{"t":800,"v":1}]}},"s":"MGDA1ZGM2NmRhZmMwYmWRhY2JmYjRiYWI5NmQF4NTdlN2I3YjdiNzdMCNmRhZmI0YmRiMGFlYHmZiNGJhYjk2ZDg1N2CM3NzZkYjRiZmIwYmRQRYWNiZk1iNGJhYjliEZTZkODU3Yjc3RzZkYXjFiNGI3Yjc2ZDg1WDWdjNzc2ZGFjYjdiZmILwYmRiOWFjYmZiMDZkLODVHYjFXYWNiN2JlYLjA3NzZkYmViYmIwYjTBHYWY2ZDg1N2M3NzZVkYjFiYmJlNmQ4NTdjHN2I3YmM4"}],"options":"MIDAxMDg4MmY4MDgxNmKU3ZjgxMmY0N1AyZjcQ5N2M2ZTcxMmY4YQ|"},'__SVGATOR_PLAYER__',window,document)
]]></script>
</svg>
