<svg width="135" height="48" viewBox="0 0 135 48" fill="none" xmlns="http://www.w3.org/2000/svg">
<path d="M47.5993 42.401C47.5592 42.6416 47.4789 42.8422 47.3987 43.0026C50.9678 45.0879 54.6572 46.6919 58.5872 47.2935C74.5478 49.7798 89.1851 34.942 105.226 36.6664C111.161 37.3081 116.936 40.2355 122.871 39.3533C135.343 37.5086 138.551 18.3398 129.247 9.87826C119.983 1.41673 104.705 2.98072 94.1978 9.95847C87.7013 14.2895 82.4479 20.2647 76.0316 24.6759C69.5752 29.0871 61.0334 31.7339 53.9755 28.3653C53.9755 28.3653 53.9755 28.3653 53.9354 28.3653C53.8953 28.4856 53.8151 28.6059 53.6948 28.7262C50.4064 32.6963 48.3211 37.3081 47.5993 42.401ZM103.822 16.2545C104.023 16.0941 104.263 15.9337 104.464 15.7733C105.988 11.8032 109.878 9.51736 114.249 9.31685C119.502 9.07624 124.715 11.2818 128.525 14.8108C129.127 15.3722 129.488 16.5352 128.605 17.0967C121.307 21.9089 112.244 21.3474 104.263 18.6606C103.221 18.3799 102.94 16.8961 103.822 16.2545Z" fill="#0FB59C"/>
<path d="M-4.93437 14.2493C-0.0018158 20.024 1.60227 27.9642 -0.523142 35.1826C1.76267 33.1374 4.00838 31.012 6.53481 29.4079C5.69266 29.5683 4.65001 29.0469 4.73022 27.884C5.25154 21.1869 3.04593 14.6503 -1.40539 9.63758C-1.4856 9.51728 -1.5658 9.43708 -1.6059 9.31677C-2.92927 10.7604 -4.21253 12.2843 -5.45569 13.8483C-5.29528 13.9686 -5.09478 14.0889 -4.93437 14.2493Z" fill="#0FB59C"/>
<path d="M0.8403 7.83302C5.77285 13.4072 8.21907 20.7459 7.61754 28.1648C7.57744 28.4455 7.49725 28.6861 7.37694 28.8866C8.5399 28.2048 9.70286 27.6434 10.9861 27.2424C20.7309 24.0743 29.1924 30.2902 38.0149 36.6664C37.9748 36.506 37.9748 36.3456 38.0149 36.1451C38.9773 30.3303 41.6241 25.1972 45.7145 20.9464C44.0703 18.7408 42.5063 16.3747 40.8621 14.2092C33.6839 4.66495 21.4127 -2.79402 10.0638 1.01568C6.29419 2.29894 3.08601 4.58476 0.23877 7.432C0.43928 7.47211 0.63979 7.63251 0.8403 7.83302ZM28.3904 11.2417C28.631 10.56 29.5534 10.0386 30.2752 10.3995C31.8392 11.2016 33.2026 12.2442 34.2854 13.6478C35.4083 15.1316 33.1626 16.9763 32.0397 15.4524C31.2778 14.4899 30.3955 13.6478 29.3128 13.0864C28.5508 12.7255 28.1097 12.0437 28.3904 11.2417ZM6.01346 7.11119C11.4673 1.49691 20.4101 2.05832 25.3827 7.99342C26.5858 9.43709 24.3401 11.2417 23.137 9.79801C19.0867 4.98576 12.1892 4.90557 7.85817 9.3569C6.5348 10.6803 4.7302 8.43456 6.01346 7.11119Z" fill="#0FB59C"/>
<path d="M39.3383 37.669C41.1428 38.9522 42.9474 40.2355 44.7921 41.4386C45.6744 36.1451 47.88 31.2526 51.3288 27.082C51.3689 27.0419 51.409 26.9618 51.4491 26.9216C49.9653 25.879 48.682 24.5957 47.479 23.1921C43.9901 26.8414 41.7043 31.4131 40.8621 36.3857C40.7418 37.268 40.02 37.669 39.3383 37.669Z" fill="#0FB59C"/>
<path d="M-3.6912 35.4232C-4.01202 36.2654 -3.53079 36.9471 -2.84906 37.2278C-2.16732 37.5085 -1.28509 37.3481 -0.96427 36.4258C-0.803862 36.0248 -0.683556 35.5837 -0.56325 35.1826C1.56216 27.9643 -0.041923 20.024 -4.97447 14.2493C-5.13488 14.0488 -5.29529 13.9285 -5.4958 13.8483C-6.69886 13.2869 -8.26283 14.8108 -7.26028 16.0539C-2.64855 21.4276 -1.28508 28.8064 -3.6912 35.4232Z" fill="#EF4A24"/>
<path d="M4.7302 27.9242C4.65 29.047 5.69265 29.6084 6.53479 29.448C6.85561 29.3678 7.17644 29.2074 7.37695 28.9267C7.49726 28.7262 7.61755 28.4856 7.61755 28.2049C8.21908 20.786 5.77286 13.4473 0.840309 7.87312C0.639799 7.67261 0.439289 7.51221 0.238778 7.432C-0.884079 7.03098 -2.20745 8.23404 -1.60592 9.3569C-1.56582 9.4772 -1.48561 9.5574 -1.40541 9.67771C3.04592 14.6905 5.25153 21.187 4.7302 27.9242Z" fill="#EF4A24"/>
<path d="M38.0149 36.6664C38.1352 37.308 38.7367 37.6288 39.3784 37.6288C40.0601 37.6288 40.7819 37.2278 40.9022 36.3857C41.7444 31.413 44.0302 26.8414 47.5191 23.1921C47.5993 23.0718 47.7196 22.9916 47.7998 22.8713C49.1232 21.5479 47.2785 19.3022 45.9551 20.6256C45.8749 20.7058 45.7546 20.8261 45.6744 20.9063C41.584 25.117 38.9372 30.2901 37.9748 36.1049C37.9748 36.3456 37.9748 36.506 38.0149 36.6664Z" fill="#EF4A24"/>
<path d="M51.3689 27.0819C47.9201 31.2124 45.7145 36.145 44.8322 41.4385C44.7921 41.6791 44.752 41.9197 44.7119 42.1603C44.4713 43.7644 46.6769 44.1654 47.3988 43.0426C47.5191 42.8822 47.5993 42.6816 47.5993 42.441C48.3211 37.3481 50.4465 32.7363 53.7349 28.8063C53.8552 28.686 53.8953 28.5657 53.9755 28.4454C54.5369 27.1621 52.6521 25.919 51.5293 27.0017C51.4491 27.0017 51.409 27.0418 51.3689 27.0819Z" fill="#EF4A24"/>
<path d="M125.157 15.8134C122.59 13.8885 119.622 12.6052 116.414 12.2844C116.454 14.1692 116.695 16.054 117.176 17.8586C119.943 17.7383 122.67 17.0966 125.157 15.8134Z" fill="#FEE8DF"/>
<path d="M107.231 16.5753V16.6154C109.477 17.257 111.843 17.6981 114.209 17.8585C113.768 16.0539 113.567 14.2093 113.527 12.3245C110.8 12.6854 108.234 13.9686 107.231 16.5753Z" fill="#FEE8DF"/>
<path d="M104.223 18.7408C112.244 21.4277 121.267 21.9891 128.565 17.1768C129.448 16.6154 129.127 15.4525 128.485 14.891C124.675 11.3621 119.462 9.11631 114.209 9.39702C109.838 9.59753 105.948 11.8432 104.424 15.8534C104.223 16.0139 103.983 16.1743 103.782 16.3347C102.94 16.8961 103.221 18.3799 104.223 18.7408ZM115.091 10.56C115.933 10.6402 116.414 11.362 116.414 12.124C116.414 12.1641 116.414 12.2042 116.414 12.2844C119.663 12.6052 122.63 13.8885 125.157 15.8134C122.67 17.0966 119.943 17.6981 117.176 17.8585V17.8987C117.658 19.7033 114.77 20.1444 114.289 18.3799C114.249 18.2195 114.209 18.019 114.169 17.8585C111.803 17.6981 109.437 17.257 107.191 16.6154V16.5753C108.193 13.9687 110.8 12.6854 113.487 12.3245C113.487 12.1641 113.487 12.0037 113.487 11.8834C113.527 11.0813 114.369 10.5199 115.091 10.56Z" fill="#050606"/>
<path d="M113.527 11.8834C113.527 12.0438 113.527 12.2042 113.527 12.3245C113.567 14.1692 113.768 16.0139 114.209 17.8586C114.249 18.019 114.289 18.2195 114.329 18.3799C114.81 20.1845 117.658 19.7033 117.216 17.8987V17.8586C116.735 16.0139 116.455 14.1692 116.455 12.2844C116.455 12.2443 116.455 12.2042 116.455 12.124C116.455 11.3621 115.973 10.6402 115.131 10.56C114.369 10.5199 113.527 11.0813 113.527 11.8834Z" fill="#050606"/>
<path d="M7.85816 9.35682C12.1892 4.90549 19.0867 4.98568 23.137 9.79793C24.3401 11.2416 26.5858 9.39691 25.3827 7.99334C20.4101 2.05823 11.4673 1.53693 6.01345 7.11111C4.73019 8.43448 6.53479 10.6802 7.85816 9.35682Z" fill="#FEE8DF"/>
<path d="M29.2726 13.0864C30.3955 13.6478 31.2777 14.4498 31.9995 15.4524C33.1224 16.9361 35.4082 15.1316 34.2453 13.6478C33.1625 12.2442 31.8391 11.2016 30.2351 10.3995C29.5533 10.0386 28.631 10.6 28.3503 11.2417C28.1097 12.0437 28.5508 12.7255 29.2726 13.0864Z" fill="#FEE8DF"/>
</svg>
