<svg width="157" height="50" viewBox="0 0 157 50" fill="none" xmlns="http://www.w3.org/2000/svg">
<path d="M91.297 44.4867C91.339 44.7392 91.4232 44.9496 91.5073 45.1179C87.7627 47.3057 83.8918 48.9887 79.7685 49.6198C63.0227 52.2285 47.6654 36.6608 30.8356 38.47C24.6085 39.1432 18.5497 42.2147 12.3227 41.2891C-0.762566 39.3536 -4.12853 19.2419 5.63281 10.3641C15.3521 1.48634 31.3825 3.12726 42.4061 10.4483C49.2222 14.9923 54.734 21.2614 61.466 25.8897C68.24 30.5179 77.2019 33.2949 84.6071 29.7606C84.6071 29.7606 84.6071 29.7606 84.6491 29.7606C84.6912 29.8868 84.7754 30.013 84.9016 30.1393C88.3517 34.3047 90.5396 39.1432 91.297 44.4867ZM32.3082 17.054C32.0978 16.8857 31.8454 16.7174 31.635 16.5491C30.0361 12.3837 25.9549 9.98545 21.3687 9.77508C15.857 9.52263 10.3872 11.8367 6.39015 15.5393C5.75903 16.1283 5.38035 17.3485 6.30599 17.9376C13.9636 22.9866 23.4725 22.3975 31.8454 19.5785C32.9393 19.2839 33.2338 17.7272 32.3082 17.054Z" fill="#0FB59C"/>
<path d="M146.414 14.9502C141.239 21.009 139.556 29.3398 141.786 36.9133C139.388 34.7675 137.032 32.5375 134.381 30.8545C135.265 31.0228 136.359 30.4758 136.274 29.2557C135.727 22.2292 138.042 15.371 142.712 10.1117C142.796 9.98545 142.88 9.90131 142.922 9.77509C144.311 11.2898 145.657 12.8886 146.961 14.5295C146.793 14.6557 146.583 14.7819 146.414 14.9502Z" fill="#0FB59C"/>
<path d="M144.227 39.0591C144.9 38.7646 145.405 38.0493 145.111 37.1657C142.586 30.2234 144.059 22.4817 148.813 16.8857C151.464 20.2517 154.072 23.6177 156.976 26.4788V46.7588C152.6 44.9917 148.519 42.5934 144.858 39.6061C144.648 39.3957 144.437 39.2274 144.227 39.0591Z" fill="#0FB59C"/>
<path d="M140.356 8.21835C135.181 14.0667 132.614 21.7664 133.246 29.5502C133.288 29.8448 133.372 30.0972 133.498 30.3076C132.278 29.5923 131.058 29.0032 129.711 28.5825C119.487 25.2586 110.609 31.7802 101.353 38.4701C101.395 38.3018 101.395 38.1335 101.353 37.9231C100.343 31.8223 97.5662 26.4367 93.2746 21.9768C94.9996 19.6627 96.6405 17.1802 98.3656 14.9082C105.897 4.89443 118.772 -2.93146 130.679 1.06564C134.634 2.41203 138 4.81029 140.987 7.7976C140.777 7.83967 140.567 8.00797 140.356 8.21835ZM111.451 11.7947C111.198 11.0794 110.231 10.5324 109.473 10.9111C107.832 11.7526 106.402 12.8465 105.266 14.3192C104.088 15.8759 106.444 17.8114 107.622 16.2125C108.421 15.2027 109.347 14.3192 110.483 13.7302C111.283 13.3515 111.745 12.6362 111.451 11.7947ZM134.929 7.461C129.206 1.57054 119.824 2.15957 114.606 8.38663C113.344 9.90132 115.7 11.7947 116.963 10.28C121.212 5.23102 128.449 5.14688 132.993 9.81718C134.382 11.2056 136.275 8.84947 134.929 7.461Z" fill="#0FB59C"/>
<path d="M99.9644 39.5219C98.071 40.8683 96.1776 42.2147 94.2422 43.4769C93.3166 37.9231 91.0025 32.7899 87.384 28.4142C87.342 28.3721 87.2999 28.288 87.2578 28.2459C88.8146 27.152 90.1609 25.8056 91.4232 24.3329C95.0837 28.1617 97.482 32.9583 98.3655 38.1755C98.4917 39.1012 99.2491 39.5219 99.9644 39.5219Z" fill="#0FB59C"/>
<path d="M145.111 37.1658C145.447 38.0494 144.942 38.7646 144.227 39.0592C143.512 39.3537 142.586 39.1854 142.25 38.2177C142.081 37.7969 141.955 37.3341 141.829 36.9134C139.599 29.3399 141.282 21.0091 146.457 14.9503C146.625 14.7399 146.794 14.6137 147.004 14.5296C148.266 13.9405 149.907 15.5394 148.855 16.8437C144.017 22.4817 142.586 30.2235 145.111 37.1658Z" fill="#EF4A24"/>
<path d="M136.275 29.2978C136.359 30.4759 135.265 31.0649 134.382 30.8966C134.045 30.8124 133.708 30.6442 133.498 30.3496C133.372 30.1393 133.246 29.8868 133.246 29.5923C132.614 21.8085 135.181 14.1088 140.356 8.26039C140.567 8.05002 140.777 7.88173 140.987 7.79758C142.165 7.37683 143.554 8.63907 142.923 9.81716C142.881 9.94338 142.797 10.0275 142.712 10.1538C138.042 15.4131 135.728 22.2292 136.275 29.2978Z" fill="#EF4A24"/>
<path d="M101.353 38.47C101.227 39.1432 100.596 39.4798 99.9224 39.4798C99.2071 39.4798 98.4498 39.0591 98.3236 38.1755C97.44 32.9583 95.0417 28.1617 91.3812 24.3329C91.2971 24.2067 91.1709 24.1225 91.0867 23.9963C89.6982 22.6079 91.6337 20.2517 93.0221 21.6402C93.1063 21.7243 93.2325 21.8506 93.3167 21.9347C97.6083 26.3526 100.385 31.7802 101.395 37.881C101.395 38.1334 101.395 38.3017 101.353 38.47Z" fill="#EF4A24"/>
<path d="M87.3416 28.4141C90.9601 32.7478 93.2742 37.923 94.1999 43.4769C94.2419 43.7294 94.284 43.9818 94.3261 44.2343C94.5785 45.9173 92.2644 46.338 91.5071 45.1599C91.3808 44.9916 91.2967 44.7812 91.2967 44.5288C90.5393 39.1853 88.3094 34.3467 84.8593 30.2234C84.733 30.0971 84.6909 29.9709 84.6068 29.8447C84.0177 28.4983 85.9953 27.194 87.1734 28.33C87.2575 28.33 87.2996 28.3721 87.3416 28.4141Z" fill="#EF4A24"/>
<path d="M9.92437 16.5912C12.6172 14.5716 15.7307 13.2253 19.0967 12.8887C19.0546 14.8662 18.8021 16.8437 18.2972 18.737C15.3941 18.6108 12.533 17.9376 9.92437 16.5912Z" fill="#FEE8DF"/>
<path d="M28.7319 17.3906V17.4327C26.3757 18.1059 23.8934 18.5687 21.4109 18.737C21.8738 16.8436 22.0841 14.9082 22.1262 12.9307C24.9873 13.3094 27.6801 14.6558 28.7319 17.3906Z" fill="#FEE8DF"/>
<path d="M31.8875 19.6627C23.4725 22.4817 14.0057 23.0707 6.34809 18.0218C5.42245 17.4327 5.75905 16.2126 6.43224 15.6235C10.4293 11.9209 15.8991 9.56472 21.4109 9.85924C25.997 10.0696 30.0782 12.4258 31.6771 16.6333C31.8875 16.8016 32.1399 16.9699 32.3503 17.1382C33.2339 17.7272 32.9393 19.284 31.8875 19.6627ZM20.4852 11.0794C19.6016 11.1636 19.0968 11.9209 19.0968 12.7203C19.0968 12.7624 19.0968 12.8045 19.0968 12.8887C15.6887 13.2253 12.5752 14.5716 9.92444 16.5912C12.5331 17.9376 15.3942 18.5687 18.2973 18.737V18.7791C17.7924 20.6725 20.8218 21.1353 21.3267 19.284C21.3688 19.1157 21.4109 18.9053 21.4529 18.737C23.9353 18.5687 26.4178 18.1059 28.7739 17.4327V17.3906C27.7221 14.6558 24.9872 13.3094 22.1682 12.9307C22.1682 12.7624 22.1682 12.5941 22.1682 12.4679C22.1261 11.6264 21.2426 11.0373 20.4852 11.0794Z" fill="#050606"/>
<path d="M22.1265 12.4678C22.1265 12.6361 22.1265 12.8045 22.1265 12.9307C22.0844 14.8661 21.874 16.8015 21.4112 18.737C21.3691 18.9053 21.327 19.1157 21.285 19.284C20.7801 21.1773 17.7928 20.6724 18.2556 18.7791V18.737C18.7605 16.8015 19.055 14.8661 19.055 12.8886C19.055 12.8465 19.055 12.8045 19.055 12.7203C19.055 11.9209 19.5599 11.1635 20.4435 11.0794C21.2429 11.0373 22.1265 11.6264 22.1265 12.4678Z" fill="#050606"/>
<path d="M132.993 9.81713C128.449 5.14684 121.212 5.23098 116.962 10.2799C115.7 11.7946 113.344 9.8592 114.606 8.38658C119.823 2.15952 129.206 1.61257 134.928 7.46096C136.275 8.84942 134.381 11.2056 132.993 9.81713Z" fill="#FEE8DF"/>
<path d="M110.525 13.7301C109.347 14.3192 108.421 15.1606 107.664 16.2125C106.486 17.7692 104.088 15.8759 105.308 14.3191C106.444 12.8465 107.832 11.7526 109.515 10.9111C110.23 10.5324 111.198 11.1215 111.493 11.7947C111.745 12.6362 111.282 13.3514 110.525 13.7301Z" fill="#FEE8DF"/>
</svg>
