<svg width="158" height="53" viewBox="0 0 158 53" fill="none" xmlns="http://www.w3.org/2000/svg">
<path d="M36.9037 37.9257C34.4634 30.9834 36.0201 23.2416 40.8587 17.6877C46.9175 25.5557 52.7659 33.4237 62.1906 34.6018C63.4108 34.7701 64.5889 34.7701 65.7249 34.728C65.7249 34.7701 65.7249 34.7701 65.7249 34.8122C66.9451 40.913 69.4695 46.551 73.2983 51.4738C60.2552 52.6098 46.665 48.8652 36.6513 40.4502C36.4409 40.2819 36.2305 40.0715 36.0201 39.9032C36.7354 39.5246 37.2403 38.8514 36.9037 37.9257Z" fill="#0FB59C"/>
<path d="M28.1936 29.9736C27.6887 22.9471 30.129 16.131 34.8414 10.9137C34.9255 10.7875 35.0097 10.7034 35.0938 10.5771C36.4823 12.0918 37.7866 13.7327 39.0488 15.3736C38.8385 15.4578 38.6702 15.584 38.5019 15.7944C33.2846 21.8111 31.4754 30.0998 33.6212 37.7154C31.265 35.5275 28.9088 33.2975 26.2581 31.5724C27.1838 31.6986 28.2777 31.1517 28.1936 29.9736Z" fill="#0FB59C"/>
<path d="M75.5699 49.286C72.246 44.9102 69.8898 39.9033 68.7959 34.4756C68.7959 34.3915 68.7538 34.3073 68.7117 34.2232C71.6149 33.55 74.3076 32.2036 76.9163 30.4785C78.0944 37.2105 80.7451 43.4796 84.7422 49.0756C82.1756 49.9171 79.5249 50.5482 76.8321 50.9689C76.8321 50.8427 76.8321 50.7585 76.8321 50.6323C76.8321 49.7488 76.2431 49.328 75.5699 49.286Z" fill="#0FB59C"/>
<path d="M22.9339 1.65733C26.889 3.0458 30.2129 5.48617 33.2002 8.47347C32.9477 8.55762 32.7374 8.68385 32.527 8.89422C27.2676 14.7005 24.6169 22.3581 25.1639 30.142C25.206 30.4365 25.2901 30.6889 25.4164 30.8993C24.2383 30.184 22.976 29.5529 21.6296 29.1322C14.2245 26.6077 7.49252 29.3425 0.76056 33.55V15.3737C1.30753 14.8688 1.93866 14.406 2.61186 14.0694C3.3692 13.6907 3.83203 12.9754 3.53751 12.134C3.28506 11.4187 2.31733 10.8297 1.60205 11.2083C1.30753 11.3346 1.05508 11.5028 0.76056 11.6711V5.52824C7.53459 1.19454 15.4446 -0.909224 22.9339 1.65733ZM6.73518 8.76797C5.47294 10.2406 7.82914 12.176 9.09138 10.7034C13.383 5.69651 20.6619 5.69653 25.1218 10.4089C26.4682 11.8394 28.4037 9.48327 27.0573 8.05272C21.4193 2.16226 12.0366 2.62506 6.73518 8.76797Z" fill="#0FB59C"/>
<path d="M129.089 24.5039C130.015 20.9276 129.931 17.1408 128.752 13.6486C127.406 9.56736 124.587 5.99103 122.231 2.41467C135.19 2.87749 148.149 9.81979 154.039 21.4745L155.764 24.4618C154.039 21.4745 156.648 26.9863 156.943 28.0382C157.994 31.9091 153.787 35.0226 150.379 32.9189C143.479 28.6693 136.116 25.3875 128.584 25.3454C128.795 25.135 129.005 24.8405 129.089 24.5039ZM138.977 13.6486C142.595 16.8042 145.709 20.3806 148.359 24.3777C149.453 26.0186 151.936 24.2514 150.842 22.6526C148.065 18.4451 144.699 14.6584 140.912 11.3345C139.439 10.0302 137.504 12.3443 138.977 13.6486ZM132.539 8.38926C133.717 9.06246 134.895 9.77774 136.073 10.4509C136.789 10.8717 137.799 10.4088 138.093 9.69357C138.472 8.89415 138.051 8.09476 137.336 7.67401C136.158 7.00082 134.979 6.28554 133.801 5.61234C133.086 5.1916 132.076 5.65444 131.782 6.36971C131.403 7.16913 131.824 8.01059 132.539 8.38926Z" fill="#0FB59C"/>
<path d="M79.7355 28.9639C79.6935 28.7956 79.6514 28.6274 79.5673 28.5011C86.9724 22.5265 93.5781 13.6067 101.53 8.13695C103.255 6.95886 105.065 5.99115 106.958 5.14966C107 5.31796 107.084 5.5283 107.252 5.6966C112.386 12.134 114.784 20.2124 113.858 28.3749C113.816 28.8798 113.984 29.3005 114.237 29.5951C107.968 33.4239 102.582 39.1039 96.4392 43.3114C93.7044 45.2048 90.717 46.7615 87.6456 47.9817C87.6035 47.8976 87.5614 47.8555 87.5194 47.7713C83.4381 42.2175 80.7874 35.8221 79.7355 28.9639Z" fill="#0FB59C"/>
<path d="M109.861 4.05567C113.058 3.04588 116.424 2.4989 119.79 2.37268C119.454 2.8355 119.327 3.46661 119.748 4.09773C121.81 7.25334 124.334 10.4089 125.681 13.9853C126.901 17.2251 126.985 20.6331 126.101 23.957C125.933 24.5881 126.186 25.093 126.564 25.3875C125.134 25.4717 123.703 25.7241 122.273 26.0607C120.421 26.5235 118.654 27.2388 116.971 28.0383C117.729 19.455 115.246 10.8718 109.861 4.05567Z" fill="#0FB59C"/>
<path d="M126.059 23.957C126.901 20.633 126.859 17.225 125.639 13.9853C124.292 10.4089 121.81 7.2533 119.706 4.0977C119.285 3.46658 119.412 2.83547 119.748 2.37264C120.337 1.6153 121.515 1.32073 122.189 2.33053C122.189 2.33053 122.189 2.33057 122.189 2.37264C124.545 5.949 127.322 9.52533 128.71 13.6066C129.888 17.1409 129.972 20.8855 129.047 24.4619C128.963 24.7985 128.752 25.093 128.542 25.2613C127.953 25.7241 127.069 25.7241 126.522 25.3454C126.144 25.093 125.891 24.6301 126.059 23.957Z" fill="#EF4A24"/>
<path d="M113.858 28.3747C114.784 20.2122 112.344 12.0918 107.252 5.69643C107.126 5.52813 107 5.31778 106.958 5.14949C106.579 3.80309 108.683 2.58292 109.735 3.92931C109.777 3.97138 109.819 4.01348 109.819 4.05555C115.205 10.8717 117.687 19.4549 116.93 28.0802C116.888 28.3747 116.888 28.6272 116.846 28.9217C116.677 30.3523 114.994 30.4364 114.237 29.5949C113.984 29.3004 113.816 28.8796 113.858 28.3747Z" fill="#EF4A24"/>
<path d="M76.7057 29.2163C76.4532 27.4491 78.9356 27.1125 79.6088 28.501C79.693 28.6272 79.7351 28.7955 79.7771 28.9638C80.7869 35.822 83.4797 42.2174 87.603 47.8133C87.6451 47.8975 87.6872 47.9395 87.7293 48.0237C88.5707 49.5384 86.2146 51.0951 85.1206 49.5804C84.9944 49.4121 84.9102 49.2438 84.784 49.1176C80.7869 43.5638 78.1783 37.2525 76.9581 30.5206C76.8319 30.0577 76.7477 29.637 76.7057 29.2163Z" fill="#EF4A24"/>
<path d="M65.7663 34.686C65.4718 32.9189 68.1646 32.6664 68.7536 34.2653C68.7957 34.3494 68.7957 34.4335 68.8378 34.5177C69.9317 39.9453 72.2458 44.9523 75.6118 49.328C76.285 49.3701 76.874 49.7908 76.874 50.6744C76.874 50.8006 76.874 50.8848 76.874 51.011C76.874 51.1372 76.874 51.2214 76.874 51.3476C76.8319 52.8623 75.1069 53.5355 74.0971 52.3574C73.8447 52.0629 73.5922 51.7684 73.3818 51.4738C69.553 46.5511 67.0285 40.9131 65.8084 34.8122C65.7663 34.7281 65.7663 34.686 65.7663 34.686Z" fill="#EF4A24"/>
<path d="M38.5021 15.7523C38.6704 15.542 38.8807 15.4157 39.049 15.3316C40.3534 14.7846 41.9522 16.3834 40.8583 17.6878C36.0197 23.2416 34.505 30.9834 36.9032 37.9257C37.1978 38.8093 36.6929 39.5245 36.0197 39.777C35.3044 40.0715 34.3788 39.8611 34.0422 38.9355C33.8739 38.5147 33.7476 38.0519 33.6214 37.6312C31.4756 30.0577 33.2848 21.769 38.5021 15.7523Z" fill="#EF4A24"/>
<path d="M32.5277 8.93623C32.7381 8.72586 32.9484 8.55756 33.2009 8.51549C34.379 8.13681 35.7254 9.39907 35.1363 10.5772C35.0942 10.7034 35.0101 10.7875 34.8839 10.9137C30.1294 16.131 27.7312 22.9471 28.2361 29.9736C28.3202 31.1517 27.2263 31.6986 26.3006 31.5303C25.964 31.4462 25.6274 31.2779 25.4171 30.9834C25.2908 30.773 25.1646 30.5206 25.1646 30.226C24.6176 22.4001 27.2683 14.7425 32.5277 8.93623Z" fill="#EF4A24"/>
<path d="M27.0998 8.09488C28.4462 9.48335 26.5108 11.8395 25.1644 10.4511C20.6624 5.73868 13.4255 5.69659 9.13393 10.7456C7.87168 12.2182 5.51551 10.2827 6.77775 8.81013C12.0371 2.62514 21.4198 2.16234 27.0998 8.09488Z" fill="#FEE8DF"/>
<path d="M3.53828 12.176C3.8328 13.0175 3.36998 13.7327 2.61263 14.1114C1.93943 14.448 1.3083 14.9109 0.761332 15.4158V11.7132C1.01378 11.5449 1.3083 11.4187 1.60283 11.2504C2.36017 10.8717 3.28583 11.4607 3.53828 12.176Z" fill="#FEE8DF"/>
<path d="M140.912 11.2925C144.741 14.6164 148.065 18.4032 150.842 22.6106C151.936 24.2516 149.411 25.9766 148.359 24.3357C145.708 20.3386 142.595 16.7623 138.977 13.6066C137.504 12.3444 139.439 10.0303 140.912 11.2925Z" fill="#FEE8DF"/>
<path d="M133.802 5.65449C134.98 6.32768 136.158 7.04296 137.336 7.71616C138.051 8.1369 138.472 8.93635 138.093 9.73577C137.757 10.409 136.789 10.9138 136.074 10.4931C134.896 9.81988 133.717 9.1046 132.539 8.43141C131.824 8.01066 131.403 7.21127 131.782 6.41185C132.077 5.69658 133.086 5.23374 133.802 5.65449Z" fill="#FEE8DF"/>
</svg>
