<svg width="253" height="234" viewBox="0 0 253 234" fill="none" xmlns="http://www.w3.org/2000/svg">
<path d="M83.6365 99.2913C68.9716 90.4116 54.0375 80.9937 44.2833 66.9342C34.4618 52.8747 31.031 33.0299 40.3816 18.7013C52.1539 0.605517 80.4075 -0.874429 97.8978 11.7724C115.388 24.4193 123.326 46.9549 124.604 68.4814C125.479 44.1968 135.435 18.634 156.289 6.18897C177.142 -6.25607 209.298 0.403704 218.043 23.1411C223.828 38.2097 218.177 55.7 207.952 68.2123C197.727 80.6574 183.533 89.1334 169.675 97.3404C185.417 86.3081 205.463 79.6483 223.963 84.8281C242.462 90.0079 257.127 109.987 251.947 128.419C247.844 142.95 233.111 152.435 218.177 154.924C203.311 157.413 188.108 154.184 173.375 151.022C199.342 152.569 213.939 175.845 212.123 201.811C210.239 227.778 169.406 239.214 149.562 231.276C126.891 222.194 134.224 197.842 126.017 174.836C127.968 193.537 120.972 213.853 105.499 224.549C90.0272 235.245 66.1462 233.563 54.7102 218.629C45.7632 206.991 45.8305 190.375 51.3467 176.787C56.8629 163.198 67.0207 152.099 77.4476 141.806C77.1112 160.238 52.0194 167.974 34.5291 162.055C21.2095 157.547 9.30267 147.995 3.51741 135.146C-2.20058 122.298 -1.05703 106.22 7.7554 95.255C17.0387 83.6845 33.1837 79.3792 47.9159 80.6574C62.7154 81.9355 76.6403 87.9226 90.229 93.8424" fill="#EF4A24"/>
<path d="M68.635 43.5241C76.3711 49.7802 83.0982 57.1127 88.6144 65.4542C90.1616 67.8087 93.996 65.5888 92.3815 63.2343C86.6636 54.6237 79.8019 46.9548 71.7295 40.4296C69.5768 38.6133 66.4824 41.7077 68.635 43.5241Z" fill="black"/>
<path d="M164.025 67.4051C168.599 58.2563 175.528 50.7893 184.341 45.5422C186.762 44.0622 184.542 40.2951 182.121 41.775C172.77 47.3585 165.168 55.4309 160.258 65.1852C158.98 67.6742 162.747 69.8941 164.025 67.4051Z" fill="black"/>
<path d="M188.646 124.45C198.602 123.576 208.49 123.778 218.379 125.056C221.205 125.392 221.137 121.02 218.379 120.683C208.49 119.405 198.534 119.203 188.646 120.078C185.82 120.28 185.82 124.652 188.646 124.45Z" fill="black"/>
<path d="M154.741 173.491C157.97 176.45 160.123 181.563 162.208 185.263C164.832 189.837 167.455 194.479 169.81 199.188C171.088 201.744 174.855 199.524 173.577 196.968C171.155 191.99 168.397 187.146 165.572 182.37C163.352 178.536 161.132 173.423 157.768 170.396C155.75 168.445 152.656 171.607 154.741 173.491Z" fill="black"/>
<path d="M90.9692 168.311C86.1257 175.98 82.4258 184.254 80.0713 192.999C81.4167 192.797 82.7621 192.663 84.1075 192.461C83.973 192.326 83.9057 192.192 83.7712 192.057C82.0894 189.837 78.255 191.99 80.004 194.277C80.1386 194.412 80.2058 194.546 80.3404 194.681C81.4167 196.161 83.8384 196.093 84.3766 194.143C86.6638 185.734 90.1619 177.863 94.8708 170.531C96.2835 168.109 92.5164 165.889 90.9692 168.311Z" fill="black"/>
<path d="M42.8708 125.258C49.7324 122.701 56.9303 121.961 64.1282 123.172C66.8863 123.643 68.0971 119.405 65.2718 118.934C57.2666 117.589 49.2614 118.194 41.6599 121.02C39.1036 122.029 40.2472 126.267 42.8708 125.258Z" fill="black"/>
<path d="M126.42 178.805C160.638 178.805 188.377 151.066 188.377 116.849C188.377 82.6315 160.638 54.8928 126.42 54.8928C92.203 54.8928 64.4644 82.6315 64.4644 116.849C64.4644 151.066 92.203 178.805 126.42 178.805Z" fill="#F3B81A"/>
<path d="M169.945 108.238C160.258 120.011 140.749 130.37 112.899 126.132C103.885 124.787 89.4219 115.503 82.5603 107.7C108.998 89.8734 144.449 90.1425 169.945 108.238Z" fill="#FEE8DF"/>
<path d="M136.646 123.912C140.077 122.432 141.355 117.858 141.893 113.889C142.296 110.593 142.431 107.027 140.749 104.269C140.077 103.193 139.202 102.318 138.193 101.579C133.686 98.215 127.228 98.1477 122.519 101.444C117.81 104.74 115.052 111.131 115.792 117.118C115.926 118.262 116.196 119.338 116.666 120.347C118.146 123.576 121.443 125.258 124.739 125.863C129.246 126.67 132.408 126.267 136.646 123.912Z" fill="#2B2728"/>
<path d="M169.541 114.696C171.425 116.445 175.124 121.02 175.124 121.289C175.124 121.625 173.577 123.576 173.039 124.249C172.904 124.383 172.77 124.518 172.635 124.518C172.501 124.518 172.366 124.383 172.299 124.249C170.55 121.827 168.868 119.338 167.119 116.916C167.859 116.378 168.666 115.84 169.406 115.302" fill="#2B2728"/>
<path d="M167.321 128.554C165.572 125.594 163.958 122.567 162.478 119.472C161.603 119.809 160.661 120.145 159.787 120.549C159.585 120.616 159.316 120.751 159.249 121.02C159.181 121.221 159.248 121.423 159.316 121.625C160.19 124.518 161.132 127.41 162.007 130.37C162.074 130.639 162.209 130.976 162.478 131.11C162.747 131.245 163.15 131.11 163.419 130.976C164.496 130.37 166.245 129.025 167.321 128.554Z" fill="#2B2728"/>
<path d="M156.154 134.541C154.876 131.581 153.329 128.218 152.32 125.123C151.512 125.729 150.503 126.065 149.494 126.065C149.36 126.065 149.292 126.065 149.225 126.132C149.091 126.267 149.158 126.469 149.158 126.603C149.831 130.101 150.234 133.667 150.302 137.232C151.58 136.425 154.674 134.743 156.154 134.541Z" fill="#2B2728"/>
<path d="M143.036 138.039C143.104 136.828 142.835 135.416 142.565 134.272C142.095 132.254 141.825 130.236 141.758 128.15C140.547 128.688 139.269 128.89 138.058 128.756C138.327 131.985 138.596 135.281 138.866 138.51C140.346 138.645 141.758 138.241 143.036 138.039Z" fill="#2B2728"/>
<path d="M129.65 139.923C129.582 136.425 129.448 132.859 129.381 129.361C128.372 129.496 127.295 129.563 126.286 129.698C126.152 129.698 125.95 129.765 125.815 129.832C125.613 129.967 125.614 130.303 125.614 130.505C125.614 133.734 125.412 137.03 125.008 140.259C126.286 140.057 128.17 139.99 129.65 139.923Z" fill="#2B2728"/>
<path d="M116.196 140.326C116.465 136.963 116.868 133.599 117.339 130.303C116.263 130.37 115.186 130.236 114.177 129.967C113.303 132.859 112.496 135.752 111.621 138.644C112.832 139.452 114.783 139.99 116.196 140.326Z" fill="#2B2728"/>
<path d="M103.549 136.088C104.76 133.128 105.903 129.899 107.114 126.939C105.971 126.401 104.491 125.93 103.28 125.258C103.212 126.132 99.7816 132.187 98.8398 133.532C100.185 134.339 102.271 135.281 103.549 136.088Z" fill="#2B2728"/>
<path d="M91.5744 129.63C92.9871 126.738 94.3325 123.912 95.7452 121.02C95.1398 121.02 94.5343 120.683 94.2652 120.145C94.1307 119.943 93.9962 119.742 93.8616 119.809C93.7944 119.809 93.7271 119.943 93.6599 120.011C91.7763 122.769 89.2872 124.921 86.8655 127.074C88.3454 127.747 89.6236 128.756 90.6999 130.034" fill="#2B2728"/>
<path d="M81.5513 123.038C82.8294 120.078 84.1748 117.118 85.6547 114.293C85.1166 113.889 84.6457 113.351 84.2421 112.745C82.6276 114.494 80.9458 116.311 78.8604 117.387C78.3223 117.656 77.7168 118.06 77.7168 118.665C77.7168 118.934 77.8514 119.203 77.9859 119.472C78.8604 120.818 79.8022 122.163 80.8112 123.374" fill="#2B2728"/>
<path d="M168.532 103.328C169.877 101.511 172.77 97.6095 172.77 97.475C172.77 97.2732 170.483 95.7932 169.474 95.3896C168.734 97.6095 167.657 99.6949 166.312 101.511C166.917 102.049 167.994 102.857 168.532 103.328Z" fill="#2B2728"/>
<path d="M158.778 98.4168C159.989 96.0623 161.603 93.1697 162.814 90.8152C161.738 90.2771 159.585 88.9989 159.518 89.0662C159.45 89.1335 156.087 97.2732 156.154 97.1386C156.221 97.0041 157.97 98.3495 158.778 98.4168Z" fill="#2B2728"/>
<path d="M148.553 94.7842C149.562 91.8916 150.705 88.9317 151.445 85.9718C150.571 85.7027 148.284 84.9627 148.149 85.03C148.015 85.0972 145.996 93.6406 146.064 93.8424C146.131 94.0442 148.015 94.5824 148.553 94.7842Z" fill="#2B2728"/>
<path d="M138.933 92.2952C139.808 89.268 140.346 86.2408 140.749 83.2809C139.942 83.2137 138.529 82.7428 137.722 82.6755C137.655 82.6755 137.588 82.6755 137.52 82.6755C137.453 82.7428 137.386 82.8773 137.386 82.9446C136.915 85.7027 136.511 88.528 136.242 91.2861C136.242 91.4207 136.242 91.5552 136.309 91.6898C136.377 91.8243 136.579 91.8916 136.78 91.8916C137.251 92.0261 138.328 92.2279 138.933 92.2952Z" fill="#2B2728"/>
<path d="M127.228 91.5552C127.093 88.5953 127.228 85.5681 127.497 82.6082C126.353 82.541 125.277 82.4737 124.133 82.541C123.999 82.541 123.864 82.541 123.797 82.6755C123.73 82.7428 123.73 82.8773 123.73 82.9446C123.662 85.9718 123.662 89.0662 123.595 92.0934C123.595 92.1606 123.595 92.2952 123.662 92.3624C123.73 92.4297 123.797 92.3624 123.797 92.3624C124.806 92.2952 125.748 92.2952 126.757 92.2279" fill="#2B2728"/>
<path d="M115.792 92.0934C115.59 88.9989 115.59 85.9718 115.657 82.8773C114.312 83.55 112.765 83.7518 111.285 83.55C111.823 86.7117 112.025 89.9407 111.823 93.1697C112.966 93.0352 114.043 92.8333 115.186 92.6315" fill="#2B2728"/>
<path d="M105.23 93.8424C104.625 90.7479 103.818 87.6535 102.809 84.6936C101.867 85.299 100.723 85.7027 99.647 85.8372C99.9161 86.5772 100.252 87.3172 100.522 88.0571C101.396 90.2771 102.271 92.5642 101.934 94.986C103.078 94.8514 104.221 94.7842 105.365 94.7842" fill="#2B2728"/>
<path d="M94.6689 97.2059C93.929 94.3806 93.2562 91.6225 92.5162 88.7971C91.5745 89.6716 90.4308 90.2771 89.22 90.4789C90.1618 93.237 90.9018 96.0623 91.4399 98.8877C92.3817 98.5513 93.2562 98.1477 94.198 97.8114" fill="#2B2728"/>
<path d="M86.1929 101.915C85.5202 99.4258 84.3767 97.1386 83.2331 94.8514C82.8295 93.9769 82.3585 93.1024 81.9549 92.2279C81.2149 93.2369 80.2059 93.9769 79.0623 94.4478C80.1386 96.9368 81.2149 99.4258 82.2913 101.915C82.3585 102.117 82.4931 102.386 82.6949 102.52C82.964 102.722 83.3676 102.655 83.7039 102.588C84.6457 102.318 85.5875 102.117 86.5293 101.848" fill="#2B2728"/>
<path d="M44.1486 39.7569C41.5923 30.81 45.6958 21.0558 53.7683 16.5486C56.2573 15.136 54.0373 11.3688 51.5483 12.7815C41.7268 18.2304 36.8161 30.2045 39.9106 40.9678C40.7178 43.6586 44.9558 42.4478 44.1486 39.7569Z" fill="#FEE8DF"/>
<path d="M59.8227 12.9833C62.648 11.8397 65.6079 11.4361 68.6351 11.9742C71.3932 12.4451 72.6041 8.20709 69.7787 7.7362C66.0116 7.06349 62.2444 7.33257 58.6118 8.74525C56.0555 9.75431 57.1991 14.0596 59.8227 12.9833Z" fill="#FEE8DF"/>
<path d="M157.97 14.1942C164.226 8.13981 173.174 8.13981 181.313 8.20708C184.139 8.20708 184.139 3.8345 181.313 3.8345C171.895 3.76723 162.007 4.17086 154.876 11.0997C152.791 13.0506 155.885 16.145 157.97 14.1942Z" fill="#FEE8DF"/>
</svg>
