<svg width="148" height="50" viewBox="0 0 148 50" fill="none" xmlns="http://www.w3.org/2000/svg">
<path d="M114.568 35.6306C116.894 29.0137 115.41 21.6349 110.798 16.3414C105.024 23.8405 99.4494 31.3396 90.4666 32.4625C89.3036 32.6229 88.1808 32.6229 87.098 32.5828C87.098 32.6229 87.098 32.6229 87.098 32.663C85.935 38.4778 83.5289 43.8514 79.8796 48.5434C92.3113 49.6261 105.264 46.0571 114.809 38.0367C115.009 37.8763 115.21 37.6757 115.41 37.5153C114.728 37.1544 114.247 36.5128 114.568 35.6306Z" fill="#0FB59C"/>
<path d="M122.869 28.0512C123.35 21.3542 121.024 14.8576 116.533 9.885C116.453 9.76469 116.372 9.68452 116.292 9.56421C114.969 11.0079 113.726 12.5718 112.523 14.1358C112.723 14.216 112.884 14.3363 113.044 14.5368C118.017 20.2714 119.741 28.1716 117.696 35.43C119.942 33.3447 122.187 31.2193 124.714 29.5751C123.831 29.6954 122.789 29.1741 122.869 28.0512Z" fill="#0FB59C"/>
<path d="M77.7142 46.4581C80.8822 42.2875 83.128 37.5153 84.1706 32.3422C84.1706 32.262 84.2107 32.1818 84.2508 32.1016C81.4838 31.4599 78.9172 30.1767 76.4309 28.5325C75.3081 34.9488 72.7816 40.924 68.9719 46.2576C71.4181 47.0596 73.9446 47.6612 76.5111 48.0622C76.5111 47.9419 76.5111 47.8617 76.5111 47.7414C76.5111 46.8992 77.0725 46.4982 77.7142 46.4581Z" fill="#0FB59C"/>
<path d="M127.882 1.06258C124.112 2.38595 120.944 4.7119 118.097 7.55914C118.338 7.63935 118.538 7.75965 118.739 7.96016C123.751 13.4942 126.278 20.7928 125.756 28.2117C125.716 28.4924 125.636 28.733 125.516 28.9335C126.639 28.2518 127.842 27.6503 129.125 27.2492C136.183 24.8431 142.599 27.4497 149.016 31.4599V14.1358C148.494 13.6546 147.893 13.2135 147.251 12.8927C146.529 12.5318 146.088 11.85 146.369 11.048C146.609 10.3663 147.532 9.80486 148.214 10.1658C148.494 10.2861 148.735 10.4465 149.016 10.6069V4.752C142.559 0.621491 135.02 -1.38364 127.882 1.06258ZM143.321 7.83984C144.524 9.24341 142.278 11.0881 141.075 9.68452C136.985 4.91238 130.047 4.9124 125.797 9.40383C124.513 10.7673 122.669 8.52159 123.952 7.15812C129.326 1.54384 138.268 1.98494 143.321 7.83984Z" fill="#0FB59C"/>
<path d="M26.7043 22.838C25.822 19.4293 25.9022 15.8201 27.0251 12.4916C28.3084 8.60175 30.9952 5.1931 33.2409 1.78442C20.8895 2.22555 8.53804 8.84235 2.92375 19.9506L1.27958 22.7979C2.92376 19.9507 0.437437 25.204 0.156723 26.2066C-0.845828 29.896 3.16437 32.8635 6.41263 30.8584C12.9894 26.8081 20.0072 23.6801 27.1855 23.64C26.985 23.4395 26.7845 23.1588 26.7043 22.838ZM17.2803 12.4916C13.8315 15.4993 10.864 18.908 8.33752 22.7177C7.29487 24.2817 4.92887 22.5974 5.97152 21.0735C8.61825 17.0633 11.8264 13.4541 15.4356 10.286C16.8392 9.04287 18.6839 11.2485 17.2803 12.4916ZM23.4159 7.47889C22.2931 8.12053 21.1702 8.80227 20.0473 9.4439C19.3656 9.84492 18.4031 9.40378 18.1224 8.72205C17.7615 7.96011 18.1625 7.1982 18.8443 6.79718C19.9671 6.15555 21.09 5.4738 22.2128 4.83217C22.8946 4.43115 23.857 4.87229 24.1377 5.55403C24.4987 6.31596 24.0976 7.11798 23.4159 7.47889Z" fill="#0FB59C"/>
<path d="M73.744 27.0889C73.7841 26.9284 73.8242 26.7681 73.9044 26.6477C66.8465 20.9533 60.5505 12.4516 52.9712 7.23835C51.327 6.11549 49.6026 5.19315 47.798 4.39111C47.7579 4.55152 47.6777 4.752 47.5173 4.91241C42.6248 11.048 40.339 18.7476 41.2213 26.5274C41.2614 27.0086 41.101 27.4097 40.8604 27.6904C46.8356 31.3397 51.9686 36.7534 57.8235 40.7636C60.4301 42.5682 63.2774 44.052 66.2048 45.215C66.2449 45.1348 66.285 45.0947 66.3251 45.0145C70.215 39.721 72.7415 33.6255 73.744 27.0889Z" fill="#0FB59C"/>
<path d="M45.0309 3.34847C41.9831 2.38602 38.775 1.86469 35.5668 1.74438C35.8876 2.18551 36.0079 2.78703 35.6069 3.38856C33.6419 6.39621 31.2358 9.40387 29.9525 12.8125C28.7896 15.9004 28.7094 19.1486 29.5515 22.3167C29.7119 22.9182 29.4713 23.3995 29.1104 23.6802C30.4739 23.7604 31.8373 24.001 33.2008 24.3218C34.9653 24.7629 36.6496 25.4447 38.2537 26.2066C37.5318 18.0258 39.8978 9.845 45.0309 3.34847Z" fill="#0FB59C"/>
<path d="M29.5917 22.3167C28.7896 19.1486 28.8297 15.9004 29.9927 12.8125C31.2759 9.40384 33.642 6.39619 35.6471 3.38854C36.0481 2.78701 35.9278 2.18548 35.607 1.74436C35.0455 1.02252 33.9227 0.741771 33.281 1.70422C33.281 1.70422 33.281 1.70426 33.281 1.74436C31.0353 5.15304 28.3886 8.56169 27.0652 12.4516C25.9424 15.8202 25.8622 19.3893 26.7444 22.7979C26.8246 23.1188 27.0251 23.3994 27.2257 23.5598C27.7871 24.001 28.6292 24.001 29.1505 23.6401C29.5115 23.3995 29.7521 22.9583 29.5917 22.3167Z" fill="#EF4A24"/>
<path d="M41.2213 26.5273C40.339 18.7475 42.6649 11.0078 47.5173 4.91232C47.6376 4.75191 47.7579 4.55143 47.798 4.39102C48.1589 3.10776 46.1538 1.94479 45.1513 3.22805C45.1112 3.26816 45.0711 3.30828 45.0711 3.34838C39.938 9.84491 37.572 18.0257 38.2938 26.2466C38.3339 26.5273 38.3339 26.768 38.374 27.0487C38.5344 28.4121 40.1385 28.4923 40.8604 27.6903C41.101 27.4096 41.2614 27.0086 41.2213 26.5273Z" fill="#EF4A24"/>
<path d="M76.6314 27.3294C76.8721 25.6451 74.506 25.3243 73.8644 26.6476C73.7842 26.768 73.7441 26.9284 73.704 27.0888C72.7415 33.6254 70.175 39.7209 66.245 45.0545C66.2049 45.1347 66.1648 45.1748 66.1247 45.255C65.3227 46.6987 67.5684 48.1824 68.611 46.7388C68.7313 46.5784 68.8115 46.418 68.9318 46.2976C72.7415 41.0042 75.2279 34.9888 76.3908 28.5725C76.5111 28.1314 76.5913 27.7304 76.6314 27.3294Z" fill="#EF4A24"/>
<path d="M87.0579 32.5426C87.3386 30.8584 84.7721 30.6177 84.2106 32.1416C84.1705 32.2218 84.1705 32.302 84.1304 32.3822C83.0878 37.5554 80.8822 42.3276 77.674 46.4982C77.0324 46.5383 76.4709 46.9393 76.4709 47.7814C76.4709 47.9017 76.4709 47.9819 76.4709 48.1022C76.4709 48.2226 76.4709 48.3027 76.4709 48.423C76.511 49.8667 78.1552 50.5084 79.1177 49.3855C79.3583 49.1048 79.5989 48.8241 79.7994 48.5434C83.4487 43.8514 85.8548 38.4778 87.0178 32.663C87.0579 32.5828 87.0579 32.5426 87.0579 32.5426Z" fill="#EF4A24"/>
<path d="M113.044 14.4967C112.884 14.2962 112.683 14.1759 112.523 14.0957C111.279 13.5744 109.756 15.0982 110.798 16.3414C115.41 21.6349 116.854 29.0137 114.568 35.6305C114.287 36.4727 114.768 37.1544 115.41 37.395C116.092 37.6757 116.974 37.4752 117.295 36.5929C117.455 36.1919 117.575 35.7508 117.696 35.3498C119.741 28.1314 118.017 20.2313 113.044 14.4967Z" fill="#EF4A24"/>
<path d="M118.738 8.00021C118.538 7.7997 118.337 7.63929 118.097 7.59919C116.974 7.23827 115.691 8.44134 116.252 9.5642C116.292 9.68451 116.372 9.76468 116.493 9.88499C121.024 14.8576 123.31 21.3542 122.829 28.0512C122.749 29.1741 123.791 29.6954 124.674 29.535C124.994 29.4548 125.315 29.2944 125.516 29.0137C125.636 28.8132 125.756 28.5725 125.756 28.2918C126.278 20.8329 123.751 13.5343 118.738 8.00021Z" fill="#EF4A24"/>
<path d="M123.912 7.19826C122.628 8.52163 124.473 10.7673 125.756 9.44397C130.047 4.95254 136.945 4.91242 141.035 9.72466C142.238 11.1282 144.484 9.28355 143.281 7.87998C138.268 1.98498 129.325 1.54388 123.912 7.19826Z" fill="#FEE8DF"/>
<path d="M146.369 11.0881C146.088 11.8901 146.529 12.5719 147.251 12.9328C147.893 13.2536 148.494 13.6948 149.016 14.176V10.647C148.775 10.4866 148.494 10.3663 148.213 10.2059C147.492 9.84496 146.609 10.4064 146.369 11.0881Z" fill="#FEE8DF"/>
<path d="M15.4357 10.246C11.7864 13.4141 8.61832 17.0232 5.97158 21.0334C4.92893 22.5974 7.33504 24.2416 8.33759 22.6776C10.864 18.8679 13.8316 15.4593 17.2804 12.4516C18.6839 11.2485 16.8392 9.04293 15.4357 10.246Z" fill="#FEE8DF"/>
<path d="M22.2129 4.87232C21.0901 5.51395 19.9672 6.1957 18.8444 6.83733C18.1626 7.23835 17.7616 8.00031 18.1225 8.76225C18.4433 9.40388 19.3657 9.88508 20.0474 9.48406C21.1703 8.84242 22.2931 8.16068 23.416 7.51905C24.0977 7.11803 24.4987 6.35612 24.1378 5.59418C23.8571 4.91244 22.8947 4.4713 22.2129 4.87232Z" fill="#FEE8DF"/>
</svg>
