<svg width="329" height="287" viewBox="0 0 329 287" fill="none" xmlns="http://www.w3.org/2000/svg">
<path d="M317.803 149.95C321.103 129.55 322.503 108.85 321.903 88.1504C321.203 62.3504 319.603 37.5504 301.103 21.1504C285.203 6.95038 257.403 1.75043 239.803 13.4504C222.203 25.1504 212.803 49.5504 217.403 71.2504C199.403 71.2504 172.703 71.4504 154.703 71.4504C158.403 56.5504 155.803 34.6503 145.703 23.8503C135.603 13.0503 115.903 -3.64962 81.3033 18.6504C63.8033 29.9504 59.4034 51.8504 60.0034 73.9504C60.6034 96.0504 61.3033 133.75 59.3033 142.15C25.9033 138.45 11.2033 163.25 7.70333 185.95C4.20333 208.65 14.1033 232.15 29.9033 247.65C45.6033 263.15 66.5033 271.45 87.4033 275.45C108.603 279.55 130.403 279.55 151.903 279.55C172.603 279.55 193.303 279.55 214.003 279.55C231.803 279.55 249.903 279.55 267.003 274.45C284.203 269.35 300.603 258.45 309.003 241.45C315.603 228.15 316.703 212.45 317.303 197.35C318.103 181.45 318.203 165.75 317.803 149.95Z" fill="#EF4A24" stroke="white" stroke-width="13.4027" stroke-miterlimit="10" stroke-linecap="round" stroke-linejoin="round"/>
<path d="M114.003 168.05C128.418 168.05 140.103 150.948 140.103 129.85C140.103 108.753 128.418 91.6504 114.003 91.6504C99.5888 91.6504 87.9033 108.753 87.9033 129.85C87.9033 150.948 99.5888 168.05 114.003 168.05Z" fill="#FEE7DD"/>
<path d="M108.803 162.75C120.346 162.75 129.703 149.05 129.703 132.15C129.703 115.25 120.346 101.55 108.803 101.55C97.2606 101.55 87.9033 115.25 87.9033 132.15C87.9033 149.05 97.2606 162.75 108.803 162.75Z" fill="#2B2B2B"/>
<path d="M101.104 114.15C100.604 115.15 97.9034 123.75 97.9034 123.75L91.1035 126.85L96.6035 129.65L100.004 140.85L103.203 129.95L108.803 127.55L102.703 124.15L101.104 114.15Z" fill="#FEE7DD"/>
<path d="M95.0034 89.1504C95.3034 88.5504 95.4034 88.3503 95.8034 87.8503C96.2034 87.3503 96.6034 86.9504 97.1034 86.5504C96.9034 86.6504 97.2034 86.4504 97.3034 86.4504C97.4034 86.3504 97.6034 86.2504 97.8034 86.1504C98.1034 85.9504 98.4034 85.7504 98.6034 85.5504C99.2034 85.1504 99.7034 84.9503 100.203 84.7503C100.803 84.4503 101.503 84.2504 102.203 83.9504C102.903 83.7504 103.303 83.6504 104.203 83.4504C105.903 83.1504 106.903 83.0504 108.703 83.0504C109.603 83.0504 110.403 82.5504 110.403 81.9504C110.403 81.3504 109.603 80.8503 108.703 80.8503C101.203 80.6503 94.1034 84.0504 91.8034 88.6504C91.5034 89.2504 92.1034 89.8504 93.0034 90.0504C93.9034 90.1504 94.7034 89.7504 95.0034 89.1504Z" fill="#2B2B2B"/>
<path d="M123.803 147.75C128.332 147.75 132.004 145.378 132.004 142.45C132.004 139.523 128.332 137.15 123.803 137.15C119.275 137.15 115.604 139.523 115.604 142.45C115.604 145.378 119.275 147.75 123.803 147.75Z" fill="#FEE7DD"/>
<path d="M127.203 140.15C130.572 140.15 133.303 138.36 133.303 136.15C133.303 133.941 130.572 132.15 127.203 132.15C123.835 132.15 121.104 133.941 121.104 136.15C121.104 138.36 123.835 140.15 127.203 140.15Z" fill="#FEE7DD"/>
<path d="M236.103 173.45C250.518 173.45 262.203 156.348 262.203 135.25C262.203 114.153 250.518 97.0504 236.103 97.0504C221.689 97.0504 210.003 114.153 210.003 135.25C210.003 156.348 221.689 173.45 236.103 173.45Z" fill="#FEE7DD"/>
<path d="M230.903 168.15C242.446 168.15 251.803 154.45 251.803 137.55C251.803 120.651 242.446 106.95 230.903 106.95C219.361 106.95 210.003 120.651 210.003 137.55C210.003 154.45 219.361 168.15 230.903 168.15Z" fill="#2B2B2B"/>
<path d="M223.203 119.55C222.703 120.55 220.003 129.15 220.003 129.15L213.203 132.25L218.703 135.05L222.103 146.25L225.303 135.35L230.903 132.95L224.803 129.55L223.203 119.55Z" fill="#FEE7DD"/>
<path d="M243.603 94.5504C243.903 93.9504 244.003 93.7503 244.403 93.2503C244.803 92.7503 245.203 92.3504 245.703 91.9504C245.503 92.0504 245.803 91.8503 245.903 91.8503C246.003 91.7503 246.203 91.6504 246.403 91.5504C246.703 91.3504 247.003 91.1504 247.203 90.9504C247.803 90.5504 248.303 90.3504 248.803 90.1504C249.403 89.8504 250.103 89.6503 250.803 89.3503C251.503 89.1503 251.903 89.0503 252.803 88.8503C254.503 88.5503 255.503 88.4504 257.303 88.4504C258.203 88.4504 259.003 87.9503 259.003 87.3503C259.003 86.7503 258.203 86.2503 257.303 86.2503C249.803 86.0503 242.703 89.4504 240.403 94.0504C240.103 94.6504 240.703 95.2504 241.603 95.4504C242.403 95.5504 243.303 95.1504 243.603 94.5504Z" fill="#2B2B2B"/>
<path d="M245.903 153.25C250.432 153.25 254.103 150.878 254.103 147.95C254.103 145.023 250.432 142.65 245.903 142.65C241.375 142.65 237.703 145.023 237.703 147.95C237.703 150.878 241.375 153.25 245.903 153.25Z" fill="#FEE7DD"/>
<path d="M249.303 145.55C252.672 145.55 255.403 143.76 255.403 141.55C255.403 139.341 252.672 137.55 249.303 137.55C245.934 137.55 243.203 139.341 243.203 141.55C243.203 143.76 245.934 145.55 249.303 145.55Z" fill="#FEE7DD"/>
<path d="M35.7034 178.75C27.9034 188.75 28.8034 210.85 42.0034 224.85C55.2034 238.85 77.6033 244.45 96.3033 247.85C139.303 255.55 187.903 257.75 233.403 251.15C247.103 249.15 260.903 246.45 272.803 239.25C284.703 232.15 294.303 219.75 294.903 205.75C295.103 200.15 293.903 194.35 290.603 189.85C283.903 180.65 271.003 179.15 259.703 179.35C232.403 179.85 205.603 185.85 178.403 188.65C151.303 191.45 124.703 185.15 98.2034 178.75C81.5034 174.85 47.0034 162.75 35.7034 178.75Z" fill="#FEE7DD"/>
<path d="M34.3032 177.45C29.7032 183.45 28.4032 191.35 28.9032 198.85C29.5032 207.95 32.8032 216.75 38.4032 223.85C44.3032 231.25 52.5033 236.35 61.0033 240.15C70.0033 244.05 79.4032 246.65 88.9032 248.65C110.703 253.15 132.903 255.65 155.103 256.75C178.503 257.85 202.003 257.25 225.203 254.45C246.103 251.95 269.503 248.55 284.803 232.35C291.403 225.35 296.203 216.25 296.703 206.45C297.003 201.15 296.003 195.65 293.303 191.05C291.003 187.05 287.403 183.85 283.403 181.85C274.803 177.55 264.903 177.45 255.603 177.85C243.503 178.35 231.403 179.75 219.503 181.45C207.503 183.15 195.503 185.05 183.403 186.45C171.403 187.85 159.503 188.05 147.503 186.75C126.803 184.55 106.503 179.25 86.4032 174.05C78.6032 172.05 70.6033 170.15 62.6033 169.35C55.5033 168.65 47.8032 168.75 41.2032 171.95C38.3032 173.35 35.9033 175.45 34.0033 178.05C33.4033 178.95 33.9032 180.25 34.7032 180.75C35.7032 181.35 36.7032 180.85 37.3032 180.05C41.0032 174.95 47.5032 173.35 53.4032 173.05C60.9032 172.65 68.5032 173.95 75.9032 175.55C82.8032 177.05 89.5032 179.05 96.3032 180.75C107.203 183.45 118.203 186.05 129.203 188.05C140.703 190.15 152.303 191.65 163.903 191.75C175.603 191.85 187.203 190.15 198.703 188.55C210.303 186.85 221.903 185.05 233.503 183.65C244.403 182.35 255.503 181.25 266.503 181.85C274.603 182.35 283.903 184.35 289.003 191.45C294.703 199.35 293.703 210.45 289.703 218.85C280.503 238.05 259.503 245.15 240.403 248.45C218.203 252.35 195.603 253.65 173.103 253.45C150.903 253.25 128.703 251.45 106.703 247.95C97.1032 246.45 87.6032 244.75 78.2032 242.15C69.3032 239.65 60.4033 236.45 52.5033 231.35C45.1033 226.65 39.0033 220.15 35.6033 211.85C32.7033 204.65 31.5032 196.35 33.3032 188.75C34.0032 185.75 35.1032 182.75 36.9032 180.35C37.5032 179.55 37.7032 178.45 36.9032 177.55C36.4032 176.75 35.0032 176.55 34.3032 177.45Z" fill="black"/>
<path d="M57.3032 171.75C53.9032 187.15 52.3033 202.95 52.7033 218.75C52.8033 223.25 53.1033 227.65 53.5033 232.05C53.6033 233.15 54.3032 234.05 55.4032 234.05C56.4032 234.05 57.4032 233.15 57.3032 232.05C55.9032 216.65 56.2033 200.95 58.6033 185.65C59.3033 181.35 60.1033 177.05 61.0033 172.75C61.5033 170.35 57.8032 169.35 57.3032 171.75Z" fill="black"/>
<path d="M84.8035 176.45C82.6035 194.05 81.8035 211.85 82.6035 229.65C82.8035 234.65 83.1035 239.65 83.6035 244.55C83.7035 245.65 84.4035 246.55 85.5035 246.55C86.5035 246.55 87.5034 245.65 87.4034 244.55C85.8034 226.85 85.7035 209.05 87.1035 191.35C87.5035 186.35 88.0035 181.45 88.6035 176.45C88.7035 175.45 87.6035 174.45 86.7035 174.45C85.6035 174.45 85.0035 175.35 84.8035 176.45Z" fill="black"/>
<path d="M115.303 183.65C114.703 200.95 115.003 218.25 116.103 235.55C116.403 240.45 116.803 245.35 117.303 250.25C117.403 251.35 118.103 252.25 119.203 252.25C120.203 252.25 121.203 251.35 121.103 250.25C119.503 233.05 118.703 215.75 118.803 198.45C118.803 193.55 118.903 188.65 119.103 183.75C119.203 181.05 115.403 181.05 115.303 183.65Z" fill="black"/>
<path d="M147.303 189.65C147.503 206.25 147.803 222.75 148.303 239.35C148.403 244.05 148.603 248.65 148.703 253.35C148.803 255.85 152.603 255.85 152.503 253.35C151.903 236.75 151.503 220.25 151.303 203.65C151.203 198.95 151.203 194.35 151.103 189.65C151.103 187.15 147.303 187.05 147.303 189.65Z" fill="black"/>
<path d="M179.803 189.25C181.103 206.05 182.003 222.85 182.703 239.75C182.903 244.55 183.003 249.35 183.203 254.15C183.303 256.65 187.103 256.65 187.003 254.15C186.603 237.25 185.803 220.45 184.703 203.65C184.403 198.85 184.003 194.05 183.703 189.25C183.603 188.15 182.903 187.25 181.803 187.25C180.703 187.25 179.703 188.15 179.803 189.25Z" fill="black"/>
<path d="M220.304 184.85C222.604 202.15 224.604 219.45 226.304 236.85C226.804 241.75 227.204 246.75 227.704 251.65C227.804 252.75 228.504 253.65 229.604 253.65C230.604 253.65 231.604 252.75 231.504 251.65C229.904 234.05 228.103 216.45 225.903 198.95C225.303 193.95 224.604 188.85 224.004 183.85C223.904 182.85 222.604 182.25 221.704 182.45C220.504 182.75 220.204 183.85 220.304 184.85Z" fill="black"/>
<path d="M258.203 180.35C257.603 196.85 257.903 213.35 259.103 229.75C259.403 234.35 259.803 238.95 260.303 243.65C260.403 244.75 261.103 245.65 262.203 245.65C263.103 245.65 264.203 244.75 264.103 243.65C262.503 227.25 261.703 210.75 261.803 194.25C261.803 189.65 261.903 184.95 262.103 180.35C262.103 177.85 258.303 177.85 258.203 180.35Z" fill="black"/>
<path d="M170.703 175.25C182.854 175.25 192.703 169.654 192.703 162.75C192.703 155.847 182.854 150.25 170.703 150.25C158.553 150.25 148.703 155.847 148.703 162.75C148.703 169.654 158.553 175.25 170.703 175.25Z" fill="#FEE7DD"/>
</svg>
