<svg width="352" height="214" viewBox="0 0 352 214" fill="none" xmlns="http://www.w3.org/2000/svg">
<path d="M11.5366 103.7C27.5366 104.3 49.7366 93.6 59.0366 80.5C68.3366 67.4 74.2366 52.2 83.6366 39.2C93.0366 26.2 107.337 16.5 123.437 16C152.237 15.1 161.037 27.6 172.137 42.5C178.437 30.7 185.737 23.9 197.137 17C229.637 -2.8 260.337 30.1 270.337 45.6C278.037 57.5 285.537 89.9 341.037 104.2C322.037 131.9 298.237 156.3 271.037 176C254.437 188 235.837 203.7 215.337 203.4C202.037 203.2 188.237 193.4 175.237 196.1C169.237 197.3 163.737 200.1 157.837 201.7C140.037 206.5 121.237 200.1 104.137 193.1C64.5366 176.7 22.9366 144.9 11.5366 103.7Z" fill="#F04D25"/>
<path d="M12.0368 105C28.3368 109.1 45.2368 110.9 62.1368 110.1C79.1368 109.3 95.4368 105.8 111.537 100.6C119.337 98 127.437 95.7 135.737 96.9C143.537 98 150.237 101.7 155.937 107.1C160.937 111.7 166.537 116.8 173.937 115.7C178.637 115 181.337 111 184.437 107.8C188.037 104.1 191.937 100.2 196.337 97.5C197.937 96.5 199.537 95.7 201.337 95.7C202.737 95.7 204.137 95.7 205.437 95.8C209.337 96.1 214.037 97.3 217.437 98.8C221.437 100.6 225.337 102.6 229.437 104.2C235.237 106.6 241.437 108.1 247.637 109C258.237 110.7 268.937 111 279.637 110.9C295.137 110.7 310.537 109.5 325.937 108C329.637 107.6 333.337 107.3 336.937 106.8C338.937 106.6 338.937 103.4 336.937 103.6C321.537 105.4 306.037 106.7 290.537 107.4C278.437 107.9 266.237 108 254.137 106.7C247.137 105.9 240.237 104.6 233.537 102.3C229.237 100.8 225.437 98.9 221.337 97C217.537 95.2 213.637 93.7 209.537 93C206.937 92.6 204.237 92.4 201.637 92.4C197.137 92.4 193.337 95.5 190.037 98.2C186.137 101.4 182.637 105 179.237 108.6C177.837 110.1 176.537 111.7 174.437 112.3C171.237 113.2 167.737 112.1 164.937 110.4C161.637 108.4 159.037 105.5 156.137 103C153.337 100.5 150.137 98.5 146.737 96.9C139.737 93.7 132.137 92.8 124.537 93.9C116.237 95.2 108.437 98.5 100.437 100.8C92.3368 103.1 84.0368 104.8 75.6368 105.9C58.9368 108 41.8368 107.6 25.2368 104.7C21.1368 104 17.0368 103.1 12.9368 102.1C10.8368 101.5 10.0368 104.5 12.0368 105Z" fill="#070707"/>
<path d="M82.8368 57.3C87.6368 42.7 97.5368 26.9 114.437 25.5C118.637 25.2 122.937 25.8 126.737 27.8C128.537 28.7 130.137 26 128.337 25.1C120.737 21.1 111.737 21.6 104.037 25C96.0368 28.5 89.9368 35.3 85.6368 42.8C83.2368 47.1 81.3368 51.8 79.7368 56.5C79.1368 58.4 82.2368 59.2 82.8368 57.3Z" fill="#FEE7DD"/>
<path d="M134.937 29.4C135.337 29.5 135.737 29.7 136.137 29.8C136.337 29.9 136.537 29.9 136.737 30C136.737 30 137.137 30.1 136.837 30C136.937 30 137.037 30.1 137.137 30.1C137.937 30.4 138.637 30.8 139.437 31.3C139.737 31.5 140.137 31.7 140.437 31.9C140.637 32 140.837 32.2 141.037 32.3C141.137 32.4 141.237 32.4 141.237 32.5C141.237 32.5 141.537 32.7 141.337 32.6C141.237 32.5 141.537 32.8 141.537 32.8C141.637 32.9 141.737 32.9 141.737 33C141.937 33.1 142.037 33.3 142.237 33.4C142.537 33.7 142.937 34 143.237 34.3C143.837 34.9 144.937 34.9 145.437 34.3C146.037 33.7 146.037 32.7 145.437 32.1C142.737 29.4 139.337 27.4 135.737 26.3C134.937 26.1 133.937 26.6 133.737 27.4C133.637 28.3 134.037 29.2 134.937 29.4Z" fill="#FEE7DD"/>
<path d="M188.537 40.5C191.337 35.2 195.137 30.5 199.937 26.8C204.537 23.3 210.937 19.6 216.837 21.7C218.737 22.4 219.637 19.3 217.637 18.6C210.937 16.2 203.837 19.9 198.537 23.8C193.237 27.8 188.737 32.9 185.737 38.8C184.837 40.7 187.637 42.3 188.537 40.5Z" fill="#FEE7DD"/>
<path d="M224.037 22.9C228.537 23.6 232.737 25.2 236.537 27.6C238.237 28.7 239.837 25.9 238.137 24.9C234.137 22.4 229.537 20.7 224.837 19.9C224.037 19.8 223.137 20.1 222.837 21C222.737 21.7 223.137 22.7 224.037 22.9Z" fill="#FEE7DD"/>
<path d="M116.837 191.4C124.137 196.1 133.037 198.3 141.737 197.6C146.237 197.3 150.537 196.1 154.637 194.4C158.937 192.6 163.037 190.2 167.737 189.4C176.437 187.8 185.237 191.1 193.437 193.5C197.737 194.7 202.037 195.8 206.537 196.3C211.037 196.7 215.537 196.3 219.937 195.2C230.137 192.6 239.037 186.8 247.637 181C249.337 179.9 247.737 177.1 246.037 178.3C238.537 183.3 230.737 188.4 222.137 191.3C217.937 192.7 213.637 193.5 209.237 193.4C204.937 193.3 200.737 192.4 196.537 191.2C188.237 188.9 179.937 185.6 171.137 186C166.637 186.2 162.537 187.6 158.537 189.4C154.437 191.3 150.437 193.2 145.937 194.1C136.537 196 126.537 194.1 118.437 188.9C116.637 187.5 115.037 190.3 116.837 191.4Z" fill="#FEE7DD"/>
<path d="M256.537 176.6C261.037 173.4 265.537 170.4 270.137 167.5C271.837 166.4 270.237 163.7 268.537 164.8C263.937 167.7 259.337 170.7 254.937 173.9C254.237 174.4 253.937 175.3 254.337 176.1C254.837 176.7 255.837 177.1 256.537 176.6Z" fill="#FEE7DD"/>
<path d="M218.137 10.8C242.137 10.8 262.537 33.4 270.337 45.5C278.037 57.4 285.537 89.8 341.037 104.1C322.037 131.8 298.237 156.2 271.037 175.9C254.537 187.8 236.137 203.3 215.837 203.3C215.637 203.3 215.537 203.3 215.337 203.3C203.637 203.1 191.537 195.5 179.937 195.5C178.337 195.5 176.737 195.6 175.137 196C169.137 197.2 163.637 200 157.737 201.6C153.437 202.8 149.037 203.3 144.637 203.3C130.937 203.3 116.937 198.3 104.037 193C64.9369 176.9 23.8369 145.5 11.9369 105C10.2369 104.5 10.8369 101.9 12.4369 101.9C12.5369 101.9 12.7369 101.9 12.8369 102C14.6369 102.5 16.5369 102.9 18.3369 103.3C33.3369 101.3 50.9369 91.8 59.0369 80.5C68.3369 67.4 74.2369 52.2 83.6369 39.2C93.0369 26.2 107.337 16.5 123.437 16C124.437 16 125.437 16 126.337 16C152.837 16 161.337 28.2 172.037 42.6C178.337 30.8 185.637 24 197.037 17.1C204.237 12.6 211.337 10.8 218.137 10.8ZM218.137 0C208.937 0 199.937 2.6 191.537 7.7C183.037 12.9 176.637 18 171.437 24.1C162.137 13.6 149.837 5 126.337 5C125.237 5 124.137 5.00001 123.037 5.10001C104.737 5.70001 87.1369 15.8 74.8369 32.8C69.6369 40 65.5369 47.5 61.6369 54.9C57.9369 61.8 54.4369 68.2 50.2369 74.1C44.5369 82.2 30.7369 90 18.7369 92.2C17.6369 91.9 16.5369 91.7 15.4369 91.4C14.4369 91.1 13.4369 91 12.3369 91C6.23692 91 1.03692 95.5 0.136922 101.6C-0.363078 104.9 0.536919 108.2 2.33692 110.7C8.83692 130.5 21.6369 149.1 40.5369 166C57.2369 180.9 77.7369 193.7 99.8369 202.8C113.837 208.6 128.937 213.9 144.537 213.9C150.037 213.9 155.437 213.2 160.437 211.8C163.437 211 166.237 210 168.937 209C171.837 207.9 174.637 206.9 177.237 206.4C178.037 206.2 178.837 206.2 179.837 206.2C183.937 206.2 189.037 207.8 194.337 209.5C200.537 211.5 207.637 213.8 215.037 213.9C215.237 213.9 215.437 213.9 215.737 213.9C237.237 213.9 255.437 200.5 271.537 188.6C273.537 187.1 275.337 185.8 277.237 184.4C305.637 163.9 330.037 138.8 349.837 110C351.837 107.1 352.237 103.4 351.037 100.1C349.837 96.8 347.037 94.3 343.637 93.4C301.537 82.6 290.737 61.4 283.637 47.3C282.137 44.4 280.837 41.7 279.337 39.4C276.837 35.6 252.837 0 218.137 0Z" fill="#FEE7DD"/>
</svg>
