<svg width="235" height="370" viewBox="0 0 235 370" fill="none" xmlns="http://www.w3.org/2000/svg">
<path d="M143.002 319.437C150.007 319.902 155.979 314.324 156.036 307.235C156.093 298.287 146.102 288.177 146.504 277.021C147.136 260.229 155.519 255.348 158.792 238.614C164.936 207.179 164.304 188.237 161.204 156.337C160.802 152.154 159.653 130.888 159.768 124.612C159.883 117.872 156.093 114.095 154.026 114.851C150.294 116.303 150.351 121.358 150.179 125.135C149.777 135.129 147.767 160.637 145.069 159.533C141.968 158.255 142.37 151.224 142.083 149.597C139.384 135.013 147.366 106.716 136.858 103.811C133.412 102.823 130.484 108.692 130.254 112.294C129.393 126.065 129.91 142.392 129.221 156.512C129.106 158.662 126.407 159.533 125.144 157.848C123.307 155.524 123.134 151.05 123.249 147.622C123.651 135.42 122.56 122.172 122.043 108.866C121.584 97.1287 118.713 92.3642 114.521 92.0155C109.124 91.5507 106.655 101.603 107.688 111.829C109.239 126.995 112.11 143.903 109.124 158.894C108.492 162.032 104.071 162.206 103.382 159.068C102.922 157.151 102.75 155.059 102.75 153.432C102.52 139.952 99.6494 120.138 95.4578 107.355C93.6777 101.835 84.7776 103.114 84.835 113.747C84.9499 129.203 92.9887 170.283 92.0126 202.124C91.8977 206.424 87.0744 208.922 83.6292 206.424C75.1311 200.323 68.5852 188.934 58.8812 185.913C55.6657 184.925 51.3592 185.39 51.0146 189.98C50.9572 190.794 51.0721 191.665 51.3017 192.479C56.2973 210.723 72.8343 220.543 84.7202 235.185C89.6584 241.228 89.9455 254.825 89.9455 258.369C89.9455 260.519 84.7202 272.314 85.9835 284.516C88.3377 307.468 96.2617 317.171 101.429 318.798C112.454 322.459 128.36 318.45 143.002 319.437Z" fill="#EF4A24"/>
<path d="M93.9649 166.099C96.3765 164.414 99.5921 164.123 102.233 165.46C102.635 165.692 103.152 165.576 103.382 165.169C103.611 164.821 103.497 164.182 103.095 164.007C99.9366 162.438 96.032 162.613 93.161 164.646C92.7591 164.937 92.5868 165.402 92.8165 165.808C93.0462 166.157 93.6204 166.39 93.9649 166.099Z" fill="black"/>
<path d="M113.66 163.775C115.785 162.671 118.426 162.671 120.493 163.891C121.412 164.414 122.33 162.961 121.354 162.438C118.77 160.928 115.497 160.87 112.856 162.322C111.823 162.845 112.684 164.298 113.66 163.775Z" fill="black"/>
<path d="M131.633 163.019C133.929 162.206 136.398 162.322 138.638 163.252C139.04 163.426 139.557 163.078 139.671 162.671C139.786 162.206 139.499 161.799 139.097 161.625C136.628 160.579 133.757 160.463 131.231 161.334C130.771 161.509 130.484 161.915 130.599 162.38C130.714 162.845 131.231 163.194 131.633 163.019Z" fill="black"/>
<path d="M149.949 163.542C151.787 162.671 153.969 162.961 155.634 164.123C156.036 164.414 156.553 164.182 156.782 163.833C157.012 163.426 156.897 162.903 156.495 162.671C154.371 161.16 151.5 160.928 149.088 162.032C148.686 162.206 148.571 162.845 148.744 163.194C149.031 163.659 149.49 163.717 149.949 163.542Z" fill="black"/>
<path d="M99.0178 191.375C105.104 184.518 114.062 180.335 123.192 180.16C132.321 179.986 141.451 183.763 147.767 190.387C138.638 199.916 127.728 200.962 114.119 199.219C108.951 198.521 101.487 195.965 99.0178 191.375Z" fill="#FEE8DF"/>
<path d="M120.608 180.741C118.254 180.567 115.957 181.904 114.579 183.879C113.258 185.855 112.741 188.295 112.856 190.677C112.914 191.723 113.028 192.769 113.373 193.757C114.521 197.243 118.196 199.625 121.814 199.625C125.489 199.567 128.934 197.243 130.656 193.989C131.231 192.885 131.632 191.665 131.747 190.445C132.034 187.54 130.656 184.576 128.36 182.775C126.063 180.974 123.019 180.277 120.206 180.741" fill="#050606"/>
<path d="M95.9747 184.751C97.2953 185.971 98.6734 187.133 99.9941 188.295C100.281 188.527 100.683 188.586 100.97 188.295C101.2 188.063 101.257 187.598 100.97 187.307C99.5921 186.145 98.2714 184.983 96.9508 183.763C96.6637 183.53 96.2618 183.472 95.9747 183.763C95.745 184.053 95.6876 184.518 95.9747 184.751Z" fill="#050606"/>
<path d="M100.511 180.335C100.74 180.741 101.028 181.09 101.315 181.439C101.602 181.787 101.946 182.194 102.233 182.543C102.865 183.298 103.439 183.995 104.071 184.751C104.3 185.041 104.817 185.041 105.047 184.751C105.334 184.46 105.334 184.053 105.047 183.763C104.473 183.066 103.841 182.31 103.267 181.613C102.98 181.264 102.693 180.916 102.406 180.567C102.291 180.393 102.119 180.218 102.004 180.044C101.946 179.986 101.946 179.928 101.889 179.928C101.946 179.986 101.831 179.812 101.889 179.928C101.831 179.87 101.774 179.754 101.717 179.637C101.544 179.289 101.085 179.173 100.798 179.405C100.453 179.637 100.339 180.044 100.511 180.335Z" fill="#050606"/>
<path d="M106.77 176.325C107.573 178.069 108.435 179.812 109.296 181.497C109.468 181.845 109.928 181.962 110.215 181.729C110.559 181.555 110.674 181.09 110.444 180.8C109.526 179.115 108.664 177.371 107.918 175.628C107.746 175.28 107.286 175.221 106.999 175.396C106.712 175.57 106.655 175.977 106.77 176.325Z" fill="#050606"/>
<path d="M114.521 173.885C115.095 175.628 115.612 177.313 116.186 179.056C116.301 179.405 116.646 179.637 116.99 179.579C117.335 179.463 117.565 179.114 117.507 178.708C116.933 176.965 116.416 175.28 115.842 173.536C115.727 173.188 115.383 172.955 114.981 173.013C114.694 173.188 114.406 173.536 114.521 173.885Z" fill="#050606"/>
<path d="M122.273 172.374C122.216 174.234 122.273 176.035 122.388 177.894C122.388 178.243 122.675 178.592 123.077 178.592C123.421 178.592 123.766 178.301 123.766 177.894C123.651 176.035 123.594 174.234 123.651 172.374C123.708 171.503 122.33 171.445 122.273 172.374Z" fill="#050606"/>
<path d="M130.427 173.13C130.197 174.699 129.967 176.325 129.738 177.894C129.68 178.243 129.795 178.65 130.197 178.766C130.542 178.882 131.001 178.65 131.058 178.301C131.345 176.616 131.575 174.873 131.805 173.188C131.862 172.839 131.46 172.491 131.116 172.491C130.714 172.491 130.427 172.781 130.427 173.13Z" fill="#050606"/>
<path d="M138.523 173.943C137.719 175.512 137.087 177.197 136.513 178.882C136.398 179.231 136.628 179.637 136.973 179.754C137.317 179.87 137.719 179.637 137.834 179.289C138.351 177.72 138.982 176.151 139.729 174.699C139.901 174.35 139.844 173.943 139.499 173.769C139.155 173.536 138.695 173.595 138.523 173.943Z" fill="#050606"/>
<path d="M146.275 179.289C145.356 180.683 144.437 182.02 143.461 183.414C143.231 183.705 143.404 184.17 143.691 184.344C144.035 184.518 144.437 184.402 144.61 184.111C145.528 182.717 146.447 181.381 147.423 179.986C147.653 179.696 147.481 179.231 147.193 179.056C146.906 178.882 146.504 178.998 146.275 179.289Z" fill="#050606"/>
<path d="M150.926 183.937C150.294 184.402 149.72 184.867 149.088 185.332C148.801 185.564 148.514 185.797 148.227 186.029C148.055 186.145 147.94 186.261 147.825 186.436C147.653 186.668 147.653 186.959 147.653 187.249C147.71 187.598 148.17 187.83 148.514 187.772C148.916 187.656 149.088 187.307 149.031 186.901C149.031 186.959 149.031 187.017 149.031 187.075C149.031 187.133 148.974 187.191 149.031 187.133C148.916 187.307 149.031 187.133 149.088 187.075C149.203 186.959 149.318 186.901 149.49 186.784C149.777 186.552 150.007 186.378 150.294 186.145C150.811 185.738 151.385 185.332 151.902 184.867C152.017 184.751 152.132 184.518 152.132 184.402C152.132 184.228 152.074 184.053 151.959 183.937C151.615 183.647 151.27 183.647 150.926 183.937Z" fill="#050606"/>
<path d="M99.2475 199.335C100.166 198.754 101.085 198.231 102.061 197.824C102.233 197.766 102.348 197.534 102.406 197.417C102.463 197.243 102.463 197.011 102.348 196.895C102.233 196.72 102.119 196.604 101.946 196.546C101.774 196.488 101.602 196.546 101.43 196.604C100.453 197.011 99.4772 197.534 98.6159 198.115C98.3288 198.289 98.1565 198.754 98.3862 199.044C98.5011 199.393 98.9604 199.567 99.2475 199.335Z" fill="#050606"/>
<path d="M105.219 199.393C104.358 200.671 103.726 202.124 103.267 203.635C103.152 203.983 103.382 204.39 103.726 204.506C104.071 204.622 104.473 204.39 104.588 204.041C104.702 203.693 104.817 203.344 104.932 202.996C105.104 202.647 105.162 202.414 105.334 202.066C105.621 201.427 106.023 200.788 106.425 200.148C106.597 199.858 106.483 199.393 106.195 199.219C105.793 198.986 105.449 199.103 105.219 199.393Z" fill="#050606"/>
<path d="M111.593 201.601C111.536 203.17 111.248 204.681 110.847 206.133C110.732 206.482 110.961 206.889 111.306 207.005C111.65 207.121 112.052 206.889 112.167 206.54C112.627 204.913 112.914 203.286 112.971 201.601C112.971 201.252 112.684 200.904 112.282 200.904C111.938 200.904 111.65 201.194 111.593 201.601Z" fill="#050606"/>
<path d="M120.608 202.473C120.723 203.577 120.838 204.739 120.953 205.843C121.01 206.133 121.01 206.366 121.067 206.656C121.125 206.947 121.067 207.237 121.182 207.528C121.297 207.993 121.814 208.283 122.273 208.051C122.675 207.818 122.733 207.412 122.56 207.005C122.445 206.714 122.044 206.598 121.814 206.656C121.469 206.714 121.24 207.121 121.297 207.528C121.412 207.876 121.756 208.109 122.158 208.051C121.929 207.934 121.642 207.818 121.412 207.702C121.354 207.586 121.354 207.47 121.297 207.353C121.297 207.353 121.297 207.353 121.297 207.412C121.412 207.237 121.527 207.005 121.642 206.83C121.871 206.83 122.101 206.83 122.331 206.83H122.273C122.331 206.889 122.445 207.005 122.503 207.063C122.56 207.237 122.56 207.237 122.56 207.121C122.56 207.063 122.56 207.063 122.56 207.005C122.56 206.889 122.56 206.772 122.503 206.656C122.503 206.482 122.445 206.249 122.445 206.075C122.388 205.668 122.388 205.262 122.331 204.855C122.273 204.041 122.158 203.228 122.101 202.473C122.044 202.124 121.814 201.775 121.412 201.775C120.953 201.833 120.551 202.124 120.608 202.473Z" fill="#050606"/>
<path d="M128.474 202.647C128.991 204.332 129.623 205.959 130.427 207.47C130.599 207.818 131.058 207.934 131.345 207.702C131.69 207.528 131.747 207.121 131.575 206.772C130.829 205.32 130.254 203.867 129.738 202.298C129.623 201.95 129.278 201.717 128.876 201.775C128.647 201.891 128.36 202.24 128.474 202.647Z" fill="#050606"/>
<path d="M137.661 201.369C138.121 202.182 138.695 202.937 139.269 203.693C139.556 204.041 139.843 204.448 140.073 204.797C140.188 204.971 140.36 205.145 140.475 205.378C140.647 205.61 140.82 205.901 141.107 205.959C141.336 206.017 141.623 205.959 141.796 205.785C142.083 205.436 142.083 205.087 141.796 204.739C141.681 204.564 141.336 204.506 141.107 204.564C140.762 204.681 140.532 205.029 140.59 205.436C140.705 205.785 141.049 206.075 141.451 205.959C141.221 205.901 140.992 205.843 140.762 205.785C140.705 205.61 140.647 205.436 140.59 205.32C140.647 205.145 140.705 204.971 140.82 204.855C141.049 204.797 141.279 204.739 141.509 204.681H141.451C141.566 204.739 141.623 204.797 141.738 204.855C141.451 204.564 141.222 204.158 140.934 203.809C140.647 203.46 140.418 203.112 140.131 202.763C139.671 202.124 139.154 201.485 138.752 200.729C138.58 200.439 138.121 200.265 137.834 200.497C137.604 200.613 137.432 201.02 137.661 201.369Z" fill="#050606"/>
<path d="M144.322 197.243C145.356 198.754 146.677 200.09 148.227 201.02C148.514 201.194 148.973 201.136 149.146 200.788C149.318 200.439 149.26 200.032 148.916 199.858C148.571 199.625 148.227 199.393 147.882 199.161C147.825 199.102 147.767 199.102 147.71 199.044C147.767 199.102 147.767 199.044 147.71 199.044C147.653 198.986 147.538 198.928 147.48 198.87C147.308 198.754 147.136 198.58 147.021 198.405C146.734 198.115 146.447 197.824 146.16 197.476C146.102 197.417 146.045 197.301 145.987 197.243C145.93 197.185 145.93 197.185 145.873 197.127C145.873 197.127 145.758 197.011 145.815 197.069C145.873 197.127 145.758 197.011 145.758 197.011C145.7 196.953 145.7 196.953 145.643 196.895C145.586 196.778 145.528 196.72 145.471 196.604C145.298 196.313 144.896 196.139 144.552 196.372C144.265 196.488 144.093 196.895 144.322 197.243Z" fill="#050606"/>
<path d="M149.547 297.88C147.94 293.755 144.954 290.501 143.805 286.143C142.6 281.727 142.772 277.137 144.092 272.779C144.609 271.036 141.968 270.339 141.394 272.082C140.073 276.498 139.843 281.088 140.819 285.62C141.279 287.712 141.968 289.804 142.944 291.721C144.15 294.104 145.93 296.195 146.906 298.694C147.538 300.321 150.236 299.565 149.547 297.88Z" fill="#FEE8DF"/>
<path d="M146.562 263.947C147.136 262.146 147.653 260.287 148.227 258.485C148.744 256.742 146.045 256.045 145.528 257.788C144.954 259.589 144.437 261.449 143.863 263.25C143.346 264.935 146.045 265.69 146.562 263.947Z" fill="#FEE8DF"/>
<path d="M42.8588 236.867C57.7627 221.156 82.9915 216.218 102.833 225.016C109.208 227.889 116.031 232.019 122.675 229.864C125.01 229.056 126.895 227.62 128.96 226.273C146.019 215.23 170.26 216.666 185.972 229.505C193.154 235.431 199.08 243.691 208.058 246.205C199.798 288.941 159.037 323.328 115.044 324.495C108.4 324.674 101.666 324.136 95.5609 321.532C88.7375 318.659 83.3506 313.362 78.4126 307.885C60.5459 288.043 47.6173 263.892 40.9734 238.124" fill="#F389B7"/>
<path d="M40.0755 116.829C49.5026 108.03 62.9699 105.157 75.8088 103.541C115.133 98.3335 155.535 100.847 193.872 110.903C195.399 111.352 197.194 111.711 198.541 110.903C200.337 109.915 200.606 107.491 200.606 105.516C200.606 88.7268 195.937 71.6682 185.882 58.1111C175.826 44.554 160.204 34.8575 143.235 33.2414C130.037 31.9845 116.929 35.6656 104.18 39.4364C88.917 44.0153 73.2051 49.2227 61.0845 59.4579C44.9237 73.1047 36.9331 94.2035 34.4192 115.033" fill="#FEE7DD"/>
<path d="M108.938 48.0555C109.387 64.9345 109.746 81.9034 110.195 98.7824C110.285 102.912 116.839 103.182 116.749 98.962C116.301 82.0829 115.941 65.1141 115.493 48.235C115.403 44.0153 108.849 43.8357 108.938 48.0555Z" fill="#070707"/>
<path d="M68.1774 65.8324C66.8306 78.8508 69.3445 91.7794 72.6665 104.349C73.7439 108.389 80.1184 106.863 79.0411 102.823C75.8089 90.7918 73.4746 78.4916 74.7315 66.1017C75.1804 61.7922 68.5365 61.7024 68.1774 65.8324Z" fill="#070707"/>
<path d="M149.071 55.8665C152.483 71.1295 153.201 87.829 151.046 103.272C150.508 107.402 157.062 107.581 157.6 103.451C159.755 87.4699 158.947 70.0521 155.356 54.3402C154.548 50.2102 148.173 51.8263 149.071 55.8665Z" fill="#070707"/>
<path d="M224.488 66.6404C215.241 42.8481 201.863 18.8763 179.328 6.57613C156.792 -5.72403 123.304 -0.875796 112.081 22.0187C98.7033 6.48634 73.7439 4.87026 55.2488 13.9383C36.7536 23.0063 23.9148 40.424 14.5774 58.6498C-6.25202 99.2313 -1.13445 148.073 7.66421 192.695C7.12551 273.139 12.692 299.176 44.2056 335.538C75.6293 371.9 131.025 378.723 173.492 355.739C190.191 346.671 199.259 332.755 209.943 317.222C234.274 281.758 229.696 228.248 232.12 185.422C234.364 145.2 239.123 104.349 224.488 66.6404ZM183.009 274.845C173.492 292.173 160.204 308.783 141.35 315.337C108.759 326.56 73.4745 302.588 56.0568 273.05C35.3171 237.765 31.1871 195.029 34.4193 154.358C36.6638 125.986 42.9486 96.4481 61.7131 74.9004C79.8491 54.0709 122.406 38.7181 146.378 51.9161C164.334 61.3433 173.312 70.6806 182.919 88.1881C214.433 145.11 214.433 217.834 183.009 274.845Z" fill="#F04D25"/>
<path d="M121.867 225.465C108.041 237.586 101.666 255.991 104.719 273.947C105.437 278.077 111.812 276.551 111.093 272.421C108.4 256.709 114.325 240.728 126.356 230.224C129.499 227.44 125.01 222.682 121.867 225.465Z" fill="#070707"/>
<path d="M31.4565 67.7178C34.15 52.0957 45.0136 38.8079 60.2766 33.7801C64.227 32.4334 62.7007 26.1486 58.6605 27.4954C41.4223 33.2414 28.1345 47.9657 25.0819 65.9221C24.4535 69.8726 30.7383 71.8478 31.4565 67.7178Z" fill="#FEE7DD"/>
<path d="M71.6789 27.4954C75.1804 26.5976 78.5922 26.3282 82.1835 26.5976C86.4032 26.8669 86.5828 20.4026 82.363 20.1332C78.2331 19.8639 74.1031 20.223 70.0629 21.2106C66.0227 22.1982 67.549 28.483 71.6789 27.4954Z" fill="#FEE7DD"/>
<path d="M195.758 310.758C189.024 330.151 171.337 344.067 150.867 346.761C146.647 347.3 148.263 353.584 152.483 353.046C175.198 350.083 194.591 334.012 202.043 312.644C203.479 308.693 197.194 306.808 195.758 310.758Z" fill="#FEE7DD"/>
</svg>
