<svg width="329" height="322" viewBox="0 0 329 322" fill="none" xmlns="http://www.w3.org/2000/svg">
<path d="M327.9 134.2C327.3 130.7 325.9 127.3 323.4 124.9C323.3 124.8 323.1 124.6 323 124.5C322.9 124.4 322.9 124.4 322.8 124.4C322.7 124.3 322.6 124.2 322.5 124.2C322.4 124.1 322.4 124.1 322.3 124C322.2 123.9 322.1 123.9 322 123.8C321.9 123.7 321.9 123.7 321.8 123.7C321.7 123.6 321.6 123.6 321.5 123.5C321.4 123.5 321.3 123.4 321.3 123.4C321.2 123.3 321.1 123.3 321 123.2C320.9 123.2 320.8 123.1 320.8 123.1C320.7 123.1 320.6 123 320.5 123C320.4 123 320.3 122.9 320.3 122.9C320.2 122.9 320.1 122.8 320 122.8C319.9 122.8 319.8 122.7 319.7 122.7C319.6 122.7 319.5 122.6 319.4 122.6C319.3 122.6 319.2 122.5 319.1 122.5C319 122.5 318.9 122.4 318.8 122.4C318.7 122.4 318.6 122.4 318.5 122.3C318.4 122.3 318.3 122.2 318.2 122.2C318.1 122.2 318 122.2 317.9 122.1C317.8 122.1 317.7 122.1 317.6 122C317.5 122 317.4 122 317.3 122C317.2 122 317.1 122 317 121.9C316.9 121.9 316.8 121.9 316.7 121.9C316.6 121.9 316.5 121.9 316.4 121.9C316.3 121.9 316.2 121.9 316.1 121.9C316 121.9 315.9 121.9 315.8 121.9C315.7 121.9 315.6 121.9 315.5 121.9C315.4 121.9 315.3 121.9 315.2 121.9C315.1 121.9 315 121.9 314.9 121.9C314.8 121.9 314.7 121.9 314.6 121.9H314.5C314.5 121.9 314.5 121.9 314.4 121.9C314.1 121.9 313.8 121.9 313.4 121.9H313.3C313 121.9 312.7 121.9 312.3 122H312.2C311.9 122 311.5 122.1 311.2 122.1H311.1C310.8 122.2 310.4 122.2 310.1 122.3H310C309.7 122.4 309.3 122.4 309 122.5H308.9C308.6 122.6 308.2 122.7 307.9 122.7H307.8C307.5 122.8 307.1 122.9 306.8 123C306.8 123 306.8 123 306.7 123C306.4 123.1 306 123.2 305.7 123.3C299.2 125.4 293 128.6 286.9 131.8C283.8 133.4 280.8 135.1 277.7 136.7C276.4 137.4 275.1 138 273.8 138.6C274 138.3 274.2 138 274.4 137.7C274.4 137.6 274.5 137.6 274.5 137.5C274.6 137.3 274.8 137.1 274.9 136.8C275 136.7 275 136.6 275.1 136.5C275.2 136.3 275.3 136.1 275.4 135.9C275.5 135.8 275.5 135.7 275.6 135.6C275.7 135.4 275.8 135.2 275.9 135C275.9 134.9 276 134.8 276 134.7C276.1 134.5 276.2 134.2 276.4 134C276.4 133.9 276.5 133.9 276.5 133.8C276.6 133.5 276.8 133.2 276.9 132.9C276.9 132.8 277 132.8 277 132.7C277.1 132.5 277.2 132.2 277.3 132C277.3 131.9 277.4 131.8 277.4 131.7C277.5 131.5 277.5 131.3 277.6 131.1C277.6 131 277.7 130.9 277.7 130.8C277.8 130.6 277.8 130.4 277.9 130.2C277.9 130.1 278 130 278 129.9C278.1 129.7 278.1 129.4 278.2 129.2C278.2 129.1 278.2 129 278.3 128.9C278.4 128.6 278.4 128.2 278.5 127.9C278.5 127.8 278.5 127.8 278.5 127.7C278.6 127.4 278.6 127.1 278.6 126.9C278.6 126.8 278.6 126.7 278.6 126.6C278.6 126.4 278.7 126.2 278.7 125.9C278.7 125.8 278.7 125.6 278.7 125.5C278.7 125.3 278.7 125.1 278.8 124.8C278.8 124.7 278.8 124.6 278.8 124.4C278.8 124.2 278.8 123.9 278.8 123.7C278.8 123.6 278.8 123.5 278.8 123.4C278.8 123.1 278.8 122.7 278.8 122.4C278.7 116 276.4 109.7 272.9 104.4C272.6 104 272.3 103.6 272.1 103.2C272.1 103.1 272 103.1 272 103C271.7 102.6 271.4 102.2 271.1 101.8C271.3 98.5 271.3 95.1 270.9 91.7V91.6C270.9 91.4 270.8 91.2 270.8 91.1C270.8 91 270.8 91 270.8 90.9C270.8 90.7 270.7 90.6 270.7 90.4C270.7 90.3 270.7 90.3 270.7 90.2C270.7 90 270.6 89.9 270.6 89.7C270.6 89.6 270.6 89.5 270.6 89.5C270.6 89.4 270.5 89.2 270.5 89.1C270.5 89 270.5 88.9 270.4 88.8C270.4 88.7 270.3 88.5 270.3 88.4C270.3 88.3 270.3 88.2 270.2 88.1C270.2 88 270.1 87.8 270.1 87.7C270.1 87.6 270 87.5 270 87.4C270 87.3 269.9 87.2 269.9 87C269.9 86.9 269.8 86.8 269.8 86.7C269.8 86.6 269.7 86.5 269.7 86.3C269.7 86.2 269.6 86.1 269.6 86C269.6 85.9 269.5 85.8 269.5 85.7C269.5 85.6 269.4 85.5 269.4 85.4C269.4 85.3 269.3 85.2 269.3 85.1C269.3 85 269.2 84.9 269.2 84.8C269.2 84.7 269.1 84.6 269.1 84.5C269.1 84.4 269 84.3 269 84.2C269 84.1 268.9 84 268.9 83.9C268.8 83.8 268.8 83.7 268.7 83.6C268.7 83.5 268.6 83.4 268.6 83.3C268.5 83.2 268.5 83.1 268.4 83C268.4 82.9 268.3 82.8 268.3 82.7C268.2 82.6 268.2 82.5 268.1 82.4C268 82.3 268 82.2 267.9 82.1C267.8 82 267.8 81.9 267.7 81.8C267.7 81.7 267.6 81.6 267.6 81.6C267.5 81.4 267.4 81.3 267.3 81.1C267.3 81.1 267.3 81 267.2 81C266.6 80.1 265.9 79.3 265.2 78.5C264.4 77.7 263.6 76.9 262.8 76.2C260.8 74.5 259.1 72.5 256.9 71.3C256.6 71.2 256.4 71 256.1 70.9C256 70.9 255.9 70.8 255.9 70.8C255.7 70.7 255.5 70.6 255.3 70.5C255.2 70.5 255.2 70.4 255.1 70.4C254.8 70.3 254.6 70.2 254.3 70.1C254.2 70.1 254.2 70.1 254.1 70C253.9 69.9 253.7 69.8 253.4 69.8C253.3 69.8 253.2 69.7 253.1 69.7C252.9 69.6 252.7 69.6 252.5 69.5C252.4 69.5 252.3 69.5 252.2 69.4C251.9 69.3 251.7 69.3 251.4 69.2C251.3 69.2 251.2 69.2 251.1 69.1C250.9 69.1 250.8 69 250.6 69C250.5 69 250.3 68.9 250.2 68.9C250 68.9 249.9 68.8 249.7 68.8C249.4 68.8 249.2 68.7 248.9 68.7C248.8 68.7 248.7 68.7 248.5 68.7C248.3 68.7 248.1 68.7 248 68.6C247.9 68.6 247.8 68.6 247.7 68.6C247 68.5 246.3 68.5 245.7 68.4C246.1 66.6 246.2 64.8 246.1 63C246 62.3 245.9 61.6 245.8 60.9C245.7 60.6 245.6 60.2 245.5 59.9C245.3 59.2 245.1 58.6 244.8 57.9C244.8 57.9 244.8 57.8 244.7 57.8C244.4 57.2 244.2 56.5 243.8 55.9C243.8 55.8 243.7 55.8 243.7 55.7C243.5 55.4 243.4 55.1 243.2 54.8L243.1 54.7C242.9 54.4 242.8 54.2 242.6 53.9L242.5 53.8C242.3 53.5 242.1 53.3 242 53C242 52.9 241.9 52.9 241.9 52.8C241.7 52.5 241.5 52.3 241.3 52C241.1 51.8 241 51.6 240.8 51.4C240.7 51.3 240.7 51.3 240.6 51.2C240.5 51.1 240.4 50.9 240.3 50.8C240.2 50.7 240.2 50.7 240.1 50.6C240 50.5 239.9 50.4 239.8 50.3C239.7 50.2 239.6 50.2 239.6 50.1C239.5 50 239.4 49.9 239.3 49.8C239.2 49.7 239.1 49.7 239 49.6C238.9 49.5 238.8 49.4 238.7 49.3C238.6 49.2 238.5 49.2 238.4 49.1C238.3 49 238.2 48.9 238.1 48.8C238 48.7 237.9 48.7 237.8 48.6C237.7 48.5 237.6 48.4 237.5 48.4C237.4 48.3 237.3 48.3 237.2 48.2C237.1 48.1 237 48 236.9 48C236.8 47.9 236.7 47.9 236.6 47.8C236.5 47.7 236.4 47.7 236.3 47.6C236.2 47.5 236.1 47.5 236 47.4C235.9 47.3 235.8 47.3 235.7 47.2C235.6 47.1 235.5 47.1 235.4 47C235.3 46.9 235.2 46.9 235.1 46.8C235 46.7 234.9 46.7 234.8 46.6C234.7 46.5 234.6 46.5 234.5 46.4C234.4 46.3 234.3 46.3 234.2 46.2C234.1 46.1 234 46.1 233.8 46C233.7 46 233.6 45.9 233.5 45.9C233.4 45.8 233.3 45.8 233.1 45.7C233 45.7 232.9 45.6 232.8 45.6C232.7 45.6 232.6 45.5 232.4 45.5C232.3 45.5 232.2 45.4 232.1 45.4C232 45.4 231.8 45.3 231.7 45.3C231.5 45.2 231.3 45.2 231.1 45.1C231 45.1 230.8 45 230.7 45C230.6 45 230.5 44.9 230.4 44.9C230.3 44.9 230.2 44.8 230 44.8C229.9 44.8 229.8 44.7 229.6 44.7C229.5 44.7 229.4 44.6 229.2 44.6C229.1 44.6 229 44.5 228.8 44.5C228.7 44.5 228.6 44.4 228.4 44.4C228.3 44.4 228.2 44.3 228 44.3C227.9 44.3 227.8 44.2 227.6 44.2C227.5 44.2 227.3 44.2 227.2 44.1C227.1 44.1 227 44.1 226.8 44C226.7 44 226.5 44 226.4 43.9C226.3 43.9 226.2 43.9 226 43.8C225.9 43.8 225.7 43.8 225.6 43.7C225.5 43.7 225.4 43.7 225.2 43.6C225.1 43.6 225 43.6 224.8 43.6C224.7 43.6 224.5 43.6 224.4 43.6C224.3 43.6 224.2 43.6 224 43.6C223.9 43.6 223.7 43.6 223.6 43.6C223.5 43.6 223.4 43.6 223.2 43.6C223.1 43.6 222.9 43.6 222.8 43.6C222.7 43.6 222.6 43.6 222.4 43.6C222.3 43.6 222.1 43.6 222 43.6C221.9 43.6 221.8 43.6 221.6 43.6C221.5 43.6 221.3 43.6 221.2 43.6C221.1 43.6 221 43.6 220.8 43.6C220.7 43.6 220.5 43.6 220.4 43.6C220.3 43.6 220.2 43.6 220.1 43.6C220.1 43.6 220.1 43.6 220 43.6C219.5 43.6 219.1 43.6 218.6 43.6C212.2 43.8 205.8 45.2 199.6 47C197.5 47.6 195.5 48.3 193.5 49C191.9 49.6 190.3 50.2 188.7 50.9C182.5 53.4 176.6 56.5 171 60.1C170.2 60.6 169.5 61.1 168.7 61.6C168.6 61.7 168.5 61.7 168.4 61.8C167.6 62.3 166.9 62.8 166.2 63.4L166.1 63.5C161.3 66.9 156.8 70.7 152.7 74.9C149.2 63.5 144.6 52.3 138.1 42.3C138 42.2 138 42.1 137.9 42C137.7 41.7 137.5 41.4 137.3 41.1C137.2 40.9 137.1 40.8 137 40.6C136.8 40.3 136.6 40.1 136.5 39.8C136.4 39.6 136.2 39.4 136.1 39.2C135.9 39 135.8 38.7 135.6 38.5C135.4 38.3 135.3 38.1 135.1 37.9C134.9 37.7 134.8 37.4 134.6 37.2C134.4 37 134.3 36.8 134.1 36.5C133.9 36.3 133.8 36.1 133.6 35.9C133.4 35.7 133.2 35.4 133.1 35.2C132.9 35 132.8 34.8 132.6 34.6C132.4 34.4 132.2 34.1 132 33.9C131.9 33.7 131.7 33.5 131.6 33.4C131.4 33.1 131.1 32.8 130.9 32.6C130.8 32.5 130.7 32.3 130.5 32.2C130.1 31.8 129.8 31.4 129.4 31C129 30.5 128.6 30.1 128.2 29.7C124.1 25.4 119.5 21.5 114.4 18.4C114.2 18.3 114 18.2 113.8 18.1C113.3 17.8 112.7 17.5 112.2 17.2C110.9 16.5 109.7 15.9 108.4 15.3C108.1 15.2 107.7 15 107.4 14.9C107.3 14.9 107.2 14.8 107.1 14.8C106.9 14.7 106.6 14.6 106.4 14.5C106.3 14.5 106.2 14.4 106 14.4C105.8 14.3 105.6 14.2 105.3 14.1C105.2 14.1 105 14 104.9 14C104.7 13.9 104.5 13.8 104.2 13.8C104.1 13.8 104 13.7 103.8 13.7C103.6 13.6 103.3 13.5 103 13.4C102.9 13.4 102.8 13.3 102.7 13.3C102 13.1 101.3 12.9 100.6 12.6C100.5 12.6 100.4 12.5 100.3 12.5C99.9996 12.4 99.7996 12.4 99.4996 12.3C99.3996 12.3 99.2996 12.2 99.0996 12.2C98.8996 12.1 98.5997 12.1 98.3997 12C98.2997 12 98.0996 11.9 97.9996 11.9C97.7996 11.8 97.4996 11.8 97.2996 11.7C97.1996 11.7 97.0997 11.6 96.8997 11.6C96.5997 11.5 96.3996 11.5 96.0996 11.5C95.9996 11.5 95.8996 11.5 95.7996 11.4C95.3996 11.3 95.0996 11.3 94.6996 11.2C94.6996 11.2 94.6996 11.2 94.5996 11.2C94.2996 11.2 93.8996 11.1 93.5996 11.1C93.4996 11.1 93.3996 11.1 93.2996 11.1C92.9996 11.1 92.7996 11.1 92.4996 11C92.3996 11 92.1996 11 92.0996 11C91.8996 11 91.5997 11 91.3997 11C91.2997 11 91.0996 11 90.9996 11C90.7996 11 90.4996 11 90.2996 11C90.1996 11 90.0996 11 89.9996 11C89.8996 11 89.8996 11 89.7996 11C89.6996 11 89.5996 11 89.4996 11C89.2996 11 89.0997 11 88.8997 11C88.7997 11 88.6996 11 88.5996 11C88.3996 11 88.1996 11 87.9996 11C87.8996 11 87.7996 11 87.6996 11C87.3996 11 87.0997 11 86.8997 11.1C86.8997 11.1 86.8996 11.1 86.7996 11.1C86.4996 11.1 86.1997 11.2 85.8997 11.2C85.7997 11.2 85.6996 11.2 85.6996 11.2C85.4996 11.2 85.2996 11.3 84.9996 11.3C84.8996 11.3 84.7996 11.3 84.6996 11.4C84.4996 11.4 84.2996 11.5 84.0996 11.5C83.9996 11.5 83.8996 11.5 83.7996 11.6C83.5996 11.6 83.3996 11.7 83.1996 11.8C83.0996 11.8 82.9997 11.8 82.8997 11.9C82.5997 12 82.2996 12.1 81.9996 12.2C81.6996 12.3 81.3996 12.4 81.0996 12.5C80.9996 12.5 80.8996 12.6 80.7996 12.6C80.5996 12.7 80.3996 12.8 80.1996 12.8C80.0996 12.8 79.9997 12.9 79.8997 12.9C79.6997 13 79.4996 13.1 79.2996 13.1C79.1996 13.1 79.0996 13.2 78.9996 13.2C78.7996 13.3 78.5997 13.4 78.3997 13.5C78.2997 13.5 78.1996 13.6 78.0996 13.6C77.7996 13.7 77.5996 13.9 77.2996 14.1C74.5996 15.7 72.2996 17.9 70.4996 20.5C70.2996 20.8 70.1996 21 69.9996 21.3C69.7996 21.6 69.5997 22 69.3997 22.3C66.6997 27.4 66.1996 33.5 69.2996 39C70.6996 41.4 72.4996 43.4 74.5996 45.3C74.7996 45.5 75.0996 45.7 75.2996 45.9C76.6996 47.1 78.0996 48.2 79.5996 49.3C83.3996 52.2 87.0996 55.1 90.2996 58.6C96.7996 65.5 101.4 74 101.2 83.7C101.2 85.5 101 87.3 100.7 89.1C100.7 89.2 100.7 89.3 100.6 89.4C100.5 89.9 100.4 90.4 100.3 90.9C100.2 91.3 100.1 91.7 99.9996 92.1C99.8996 92.6 99.7996 93.1 99.5996 93.5C99.4996 93.9 99.3996 94.2 99.2996 94.6C99.0996 95.2 98.9996 95.8 98.7996 96.4C97.0996 101.7 94.7997 107 92.8997 112.1C91.1997 116.6 89.5996 121.2 88.6996 126C88.6996 126.2 88.5996 126.5 88.5996 126.7C88.0996 129.9 87.7996 133.1 87.5996 136.3C87.4996 137.5 87.4997 138.6 87.3997 139.8C87.3997 140.3 87.2996 140.9 87.2996 141.4C87.0996 145 86.8996 148.6 86.2996 151.8C85.8996 153.7 85.4996 155.6 84.7996 157.5C84.7996 157.5 84.7996 157.5 84.7996 157.6C84.7996 157.7 84.6996 157.7 84.6996 157.8C84.5996 158 84.5996 158.1 84.4996 158.2C84.2996 158.6 84.0997 159 83.8997 159.4C83.6997 159.8 83.4996 160.2 83.1996 160.6C82.8996 161 82.7996 161.2 82.6996 161.4C82.6996 161.4 82.6996 161.5 82.5996 161.5C82.4996 161.7 82.2996 161.9 82.1996 162C82.0996 161.9 81.9997 161.8 81.8997 161.7C81.6997 161.5 81.3996 161.4 81.1996 161.2C81.0996 161.2 81.0996 161.1 80.9996 161.1C80.7996 161 80.6996 160.9 80.4996 160.8C80.3996 160.8 80.3996 160.7 80.2996 160.7C80.0996 160.6 79.8996 160.4 79.6996 160.3C79.6996 160.3 79.6996 160.3 79.5996 160.3C79.3996 160.2 79.0997 160 78.8997 159.9C78.7997 159.9 78.7996 159.8 78.6996 159.8C78.4996 159.7 78.2996 159.6 78.1996 159.6C78.0996 159.6 77.9996 159.5 77.9996 159.5C77.7996 159.4 77.5997 159.3 77.3997 159.3H77.2996C77.0996 159.2 76.7996 159.1 76.4996 159.1C76.3996 159.1 76.3996 159.1 76.2996 159C76.0996 158.9 75.8996 158.9 75.6996 158.9C75.5996 158.9 75.4997 158.9 75.3997 158.8C75.1997 158.8 74.9996 158.7 74.7996 158.7C74.6996 158.7 74.6996 158.7 74.5996 158.7C74.2996 158.7 74.0996 158.6 73.7996 158.6C73.6996 158.6 73.6996 158.6 73.5996 158.6C73.3996 158.6 73.1996 158.6 72.9996 158.5C72.8996 158.5 72.7996 158.5 72.6996 158.5C72.4996 158.5 72.2996 158.5 72.0996 158.5C71.9996 158.5 71.9997 158.5 71.8997 158.5C71.8997 158.5 71.8996 158.5 71.7996 158.5C71.5996 158.5 71.4996 158.5 71.2996 158.5C71.1996 158.5 70.9997 158.5 70.8997 158.5C70.6997 158.5 70.4997 158.5 70.3997 158.5C70.2997 158.5 70.1996 158.5 69.9996 158.5C69.7996 158.5 69.5997 158.5 69.3997 158.6C69.2997 158.6 69.1996 158.6 69.0996 158.6C68.7996 158.6 68.4996 158.7 68.1996 158.8C64.1996 159.6 60.3996 161.7 57.5996 164.6C57.3996 164.8 57.1996 165 56.9996 165.2C53.8996 168.7 51.9996 172.9 51.4996 177.6C51.3996 178.7 51.2996 179.8 51.3996 181C51.3996 181.3 51.3996 181.6 51.3996 181.8C51.5996 184.9 52.3996 188 53.3996 190.9C55.1996 196 57.7996 200.9 60.7996 205.4C60.8996 205.5 60.8996 205.6 60.9996 205.7C61.2996 206.2 61.6996 206.7 61.9996 207.2C62.3996 207.8 62.7996 208.4 63.1996 208.9C57.2996 214.8 49.5996 222.8 40.8996 231.2C40.7996 231.3 40.7996 231.3 40.6996 231.4C40.1996 231.9 39.6996 232.4 39.0996 232.9C38.9996 233 38.7996 233.2 38.6996 233.3C38.1996 233.7 37.7996 234.2 37.2996 234.6C37.0996 234.8 36.9996 234.9 36.7996 235.1C36.3996 235.5 35.8996 235.9 35.4996 236.3C35.2996 236.5 35.0996 236.7 34.8996 236.8C34.4996 237.2 34.0996 237.6 33.5996 238C33.3996 238.2 33.1996 238.4 32.9996 238.6C32.5996 239 32.1996 239.4 31.7996 239.7C31.5996 239.9 31.2996 240.1 31.0996 240.3C30.6996 240.7 30.2996 241 29.8996 241.4C29.6996 241.6 29.3996 241.8 29.1996 242.1C28.7996 242.5 28.3996 242.8 27.9996 243.1C27.6996 243.3 27.4996 243.6 27.1996 243.8C26.7996 244.1 26.3996 244.5 25.9996 244.8C25.6996 245 25.4996 245.3 25.1996 245.5C24.7996 245.8 24.3996 246.2 23.9996 246.5C23.6996 246.7 23.4996 247 23.1996 247.2C22.7996 247.5 22.3996 247.9 21.9996 248.2C21.6996 248.4 21.4996 248.7 21.1996 248.9C20.7996 249.2 20.3996 249.6 19.9996 249.9C19.6996 250.1 19.4996 250.3 19.1996 250.6C18.7996 250.9 18.3996 251.2 17.9996 251.6C17.6996 251.8 17.4996 252 17.1996 252.3C16.7996 252.6 16.3996 252.9 15.9996 253.3C15.6996 253.5 15.4996 253.7 15.1996 253.9C14.7996 254.2 14.2996 254.6 13.8996 254.9C13.6996 255.1 13.3996 255.3 13.1996 255.5C12.6996 255.9 12.1996 256.2 11.6996 256.6C11.4996 256.7 11.2996 256.9 11.0996 257C10.3996 257.5 9.69961 258 9.09961 258.5C13.4996 263.4 17.8996 268.2 22.3996 273.1C35.8996 287.9 49.5996 302.6 63.2996 317.3C63.3996 317.4 63.4996 317.5 63.4996 317.6L63.5996 317.7C63.6996 317.8 63.6996 317.8 63.7996 317.9C63.8996 318 63.8996 318 63.9996 318.1C63.9996 318.2 64.0996 318.2 64.1996 318.3C64.2996 318.4 64.2997 318.4 64.3997 318.5C64.4997 318.6 64.4996 318.6 64.5996 318.7C64.6996 318.8 64.6996 318.8 64.7996 318.9C64.8996 319 64.8996 319 64.9996 319.1C65.0996 319.2 65.0996 319.2 65.1996 319.3C65.2996 319.4 65.2997 319.4 65.3997 319.5C65.4997 319.6 65.4996 319.6 65.5996 319.7C65.6996 319.7 65.6996 319.8 65.7996 319.8C65.8996 319.9 65.8996 319.9 65.9996 320C66.0996 320 66.0996 320.1 66.1996 320.1C66.2996 320.2 66.3997 320.2 66.3997 320.3C66.4997 320.3 66.4996 320.4 66.5996 320.4C66.6996 320.4 66.7996 320.5 66.7996 320.5C66.8996 320.5 66.8996 320.6 66.9996 320.6C67.0996 320.6 67.1996 320.7 67.1996 320.7C67.2996 320.7 67.2997 320.8 67.3997 320.8C67.4997 320.8 67.5996 320.9 67.5996 320.9C67.6996 320.9 67.6996 321 67.7996 321C67.8996 321 67.9996 321.1 67.9996 321.1C68.0996 321.1 68.0996 321.2 68.1996 321.2C68.2996 321.2 68.3996 321.2 68.4996 321.3C68.5996 321.3 68.5996 321.3 68.6996 321.4C68.7996 321.4 68.8996 321.4 68.9996 321.4C69.0996 321.4 69.0996 321.4 69.1996 321.4C69.2996 321.4 69.3996 321.4 69.4996 321.4C69.5996 321.4 69.5996 321.4 69.6996 321.4C69.7996 321.4 69.9996 321.4 70.0996 321.4C71.8996 321.2 73.4997 319.9 74.8997 318.7C76.1997 317.6 77.3996 316.5 78.6996 315.3C79.0996 314.9 79.5996 314.5 79.9996 314.1C80.7996 313.3 81.6996 312.6 82.4996 311.8C82.9996 311.3 83.4996 310.9 83.9996 310.4C84.6996 309.7 85.4996 309 86.1996 308.3C86.6996 307.8 87.2996 307.3 87.7996 306.8C88.4996 306.1 89.1997 305.5 89.8997 304.8C90.3997 304.3 90.9996 303.7 91.4996 303.2C92.1996 302.5 92.7996 301.9 93.4996 301.2C93.9996 300.7 94.5996 300.1 95.0996 299.6C95.7996 298.9 96.3996 298.2 97.0996 297.6C97.5996 297.1 98.1996 296.5 98.6996 296C99.3996 295.3 100.1 294.6 100.7 293.9C101.2 293.4 101.7 292.9 102.2 292.3C103.3 291.1 104.4 289.9 105.5 288.8C106.1 288.2 106.7 287.5 107.2 286.9C107.7 286.3 108.3 285.7 108.8 285.1C109.4 284.4 110 283.7 110.6 283C111.1 282.4 111.6 281.8 112.1 281.3C112.7 280.6 113.3 279.9 113.9 279.2C114.4 278.6 114.9 278.1 115.4 277.5C116 276.8 116.6 276 117.2 275.3C117.7 274.7 118.1 274.2 118.6 273.6C119.2 272.9 119.8 272.1 120.4 271.4C120.8 270.9 121.3 270.3 121.7 269.8C122.3 269 122.9 268.2 123.6 267.5C124 267 124.4 266.5 124.8 266C125.5 265.2 126.1 264.3 126.7 263.5C129.3 264.9 131.9 266.2 134.5 267.3C139 269.3 143.6 271.1 148.4 272.2C148.8 272.3 149.2 272.4 149.7 272.4C149.8 272.4 149.9 272.4 150 272.4C150.4 272.5 150.8 272.5 151.2 272.6C151.3 272.6 151.4 272.6 151.4 272.6C151.8 272.6 152.2 272.7 152.6 272.7H152.7C153.1 272.7 153.5 272.8 153.9 272.8C154 272.8 154.1 272.8 154.2 272.8C154.6 272.8 154.9 272.8 155.3 272.8H155.4C155.5 272.8 155.6 272.8 155.6 272.8C155.9 272.8 156.3 272.8 156.6 272.8C156.7 272.8 156.8 272.8 156.9 272.8C157.3 272.8 157.7 272.8 158.1 272.7H158.2C158.6 272.7 159 272.6 159.3 272.6C159.4 272.6 159.5 272.6 159.6 272.6C160 272.5 160.3 272.5 160.7 272.4H160.8C161.2 272.3 161.6 272.2 162 272.1C162.1 272.1 162.2 272.1 162.3 272C162.6 271.9 163 271.8 163.3 271.7C163.4 271.7 163.5 271.7 163.5 271.6C163.9 271.5 164.3 271.4 164.7 271.2C164.8 271.2 164.9 271.1 165 271.1C165.3 271 165.6 270.9 166 270.8C166.1 270.8 166.2 270.7 166.3 270.7C166.7 270.6 167.1 270.4 167.5 270.2C167.6 270.2 167.6 270.1 167.7 270.1C168 270 168.4 269.8 168.7 269.6C168.8 269.6 168.9 269.5 169 269.5C169.4 269.3 169.8 269.1 170.1 268.9C170.6 268.6 171 268.4 171.5 268.1C175.9 265.4 179.5 261.7 181.9 257.2C182 257 182.1 256.7 182.3 256.5C183.5 254.1 184.3 251.5 184.6 248.8C184.9 246.2 184.8 243.3 183.4 241C183.3 240.8 183.2 240.7 183.1 240.5C190.9 237.3 198.2 233.3 205.1 228.4C205.6 228.1 206 227.8 206.5 227.4C206.8 227.2 207.1 226.9 207.5 226.7C208.4 226 209.3 225.3 210.2 224.6C210.2 224.6 210.2 224.6 210.3 224.5C210.3 224.5 210.4 224.5 210.4 224.4C210.5 224.3 210.7 224.2 210.8 224.1C210.8 224.1 210.8 224.1 210.9 224.1C210.9 224.1 210.7 224.2 210.5 224.4C211.8 223.5 213 222.5 214.3 221.5C220.6 216.7 227 212 233.5 207.4C238.4 204 243.3 200.7 248.3 197.5C252.9 194.5 257.7 191.8 262.5 189.1C263.5 188.6 264.4 188 265.4 187.5C275 182.3 284.8 177.4 294.4 172C301.5 168 308.5 163.7 314.8 158.5C319.5 154.5 324.7 149.3 326.3 143.2C328.2 140 328.4 137 327.9 134.2Z" fill="white"/>
<path d="M80.9001 0.899902C87.1001 0.899902 93.5001 2.79995 99.0001 5.19995C107.1 8.79995 114.2 14.3999 120.1 20.9999C131.3 33.4999 138.5 49.0999 143.3 65.0999C148.9 59.4999 155.1 54.5999 161.7 50.2999C168.8 45.7999 176.4 42 184.2 39.2C192.2 36.2999 200.8 34 209.3 33.7C209.8 33.7 210.2 33.7 210.7 33.7C218.4 33.7 226.5 35.9 231.5 42.2C235.2 46.7999 237.2 53 235.8 58.7C239.7 58.9 243.6 59.4999 247 61.4999C249.2 62.7999 251 64.7999 252.9 66.3999C254.6 67.7999 256.1 69.3999 257.4 71.2C261.6 77.1 262 84.9999 261.5 91.9999C262.2 92.7999 262.8 93.6999 263.4 94.5999C266.9 99.8999 269.2 106.2 269.3 112.6C269.4 118.6 267.4 124.1 264.2 128.8C265.5 128.2 266.8 127.5 268.1 126.9C271.2 125.3 274.2 123.7 277.3 122C283.4 118.8 289.6 115.6 296.1 113.5C298.8 112.6 301.9 111.9 304.8 111.9C307.9 111.9 311 112.7 313.4 115.1C317.8 119.4 319.1 127 317.5 132.8C315.8 139 310.7 144.2 306 148.1C299.7 153.4 292.7 157.6 285.6 161.6C270.3 170.2 254.4 177.5 239.6 187C227.9 194.5 216.6 202.6 205.6 211C204.3 212 203.1 213 201.8 213.9C202.1 213.7 202.2 213.6 202.2 213.6C202.2 213.6 201.7 214 201.5 214.1C200.3 215.1 199 216 197.8 216.9C190.5 222.2 182.7 226.5 174.4 229.9C174.5 230.1 174.6 230.2 174.7 230.4C176 232.8 176.2 235.6 175.9 238.2C174.8 247 169.1 254.3 161.5 258.4C156.8 260.9 151.7 262.2 146.6 262.2C144.3 262.2 142 262 139.8 261.5C135 260.5 130.3 258.6 125.9 256.6C123.2 255.4 120.6 254.1 118.1 252.8C102.6 272.9 85.2001 291.6 66.1001 308.3C64.7001 309.5 63.2001 310.8 61.3 311C61.1 311 61 311 60.8 311C58.3 311 56.1 308.9 54.3 307C36.1 287.6 18.0001 268 0.100098 248.2C21.1001 233.1 41.8001 211.3 54.2001 198.8C53.4001 197.6 52.6001 196.5 51.8001 195.3C48.8001 190.8 46.2001 186 44.4001 180.8C42.9001 176.6 42.0001 172 42.5001 167.5C43.0001 162.8 44.8001 158.6 48.0001 155.1C50.9001 151.9 55.0001 149.5 59.2001 148.7C60.4001 148.5 61.6001 148.4 62.7001 148.4C66.3001 148.4 69.8 149.5 72.8 151.9C72.9 152 73.0001 152.1 73.1001 152.2C73.2001 152 73.4001 151.9 73.5001 151.7C73.7001 151.5 73.8001 151.3 74.1001 150.8C74.3001 150.4 74.6001 150 74.8 149.6C75 149.2 75.2001 148.8 75.4001 148.4C75.5001 148.3 75.5001 148.1 75.6001 148C75.6001 147.9 75.7001 147.8 75.7001 147.7C76.4001 145.9 76.9001 144 77.2001 142C77.9001 138.2 78.1001 134 78.3 129.9C78.5 125.5 78.7001 121.1 79.5001 116.7C80.4001 111.7 82 106.8 83.8 102.1C87.3 92.9999 91.8001 83.6 92.1001 73.7C92.3001 64 87.7001 55.4999 81.2001 48.5999C77.9001 45.0999 74.3001 42.1999 70.5001 39.2999C66.7001 36.3999 62.7001 33.2999 60.3 28.9999C55.2001 19.9999 59.8001 9.09991 68.2001 4.09991C72.1001 1.79991 76.5001 0.899902 80.9001 0.899902Z" fill="white"/>
<path d="M71.1004 157.5C83.1004 150.6 80.2004 132.8 82.1004 119C84.5004 101.6 97.1004 85.7997 94.7004 68.3997C93.0004 56.0997 84.1004 45.9998 74.2004 38.4998C69.0004 34.4998 63.0004 30.4997 61.3004 24.0997C59.4004 16.7997 64.4004 8.89975 71.2004 5.79975C78.0004 2.69975 86.1004 3.49976 93.1004 5.99976C119.5 15.0998 134.4 43.4998 141.9 70.6998C157.1 54.1998 177.4 42.4998 199.3 37.9998C207.7 36.2998 216.8 35.5997 224.3 39.7997C231.8 43.9997 236.3 54.3997 231.6 61.5997C237.6 61.5997 244.4 61.8997 248.6 66.3997C252.2 70.1997 260.3 72.8997 258.7 93.0997C258.7 93.0997 279 115.5 254.3 135.4C266.2 134.2 291.8 113.9 306.3 114.9C314.7 115.5 316.9 127.7 314.3 133.6C307.2 149.7 278.1 162.1 252.3 176.2C229.2 188.8 199.6 212.2 199.6 212.2C173.1 232.8 141.8 238.1 133.4 229.9C127 223.7 146 225 138.2 220.6C110.2 205.1 85.8005 183.2 67.4005 156.9" fill="#FFCD05"/>
<path d="M72.5005 160C79.9005 155.6 82.4005 147.5 83.4005 139.3C83.9005 135.2 84.0004 131.1 84.2004 127C84.4004 122.5 84.8005 118.6 85.9005 114.3C88.3005 104.6 93.0004 95.6999 95.8004 86.0999C97.2004 81.2999 98.0004 76.2999 97.8004 71.2999C97.6004 66.1999 96.2005 61.3999 94.0005 56.7999C89.7005 47.9999 82.4004 41.1999 74.7004 35.3999C71.3004 32.7999 67.6004 30.1999 65.3004 26.4999C63.2004 22.9999 63.2005 19.0999 65.0005 15.5999C69.6005 6.59988 80.3005 5.59986 89.1005 7.89986C97.3005 10.0999 104.9 14.5999 111.1 20.2999C123.9 32.0999 131.9 48.5999 137.2 65.0999C137.9 67.1999 138.5 69.3999 139.1 71.4999C139.7 73.4999 142.401 74.3999 143.901 72.7999C154.201 61.5999 167 52.4999 181.1 46.6999C188.3 43.6999 195.801 41.3999 203.401 40.1999C210.401 39.0999 218.9 38.9999 224.8 43.5999C227.1 45.4999 229.2 48.3999 230 51.2999C230.5 52.9999 230.7 54.1999 230.5 56.0999C230.5 56.4999 230.3 57.2999 230.1 57.9999C229.9 58.7999 229.6 59.2999 229.1 60.0999C227.9 61.9999 229.5 64.4999 231.6 64.4999C235.8 64.4999 240.5 64.4999 244.2 66.5999C246 67.5999 247.5 69.3999 249.1 70.7999C249.8 71.3999 250.5 72.0999 251.2 72.7999C251.5 73.1999 251.9 73.4999 252.2 73.8999C252.3 73.9999 252.401 74.0999 252.401 74.1999C252.701 74.4999 252 73.5999 252.3 74.0999C252.5 74.2999 252.6 74.5999 252.8 74.7999C253.1 75.2999 253.4 75.7999 253.7 76.2999C253.9 76.5999 254 76.8999 254.1 77.1999C253.9 76.7999 254.3 77.5999 254.1 77.1999C254.2 77.3999 254.301 77.6999 254.401 77.8999C255.001 79.3999 255.3 80.9999 255.6 82.5999C255.8 84.0999 256.001 86.6999 255.901 88.5999C255.901 90.6999 255.1 93.3999 256.6 95.0999C256.8 95.3999 257 95.5999 257.2 95.8999C257.3 95.9999 257.7 96.4999 257.3 95.9999C256.9 95.4999 257.301 96.0999 257.401 96.1999C257.601 96.4999 257.9 96.8999 258.1 97.1999C259.4 99.0999 260.501 101.1 261.401 103.2C261.501 103.3 261.701 103.8 261.401 103.2C261.501 103.3 261.5 103.5 261.6 103.6C261.7 103.9 261.801 104.2 261.901 104.5C262.101 105.2 262.4 105.9 262.6 106.6C262.8 107.3 263 108.1 263.1 108.8C263.2 109.1 263.2 109.5 263.3 109.8C263.3 109.9 263.4 110.4 263.3 109.8C263.3 110.1 263.401 110.3 263.401 110.6C263.501 111.5 263.5 112.4 263.5 113.3C263.5 113.8 263.501 114.2 263.401 114.7C263.401 114.9 263.401 115.1 263.401 115.3C263.401 115.3 263.301 116.2 263.401 115.7C263.301 116.7 263 117.7 262.8 118.6C262.6 119.5 262.101 120.6 261.901 121.2C259.801 126 256.2 129.9 252.2 133.2C250.3 134.7 251.8 138.4 254.2 138.2C259.7 137.6 264.9 134.9 269.7 132.5C275.7 129.4 281.6 126.1 287.7 123.2C290.7 121.8 293.1 120.7 296.2 119.6C297.6 119.1 299.001 118.7 300.401 118.3C301.001 118.1 301.7 118 302.3 117.9C302.5 117.9 302.6 117.8 302.8 117.8C302.8 117.8 302.3 117.9 302.7 117.8C303.1 117.8 303.4 117.7 303.8 117.7C304.3 117.7 304.9 117.6 305.5 117.7C305.8 117.7 306.1 117.7 306.5 117.8C306 117.7 306.9 117.9 307.1 117.9C307.2 117.9 308.2 118.3 307.6 118.1C307.9 118.2 308.101 118.4 308.401 118.5C308.501 118.6 309.2 119 308.8 118.7C309.1 118.9 309.4 119.2 309.6 119.5C309.7 119.6 310.201 120.2 309.901 119.8C310.101 120.1 310.3 120.4 310.5 120.7C310.7 121 310.8 121.2 311 121.5C311.1 121.7 311.2 121.8 311.2 122C311.2 122.1 311.5 122.7 311.3 122.2C311.5 122.8 311.701 123.4 311.901 124.1C312.001 124.5 312.1 124.8 312.1 125.2C312.1 125.4 312.3 126.3 312.2 125.8C312.4 127.2 312.4 128.6 312.2 130C312.2 130.3 312.2 129.9 312.2 129.9C312.2 130.1 312.1 130.2 312.1 130.4C312 130.7 312.001 131 311.901 131.4C311.801 131.7 311.7 131.9 311.7 132.2C311.7 132.3 311.6 132.4 311.6 132.5C311.9 131.8 311.5 132.6 311.5 132.7C310.2 135.5 308.7 137.4 306.8 139.6C301.9 144.9 296 148.9 289.8 152.7C275 161.8 259 168.8 244.1 177.6C231.5 185.1 219.5 193.6 207.8 202.3C204.5 204.7 201.3 207.2 198.1 209.7C197.9 209.9 197.7 210 197.5 210.2C198 209.8 197 210.6 196.8 210.7C195.8 211.4 194.901 212.1 193.901 212.8C190.301 215.3 186.6 217.7 182.7 219.8C175.8 223.5 168.6 226.6 161 228.6C155 230.2 149.601 231.1 143.401 230.7C143.101 230.7 142.8 230.7 142.6 230.6C142.4 230.6 141.5 230.5 142.2 230.6C141.6 230.5 141.001 230.4 140.401 230.3C139.401 230.1 138.5 229.8 137.5 229.4C138.3 229.7 137.5 229.4 137.3 229.3C137.1 229.2 136.9 229.1 136.7 229C136.3 228.8 135.9 228.5 135.5 228.3C135.3 228.1 135.2 228 135 227.8C134.9 227.7 134.4 227.1 134.7 227.5C135 227.9 134.5 227.1 134.5 227.1C134.7 227.2 134.7 227.8 134.6 227.2C134.6 227 134.7 228 134.7 227.5C134.7 227.9 134.5 228.3 134.5 228.4C134.8 227.9 134.101 228.8 134.401 228.6C134.701 228.3 134.9 228.5 134.3 228.7C134.4 228.7 134.6 228.5 134.7 228.4C134.8 228.3 135 228.2 135.1 228.2C135.2 228.1 135.901 227.8 135.401 228C134.901 228.2 135.5 228 135.6 227.9C135.8 227.8 136 227.8 136.2 227.7C136.6 227.6 137.001 227.4 137.401 227.3C138.301 227 139.1 226.7 140 226.3C142.1 225.4 143.601 223.1 142.401 220.8C141.901 219.9 141.1 219.2 140.2 218.6C138.6 217.6 136.9 216.7 135.3 215.8C127.9 211.5 120.701 206.7 113.901 201.5C100.301 191.1 87.9004 178.9 77.2004 165.5C74.6004 162.3 72.1004 159 69.8004 155.6C68.9004 154.3 67.3005 153.7 65.9005 154.6C64.7005 155.3 64.0005 157.3 64.9005 158.6C75.2005 173.3 87.3005 186.6 100.901 198.3C107.701 204.1 114.8 209.5 122.2 214.4C125.9 216.9 129.7 219.2 133.5 221.4C134.4 221.9 135.3 222.4 136.3 223C136.6 223.2 136.9 223.3 137.2 223.5C137.3 223.6 138.1 224.1 137.6 223.8C137.2 223.5 137.7 223.9 137.8 224C137.9 224.2 137.4 223.3 137.6 223.8C137.1 222.9 137.301 221.8 137.901 221.2C137.601 221.5 138.5 220.9 138.2 221C138.1 221 137.9 221.2 137.8 221.2C137.7 221.3 137.2 221.5 137.7 221.3C138.2 221 137.601 221.3 137.401 221.4C136.601 221.7 135.9 221.9 135.1 222.2C133.2 222.8 131.1 223.6 130 225.4C127 230.1 133.201 234.2 136.901 235.4C142.001 237.2 147.8 237 153.1 236.3C160.5 235.3 167.7 233.2 174.6 230.4C182.9 227 190.8 222.6 198 217.3C199.3 216.4 200.5 215.5 201.7 214.5C202 214.3 202.9 213.6 202 214.3C203.3 213.4 204.5 212.4 205.8 211.4C216.8 203 228.1 194.9 239.8 187.4C254.6 177.9 270.6 170.6 285.8 162C292.9 158 299.9 153.7 306.2 148.5C310.9 144.5 316.1 139.3 317.7 133.2C319.3 127.4 318 119.8 313.6 115.5C308.9 110.9 301.9 112.1 296.3 113.9C289.8 116 283.6 119.2 277.5 122.4C274.4 124 271.4 125.7 268.3 127.3C266.9 128 265.5 128.7 264 129.4C263.3 129.7 262.7 130 262 130.3C261 130.7 261.2 130.7 260.3 131C259.2 131.5 258 131.9 256.8 132.2C256.3 132.4 255.8 132.5 255.2 132.6C254.9 132.7 254.701 132.7 254.401 132.8C253.701 132.9 254.6 132.8 254.2 132.8C254.9 134.5 255.6 136.1 256.2 137.8C263.7 131.7 269.5 123.1 269.3 113C269.2 106.6 266.901 100.3 263.401 94.9999C262.601 93.6999 261.7 92.4999 260.6 91.2999C260.9 91.9999 261.201 92.6999 261.401 93.3999C262.001 86.0999 261.701 77.7999 257.401 71.6999C256.101 69.8999 254.601 68.3999 252.901 66.8999C250.901 65.1999 249.2 63.1999 247 61.9999C242.3 59.2999 236.7 59.0999 231.5 59.0999C232.3 60.5999 233.2 61.9999 234 63.4999C238.2 56.8999 236.1 48.4999 231.5 42.6999C226.2 35.9999 217.4 33.8999 209.2 34.1999C200.7 34.4999 192.1 36.7999 184.1 39.6999C176.2 42.4999 168.6 46.2999 161.6 50.7999C153.6 55.8999 146.2 62.0999 139.8 69.0999C141.4 69.4999 143 69.9999 144.6 70.3999C139.8 52.7999 132.2 35.1999 120 21.4999C114.1 14.8999 107.001 9.29991 98.9005 5.69991C89.4005 1.49991 77.5005 -1.00012 68.0005 4.59988C59.6005 9.59988 55.0005 20.4999 60.1005 29.4999C62.5005 33.7999 66.5004 36.8999 70.3004 39.7999C74.1004 42.6999 77.8005 45.5999 81.0005 49.0999C87.5005 55.9999 92.1005 64.4999 91.9005 74.1999C91.6005 84.1999 87.1005 93.4999 83.6005 102.6C81.8005 107.3 80.2004 112.2 79.3004 117.2C78.6004 121.5 78.3005 126 78.1005 130.4C77.9005 134.5 77.7005 138.7 77.0005 142.5C76.6005 144.4 76.2005 146.3 75.5005 148.2C75.5005 148.2 75.3005 148.7 75.4005 148.4C75.3005 148.6 75.2004 148.8 75.2004 149C75.0004 149.4 74.8005 149.8 74.6005 150.2C74.4005 150.6 74.2005 151 73.9005 151.4C73.6005 151.9 73.5004 152.1 73.3004 152.3C72.1004 153.8 71.0005 154.7 69.4005 155.6C66.5005 156.9 69.3005 161.9 72.5005 160Z" fill="black"/>
<path d="M187.6 61.2C187.5 61.3 187.2 61.5999 187.5 61.2999C187.3 61.3999 187.2 61.4999 187 61.5999C186.5 61.8999 187.3 61.6 186.8 61.7C186.4 61.8 186.7 61.7 186.8 61.7C186.2 61.7 186.4 61.6 186.6 61.7C186.7 61.7 187 61.8 186.6 61.7C186.2 61.6 186.6 61.6999 186.7 61.7999C186.9 61.8999 187.1 62.1999 186.7 61.7999C186.8 61.8999 186.9 61.8999 186.9 61.9999C187.1 62.2999 186.6 61.5999 186.8 61.8999C186.9 61.9999 186.9 62.1 187 62.2C187 62.1 186.8 61.5999 186.9 62.0999C186.9 61.9999 186.9 61.4999 186.9 61.8999C186.9 61.9999 186.9 62.6 186.9 62.2C186.9 61.9 186.8 62.3999 186.8 62.3999C186.6 63.1999 186.9 62.2 186.7 62.7C186.1 64 185.3 64.6999 184.1 65.7999C182.8 67.0999 181.4 68.2999 180.1 69.5999C174.8 74.3999 169.4 78.8999 163.7 83.0999C158.4 86.9999 152.8 90.9999 149.4 96.7999C146.2 102.4 145.2 110 149 115.5C152.4 120.5 158.4 122.9 164.3 122.9C171.2 122.9 177.6 119.5 183.3 115.9C193.7 109.5 203.9 102.5 213 94.2999C221.9 86.1999 229.5 76.6999 234.1 65.4999C234.6 64.0999 235.1 62.7999 235.6 61.3999C236.1 59.8999 235 58.1999 233.6 57.7999C232 57.3999 230.6 58.2999 230.1 59.7999C228.4 65.0999 225.8 70.1999 222.5 75.0999C222.1 75.6999 221.7 76.1999 221.3 76.7999C221.1 76.9999 220.9 77.2999 220.8 77.4999C220.7 77.6999 220.6 77.7999 220.4 77.9999C220.6 77.6999 220.3 78.1 220.2 78.2C219.3 79.3 218.4 80.4999 217.5 81.4999C215.6 83.6999 213.5 85.8999 211.4 87.8999C209.3 89.8999 207.1 91.8999 204.8 93.7999C204.2 94.2999 203.6 94.7999 203 95.2C202.8 95.4 202.5 95.5999 202.3 95.7999C202.1 95.8999 202 96.1 201.8 96.2C202.1 96 201.6 96.2999 201.5 96.3999C200.3 97.2999 199.1 98.1999 197.9 99.0999C193.1 102.6 188.1 105.9 183.1 109.1C180.3 110.9 177.4 112.7 174.4 114.2C172.9 114.9 171.7 115.4 170.2 115.9C169.4 116.1 168.7 116.4 167.9 116.5C167.5 116.6 167.1 116.7 166.7 116.7C166.1 116.8 166.4 116.8 166.5 116.7C166.3 116.7 166.1 116.7 166 116.8C164.6 116.9 163.3 116.9 161.9 116.7C162.4 116.8 161.6 116.6 161.4 116.6C161.1 116.5 160.8 116.5 160.5 116.4C159.8 116.2 159.2 116 158.6 115.8C158.5 115.8 158 115.6 158.3 115.7C158.6 115.8 158.2 115.6 158.2 115.6C157.9 115.5 157.6 115.3 157.4 115.2C156.8 114.9 156.3 114.5 155.7 114.1C156.1 114.4 155.4 113.8 155.3 113.7C155.1 113.5 154.9 113.3 154.7 113.1C154.6 113 154 112.3 154.3 112.7C154.1 112.4 153.9 112.1 153.7 111.8C153.5 111.5 153.4 111.2 153.2 111C153.1 110.9 153.1 110.7 153 110.6C153.2 111 153 110.5 152.9 110.4C152.7 109.7 152.5 109 152.3 108.2C152.2 107.7 152.3 108.6 152.3 108.1C152.3 107.9 152.3 107.8 152.3 107.6C152.3 107.2 152.3 106.9 152.3 106.5C152.3 106.1 152.3 105.8 152.4 105.4C152.4 105.3 152.5 104.8 152.4 105.3C152.4 105.1 152.5 104.9 152.5 104.7C152.6 104 152.8 103.3 153 102.6C153.1 102.2 153.3 101.8 153.4 101.4C153.4 101.4 153.6 100.9 153.5 101.2C153.4 101.3 153.7 100.7 153.7 100.7C154.3 99.5 155.2 98 155.9 97.2C160 92 165.5 88.7999 170.6 84.7999C176.4 80.2999 182 75.4999 187.4 70.4999C189.9 68.1999 192.6 65.5999 192.6 61.8999C192.6 58.5999 189.8 55.8999 186.6 55.8999C184.9 55.8999 183.4 56.8 182.5 58.2C181.7 59.5 182.2 61.4 183.5 62.2C185 63.1 186.7 62.5 187.6 61.2Z" fill="black"/>
<path d="M163 117.3C159.6 120.7 157.6 125.3 157.3 130.1C157 134.9 158.6 139.7 161.7 143.3C164.8 147 169.3 149.3 174 149.9C179.5 150.6 184.6 148.4 189.5 146.2C207.2 138 223.6 127 238.1 113.9C246.2 106.5 253.7 98.4997 260.4 89.7997C261.4 88.5997 261.6 86.8997 260.4 85.6997C259.4 84.6997 257.3 84.4997 256.3 85.6997C245 100.2 231.5 113.2 216.8 123.6C209.3 128.9 201.4 133.7 193.2 137.9C189 140.1 184.7 142.4 180.2 143.6C179.1 143.9 178.1 144.1 177.1 144.2C176.6 144.2 176.1 144.2 175.6 144.2C175.3 144.2 175 144.2 174.7 144.1C174.6 144.1 173.8 144 174.3 144.1C173.4 143.9 172.4 143.7 171.5 143.4C171.2 143.3 171 143.2 170.7 143.1C171.1 143.3 170.7 143.1 170.6 143C170.1 142.7 169.6 142.5 169.1 142.2C168.6 141.9 168.1 141.6 167.7 141.2C168.1 141.5 167.4 140.9 167.4 140.9C167.2 140.7 167 140.5 166.8 140.3C165.9 139.4 165.4 138.9 164.9 138C164.6 137.5 164.3 137 164.1 136.5C164.1 136.5 163.7 135.6 163.9 136.1C163.8 135.8 163.7 135.6 163.6 135.3C163.4 134.8 163.3 134.2 163.1 133.6C163 133.4 163 133.1 163 132.9C163 132.7 163 132.7 163 133C163 132.8 163 132.6 162.9 132.4C162.8 131.3 162.8 130.1 163 129C162.9 129.5 163 129 163 128.9C163.1 128.5 163.1 128.1 163.2 127.8C163.3 127.2 163.5 126.7 163.7 126.1C164.3 124.4 165.4 122.6 166.9 121.1C168 120 168 118.1 166.9 117C165.9 116.2 164.1 116.2 163 117.3Z" fill="black"/>
<path d="M190.3 147.3C190 147.4 189.6 147.5 189.3 147.5C188.8 147.4 188.3 147.2 187.9 147.1C187.1 146.7 187.3 146.5 187 146C187 146 186.9 145.3 187 145.9C187 145.8 187.1 145.2 187 145.8C187 145.7 187.2 145.4 187 145.7C186.6 146.4 186.3 147.3 186.1 148.1C185.7 149.5 185.6 151 185.7 152.5C185.9 155.5 187 158.4 188.6 160.8C192.3 166.3 198.2 169.5 204.7 169.8C212.1 170.2 219.3 167.1 225.6 163.4C231.9 159.7 237.8 155.4 243.2 150.5C247.8 146.4 252.1 141.9 256.3 137.3C257.4 136.2 257.4 134.3 256.3 133.2C255.2 132.1 253.3 132.1 252.2 133.2C248.5 137.2 244.8 141.1 240.9 144.8C235.8 149.5 230.6 153.4 224.8 157.1C219 160.7 212.6 163.9 205.9 164C204.2 164 203 163.9 201.4 163.5C201.1 163.4 200.8 163.3 200.5 163.2C200.3 163.1 199.5 162.8 200 163C199.3 162.7 198.7 162.4 198.1 162C196.8 161.2 196.4 161 195.3 159.8C194.8 159.3 194.4 158.8 194 158.3C193.7 158 194.2 158.6 194 158.3C193.9 158.2 193.8 158.1 193.8 158C193.6 157.7 193.4 157.3 193.2 157C193 156.7 192.8 156.3 192.6 156C192.5 155.8 192.1 155 192.4 155.5C192.1 154.8 191.9 154.1 191.7 153.3C191.7 153.1 191.5 152.2 191.6 152.8C191.6 152.4 191.5 152.1 191.5 151.7C191.5 151.3 191.5 151 191.5 150.6C191.5 150.6 191.5 150.1 191.5 150.5C191.5 150.9 191.5 150.2 191.6 150.1C191.7 149.7 191.8 149.4 191.9 149C191.9 148.9 192 148.8 192 148.6C192.2 147.8 191.9 148.9 192 148.5C192.4 147.5 192.8 146.7 192.7 145.6C192.7 144.5 192.3 143.3 191.5 142.5C190.5 141.5 188.7 141.3 187.5 142.1C186.3 143 185.6 144.6 186.5 146.1C187.1 147.5 189.1 148.2 190.3 147.3Z" fill="black"/>
<path d="M56.2001 196.9C44.0001 209 22.2001 232.4 0.100098 248.3C18.0001 268 36 287.6 54.3 307.1C56.2001 309.1 58.5 311.3 61.3 311C63.1 310.8 64.7001 309.5 66.1001 308.3C87.8001 289.3 107.3 267.9 124.3 244.5C99.8 231.4 76.9001 215.4 56.2001 196.9Z" fill="#2B2728"/>
<path d="M70.6006 154.1C64.8006 149.4 55.8006 151.4 50.6006 156.8C23.6006 184.9 109.601 254.5 143.501 259C156.901 260.8 172.301 250.9 173.101 236.9C173.201 235.1 173.001 233.2 172.101 231.7C170.501 229.1 155.601 240.9 93.7005 183.4C84.8005 175.2 78.0006 163.9 70.6006 154.1Z" fill="#FFCD05"/>
<path d="M72.8001 151.9C68.8001 148.8 64.1002 147.8 59.2002 148.7C55.0002 149.5 50.9002 151.9 48.0002 155.1C44.9002 158.6 43.0002 162.8 42.5002 167.5C42.0002 172 42.9002 176.6 44.4002 180.8C46.2002 185.9 48.8002 190.8 51.8002 195.3C59.0002 206.1 68.1002 215.6 77.7002 224.2C87.8002 233.2 98.8002 241.4 110.4 248.4C115.4 251.4 120.5 254.2 125.9 256.6C130.4 258.6 135 260.4 139.8 261.5C147.3 263.1 154.8 262.1 161.6 258.4C169.2 254.3 175 247 176 238.2C176.3 235.6 176.2 232.7 174.8 230.4C174.4 229.7 174 229.2 173.3 228.8C172.6 228.3 171.9 228.2 171 228.2C170 228.1 169 228.1 167.9 228.1C167.1 228.1 166.3 228 165.4 227.9C166.8 228 165.8 228 165.5 227.9C165.2 227.9 165 227.8 164.7 227.8C164.1 227.7 163.6 227.6 163 227.4C161.7 227.1 160.3 226.7 159 226.3C158.2 226 157.4 225.8 156.7 225.5C156.3 225.3 155.9 225.2 155.5 225C155.3 224.9 155.1 224.8 154.8 224.7C154.7 224.7 154.6 224.6 154.5 224.6C154 224.4 155.3 224.9 154.8 224.7C144.1 220 134.4 213.4 125.1 206.3C124.3 205.7 123.5 205.1 122.7 204.5C122.7 204.5 121.9 203.9 122.4 204.3C122.2 204.1 122 204 121.7 203.8C121.3 203.4 120.8 203.1 120.4 202.7C118.6 201.3 116.8 199.8 115.1 198.4C111.1 195.1 107.3 191.8 103.4 188.3C99.3002 184.6 95.1002 181 91.4002 176.9C87.8002 173 85.0002 169.2 82.0002 164.9C79.0002 160.7 76.1002 156.5 73.1002 152.5C72.1002 151.2 70.4002 150.4 68.9002 151.4C67.6002 152.2 66.8001 154.3 67.8001 155.7C74.0001 164 79.6002 172.9 86.4002 180.6C90.0002 184.6 94.0002 188.2 98.0002 191.8C101.8 195.2 105.6 198.6 109.5 201.8C120.3 210.9 131.7 219.6 144.1 226.4C150.1 229.7 156.6 232.7 163.4 233.8C165.2 234.1 167.1 234.3 168.9 234.4C169.4 234.4 169.9 234.4 170.4 234.4C170.6 234.4 170.8 234.4 170.9 234.4C170.3 234.4 170 234.1 170.5 234.4C171 234.6 169.5 233.9 170.1 234.2C169.3 233.7 169.4 233.6 169.6 233.8C169.8 234 169.1 232.9 169.2 233.2C169.2 233.2 169.7 234.1 169.4 233.6C169.5 233.9 169.6 234.2 169.7 234.5C169.9 235.4 169.7 234 169.8 234.9C169.8 235.2 169.8 235.5 169.8 235.9C169.8 236.4 169.8 236.9 169.7 237.4C169.7 237.7 169.6 237.9 169.6 238.2C169.7 237.5 169.6 238 169.6 238.1C169.5 238.7 169.4 239.3 169.2 239.9C169 240.8 168.7 241.6 168.4 242.4C168.2 242.9 168.7 241.7 168.4 242.5C168.3 242.7 168.2 243 168.1 243.2C167.9 243.7 167.6 244.1 167.4 244.5C167.2 244.9 166.9 245.3 166.7 245.7C166.6 245.9 166.5 246.1 166.3 246.2C166.2 246.3 165.7 247 166.2 246.4C165.6 247.2 164.9 248 164.2 248.7C163.6 249.3 163 249.9 162.3 250.4C162.2 250.5 161.5 251 162.1 250.6C161.9 250.8 161.7 250.9 161.5 251.1C161.1 251.4 160.6 251.7 160.2 252C159.4 252.5 158.6 253 157.7 253.4C157.3 253.6 156.9 253.8 156.5 254C155.7 254.4 157.1 253.8 156.3 254.1C156 254.2 155.7 254.3 155.4 254.4C153.6 255.1 151.7 255.6 149.7 255.9C148.8 256 150.4 255.8 149.5 255.9C149.3 255.9 149.2 255.9 149 256C148.5 256 148 256.1 147.5 256.1C146.6 256.1 145.6 256.1 144.7 256C144.4 256 144.2 256 143.9 255.9C143.6 255.9 142.9 255.6 144 255.9C143.8 255.8 143.6 255.8 143.4 255.8C142.9 255.7 142.4 255.6 141.9 255.5C139.8 255.1 137.8 254.5 135.8 253.8C134.7 253.4 133.6 253 132.5 252.6C131.9 252.4 131.4 252.2 130.8 251.9C130.5 251.8 130.3 251.7 130 251.6C130.9 252.1 129.8 251.5 129.6 251.4C127.1 250.3 124.7 249.2 122.4 247.9C117 245.1 111.8 242 106.8 238.6C104.1 236.8 101.4 235 98.8001 233C97.5001 232 96.1001 231 94.8001 230C94.2001 229.5 93.6002 229.1 93.0002 228.6C92.4002 228.1 93.5002 229 92.9002 228.5C92.7002 228.4 92.5002 228.2 92.4002 228.1C92.0002 227.8 91.7002 227.5 91.4002 227.3C81.3002 219.2 71.7002 210.3 63.5002 200.3C63.0002 199.7 62.6002 199.2 62.1002 198.6C61.9002 198.3 61.6002 198 61.4002 197.7C61.3002 197.6 61.2002 197.5 61.2002 197.4C61.1002 197.3 61.0002 197.2 61.0002 197.1C61.3002 197.5 61.3002 197.5 61.1002 197.3C60.2002 196.2 59.4002 195 58.6002 193.9C57.0002 191.7 55.6002 189.3 54.2002 187C53.6002 185.9 52.9002 184.7 52.4002 183.5C52.2002 183 51.9002 182.5 51.7002 182C51.6002 181.7 51.4002 181.4 51.3002 181.1C51.1002 180.6 51.5002 181.7 51.4002 181.3C51.3002 181.1 51.3002 181 51.2002 180.8C50.4002 178.7 49.7002 176.5 49.2002 174.3C49.1002 173.8 49.0002 173.3 48.9002 172.8C48.9002 172.7 48.9002 172.6 48.9002 172.5C48.8002 171.9 49.0002 173.3 48.9002 172.8C48.9002 172.5 48.8002 172.3 48.8002 172C48.7002 171 48.7002 170 48.7002 168.9C48.7002 168.4 48.8002 168 48.8002 167.5C48.8002 167.4 48.8002 167.3 48.8002 167.2C48.8002 166.7 48.7002 168.1 48.8002 167.5C48.8002 167.2 48.9002 167 48.9002 166.7C49.1002 165.8 49.3002 164.8 49.6002 163.9C49.7002 163.7 49.7002 163.5 49.8002 163.3C49.5002 164 50.1002 162.6 49.8002 163.3C50.0002 162.8 50.2002 162.4 50.5002 161.9C50.7002 161.5 51.0002 161.1 51.2002 160.7C51.3002 160.5 51.4002 160.3 51.6002 160.2C52.1002 159.4 51.2002 160.7 51.7002 160C52.0002 159.6 52.3002 159.3 52.6002 158.9C52.9002 158.6 53.2002 158.3 53.5002 158C53.6002 157.9 53.8002 157.7 53.9002 157.6C54.0002 157.5 54.9002 156.8 54.4002 157.2C55.2002 156.6 56.1002 156 57.0002 155.6C57.2002 155.5 57.3002 155.4 57.5002 155.4C57.6002 155.4 58.4001 155 57.8001 155.3C58.3001 155.1 58.8002 154.9 59.4002 154.8C59.9002 154.6 60.5002 154.5 61.0002 154.4C61.0002 154.4 61.9002 154.3 61.4002 154.3C60.9002 154.4 61.8001 154.3 61.8001 154.3C62.8001 154.2 63.8002 154.2 64.7002 154.3C63.9002 154.2 64.8002 154.3 64.9002 154.4C65.1002 154.4 65.2002 154.5 65.4002 154.5C65.9002 154.6 66.4002 154.8 66.9002 155C66.4002 154.8 66.8002 154.9 66.9002 155C67.1002 155.1 67.4002 155.2 67.6002 155.4C67.8002 155.5 68.1001 155.7 68.3001 155.8C68.4001 155.8 69.1002 156.4 68.6002 156C69.9002 157 71.7002 157.3 73.0002 156C73.8002 155.2 74.1001 153 72.8001 151.9Z" fill="black"/>
<path d="M53.2999 166.5C55.1999 177.8 60.4999 188.4 68.0999 196.8C70.1999 199.1 72.4999 201.3 74.9999 203.2C76.1999 204.2 77.8999 204.4 79.0999 203.2C80.0999 202.2 80.2999 200.1 79.0999 199.1C76.9999 197.4 74.9999 195.7 73.1999 193.7C72.2999 192.7 71.3999 191.7 70.4999 190.7C69.5999 189.6 69.1999 189 68.2999 187.8C66.7999 185.6 65.3999 183.3 64.0999 180.9C62.7999 178.3 61.9999 176.4 61.0999 173.8C60.0999 170.9 59.4 167.9 58.9 164.9C58.6 163.4 56.8 162.5 55.4 162.9C53.7 163.4 52.9999 164.9 53.2999 166.5Z" fill="white"/>
<path d="M80.9004 208.8C82.9004 210.6 85.0004 212.4 87.0004 214.2C87.6004 214.7 88.2004 215 89.0004 215C89.7004 215 90.5004 214.7 91.0004 214.2C91.5004 213.6 91.9003 212.9 91.8003 212.1C91.8003 211.4 91.5004 210.6 91.0004 210C89.0004 208.2 86.9004 206.4 84.9004 204.6C84.3004 204.1 83.7004 203.8 82.9004 203.8C82.2004 203.8 81.4004 204.1 80.9004 204.6C80.4004 205.2 80.0004 205.9 80.1004 206.7C80.1004 207.5 80.4004 208.3 80.9004 208.8Z" fill="white"/>
<path d="M104.2 86.4999C99.2998 97.7999 95.6998 109.7 93.7998 121.9C93.1998 125.5 92.7999 129 92.4999 132.6C92.3999 134.2 93.8999 135.5 95.3999 135.5C97.0999 135.5 98.0998 134.2 98.2998 132.6C99.5998 117.9 103.3 103 109.2 89.3999C109.8 87.9999 109.6 86.2999 108.2 85.3999C106.9 84.7999 104.9 85.0999 104.2 86.4999Z" fill="white"/>
<path d="M91.6998 142.5C91.6998 143.1 91.5999 143.8 91.4999 144.4C91.4999 144.1 91.5999 143.9 91.5999 143.6C91.3999 145.2 90.9999 146.7 90.3999 148.1C90.4999 147.9 90.5998 147.6 90.6998 147.4C90.2998 148.3 89.8999 149.1 89.3999 149.9C88.5999 151.2 89.0999 153.1 90.3999 153.9C91.7999 154.7 93.4998 154.2 94.2998 152.9C96.1998 149.8 97.1999 146.2 97.3999 142.5C97.3999 141 95.9999 139.5 94.4999 139.6C92.9999 139.6 91.6998 140.8 91.6998 142.5Z" fill="white"/>
</svg>
