<?xml version="1.0" encoding="UTF-8"?>
<!DOCTYPE svg PUBLIC "-//W3C//DTD SVG 1.1//EN" "http://www.w3.org/Graphics/SVG/1.1/DTD/svg11.dtd">
<!-- Creator: CorelDRAW X8 -->
<svg xmlns="http://www.w3.org/2000/svg" xml:space="preserve" width="36.2641mm" height="9.7756mm" version="1.1" style="shape-rendering:geometricPrecision; text-rendering:geometricPrecision; image-rendering:optimizeQuality; fill-rule:evenodd; clip-rule:evenodd"
viewBox="0 0 3633 979"
 xmlns:xlink="http://www.w3.org/1999/xlink">
 <defs>
  <style type="text/css">
   <![CDATA[
    .fil0 {fill:white;fill-rule:nonzero}
   ]]>
  </style>
 </defs>
 <g id="Capa_x0020_1">
  <metadata id="CorelCorpID_0Corel-Layer"/>
  <g id="_1956533986560">
   <g>
    <g>
     <path class="fil0" d="M1825 431c34,-87 123,-143 216,-141 127,3 187,112 167,229 -19,110 -89,199 -175,266 -68,54 -161,154 -255,153 -79,0 -176,-100 -228,-150 -77,-75 -148,-171 -150,-282 -1,-108 59,-220 176,-222 89,-1 175,55 205,139 9,23 47,13 38,-11 -50,-136 -232,-221 -359,-131 -185,130 -80,389 44,516 56,58 160,165 244,180 92,17 177,-58 243,-109 97,-76 182,-143 230,-260 35,-82 50,-193 -5,-271 -113,-162 -366,-79 -429,84 -9,23 29,33 38,10z"/>
    </g>
   </g>
   <g>
    <g>
     <path class="fil0" d="M1712 854c-65,-26 -116,-87 -161,-139 -60,-69 -110,-147 -109,-241 0,-14 -22,-14 -22,0 0,91 43,168 100,238 50,62 110,132 186,163 13,5 18,-16 6,-21z"/>
    </g>
   </g>
   <g>
    <g>
     <g>
      <path class="fil0" d="M2333 585c432,-3 939,-94 1189,-487 11,-17 -16,-32 -26,-15 -244,383 -743,469 -1163,471 -20,0 -20,31 0,31z"/>
     </g>
    </g>
    <g>
     <g>
      <g>
       <path class="fil0" d="M2530 567c49,-44 108,-79 145,-137 22,-35 51,-106 5,-137 -42,-29 -92,20 -111,55 -36,63 -35,140 -77,201 -11,16 16,31 27,15 22,-33 34,-71 44,-109 10,-38 29,-132 79,-136 11,-8 18,-5 21,10 11,9 14,20 8,34 -3,14 -9,28 -16,41 -12,21 -28,40 -46,57 -32,31 -68,55 -101,85 -15,13 7,34 22,21z"/>
      </g>
     </g>
     <g>
      <g>
       <path class="fil0" d="M2559 581c49,-1 98,8 144,22 23,8 46,16 66,29 13,9 30,19 19,34 -8,12 -35,8 -46,7 -75,-12 -161,-65 -208,-123 -12,-15 -34,7 -21,22 40,49 100,85 158,110 38,16 110,42 144,6 32,-34 -14,-74 -43,-90 -63,-34 -142,-49 -213,-48 -20,0 -20,31 0,31z"/>
      </g>
     </g>
     <g>
      <g>
       <path class="fil0" d="M2827 530c56,-39 287,-219 165,-295 -47,-30 -87,12 -111,50 -46,75 -65,162 -110,237 -10,17 16,32 26,16 23,-37 39,-77 55,-116 19,-47 38,-118 79,-151 45,-37 71,15 51,58 -12,25 -29,48 -47,69 -36,41 -79,75 -123,106 -16,11 -1,37 15,26z"/>
      </g>
     </g>
     <g>
      <g>
       <path class="fil0" d="M2850 531c29,-5 62,-2 91,1 27,2 97,3 115,29 15,22 -12,40 -34,42 -28,3 -61,-14 -85,-26 -41,-20 -78,-47 -118,-70 -16,-9 -28,11 -18,24 2,3 5,6 8,10 12,15 33,-7 21,-22 -2,-3 -5,-6 -8,-10 -6,8 -12,16 -18,24 61,35 120,85 190,98 40,7 104,-11 98,-63 -8,-80 -196,-75 -250,-66 -20,3 -11,33 8,29z"/>
      </g>
     </g>
     <g>
      <g>
       <path class="fil0" d="M3129 432c48,-45 103,-72 122,-140 9,-33 9,-95 -29,-112 -40,-16 -68,33 -80,62 -24,60 -23,131 -64,184 -12,15 15,31 27,15 44,-57 39,-133 69,-197 11,-23 38,-45 50,-6 9,27 -6,60 -19,82 -24,40 -65,59 -97,90 -15,14 7,35 21,22z"/>
      </g>
     </g>
     <g>
      <g>
       <path class="fil0" d="M3146 424c49,-24 107,-34 162,-36 15,0 80,-2 88,8 28,43 -30,35 -48,36 -84,1 -175,-35 -258,-10 -18,5 -10,35 8,29 88,-26 186,17 276,11 30,-2 87,-16 77,-59 -8,-36 -67,-42 -96,-44 -74,-7 -158,6 -224,39 -18,8 -3,35 15,26z"/>
      </g>
     </g>
     <g>
      <g>
       <path class="fil0" d="M3357 278c38,-53 76,-112 82,-179 3,-29 2,-97 -41,-99 -39,-2 -51,55 -59,82 -20,66 -5,147 -35,208 -9,17 18,33 26,15 31,-63 17,-140 36,-207 3,-11 14,-66 41,-48 15,10 -2,71 -7,86 -14,47 -41,88 -69,127 -12,16 15,31 26,15z"/>
      </g>
     </g>
     <g>
      <g>
       <path class="fil0" d="M3397 250c40,-20 77,-42 121,-55 21,-6 47,-14 69,-13 14,1 13,-7 7,3 -5,11 -28,18 -38,22 -61,22 -154,0 -204,47 -15,14 7,35 21,22 42,-39 133,-21 186,-38 24,-7 82,-33 74,-68 -8,-31 -49,-19 -72,-15 -67,10 -120,40 -179,68 -18,9 -3,35 15,27z"/>
      </g>
     </g>
    </g>
    <g>
     <g>
      <path class="fil0" d="M2719 656c14,0 14,-21 0,-21 -14,0 -14,21 0,21z"/>
     </g>
    </g>
    <g>
     <g>
      <path class="fil0" d="M2626 383c14,0 14,-21 0,-21 -14,0 -14,21 0,21z"/>
     </g>
    </g>
    <g>
     <g>
      <path class="fil0" d="M2934 340c1,0 2,0 3,0 14,0 14,-22 0,-22 -1,0 -2,0 -3,0 -14,0 -14,22 0,22z"/>
     </g>
    </g>
    <g>
     <g>
      <path class="fil0" d="M3013 584c14,0 14,-22 0,-22 -15,0 -15,22 0,22z"/>
     </g>
    </g>
    <g>
     <g>
      <path class="fil0" d="M3341 424c14,0 14,-22 0,-22 -14,0 -14,22 0,22z"/>
     </g>
    </g>
    <g>
     <g>
      <path class="fil0" d="M3190 282c14,0 14,-22 0,-22 -14,0 -14,22 0,22z"/>
     </g>
    </g>
    <g>
     <g>
      <path class="fil0" d="M3381 110c14,0 14,-21 0,-21 -14,0 -14,21 0,21z"/>
     </g>
    </g>
    <g>
     <g>
      <path class="fil0" d="M3533 204c0,1 0,2 0,3 0,14 22,14 22,0 0,-1 0,-2 0,-3 0,-14 -22,-14 -22,0z"/>
     </g>
    </g>
   </g>
   <g>
    <g>
     <g>
      <path class="fil0" d="M1301 554c-421,-2 -920,-88 -1163,-471 -11,-17 -37,-2 -27,15 250,393 757,484 1190,487 19,0 19,-31 0,-31z"/>
     </g>
    </g>
    <g>
     <g>
      <g>
       <path class="fil0" d="M1125 546c-31,-28 -66,-52 -96,-80 -18,-17 -35,-35 -47,-56 -13,-21 -45,-104 9,-91 50,12 66,88 77,130 11,40 23,80 47,115 10,16 37,1 26,-15 -40,-59 -41,-134 -74,-196 -19,-36 -70,-91 -114,-60 -43,29 -18,97 2,132 36,60 98,97 149,142 14,13 36,-8 21,-21z"/>
      </g>
     </g>
     <g>
      <g>
       <path class="fil0" d="M1075 550c-70,-1 -145,14 -208,46 -30,14 -83,55 -49,92 33,35 102,11 138,-4 60,-24 123,-61 165,-112 12,-15 -9,-37 -22,-22 -47,58 -133,111 -207,123 -31,4 -70,-5 -35,-35 18,-16 43,-25 66,-32 49,-17 100,-26 152,-25 19,0 19,-31 0,-31z"/>
      </g>
     </g>
     <g>
      <g>
       <path class="fil0" d="M822 504c-43,-30 -84,-62 -119,-100 -20,-22 -39,-47 -52,-75 -18,-39 4,-100 52,-58 38,34 57,97 75,143 17,42 34,85 58,124 10,16 37,1 27,-16 -45,-72 -64,-157 -107,-230 -23,-40 -64,-88 -115,-57 -122,76 110,256 165,295 16,11 32,-15 16,-26z"/>
      </g>
     </g>
     <g>
      <g>
       <path class="fil0" d="M792 502c-55,-9 -243,-14 -251,66 -5,50 54,70 93,64 73,-11 134,-63 195,-99 -6,-8 -12,-16 -18,-24 -3,4 -5,7 -8,10 -12,15 10,37 22,22 2,-4 5,-7 8,-10 10,-13 -3,-33 -19,-24 -40,23 -76,50 -117,70 -24,12 -54,27 -81,26 -23,-1 -55,-18 -39,-42 18,-26 88,-27 115,-29 30,-3 62,-6 91,-1 20,4 28,-26 9,-29z"/>
      </g>
     </g>
     <g>
      <g>
       <path class="fil0" d="M526 410c-33,-31 -73,-50 -98,-90 -13,-22 -27,-55 -19,-82 12,-39 39,-17 50,6 31,64 26,140 70,197 11,16 38,0 26,-15 -40,-52 -39,-122 -63,-182 -12,-29 -40,-81 -80,-64 -37,16 -38,73 -31,104 16,73 74,101 123,148 14,13 36,-8 22,-22z"/>
      </g>
     </g>
     <g>
      <g>
       <path class="fil0" d="M503 398c-64,-32 -142,-44 -213,-40 -30,2 -99,5 -108,45 -9,39 40,55 69,58 93,12 192,-37 284,-10 19,6 27,-24 8,-29 -83,-25 -174,10 -258,10 -19,0 -78,7 -47,-36 9,-13 74,-8 88,-8 54,2 112,12 161,36 18,9 33,-18 16,-26z"/>
      </g>
     </g>
     <g>
      <g>
       <path class="fil0" d="M303 263c-27,-37 -53,-75 -68,-119 -5,-16 -26,-83 -9,-94 27,-18 38,37 41,48 19,67 5,144 36,207 9,18 35,2 27,-15 -29,-59 -16,-136 -33,-200 -8,-28 -21,-92 -61,-90 -43,2 -45,68 -42,97 6,68 44,128 82,181 12,16 38,1 27,-15z"/>
      </g>
     </g>
     <g>
      <g>
       <path class="fil0" d="M252 223c-57,-27 -108,-56 -171,-67 -23,-4 -72,-19 -80,14 -8,33 44,58 66,66 26,10 54,12 82,15 31,3 86,1 111,25 15,13 36,-8 22,-22 -50,-47 -144,-25 -205,-47 -11,-5 -22,-9 -32,-17 -10,-8 -15,-6 -6,-9 16,-6 51,8 68,12 47,13 86,36 129,57 18,8 33,-18 16,-27z"/>
      </g>
     </g>
    </g>
    <g>
     <g>
      <path class="fil0" d="M989 381c0,1 0,2 0,3 0,14 22,14 22,0 0,-1 0,-2 0,-3 0,-14 -22,-14 -22,0z"/>
     </g>
    </g>
    <g>
     <g>
      <path class="fil0" d="M904 656c14,0 14,-21 0,-21 -14,0 -14,21 0,21z"/>
     </g>
    </g>
    <g>
     <g>
      <path class="fil0" d="M689 325c14,0 14,-22 0,-22 -14,0 -14,22 0,22z"/>
     </g>
    </g>
    <g>
     <g>
      <path class="fil0" d="M631 581c14,0 14,-22 0,-22 -14,0 -14,22 0,22z"/>
     </g>
    </g>
    <g>
     <g>
      <path class="fil0" d="M433 282c14,0 14,-22 0,-22 -14,0 -14,22 0,22z"/>
     </g>
    </g>
    <g>
     <g>
      <path class="fil0" d="M277 421c14,0 14,-22 0,-22 -14,0 -15,22 0,22z"/>
     </g>
    </g>
    <g>
     <g>
      <path class="fil0" d="M239 99c14,0 14,-22 0,-22 -14,0 -14,22 0,22z"/>
     </g>
    </g>
    <g>
     <g>
      <path class="fil0" d="M79 206c14,0 14,-22 0,-22 -14,0 -14,22 0,22z"/>
     </g>
    </g>
   </g>
  </g>
 </g>
</svg>
