<?xml version="1.0" encoding="UTF-8"?>
<!DOCTYPE svg PUBLIC "-//W3C//DTD SVG 1.1//EN" "http://www.w3.org/Graphics/SVG/1.1/DTD/svg11.dtd">
<!-- Creator: CorelDRAW X8 -->
<svg xmlns="http://www.w3.org/2000/svg" xml:space="preserve" width="75.9659mm" height="61.6615mm" version="1.1" style="shape-rendering:geometricPrecision; text-rendering:geometricPrecision; image-rendering:optimizeQuality; fill-rule:evenodd; clip-rule:evenodd"
viewBox="0 0 7952 6454"
 xmlns:xlink="http://www.w3.org/1999/xlink">
 <defs>
  <style type="text/css">
   <![CDATA[
    .fil5 {fill:#0C2D52;fill-rule:nonzero}
    .fil2 {fill:#8E111A;fill-rule:nonzero}
    .fil1 {fill:#BD1621;fill-rule:nonzero}
    .fil3 {fill:white;fill-rule:nonzero}
    .fil4 {fill:white;fill-rule:nonzero}
    .fil0 {fill:#3B3B3B;fill-rule:nonzero;fill-opacity:0.301961}
   ]]>
  </style>
 </defs>
 <g id="Capa_x0020_1">
  <metadata id="CorelCorpID_0Corel-Layer"/>
  <g id="_1956417525648">
   <path class="fil0" d="M6750 5432c0,0 153,-89 287,38 134,126 119,267 3,382 -179,175 -678,135 -678,135l388 -555z"/>
   <path class="fil0" d="M6582 5346c0,0 -18,-175 -199,-209 -181,-35 -287,60 -311,222 -36,248 290,628 290,628l220 -641z"/>
   <path class="fil1" d="M6362 5987c0,0 540,-33 705,-247 108,-140 103,-294 -60,-409 -163,-115 -313,3 -313,3 0,0 7,-191 -182,-255 -188,-63 -316,22 -366,192 -76,260 216,716 216,716z"/>
   <path class="fil2" d="M6694 5334c0,0 7,-191 -182,-255 -188,-63 -316,22 -366,192 -76,260 216,716 216,716l332 -653z"/>
  </g>
  <g id="_1956417512688">
   <path class="fil3" d="M344 4410c13,-6 27,-12 42,-18 36,-14 72,-27 109,-39 -17,-16 -38,-28 -60,-35 -23,-7 -46,-11 -69,-11 -8,0 -13,-4 -17,-11 -1,-3 -1,-5 -1,-8 0,-4 1,-8 5,-12 51,-50 99,-103 145,-158 12,-14 26,-32 43,-54 17,-23 32,-46 45,-70 14,-25 21,-45 21,-63 0,-4 -1,-8 -4,-11 -4,-6 -10,-10 -17,-13 -9,-2 -18,-4 -27,-4 -18,0 -45,3 -83,9 -37,6 -69,11 -96,15 -48,9 -86,15 -116,19 3,8 6,17 8,25 11,36 20,72 28,108 13,66 24,131 31,198 6,43 10,86 13,130l0 2 0 1zm-224 -492c14,0 28,-1 41,-3 -8,-19 -21,-43 -39,-70 -18,-28 -34,-42 -48,-42 -8,0 -17,6 -25,17 -9,11 -13,26 -13,43 0,11 4,20 11,28 8,9 19,16 33,21 14,4 27,6 40,6zm401 465c-59,18 -117,40 -174,65 -10,5 -20,10 -30,16 -34,17 -64,39 -90,66 -10,10 -18,22 -24,34 -6,12 -10,26 -10,39 0,30 12,54 35,74 24,19 60,29 111,29 56,0 105,-22 146,-68 42,-45 63,-100 63,-165 0,-28 -7,-55 -21,-80 -2,-4 -4,-7 -6,-10zm55 -54c132,-38 224,-60 277,-68l2 0c3,0 6,0 8,2 3,2 5,5 6,9l0 1c0,3 -1,6 -3,9 -2,3 -5,4 -9,5 -39,6 -124,30 -254,72 3,5 6,10 9,15 17,32 25,64 25,99 0,73 -29,136 -89,190 -59,54 -130,80 -213,81 -63,-1 -110,-13 -140,-39 -31,-26 -47,-60 -48,-101 0,-23 6,-45 18,-64 12,-19 28,-36 46,-52 18,-15 37,-28 56,-38 14,-9 28,-17 43,-24 -11,-1 -22,-3 -32,-7 -6,-2 -11,-5 -16,-10 -5,-4 -8,-9 -9,-16 -3,-43 -8,-86 -13,-129 -7,-60 -17,-119 -29,-177 -10,-45 -21,-89 -36,-132 -11,1 -22,1 -34,1 -17,0 -34,-2 -51,-5 -17,-3 -31,-8 -45,-15 -13,-7 -24,-16 -32,-28 -9,-12 -13,-27 -13,-45 0,-22 5,-42 16,-61 10,-19 26,-33 46,-42 11,-4 22,-6 34,-6 9,0 18,1 26,3 28,8 50,24 69,46 18,23 33,47 44,72 5,9 9,19 13,29 15,-3 31,-5 46,-8 45,-8 81,-14 108,-18 28,-4 58,-8 87,-12 29,-3 59,-5 88,-5 12,0 25,1 39,3 15,1 28,5 41,11 13,5 23,14 30,24 6,10 9,21 9,32 0,22 -7,46 -21,72 -13,27 -29,52 -47,77 -18,24 -34,45 -49,62 -38,45 -78,89 -119,132 44,6 83,24 116,55z"/>
   <path id="1" class="fil3" d="M1050 4350c-3,13 -8,28 -14,44 -7,15 -15,31 -26,45 -10,15 -24,27 -40,36 -17,9 -38,14 -62,14 -15,0 -28,-3 -40,-10 -12,-6 -22,-16 -31,-28 -11,-15 -19,-31 -23,-48 -4,-17 -6,-35 -6,-54 0,-18 3,-38 11,-59 7,-21 16,-39 28,-54 16,-20 36,-35 57,-45 22,-10 46,-15 71,-15 17,0 31,2 43,5 14,5 29,10 45,16 7,-2 15,-3 21,-3 9,0 17,2 26,5 5,2 10,5 14,9 5,5 7,10 7,16 -1,14 -1,27 -1,41l0 13c0,21 1,42 2,64 3,22 6,44 12,65 2,12 7,22 14,31 1,3 4,5 7,8 2,2 6,3 9,3 6,0 11,-3 16,-7 6,-5 10,-10 14,-14 17,-22 35,-49 52,-79 18,-30 32,-58 44,-84 1,-4 4,-6 7,-7 2,-1 3,-1 5,-1 1,0 3,1 5,1 4,2 6,5 7,8 1,2 2,3 2,5 0,2 -1,3 -2,5l-10 23c-12,26 -24,51 -36,76 -13,24 -29,49 -49,73 -6,9 -15,18 -24,27 -9,9 -19,17 -29,23 -11,6 -23,9 -34,9 -17,0 -31,-5 -42,-16 -11,-11 -19,-24 -26,-39 -6,-15 -11,-30 -14,-44 -4,-19 -8,-39 -10,-58zm-9 -60c4,-14 6,-35 6,-63 -17,-9 -33,-14 -45,-14 -17,0 -32,5 -48,15 -15,10 -27,22 -37,36 -7,11 -14,25 -19,41 -5,16 -7,31 -7,44 0,13 1,25 4,37 2,12 6,23 12,35 6,14 17,22 31,22 19,-1 35,-10 48,-28 13,-18 25,-39 34,-62 8,-24 16,-45 21,-63z"/>
   <path id="2" class="fil3" d="M1678 4263c2,-3 5,-5 8,-6 1,-1 2,-1 4,-1 2,0 4,0 6,2 3,1 6,4 7,7 0,2 0,3 0,4 0,2 0,4 -1,6 -6,13 -13,26 -19,39 -19,37 -38,74 -58,111 -21,37 -43,71 -68,102 -4,7 -10,14 -17,21 -8,8 -15,14 -24,20 -8,5 -16,8 -25,8 -4,0 -8,-1 -11,-2 -11,-5 -18,-14 -21,-27 -4,-13 -5,-24 -5,-35 0,-18 0,-35 2,-53 2,-18 4,-35 7,-53 0,-4 0,-8 1,-12 2,-12 4,-25 5,-37 2,-13 2,-26 2,-38 0,-6 -1,-9 -4,-9 -3,0 -8,3 -12,9 -2,3 -5,7 -7,11 -11,18 -20,37 -28,56 -11,27 -21,54 -29,82 -3,11 -6,24 -11,40 -4,16 -10,24 -17,24 -5,0 -9,0 -13,-1 -16,-5 -29,-13 -39,-25 -13,-15 -21,-31 -25,-49 -9,-54 -15,-108 -19,-162 -1,-22 -2,-44 -2,-66l0 -8c0,-23 1,-46 3,-69 2,-30 9,-61 19,-92 11,-31 29,-56 54,-75 21,-13 44,-20 69,-20 23,0 40,7 52,22 11,15 17,34 17,55 0,26 -6,50 -19,71 -13,22 -30,41 -50,57 -19,16 -40,30 -62,40 0,20 0,41 1,61 3,55 9,111 17,166 7,-22 15,-43 23,-63 5,-12 11,-24 18,-38 7,-14 15,-28 24,-41 10,-13 20,-24 32,-32 12,-9 24,-13 38,-13 13,0 24,3 31,10 8,7 14,15 17,26 4,10 5,21 5,33 0,14 0,27 -2,40 -2,14 -3,27 -5,41 -1,3 -1,7 -2,11 -5,32 -7,56 -7,73 0,6 1,8 1,8 3,0 6,-3 11,-9 48,-70 91,-143 128,-220zm-329 -92c16,-8 31,-19 46,-32 15,-13 27,-27 37,-44 9,-16 14,-33 14,-53 0,-6 -1,-13 -3,-21 -3,-8 -9,-12 -17,-12 -7,0 -13,2 -20,7 -21,17 -35,41 -43,71 -8,30 -12,58 -14,84z"/>
   <path id="3" class="fil3" d="M1922 4275c-11,41 -24,82 -36,122 -13,41 -29,80 -48,119 -12,26 -27,51 -45,74 -5,5 -10,10 -16,15 -10,9 -22,14 -36,14l-3 0c-17,-3 -31,-12 -42,-29 -12,-17 -20,-36 -27,-56 -6,-21 -11,-39 -13,-54 -8,-41 -12,-82 -13,-124 0,-11 0,-21 0,-32 0,-36 2,-72 5,-108 1,-4 3,-7 6,-10 3,-3 7,-4 11,-4 14,0 28,2 42,8 4,1 7,3 10,5 9,5 13,13 13,22 -3,28 -4,57 -4,85 0,7 0,14 0,21 0,37 3,73 9,109 1,7 2,15 4,22 2,12 5,24 8,36 1,7 3,14 5,20 2,6 5,12 7,18 2,4 4,8 6,12 1,0 1,1 2,2 1,1 2,1 3,1 0,0 0,0 1,0 0,0 0,0 1,-1 0,0 0,0 1,-1 2,-2 3,-4 5,-6 5,-7 10,-14 13,-21 7,-11 12,-22 18,-33 36,-75 65,-153 87,-233 1,-4 3,-7 6,-8 2,-1 4,-2 7,-2 1,0 2,0 3,0 4,2 6,4 8,7 1,2 2,4 2,6 0,2 0,3 0,4zm-197 -270c23,1 34,10 34,29 0,9 -12,35 -37,78 -11,20 -22,30 -32,30 -8,0 -13,-5 -13,-17 0,-10 3,-33 11,-68 7,-34 19,-52 37,-52z"/>
   <path id="4" class="fil3" d="M2104 4350c-4,13 -9,28 -15,44 -6,15 -15,31 -25,45 -11,15 -24,27 -41,36 -17,9 -37,14 -62,14 -14,0 -28,-3 -40,-10 -12,-6 -22,-16 -31,-28 -11,-15 -18,-31 -23,-48 -4,-17 -6,-35 -6,-54 0,-18 4,-38 11,-59 7,-21 17,-39 29,-54 16,-20 35,-35 57,-45 22,-10 45,-15 71,-15 16,0 30,2 42,5 15,5 30,10 46,16 7,-2 14,-3 21,-3 8,0 16,2 25,5 5,2 10,5 15,9 4,5 6,10 6,16 0,14 -1,27 -1,41l0 13c0,21 1,42 3,64 2,22 6,44 11,65 3,12 7,22 14,31 2,3 4,5 7,8 3,2 6,3 9,3 6,0 11,-3 17,-7 5,-5 9,-10 13,-14 17,-22 35,-49 52,-79 18,-30 32,-58 44,-84 2,-4 4,-6 8,-7 1,-1 2,-1 4,-1 2,0 4,1 6,1 3,2 5,5 6,8 1,2 2,3 2,5 0,2 -1,3 -2,5l-10 23c-11,26 -24,51 -36,76 -13,24 -29,49 -48,73 -7,9 -15,18 -24,27 -9,9 -19,17 -30,23 -11,6 -22,9 -34,9 -17,0 -31,-5 -41,-16 -11,-11 -20,-24 -26,-39 -7,-15 -12,-30 -15,-44 -4,-19 -7,-39 -9,-58zm-10 -60c4,-14 6,-35 7,-63 -18,-9 -33,-14 -46,-14 -16,0 -32,5 -47,15 -15,10 -28,22 -37,36 -8,11 -14,25 -19,41 -5,16 -8,31 -8,44 0,13 1,25 4,37 2,12 6,23 12,35 7,14 17,22 32,22 18,-1 34,-10 47,-28 14,-18 25,-39 34,-62 9,-24 16,-45 21,-63z"/>
   <path id="5" class="fil3" d="M2830 4245c-19,-19 -39,-37 -60,-54 -5,-4 -10,-8 -16,-12 -21,-18 -42,-36 -63,-54 -20,-19 -38,-40 -53,-63 -26,-39 -39,-81 -39,-128 0,-27 6,-53 16,-76 11,-24 28,-43 52,-59 15,-9 31,-16 48,-20 17,-4 35,-7 52,-7 28,0 54,8 80,22 28,17 50,40 64,69 14,28 21,59 23,92l0 1c0,5 -2,8 -5,12 -3,3 -8,5 -13,6 -5,0 -9,-2 -13,-5 -4,-4 -5,-8 -6,-13 0,-20 -4,-41 -12,-60 -7,-20 -18,-37 -32,-52 -9,-8 -18,-15 -27,-20 -10,-4 -21,-7 -33,-7 -10,0 -21,2 -32,5 -11,3 -21,7 -29,13 -16,12 -27,27 -33,44 -7,18 -10,36 -10,55 0,24 6,47 17,69 8,16 18,30 30,43 12,14 25,26 38,38 15,13 30,25 46,37 17,14 34,28 50,43 25,22 47,46 67,72l16 0c29,0 62,2 99,6 45,5 82,10 113,16 4,0 7,2 9,5 1,2 2,4 2,7 0,1 0,2 -1,3 0,4 -2,7 -5,9 -2,1 -4,2 -7,2 -1,0 -2,0 -3,0 -36,-7 -65,-11 -90,-12 -13,-1 -27,-1 -42,-1 -10,0 -21,0 -32,0 -11,1 -23,1 -36,1 23,44 35,91 35,142 0,53 -11,95 -33,127 -22,31 -52,54 -90,69 -38,14 -81,21 -129,21 -38,0 -72,-6 -103,-19 -31,-13 -56,-33 -74,-60 -19,-26 -28,-59 -28,-100 0,-22 4,-43 13,-63 16,-32 39,-57 71,-77 31,-19 65,-34 102,-45 37,-10 73,-18 106,-22zm29 33c-20,3 -39,6 -58,10 -23,5 -45,11 -66,19 -16,5 -33,12 -50,21 -17,9 -32,19 -46,31 -15,12 -26,25 -35,41 -9,15 -13,33 -13,52 0,20 3,38 10,55 7,17 19,32 34,45 15,12 31,21 50,27 18,6 37,8 56,8 28,0 54,-6 80,-19 29,-16 50,-37 64,-65 13,-27 20,-57 20,-89 0,-51 -15,-95 -45,-134 0,-1 -1,-1 -1,-2z"/>
   <path id="6" class="fil3" d="M3333 4400c-11,1 -22,2 -33,2 -18,0 -32,-4 -45,-13 -12,-10 -21,-21 -27,-36 -6,-14 -9,-29 -9,-46 0,-24 7,-45 21,-62 14,-17 34,-25 60,-25 12,0 23,3 34,10 10,8 18,18 24,30 5,13 9,26 11,40 2,14 3,27 3,38 0,7 0,13 0,19 24,-7 44,-15 58,-22 15,-6 33,-18 55,-35 19,-14 37,-30 53,-47 3,-2 6,-4 10,-4 3,0 7,2 9,4 3,3 4,6 4,9 0,4 -1,7 -3,10 -16,16 -34,32 -53,46 -21,17 -42,32 -64,44 -21,13 -46,23 -73,31 -4,28 -14,57 -28,86 -14,29 -35,49 -63,61 -10,4 -21,6 -32,6 -13,0 -26,-3 -38,-8 -16,-6 -29,-16 -40,-28 -12,-12 -21,-25 -28,-40 -16,-34 -24,-69 -24,-104 0,-32 7,-61 19,-88 13,-27 31,-49 55,-66 24,-16 52,-25 86,-25l0 0c5,2 9,4 11,8 2,3 3,6 3,9 0,1 0,2 -1,3 -1,4 -2,7 -5,10 -3,2 -7,3 -11,3 -16,0 -30,6 -39,16 -10,10 -18,23 -22,39 -5,15 -9,32 -10,48 -2,17 -3,31 -3,43 0,9 1,21 3,36 2,15 6,30 11,45 5,15 11,27 20,38 8,10 18,15 31,15 10,0 20,-4 28,-12 9,-8 15,-16 20,-26 10,-19 17,-40 22,-62zm5 -35c1,-9 1,-18 1,-27 0,-5 0,-12 -1,-22 -1,-9 -3,-19 -5,-28 -3,-9 -7,-17 -12,-24 -4,-6 -11,-9 -18,-9 -9,0 -16,3 -21,8 -5,6 -8,13 -10,22 -2,8 -3,15 -3,22 0,9 1,18 4,27 3,10 7,18 13,24 6,7 14,10 25,10 9,0 18,-1 27,-3z"/>
   <path id="7" class="fil3" d="M3584 4246c0,5 0,10 0,14 0,20 1,40 2,61 1,27 4,54 6,82 3,19 5,39 9,59 3,17 7,34 11,51 1,2 2,4 3,6 2,2 4,3 6,3 4,0 7,-1 11,-4 4,-3 7,-6 9,-9 23,-29 47,-67 71,-114 24,-47 41,-89 50,-128 1,-4 3,-7 6,-9 2,-1 5,-2 7,-2l3 1c3,1 6,3 8,6 2,2 3,4 3,7 0,1 -1,2 -1,3 -18,83 -53,161 -104,234 -7,10 -16,21 -26,34 -11,12 -22,22 -35,31 -12,9 -25,14 -39,14 -23,0 -42,-25 -59,-76 -16,-51 -24,-117 -24,-198 0,-126 15,-220 44,-282 29,-63 67,-94 113,-94 13,0 25,3 36,10 12,7 20,17 26,29 5,12 8,25 8,38 0,29 -8,57 -24,86 -15,29 -34,57 -55,82 -22,25 -44,47 -65,65zm2 -46c5,-6 10,-11 15,-16 14,-14 28,-30 42,-49 14,-19 26,-39 36,-60 10,-21 15,-42 15,-62 0,-8 -1,-16 -5,-25 -2,-5 -7,-7 -12,-7 -4,0 -8,0 -12,2 -4,1 -7,3 -10,5 -17,15 -30,35 -39,59 -10,25 -17,51 -22,78 -4,27 -7,52 -8,75z"/>
   <path id="8" class="fil3" d="M3970 4350c-4,13 -9,28 -15,44 -6,15 -15,31 -25,45 -11,15 -24,27 -41,36 -16,9 -37,14 -62,14 -14,0 -27,-3 -39,-10 -12,-6 -23,-16 -32,-28 -10,-15 -18,-31 -22,-48 -4,-17 -6,-35 -6,-54 0,-18 3,-38 10,-59 7,-21 17,-39 29,-54 16,-20 35,-35 57,-45 22,-10 46,-15 71,-15 16,0 31,2 42,5 15,5 30,10 46,16 7,-2 14,-3 21,-3 8,0 17,2 25,5 6,2 10,5 15,9 4,5 6,10 6,16 0,14 -1,27 -1,41l0 13c0,21 1,42 3,64 2,22 6,44 11,65 3,12 7,22 14,31 2,3 4,5 7,8 3,2 6,3 10,3 5,0 10,-3 16,-7 5,-5 10,-10 13,-14 18,-22 35,-49 53,-79 17,-30 32,-58 44,-84 1,-4 3,-6 7,-7 1,-1 3,-1 4,-1 2,0 4,1 6,1 3,2 6,5 7,8 1,2 1,3 1,5 0,2 0,3 -1,5l-11 23c-11,26 -23,51 -36,76 -13,24 -29,49 -48,73 -7,9 -15,18 -24,27 -9,9 -19,17 -30,23 -11,6 -22,9 -34,9 -17,0 -30,-5 -41,-16 -11,-11 -20,-24 -26,-39 -7,-15 -11,-30 -15,-44 -4,-19 -7,-39 -9,-58zm-10 -60c4,-14 6,-35 7,-63 -18,-9 -33,-14 -46,-14 -16,0 -32,5 -47,15 -15,10 -27,22 -37,36 -8,11 -14,25 -19,41 -5,16 -7,31 -7,44 0,13 1,25 3,37 2,12 6,23 12,35 7,14 17,22 32,22 18,-1 34,-10 48,-28 13,-18 24,-39 33,-62 9,-24 16,-45 21,-63z"/>
   <path id="9" class="fil3" d="M4298 4372c3,-12 8,-24 13,-35 13,-35 30,-67 49,-98 5,-7 10,-15 16,-22 7,-8 14,-15 21,-20 8,-6 16,-8 25,-8 5,0 11,1 15,3 16,9 26,23 30,44 4,21 6,46 7,75 0,20 -1,39 -3,58 -1,23 -3,50 -6,82 -3,33 -5,57 -5,74 0,12 1,25 3,40 3,14 6,21 11,21 14,0 42,-52 82,-155 41,-103 62,-158 65,-165 2,-3 4,-6 8,-7 1,0 2,-1 4,-1 2,0 4,1 6,2 3,2 6,4 7,8 0,1 1,2 1,4 0,2 -1,4 -2,6 -3,6 -23,58 -61,155 -37,97 -67,158 -89,183 -21,24 -42,37 -62,37 -6,0 -12,-2 -17,-4 -16,-9 -27,-24 -31,-44 -5,-21 -7,-40 -7,-57 -1,-11 -1,-22 -1,-32 0,-15 0,-30 1,-44 1,-11 4,-34 7,-68 3,-33 5,-67 5,-99 0,-11 0,-22 -1,-33 0,-3 -1,-5 -3,-5 -3,0 -6,2 -8,6 -14,24 -26,50 -36,76 -9,21 -17,42 -24,64 -6,17 -10,35 -14,54 0,0 0,0 0,0 -1,5 -3,8 -6,10 -3,2 -7,3 -11,3 -14,0 -28,-2 -41,-7 -6,-2 -12,-5 -17,-9 -5,-4 -8,-9 -9,-16 -1,-29 -4,-58 -7,-87 -2,-16 -5,-33 -9,-49 -2,-10 -4,-19 -7,-28 -2,-8 -6,-14 -10,-21 -2,-3 -3,-6 -3,-9 0,-2 0,-4 1,-6 2,-5 6,-9 11,-11 9,-2 18,-3 28,-3 10,0 21,3 31,8 3,1 6,4 10,6 3,3 5,6 7,9 6,15 11,30 14,45 4,18 7,36 9,55 1,5 2,10 3,15z"/>
   <path id="10" class="fil3" d="M4803 4400c-10,1 -21,2 -32,2 -18,0 -33,-4 -45,-13 -12,-10 -21,-21 -27,-36 -6,-14 -9,-29 -9,-46 0,-24 7,-45 21,-62 14,-17 34,-25 59,-25 13,0 24,3 35,10 10,8 18,18 24,30 5,13 9,26 11,40 2,14 3,27 3,38 0,7 0,13 0,19 24,-7 44,-15 58,-22 15,-6 33,-18 55,-35 19,-14 37,-30 53,-47 3,-2 6,-4 10,-4 3,0 7,2 9,4 3,3 4,6 4,9 0,4 -1,7 -3,10 -16,16 -34,32 -53,46 -21,17 -43,32 -64,44 -21,13 -46,23 -74,31 -4,28 -13,57 -27,86 -14,29 -35,49 -63,61 -10,4 -21,6 -32,6 -13,0 -26,-3 -39,-8 -15,-6 -28,-16 -40,-28 -11,-12 -20,-25 -28,-40 -15,-34 -23,-69 -23,-104 0,-32 6,-61 19,-88 13,-27 31,-49 55,-66 24,-16 52,-25 86,-25l0 0c5,2 8,4 11,8 2,3 3,6 3,9 0,1 0,2 -1,3 -1,4 -3,7 -5,10 -3,2 -7,3 -11,3 -17,0 -30,6 -40,16 -9,10 -17,23 -22,39 -5,15 -8,32 -9,48 -2,17 -3,31 -3,43 0,9 1,21 3,36 2,15 6,30 11,45 5,15 11,27 20,38 8,10 18,15 31,15 10,0 20,-4 28,-12 9,-8 15,-16 20,-26 10,-19 17,-40 21,-62zm6 -35c0,-9 1,-18 1,-27 0,-5 -1,-12 -1,-22 -1,-9 -3,-19 -6,-28 -2,-9 -6,-17 -11,-24 -4,-6 -11,-9 -18,-9 -9,0 -16,3 -21,8 -5,6 -8,13 -10,22 -2,8 -3,15 -3,22 0,9 1,18 4,27 3,10 7,18 13,24 6,7 14,10 25,10 9,0 18,-1 27,-3z"/>
   <path id="11" class="fil3" d="M5421 4351c23,0 34,9 34,28 0,18 -11,26 -34,26l-200 -2c-17,-1 -25,-8 -25,-21 0,-2 0,-3 0,-5 2,-16 10,-25 25,-25 72,0 139,-1 200,-1z"/>
   <path class="fil3" d="M6057 3880c-24,23 -42,52 -54,87 -12,34 -21,68 -25,100 -5,32 -9,65 -10,98 -2,33 -3,66 -3,99 0,37 3,77 9,122 6,45 18,87 34,127 17,40 40,73 70,99 13,10 28,18 43,23 16,6 32,8 49,8 29,0 57,-8 83,-26 45,-30 82,-67 113,-111 30,-43 55,-91 73,-142 19,-51 33,-102 43,-154 1,-4 3,-7 6,-9 2,-1 4,-2 6,-2 1,0 2,0 4,1 3,1 6,2 8,5 2,2 2,4 2,7 0,1 0,2 0,3 -10,50 -24,103 -43,157 -20,55 -45,107 -76,155 -30,48 -68,87 -112,118 -20,13 -41,24 -63,32 -22,8 -45,12 -69,12 -24,0 -47,-3 -70,-10 -23,-6 -44,-17 -63,-31 -37,-28 -65,-64 -85,-108 -19,-43 -33,-90 -40,-139 -8,-49 -11,-95 -11,-137 0,-34 0,-68 2,-101 2,-34 5,-67 10,-101 5,-29 12,-59 21,-89 9,-30 22,-57 38,-82 16,-25 36,-45 61,-61 25,-15 55,-23 90,-23 32,0 62,10 89,28 26,19 45,43 58,72 13,29 19,60 19,91 0,46 -14,86 -43,120 -3,4 -8,6 -13,6 -5,0 -9,-1 -13,-4 -4,-4 -6,-8 -6,-13 0,-5 1,-9 4,-13 23,-27 35,-60 35,-97 0,-41 -14,-78 -41,-110 -18,-21 -39,-31 -64,-31 -12,0 -24,2 -35,6 -12,3 -22,9 -31,18z"/>
   <path id="1" class="fil3" d="M6861 4202c2,-3 5,-6 8,-7 1,0 3,-1 4,-1 2,0 4,1 6,2 4,2 6,5 7,8 0,1 1,2 1,3 0,2 -1,5 -2,7 -6,13 -13,25 -19,38 -18,38 -38,75 -58,112 -20,37 -43,71 -67,102 -5,6 -11,13 -18,21 -7,7 -15,14 -23,19 -9,6 -17,9 -26,9 -4,0 -7,-1 -11,-3 -11,-5 -18,-14 -21,-26 -4,-13 -5,-25 -5,-35 0,-18 1,-36 2,-53 2,-18 4,-36 7,-53 0,-4 1,-8 1,-12 2,-13 4,-25 5,-38 2,-12 3,-25 3,-37 -1,-6 -2,-9 -4,-9 -4,0 -8,3 -13,9 -2,3 -4,7 -6,10 -11,18 -21,37 -29,57 -11,27 -20,54 -28,81 -3,11 -7,25 -11,40 -5,17 -11,25 -18,25 -4,0 -9,-1 -13,-2 -16,-4 -29,-12 -39,-25 -13,-14 -21,-30 -25,-49 -9,-53 -15,-107 -19,-162 -1,-22 -2,-44 -2,-66l0 -8c0,-23 1,-46 3,-68 3,-30 9,-61 20,-92 10,-31 28,-56 53,-75 21,-14 44,-20 69,-20 23,0 41,7 52,22 12,15 17,33 17,55 0,26 -6,49 -19,71 -13,21 -29,40 -49,57 -20,16 -41,29 -63,40 0,20 0,40 1,61 3,55 9,110 18,165 6,-21 14,-42 22,-63 5,-11 11,-24 18,-38 7,-14 15,-27 25,-40 9,-13 19,-24 31,-33 12,-8 25,-13 39,-13 12,0 23,4 31,11 7,6 13,15 17,25 3,11 5,22 5,34 0,13 -1,27 -3,40 -1,13 -3,27 -5,41 0,3 -1,7 -1,10 -5,32 -8,57 -8,74 0,5 1,8 2,8 2,0 6,-3 10,-9 48,-70 91,-144 128,-220zm-328 -92c16,-9 31,-20 45,-32 15,-13 27,-28 37,-44 9,-16 14,-34 14,-53 0,-7 -1,-14 -2,-21 -4,-8 -9,-12 -17,-12 -7,0 -14,2 -21,6 -20,18 -34,42 -42,72 -8,29 -13,58 -14,84z"/>
   <path id="2" class="fil3" d="M7043 4339c-10,1 -21,2 -32,2 -18,0 -33,-5 -45,-14 -12,-9 -21,-21 -27,-35 -6,-15 -9,-30 -9,-46 0,-25 7,-45 21,-62 14,-17 34,-26 59,-26 13,0 24,4 35,11 10,7 18,17 23,30 6,12 10,25 12,39 2,14 3,27 3,39 0,6 0,12 0,19 24,-8 44,-15 58,-22 15,-7 33,-19 55,-35 19,-15 37,-30 53,-47 3,-3 6,-4 10,-4 3,0 6,1 9,3 3,3 4,6 4,10 0,3 -1,7 -3,9 -16,17 -34,32 -53,47 -21,17 -43,31 -64,44 -21,13 -46,23 -74,30 -4,29 -13,58 -27,87 -14,28 -35,49 -63,61 -11,4 -21,5 -32,5 -13,0 -26,-2 -39,-7 -15,-7 -28,-16 -40,-28 -11,-12 -20,-26 -28,-41 -15,-33 -23,-68 -23,-104 0,-31 6,-60 19,-88 13,-27 31,-48 55,-65 24,-17 52,-25 86,-25l0 0c5,1 8,4 11,7 2,3 3,6 3,10 0,1 -1,2 -1,3 -1,4 -3,7 -5,9 -3,3 -7,4 -11,4 -17,0 -30,5 -40,16 -9,10 -17,23 -22,39 -5,15 -8,31 -9,48 -2,16 -3,31 -3,42 0,10 1,22 3,37 2,14 6,29 11,44 5,15 11,28 19,38 9,11 19,16 32,16 10,0 20,-4 28,-12 9,-8 15,-17 20,-26 10,-20 17,-40 21,-62zm5 -35c1,-9 2,-18 2,-27 0,-5 -1,-13 -2,-22 0,-10 -2,-19 -5,-28 -2,-10 -6,-18 -11,-24 -4,-7 -11,-10 -19,-10 -8,0 -15,3 -20,9 -5,6 -8,13 -10,21 -2,8 -3,16 -3,23 0,8 1,17 4,27 2,9 7,17 13,24 6,7 14,10 25,10 9,0 17,-1 26,-3z"/>
   <path id="3" class="fil3" d="M7350 4208c1,-4 1,-7 1,-11 0,-2 0,-5 0,-7 0,-5 -2,-10 -4,-14 -2,-5 -6,-7 -12,-7 -3,0 -6,1 -9,2 -10,5 -17,13 -21,26 -5,12 -8,24 -9,34 -1,8 -2,16 -2,24 0,13 1,28 3,46 2,18 5,36 10,53 5,18 13,33 22,45 10,12 24,18 40,18 17,0 34,-8 52,-23 18,-16 35,-35 52,-58 16,-23 30,-46 42,-69 12,-23 20,-42 25,-57 1,-4 3,-6 6,-8 2,-1 4,-2 7,-2 1,0 2,0 3,1 4,1 7,3 8,6 1,2 2,4 2,7 0,1 0,2 0,3 -9,32 -25,66 -47,103 -23,38 -49,70 -80,97 -31,27 -65,41 -100,42 -28,0 -50,-6 -67,-19 -17,-13 -30,-29 -39,-50 -8,-20 -14,-42 -17,-66 -3,-24 -4,-47 -4,-69 0,-14 1,-28 4,-43 3,-14 9,-28 17,-40 9,-14 20,-24 34,-32 14,-9 29,-13 46,-13 18,0 35,6 50,19 15,14 23,31 23,50 0,6 -1,12 -3,18 -1,5 -3,8 -7,11 -3,2 -6,2 -9,2l-3 0c-5,-1 -8,-3 -11,-7 -2,-3 -3,-6 -3,-10l0 -2z"/>
   <path id="4" class="fil3" d="M7723 4339c-11,1 -22,2 -33,2 -17,0 -32,-5 -44,-14 -13,-9 -22,-21 -28,-35 -6,-15 -9,-30 -9,-46 0,-25 7,-45 21,-62 14,-17 34,-26 60,-26 12,0 23,4 34,11 10,7 18,17 24,30 5,12 9,25 11,39 2,14 3,27 3,39 0,6 0,12 0,19 24,-8 44,-15 58,-22 15,-7 33,-19 55,-35 20,-15 37,-30 54,-47 2,-3 6,-4 9,-4 4,0 7,1 10,3 2,3 4,6 4,10 0,3 -2,7 -4,9 -16,17 -34,32 -53,47 -21,17 -42,31 -64,44 -21,13 -46,23 -73,30 -4,29 -14,58 -28,87 -14,28 -35,49 -63,61 -10,4 -21,5 -32,5 -13,0 -26,-2 -38,-7 -16,-7 -29,-16 -40,-28 -12,-12 -21,-26 -28,-41 -16,-33 -24,-68 -24,-104 0,-31 7,-60 19,-88 13,-27 31,-48 55,-65 24,-17 52,-25 86,-25l0 0c5,1 9,4 11,7 2,3 3,6 3,10 0,1 0,2 -1,3 0,4 -2,7 -5,9 -3,3 -7,4 -10,4 -17,0 -31,5 -40,16 -10,10 -18,23 -22,39 -5,15 -9,31 -10,48 -2,16 -2,31 -2,42 0,10 0,22 2,37 3,14 6,29 11,44 5,15 11,28 20,38 8,11 19,16 31,16 11,0 20,-4 28,-12 9,-8 15,-17 20,-26 10,-20 17,-40 22,-62zm5 -35c1,-9 1,-18 1,-27 0,-5 0,-13 -1,-22 -1,-10 -3,-19 -5,-28 -3,-10 -7,-18 -11,-24 -5,-7 -12,-10 -19,-10 -9,0 -16,3 -21,9 -4,6 -8,13 -10,21 -2,8 -3,16 -3,23 0,8 1,17 4,27 3,9 7,17 13,24 6,7 15,10 25,10 9,0 18,-1 27,-3z"/>
  </g>
  <path class="fil4" d="M2827 2853c-21,-13 -40,-29 -55,-48 -9,-10 -16,-22 -21,-34 -5,-13 -8,-26 -8,-40 0,-23 5,-43 15,-62 10,-19 24,-35 43,-48 28,-17 57,-26 88,-26 21,0 39,3 57,11 17,7 32,18 43,33 11,15 16,33 16,55 0,16 -3,32 -9,48 -2,3 -4,6 -7,7 -2,1 -4,1 -5,1 -2,0 -4,0 -6,-1 -3,-2 -6,-4 -7,-8 -1,-2 -1,-3 -1,-5 0,-2 0,-3 1,-5 4,-13 7,-25 7,-37 0,-24 -10,-42 -30,-56 -6,-4 -14,-7 -21,-9 -8,-2 -16,-3 -23,-3 -11,0 -23,2 -35,5 -12,3 -22,9 -31,16 -22,20 -33,44 -33,73 0,11 2,22 6,33 5,11 10,21 17,30 11,13 22,25 36,35 14,10 28,18 43,25 5,3 8,7 8,13l0 1c-1,6 -4,10 -10,12 -27,7 -52,18 -77,32 -24,14 -46,32 -63,53 -26,34 -39,71 -39,112 0,24 5,46 15,67 10,20 24,37 42,50 18,13 39,19 64,20 35,-1 67,-10 95,-27 29,-17 54,-39 75,-66 21,-27 39,-57 53,-89 13,-31 23,-62 29,-92 1,-2 2,-5 4,-6 2,-1 3,-2 5,-2 1,0 2,0 3,1 3,0 5,2 6,4 1,1 2,3 2,5 0,1 0,1 -1,2 -4,25 -12,52 -23,80 -11,28 -25,56 -41,84 -16,27 -35,52 -56,75 -21,23 -45,41 -71,54 -26,14 -53,21 -83,21 -23,0 -46,-3 -69,-9 -23,-6 -43,-17 -62,-32 -13,-11 -24,-25 -32,-40 -8,-15 -14,-31 -17,-48 -4,-17 -5,-34 -5,-52 0,-47 15,-90 44,-129 16,-20 35,-37 56,-50 22,-14 44,-26 68,-34z"/>
  <path id="1" class="fil4" d="M3136 2910c0,4 0,8 0,11 0,15 0,30 1,45 1,21 3,41 5,62 2,15 4,30 6,45 3,12 5,25 9,38 1,1 1,3 2,4 1,2 3,3 5,3 2,0 5,-2 8,-4 3,-2 5,-4 7,-6 17,-22 35,-51 53,-86 18,-35 30,-67 37,-96 1,-3 2,-5 5,-6 1,-1 3,-2 5,-2l2 0c3,1 5,3 7,5 1,1 1,3 1,5 0,1 0,2 0,2 -14,63 -40,121 -78,176 -6,8 -12,16 -20,25 -8,9 -16,17 -26,24 -9,7 -19,10 -29,10 -17,0 -32,-19 -44,-57 -13,-38 -19,-87 -19,-148 1,-94 12,-165 34,-212 21,-47 50,-70 84,-70 10,0 19,2 27,7 9,6 15,13 19,22 4,9 6,19 6,29 0,21 -5,42 -17,64 -11,22 -25,43 -42,62 -16,19 -32,35 -48,48zm1 -34c4,-4 8,-8 12,-12 10,-10 20,-23 31,-37 11,-14 20,-29 27,-45 8,-16 12,-31 12,-46 0,-6 -2,-13 -4,-19 -2,-4 -5,-6 -10,-6 -2,0 -5,1 -8,2 -3,1 -6,2 -8,4 -12,11 -22,26 -29,44 -8,19 -13,38 -16,58 -4,21 -6,39 -7,57z"/>
  <path id="2" class="fil4" d="M3471 2910c0,4 0,8 0,11 0,15 0,30 1,45 1,21 3,41 5,62 2,15 4,30 6,45 2,12 5,25 9,38 0,1 1,3 2,4 1,2 3,3 5,3 2,0 5,-2 8,-4 2,-2 5,-4 6,-6 18,-22 36,-51 54,-86 18,-35 30,-67 37,-96 1,-3 2,-5 5,-6 1,-1 3,-2 5,-2l2 0c3,1 5,3 7,5 1,1 1,3 1,5 0,1 0,2 0,2 -14,63 -40,121 -78,176 -6,8 -12,16 -20,25 -8,9 -16,17 -26,24 -9,7 -19,10 -29,10 -17,0 -32,-19 -44,-57 -13,-38 -19,-87 -19,-148 1,-94 12,-165 33,-212 22,-47 51,-70 85,-70 10,0 19,2 27,7 9,6 15,13 19,22 4,9 6,19 6,29 0,21 -5,42 -17,64 -12,22 -26,43 -42,62 -16,19 -32,35 -48,48zm1 -34c4,-4 8,-8 12,-12 10,-10 20,-23 31,-37 11,-14 20,-29 27,-45 8,-16 11,-31 11,-46 0,-6 -1,-13 -3,-19 -2,-4 -5,-6 -10,-6 -2,0 -5,1 -8,2 -3,1 -6,2 -8,4 -12,11 -22,26 -30,44 -7,19 -12,38 -15,58 -4,21 -6,39 -7,57z"/>
  <path id="3" class="fil4" d="M3769 2847l1 -10c0,-4 2,-6 4,-8 2,-2 5,-3 8,-3 10,0 19,1 29,3 4,1 7,2 10,3 3,1 6,3 8,6 1,2 2,5 2,7l0 2c-4,27 -6,53 -6,80 0,7 1,14 1,20 1,10 2,20 4,30 0,4 1,10 3,17 2,8 4,15 7,21 4,7 8,10 13,10 6,0 15,-5 26,-13 10,-9 20,-19 31,-31 11,-12 20,-23 28,-33 9,-11 14,-18 17,-22 2,-2 4,-4 6,-4l2 0c2,0 4,1 6,2 2,1 4,4 4,6l0 2c0,2 -1,4 -2,5 -7,11 -16,24 -26,37 -11,14 -22,27 -34,39 -13,13 -26,24 -39,32 -14,8 -28,12 -42,12 -6,0 -12,-1 -18,-3 -17,-7 -29,-20 -36,-39 -7,-19 -11,-38 -12,-57 -5,14 -11,28 -18,42 -7,15 -15,28 -25,41 -10,12 -21,23 -33,31 -13,8 -27,12 -43,12 -9,0 -18,-3 -26,-8 -12,-7 -21,-18 -27,-32 -6,-13 -9,-28 -11,-44 -2,-16 -3,-31 -3,-43l0 -9c1,-22 3,-44 7,-66 1,-8 3,-16 4,-24 2,-8 5,-16 7,-24 3,-6 7,-8 12,-8 10,0 19,1 28,4 4,1 7,2 11,4 5,3 8,8 8,13 0,2 0,3 -1,4 -4,14 -7,28 -9,43 -2,18 -4,36 -4,55 0,7 0,14 0,21 1,10 2,20 3,30 0,5 1,11 3,19 2,8 5,15 8,22 4,7 8,10 14,10 6,0 12,-3 18,-9 6,-5 11,-12 16,-19 5,-7 9,-13 11,-18 6,-10 12,-20 17,-31 3,-7 7,-15 10,-23 7,-21 13,-42 18,-63 4,-13 7,-27 10,-41z"/>
  <path id="4" class="fil4" d="M4178 2990c19,-11 40,-23 64,-35 23,-12 45,-23 65,-32 1,-1 2,-1 4,-1 1,0 2,0 3,1 3,0 5,2 6,5 1,1 1,2 1,4 0,1 0,2 -1,3 -1,3 -2,5 -5,6 -23,11 -44,22 -61,32 -18,10 -36,21 -55,33 -5,3 -10,7 -16,10 4,19 6,38 7,58 0,6 0,13 0,20 0,15 -1,31 -2,46 -3,23 -9,45 -18,66 -9,21 -22,39 -39,54 -12,10 -26,17 -41,22 -14,4 -30,7 -46,7 -20,0 -38,-7 -53,-21 -15,-14 -22,-31 -22,-52 0,-19 5,-37 16,-56 10,-18 23,-35 40,-52 15,-17 32,-32 50,-46 17,-14 33,-26 47,-36 -1,-10 -3,-20 -6,-30 -5,-20 -12,-39 -21,-58 -4,16 -10,31 -17,46 -8,15 -18,27 -30,37 -12,9 -27,14 -45,14 -13,0 -25,-3 -34,-9 -9,-6 -17,-14 -23,-24 -7,-10 -11,-21 -14,-33 -3,-11 -4,-23 -4,-34 0,-21 3,-42 9,-61 6,-20 17,-35 32,-47 14,-12 34,-18 58,-19l1 0c20,0 38,7 52,20 11,10 17,22 21,36 0,1 0,2 0,3 0,2 -1,4 -2,6 -2,3 -5,5 -8,6 -1,0 -2,0 -3,0 -2,0 -5,-1 -7,-2 -3,-2 -4,-4 -5,-8 -2,-9 -6,-16 -13,-23 -6,-4 -12,-7 -19,-7 -7,0 -14,2 -21,6 -9,7 -16,15 -20,25 -5,10 -9,21 -10,32 -2,12 -3,23 -3,33 0,9 1,18 3,28 3,9 6,18 11,25 5,9 12,13 20,13 7,0 13,-3 18,-9 10,-11 17,-24 22,-39 5,-16 9,-30 12,-44 0,-1 0,-2 0,-3 0,-1 0,-3 0,-4 2,-4 5,-7 10,-8 5,-1 11,-2 17,-2 6,0 13,1 19,2 3,1 7,2 10,4 3,2 6,4 8,7 18,26 31,54 38,85zm-52 64c-12,9 -25,19 -40,31 -15,13 -30,26 -44,40 -14,15 -25,30 -35,45 -9,16 -13,31 -13,46 0,14 5,26 15,34 10,9 22,14 35,14 16,0 29,-5 39,-14 11,-10 19,-22 25,-37 6,-15 11,-31 14,-48 3,-17 5,-33 5,-49 1,-8 1,-16 1,-23 0,-6 0,-13 -1,-18 0,-7 0,-14 -1,-21z"/>
  <path id="5" class="fil4" d="M4457 2988c-2,10 -6,21 -11,33 -5,12 -11,23 -19,34 -8,11 -18,20 -30,27 -13,7 -28,11 -47,11 -10,0 -20,-3 -29,-8 -10,-5 -17,-12 -24,-21 -8,-11 -14,-23 -17,-36 -3,-13 -5,-26 -5,-40 0,-14 3,-29 8,-45 6,-15 13,-29 22,-41 12,-14 26,-26 43,-33 16,-7 34,-11 53,-11 12,0 23,1 32,4 11,3 22,7 34,12 5,-2 11,-2 16,-2 6,0 12,1 19,3 4,1 7,4 11,7 3,4 5,8 5,12 -1,10 -1,20 -1,31l0 10c0,15 1,31 2,47 1,17 4,33 8,49 2,9 6,17 11,24 1,2 3,3 5,5 2,2 4,2 7,2 4,0 8,-1 12,-5 4,-3 7,-7 10,-10 13,-17 26,-37 40,-59 13,-23 24,-44 32,-63 2,-3 3,-5 6,-6 1,0 2,0 3,0 2,0 3,0 4,1 3,1 5,3 6,5 0,2 1,3 1,4 0,1 -1,3 -1,4l-8 17c-9,20 -18,39 -27,57 -10,18 -22,37 -36,55 -6,7 -12,14 -18,20 -7,7 -15,13 -23,17 -8,5 -16,7 -25,7 -13,0 -23,-4 -31,-12 -8,-8 -15,-18 -20,-29 -5,-12 -8,-22 -11,-33 -3,-15 -5,-29 -7,-44zm-7 -45c3,-10 4,-26 5,-47 -13,-7 -25,-10 -34,-10 -12,0 -24,4 -36,11 -11,8 -20,16 -27,27 -6,8 -11,19 -15,31 -3,12 -5,23 -5,33 0,10 1,19 2,27 2,9 5,18 9,26 5,11 13,17 24,17 14,0 26,-7 36,-21 10,-13 18,-29 25,-47 7,-17 12,-33 16,-47z"/>
  <path id="6" class="fil4" d="M4731 2946c10,2 20,3 30,3 4,0 7,1 10,4 2,3 3,5 3,8 0,1 0,2 -1,3 -8,37 -14,75 -18,113 -2,16 -2,32 -2,48 0,5 0,10 0,14 0,8 1,15 2,23 0,4 1,9 2,13 1,4 2,8 3,12 0,1 1,2 2,4 0,1 1,3 2,4 1,1 2,2 4,2 1,0 3,-1 5,-4 2,-2 4,-4 5,-6l1 -2c3,-5 7,-9 10,-14 16,-26 31,-56 47,-92 15,-36 28,-68 38,-97l10 -30 3 -7c0,-1 1,-2 1,-3 3,-8 5,-15 8,-23 1,-2 3,-4 5,-5 1,-1 3,-1 4,-1 2,0 3,0 4,1 3,1 4,2 6,5 0,1 1,2 1,3 0,2 -1,3 -1,4 -3,7 -6,15 -8,22 -1,1 -1,2 -1,3l-3 8 -10 29 -11 32c-9,28 -19,55 -31,83 -11,27 -25,55 -41,81 -5,7 -10,15 -16,23 -7,7 -14,14 -21,20 -8,5 -16,8 -25,8 -9,0 -18,-2 -26,-7 -10,-7 -18,-16 -23,-28 -5,-12 -8,-25 -9,-38 -2,-14 -2,-26 -2,-37 0,-17 1,-34 2,-50 4,-37 10,-73 17,-109 -10,-2 -20,-6 -29,-10 -14,-6 -27,-14 -37,-24 -16,-14 -23,-31 -23,-50 0,-23 8,-51 24,-84 2,-6 6,-8 12,-8 9,0 19,1 28,4 4,1 8,3 12,5 3,2 5,4 7,8 -21,32 -32,60 -33,84 0,25 21,44 63,55z"/>
  <path id="7" class="fil4" d="M5102 2995c3,21 8,42 15,62 2,7 4,13 7,19 2,4 4,7 7,10 3,3 6,4 10,4 4,0 8,-1 12,-3 4,-3 7,-5 10,-8 21,-20 40,-44 59,-70 19,-27 36,-53 53,-78 1,-2 3,-4 4,-6 2,-3 4,-4 6,-5l2 0c2,0 4,1 6,2 2,1 4,4 4,6 0,1 0,2 0,2 0,2 0,4 -1,6 -9,13 -17,26 -25,39 -13,22 -27,43 -42,64 -14,21 -30,40 -48,57 -9,9 -19,17 -30,25 -11,7 -23,11 -36,11 -9,0 -18,-3 -25,-8 -7,-6 -13,-12 -18,-20 -5,-7 -9,-15 -12,-23 -14,-32 -22,-66 -24,-101 -1,-5 -1,-10 -1,-15 0,-4 0,-8 0,-11 0,-13 0,-26 2,-40 2,-19 7,-37 14,-53 7,-16 18,-29 32,-37 9,-5 19,-7 28,-7 14,0 26,4 37,12 12,10 20,22 24,37 4,16 6,30 6,45 0,13 -2,26 -5,40 -4,13 -12,24 -23,33 -13,7 -26,11 -40,11 -3,0 -5,0 -8,0zm-2 -25c3,0 5,0 8,0 3,0 7,0 11,-1 6,-1 11,-3 16,-6 8,-6 13,-14 15,-24 2,-10 3,-20 3,-28 0,-9 -1,-18 -2,-27 -2,-9 -5,-18 -9,-25 -1,-2 -3,-4 -5,-5 -2,-2 -4,-2 -6,-2 -2,0 -4,0 -5,1 -2,2 -3,3 -5,5 -6,8 -10,18 -13,28 -6,21 -9,42 -9,64 0,4 1,9 1,14 0,1 0,3 0,6z"/>
  <path id="8" class="fil4" d="M5325 3092c-4,-5 -8,-9 -11,-14 -7,-8 -13,-16 -19,-25 -8,-9 -15,-20 -21,-30 -7,-11 -12,-22 -16,-34 -4,-12 -6,-24 -6,-37 0,-13 3,-27 8,-40 6,-13 14,-24 25,-33 11,-8 24,-13 39,-13 15,0 28,5 40,15 11,11 16,24 16,38 0,4 0,9 -1,14 -1,3 -3,5 -5,7 -3,2 -5,2 -8,2l-2 0c-3,0 -6,-2 -8,-5 -1,-2 -2,-4 -2,-7 0,-1 0,-1 1,-2 0,-3 1,-5 1,-8 0,-6 -2,-12 -6,-17 -2,-3 -4,-4 -8,-4 -3,0 -6,1 -9,4 -6,6 -11,14 -14,23 -3,9 -5,18 -5,26 0,8 1,16 4,24 5,14 11,26 20,37 8,11 17,21 26,32 1,0 1,0 1,1 28,-28 57,-55 88,-81 3,-2 6,-5 9,-8 10,-9 21,-17 31,-26 1,0 1,0 2,-1 6,-4 12,-9 18,-13 1,0 3,-1 5,-1 1,0 2,0 2,0 3,1 5,3 7,5 0,2 1,3 1,5 0,1 0,2 -1,2 0,3 -2,5 -4,7 -5,3 -10,7 -15,11 -1,0 -2,1 -2,1 -11,9 -21,17 -31,26 -31,27 -60,56 -88,87 -2,1 -4,3 -5,5 9,11 18,23 25,36 6,13 10,26 10,42 0,26 -9,47 -26,62 -17,15 -38,22 -64,22 -10,0 -20,-3 -28,-9 -7,-5 -11,-11 -14,-18 -4,-7 -5,-14 -5,-22 0,-9 2,-19 8,-29 5,-11 10,-21 17,-31 7,-10 14,-19 20,-26zm15 21c-3,3 -6,7 -8,10 -5,7 -11,16 -18,27 -6,11 -9,20 -9,28 0,4 0,7 2,9 1,3 3,5 6,7 5,2 10,2 14,2 8,0 14,-2 19,-6 4,-4 7,-9 9,-16 2,-7 3,-13 3,-20 0,-7 -2,-14 -6,-21 -4,-8 -8,-14 -12,-20z"/>
  <g id="_1956417515664">
   <path class="fil0" d="M6709 1489c0,0 328,-326 752,-96 424,231 481,599 262,967 -336,563 -1628,795 -1628,795l614 -1666z"/>
   <path class="fil0" d="M6226 1384c0,0 -163,-432 -645,-398 -482,35 -686,346 -638,772 72,652 1152,1397 1152,1397l131 -1771z"/>
   <path class="fil1" d="M6095 3155c0,0 1349,-443 1624,-1096 179,-428 63,-813 -426,-996 -489,-183 -791,215 -791,215 0,0 -110,-487 -631,-523 -521,-36 -787,267 -800,730 -20,709 1024,1670 1024,1670z"/>
   <path class="fil2" d="M6502 1278c0,0 -110,-487 -631,-523 -521,-36 -787,267 -800,730 -20,709 1024,1670 1024,1670l407 -1877z"/>
  </g>
  <path class="fil3" d="M1161 1198c-5,7 -9,15 -13,22 -2,3 -5,5 -8,6 -1,0 -2,0 -4,0 -2,0 -4,-1 -6,-2 -4,-2 -6,-4 -7,-8l0 -3c0,-2 1,-4 2,-7l13 -21c50,-92 103,-138 159,-138 5,0 10,0 15,2 17,5 30,14 41,29 11,15 19,32 26,50 6,19 12,35 15,50 8,36 14,72 19,109 4,41 8,81 10,122 3,128 5,254 5,379 0,7 -2,12 -6,14 -3,3 -8,4 -13,4 -8,0 -17,-1 -26,-2 -9,-2 -18,-4 -25,-9 -5,-1 -9,-4 -12,-8 -4,-3 -6,-7 -8,-12l0 -39c0,-65 0,-112 0,-139 0,-64 -2,-128 -5,-192 -2,-37 -5,-73 -9,-110 -4,-32 -9,-65 -16,-97 -4,-19 -9,-38 -16,-57 -4,-10 -8,-20 -14,-30 -3,-6 -9,-9 -16,-9 -31,0 -64,32 -101,96z"/>
  <path id="1" class="fil3" d="M1702 1371c48,0 91,22 131,64 39,43 58,98 58,165 0,61 -18,113 -55,154 -38,41 -81,61 -132,61 -70,0 -125,-32 -164,-95 -40,-64 -60,-160 -60,-287 0,-128 24,-223 70,-287 47,-64 104,-96 171,-96 24,0 46,4 66,12 9,3 14,11 14,23 0,9 -4,13 -13,13 -7,0 -12,-1 -17,-3 -13,-3 -27,-5 -42,-5 -41,0 -77,25 -110,75 -30,53 -47,145 -50,276 35,-46 79,-70 133,-70zm10 405c38,0 68,-18 90,-52 22,-35 33,-76 33,-124 0,-58 -14,-103 -42,-136 -28,-33 -57,-49 -88,-49 -61,0 -105,29 -132,88 4,78 16,141 37,189 24,56 58,84 102,84z"/>
  <path id="2" class="fil3" d="M2329 1458c-7,-43 -13,-87 -16,-131 -2,-18 -3,-36 -3,-55 0,-18 2,-40 5,-65 4,-25 10,-48 21,-69 10,-21 25,-36 45,-44 8,-4 16,-6 25,-6 8,0 16,2 24,6 19,8 32,22 41,43 9,20 15,42 17,66 3,24 4,44 4,62 0,37 -3,74 -8,111 -6,50 -15,99 -27,148 -4,15 -8,31 -13,45 11,29 26,54 46,77 4,4 8,7 13,10 5,2 10,4 16,4 11,0 24,-6 36,-18 13,-12 25,-27 37,-44 11,-18 22,-36 31,-53 10,-18 18,-33 24,-45l5 -10c2,-3 4,-5 8,-6 1,-1 2,-1 4,-1 2,0 4,1 6,2 3,2 5,4 7,8 0,1 0,2 0,3 0,3 0,4 -1,7l-10 19c-8,17 -19,36 -30,57 -11,21 -24,41 -38,60 -15,20 -30,36 -47,48 -16,13 -34,19 -53,19 -18,0 -35,-4 -49,-12 -15,-8 -28,-19 -40,-33 -10,20 -21,39 -35,58 -14,19 -31,34 -49,46 -19,13 -40,19 -65,19 -40,0 -71,-13 -93,-38 -22,-26 -33,-64 -33,-115 0,-54 13,-97 38,-129 25,-33 63,-49 112,-49 15,0 30,2 45,5zm58 172c-12,-22 -23,-44 -31,-68 -7,-22 -14,-43 -19,-66 -15,-5 -29,-8 -42,-8 -21,0 -39,13 -55,37 -15,25 -23,63 -23,114 0,36 6,62 18,79 13,16 27,24 44,24 14,0 27,-4 38,-12 16,-13 29,-28 41,-46 12,-18 21,-36 29,-54zm39 -118c0,-1 0,-3 1,-5 11,-45 19,-91 24,-137 3,-19 5,-39 6,-59 1,-15 2,-31 2,-46 0,-16 -1,-33 -3,-49 -1,-17 -4,-33 -9,-48 -1,-3 -2,-6 -3,-9 -2,-4 -3,-7 -6,-10 -2,-3 -4,-4 -7,-4 -3,0 -5,1 -8,3 -2,2 -4,4 -6,6 -5,7 -9,15 -11,24 -5,15 -8,31 -10,47 -2,16 -2,32 -2,47 0,30 1,60 4,89 4,38 10,75 18,113 3,13 6,25 10,38z"/>
  <path id="3" class="fil3" d="M2707 1582c3,29 10,56 19,83 3,9 6,18 10,26 3,5 6,9 9,13 4,4 8,6 14,6 5,0 11,-2 16,-5 5,-3 9,-7 13,-11 27,-27 53,-58 79,-93 25,-35 48,-70 70,-103 2,-3 4,-6 5,-9 3,-3 5,-5 9,-6l3 0c2,0 5,0 7,2 3,2 5,5 6,8 0,2 0,3 0,3 0,3 -1,5 -2,7 -11,18 -23,35 -33,53 -18,29 -37,57 -56,85 -19,28 -41,53 -64,77 -12,11 -25,22 -40,32 -16,10 -31,15 -48,15 -13,0 -24,-3 -33,-11 -10,-7 -18,-16 -25,-26 -6,-10 -12,-20 -16,-31 -18,-42 -29,-87 -32,-134 0,-7 -1,-14 -1,-21 0,-5 -1,-9 -1,-14 0,-17 2,-35 4,-54 3,-25 9,-48 18,-70 10,-22 24,-39 43,-50 12,-6 25,-9 38,-9 18,0 34,5 49,16 16,13 26,30 32,50 5,20 8,40 8,59 0,18 -2,35 -7,54 -6,18 -16,32 -31,43 -16,11 -34,16 -53,16 -3,0 -7,-1 -10,-1zm-3 -33c3,0 7,0 10,0 5,0 10,0 15,-1 8,-1 15,-4 22,-8 10,-8 17,-18 20,-32 2,-14 4,-26 4,-38 0,-11 -1,-23 -3,-35 -3,-13 -7,-24 -13,-34 -1,-3 -3,-5 -6,-7 -2,-2 -5,-3 -8,-3 -3,0 -5,1 -7,3 -2,1 -4,3 -6,6 -8,11 -14,24 -18,38 -7,27 -11,55 -11,84 0,6 0,12 0,19 0,2 1,5 1,8z"/>
  <path id="4" class="fil3" d="M3223 1712c-5,-6 -10,-13 -15,-19 -8,-10 -17,-21 -25,-33 -10,-13 -19,-26 -28,-40 -8,-15 -16,-30 -21,-45 -5,-16 -8,-32 -8,-49 0,-19 4,-37 11,-54 8,-18 19,-32 33,-44 15,-11 32,-17 53,-17 19,0 37,7 53,20 14,14 22,31 22,50 0,6 -1,12 -3,19 0,4 -3,7 -6,10 -3,2 -7,2 -11,2l-2 0c-5,-1 -8,-3 -11,-7 -1,-2 -2,-5 -2,-9 0,-1 0,-2 0,-3 1,-3 1,-7 1,-10 0,-8 -2,-16 -7,-23 -3,-3 -6,-5 -10,-5 -5,0 -9,2 -13,5 -8,9 -14,19 -18,31 -5,12 -7,23 -7,35 0,11 2,21 5,31 6,18 15,35 27,50 11,14 23,28 35,42 1,0 1,1 1,2 37,-38 76,-73 117,-108 4,-3 9,-7 13,-11 13,-11 27,-23 41,-34 1,0 1,-1 2,-2 8,-6 16,-12 24,-17 2,-1 4,-2 7,-2 1,0 2,1 3,1 3,1 6,3 8,6 1,2 2,5 2,7 0,1 0,2 0,3 -1,3 -3,6 -7,8 -7,4 -13,9 -20,15 -1,0 -2,1 -2,2 -14,11 -28,22 -41,34 -41,36 -81,75 -118,116 -3,2 -5,4 -7,7 13,15 24,31 33,48 9,17 14,35 14,55 0,36 -11,64 -34,83 -23,20 -51,30 -85,30 -14,0 -27,-4 -38,-13 -9,-6 -15,-14 -19,-23 -5,-9 -7,-18 -7,-29 0,-12 4,-26 11,-40 6,-14 14,-27 23,-41 9,-13 18,-24 26,-34zm20 28c-3,4 -7,9 -10,14 -7,9 -15,21 -24,35 -8,15 -12,27 -12,38 0,4 1,8 2,12 2,3 4,6 9,8 6,3 12,4 19,4 10,0 19,-3 24,-8 6,-6 10,-13 13,-22 2,-9 3,-17 3,-26 0,-10 -2,-19 -7,-29 -5,-10 -11,-19 -17,-26z"/>
  <path id="5" class="fil3" d="M3524 1582c3,29 10,56 19,83 3,9 6,18 10,26 3,5 6,9 9,13 4,4 8,6 14,6 5,0 11,-2 16,-5 5,-3 9,-7 13,-11 27,-27 53,-58 78,-93 26,-35 49,-70 71,-103 2,-3 3,-6 5,-9 3,-3 5,-5 9,-6l2 0c3,0 5,0 8,2 3,2 5,5 5,8 1,2 1,3 1,3 0,3 -1,5 -2,7 -12,18 -23,35 -34,53 -17,29 -36,57 -55,85 -19,28 -41,53 -64,77 -12,11 -25,22 -40,32 -16,10 -32,15 -48,15 -13,0 -24,-3 -33,-11 -10,-7 -18,-16 -25,-26 -6,-10 -12,-20 -16,-31 -18,-42 -29,-87 -32,-134 0,-7 -1,-14 -1,-21 0,-5 -1,-9 -1,-14 0,-17 2,-35 4,-54 2,-25 9,-48 18,-70 10,-22 24,-39 43,-50 12,-6 25,-9 38,-9 18,0 34,5 49,16 15,13 26,30 32,50 5,20 8,40 8,59 0,18 -2,35 -7,54 -6,18 -16,32 -31,43 -16,11 -34,16 -53,16 -3,0 -7,-1 -10,-1zm-3 -33c3,0 7,0 10,0 5,0 10,0 15,-1 8,-1 15,-4 22,-8 10,-8 17,-18 19,-32 3,-14 5,-26 5,-38 0,-11 -1,-23 -3,-35 -3,-13 -7,-24 -13,-34 -1,-3 -3,-5 -6,-7 -2,-2 -5,-3 -8,-3 -3,0 -5,1 -7,3 -2,1 -4,3 -6,6 -8,11 -14,24 -18,38 -7,27 -11,55 -11,84 0,6 0,12 0,19 0,2 1,5 1,8z"/>
  <path id="6" class="fil3" d="M3990 1607c19,-9 37,-20 55,-34 18,-13 33,-29 45,-47 8,-10 14,-21 19,-33 2,-3 4,-6 7,-7 2,-1 4,-1 5,-1 2,0 4,0 6,1 3,2 5,4 7,8 0,1 0,3 0,4 0,2 0,4 -1,6 -5,12 -11,23 -18,33 -15,25 -32,45 -50,62 -18,16 -43,31 -75,45 -15,6 -29,12 -44,16 -6,6 -14,11 -21,15 -21,9 -43,13 -66,13l-4 0c-5,0 -10,-2 -13,-6 -1,8 -2,15 -3,22 -6,52 -9,105 -10,157l0 12c0,14 0,28 -1,41l0 2c0,4 -1,8 -1,13 -1,5 -2,10 -5,14 -3,5 -8,7 -14,7l-4 0c-13,-1 -24,-8 -32,-19 -8,-11 -14,-24 -19,-38 -4,-14 -7,-26 -9,-37 -5,-28 -9,-57 -12,-85 -3,-32 -5,-64 -6,-96 -2,-51 -3,-102 -3,-153 0,-19 1,-39 1,-59l0 -7 0 -16 0 -15c0,-5 1,-9 5,-12 3,-4 7,-5 12,-5 8,0 17,1 26,3 8,1 16,4 23,8 8,4 14,10 17,19 0,2 0,4 0,5 0,2 0,3 0,4 -7,62 -10,125 -11,188 0,16 0,32 0,48 0,37 1,74 3,110 1,-31 3,-62 7,-93 2,-17 5,-35 8,-55 4,-21 9,-41 16,-62 6,-20 15,-39 25,-57 11,-17 24,-31 39,-42 15,-11 34,-16 55,-16 19,0 34,6 45,18 12,12 18,27 18,45 0,14 -2,27 -7,40 -4,12 -9,25 -15,36zm-144 50c26,-16 47,-37 63,-63 5,-9 10,-19 14,-30 4,-11 6,-22 6,-33 0,-5 -2,-10 -4,-15 -1,-3 -4,-4 -7,-4 -3,0 -6,1 -9,3 -18,14 -32,35 -42,61 -10,27 -17,54 -21,81z"/>
  <path id="7" class="fil3" d="M4092 1421l-67 -4c-4,0 -8,-2 -11,-5 -3,-3 -5,-7 -5,-12 1,-5 3,-8 6,-11 3,-3 7,-5 11,-5l1 0 76 4c12,-32 28,-62 49,-90 3,-4 8,-7 13,-7 6,0 13,1 19,1 7,1 14,3 20,5 6,2 11,5 14,10 3,3 5,7 5,12 0,1 0,3 -1,5 0,2 -1,4 -3,6 -13,20 -24,40 -33,62l69 4c5,0 9,2 11,5 3,3 5,7 5,12 -1,5 -2,9 -6,12 -3,2 -7,4 -12,4l-78 -4c-12,41 -18,82 -18,124 0,21 2,42 5,64 3,22 9,43 16,63 4,10 10,20 18,30 7,10 17,16 28,19 2,1 5,1 7,1 8,0 15,-2 22,-6 6,-4 12,-8 17,-14 23,-23 44,-47 61,-74 17,-27 33,-55 47,-85 10,-22 19,-43 28,-65 1,-4 3,-6 7,-8 1,0 3,-1 5,-1 2,0 3,0 5,1 4,1 6,4 7,7 1,1 2,3 2,5 0,1 -1,3 -2,5 -8,23 -18,46 -29,67 -9,20 -20,42 -33,67 -13,24 -29,48 -46,71 -17,24 -36,43 -56,58 -21,15 -42,23 -65,23 -9,0 -18,-2 -27,-4 -19,-7 -34,-18 -47,-33 -12,-16 -22,-32 -28,-50 -9,-22 -16,-45 -20,-69 -3,-25 -5,-48 -5,-72 0,-43 6,-86 18,-128z"/>
  <path id="8" class="fil3" d="M4650 1499c-11,41 -23,81 -36,122 -13,40 -29,80 -47,118 -12,27 -28,51 -46,74 -5,6 -10,11 -16,16 -10,9 -22,14 -36,14l-2 0c-18,-3 -32,-13 -43,-29 -11,-17 -20,-36 -26,-57 -7,-20 -11,-38 -14,-53 -7,-41 -11,-83 -12,-125 -1,-10 -1,-21 -1,-31 0,-36 2,-72 6,-108 0,-4 2,-8 5,-10 4,-3 7,-4 11,-4 14,0 29,2 43,7 3,2 6,4 10,6 8,5 12,12 12,22 -3,28 -4,57 -4,85 0,7 0,14 0,21 1,37 4,73 9,109 1,7 3,14 4,22 3,12 5,24 8,36 2,6 4,13 6,20 2,6 4,12 6,18 2,4 4,8 7,11 0,1 1,2 1,3 1,0 2,1 3,1 0,0 1,0 1,0 1,-1 1,-1 1,-1 0,0 1,-1 1,-1 2,-2 4,-4 6,-6 5,-7 9,-14 13,-22 6,-10 12,-21 17,-32 36,-75 65,-153 87,-233 2,-4 3,-7 6,-9 2,-1 5,-1 7,-1 2,0 3,0 4,0 3,1 6,4 8,7 1,2 1,4 1,6 0,1 0,3 0,4zm-165 -187c0,7 -1,16 -3,27 -1,10 -4,20 -9,28 -5,8 -11,12 -20,12 -7,0 -16,0 -27,-1 -11,-1 -21,-4 -29,-8 -9,-4 -13,-11 -13,-21 0,-8 1,-16 3,-26 2,-10 5,-19 11,-26 5,-7 12,-11 22,-11 6,0 15,1 25,1 10,1 19,4 28,7 8,4 12,10 12,18z"/>
  <path id="9" class="fil3" d="M4680 1582c4,29 10,56 19,83 3,9 6,18 11,26 2,5 5,9 8,13 4,4 9,6 14,6 6,0 11,-2 16,-5 5,-3 9,-7 13,-11 28,-27 54,-58 79,-93 25,-35 48,-70 70,-103 2,-3 4,-6 5,-9 3,-3 6,-5 9,-6l3 0c2,0 5,0 7,2 3,2 5,5 6,8 0,2 0,3 0,3 0,3 -1,5 -2,7 -11,18 -22,35 -33,53 -18,29 -36,57 -56,85 -19,28 -41,53 -64,77 -12,11 -25,22 -40,32 -15,10 -31,15 -48,15 -12,0 -23,-3 -33,-11 -10,-7 -18,-16 -24,-26 -7,-10 -13,-20 -17,-31 -18,-42 -28,-87 -32,-134 0,-7 -1,-14 -1,-21 0,-5 0,-9 0,-14 0,-17 1,-35 3,-54 3,-25 9,-48 18,-70 10,-22 24,-39 44,-50 11,-6 24,-9 37,-9 18,0 34,5 49,16 16,13 26,30 32,50 6,20 8,40 8,59 0,18 -2,35 -7,54 -5,18 -15,32 -31,43 -16,11 -34,16 -53,16 -3,0 -6,-1 -10,-1zm-3 -33c3,0 7,0 10,0 5,0 10,0 15,-1 8,-1 16,-4 22,-8 10,-8 17,-18 20,-32 3,-14 4,-26 4,-38 0,-11 -1,-23 -3,-35 -2,-13 -6,-24 -13,-34 -1,-3 -3,-5 -5,-7 -3,-2 -6,-3 -9,-3 -2,0 -5,1 -7,3 -2,1 -4,3 -5,6 -9,11 -15,24 -19,38 -7,27 -11,55 -11,84 0,6 0,12 1,19 0,2 0,5 0,8z"/>
  <path id="10" class="fil3" d="M5451 1487c1,-4 3,-6 6,-8 2,-1 5,-2 7,-2 1,0 2,1 4,1 3,1 6,3 7,6 1,2 2,5 2,7 0,1 0,2 -1,4 -4,12 -20,54 -49,127 -29,72 -52,123 -69,151 -6,8 -12,17 -19,25 -7,9 -16,16 -25,22 -9,6 -19,8 -30,8 -7,0 -13,-1 -19,-4 -12,-7 -19,-17 -23,-31 -5,-14 -7,-27 -8,-39 -1,-16 -1,-32 -1,-47 0,-13 0,-26 1,-39 1,-24 2,-41 2,-53 0,-15 -1,-30 -2,-45 0,-5 0,-10 -1,-15 -1,-5 -2,-7 -4,-7 -1,0 -3,1 -4,2 -2,1 -3,2 -3,3 -13,22 -24,45 -32,69 -8,23 -14,45 -19,68l0 1c-1,4 -3,7 -6,9 -3,3 -7,4 -11,4l-4 0 -3 0c-5,0 -10,0 -14,0l-2 0c-13,0 -26,-5 -36,-14 -6,-7 -9,-15 -9,-24l0 -2c1,-13 1,-26 1,-39 0,-16 -1,-31 -1,-47 -2,-17 -4,-34 -7,-50 0,-2 -1,-3 -2,-4 -1,-2 -2,-2 -3,-2 -2,0 -4,0 -5,2 -2,2 -3,3 -3,5 -11,28 -20,56 -27,85 -7,30 -14,59 -20,89 -1,9 -3,18 -4,27 -2,11 -5,23 -7,34l0 1c-1,4 -3,7 -6,9 -3,2 -6,3 -10,3 -14,0 -27,-1 -40,-3 -7,-1 -13,-3 -20,-6 -6,-3 -9,-9 -10,-16 -2,-48 -6,-96 -12,-144 -3,-26 -7,-52 -12,-78 -2,-9 -4,-18 -7,-27 -2,-10 -6,-19 -10,-28 -1,-2 -1,-5 -1,-7 0,-3 0,-6 2,-9 4,-5 8,-8 14,-8 7,0 15,1 26,2 11,1 21,3 30,7 10,3 16,9 18,16 7,19 12,38 16,58 4,23 7,46 10,70 1,10 3,21 4,32 2,-10 4,-20 7,-30 4,-17 9,-34 14,-51 6,-19 13,-37 21,-54 5,-13 13,-25 23,-37 10,-11 22,-18 37,-19 6,0 13,2 19,4 13,6 23,17 30,32 7,15 12,31 15,48 3,18 5,33 6,46 0,1 0,2 0,3 6,-13 13,-28 22,-43 9,-15 19,-28 31,-40 11,-11 24,-16 38,-16 8,0 16,2 24,6 11,7 20,19 25,35 5,16 8,39 8,70 0,17 -1,39 -2,65 -1,26 -2,44 -2,53 0,15 1,26 3,32 1,7 4,11 7,11 16,0 58,-89 125,-264z"/>
  <path id="11" class="fil3" d="M5502 1416c-2,22 -3,45 -3,68 0,27 2,54 5,81 2,27 6,53 12,80 6,-19 14,-38 23,-56 6,-14 14,-29 24,-43 10,-15 22,-28 36,-39 13,-10 28,-16 45,-16 14,0 27,5 39,15 10,10 17,21 20,36 4,14 5,27 5,40 0,16 -2,31 -6,46 -3,15 -9,30 -16,44 11,-8 21,-17 31,-26 24,-20 48,-44 71,-70 23,-27 41,-54 55,-83 2,-3 4,-6 7,-7 2,-1 4,-1 5,-1 2,0 4,0 6,1 3,2 5,4 7,8 0,1 0,3 0,4 0,2 0,4 -1,6 -28,64 -71,119 -128,167 -37,33 -76,61 -119,86 -31,26 -67,43 -107,51 -2,0 -5,1 -7,2 -2,0 -3,0 -5,0 -3,0 -5,0 -8,-2 -4,-1 -6,-5 -8,-9 0,-2 0,-4 0,-6 0,-2 0,-4 1,-7 2,-4 6,-6 10,-8 45,-15 78,-43 102,-84 18,-35 27,-72 27,-112l0 -4c0,-6 0,-12 -1,-18 0,-1 -1,-4 -1,-7 -1,-3 -2,-5 -3,-8 -1,-3 -3,-5 -6,-5 -2,0 -4,1 -7,4 -3,3 -7,7 -10,12 -4,5 -7,10 -11,16 -6,9 -11,19 -16,29 -11,22 -21,46 -27,70 -3,8 -5,15 -6,20 -2,5 -2,12 -2,20 0,4 -1,8 -3,11 -3,3 -6,5 -10,6 -1,1 -3,1 -4,1 -5,0 -10,-1 -15,-2 -13,-4 -24,-11 -33,-21 -9,-11 -17,-22 -22,-33 -15,-34 -24,-69 -28,-105 -2,-28 -4,-56 -4,-84 0,-34 2,-69 5,-103 2,-18 5,-38 9,-60 4,-22 9,-44 16,-66 7,-23 16,-43 27,-62 12,-19 25,-35 42,-46 16,-12 36,-18 59,-18 12,0 24,3 35,10 12,7 21,17 26,29 5,12 8,25 8,39 0,18 -4,37 -11,56 -8,19 -17,36 -29,53 -11,17 -23,32 -36,45 -19,21 -41,39 -65,55zm4 -44c13,-10 25,-21 37,-33 16,-17 31,-37 45,-61 14,-24 21,-48 22,-71 0,-4 -1,-8 -1,-12 -1,-4 -2,-10 -5,-16 -2,-5 -6,-8 -11,-8 -9,0 -17,4 -24,12 -7,7 -14,17 -19,29 -6,11 -11,22 -14,33 -4,11 -7,20 -9,27 -6,21 -11,42 -15,63 -2,9 -3,18 -5,26l-1 11z"/>
  <path id="12" class="fil3" d="M5958 1517c14,2 27,4 41,4 5,0 9,2 13,6 2,3 3,7 3,11 0,1 0,2 0,3 -11,50 -19,100 -24,151 -2,21 -4,43 -4,64 0,6 1,13 1,19 0,10 1,20 2,30 1,6 2,12 3,18 1,5 3,11 4,16 1,1 2,3 3,5 0,2 1,4 3,5 1,2 3,3 4,3 3,0 5,-2 8,-5 2,-3 4,-6 6,-9l1 -2c5,-6 9,-13 13,-19 22,-34 43,-75 63,-122 21,-48 38,-91 51,-130l14 -39 4 -10c0,-2 1,-3 1,-4 3,-11 7,-20 11,-30 1,-4 3,-6 7,-8 1,0 3,-1 5,-1 2,0 3,0 5,1 3,1 6,4 7,7 1,1 2,3 2,5 0,1 -1,3 -2,5 -3,10 -7,19 -10,29 0,1 -1,3 -1,4l-4 11 -14 39 -14 42c-12,37 -26,74 -41,110 -15,37 -33,73 -56,109 -5,9 -12,19 -21,30 -8,10 -17,19 -28,27 -10,7 -21,11 -33,11 -12,0 -24,-3 -34,-10 -14,-9 -24,-21 -31,-37 -6,-16 -10,-33 -12,-51 -2,-19 -3,-35 -3,-49 0,-22 1,-45 3,-67 5,-49 13,-97 23,-145 -13,-3 -26,-8 -39,-13 -19,-8 -35,-18 -50,-32 -20,-19 -30,-41 -30,-67 0,-30 10,-68 32,-112 3,-7 8,-11 15,-11 13,0 26,2 39,6 5,2 10,4 15,6 4,3 7,6 9,11 -27,43 -41,80 -43,111 0,35 28,59 83,74z"/>
  <path id="13" class="fil3" d="M6234 1582c3,29 10,56 19,83 3,9 6,18 10,26 3,5 6,9 9,13 4,4 8,6 14,6 5,0 11,-2 16,-5 5,-3 9,-7 13,-11 27,-27 53,-58 79,-93 25,-35 48,-70 70,-103 2,-3 4,-6 5,-9 3,-3 6,-5 9,-6l3 0c2,0 5,0 7,2 3,2 5,5 6,8 0,2 0,3 0,3 0,3 -1,5 -2,7 -11,18 -22,35 -33,53 -18,29 -36,57 -56,85 -19,28 -41,53 -64,77 -12,11 -25,22 -40,32 -15,10 -31,15 -48,15 -13,0 -24,-3 -33,-11 -10,-7 -18,-16 -25,-26 -6,-10 -12,-20 -16,-31 -18,-42 -29,-87 -32,-134 0,-7 -1,-14 -1,-21 0,-5 0,-9 0,-14 0,-17 1,-35 3,-54 3,-25 9,-48 18,-70 10,-22 24,-39 44,-50 11,-6 24,-9 37,-9 18,0 34,5 49,16 16,13 26,30 32,50 5,20 8,40 8,59 0,18 -2,35 -7,54 -5,18 -16,32 -31,43 -16,11 -34,16 -53,16 -3,0 -7,-1 -10,-1zm-3 -33c3,0 7,0 10,0 5,0 10,0 15,-1 8,-1 15,-4 22,-8 10,-8 17,-18 20,-32 3,-14 4,-26 4,-38 0,-11 -1,-23 -3,-35 -2,-13 -7,-24 -13,-34 -1,-3 -3,-5 -6,-7 -2,-2 -5,-3 -8,-3 -2,0 -5,1 -7,3 -2,1 -4,3 -6,6 -8,11 -14,24 -18,38 -7,27 -11,55 -11,84 0,6 0,12 1,19 0,2 0,5 0,8z"/>
  <path class="fil4" d="M1688 338l1 -21c0,-14 1,-29 1,-43 2,-35 2,-69 2,-104 0,-14 -1,-29 -2,-44 -2,-15 -6,-29 -10,-43 -3,-7 -5,-13 -9,-20 -6,-9 -12,-13 -20,-13 -6,0 -12,4 -17,13 -5,12 -10,24 -13,37 -3,13 -6,24 -7,34 -4,28 -8,57 -10,85 -1,17 -2,33 -3,49 -1,16 -2,32 -4,47l0 8c14,1 29,3 44,5 16,3 32,6 47,10zm-131 11l0 0c-31,0 -61,3 -90,9 -16,4 -31,9 -46,15 -15,6 -28,13 -40,23 -12,9 -22,21 -29,34 -7,13 -10,29 -10,47 0,31 9,56 27,76 18,21 42,32 73,35 1,0 1,0 1,0 16,-1 31,-6 44,-14 17,-11 29,-26 38,-45 10,-18 17,-36 21,-55 7,-25 12,-51 15,-76 2,-17 4,-33 6,-49 -4,0 -7,0 -10,0zm329 112c39,-79 61,-131 66,-156 1,-3 2,-5 4,-6 2,-1 4,-2 5,-2 1,0 2,0 3,0 2,1 5,2 6,5 1,1 2,3 2,5l0 2c-6,26 -30,84 -72,174 -42,91 -84,136 -127,136 -8,0 -16,-2 -24,-5 -18,-9 -31,-23 -40,-42 -9,-20 -15,-41 -18,-64 -3,-23 -5,-43 -5,-60 0,-27 1,-55 1,-82 -16,-5 -33,-8 -51,-11 -14,-2 -28,-3 -42,-4 -2,16 -3,33 -6,50 -3,27 -8,54 -15,80 -6,22 -14,44 -25,65 -11,21 -26,38 -46,51 -20,12 -42,19 -65,19 -27,0 -51,-6 -71,-18 -21,-12 -37,-28 -49,-49 -12,-21 -18,-45 -18,-72 0,-13 2,-27 6,-40 4,-12 10,-25 18,-36 15,-20 34,-36 57,-47 24,-11 48,-19 74,-24 26,-5 51,-8 75,-8 7,-1 13,-1 20,-1 7,0 13,0 20,1 0,-3 1,-6 1,-8 1,-16 2,-32 4,-48 1,-16 2,-32 3,-49 2,-29 6,-58 10,-87 2,-13 5,-28 9,-43 4,-15 10,-30 17,-43 8,-13 18,-23 31,-29 9,-4 18,-7 27,-7 9,0 18,2 27,6 17,8 30,21 39,39 9,18 15,38 18,60 3,21 4,40 4,57 0,35 0,70 -1,105 -1,14 -1,29 -2,43 -2,43 -2,87 -2,130 0,15 0,31 2,47 2,16 5,31 10,45 4,13 9,22 14,29 5,7 11,11 19,11 20,0 49,-40 87,-119z"/>
  <path id="1" class="fil4" d="M2030 304c1,-3 1,-6 1,-9 0,-1 0,-3 0,-5 0,-4 -1,-7 -3,-11 -2,-3 -5,-5 -9,-5 -2,0 -5,1 -7,2 -7,3 -12,10 -16,19 -3,10 -6,18 -6,26 -1,6 -2,12 -2,18 0,9 1,21 2,34 2,14 4,27 8,40 4,14 9,25 17,34 7,9 17,14 29,14 13,0 26,-6 39,-18 14,-12 27,-26 39,-44 12,-17 23,-34 32,-51 9,-17 15,-32 19,-43 0,-3 2,-5 4,-6 2,-1 3,-1 5,-1 1,0 2,0 3,0 2,1 5,2 6,5 1,1 1,3 1,5 0,1 0,1 0,2 -7,24 -19,50 -35,78 -17,28 -37,52 -60,72 -24,20 -49,31 -75,32 -21,0 -38,-5 -51,-14 -12,-10 -22,-22 -29,-38 -6,-15 -10,-32 -12,-49 -3,-18 -4,-35 -4,-52 0,-10 1,-21 4,-32 2,-11 6,-21 12,-30 7,-11 16,-19 26,-25 10,-6 22,-9 34,-9 14,0 27,5 38,14 11,11 17,23 17,38 0,4 -1,9 -2,13 -1,4 -3,6 -5,8 -3,1 -5,2 -7,2l-2 0c-4,-1 -7,-3 -9,-5 -1,-3 -2,-5 -2,-8l0 -1z"/>
  <path id="2" class="fil4" d="M2310 401c-8,2 -17,2 -25,2 -13,0 -24,-3 -33,-10 -9,-7 -16,-16 -21,-27 -4,-10 -6,-22 -6,-34 0,-18 5,-34 15,-47 11,-12 26,-19 45,-19 9,0 18,3 25,8 8,6 14,13 18,23 5,9 7,19 9,29 2,11 2,21 2,29 0,5 0,10 0,14 18,-5 33,-11 44,-16 11,-5 24,-14 41,-26 15,-11 28,-23 40,-36 2,-1 5,-2 7,-2 3,0 5,0 7,2 2,2 3,5 3,7 0,3 -1,5 -2,7 -12,13 -26,24 -40,35 -16,13 -32,24 -48,33 -16,10 -34,17 -55,23 -3,22 -10,43 -21,65 -11,21 -26,37 -47,46 -8,2 -16,4 -24,4 -10,0 -20,-2 -29,-6 -11,-5 -21,-12 -30,-21 -8,-9 -15,-19 -21,-30 -11,-26 -17,-52 -17,-78 0,-24 4,-46 14,-66 9,-20 23,-37 41,-49 18,-13 39,-19 64,-19l1 0c3,1 6,3 7,6 2,2 3,4 3,6 0,1 0,2 -1,3 0,3 -2,5 -4,7 -2,2 -5,3 -7,3 -13,0 -23,4 -30,11 -8,8 -13,18 -17,30 -4,11 -6,23 -7,36 -1,12 -2,23 -2,32 0,7 1,16 2,27 2,11 4,22 8,34 4,11 9,20 15,28 6,8 14,12 23,12 8,0 15,-3 22,-9 6,-6 11,-13 14,-20 8,-15 13,-30 17,-47zm3 -25c1,-7 1,-14 1,-21 0,-4 0,-9 -1,-16 0,-7 -2,-14 -3,-21 -2,-7 -5,-13 -9,-18 -3,-5 -8,-8 -14,-8 -6,0 -11,3 -15,7 -4,5 -6,10 -8,16 -1,6 -2,12 -2,17 0,6 1,13 3,20 2,7 5,13 10,18 4,5 11,8 18,8 7,0 14,-1 20,-2z"/>
  <path id="3" class="fil4" d="M2864 299c1,-3 3,-5 5,-6 2,-1 3,-1 5,-1 1,0 2,0 3,0 2,1 4,3 6,5 0,2 1,3 1,5 0,1 0,2 -1,3 -3,9 -15,41 -36,95 -22,55 -39,92 -53,113 -4,7 -8,13 -14,19 -5,7 -11,12 -18,16 -7,5 -15,7 -23,7 -5,0 -10,-1 -14,-3 -9,-5 -15,-13 -18,-23 -3,-11 -5,-21 -5,-30 -1,-12 -1,-24 -1,-35 0,-10 0,-20 1,-29 0,-18 1,-31 1,-40 0,-11 0,-22 -1,-33 0,-5 -1,-9 -1,-12 -1,-4 -2,-5 -3,-5 -1,0 -2,0 -3,1 -1,1 -2,2 -3,3 -9,16 -17,34 -23,52 -6,16 -11,33 -15,50l0 1c-1,3 -2,6 -4,7 -3,2 -5,3 -8,3l-3 0 -3 0c-3,0 -7,0 -10,0l-1 0c-11,0 -20,-4 -28,-11 -4,-5 -6,-11 -6,-17l0 -2c0,-10 0,-20 0,-30 0,-11 0,-23 -1,-35 -1,-12 -2,-25 -5,-37 0,-2 0,-3 -1,-4 -1,-1 -2,-1 -3,-1 -1,0 -2,1 -3,2 -1,1 -2,2 -3,3 -8,21 -15,43 -20,64 -5,22 -10,45 -14,67 -1,7 -3,13 -4,20 -2,9 -3,17 -5,26l0 0c-1,3 -2,5 -4,7 -2,2 -5,3 -8,3 -10,0 -20,-1 -30,-3 -5,-1 -10,-2 -15,-5 -4,-2 -7,-6 -7,-11 -2,-37 -5,-72 -10,-108 -2,-20 -5,-39 -9,-59 -1,-7 -3,-14 -4,-20 -2,-7 -5,-14 -8,-21 -1,-2 -1,-4 -1,-5 0,-3 0,-5 2,-7 2,-4 6,-6 10,-6 5,0 12,1 20,2 8,0 15,2 22,4 7,3 12,7 14,12 5,15 9,29 11,44 4,18 6,35 8,53 1,8 2,16 3,24 1,-8 3,-15 5,-23 3,-13 7,-26 11,-38 4,-14 9,-28 16,-41 4,-9 9,-18 17,-27 7,-9 16,-14 28,-14 4,0 9,1 14,3 10,4 17,12 22,23 6,12 9,24 12,37 2,13 3,24 4,34 0,1 0,2 0,2 5,-10 10,-21 17,-32 6,-12 14,-21 23,-30 8,-8 18,-12 28,-12 7,0 13,1 18,4 9,6 15,14 19,26 4,12 6,30 6,53 0,13 -1,29 -1,49 -2,19 -2,33 -2,40 0,11 1,19 2,24 1,5 3,8 6,8 12,0 43,-66 93,-198z"/>
  <path id="4" class="fil4" d="M3038 389c14,-7 28,-15 42,-25 13,-11 24,-22 33,-36 6,-7 10,-15 14,-24 2,-3 4,-5 6,-6 1,0 3,-1 4,-1 1,0 2,1 4,1 2,2 4,4 5,6 0,1 1,2 1,3 0,2 -1,3 -1,5 -4,8 -9,17 -14,25 -11,18 -24,34 -38,46 -13,12 -32,23 -56,33 -11,5 -22,9 -33,13 -5,4 -10,8 -16,11 -15,7 -32,10 -49,10l-3 0c-4,0 -7,-2 -10,-5 -1,6 -1,12 -2,17 -4,39 -7,78 -7,118l0 8c0,11 -1,21 -1,32l0 1c0,3 -1,6 -1,9 -1,4 -2,8 -4,11 -2,4 -6,5 -11,5l-2 0c-10,-1 -18,-6 -24,-14 -6,-8 -11,-18 -14,-28 -4,-11 -6,-20 -7,-29 -4,-21 -7,-42 -9,-63 -2,-24 -4,-48 -5,-72 -1,-38 -2,-76 -2,-114 0,-15 0,-30 1,-45l0 -5 0 -12 0 -12c0,-3 1,-6 3,-9 3,-2 6,-3 9,-3 7,0 13,0 20,2 6,1 12,3 18,6 5,3 9,8 12,14 0,1 0,3 0,4 0,1 0,2 0,3 -5,47 -7,94 -8,141 0,12 0,24 0,36 0,28 0,55 2,83 1,-24 2,-47 5,-70 1,-13 4,-27 6,-42 3,-15 7,-30 12,-46 5,-15 11,-30 19,-43 8,-13 18,-23 29,-31 12,-8 26,-12 42,-12 14,0 25,4 33,13 9,9 13,20 13,34 0,10 -1,20 -4,30 -3,9 -7,19 -12,27zm-108 38c20,-12 35,-28 47,-48 5,-7 8,-14 11,-22 3,-9 4,-17 4,-25 0,-4 -1,-7 -2,-11 -2,-2 -3,-4 -6,-4 -2,0 -5,1 -7,3 -13,11 -23,26 -31,46 -7,20 -13,40 -16,61z"/>
  <path id="5" class="fil4" d="M3283 364c-3,10 -6,21 -11,33 -5,12 -11,23 -19,34 -8,11 -18,20 -31,27 -12,7 -28,10 -46,10 -11,0 -21,-2 -30,-7 -9,-5 -17,-12 -23,-21 -8,-11 -14,-23 -17,-36 -3,-13 -5,-26 -5,-40 0,-14 3,-29 8,-45 5,-16 13,-29 22,-41 12,-15 26,-26 42,-33 17,-8 35,-11 54,-11 12,0 23,1 32,3 10,4 22,8 34,13 5,-2 10,-3 15,-3 7,0 13,1 19,4 4,1 8,4 11,7 4,3 5,7 5,12 0,10 0,20 0,30l0 10c0,16 0,32 1,48 2,16 5,33 9,49 2,8 5,16 10,23 2,2 3,4 6,6 2,1 4,2 7,2 4,0 8,-2 12,-5 4,-4 7,-7 10,-10 13,-17 26,-37 39,-60 13,-22 24,-44 33,-63 1,-2 3,-4 6,-5 1,0 2,-1 3,-1 1,0 3,1 4,1 3,2 4,4 5,6 1,1 1,3 1,4 0,1 0,2 -1,4l-7 17c-9,19 -18,38 -28,57 -9,18 -21,36 -36,55 -5,7 -11,13 -18,20 -7,7 -14,12 -22,17 -8,5 -17,7 -26,7 -12,0 -23,-4 -31,-12 -8,-9 -14,-18 -19,-30 -5,-11 -9,-22 -11,-32 -3,-15 -6,-29 -7,-44zm-7 -45c3,-10 4,-26 5,-47 -14,-7 -25,-10 -34,-10 -13,0 -25,3 -36,11 -11,7 -21,16 -28,26 -6,9 -10,19 -14,31 -4,12 -6,23 -6,34 0,9 1,18 3,27 2,9 5,17 9,26 5,11 13,17 24,17 14,-1 26,-8 36,-21 10,-14 18,-29 25,-47 6,-18 12,-33 16,-47z"/>
  <path id="6" class="fil4" d="M3529 380c3,-8 6,-17 10,-26 10,-26 22,-50 37,-74 3,-5 7,-10 12,-16 4,-6 10,-11 15,-15 6,-4 13,-6 19,-6 4,0 8,1 12,2 11,7 19,18 22,34 3,15 4,29 4,42l1 14c0,15 -1,29 -2,43 -1,19 -2,39 -4,58 0,2 0,4 0,6 0,2 0,4 0,7 -3,31 -4,63 -4,95 0,9 0,18 1,28 0,1 0,2 1,3 0,1 0,1 0,1 0,1 1,1 1,1l0 0c1,0 2,0 3,-1 1,-1 2,-2 2,-3 21,-46 41,-93 59,-142 14,-37 29,-74 45,-110 0,-2 1,-4 2,-5 2,-5 4,-10 6,-15 2,-2 4,-4 6,-5 1,0 2,-1 3,-1 2,0 3,1 5,2 2,1 4,3 5,5 0,1 0,2 0,3 0,2 0,3 -1,5 -2,5 -4,9 -6,14 -1,1 -1,3 -2,4 -16,39 -32,81 -48,124 -17,50 -34,94 -51,132 -3,6 -7,14 -12,23 -5,8 -11,16 -18,23 -7,6 -14,10 -22,10 -4,0 -9,-1 -13,-3 -12,-7 -19,-18 -23,-33 -4,-16 -5,-30 -5,-43 -1,-8 -1,-16 -1,-24 0,-11 1,-22 1,-33 1,-21 2,-42 4,-64 0,-4 0,-8 1,-12 2,-30 4,-60 4,-90l0 -8c0,-8 0,-16 -1,-24 0,-1 0,-2 0,-2 0,-1 -1,-2 -1,-2l-1 0c-1,0 -2,0 -3,1 -2,1 -2,2 -3,3 -10,18 -20,38 -27,58 -7,15 -13,31 -18,47 -4,13 -8,27 -11,40 0,1 0,1 0,1 -1,3 -2,6 -4,7 -3,2 -5,3 -8,3 -11,0 -21,-2 -31,-6 -5,-1 -9,-3 -13,-6 -4,-3 -6,-8 -6,-13 -1,-21 -3,-43 -6,-65 -2,-12 -4,-24 -6,-37 -2,-7 -4,-14 -6,-21 -2,-5 -4,-10 -7,-15 -2,-2 -2,-5 -2,-7 0,-2 0,-3 0,-4 2,-5 4,-7 9,-9 6,-1 13,-2 20,-2 8,0 16,2 24,6 2,1 4,3 7,5 2,2 4,4 5,6 5,11 9,22 11,34 3,14 5,27 7,41 0,4 1,8 2,11zm80 -249c3,0 5,1 7,3 1,2 2,4 2,8 0,4 -1,10 -3,18 -1,8 -6,18 -13,29 -7,10 -14,15 -22,15 -13,0 -25,-6 -36,-16 -10,-10 -17,-15 -21,-16 -5,0 -11,4 -16,12 -5,12 -9,18 -12,18l-3 0c-4,-2 -7,-5 -7,-11l0 -2c0,-3 4,-12 13,-28 8,-16 17,-24 26,-24 10,0 20,5 32,16 11,10 19,15 24,15 11,0 18,-7 21,-21 2,-10 4,-16 8,-16z"/>
  <path id="7" class="fil4" d="M3927 364c-3,10 -6,21 -11,33 -5,12 -11,23 -19,34 -8,11 -18,20 -31,27 -12,7 -28,10 -46,10 -11,0 -21,-2 -30,-7 -9,-5 -17,-12 -23,-21 -8,-11 -14,-23 -17,-36 -3,-13 -5,-26 -5,-40 0,-14 3,-29 8,-45 5,-16 13,-29 22,-41 12,-15 26,-26 42,-33 17,-8 35,-11 54,-11 12,0 23,1 31,3 11,4 23,8 35,13 5,-2 10,-3 15,-3 7,0 13,1 19,4 4,1 8,4 11,7 4,3 5,7 5,12 0,10 0,20 0,30l0 10c0,16 0,32 1,48 2,16 5,33 9,49 2,8 5,16 10,23 2,2 3,4 5,6 3,1 5,2 8,2 4,0 8,-2 12,-5 4,-4 7,-7 10,-10 13,-17 26,-37 39,-60 13,-22 24,-44 33,-63 1,-2 3,-4 6,-5 1,0 2,-1 3,-1 1,0 3,1 4,1 3,2 4,4 5,6 1,1 1,3 1,4 0,1 0,2 -1,4l-8 17c-8,19 -17,38 -27,57 -9,18 -21,36 -36,55 -5,7 -11,13 -18,20 -7,7 -14,12 -22,17 -8,5 -17,7 -26,7 -12,0 -23,-4 -31,-12 -8,-9 -14,-18 -19,-30 -5,-11 -9,-22 -11,-32 -3,-15 -6,-29 -7,-44zm-7 -45c3,-10 4,-26 5,-47 -14,-7 -25,-10 -34,-10 -13,0 -25,3 -36,11 -11,7 -21,16 -28,26 -6,9 -10,19 -14,31 -4,12 -6,23 -6,34 0,9 1,18 3,27 2,9 5,17 9,26 5,11 13,17 24,17 14,-1 26,-8 36,-21 10,-14 18,-29 25,-47 6,-18 12,-33 16,-47z"/>
  <path id="8" class="fil4" d="M4173 380c3,-8 6,-17 10,-26 9,-26 22,-50 37,-74 3,-5 7,-10 12,-16 4,-6 10,-11 15,-15 6,-4 13,-6 19,-6 4,0 8,1 11,3 12,6 20,17 23,33 3,15 4,34 5,56 0,15 -1,29 -2,43 -1,17 -2,38 -5,62 -2,24 -3,43 -3,55 0,9 0,19 2,30 2,11 4,16 8,16 11,0 31,-39 62,-116 30,-78 46,-119 48,-124 2,-2 3,-4 6,-5 1,0 2,-1 3,-1 2,0 3,1 5,2 2,1 4,3 5,5 0,1 0,2 0,3 0,2 0,3 -1,5 -2,5 -17,43 -45,116 -29,73 -51,119 -67,137 -16,19 -32,28 -47,28 -4,0 -9,-1 -13,-3 -12,-6 -20,-17 -23,-33 -4,-16 -5,-30 -5,-43 -1,-8 -1,-16 -1,-24 0,-11 0,-22 1,-33 1,-8 3,-25 5,-50 2,-25 4,-50 4,-75 0,-8 0,-16 -1,-24 0,-3 -1,-4 -2,-4 -2,0 -4,1 -6,4 -10,18 -20,38 -27,58 -7,15 -13,31 -18,47 -4,13 -8,27 -11,40 0,1 0,1 0,1 -1,3 -2,6 -4,7 -3,2 -5,3 -8,3 -11,0 -21,-2 -31,-6 -5,-1 -9,-3 -13,-6 -4,-3 -6,-8 -6,-13 -1,-21 -3,-43 -6,-65 -2,-12 -4,-24 -6,-37 -2,-7 -4,-14 -6,-21 -2,-5 -4,-10 -7,-15 -2,-2 -3,-5 -3,-7 0,-2 1,-3 1,-4 2,-5 4,-7 9,-9 6,-1 13,-2 20,-2 8,0 16,2 24,6 2,1 4,3 7,5 2,2 4,4 5,6 5,11 9,22 11,34 3,14 5,27 7,41 0,4 1,8 2,11z"/>
  <path id="9" class="fil4" d="M4552 401c-8,2 -16,2 -24,2 -14,0 -25,-3 -34,-10 -9,-7 -16,-16 -20,-27 -5,-10 -7,-22 -7,-34 0,-18 5,-34 16,-47 10,-12 25,-19 44,-19 10,0 18,3 26,8 8,6 14,13 18,23 4,9 7,19 8,29 2,11 3,21 3,29 0,5 0,10 -1,14 19,-5 33,-11 44,-16 11,-5 25,-14 41,-26 15,-11 28,-23 40,-36 3,-1 5,-2 8,-2 2,0 5,0 7,2 2,2 3,5 3,7 0,3 -1,5 -3,7 -12,13 -25,24 -40,35 -16,13 -32,24 -48,33 -16,10 -34,17 -55,23 -3,22 -10,43 -20,65 -11,21 -27,37 -48,46 -7,2 -15,4 -24,4 -10,0 -19,-2 -29,-6 -11,-5 -21,-12 -30,-21 -8,-9 -15,-19 -20,-30 -12,-26 -18,-52 -18,-78 0,-24 5,-46 14,-66 10,-20 23,-37 41,-49 18,-13 40,-19 65,-19l0 0c4,1 6,3 8,6 1,2 2,4 2,6 0,1 0,2 0,3 -1,3 -2,5 -4,7 -3,2 -5,3 -8,3 -13,0 -23,4 -30,11 -7,8 -13,18 -17,30 -3,11 -6,23 -7,36 -1,12 -2,23 -2,32 0,7 1,16 3,27 1,11 4,22 7,34 4,11 9,20 15,28 7,8 14,12 24,12 8,0 15,-3 21,-9 6,-6 11,-13 15,-20 7,-15 13,-30 16,-47zm4 -25c1,-7 1,-14 1,-21 0,-4 0,-9 -1,-16 -1,-7 -2,-14 -4,-21 -2,-7 -5,-13 -8,-18 -4,-5 -9,-8 -14,-8 -7,0 -12,3 -16,7 -3,5 -6,10 -7,16 -2,6 -3,12 -3,17 0,6 1,13 3,20 2,7 6,13 10,18 5,5 11,8 19,8 6,0 13,-1 20,-2z"/>
  <path id="10" class="fil4" d="M4751 468c-4,-5 -7,-10 -11,-14 -7,-8 -13,-16 -19,-25 -8,-10 -15,-20 -21,-31 -7,-10 -12,-22 -16,-33 -4,-12 -6,-24 -6,-37 0,-14 3,-27 9,-40 5,-14 13,-24 24,-33 11,-9 24,-13 39,-13 15,0 28,5 40,15 11,11 17,23 17,38 0,4 -1,9 -2,13 -1,4 -2,6 -5,8 -2,1 -5,2 -8,2l-2 0c-3,-1 -6,-3 -7,-5 -2,-2 -3,-5 -3,-7 0,-1 1,-2 1,-2 0,-3 1,-6 1,-8 0,-6 -2,-12 -5,-17 -3,-3 -5,-4 -8,-4 -4,0 -7,1 -10,4 -6,6 -11,14 -14,23 -3,9 -4,17 -4,26 0,8 1,16 3,24 5,13 11,26 20,37 9,11 17,21 26,31 1,1 1,1 1,2 28,-28 57,-55 88,-81 3,-2 6,-5 9,-8 11,-9 21,-18 32,-26 0,0 1,0 1,-1 6,-5 12,-9 18,-13 2,-1 3,-1 5,-1 1,0 2,0 3,0 2,1 4,2 6,5 1,1 1,3 1,5 0,1 0,1 0,2 -1,3 -3,5 -5,6 -5,4 -10,7 -15,11 -1,1 -1,1 -2,2 -10,8 -21,17 -31,25 -31,28 -60,57 -88,87 -2,2 -3,4 -5,5 10,12 18,24 25,36 7,13 10,27 10,42 0,27 -8,48 -25,62 -17,15 -39,23 -65,23 -10,0 -19,-3 -28,-10 -6,-4 -11,-10 -14,-17 -3,-7 -5,-14 -5,-22 0,-9 3,-19 8,-30 5,-10 11,-21 18,-30 6,-10 13,-19 19,-26zm15 21c-3,3 -5,7 -8,10 -5,7 -11,16 -17,27 -7,11 -10,20 -10,28 0,3 1,6 2,9 1,2 3,5 6,6 5,2 10,3 14,3 8,0 15,-2 19,-6 5,-4 8,-10 9,-16 2,-7 3,-14 3,-20 0,-7 -2,-14 -6,-22 -3,-7 -8,-14 -12,-19z"/>
  <path id="11" class="fil4" d="M5141 370c3,22 8,43 14,63 3,6 5,13 8,19 2,4 4,7 7,10 3,3 6,4 10,4 4,0 8,-1 12,-4 4,-2 7,-5 10,-8 21,-20 40,-43 59,-69 19,-27 36,-53 53,-78 1,-2 2,-4 4,-7 2,-2 4,-3 6,-4l2 0c2,0 4,0 6,1 2,2 4,4 4,7 0,1 0,1 0,2 0,2 0,4 -1,5 -9,13 -17,26 -25,40 -13,21 -27,43 -42,64 -14,20 -31,39 -48,57 -9,9 -19,17 -30,24 -12,8 -24,12 -36,12 -9,0 -18,-3 -25,-9 -7,-5 -13,-11 -18,-19 -5,-8 -9,-16 -13,-23 -13,-32 -21,-66 -23,-101 -1,-5 -1,-10 -1,-16 0,-3 -1,-7 -1,-11 0,-12 1,-25 3,-40 2,-18 6,-36 14,-52 7,-17 18,-29 32,-38 9,-4 18,-6 28,-6 14,0 26,4 37,11 12,10 20,23 24,38 4,15 6,30 6,44 0,13 -2,27 -5,40 -4,14 -12,25 -23,33 -13,8 -26,12 -40,12 -3,0 -5,0 -8,-1zm-2 -25c3,1 5,1 8,1 3,0 7,-1 10,-1 7,-1 12,-3 17,-6 8,-6 13,-14 15,-24 2,-11 3,-20 3,-29 0,-8 -1,-17 -2,-26 -2,-10 -5,-18 -9,-26 -2,-2 -3,-3 -5,-5 -2,-1 -4,-2 -6,-2 -2,0 -4,1 -6,2 -1,1 -3,3 -4,4 -6,9 -10,19 -13,29 -6,21 -9,42 -9,63 0,5 0,9 1,14 0,2 0,4 0,6z"/>
  <path id="12" class="fil4" d="M5353 286c0,4 0,7 0,11 0,15 1,30 2,45 1,21 3,41 5,61 1,15 3,30 6,45 2,13 5,26 9,38 0,2 1,4 2,5 1,2 2,2 4,2 3,0 5,-1 8,-3 3,-2 5,-4 7,-6 18,-23 35,-51 53,-86 18,-35 31,-67 38,-96 0,-3 2,-5 4,-7 2,-1 4,-1 6,-1l2 0c2,1 5,2 6,5 1,1 2,3 2,5 0,1 0,1 -1,2 -13,62 -39,121 -78,176 -5,8 -12,16 -19,25 -8,9 -17,17 -26,24 -10,7 -20,10 -30,10 -17,0 -32,-19 -44,-57 -12,-38 -18,-87 -18,-148 0,-95 11,-165 33,-212 22,-47 50,-70 85,-70 9,0 18,2 27,7 9,5 15,13 19,22 4,9 6,18 6,29 0,21 -6,42 -17,64 -12,22 -26,42 -42,61 -17,19 -33,36 -49,49zm2 -35c4,-4 8,-8 11,-11 10,-11 21,-23 31,-37 11,-14 20,-30 28,-45 7,-16 11,-32 11,-46 0,-7 -1,-13 -4,-19 -2,-4 -5,-6 -9,-6 -3,0 -6,1 -9,2 -3,1 -5,2 -8,4 -12,11 -22,26 -29,44 -7,18 -12,38 -16,58 -3,20 -5,39 -6,56z"/>
  <path id="13" class="fil4" d="M5754 277c-6,-32 -10,-65 -13,-98 -1,-14 -1,-27 -1,-41 0,-14 1,-30 3,-49 3,-19 8,-36 15,-52 8,-15 19,-27 34,-33 6,-3 13,-4 19,-4 6,0 12,1 19,4 13,6 23,17 30,32 7,16 11,32 13,50 2,18 3,33 3,46 0,28 -2,56 -6,84 -5,37 -12,74 -21,111 -2,11 -6,23 -9,34 8,21 19,40 35,57 2,3 6,6 9,8 4,1 8,2 12,2 9,0 18,-4 27,-13 10,-9 19,-20 27,-33 9,-13 17,-26 24,-40 7,-13 13,-24 18,-33l4 -7c1,-3 3,-4 6,-5 1,-1 2,-1 2,-1 2,0 3,0 5,1 3,2 4,4 5,6 0,1 1,2 1,3 0,2 -1,3 -1,5l-8 14c-6,13 -14,27 -22,43 -9,16 -18,31 -29,45 -11,15 -22,27 -35,36 -12,10 -25,15 -39,15 -14,0 -27,-4 -38,-10 -11,-6 -21,-14 -29,-25 -8,16 -17,30 -27,44 -10,14 -23,26 -37,35 -14,9 -30,14 -48,14 -30,0 -54,-10 -70,-29 -17,-19 -25,-48 -25,-86 0,-40 10,-73 29,-97 19,-24 47,-36 84,-36 11,0 23,1 34,3zm43 129c-9,-16 -17,-33 -23,-51 -6,-16 -10,-32 -14,-49 -12,-4 -22,-6 -32,-6 -16,0 -29,9 -41,28 -12,18 -17,47 -17,85 0,27 4,47 13,59 10,12 21,18 33,18 11,0 20,-3 29,-9 12,-9 22,-21 30,-34 9,-14 16,-27 22,-41zm29 -88c0,-1 1,-3 1,-4 8,-34 14,-68 18,-102 2,-15 4,-30 5,-45 1,-11 1,-23 1,-35 0,-12 -1,-24 -2,-37 -1,-12 -3,-24 -7,-36 0,-1 -1,-4 -2,-6 -1,-3 -3,-5 -4,-7 -2,-2 -4,-3 -6,-3 -2,0 -4,0 -6,2 -2,1 -3,3 -4,4 -4,6 -7,12 -9,18 -3,11 -6,23 -7,35 -1,12 -2,24 -2,36 0,22 1,44 4,66 2,29 7,57 13,85 2,10 4,19 7,29z"/>
  <path id="14" class="fil4" d="M6178 308c-8,30 -17,61 -27,91 -9,31 -21,60 -35,89 -9,20 -21,39 -35,56 -3,4 -7,8 -11,11 -8,7 -17,11 -27,11l-2 0c-13,-2 -24,-9 -32,-22 -9,-13 -15,-27 -20,-42 -5,-16 -8,-29 -10,-40 -6,-31 -9,-62 -10,-94 0,-8 0,-16 0,-23 0,-27 2,-54 4,-81 1,-3 2,-6 5,-8 2,-2 5,-3 8,-3 10,0 21,2 32,6 2,1 5,2 7,4 6,4 9,9 9,16 -2,22 -3,43 -3,64 0,5 0,11 1,16 0,28 2,55 6,81 1,6 2,12 3,17 2,9 4,18 6,27 1,5 3,10 4,15 2,5 3,9 5,13 1,4 3,7 5,9 0,1 1,2 1,2 1,1 2,1 2,1 0,0 1,0 1,0 0,0 1,-1 1,-1 0,0 0,0 1,0 1,-2 2,-4 4,-5 3,-5 7,-11 9,-16 5,-8 10,-16 14,-25 27,-56 48,-114 65,-174 1,-3 2,-5 5,-7 1,-1 3,-1 5,-1 1,0 1,0 2,0 3,1 5,3 6,5 1,2 2,3 2,5 0,1 -1,2 -1,3zm-124 -140c0,5 0,12 -2,20 -1,8 -3,15 -7,21 -3,6 -8,9 -14,9 -6,0 -13,0 -21,-1 -8,-1 -15,-3 -22,-6 -6,-3 -9,-8 -9,-16 0,-5 1,-12 2,-19 1,-8 4,-14 8,-20 4,-5 9,-8 16,-8 5,0 12,1 20,1 7,1 14,3 20,6 6,2 9,7 9,13z"/>
  <path id="15" class="fil4" d="M6315 364c-3,10 -7,21 -11,33 -5,12 -11,23 -19,34 -8,11 -18,20 -31,27 -12,7 -28,10 -46,10 -11,0 -21,-2 -30,-7 -9,-5 -17,-12 -23,-21 -8,-11 -14,-23 -17,-36 -3,-13 -5,-26 -5,-40 0,-14 3,-29 8,-45 5,-16 12,-29 22,-41 12,-15 26,-26 42,-33 17,-8 35,-11 54,-11 12,0 23,1 31,3 11,4 23,8 35,13 5,-2 10,-3 15,-3 7,0 13,1 19,4 4,1 8,4 11,7 3,3 5,7 5,12 0,10 0,20 0,30l0 10c0,16 0,32 1,48 2,16 5,33 9,49 2,8 5,16 10,23 2,2 3,4 5,6 3,1 5,2 8,2 4,0 8,-2 12,-5 4,-4 7,-7 10,-10 13,-17 26,-37 39,-60 13,-22 24,-44 33,-63 1,-2 3,-4 6,-5 1,0 2,-1 3,-1 1,0 3,1 4,1 3,2 4,4 5,6 1,1 1,3 1,4 0,1 0,2 -1,4l-8 17c-8,19 -17,38 -27,57 -9,18 -21,36 -36,55 -5,7 -11,13 -18,20 -7,7 -14,12 -22,17 -8,5 -17,7 -26,7 -12,0 -23,-4 -31,-12 -8,-9 -14,-18 -19,-30 -5,-11 -9,-22 -11,-32 -3,-15 -6,-29 -7,-44zm-7 -45c2,-10 4,-26 4,-47 -13,-7 -24,-10 -34,-10 -12,0 -24,3 -35,11 -12,7 -21,16 -28,26 -6,9 -10,19 -14,31 -4,12 -6,23 -6,34 0,9 1,18 3,27 2,9 5,17 9,26 5,11 13,17 24,17 14,-1 26,-8 36,-21 10,-14 18,-29 25,-47 6,-18 12,-33 16,-47z"/>
  <path id="16" class="fil4" d="M6526 465c12,0 20,5 24,13 4,9 6,19 6,30 -1,25 -13,37 -34,37 -27,0 -42,-10 -43,-30 0,-21 4,-35 12,-41 9,-5 20,-8 35,-9zm-1 -230c13,0 21,4 25,12 3,9 5,19 5,30 0,25 -12,37 -33,37 -28,0 -42,-10 -43,-30 0,-21 4,-35 12,-41 8,-5 20,-8 34,-8z"/>
  <path class="fil5" d="M1812 6359c0,-56 4,-113 12,-169 8,-56 19,-112 31,-166 12,-55 25,-110 37,-164 13,-55 24,-110 33,-164l32 -162c0,-8 1,-18 3,-32 1,-14 2,-22 2,-25 0,-1 -2,-8 -5,-20 -1,-3 -2,-8 -1,-13 1,-5 1,-9 1,-12l-6 0 -76 59 -357 205c-3,6 -10,17 -21,33 -10,16 -21,32 -33,50 -11,17 -22,34 -33,50 -10,16 -18,28 -23,35 -4,6 -12,17 -22,31 -11,15 -23,29 -37,44 -13,16 -27,29 -40,40 -13,12 -23,17 -30,17l0 -29 -7 -2c-3,1 -10,6 -21,13 -10,8 -19,13 -25,16 -6,5 -16,13 -30,24 -15,11 -30,23 -46,35 -16,13 -31,24 -46,36 -14,11 -24,19 -28,24 -2,0 -5,0 -9,1 -5,1 -8,1 -9,1 -73,26 -141,46 -204,60 -63,15 -134,22 -213,22l-19 0 -54 0 -18 0c-29,0 -51,-11 -66,-34 1,-6 10,-13 27,-20 17,-6 35,-14 56,-21 20,-8 40,-15 60,-21 20,-6 34,-10 41,-13 65,-26 125,-63 180,-110 55,-47 101,-101 139,-161 3,-3 8,-12 15,-26 7,-13 12,-22 15,-25l0 -2 0 -2c-40,3 -71,5 -95,5 -23,1 -53,2 -90,2 -27,0 -55,-2 -82,-4 -27,-2 -55,-3 -82,-3l-16 0c-7,27 3,48 -9,88 -12,39 -12,59 -28,94 0,1 -28,18 -39,21 -11,3 -31,25 -44,28 -14,4 -25,-2 -38,0 -13,2 -17,-6 -22,-6 -12,0 -36,-22 -42,-26 -6,-4 20,-134 9,-142 -27,0 -111,198 -121,217 -9,19 -20,39 -30,60 -11,20 -25,37 -43,51l-10 0 -22 0 -7 0c-14,0 -30,0 -48,-1 -18,-1 -36,-4 -54,-8 -17,-5 -32,-12 -44,-23 -12,-11 -18,-25 -18,-43 0,-43 9,-84 28,-124 19,-41 42,-79 70,-116 27,-36 56,-71 87,-103 31,-33 58,-64 81,-92 3,-3 6,-7 9,-13 3,-5 5,-9 5,-10 1,0 2,-1 2,-2l-2 -3c-8,-7 -17,-18 -29,-30 -11,-13 -20,-26 -28,-38l-2 0 0 -2 2 -5c1,-1 5,-4 9,-7 35,-21 67,-40 95,-58 28,-17 54,-41 78,-72 3,-4 12,-14 25,-30 14,-16 29,-34 45,-54 16,-20 30,-37 44,-53 14,-16 22,-27 25,-31 70,-76 146,-147 229,-212 83,-65 170,-121 263,-169 93,-47 189,-83 289,-110 101,-27 203,-40 308,-40 20,0 43,0 71,-1 27,-1 50,1 70,6 9,3 23,7 41,12 18,5 38,11 59,17 22,6 41,12 60,18 18,7 31,10 41,12l0 2c6,0 14,-3 26,-8 51,-23 92,-63 134,-98 28,-24 61,-45 97,-51 63,-10 125,-21 187,-32 29,-5 58,-13 88,-11 26,2 52,8 75,21 25,15 56,30 92,47 12,6 18,20 23,31 6,17 65,105 52,158 -1,5 -4,26 -9,28 -3,3 -45,0 -53,5 -61,38 -91,61 -154,95 -26,16 -55,35 -86,54 -31,20 -62,30 -94,30 -14,0 -28,-1 -42,-5 -15,-3 -30,-4 -47,-4 -32,0 -65,4 -99,13 -34,10 -62,27 -83,53 24,4 49,8 76,11 27,3 52,9 76,16 25,8 46,20 64,36 18,15 32,39 41,69l0 59 0 18 0 16 0 60c-8,60 -23,119 -48,176 -24,57 -47,112 -68,165 -8,15 -14,33 -19,54 -6,20 -12,41 -20,61 -7,21 -16,40 -26,60 -10,19 -22,33 -38,44 -4,1 -8,2 -11,2 -2,0 -3,-1 -5,-2 -3,4 -8,12 -15,23 -8,10 -16,22 -23,35 -8,13 -15,25 -22,36 -7,12 -12,20 -15,24 -3,8 -11,26 -26,55 -14,29 -30,60 -46,93 -15,34 -31,65 -45,95 -14,30 -24,48 -29,56 -1,3 -6,12 -15,28 -10,16 -16,28 -19,36 -3,6 -8,14 -14,24 -7,9 -15,14 -22,14 -9,0 -16,-3 -22,-11 -5,-8 -9,-17 -12,-27 -3,-11 -6,-22 -7,-32 -2,-11 -2,-19 -2,-25z"/>
  <path class="fil3" d="M1131 5256c-18,18 -31,40 -41,65 -9,26 -15,51 -18,76 -4,24 -7,49 -8,73 -1,25 -2,50 -2,74 0,28 3,59 7,92 5,33 13,65 25,95 13,30 30,55 53,74 10,8 20,14 32,18 12,4 24,6 37,6 22,0 43,-7 62,-20 33,-22 62,-50 85,-83 22,-33 41,-68 55,-106 14,-39 24,-77 32,-116 0,-3 2,-5 4,-6 1,-1 3,-2 5,-2 1,0 2,0 2,0 3,1 5,2 7,4 1,2 2,4 2,5 0,1 -1,2 -1,3 -7,38 -18,77 -32,118 -15,41 -33,80 -57,116 -23,36 -51,65 -84,88 -15,10 -31,19 -47,25 -17,6 -34,9 -52,9 -18,0 -36,-3 -52,-8 -17,-5 -33,-13 -48,-24 -27,-21 -48,-47 -63,-80 -15,-33 -25,-68 -31,-105 -5,-37 -8,-71 -8,-103 0,-25 1,-50 2,-76 1,-25 4,-50 8,-75 3,-22 8,-44 15,-67 7,-22 17,-43 28,-61 12,-19 28,-34 46,-46 19,-11 41,-17 68,-17 24,0 46,7 66,21 20,14 35,32 44,54 10,22 15,45 15,68 0,34 -11,64 -33,90 -2,3 -6,5 -9,5 -4,0 -8,-1 -10,-4 -3,-2 -5,-5 -5,-9 0,-4 1,-7 3,-10 18,-20 26,-45 26,-73 0,-31 -10,-58 -30,-82 -14,-16 -30,-23 -49,-23 -9,0 -18,1 -26,4 -9,3 -16,7 -23,13z"/>
  <path id="1" class="fil3" d="M1587 5600c-8,2 -16,2 -24,2 -13,0 -25,-3 -34,-10 -9,-7 -16,-16 -20,-27 -5,-10 -7,-22 -7,-34 0,-18 5,-34 16,-47 10,-13 25,-19 44,-19 10,0 18,3 26,8 8,6 14,13 18,23 4,9 7,19 8,29 2,11 3,20 3,29 0,5 0,10 0,14 18,-5 33,-11 43,-16 11,-5 25,-14 41,-26 15,-11 28,-23 41,-36 2,-1 4,-2 7,-2 2,0 5,0 7,2 2,2 3,5 3,7 0,3 -1,5 -3,7 -12,13 -25,24 -39,35 -16,13 -32,24 -48,33 -16,10 -35,17 -56,23 -3,22 -10,43 -20,65 -11,21 -27,37 -47,46 -8,2 -16,4 -24,4 -10,0 -20,-2 -29,-6 -12,-5 -22,-12 -30,-21 -9,-9 -16,-19 -21,-30 -12,-26 -18,-52 -18,-78 0,-24 5,-46 14,-66 10,-20 24,-37 42,-49 17,-13 39,-19 64,-19l0 0c4,1 6,3 8,6 2,2 2,4 2,6 0,1 0,2 0,3 -1,3 -2,5 -4,7 -2,2 -5,3 -8,3 -13,0 -23,4 -30,11 -7,8 -13,18 -16,30 -4,11 -7,23 -8,36 -1,12 -1,23 -1,32 0,7 0,16 2,27 1,11 4,22 7,34 4,11 9,20 15,28 7,8 15,12 24,12 8,0 15,-3 21,-9 7,-6 11,-13 15,-20 7,-15 13,-30 16,-47zm4 -26c1,-6 1,-13 1,-20 0,-4 0,-9 -1,-16 -1,-7 -2,-14 -4,-21 -2,-7 -5,-13 -8,-18 -4,-5 -9,-8 -14,-8 -7,0 -12,3 -16,7 -3,4 -6,10 -7,16 -2,6 -3,12 -3,17 0,6 1,13 3,20 2,7 6,13 10,18 5,5 11,8 19,8 7,0 13,-1 20,-3z"/>
  <path id="2" class="fil3" d="M1826 5520c10,2 20,3 30,3 4,0 8,2 10,5 2,3 3,5 3,8 0,1 0,2 0,2 -8,38 -15,76 -18,114 -2,16 -3,32 -3,47 0,5 0,10 0,15 1,8 1,15 2,22 1,5 2,10 3,14 0,4 1,8 2,12 1,1 1,2 2,3 1,2 2,3 3,5 1,1 2,1 3,1 2,0 3,-1 5,-3 2,-2 4,-5 5,-7l1 -2c4,-4 7,-9 10,-13 16,-26 32,-57 47,-92 15,-36 28,-68 38,-98l11 -29 2 -8c1,-1 1,-2 1,-3 3,-7 6,-15 8,-22 2,-3 3,-4 6,-5 1,-1 2,-1 4,-1 1,0 2,0 3,0 3,1 5,3 6,5 1,1 1,3 1,4 0,1 0,3 -1,4 -3,7 -5,14 -8,22 0,1 0,2 -1,3l-2 8 -11 29 -11 32c-9,27 -19,55 -30,83 -11,27 -25,54 -42,81 -4,7 -9,14 -16,22 -6,8 -13,15 -21,20 -8,6 -16,9 -25,9 -9,0 -17,-3 -26,-7 -10,-7 -17,-16 -22,-28 -5,-12 -8,-25 -10,-39 -1,-14 -2,-26 -2,-37 0,-16 1,-33 3,-50 3,-36 9,-72 17,-108 -10,-3 -20,-6 -30,-10 -14,-6 -26,-14 -37,-24 -15,-14 -23,-31 -23,-50 0,-23 8,-51 24,-85 3,-5 7,-8 12,-8 9,0 19,2 29,5 4,1 7,3 11,5 3,2 5,4 7,7 -20,33 -31,61 -32,84 0,26 21,44 62,55z"/>
  <path id="3" class="fil3" d="M2078 5520c10,2 20,3 30,3 4,0 7,2 10,5 2,3 3,5 3,8 0,1 0,2 0,2 -9,38 -15,76 -19,114 -1,16 -2,32 -2,47 0,5 0,10 0,15 1,8 1,15 2,22 1,5 1,10 2,14 1,4 2,8 3,12 1,1 1,2 2,3 1,2 1,3 2,5 1,1 2,1 4,1 1,0 3,-1 5,-3 2,-2 4,-5 5,-7l1 -2c3,-4 7,-9 10,-13 16,-26 31,-57 47,-92 15,-36 28,-68 38,-98l11 -29 2 -8c1,-1 1,-2 1,-3 3,-7 5,-15 8,-22 1,-3 3,-4 5,-5 2,-1 3,-1 5,-1 1,0 2,0 3,0 3,1 5,3 6,5 0,1 1,3 1,4 0,1 -1,3 -1,4 -3,7 -5,14 -8,22 0,1 -1,2 -1,3l-3 8 -10 29 -11 32c-9,27 -19,55 -30,83 -12,27 -25,54 -42,81 -4,7 -10,14 -16,22 -6,8 -13,15 -21,20 -8,6 -16,9 -25,9 -9,0 -18,-3 -26,-7 -10,-7 -18,-16 -22,-28 -5,-12 -9,-25 -10,-39 -1,-14 -2,-26 -2,-37 0,-16 1,-33 2,-50 4,-36 10,-72 18,-108 -10,-3 -20,-6 -30,-10 -14,-6 -26,-14 -37,-24 -15,-14 -23,-31 -23,-50 0,-23 8,-51 24,-85 2,-5 6,-8 12,-8 9,0 19,2 29,5 4,1 7,3 11,5 3,2 5,4 7,7 -21,33 -31,61 -33,84 0,26 21,44 63,55z"/>
  <path id="4" class="fil3" d="M2285 5569c2,22 7,42 14,63 2,6 5,13 8,19 1,4 4,7 6,10 3,3 7,4 11,4 4,0 8,-1 12,-4 3,-2 7,-5 10,-8 20,-20 40,-43 58,-70 19,-26 37,-52 53,-77 2,-2 3,-4 4,-7 2,-2 4,-3 7,-4l2 0c2,0 3,0 5,1 3,2 4,4 4,7 1,1 1,1 1,2 0,2 -1,3 -2,5 -8,13 -17,26 -25,39 -13,22 -27,44 -41,64 -15,21 -31,40 -49,58 -8,9 -18,17 -30,24 -11,8 -23,12 -36,12 -9,0 -17,-3 -24,-9 -7,-5 -14,-12 -19,-19 -5,-8 -9,-16 -12,-23 -13,-32 -21,-66 -24,-101 0,-5 -1,-11 -1,-16 0,-3 0,-7 0,-11 0,-12 1,-25 2,-40 2,-18 7,-36 14,-52 7,-17 18,-29 33,-38 8,-4 18,-7 28,-7 13,0 25,4 36,12 12,10 20,23 24,38 5,15 7,30 7,44 0,13 -2,27 -6,40 -4,14 -11,25 -23,33 -12,8 -25,12 -40,12 -2,0 -5,0 -7,-1zm-3 -25c3,0 6,1 8,1 4,0 7,-1 11,-1 6,-1 12,-3 17,-6 7,-6 12,-14 14,-24 3,-11 4,-20 4,-29 0,-8 -1,-17 -3,-26 -1,-10 -4,-18 -9,-26 -1,-2 -3,-3 -4,-5 -2,-1 -4,-2 -7,-2 -2,0 -3,1 -5,2 -2,1 -3,3 -4,4 -6,9 -11,19 -14,29 -5,21 -8,42 -8,63 0,5 0,9 0,14 0,2 0,4 0,6z"/>
  <path id="5" class="fil3" d="M2685 5565c19,-12 40,-24 64,-36 23,-12 45,-22 64,-31 2,-1 3,-1 5,-1 1,0 2,0 3,0 3,1 4,3 6,5 0,2 1,3 1,5 0,1 -1,2 -1,3 -1,2 -2,4 -5,5 -23,11 -44,22 -62,32 -17,11 -36,22 -54,34 -5,3 -11,6 -16,10 4,19 6,38 7,57 0,7 0,14 0,21 0,15 -1,30 -3,46 -2,23 -8,45 -17,66 -9,21 -22,38 -39,53 -12,10 -26,18 -41,22 -14,5 -30,7 -46,7 -21,0 -38,-7 -53,-20 -15,-14 -22,-31 -22,-53 0,-18 5,-37 16,-55 10,-18 23,-36 39,-52 16,-17 33,-32 51,-46 17,-14 33,-26 47,-36 -1,-10 -3,-21 -6,-31 -5,-20 -12,-39 -21,-57 -4,16 -10,31 -18,46 -7,14 -17,27 -29,36 -12,10 -27,15 -46,15 -13,0 -24,-3 -33,-9 -10,-7 -18,-15 -24,-25 -6,-9 -10,-20 -13,-32 -3,-12 -5,-23 -5,-34 0,-22 4,-42 10,-62 6,-19 17,-35 31,-47 15,-12 35,-18 59,-18l1 0c20,0 37,7 52,20 10,10 17,22 20,36 1,1 1,2 1,2 0,3 -1,5 -3,7 -1,3 -4,5 -7,5 -1,1 -2,1 -3,1 -2,0 -5,-1 -7,-2 -3,-2 -4,-5 -5,-8 -2,-9 -7,-17 -13,-23 -6,-5 -12,-7 -19,-7 -7,0 -14,2 -21,6 -9,6 -16,14 -21,25 -4,10 -8,21 -10,32 -1,12 -2,22 -2,33 0,8 1,18 3,27 3,10 6,18 11,26 5,8 11,12 20,12 7,0 13,-3 18,-8 10,-11 17,-25 22,-40 5,-15 9,-30 12,-44 -1,-1 -1,-1 -1,-2 0,-2 1,-3 1,-4 2,-5 5,-7 9,-8 6,-2 12,-2 18,-2 6,0 12,0 19,2 3,1 6,2 10,4 3,2 6,4 8,6 18,26 31,55 38,86zm-52 64c-12,8 -26,19 -41,31 -15,12 -29,26 -43,40 -14,15 -25,30 -35,45 -9,15 -13,31 -13,45 0,15 5,26 14,35 10,9 22,13 36,13 16,0 29,-4 39,-14 11,-9 19,-21 25,-36 6,-15 11,-31 14,-48 3,-17 5,-34 5,-50 1,-8 1,-15 1,-22 0,-7 0,-13 -1,-19 0,-6 0,-13 -1,-20z"/>
  <path id="6" class="fil3" d="M2991 5507c-8,30 -17,61 -27,91 -9,31 -21,60 -35,89 -9,20 -21,38 -34,56 -4,4 -8,8 -12,11 -8,7 -17,11 -27,11l-2 0c-13,-2 -24,-9 -32,-22 -9,-13 -15,-27 -20,-42 -5,-16 -8,-29 -10,-41 -6,-30 -9,-61 -9,-93 -1,-8 -1,-16 -1,-23 0,-27 2,-54 5,-81 0,-3 1,-6 4,-8 2,-2 5,-3 8,-3 10,0 21,2 32,6 2,1 5,2 7,4 6,4 10,9 10,16 -3,22 -4,43 -4,64 0,5 0,11 1,16 0,27 2,55 6,81 1,6 2,11 3,17 2,9 4,18 6,27 2,5 3,10 4,15 2,5 4,9 5,13 2,4 3,7 5,9 0,1 1,2 1,2 1,0 2,1 2,1 1,0 1,0 1,0 1,-1 1,-1 1,-1 0,0 0,0 1,0 1,-2 3,-4 4,-5 4,-5 7,-11 10,-16 4,-8 9,-17 13,-25 27,-56 48,-114 65,-175 1,-2 2,-4 5,-6 1,-1 3,-1 5,-1 1,0 2,0 2,0 3,1 5,3 6,5 1,2 2,3 2,5 0,1 0,2 -1,3zm-124 -140c0,5 0,12 -1,20 -2,8 -4,15 -7,21 -4,6 -9,9 -15,9 -6,0 -13,0 -21,-1 -8,-1 -15,-3 -21,-6 -7,-3 -10,-8 -10,-16 0,-5 1,-12 2,-19 2,-8 4,-14 8,-20 4,-5 10,-8 17,-8 5,0 11,1 19,1 7,1 14,3 20,5 6,3 9,8 9,14z"/>
  <path id="7" class="fil3" d="M3375 5498c1,-3 2,-5 4,-6 2,-1 4,-1 5,-1 1,0 2,0 3,0 3,1 5,3 6,5 1,2 1,3 1,5 0,1 0,2 0,3 -3,9 -16,41 -37,95 -22,54 -39,92 -52,113 -4,7 -9,13 -15,19 -5,7 -11,12 -18,16 -7,5 -14,7 -23,7 -5,0 -10,-1 -14,-3 -8,-5 -14,-13 -17,-24 -4,-10 -5,-20 -6,-29 0,-12 -1,-24 -1,-35 0,-10 1,-20 1,-29 1,-18 1,-31 1,-40 0,-11 0,-22 -1,-33 0,-5 0,-9 -1,-12 0,-4 -1,-5 -3,-5 -1,0 -2,0 -3,1 -1,1 -2,2 -2,3 -10,16 -18,33 -24,52 -6,16 -11,33 -14,50l0 1c-1,3 -3,5 -5,7 -2,2 -5,3 -8,3l-3 -1 -3 1c-3,0 -7,0 -10,-1l-1 0c-10,0 -19,-3 -27,-10 -5,-5 -7,-11 -7,-17l0 -2c0,-10 1,-20 1,-30 0,-11 -1,-23 -1,-35 -1,-12 -3,-25 -5,-37 0,-2 -1,-3 -2,-4 0,-1 -1,-1 -2,-1 -2,0 -3,1 -4,2 -1,1 -2,2 -2,3 -8,21 -15,43 -20,64 -6,22 -11,45 -15,67 -1,7 -2,13 -4,20 -1,9 -3,17 -4,26l0 0c-1,3 -3,5 -5,7 -2,2 -5,3 -8,3 -10,0 -20,-1 -30,-3 -5,-1 -10,-2 -14,-5 -5,-2 -8,-6 -8,-11 -2,-37 -5,-73 -9,-108 -2,-20 -5,-40 -9,-59 -2,-7 -3,-14 -5,-20 -2,-7 -5,-14 -8,-21 0,-2 -1,-4 -1,-5 0,-3 1,-5 2,-7 3,-4 6,-6 10,-6 5,0 12,1 20,1 8,1 16,3 23,5 7,3 11,7 13,12 5,15 9,29 12,44 3,18 6,35 7,53 2,8 2,16 3,24 2,-8 4,-15 6,-23 3,-13 6,-26 10,-38 5,-14 10,-28 16,-41 4,-9 10,-18 17,-27 7,-9 17,-14 28,-14 5,0 9,1 14,3 10,4 18,12 23,23 5,12 9,24 11,37 2,13 4,24 4,34 0,1 0,2 0,2 5,-10 10,-21 17,-32 7,-12 14,-21 23,-30 9,-8 18,-12 29,-12 6,0 12,1 18,4 8,6 15,14 18,26 4,12 6,30 6,53 0,13 0,29 -1,49 -1,19 -2,33 -2,40 0,11 1,19 2,24 2,5 3,8 6,8 12,0 43,-66 94,-198z"/>
  <path id="8" class="fil3" d="M3558 5507c-9,30 -18,61 -27,91 -10,31 -22,60 -36,89 -9,20 -20,38 -34,56 -4,4 -7,8 -12,11 -8,7 -17,11 -27,11l-2 0c-13,-2 -23,-9 -32,-22 -8,-13 -15,-27 -20,-42 -4,-16 -8,-29 -10,-41 -5,-30 -8,-61 -9,-93 0,-8 0,-16 0,-23 0,-27 1,-54 4,-81 0,-3 2,-6 4,-8 2,-2 5,-3 8,-3 11,0 21,2 32,6 3,1 5,2 7,4 7,4 10,9 10,16 -2,22 -3,43 -3,64 0,5 0,11 0,16 0,27 3,55 6,81 1,6 2,11 4,17 1,9 3,18 5,27 2,5 3,10 5,15 1,5 3,9 5,13 1,4 3,7 4,9 1,1 1,2 2,2 0,0 1,1 2,1 0,0 0,0 1,0 0,-1 0,-1 0,-1 1,0 1,0 1,0 2,-2 3,-4 4,-5 4,-5 7,-11 10,-16 5,-8 9,-17 13,-25 27,-56 49,-114 65,-175 1,-2 3,-4 5,-6 2,-1 3,-1 5,-1 1,0 2,0 3,0 2,1 4,3 6,5 1,2 1,3 1,5 0,1 0,2 0,3zm-124 -140c0,5 -1,12 -2,20 -1,8 -4,15 -7,21 -4,6 -8,9 -15,9 -5,0 -12,0 -20,-1 -9,-1 -16,-3 -22,-6 -6,-3 -10,-8 -10,-16 0,-5 1,-12 2,-19 2,-8 5,-14 8,-20 4,-5 10,-8 17,-8 5,0 11,1 19,1 8,1 15,3 21,5 6,3 9,8 9,14z"/>
  <path id="9" class="fil3" d="M3580 5569c3,22 8,42 15,63 2,6 4,13 7,19 2,4 4,7 7,10 3,3 6,4 10,4 4,0 8,-1 12,-4 4,-2 7,-5 10,-8 21,-20 40,-43 59,-70 19,-26 36,-52 53,-77 1,-2 2,-4 4,-7 2,-2 4,-3 6,-4l2 0c2,0 4,0 6,1 2,2 4,4 4,7 0,1 0,1 0,2 0,2 0,3 -1,5 -9,13 -17,26 -25,39 -13,22 -27,44 -42,64 -14,21 -30,40 -48,58 -9,9 -19,17 -30,24 -12,8 -24,12 -36,12 -9,0 -18,-3 -25,-9 -7,-5 -13,-12 -18,-19 -5,-8 -9,-16 -13,-23 -13,-32 -21,-66 -23,-101 -1,-5 -1,-11 -1,-16 0,-3 -1,-7 -1,-11 0,-12 1,-25 3,-40 2,-18 7,-36 14,-52 7,-17 18,-29 32,-38 9,-4 18,-7 28,-7 14,0 26,4 37,12 12,10 20,23 24,38 4,15 6,30 6,44 0,13 -2,27 -5,40 -4,14 -12,25 -23,33 -13,8 -26,12 -40,12 -3,0 -5,0 -8,-1zm-2 -25c3,0 5,1 8,1 3,0 7,-1 11,-1 6,-1 11,-3 16,-6 8,-6 13,-14 15,-24 2,-11 3,-20 3,-29 0,-8 -1,-17 -2,-26 -2,-10 -5,-18 -9,-26 -2,-2 -3,-3 -5,-5 -2,-1 -4,-2 -6,-2 -2,0 -4,1 -5,2 -2,1 -3,3 -5,4 -6,9 -10,19 -13,29 -6,21 -9,42 -9,63 0,5 0,9 1,14 0,2 0,4 0,6z"/>
  <path id="10" class="fil3" d="M3815 5579c3,-8 6,-17 10,-26 10,-26 22,-50 37,-74 3,-5 7,-10 12,-16 5,-6 10,-11 16,-15 6,-4 12,-6 18,-6 4,0 8,1 12,3 12,6 19,17 22,33 3,15 5,34 5,56 0,14 -1,29 -2,43 0,17 -2,38 -4,62 -3,24 -4,43 -4,55 0,9 1,19 2,30 2,11 5,16 8,16 11,0 32,-39 62,-116 30,-78 46,-119 49,-124 1,-2 3,-4 6,-5 0,0 1,-1 2,-1 2,0 3,1 5,2 3,1 4,3 5,5 1,1 1,2 1,3 0,2 -1,3 -1,5 -3,4 -18,43 -46,116 -28,73 -51,119 -67,137 -16,19 -31,28 -46,28 -5,0 -9,-1 -14,-3 -11,-6 -19,-17 -23,-33 -3,-16 -5,-30 -5,-43 0,-8 0,-16 0,-24 0,-11 0,-22 0,-33 1,-8 3,-25 5,-50 3,-26 4,-50 4,-75 0,-8 0,-16 0,-24 0,-3 -1,-4 -3,-4 -2,0 -4,1 -6,4 -10,18 -19,38 -27,58 -6,15 -12,31 -18,47 -4,13 -7,27 -10,40 0,1 0,1 0,1 -1,3 -3,5 -5,7 -2,2 -5,3 -8,3 -10,0 -21,-2 -31,-6 -4,-1 -8,-4 -12,-7 -4,-3 -6,-7 -7,-12 -1,-21 -3,-43 -6,-65 -1,-12 -3,-24 -6,-37 -1,-7 -3,-14 -6,-21 -1,-5 -4,-10 -7,-15 -1,-2 -2,-5 -2,-7 0,-2 0,-3 1,-4 1,-5 4,-7 8,-9 7,-1 14,-2 20,-2 9,0 17,2 24,6 3,1 5,3 7,5 3,2 4,4 6,6 5,11 8,22 10,34 3,14 6,27 7,41 1,4 1,7 2,11z"/>
  <path id="11" class="fil3" d="M4045 5448l-50 -2c-4,-1 -7,-2 -9,-4 -2,-3 -3,-6 -3,-9 0,-4 2,-7 4,-9 2,-2 5,-3 8,-3l1 0 57 3c9,-25 21,-47 37,-68 2,-3 6,-5 10,-5 4,0 9,0 14,1 5,1 10,2 15,3 4,2 8,4 11,8 2,2 3,5 3,9 0,1 0,2 0,4 -1,1 -1,3 -3,4 -9,15 -17,30 -24,47l51 2c4,1 7,2 9,4 2,3 3,6 3,9 0,4 -1,7 -4,9 -2,2 -5,3 -9,3l-59 -2c-9,30 -13,61 -13,93 0,15 1,31 3,48 3,16 7,31 13,46 3,8 7,16 13,23 5,7 13,12 21,14 2,1 4,1 6,1 5,0 11,-1 15,-4 5,-3 10,-7 14,-11 17,-17 32,-35 45,-55 13,-20 25,-41 35,-64 8,-16 15,-33 21,-49 1,-3 3,-4 6,-5 1,-1 2,-1 4,-1 1,0 2,0 3,0 3,1 5,3 6,5 1,1 1,3 1,4 0,1 0,3 -1,4 -7,17 -14,34 -22,50 -7,15 -15,32 -25,50 -10,19 -22,37 -34,54 -13,17 -27,32 -43,43 -15,12 -31,17 -48,17 -7,0 -14,-1 -21,-3 -14,-5 -25,-13 -34,-25 -10,-11 -17,-23 -22,-37 -7,-16 -11,-34 -14,-52 -3,-18 -5,-36 -5,-53 0,-33 5,-65 14,-97z"/>
  <path id="12" class="fil3" d="M4417 5600c-8,2 -16,2 -24,2 -13,0 -24,-3 -33,-10 -10,-7 -16,-16 -21,-27 -4,-10 -7,-22 -7,-34 0,-18 6,-34 16,-47 11,-13 25,-19 45,-19 9,0 18,3 25,8 8,6 14,13 18,23 4,9 7,19 9,29 1,11 2,20 2,29 0,5 0,10 0,14 18,-5 33,-11 44,-16 11,-5 24,-14 41,-26 14,-11 28,-23 40,-36 2,-1 4,-2 7,-2 3,0 5,0 7,2 2,2 3,5 3,7 0,3 -1,5 -3,7 -12,13 -25,24 -39,35 -16,13 -32,24 -48,33 -16,10 -35,17 -55,23 -3,22 -10,43 -21,65 -11,21 -26,37 -47,46 -8,2 -16,4 -24,4 -10,0 -20,-2 -29,-6 -12,-5 -22,-12 -30,-21 -9,-9 -16,-19 -21,-30 -12,-26 -18,-52 -18,-78 0,-24 5,-46 15,-66 9,-20 23,-37 41,-49 18,-13 39,-19 64,-19l1 0c3,1 6,3 7,6 2,2 3,4 3,6 0,1 -1,2 -1,3 0,3 -2,5 -4,7 -2,2 -5,3 -8,3 -12,0 -22,4 -30,11 -7,8 -12,18 -16,30 -4,11 -6,23 -7,36 -2,12 -2,23 -2,32 0,7 0,16 2,27 2,11 4,22 8,34 4,11 8,20 15,28 6,8 14,12 23,12 8,0 15,-3 21,-9 7,-6 12,-13 15,-20 8,-15 13,-30 16,-47zm4 -26c1,-6 1,-13 1,-20 0,-4 0,-9 -1,-16 0,-7 -2,-14 -4,-21 -2,-7 -4,-13 -8,-18 -3,-5 -8,-8 -14,-8 -7,0 -12,3 -15,7 -4,4 -7,10 -8,16 -2,6 -2,12 -2,17 0,6 1,13 3,20 2,7 5,13 10,18 4,5 10,8 18,8 7,0 14,-1 20,-3z"/>
  <path id="13" class="fil3" d="M4877 5427c-21,-12 -40,-28 -55,-47 -9,-11 -16,-22 -21,-35 -6,-12 -8,-26 -8,-40 0,-22 5,-43 15,-62 9,-18 24,-34 43,-47 27,-18 57,-27 88,-27 20,0 39,4 57,11 17,8 31,19 42,34 11,14 17,33 17,54 0,16 -3,32 -9,48 -2,4 -4,6 -8,8 -1,0 -3,1 -5,1 -1,0 -3,-1 -5,-1 -4,-2 -6,-5 -7,-8 -1,-2 -1,-4 -1,-5 0,-2 0,-4 1,-6 4,-12 6,-24 6,-37 0,-23 -9,-42 -29,-55 -7,-5 -14,-8 -21,-10 -8,-2 -16,-2 -24,-2 -11,0 -22,1 -34,5 -12,3 -22,8 -31,15 -22,21 -33,45 -33,73 0,12 2,23 6,34 4,10 10,20 17,30 10,13 22,24 36,34 14,10 28,19 43,26 5,3 8,7 8,13l0 1c-1,6 -5,10 -10,11 -27,8 -53,19 -77,32 -25,14 -46,32 -63,54 -26,34 -39,71 -39,112 0,23 5,45 14,66 10,21 25,38 43,50 18,13 39,20 64,20 35,0 66,-9 95,-26 28,-17 53,-39 75,-67 21,-27 38,-56 52,-88 14,-32 24,-62 30,-92 0,-3 2,-5 4,-6 2,-1 3,-2 5,-2 1,0 2,0 3,0 2,1 4,2 6,4 1,2 2,4 2,5 0,1 -1,2 -1,3 -5,25 -12,51 -23,80 -11,28 -25,56 -41,84 -17,27 -35,52 -56,75 -22,22 -45,40 -71,54 -26,14 -54,20 -83,20 -23,0 -46,-2 -69,-8 -23,-6 -44,-17 -62,-32 -14,-12 -25,-25 -33,-40 -8,-15 -13,-31 -17,-48 -3,-17 -5,-34 -5,-52 0,-47 15,-90 45,-129 16,-20 35,-37 56,-51 21,-14 44,-25 68,-34z"/>
  <path id="14" class="fil3" d="M5186 5485c0,4 0,7 0,11 0,15 0,30 1,45 1,21 3,41 5,61 2,15 4,30 6,45 2,13 5,26 9,38 0,2 1,3 2,5 1,2 3,2 4,2 3,0 6,-1 9,-3 2,-2 5,-5 6,-6 18,-23 36,-51 54,-86 18,-35 30,-67 37,-96 1,-3 2,-5 4,-7 2,-1 4,-1 6,-1l2 0c3,1 5,2 6,5 1,1 2,3 2,5 0,1 0,1 0,2 -14,62 -40,121 -79,176 -5,7 -11,16 -19,25 -8,9 -16,17 -26,24 -10,7 -19,10 -29,10 -18,0 -32,-19 -44,-57 -13,-38 -19,-87 -19,-148 0,-95 11,-165 33,-212 22,-47 50,-70 85,-70 10,0 19,2 27,7 9,5 15,13 19,22 4,9 6,18 6,29 0,21 -6,42 -17,64 -12,22 -26,42 -42,61 -16,19 -32,35 -48,49zm1 -35c4,-4 8,-8 12,-12 10,-10 20,-22 31,-36 10,-14 20,-30 27,-45 8,-16 11,-32 11,-46 0,-7 -1,-13 -3,-19 -2,-4 -6,-6 -10,-6 -3,0 -5,0 -9,2 -3,1 -5,2 -7,4 -13,11 -22,26 -30,44 -7,18 -12,38 -16,58 -3,20 -5,39 -6,56z"/>
  <path id="15" class="fil3" d="M5861 5389c2,-6 3,-12 5,-19 3,-15 6,-29 8,-44 2,-15 3,-30 3,-45 0,-5 0,-11 -1,-17 -1,-7 -2,-12 -4,-18 -1,-2 -2,-4 -4,-6 -2,-2 -4,-3 -6,-4l-2 0c-3,0 -6,2 -9,4 -3,4 -5,6 -7,9 -5,12 -8,24 -8,36 0,18 2,36 6,54 4,17 10,34 19,50zm226 101c1,0 2,0 3,0 1,0 3,1 4,1 3,2 4,4 5,7 0,0 0,1 0,2 0,2 0,3 -1,5 -2,2 -4,4 -6,5 -18,2 -36,4 -52,4 -25,0 -47,-3 -68,-10 -35,-10 -64,-25 -86,-44 -2,-2 -5,-4 -7,-6 -3,9 -7,17 -11,26 -19,43 -41,84 -65,125 -7,13 -16,26 -24,39 -1,1 -2,2 -2,3 -1,1 -2,2 -3,3 -9,15 -20,29 -32,42 -4,4 -9,9 -15,13 -5,4 -11,6 -17,6 -6,0 -11,-2 -15,-6 -4,-4 -7,-8 -9,-13 -3,-6 -5,-10 -7,-15 -3,-10 -6,-20 -9,-30 -3,-12 -6,-25 -8,-37 -7,-31 -13,-62 -19,-93 -1,-5 -2,-11 -2,-16l-17 -89c-6,-30 -13,-61 -20,-91 -6,-27 -14,-54 -22,-81 -6,-16 -12,-32 -18,-47 -5,-10 -10,-19 -15,-27 -4,-6 -10,-9 -16,-9 -7,0 -12,3 -17,9 -7,9 -13,19 -17,30 -9,25 -13,51 -13,78 -1,4 -2,7 -5,9 -2,3 -5,4 -9,4 -4,0 -7,-1 -10,-4 -3,-3 -4,-6 -4,-10 0,-17 2,-35 6,-55 4,-20 11,-38 21,-55 9,-17 22,-29 39,-38 10,-5 22,-8 34,-8 14,0 27,5 38,15 10,11 20,23 28,38 7,16 14,31 19,47 5,16 10,30 13,42 0,1 0,1 1,2 13,48 24,97 33,146 6,27 11,55 16,82 5,26 10,51 15,77 3,21 8,42 13,63 2,8 4,15 6,22 3,-4 6,-8 9,-13l0 0c3,-3 5,-6 7,-9 25,-40 47,-81 65,-125 11,-26 22,-53 30,-81 -12,-15 -22,-32 -30,-49 -14,-28 -22,-58 -23,-89l0 -4c0,-11 1,-23 5,-34 5,-12 13,-21 23,-30 12,-7 25,-11 38,-11 13,0 25,4 36,12 9,6 15,14 19,23 4,9 6,19 6,29 0,26 -4,53 -10,79 -7,27 -15,52 -25,77 5,5 9,9 14,13 33,29 65,46 97,52 15,3 30,5 44,5 15,0 29,-2 42,-6z"/>
  <path id="16" class="fil3" d="M6236 5563c-3,10 -7,21 -11,33 -5,12 -11,23 -19,34 -8,11 -18,20 -31,27 -12,7 -28,10 -46,10 -11,0 -21,-2 -30,-7 -9,-5 -17,-12 -23,-21 -9,-11 -14,-24 -17,-36 -4,-13 -5,-26 -5,-40 0,-15 3,-29 8,-45 5,-16 12,-29 22,-41 12,-15 26,-26 42,-33 17,-8 34,-11 54,-11 12,0 22,1 31,3 11,4 23,8 34,13 6,-2 11,-3 16,-3 7,0 13,1 19,4 4,1 8,4 11,7 3,3 5,7 5,12 0,10 -1,20 -1,30l0 10c0,16 1,32 2,48 2,16 5,33 9,49 2,8 5,16 10,23 1,2 3,4 5,6 3,1 5,2 8,2 4,0 8,-2 12,-5 4,-4 7,-7 10,-10 13,-17 26,-37 39,-60 13,-23 24,-44 33,-63 1,-2 3,-4 5,-5 2,0 3,-1 4,-1 1,0 2,1 4,1 3,2 4,4 5,6 1,1 1,2 1,4 0,1 0,2 -1,4l-8 17c-8,19 -17,38 -27,57 -9,18 -22,36 -36,55 -5,7 -11,13 -18,20 -7,7 -14,12 -22,17 -8,5 -17,7 -26,7 -12,0 -23,-4 -31,-12 -8,-9 -14,-18 -19,-30 -5,-11 -9,-22 -11,-32 -3,-15 -6,-30 -7,-44zm-7 -45c2,-10 4,-26 4,-47 -13,-7 -24,-10 -34,-10 -12,0 -24,3 -35,11 -12,7 -21,16 -28,26 -6,9 -11,19 -14,31 -4,12 -6,23 -6,34 0,9 1,18 3,27 2,9 5,17 9,26 5,11 13,17 24,17 13,-1 25,-8 36,-21 10,-14 18,-29 25,-47 6,-18 12,-33 16,-47z"/>
  <path id="17" class="fil3" d="M6460 5450c4,-4 8,-8 12,-12 10,-10 20,-22 31,-36 11,-14 20,-30 27,-45 8,-16 11,-32 11,-46 0,-7 -1,-13 -3,-19 -2,-4 -5,-6 -10,-6 -2,0 -5,0 -8,2 -3,1 -6,2 -8,4 -12,11 -22,26 -29,44 -8,18 -13,38 -16,58 -4,20 -6,39 -7,56zm272 -160c0,-21 -2,-38 -4,-50 -2,-9 -5,-13 -9,-13 -12,0 -24,16 -36,48 -19,53 -30,117 -32,192 0,16 0,31 0,45 54,-86 81,-160 81,-222zm-80 262c2,33 4,63 6,89 6,49 13,73 19,73 2,0 5,-1 8,-3 3,-2 5,-4 7,-6 17,-23 35,-51 53,-86 18,-35 30,-67 38,-96 0,-3 2,-5 4,-7 2,0 3,-1 5,-1l2 0c3,1 5,2 7,5 1,1 1,3 1,5l0 2c-13,62 -39,121 -78,176 -5,8 -12,16 -20,25 -7,9 -16,17 -26,24 -9,7 -19,10 -29,10 -17,0 -32,-19 -44,-57 -5,-15 -9,-39 -12,-71 -56,71 -101,106 -134,106 -17,0 -32,-19 -44,-57 -13,-38 -19,-87 -19,-148 1,-95 12,-165 33,-212 22,-47 51,-70 85,-70 10,0 19,2 27,7 9,5 15,13 19,22 4,9 6,18 6,29 0,21 -5,42 -17,64 -12,22 -25,42 -42,61 -16,19 -32,35 -48,49 0,4 0,7 0,11 0,15 0,30 1,45 1,21 3,41 5,61 2,15 4,30 6,45 2,13 5,26 9,38 1,2 2,4 4,7 2,3 4,5 7,5 20,-1 53,-33 99,-96 -1,-24 -2,-52 -3,-84 2,-110 13,-190 33,-240 22,-56 50,-84 85,-84 9,0 18,3 26,8 9,5 16,15 20,30 4,14 6,34 6,59 0,71 -35,158 -105,262z"/>
  <path id="18" class="fil3" d="M6824 5569c3,22 8,42 15,63 2,6 4,13 8,19 1,4 3,7 6,10 3,3 6,4 10,4 4,0 8,-1 12,-4 4,-2 7,-5 10,-8 21,-20 40,-43 59,-70 19,-26 36,-52 53,-77 1,-2 3,-4 4,-7 2,-2 4,-3 7,-4l1 0c2,0 4,0 6,1 2,2 4,4 4,7 0,1 0,1 0,2 0,2 0,3 -1,5 -9,13 -17,26 -25,39 -13,22 -27,44 -42,64 -14,21 -30,40 -48,58 -9,9 -19,17 -30,24 -11,8 -23,12 -36,12 -9,0 -17,-3 -25,-9 -7,-5 -13,-12 -18,-19 -5,-8 -9,-16 -12,-23 -14,-32 -22,-66 -24,-101 -1,-5 -1,-11 -1,-16 0,-3 0,-7 0,-11 0,-12 0,-25 2,-40 2,-18 7,-36 14,-52 7,-17 18,-29 32,-38 9,-4 19,-7 28,-7 14,0 26,4 37,12 12,10 20,23 24,38 4,15 6,30 6,44 0,13 -1,27 -5,40 -4,14 -12,25 -23,33 -12,8 -26,12 -40,12 -3,0 -5,0 -8,-1zm-2 -25c3,0 5,1 8,1 3,0 7,-1 11,-1 6,-1 12,-3 17,-6 7,-6 12,-14 14,-24 2,-11 3,-20 3,-29 0,-8 0,-17 -2,-26 -2,-10 -5,-18 -9,-26 -1,-2 -3,-3 -5,-5 -1,-1 -4,-2 -6,-2 -2,0 -4,1 -5,2 -2,1 -3,3 -4,4 -7,9 -11,19 -14,29 -6,21 -8,42 -8,63 0,5 0,9 0,14 0,2 0,4 0,6z"/>
 </g>
</svg>
