<?xml version="1.0" encoding="UTF-8"?>
<!DOCTYPE svg PUBLIC "-//W3C//DTD SVG 1.1//EN" "http://www.w3.org/Graphics/SVG/1.1/DTD/svg11.dtd">
<!-- Creator: CorelDRAW X8 -->
<svg xmlns="http://www.w3.org/2000/svg" xml:space="preserve" width="61.3723mm" height="22.3113mm" version="1.1" style="shape-rendering:geometricPrecision; text-rendering:geometricPrecision; image-rendering:optimizeQuality; fill-rule:evenodd; clip-rule:evenodd"
viewBox="0 0 5680 2065"
 xmlns:xlink="http://www.w3.org/1999/xlink">
 <defs>
  <style type="text/css">
   <![CDATA[
    .fil0 {fill:white;fill-rule:nonzero}
   ]]>
  </style>
 </defs>
 <g id="Capa_x0020_1">
  <metadata id="CorelCorpID_0Corel-Layer"/>
  <path class="fil0" d="M243 123l0 -15c0,-5 2,-9 6,-13 3,-3 7,-5 12,-5 9,0 17,1 26,2 9,1 18,4 25,8 4,2 8,5 12,8 3,3 6,8 7,12 23,-1 49,-3 81,-8 32,-5 62,-12 90,-23 28,-11 48,-26 59,-45 4,-8 5,-17 5,-26 0,-5 2,-10 6,-13 3,-3 8,-5 13,-5 6,0 13,0 20,1 7,0 13,2 19,4 3,0 5,1 7,2 9,5 13,12 13,22l0 1c-1,11 -4,21 -9,31 -11,20 -26,36 -46,47 -20,11 -40,20 -61,26 -53,14 -107,21 -161,23 -12,1 -24,1 -35,1l0 14c-1,27 -1,54 -1,81 0,63 2,126 5,189 2,36 5,72 9,108 4,32 9,64 16,96 4,19 9,37 16,56 3,10 8,19 13,29 4,6 9,9 17,9 5,0 10,-1 15,-4 5,-2 10,-5 14,-9 34,-29 65,-62 91,-97 27,-36 52,-73 75,-113 4,-7 9,-14 13,-20 1,-4 4,-6 8,-6 1,-1 2,-1 3,-1 2,0 5,1 7,2 3,2 5,5 6,8l0 2c0,3 0,5 -2,8l-13 21c-1,2 -2,3 -3,5 -21,36 -46,75 -75,117 -29,43 -58,77 -88,103 -13,11 -27,20 -42,27 -14,8 -29,11 -44,11 -5,0 -10,0 -15,-2 -16,-4 -30,-14 -40,-29 -11,-14 -20,-31 -26,-49 -6,-18 -11,-34 -15,-49 -8,-35 -14,-71 -18,-107 -4,-40 -8,-80 -10,-120 -4,-67 -5,-134 -5,-201l0 -72c0,-2 0,-4 0,-6l-48 -1c-35,0 -69,0 -103,0 -6,0 -12,0 -17,2 -6,1 -11,4 -15,8 -10,9 -16,22 -20,37 -3,16 -4,30 -4,42 0,28 4,57 11,85 6,26 13,51 22,76 15,44 33,86 54,127 8,16 17,32 26,48 7,10 14,20 22,29 3,3 5,7 5,11l0 1c0,5 -2,9 -6,13 -3,3 -7,5 -11,5l-1 0c-5,0 -9,-2 -13,-5 -10,-11 -18,-23 -26,-35 -10,-16 -20,-33 -28,-51 -22,-42 -41,-86 -56,-131 -9,-27 -17,-54 -24,-81 -7,-31 -11,-61 -11,-92 0,-18 2,-38 7,-57 5,-20 15,-36 30,-49 7,-7 16,-12 25,-15 10,-3 20,-4 30,-4 22,0 45,0 68,1 18,0 37,0 55,0l28 0z"/>
  <path id="1" class="fil0" d="M674 574c3,28 9,55 18,82 3,9 7,17 11,25 2,5 5,9 8,13 4,4 8,6 14,6 5,0 10,-2 15,-5 5,-3 10,-7 14,-11 26,-26 52,-57 77,-91 24,-35 47,-69 69,-102 2,-3 4,-6 5,-9 3,-3 5,-5 9,-6l2 0c3,0 5,1 8,2 3,2 5,5 5,9 0,1 1,2 1,3 0,2 -1,4 -3,7 -11,17 -22,34 -32,51 -18,29 -36,57 -55,84 -19,27 -40,52 -63,75 -12,12 -25,23 -40,32 -15,10 -30,15 -47,15 -12,0 -23,-3 -32,-11 -10,-7 -18,-15 -24,-25 -7,-10 -12,-20 -17,-31 -17,-42 -28,-86 -31,-132 0,-7 -1,-14 -1,-21 0,-4 0,-9 0,-14 0,-16 1,-33 3,-52 3,-25 9,-48 18,-69 9,-22 24,-38 43,-49 11,-6 24,-9 37,-9 17,0 33,5 48,15 15,13 25,30 31,50 6,20 8,39 8,58 0,17 -2,35 -7,52 -5,18 -15,32 -30,43 -16,11 -34,15 -53,15 -3,0 -6,0 -9,0zm-3 -33c3,0 7,1 10,1 4,0 9,-1 14,-1 8,-1 15,-4 22,-8 10,-8 16,-19 19,-32 3,-13 4,-26 4,-37 0,-11 -1,-23 -3,-35 -2,-12 -6,-23 -12,-33 -1,-3 -3,-5 -6,-7 -2,-2 -5,-3 -8,-3 -2,0 -5,1 -7,3 -2,1 -4,3 -5,5 -8,12 -14,24 -18,38 -8,27 -11,55 -11,83 0,6 0,12 0,18 0,3 0,5 1,8z"/>
  <path id="2" class="fil0" d="M982 587c4,-11 8,-23 13,-34 13,-34 29,-66 48,-97 5,-7 10,-14 16,-21 6,-8 13,-14 21,-20 8,-5 16,-8 24,-8 6,0 11,1 15,3 16,9 26,23 29,44 4,20 7,45 7,74 0,19 -1,37 -2,56 -1,23 -4,50 -6,82 -3,31 -5,56 -5,72 0,12 1,25 3,39 2,14 5,21 10,21 14,0 41,-51 81,-153 40,-101 61,-155 64,-162 2,-3 4,-5 8,-7 1,0 2,0 4,0 2,0 3,0 6,1 3,2 5,4 6,8 1,1 1,2 1,4 0,2 0,4 -2,6 -2,6 -22,57 -59,152 -37,96 -67,156 -88,180 -21,25 -41,37 -61,37 -6,0 -12,-2 -17,-4 -16,-9 -26,-23 -31,-44 -4,-20 -7,-39 -7,-55 0,-11 0,-22 0,-32 0,-15 0,-29 1,-43 1,-11 3,-33 6,-67 3,-33 5,-66 6,-98 0,-11 -1,-21 -1,-32 0,-3 -2,-5 -4,-5 -2,0 -5,2 -7,6 -14,24 -26,49 -36,75 -9,20 -16,41 -23,63 -6,17 -10,35 -14,52 0,1 0,1 0,1 -1,4 -3,7 -6,9 -3,3 -7,4 -10,4 -14,0 -28,-2 -42,-7 -5,-2 -11,-5 -16,-9 -5,-4 -8,-9 -8,-16 -2,-29 -4,-57 -8,-85 -2,-17 -5,-33 -8,-49 -2,-9 -5,-19 -8,-28 -2,-7 -5,-13 -9,-20 -2,-3 -3,-6 -3,-9 0,-2 0,-4 1,-6 2,-5 5,-9 11,-10 9,-2 18,-3 27,-3 11,0 21,2 31,7 3,2 6,4 9,7 3,2 6,5 7,8 7,15 11,29 14,45 4,18 7,35 9,53 1,5 2,10 3,15z"/>
  <path id="3" class="fil0" d="M1355 574c3,28 9,55 18,82 3,9 7,17 11,25 2,5 5,9 8,13 4,4 8,6 14,6 5,0 10,-2 15,-5 5,-3 10,-7 14,-11 26,-26 52,-57 77,-91 24,-35 47,-69 69,-102 2,-3 4,-6 5,-9 3,-3 5,-5 9,-6l2 0c3,0 5,1 8,2 3,2 5,5 5,9 0,1 1,2 1,3 0,2 -1,4 -3,7 -11,17 -22,34 -32,51 -18,29 -36,57 -55,84 -19,27 -40,52 -63,75 -12,12 -25,23 -40,32 -15,10 -30,15 -47,15 -12,0 -23,-3 -32,-11 -10,-7 -18,-15 -24,-25 -7,-10 -12,-20 -17,-31 -17,-42 -28,-86 -31,-132 0,-7 -1,-14 -1,-21 0,-4 0,-9 0,-14 0,-16 1,-33 3,-52 3,-25 9,-48 18,-69 9,-22 24,-38 43,-49 11,-6 24,-9 36,-9 18,0 34,5 49,15 15,13 25,30 31,50 6,20 8,39 8,58 0,17 -2,35 -7,52 -5,18 -15,32 -30,43 -16,11 -34,15 -53,15 -3,0 -6,0 -9,0zm-3 -33c3,0 6,1 10,1 4,0 9,-1 14,-1 8,-1 15,-4 22,-8 10,-8 16,-19 19,-32 3,-13 4,-26 4,-37 0,-11 -1,-23 -3,-35 -2,-12 -6,-23 -12,-33 -1,-3 -3,-5 -6,-7 -2,-2 -5,-3 -8,-3 -2,0 -5,1 -7,3 -2,1 -4,3 -5,5 -8,12 -14,24 -18,38 -8,27 -11,55 -11,83 0,6 0,12 0,18 0,3 0,5 1,8z"/>
  <path id="4" class="fil0" d="M2113 480c1,-4 4,-6 6,-8 2,-1 5,-1 7,-1 1,0 2,0 4,0 3,2 6,4 7,7 1,2 2,4 2,6 0,1 -1,3 -1,4 -4,12 -20,54 -48,125 -28,71 -51,121 -69,148 -5,9 -11,17 -18,26 -7,8 -15,15 -25,21 -9,6 -18,8 -29,8 -7,0 -13,-1 -19,-4 -11,-7 -19,-17 -23,-30 -4,-14 -6,-27 -7,-39 -1,-15 -1,-31 -1,-46 0,-13 0,-26 1,-39 1,-23 1,-40 1,-52 0,-14 0,-29 -1,-43 0,-6 -1,-11 -1,-16 -1,-4 -2,-7 -4,-7 -2,0 -3,1 -4,2 -2,1 -3,2 -3,4 -13,21 -23,44 -31,68 -8,22 -15,44 -19,66l0 1c-2,4 -4,7 -6,9 -3,3 -7,4 -11,4l-3 0 -4 0c-5,0 -9,0 -14,0l-1 0c-14,0 -26,-5 -36,-14 -6,-6 -9,-14 -9,-23l0 -2c1,-13 1,-26 1,-39 0,-15 -1,-31 -1,-46 -1,-17 -4,-33 -7,-49 0,-2 -1,-3 -1,-5 -1,-1 -3,-2 -4,-2 -2,0 -4,1 -5,3 -1,2 -2,3 -3,5 -11,27 -20,55 -26,84 -7,28 -14,58 -20,87 -1,9 -2,17 -4,26 -2,12 -4,23 -7,34l0 1c0,3 -2,6 -5,9 -3,2 -7,3 -11,3 -13,0 -26,-1 -39,-3 -7,-1 -13,-4 -19,-7 -6,-2 -10,-8 -10,-15 -3,-48 -7,-95 -12,-141 -3,-26 -7,-52 -12,-77 -2,-10 -4,-18 -7,-27 -2,-9 -5,-18 -9,-27 -1,-3 -2,-5 -2,-7 0,-3 1,-6 3,-9 3,-5 7,-8 13,-8 7,0 15,1 26,2 11,1 20,3 29,7 10,3 16,8 18,15 7,19 12,38 15,58 5,22 8,45 10,68 2,11 3,21 4,32 2,-10 5,-20 7,-30 4,-17 9,-33 14,-50 6,-18 13,-36 21,-53 5,-13 13,-24 22,-36 10,-11 22,-18 37,-19 6,0 12,2 18,4 13,6 23,17 30,31 7,15 12,31 15,48 3,17 5,32 5,45 0,1 1,2 1,3 6,-13 13,-27 21,-42 9,-15 19,-28 31,-39 11,-11 24,-17 37,-17 8,0 16,2 24,6 11,7 19,19 24,35 5,15 8,38 8,68 0,18 0,39 -2,65 -1,25 -2,43 -2,52 0,14 1,25 3,32 2,6 4,10 7,10 16,0 57,-87 123,-260z"/>
  <path id="5" class="fil0" d="M2293 615c-11,1 -21,2 -32,2 -17,0 -32,-4 -44,-13 -12,-9 -21,-21 -27,-35 -6,-14 -9,-29 -9,-45 0,-24 7,-45 21,-62 14,-16 33,-25 58,-25 13,0 24,4 34,11 10,7 18,17 24,29 5,13 9,25 11,39 2,14 3,27 3,38 0,6 0,12 0,19 24,-8 43,-15 57,-22 14,-6 32,-18 54,-34 19,-15 37,-30 52,-46 3,-3 6,-4 10,-4 3,0 6,1 9,3 3,3 4,6 4,10 0,3 -1,6 -3,9 -16,16 -33,31 -52,45 -21,17 -42,31 -63,44 -21,12 -45,22 -73,30 -4,28 -13,56 -27,85 -14,28 -34,48 -62,60 -10,4 -20,5 -31,5 -13,0 -26,-2 -38,-7 -15,-6 -28,-16 -40,-28 -11,-11 -20,-25 -27,-40 -15,-33 -23,-67 -23,-102 0,-31 6,-59 19,-86 12,-27 30,-48 54,-65 23,-16 51,-24 84,-24l1 0c4,1 8,3 10,7 2,3 3,6 3,9 0,1 0,2 -1,3 0,4 -2,7 -5,10 -3,2 -6,3 -10,3 -17,0 -30,5 -40,16 -9,10 -16,22 -21,38 -5,15 -8,31 -10,47 -1,17 -2,31 -2,42 0,9 1,21 3,36 2,14 5,29 10,44 5,15 11,27 20,37 8,11 18,16 30,16 11,0 20,-4 28,-12 9,-8 15,-17 19,-26 11,-19 17,-39 22,-61zm5 -34c1,-9 1,-18 1,-27 0,-5 0,-12 -1,-22 -1,-9 -3,-18 -5,-27 -3,-9 -6,-17 -11,-24 -5,-6 -11,-9 -19,-9 -8,0 -15,3 -20,9 -4,5 -8,12 -10,20 -2,8 -3,16 -3,23 0,8 2,17 4,26 3,9 7,17 13,24 6,7 14,10 24,10 9,0 18,-1 27,-3z"/>
  <path id="6" class="fil0" d="M2554 702c-5,-6 -10,-13 -15,-19 -8,-10 -17,-21 -25,-32 -10,-13 -19,-26 -27,-40 -9,-14 -16,-29 -21,-44 -5,-16 -8,-32 -8,-48 0,-19 4,-36 11,-54 8,-17 19,-31 33,-42 14,-12 31,-17 51,-17 19,0 37,6 52,19 15,14 22,31 22,50 0,5 -1,12 -2,18 -1,4 -3,7 -7,10 -3,2 -6,2 -10,2l-2 0c-5,-1 -8,-3 -11,-7 -1,-2 -2,-5 -2,-8 0,-1 0,-3 0,-4 1,-3 1,-6 1,-10 0,-8 -2,-15 -7,-22 -2,-4 -6,-5 -10,-5 -4,0 -8,1 -12,5 -8,8 -15,18 -19,30 -4,12 -6,23 -6,35 0,10 2,21 5,31 6,17 15,34 26,48 11,15 23,28 35,42 0,0 1,1 1,1 36,-36 75,-71 115,-105 4,-4 8,-7 12,-11 14,-12 27,-23 41,-34 1,0 1,-1 2,-1 8,-7 16,-12 24,-17 2,-1 4,-2 6,-2 1,0 2,0 4,0 3,1 6,3 8,6 1,3 1,5 1,7 0,1 0,2 0,3 -1,4 -3,6 -6,8 -7,4 -13,9 -20,15 -1,0 -2,1 -3,2 -13,11 -26,22 -40,33 -40,36 -79,74 -116,114 -2,3 -4,5 -6,7 12,15 23,31 32,47 9,17 14,35 14,55 0,35 -11,62 -34,82 -22,19 -50,29 -84,29 -13,0 -26,-4 -37,-12 -9,-7 -15,-14 -19,-23 -4,-9 -6,-19 -6,-29 0,-12 3,-25 10,-39 7,-14 14,-27 23,-40 9,-13 18,-25 26,-34zm20 27c-4,5 -7,9 -11,14 -7,9 -14,21 -23,35 -8,14 -12,27 -12,37 0,4 1,8 2,12 2,3 4,6 8,8 7,3 13,4 19,4 11,0 19,-3 25,-8 5,-6 10,-13 12,-22 2,-8 3,-17 3,-26 0,-9 -2,-18 -7,-28 -5,-10 -11,-18 -16,-26z"/>
  <path id="7" class="fil0" d="M3066 574c3,28 10,55 19,82 3,9 6,17 10,25 2,5 5,9 9,13 3,4 8,6 13,6 6,0 11,-2 16,-5 5,-3 9,-7 13,-11 27,-26 52,-57 77,-91 25,-35 48,-69 69,-102 2,-3 4,-6 6,-9 2,-3 5,-5 8,-6l3 0c2,0 5,1 7,2 3,2 5,5 6,9 0,1 0,2 0,3 0,2 -1,4 -2,7 -11,17 -22,34 -33,51 -17,29 -35,57 -54,84 -19,27 -41,52 -64,75 -11,12 -24,23 -39,32 -15,10 -31,15 -47,15 -12,0 -23,-3 -33,-11 -9,-7 -17,-15 -24,-25 -7,-10 -12,-20 -16,-31 -18,-42 -28,-86 -31,-132 -1,-7 -1,-14 -2,-21 0,-4 0,-9 0,-14 0,-16 1,-33 3,-52 3,-25 9,-48 18,-69 10,-22 24,-38 43,-49 12,-6 24,-9 37,-9 18,0 34,5 48,15 15,13 26,30 31,50 6,20 9,39 9,58 0,17 -3,35 -8,52 -5,18 -15,32 -30,43 -16,11 -33,15 -52,15 -3,0 -7,0 -10,0zm-3 -33c3,0 7,1 10,1 5,0 10,-1 14,-1 9,-1 16,-4 22,-8 11,-8 17,-19 20,-32 3,-13 4,-26 4,-37 0,-11 -1,-23 -3,-35 -2,-12 -6,-23 -12,-33 -2,-3 -4,-5 -6,-7 -3,-2 -5,-3 -8,-3 -3,0 -5,1 -7,3 -3,1 -4,3 -6,5 -8,12 -14,24 -18,38 -7,27 -11,55 -11,83 0,6 0,12 1,18 0,3 0,5 0,8z"/>
  <path id="8" class="fil0" d="M3345 463c-1,5 -1,10 -1,14 0,20 1,40 2,60 2,27 4,54 7,80 2,20 4,40 8,59 3,17 6,34 11,50 1,2 2,4 3,6 2,2 4,3 6,3 3,0 7,-1 10,-4 4,-3 7,-6 9,-8 23,-30 47,-67 70,-113 24,-46 40,-88 50,-126 0,-3 2,-6 5,-8 2,-2 5,-2 7,-2l3 0c4,1 6,3 9,6 1,2 2,4 2,7 0,1 -1,2 -1,3 -17,81 -52,158 -103,231 -6,9 -15,20 -25,32 -10,12 -22,23 -34,32 -13,9 -25,13 -38,13 -23,0 -43,-25 -58,-75 -17,-50 -25,-115 -25,-194 1,-124 15,-217 44,-278 28,-62 66,-93 111,-93 13,0 24,3 35,10 12,7 20,17 26,29 5,12 8,24 8,38 0,27 -8,55 -23,84 -15,29 -34,55 -55,80 -22,25 -43,47 -63,64zm1 -45c5,-5 10,-10 15,-16 14,-13 27,-29 41,-48 14,-19 26,-38 36,-59 10,-21 15,-41 15,-60 0,-9 -2,-17 -5,-25 -3,-5 -7,-8 -12,-8 -4,0 -8,1 -12,2 -4,2 -7,4 -10,6 -16,14 -29,34 -39,58 -9,24 -16,49 -20,76 -5,27 -8,51 -9,74z"/>
  <path id="9" class="fil0" d="M4030 568c25,-15 53,-30 84,-46 31,-16 59,-30 85,-42 2,-1 4,-1 6,-1 1,0 3,0 4,1 4,1 6,3 8,6 1,2 1,4 1,6 0,1 0,3 -1,4 -1,3 -3,6 -7,7 -30,15 -57,29 -80,42 -24,14 -48,28 -72,44 -7,4 -14,9 -21,13 5,25 8,50 9,76 0,8 1,17 1,26 0,20 -2,41 -4,61 -4,30 -11,59 -23,87 -11,27 -28,50 -51,70 -16,13 -34,23 -53,29 -20,6 -40,9 -61,9 -27,0 -50,-9 -70,-27 -19,-18 -29,-41 -29,-69 0,-24 7,-49 21,-73 14,-24 31,-46 52,-68 21,-22 43,-42 66,-60 23,-19 44,-34 62,-47 -2,-14 -4,-27 -8,-41 -6,-26 -15,-51 -28,-75 -5,21 -13,41 -22,60 -10,19 -23,35 -39,48 -16,13 -36,19 -60,19 -17,0 -31,-4 -44,-12 -12,-8 -23,-19 -31,-32 -8,-13 -14,-27 -17,-42 -4,-16 -6,-31 -6,-45 0,-28 4,-55 12,-81 9,-25 23,-46 42,-61 19,-16 45,-24 77,-24l1 0c26,0 49,8 68,26 14,13 22,28 27,47 0,1 0,2 0,3 0,3 -1,6 -3,9 -2,3 -5,6 -10,7 -1,0 -2,0 -3,0 -3,0 -7,-1 -9,-2 -4,-3 -6,-6 -8,-11 -2,-11 -8,-21 -16,-30 -8,-6 -16,-9 -26,-9 -9,0 -18,3 -27,8 -11,8 -20,19 -27,32 -6,14 -10,28 -13,43 -2,15 -3,29 -3,43 0,11 1,23 4,36 3,12 8,24 14,34 6,11 15,16 27,16 9,0 17,-4 24,-11 12,-15 21,-32 28,-52 7,-20 12,-39 15,-58 0,-1 0,-2 0,-3 0,-2 0,-4 1,-5 2,-6 6,-10 12,-11 8,-2 15,-3 23,-3 8,0 17,1 25,3 4,2 9,3 13,6 5,2 8,5 11,8 24,34 40,71 49,112zm-68 84c-15,11 -33,25 -53,41 -19,16 -38,34 -57,53 -18,19 -33,38 -45,59 -12,20 -18,40 -18,59 0,19 6,34 19,46 13,11 29,17 47,17 21,0 38,-6 51,-19 14,-12 25,-28 33,-47 8,-20 14,-41 18,-63 4,-22 6,-44 7,-65 1,-11 1,-20 1,-29 0,-9 0,-17 -1,-25 0,-9 -1,-18 -2,-27z"/>
  <path id="10" class="fil0" d="M4408 380l2 -13c0,-5 2,-8 5,-11 3,-2 7,-3 11,-3 12,0 25,1 38,3 4,2 9,3 13,5 4,1 7,4 10,7 2,3 3,6 3,10l0 3c-5,34 -7,69 -8,104 0,9 1,18 2,27 1,13 2,26 4,39 1,5 2,13 4,22 3,10 6,19 10,28 4,8 10,13 16,13 9,0 21,-6 34,-18 14,-11 28,-25 42,-40 14,-16 26,-30 37,-44 11,-13 18,-23 21,-28 3,-3 6,-5 9,-5l2 0c3,0 5,0 8,2 3,2 5,5 5,8l0 2c0,3 0,6 -2,8 -10,14 -22,30 -35,48 -14,18 -28,35 -45,52 -16,16 -33,30 -51,41 -18,11 -36,16 -54,16 -8,0 -16,-1 -24,-4 -22,-9 -38,-27 -47,-51 -9,-25 -14,-50 -16,-75 -6,18 -14,36 -23,55 -10,19 -21,37 -34,53 -12,17 -27,30 -43,41 -17,11 -35,16 -56,16 -12,0 -24,-3 -34,-10 -16,-9 -28,-23 -35,-42 -8,-18 -13,-38 -15,-59 -2,-21 -4,-39 -4,-55l0 -12c1,-29 4,-58 9,-87 2,-11 4,-21 6,-31 2,-11 5,-22 9,-32 4,-7 9,-10 16,-10 12,0 24,1 36,5 5,1 10,3 14,5 7,4 11,10 11,18 0,1 -1,3 -1,5 -5,18 -9,37 -12,56 -3,24 -5,48 -6,72 0,9 0,19 1,28 1,13 2,26 3,39 1,6 2,15 5,25 2,10 6,20 10,29 5,9 11,14 18,14 8,0 16,-4 23,-12 8,-8 15,-17 22,-26 6,-9 11,-17 15,-23 7,-13 15,-27 21,-41 5,-10 9,-20 13,-30 10,-27 18,-55 25,-83 5,-18 8,-36 12,-54z"/>
  <path id="11" class="fil0" d="M4767 633c6,5 13,10 20,16 33,27 54,48 62,64 9,17 14,35 14,55 0,35 -11,62 -34,82 -22,19 -50,29 -84,29 -13,0 -26,-4 -37,-12 -9,-7 -15,-14 -19,-23 -4,-9 -6,-23 -6,-42 0,-19 10,-56 31,-110 -21,-18 -35,-32 -42,-41 -9,-13 -18,-26 -27,-40 -8,-14 -15,-29 -21,-44 -5,-16 -7,-32 -7,-48 0,-19 3,-36 11,-54 7,-17 18,-31 32,-42 14,-12 31,-17 51,-17 26,0 39,7 40,21 0,15 -6,22 -16,22 -4,0 -8,1 -12,5 -8,8 -14,18 -19,30 -4,12 -6,23 -6,35 0,10 2,21 5,31 6,17 15,34 26,48 3,3 8,8 16,16 19,-45 42,-97 70,-156 52,-113 90,-194 116,-244 25,-50 52,-75 80,-75 16,0 30,6 43,19 12,13 19,43 19,91 0,38 -6,83 -16,137l70 4c5,1 8,3 11,6 3,3 4,7 4,12 0,4 -2,8 -5,11 -3,3 -7,4 -12,4l-75 -4c-13,62 -19,117 -19,165 0,44 6,77 19,99 13,22 31,32 54,32 7,0 14,-1 21,-5 6,-4 12,-9 17,-14 23,-22 43,-47 59,-73 17,-26 33,-54 47,-83 10,-22 19,-43 27,-65 2,-3 4,-6 7,-7 2,-1 4,-1 6,-1 1,0 3,0 4,1 4,1 6,3 8,6 0,2 1,3 1,5 0,2 -1,3 -1,5 -9,23 -18,45 -29,67 -9,19 -20,41 -33,65 -13,24 -28,48 -45,71 -17,22 -35,41 -56,56 -19,15 -41,23 -63,23 -38,0 -68,-16 -91,-47 -23,-31 -34,-76 -34,-135 0,-49 8,-106 25,-171l-18 -1c-4,0 -8,-2 -11,-6 -3,-3 -4,-7 -4,-11 0,-5 2,-8 5,-11 3,-3 7,-5 11,-5l1 0 25 2c19,-70 28,-123 28,-157 0,-21 -5,-31 -15,-31 -17,0 -68,91 -153,270 -31,66 -56,122 -76,170zm-22 206c11,0 19,-3 25,-8 5,-6 9,-13 12,-22 2,-8 3,-17 3,-26 0,-9 -2,-18 -7,-28 -4,-8 -18,-22 -41,-43 -14,42 -21,71 -21,90 0,13 3,22 10,28 6,6 13,9 19,9z"/>
  <path id="12" class="fil0" d="M5455 615c-11,1 -21,2 -32,2 -17,0 -32,-4 -44,-13 -12,-9 -21,-21 -27,-35 -5,-14 -9,-29 -9,-45 0,-24 7,-45 21,-62 14,-16 33,-25 59,-25 12,0 23,4 33,11 11,7 18,17 24,29 5,13 9,25 11,39 2,14 3,27 3,38 0,6 0,12 0,19 24,-8 43,-15 57,-22 15,-6 32,-18 54,-34 19,-15 37,-30 53,-46 3,-3 6,-4 9,-4 4,0 7,1 9,3 3,3 4,6 4,10 0,3 -1,6 -3,9 -16,16 -33,31 -52,45 -21,17 -42,31 -63,44 -21,12 -45,22 -72,30 -4,28 -13,56 -27,85 -15,28 -35,48 -62,60 -11,4 -21,5 -32,5 -13,0 -26,-2 -38,-7 -15,-6 -28,-16 -39,-28 -11,-11 -21,-25 -28,-40 -15,-33 -23,-67 -23,-102 0,-31 7,-59 19,-86 13,-27 30,-48 54,-65 23,-16 51,-24 84,-24l1 0c4,1 8,3 10,7 2,3 3,6 3,9 0,1 0,2 0,3 -1,4 -3,7 -6,10 -3,2 -6,3 -10,3 -17,0 -30,5 -39,16 -10,10 -17,22 -22,38 -5,15 -8,31 -10,47 -1,17 -2,31 -2,42 0,9 1,21 3,36 2,14 5,29 10,44 5,15 12,27 20,37 8,11 18,16 30,16 11,0 20,-4 29,-12 8,-8 14,-17 19,-26 10,-19 17,-39 21,-61zm5 -34c1,-9 1,-18 1,-27 0,-5 0,-12 -1,-22 -1,-9 -2,-18 -5,-27 -3,-9 -6,-17 -11,-24 -4,-6 -11,-9 -18,-9 -9,0 -16,3 -20,9 -5,5 -9,12 -10,20 -3,8 -4,16 -4,23 0,8 2,17 5,26 2,9 6,17 12,24 6,7 15,10 25,10 9,0 17,-1 26,-3z"/>
  <path id="13" class="fil0" d="M616 1628c-7,-43 -12,-86 -16,-129 -1,-18 -2,-36 -2,-54 0,-19 2,-40 5,-64 3,-25 10,-48 19,-68 11,-21 25,-36 45,-44 8,-4 16,-5 25,-5 8,0 16,1 24,5 18,8 31,22 40,42 9,20 14,42 17,65 2,24 4,44 4,61 0,37 -3,73 -8,110 -6,49 -15,97 -27,145 -4,15 -8,30 -13,45 11,28 26,53 46,75 4,4 8,7 12,10 5,2 10,4 16,4 11,0 23,-6 36,-18 12,-11 24,-26 35,-43 12,-18 22,-35 32,-52 9,-17 17,-32 23,-44l5 -10c2,-3 4,-5 8,-6 1,-1 2,-1 3,-1 2,0 4,1 6,2 4,1 6,4 7,7 0,1 1,3 1,4 0,2 -1,4 -2,6l-9 19c-9,17 -19,36 -30,56 -11,21 -24,41 -38,60 -14,19 -29,34 -45,47 -17,12 -34,19 -52,19 -18,0 -35,-4 -49,-12 -15,-8 -28,-19 -39,-33 -10,20 -21,39 -35,57 -14,19 -30,34 -48,46 -19,12 -40,18 -63,18 -40,0 -71,-13 -93,-38 -21,-24 -32,-62 -32,-113 0,-52 13,-95 38,-126 25,-32 61,-48 110,-48 15,0 30,1 44,5zm57 168c-12,-21 -22,-43 -30,-67 -7,-21 -14,-42 -19,-64 -15,-5 -28,-8 -41,-8 -21,0 -39,12 -54,37 -16,24 -23,61 -23,112 0,35 6,61 18,77 12,16 26,24 43,24 14,0 27,-4 38,-12 15,-13 28,-27 40,-45 11,-18 21,-36 28,-54zm38 -115c0,-2 1,-3 1,-5 11,-45 19,-90 24,-135 3,-19 5,-38 6,-58 1,-15 2,-31 2,-46 0,-16 -1,-32 -2,-48 -2,-17 -5,-32 -10,-48 0,-2 -2,-5 -3,-8 -1,-4 -3,-7 -5,-10 -3,-2 -5,-4 -8,-4 -2,0 -5,1 -7,3 -3,2 -5,4 -6,6 -5,7 -9,15 -11,23 -5,15 -8,31 -10,47 -2,16 -2,31 -2,47 0,29 1,58 4,87 4,37 10,74 18,111 3,12 6,25 9,38z"/>
  <path id="14" class="fil0" d="M988 1749c3,29 10,56 19,82 3,9 6,18 10,26 2,4 5,8 9,12 3,4 8,6 13,6 5,0 11,-1 16,-5 5,-3 9,-6 13,-10 27,-27 52,-57 77,-92 25,-35 48,-69 69,-102 2,-2 4,-5 6,-9 2,-2 5,-4 8,-5l3 0c2,0 5,0 7,2 3,2 5,5 5,8 1,1 1,2 1,3 0,3 -1,5 -2,7 -11,17 -22,34 -33,51 -17,29 -35,57 -54,84 -20,28 -41,53 -64,76 -11,11 -24,22 -39,32 -15,10 -31,15 -47,15 -13,0 -23,-4 -33,-11 -9,-7 -17,-16 -24,-26 -7,-10 -12,-20 -16,-30 -18,-42 -28,-86 -31,-132 -1,-7 -1,-14 -2,-21 0,-5 0,-9 0,-14 0,-16 1,-34 3,-53 3,-24 9,-47 18,-69 10,-21 24,-38 43,-49 12,-6 24,-9 37,-9 17,0 34,5 48,16 15,13 26,29 31,49 6,20 9,39 9,58 0,17 -3,35 -8,53 -5,18 -15,32 -30,43 -16,10 -33,15 -52,15 -3,0 -7,0 -10,-1zm-3 -32c3,0 7,0 10,0 5,0 9,0 14,-1 8,-1 16,-4 22,-8 10,-7 17,-18 20,-31 2,-14 4,-26 4,-38 0,-11 -1,-23 -3,-35 -2,-12 -7,-23 -12,-33 -2,-2 -4,-5 -6,-7 -3,-1 -5,-2 -9,-2 -2,0 -5,0 -7,2 -2,2 -3,3 -5,6 -8,11 -14,24 -18,37 -7,28 -11,55 -11,83 0,6 0,12 1,19 0,2 0,5 0,8z"/>
  <path id="15" class="fil0" d="M1675 1667c-11,41 -23,81 -35,121 -13,40 -29,78 -47,116 -12,26 -27,50 -45,73 -5,6 -10,11 -15,15 -11,9 -22,14 -36,14l-2 0c-17,-3 -31,-12 -43,-29 -11,-16 -19,-35 -25,-55 -7,-20 -11,-38 -14,-53 -7,-40 -11,-81 -12,-122 0,-11 0,-21 0,-31 0,-36 1,-71 5,-106 1,-4 3,-8 6,-11 3,-2 6,-4 10,-4 14,0 28,3 42,8 3,2 7,4 10,5 8,6 12,13 12,22 -3,28 -4,56 -4,84 0,7 0,14 0,21 1,36 4,71 9,107 1,7 2,14 4,21 2,12 5,24 8,35 2,7 3,14 5,21 2,5 5,11 7,17 1,4 4,8 6,11 0,1 1,2 2,3 1,1 2,1 2,1 1,0 1,0 1,0 1,0 1,-1 1,-1 1,0 1,-1 1,-1 2,-2 4,-4 6,-6 5,-7 9,-14 13,-21 6,-11 12,-21 17,-32 35,-74 64,-150 86,-229 1,-4 3,-7 6,-9 2,-1 4,-1 7,-1 1,0 2,0 3,0 3,1 6,3 8,6 1,3 1,5 1,7 0,1 0,2 0,3zm-163 -183c0,7 -1,16 -2,26 -2,10 -5,20 -9,28 -5,8 -11,12 -19,12 -8,0 -17,-1 -27,-2 -11,-1 -21,-3 -29,-7 -8,-4 -13,-11 -13,-21 0,-7 1,-16 3,-26 2,-10 6,-18 11,-25 5,-7 12,-11 21,-11 7,0 15,1 25,2 10,0 19,3 27,6 8,4 12,10 12,18z"/>
  <path id="16" class="fil0" d="M1727 1763c4,-12 8,-23 13,-35 13,-34 30,-66 49,-96 4,-7 9,-14 16,-22 6,-7 13,-14 20,-19 8,-6 16,-8 25,-8 5,0 10,1 15,3 15,8 25,23 29,43 4,21 6,45 6,74 0,19 0,38 -2,57 -1,22 -3,49 -6,81 -3,32 -4,56 -5,72 0,12 1,25 3,40 3,14 6,21 10,21 15,0 42,-51 82,-153 40,-102 61,-156 64,-162 1,-4 4,-6 7,-7 2,-1 3,-1 4,-1 2,0 4,1 6,2 4,2 6,4 7,7 1,2 1,3 1,4 0,2 -1,4 -2,6 -3,6 -23,57 -60,153 -37,96 -66,156 -87,180 -21,24 -42,36 -62,36 -5,0 -11,-1 -17,-3 -15,-9 -25,-24 -30,-44 -5,-21 -7,-39 -7,-56 0,-11 0,-21 0,-32 0,-14 0,-29 0,-43 2,-11 4,-33 7,-66 3,-33 5,-66 5,-98 0,-11 0,-22 -1,-32 0,-4 -1,-5 -3,-5 -3,0 -5,2 -8,5 -13,24 -25,49 -35,76 -9,20 -17,41 -23,62 -6,17 -11,35 -14,53 0,0 -1,0 -1,1 -1,4 -3,7 -6,9 -3,2 -6,3 -10,4 -14,0 -28,-3 -41,-8 -6,-2 -11,-5 -16,-9 -5,-4 -8,-9 -9,-15 -1,-29 -4,-58 -7,-86 -2,-16 -5,-32 -8,-48 -2,-10 -5,-19 -8,-28 -2,-7 -5,-14 -9,-20 -2,-3 -3,-6 -3,-10 0,-1 0,-3 0,-5 2,-5 6,-9 11,-11 9,-2 18,-3 27,-3 11,0 21,3 31,8 4,1 7,3 10,6 3,3 5,6 7,9 6,14 11,29 14,44 4,18 7,36 9,54 1,5 1,10 2,15z"/>
  <path id="17" class="fil0" d="M2273 1692c12,2 25,3 38,3 17,0 34,-2 51,-6 29,-7 56,-20 79,-40 3,-2 6,-3 8,-3l2 0c3,1 6,2 9,5 2,3 3,5 3,8l0 2c-1,3 -2,6 -5,8 -25,21 -56,37 -93,47 -27,8 -52,11 -77,11 -10,0 -20,0 -29,-1 -3,4 -5,9 -7,15 -18,36 -38,71 -62,104 -9,12 -18,24 -28,35 -4,4 -9,8 -14,11 -5,4 -11,6 -17,6 -9,0 -17,-4 -25,-11 -8,-8 -14,-16 -19,-26 -6,-9 -10,-18 -14,-26 -16,-39 -28,-79 -38,-121 -8,-32 -14,-64 -18,-96 -2,-12 -4,-24 -4,-36 -1,-8 -2,-16 -2,-24 0,-4 0,-9 1,-14 0,-4 2,-8 5,-11 3,-3 7,-4 11,-4l10 0c13,1 26,4 38,8 6,2 12,5 18,8 5,4 8,9 9,16 1,22 3,44 7,65 4,27 9,54 16,81 6,27 14,54 23,80 4,13 9,26 15,39 1,-1 2,-2 2,-3 22,-31 40,-62 56,-96 2,-3 3,-5 4,-8 -28,-9 -49,-24 -65,-44 -16,-20 -24,-45 -24,-75 0,-14 3,-29 10,-45 6,-15 15,-28 27,-39 12,-11 26,-16 42,-16 17,0 31,5 43,15 12,10 20,22 26,38 6,14 9,30 9,45 0,13 -1,26 -4,39 -3,13 -7,26 -11,38 -2,6 -4,12 -6,18zm-32 -9c3,-6 5,-12 7,-17 3,-11 6,-22 9,-34 3,-12 4,-24 4,-35 0,-7 -1,-15 -3,-25 -2,-9 -6,-17 -11,-25 -6,-7 -13,-10 -22,-10 -3,0 -6,0 -9,2 -10,5 -17,13 -22,26 -5,13 -8,24 -8,34 0,40 19,68 55,84z"/>
  <path id="18" class="fil0" d="M2677 1667c-10,41 -22,81 -35,121 -13,40 -28,78 -47,116 -12,26 -26,50 -45,73 -4,6 -9,11 -15,15 -10,9 -22,14 -35,14l-3 0c-17,-3 -31,-12 -42,-29 -11,-16 -20,-35 -26,-55 -6,-20 -11,-38 -13,-53 -8,-40 -12,-81 -13,-122 0,-11 0,-21 0,-31 0,-36 2,-71 5,-106 1,-4 3,-8 6,-11 3,-2 7,-4 11,-4 14,0 28,3 41,8 4,2 7,4 10,5 9,6 13,13 13,22 -3,28 -5,56 -5,84 0,7 1,14 1,21 0,36 3,71 8,107 1,7 3,14 4,21 3,12 5,24 8,35 2,7 4,14 6,21 2,5 4,11 6,17 2,4 4,8 6,11 1,1 1,2 2,3 1,1 2,1 3,1 0,0 0,0 1,0 0,0 1,-1 1,-1 0,0 0,-1 1,-1 2,-2 4,-4 5,-6 5,-7 9,-14 13,-21 6,-11 12,-21 17,-32 36,-74 64,-150 86,-229 1,-4 3,-7 6,-9 2,-1 4,-1 7,-1 1,0 2,0 3,0 4,1 6,3 8,6 1,3 2,5 2,7 0,1 0,2 -1,3zm-162 -183c0,7 -1,16 -3,26 -1,10 -4,20 -9,28 -5,8 -11,12 -19,12 -7,0 -16,-1 -27,-2 -11,-1 -20,-3 -29,-7 -8,-4 -12,-11 -12,-21 0,-7 1,-16 3,-26 1,-10 5,-18 10,-25 5,-7 12,-11 22,-11 6,0 14,1 25,2 10,0 19,3 27,6 8,4 12,10 12,18z"/>
  <path id="19" class="fil0" d="M2636 1591l-66 -4c-5,0 -8,-2 -11,-5 -3,-3 -4,-7 -5,-12 1,-4 3,-8 6,-11 3,-3 6,-4 11,-4l1 0 74 3c12,-31 28,-61 49,-88 3,-5 7,-7 12,-7 7,0 13,1 20,1 6,1 13,2 19,5 6,2 10,5 14,10 3,3 4,7 4,11 0,2 0,4 0,5 -1,3 -2,4 -3,6 -13,20 -24,40 -32,62l67 3c5,0 9,2 11,5 3,3 5,7 5,12 -1,5 -2,9 -6,12 -3,2 -7,4 -11,4l-77 -4c-12,40 -18,81 -18,122 0,21 1,41 5,63 3,21 8,42 16,62 3,10 9,20 17,29 7,10 17,16 28,19 2,1 4,1 7,1 7,0 14,-2 21,-6 6,-4 12,-8 17,-13 23,-23 43,-47 60,-74 17,-26 32,-53 46,-83 10,-21 19,-43 28,-64 1,-4 3,-6 6,-7 2,-1 4,-2 6,-2 1,0 3,1 5,1 3,1 5,4 7,7 1,1 1,3 1,5 0,1 0,3 -1,5 -9,22 -18,45 -29,66 -9,19 -19,41 -33,65 -13,25 -28,48 -45,71 -17,23 -35,42 -55,57 -20,15 -41,22 -64,22 -9,0 -18,-1 -27,-4 -18,-7 -33,-17 -45,-33 -12,-15 -22,-31 -29,-48 -9,-22 -15,-45 -19,-69 -3,-23 -5,-47 -5,-70 0,-43 6,-85 18,-126z"/>
  <path id="20" class="fil0" d="M3149 1741c-3,13 -8,28 -14,43 -7,16 -15,31 -25,45 -11,14 -24,26 -40,35 -17,9 -37,14 -61,14 -14,0 -27,-3 -39,-10 -12,-6 -22,-15 -31,-27 -11,-15 -18,-31 -22,-48 -4,-16 -6,-34 -6,-52 0,-19 3,-38 10,-59 7,-21 16,-38 28,-53 16,-20 35,-35 56,-44 22,-10 45,-15 70,-15 17,0 30,2 42,5 14,4 29,10 45,16 7,-2 14,-3 21,-3 8,0 16,1 24,4 6,2 11,6 15,10 4,4 6,10 6,16 0,13 -1,26 -1,39l0 14c0,20 1,41 3,62 2,22 6,43 11,65 3,11 7,21 14,30 1,3 4,5 6,7 3,2 6,3 10,3 5,0 10,-2 16,-7 5,-4 9,-9 13,-13 17,-22 34,-48 52,-78 17,-30 31,-57 43,-83 1,-3 4,-5 7,-6 1,-1 3,-1 4,-1 2,0 4,0 6,1 3,2 5,4 7,7 0,2 1,4 1,5 0,2 -1,4 -1,6l-11 22c-11,26 -23,50 -35,75 -13,24 -29,48 -48,72 -6,9 -14,18 -23,26 -9,9 -19,17 -30,23 -10,6 -21,9 -33,9 -17,0 -30,-5 -41,-16 -10,-11 -19,-24 -25,-38 -7,-15 -11,-30 -15,-44 -4,-19 -7,-38 -9,-57zm-9 -59c3,-13 5,-34 6,-62 -17,-9 -32,-13 -45,-13 -16,0 -31,5 -46,15 -15,9 -27,21 -37,34 -7,12 -14,25 -18,41 -5,16 -8,30 -8,44 0,12 1,24 4,36 2,11 6,22 12,34 6,14 17,22 31,22 18,-1 34,-10 47,-28 13,-17 24,-38 33,-61 9,-23 16,-44 21,-62z"/>
  <path id="21" class="fil0" d="M3508 1685c13,3 27,4 40,4 5,0 9,2 12,6 3,4 4,7 4,11 0,1 0,2 0,3 -11,49 -19,99 -24,149 -2,21 -3,41 -3,62 0,7 0,13 0,19 1,10 1,20 3,30 0,6 1,12 3,18 0,5 2,10 3,15 1,1 2,3 3,5 0,2 1,4 3,5 1,2 2,3 4,3 2,0 5,-2 7,-5 3,-3 5,-6 7,-8l1 -3c5,-6 9,-12 13,-18 21,-34 41,-74 62,-121 20,-47 37,-89 50,-128l13 -38 4 -10c0,-2 1,-3 1,-4 4,-10 7,-20 11,-29 1,-4 3,-6 7,-7 1,-1 3,-2 5,-2 2,0 3,1 5,1 3,1 6,4 7,7 1,1 1,3 1,5 0,1 0,3 -1,5 -3,9 -7,19 -10,28 0,2 -1,3 -1,4l-4 11 -14 38 -14 42c-12,36 -25,72 -40,109 -14,36 -33,71 -55,106 -5,9 -12,19 -20,30 -9,10 -18,19 -28,26 -10,7 -21,11 -33,11 -12,0 -23,-3 -34,-9 -13,-9 -23,-21 -29,-37 -7,-16 -11,-32 -13,-50 -2,-18 -3,-34 -3,-49 0,-22 2,-43 4,-65 5,-48 12,-96 22,-143 -13,-3 -26,-8 -38,-13 -19,-8 -35,-18 -49,-31 -20,-19 -30,-41 -30,-66 0,-30 10,-67 31,-111 3,-7 9,-10 16,-10 12,0 25,2 38,6 5,1 9,3 14,6 4,2 7,6 9,10 -26,43 -40,79 -42,110 0,34 27,58 82,72z"/>
  <path id="22" class="fil0" d="M3708 1591l-65 -4c-5,0 -9,-2 -12,-5 -3,-3 -4,-7 -4,-12 0,-4 2,-8 5,-11 3,-3 7,-4 11,-4l1 0 75 3c11,-31 27,-61 48,-88 3,-5 8,-7 13,-7 6,0 12,1 19,1 7,1 13,2 19,5 6,2 11,5 15,10 2,3 4,7 4,11 0,2 0,4 -1,5 0,3 -1,4 -3,6 -12,20 -23,40 -32,62l68 3c4,0 8,2 11,5 3,3 4,7 4,12 0,5 -2,9 -5,12 -4,2 -7,4 -12,4l-77 -4c-12,40 -18,81 -18,122 0,21 2,41 5,63 3,21 8,42 16,62 4,10 10,20 17,29 8,10 17,16 28,19 2,1 5,1 7,1 8,0 15,-2 21,-6 7,-4 12,-8 18,-13 22,-23 42,-47 59,-74 17,-26 32,-53 46,-83 10,-21 19,-43 28,-64 1,-4 3,-6 7,-7 1,-1 3,-2 5,-2 2,0 3,1 5,1 3,1 6,4 7,7 1,1 1,3 1,5 0,1 0,3 -1,5 -8,22 -18,45 -28,66 -9,19 -20,41 -33,65 -14,25 -29,48 -46,71 -16,23 -35,42 -55,57 -20,15 -41,22 -64,22 -9,0 -18,-1 -26,-4 -19,-7 -34,-17 -46,-33 -12,-15 -22,-31 -28,-48 -9,-22 -15,-45 -19,-69 -4,-23 -6,-47 -6,-70 0,-43 6,-85 18,-126z"/>
  <path id="23" class="fil0" d="M4072 1749c3,29 10,56 19,82 2,9 6,18 10,26 2,4 5,8 9,12 3,4 8,6 13,6 5,0 11,-1 16,-5 4,-3 9,-6 13,-10 27,-27 52,-57 77,-92 25,-35 48,-69 69,-102 2,-2 4,-5 5,-9 3,-2 6,-4 9,-5l3 0c2,0 4,0 7,2 3,2 5,5 5,8 1,1 1,2 1,3 0,3 -1,5 -2,7 -11,17 -22,34 -33,51 -17,29 -36,57 -55,84 -19,28 -40,53 -63,76 -11,11 -25,22 -40,32 -14,10 -30,15 -46,15 -13,0 -24,-4 -33,-11 -9,-7 -17,-16 -24,-26 -7,-10 -12,-20 -16,-30 -18,-42 -28,-86 -31,-132 -1,-7 -1,-14 -2,-21 0,-5 0,-9 0,-14 0,-16 1,-34 3,-53 3,-24 9,-47 18,-69 10,-21 24,-38 43,-49 11,-6 24,-9 37,-9 17,0 33,5 48,16 15,13 26,29 31,49 6,20 9,39 9,58 0,17 -3,35 -8,53 -5,18 -15,32 -30,43 -16,10 -34,15 -52,15 -4,0 -7,0 -10,-1zm-3 -32c3,0 7,0 10,0 5,0 9,0 14,-1 8,-1 16,-4 22,-8 10,-7 17,-18 19,-31 3,-14 5,-26 5,-38 0,-11 -1,-23 -4,-35 -2,-12 -6,-23 -12,-33 -1,-2 -3,-5 -5,-7 -3,-1 -5,-2 -9,-2 -2,0 -5,0 -7,2 -2,2 -4,3 -5,6 -8,11 -14,24 -18,37 -7,28 -11,55 -11,83 0,6 0,12 0,19 0,2 1,5 1,8z"/>
  <path id="24" class="fil0" d="M4723 1741c-3,13 -8,28 -15,43 -6,16 -14,31 -24,45 -11,14 -24,26 -41,35 -16,9 -36,14 -60,14 -14,0 -27,-3 -39,-10 -12,-6 -22,-15 -31,-27 -11,-15 -18,-31 -22,-48 -4,-16 -7,-34 -7,-52 0,-19 4,-38 11,-59 7,-21 16,-38 28,-53 16,-20 35,-35 56,-44 22,-10 45,-15 70,-15 16,0 30,2 42,5 14,4 29,10 45,16 7,-2 14,-3 21,-3 8,0 16,1 24,4 6,2 10,6 15,10 4,4 6,10 6,16 0,13 -1,26 -1,39l0 14c0,20 1,41 3,62 2,22 5,43 11,65 2,11 7,21 14,30 1,3 4,5 6,7 3,2 6,3 10,3 5,0 10,-2 16,-7 5,-4 9,-9 13,-13 17,-22 34,-48 51,-78 18,-30 32,-57 44,-83 1,-3 3,-5 7,-6 1,-1 3,-1 4,-1 2,0 4,0 6,1 3,2 5,4 6,7 1,2 2,4 2,5 0,2 -1,4 -2,6l-10 22c-11,26 -23,50 -35,75 -13,24 -29,48 -48,72 -7,9 -15,18 -23,26 -9,9 -19,17 -30,23 -10,6 -22,9 -33,9 -17,0 -30,-5 -41,-16 -10,-11 -19,-24 -25,-38 -7,-15 -11,-30 -15,-44 -4,-19 -7,-38 -9,-57zm-9 -59c3,-13 5,-34 6,-62 -17,-9 -32,-13 -45,-13 -16,0 -32,5 -46,15 -15,9 -27,21 -37,34 -7,12 -14,25 -19,41 -4,16 -7,30 -7,44 0,12 1,24 4,36 2,11 6,22 12,34 6,14 16,22 31,22 18,-1 34,-10 47,-28 13,-17 24,-38 33,-61 8,-23 15,-44 21,-62z"/>
  <path id="25" class="fil0" d="M4999 1874c17,0 27,6 32,17 5,11 8,24 8,39 -2,32 -16,48 -45,48 -36,0 -54,-13 -56,-39 0,-28 5,-45 16,-53 11,-8 26,-12 45,-12z"/>
  <path id="26" class="fil0" d="M5151 1874c16,0 27,6 32,17 5,11 7,24 7,39 -1,32 -16,48 -44,48 -36,0 -55,-13 -56,-39 0,-28 5,-45 16,-53 11,-8 26,-12 45,-12z"/>
  <path id="27" class="fil0" d="M5303 1874c16,0 26,6 31,17 5,11 8,24 8,39 -1,32 -16,48 -45,48 -35,0 -54,-13 -56,-39 0,-28 6,-45 16,-53 11,-8 26,-12 46,-12z"/>
 </g>
</svg>
