<?xml version="1.0" encoding="UTF-8"?>
<!DOCTYPE svg PUBLIC "-//W3C//DTD SVG 1.1//EN" "http://www.w3.org/Graphics/SVG/1.1/DTD/svg11.dtd">
<!-- Creator: CorelDRAW X8 -->
<svg xmlns="http://www.w3.org/2000/svg" xml:space="preserve" width="61.6122mm" height="23.5597mm" version="1.1" style="shape-rendering:geometricPrecision; text-rendering:geometricPrecision; image-rendering:optimizeQuality; fill-rule:evenodd; clip-rule:evenodd"
viewBox="0 0 9069 3468"
 xmlns:xlink="http://www.w3.org/1999/xlink">
 <defs>
  <style type="text/css">
   <![CDATA[
    .fil0 {fill:white;fill-rule:nonzero}
   ]]>
  </style>
 </defs>
 <g id="Contenido_x0020_de_x0020_PowerClip">
  <metadata id="CorelCorpID_0Corel-Layer"/>
  <path class="fil0" d="M2293 707c-10,51 -25,100 -44,148 -10,24 -21,47 -34,68 -12,22 -26,43 -42,63 -31,39 -68,71 -111,94 -43,24 -94,35 -152,35 -28,0 -55,-3 -81,-9 -26,-6 -51,-17 -74,-32 -37,-26 -68,-59 -90,-99 -23,-41 -42,-82 -56,-124 -26,-82 -40,-165 -40,-249 0,-33 2,-64 6,-96 7,-67 22,-131 45,-191 24,-60 55,-114 94,-162 40,-47 87,-84 143,-112 56,-27 121,-41 193,-41 8,0 14,3 19,8 5,5 7,12 7,19 0,7 -2,13 -7,19 -5,5 -11,8 -19,8 -56,0 -109,14 -158,43 -32,21 -61,47 -85,78 -24,31 -45,64 -61,99 -36,80 -57,165 -65,252 -2,29 -4,58 -4,86 0,28 2,57 4,85 5,53 16,105 32,156 12,38 29,76 53,113 24,36 56,63 94,79 20,8 40,12 62,12 59,0 111,-33 156,-99 16,-23 30,-50 42,-81 22,-57 39,-127 49,-210 -46,-22 -88,-50 -125,-86 -38,-35 -68,-76 -90,-121 -23,-46 -34,-95 -34,-147 0,-23 3,-46 10,-68 13,-36 34,-64 62,-81 28,-18 61,-27 98,-27 29,0 56,7 82,21 35,20 62,50 82,88 20,39 34,81 43,125 9,44 13,85 15,123 0,11 0,21 0,32 0,42 -3,84 -9,125 38,9 75,14 112,14 83,0 163,-24 242,-74 3,-2 7,-3 11,-3l4 1c5,1 9,4 12,9 2,3 2,6 2,10 0,1 0,3 0,4 -1,5 -4,9 -9,12 -57,35 -119,61 -185,77 -38,9 -76,14 -115,14 -27,0 -55,-3 -84,-8zm-115 -104c2,-24 3,-48 3,-71 0,-12 0,-24 0,-36 -2,-43 -8,-90 -20,-142 -12,-51 -33,-93 -62,-126 -12,-12 -28,-18 -47,-18 -15,0 -27,6 -38,17 -10,12 -18,26 -23,40 -4,15 -6,30 -6,46 0,14 1,29 3,43 10,54 33,102 67,144 35,42 76,76 123,103z"/>
  <path id="1" class="fil0" d="M2739 922c-7,-9 -14,-18 -21,-27 -13,-15 -25,-31 -37,-48 -15,-19 -28,-38 -41,-59 -12,-21 -23,-43 -30,-66 -8,-23 -12,-46 -12,-71 0,-27 5,-53 16,-78 11,-26 27,-47 48,-64 21,-17 47,-25 77,-25 28,0 53,10 77,29 21,21 32,46 32,73 0,9 -1,18 -3,27 -2,6 -5,11 -10,15 -5,3 -10,4 -15,4l-4 0c-7,-2 -12,-5 -15,-11 -3,-4 -4,-8 -4,-13 0,-1 0,-3 0,-5 2,-5 2,-10 2,-15 0,-11 -3,-22 -10,-33 -4,-5 -9,-7 -15,-7 -7,0 -13,2 -18,7 -13,13 -22,27 -28,45 -6,17 -9,34 -9,51 0,16 2,31 7,46 9,26 22,50 39,72 17,21 34,42 51,61 1,1 2,2 2,3 54,-54 111,-106 170,-157 7,-4 13,-10 18,-15 20,-17 41,-34 61,-51 1,0 2,-1 3,-2 11,-9 23,-17 35,-25 3,-1 6,-2 9,-2 2,0 4,0 5,0 5,2 10,5 13,9 1,4 2,7 2,10 0,2 0,3 -1,5 -1,5 -4,9 -9,12 -10,6 -19,13 -29,21 -1,1 -3,2 -4,3 -20,16 -40,33 -59,49 -60,53 -118,110 -172,169 -4,4 -7,7 -10,11 19,21 35,45 48,69 14,25 20,52 20,82 0,51 -16,92 -49,121 -33,28 -75,43 -125,43 -20,0 -38,-6 -55,-18 -12,-10 -21,-21 -28,-34 -6,-13 -9,-28 -9,-43 0,-18 5,-37 15,-58 10,-20 21,-40 35,-59 13,-20 26,-36 37,-51zm30 41c-5,7 -11,13 -16,21 -10,13 -21,30 -34,51 -12,21 -18,40 -18,55 0,7 1,12 3,17 2,5 7,9 13,13 9,4 18,5 27,5 16,0 28,-4 37,-12 8,-8 14,-19 18,-31 3,-13 5,-26 5,-39 0,-14 -4,-27 -11,-42 -8,-14 -16,-27 -24,-38z"/>
  <path id="2" class="fil0" d="M3248 603c1,-5 1,-10 1,-15 0,-4 0,-7 0,-11 -1,-7 -3,-14 -6,-21 -3,-6 -9,-9 -17,-9 -5,0 -9,1 -13,2 -15,7 -25,20 -32,38 -6,19 -11,35 -12,50 -2,11 -3,24 -3,36 0,17 1,39 4,66 2,26 7,52 15,78 7,26 18,47 32,65 15,18 34,27 58,27 25,0 50,-12 76,-35 27,-23 52,-51 75,-84 24,-34 45,-67 62,-100 17,-33 29,-61 36,-84 2,-5 4,-9 9,-11 3,-2 6,-3 10,-3 1,0 3,0 5,1 5,1 9,4 12,9 1,2 2,6 2,10 0,1 0,3 0,5 -14,46 -36,96 -69,150 -33,55 -71,101 -117,141 -45,39 -93,60 -144,62 -41,-1 -74,-10 -99,-28 -24,-19 -43,-43 -56,-72 -12,-30 -21,-63 -25,-97 -4,-35 -6,-68 -6,-100 0,-21 2,-42 6,-63 5,-21 13,-41 25,-59 13,-20 29,-36 50,-47 20,-12 42,-18 66,-18 27,0 52,9 74,27 21,21 32,46 32,73 0,9 -1,18 -3,27 -2,6 -5,11 -11,15 -4,3 -9,4 -14,4l-3 0c-7,-2 -12,-5 -16,-11 -3,-4 -4,-9 -4,-14l0 -4z"/>
  <path id="3" class="fil0" d="M3827 721c-5,19 -12,41 -22,64 -9,23 -21,45 -36,66 -16,21 -35,39 -60,52 -24,14 -54,21 -90,21 -21,0 -40,-5 -58,-15 -17,-9 -32,-23 -45,-40 -16,-23 -27,-46 -33,-71 -6,-24 -9,-51 -9,-78 0,-27 5,-56 15,-87 11,-30 25,-56 42,-79 24,-29 51,-50 83,-65 32,-14 67,-21 104,-21 24,0 44,2 62,7 21,6 43,14 66,24 10,-3 21,-5 31,-5 12,0 24,2 36,7 8,3 15,7 22,14 6,6 9,14 9,23 -1,19 -1,39 -1,59l0 20c0,30 1,61 4,92 3,32 8,64 16,96 4,16 11,31 20,45 3,4 6,7 10,10 5,3 9,5 14,5 8,0 16,-3 24,-10 8,-7 14,-14 19,-20 26,-33 51,-71 77,-115 25,-45 46,-86 64,-123 2,-5 5,-8 10,-10 3,-1 5,-1 7,-1 2,0 5,0 8,2 5,2 8,6 10,10 1,3 2,5 2,8 0,2 -1,5 -2,7l-15 33c-17,39 -35,75 -53,111 -19,36 -42,72 -70,107 -10,13 -22,27 -35,40 -13,13 -28,24 -44,33 -15,9 -32,13 -49,13 -24,0 -45,-8 -60,-24 -16,-16 -29,-35 -38,-56 -10,-22 -17,-44 -21,-64 -7,-28 -11,-57 -14,-85zm-14 -87c6,-21 9,-51 9,-92 -25,-13 -47,-20 -66,-20 -24,0 -47,7 -69,22 -22,14 -40,32 -54,51 -11,17 -20,37 -28,60 -7,24 -10,45 -10,65 0,19 1,37 5,54 3,17 9,33 18,50 9,22 24,32 46,33 26,-1 50,-15 69,-41 20,-26 36,-56 49,-91 13,-34 23,-65 31,-91z"/>
  <path id="4" class="fil0" d="M4359 638c19,4 39,6 58,6 8,0 14,3 19,9 4,5 6,10 6,15 0,2 -1,4 -1,5 -16,73 -28,146 -35,220 -4,32 -5,62 -5,93 0,10 0,19 0,29 1,14 3,29 4,43 1,9 3,18 5,27 1,7 3,15 5,22 1,2 2,4 3,7 2,4 3,6 5,9 2,2 4,3 7,3 3,0 7,-2 10,-7 4,-4 7,-9 10,-12l2 -4c6,-9 13,-18 19,-27 31,-50 61,-109 91,-179 30,-69 55,-132 75,-189l20 -57 5 -15c1,-2 1,-4 2,-5 5,-15 10,-30 15,-44 3,-5 6,-9 11,-11 2,-1 5,-2 8,-2 2,0 4,1 7,2 5,2 8,5 10,10 2,2 2,4 2,7 0,2 0,5 -2,7 -5,14 -10,29 -15,42 0,3 -1,5 -2,7l-5 15 -20 57 -21 62c-18,53 -38,107 -59,161 -22,53 -49,106 -81,158 -9,13 -19,28 -31,43 -12,15 -26,28 -41,39 -15,11 -32,17 -49,17 -17,0 -34,-5 -50,-14 -19,-13 -34,-31 -44,-54 -9,-24 -16,-49 -18,-75 -3,-27 -4,-51 -4,-72 0,-32 1,-65 5,-97 7,-71 18,-142 33,-211 -20,-5 -39,-12 -57,-20 -28,-11 -52,-26 -73,-46 -29,-27 -44,-60 -44,-98 0,-44 16,-98 47,-163 4,-11 12,-16 22,-16 19,0 38,3 56,9 8,2 15,5 22,9 6,4 11,9 14,15 -40,63 -61,118 -63,163 0,50 40,86 122,107z"/>
  <path id="5" class="fil0" d="M5705 670l1 -40c1,-28 1,-56 2,-84 3,-67 4,-134 4,-202 0,-27 -2,-56 -5,-85 -4,-29 -10,-57 -19,-84 -5,-13 -10,-26 -18,-39 -10,-17 -23,-26 -37,-26 -13,0 -24,9 -34,27 -11,22 -19,45 -26,71 -6,25 -10,47 -13,66 -9,55 -15,111 -19,166 -2,32 -5,64 -7,95 -2,31 -4,61 -7,92l-1 15c29,2 57,5 86,9 31,5 62,11 93,19zm-256 22l-1 0c-58,0 -116,6 -173,18 -32,7 -62,16 -90,28 -29,11 -55,26 -78,45 -23,18 -42,40 -55,66 -14,26 -21,57 -21,92 0,59 18,108 52,148 35,39 83,62 143,67 1,0 2,0 2,0 31,-1 60,-11 86,-27 31,-22 56,-51 74,-87 18,-35 31,-71 40,-107 13,-49 23,-99 29,-149 5,-31 8,-63 11,-94 -6,0 -13,0 -19,0zm640 218c75,-154 117,-255 128,-303 1,-6 3,-10 8,-13 3,-2 6,-3 10,-3 1,0 3,0 5,0 5,2 9,4 12,9 2,3 3,7 3,10l0 4c-11,51 -58,164 -139,339 -82,175 -164,263 -247,263 -16,0 -32,-3 -47,-10 -34,-16 -60,-43 -78,-81 -17,-39 -29,-80 -35,-125 -6,-44 -9,-83 -9,-116 0,-53 1,-106 3,-160 -33,-8 -66,-15 -99,-20 -28,-4 -55,-7 -83,-9 -3,33 -7,65 -11,98 -7,53 -17,104 -30,155 -11,43 -27,85 -49,126 -21,41 -50,74 -88,99 -39,25 -82,37 -128,37 -52,0 -98,-12 -138,-35 -40,-23 -71,-55 -94,-95 -23,-41 -35,-87 -35,-139 0,-27 4,-53 12,-78 7,-24 19,-48 35,-70 29,-39 66,-69 111,-91 45,-22 93,-38 144,-47 50,-10 99,-15 145,-16 13,-1 26,-1 39,-1 13,0 26,0 39,1 0,-6 1,-11 1,-16 2,-31 5,-61 7,-92 2,-32 5,-63 7,-95 4,-57 11,-114 19,-171 4,-25 10,-52 18,-82 8,-30 19,-58 34,-83 15,-26 34,-45 58,-58 18,-8 36,-12 55,-12 17,0 34,4 50,10 33,16 59,42 76,77 18,36 29,74 35,116 7,42 10,79 10,111 0,68 -2,136 -3,204 -1,28 -2,55 -4,83 -3,85 -5,169 -5,253 0,30 2,60 5,91 4,31 10,60 19,89 8,24 17,42 27,56 10,13 23,20 37,20 39,0 96,-77 170,-230z"/>
  <path id="6" class="fil0" d="M6288 569c0,8 0,14 0,21 0,30 1,59 3,88 2,40 5,80 9,120 3,29 7,58 12,87 4,24 10,49 17,73 1,4 3,7 5,10 2,3 5,4 8,4 5,0 10,-2 16,-6 5,-5 10,-9 13,-13 34,-43 69,-99 103,-167 35,-68 60,-130 74,-186 1,-5 3,-9 8,-12 3,-2 7,-3 10,-3l4 0c6,1 10,4 13,9 2,3 3,6 3,11 0,1 0,2 -1,3 -26,121 -76,235 -152,342 -10,15 -22,31 -37,49 -16,17 -32,33 -51,46 -18,13 -37,20 -57,20 -33,0 -62,-37 -86,-111 -23,-74 -35,-170 -35,-288 0,-183 22,-321 64,-412 42,-91 98,-136 165,-136 18,0 36,4 52,14 17,11 30,25 37,43 8,17 12,36 12,56 0,41 -11,82 -34,125 -22,42 -49,82 -81,119 -32,37 -63,68 -94,94zm3 -67c7,-8 15,-15 22,-23 20,-20 40,-44 61,-71 21,-28 38,-57 53,-88 14,-31 22,-61 22,-89 0,-13 -3,-25 -7,-37 -5,-7 -11,-11 -19,-11 -5,0 -11,1 -17,3 -6,2 -11,5 -15,8 -24,22 -43,50 -57,86 -14,36 -24,73 -31,113 -6,39 -10,76 -12,109z"/>
  <path id="7" class="fil0" d="M6618 815c57,-26 109,-60 157,-102 39,-34 69,-75 89,-124 -16,-22 -24,-47 -24,-75 0,-44 16,-98 47,-163 4,-11 12,-16 22,-16 19,0 38,3 57,9 7,2 14,5 21,9 6,4 11,9 14,15 -40,63 -61,118 -63,163 0,50 40,86 121,107 20,4 40,6 59,6 8,0 14,3 19,9 4,5 6,10 6,15 0,2 0,4 -1,5 -16,73 -28,146 -35,220 -4,32 -5,62 -5,93 0,10 0,19 0,29 1,14 2,29 4,43 1,9 3,18 5,27 1,7 3,15 5,22 1,2 2,4 3,7 2,4 3,6 5,9 2,2 4,3 7,3 3,0 7,-2 10,-7 4,-4 7,-9 10,-12l2 -4c7,-9 13,-18 19,-27 31,-50 61,-109 91,-179 30,-69 55,-132 74,-189l21 -57 5 -15c1,-2 1,-4 2,-5 5,-15 10,-30 15,-44 2,-5 6,-9 10,-11 3,-1 6,-2 9,-2 2,0 4,1 7,2 5,2 8,5 10,10 2,2 2,4 2,7 0,2 0,5 -2,7 -5,14 -10,29 -15,42 0,3 -1,5 -2,7l-5 15 -20 57 -21 62c-18,53 -38,107 -59,161 -22,53 -49,106 -81,158 -9,13 -19,28 -31,43 -12,15 -26,28 -41,39 -15,11 -31,17 -49,17 -17,0 -34,-5 -50,-14 -19,-13 -34,-31 -44,-54 -9,-24 -16,-49 -18,-75 -3,-27 -4,-51 -4,-72 0,-32 1,-65 5,-97 7,-71 18,-142 33,-211 -20,-5 -39,-12 -57,-20 -19,-7 -36,-16 -51,-27 -30,61 -70,109 -119,143 -44,30 -81,52 -113,66 12,28 23,58 32,87 12,44 23,89 31,134 7,31 11,63 15,95 3,25 4,51 4,77 0,8 0,17 0,26 -1,23 -5,48 -13,74 -7,26 -21,44 -43,57 -10,5 -20,7 -31,7 -19,0 -36,-7 -49,-21 -14,-14 -25,-31 -34,-50 -9,-19 -16,-36 -21,-52 -13,-37 -23,-74 -30,-113 -8,-42 -15,-85 -21,-128 -11,-82 -17,-163 -17,-245 0,-294 20,-497 60,-609 40,-112 104,-168 191,-168 15,0 29,4 43,12 15,9 26,22 32,38 6,16 9,32 9,49 0,6 -2,12 -7,17 -5,5 -10,7 -17,7 -7,0 -13,-2 -17,-5 -5,-4 -8,-10 -8,-19 0,-8 -1,-14 -4,-21 -4,-7 -10,-10 -19,-10 -62,0 -102,63 -118,190 -16,127 -24,299 -24,519l0 27zm1 40c2,57 8,114 16,171 7,65 19,129 36,192 5,20 11,40 19,60 3,9 7,17 11,26 4,-16 6,-32 6,-47 1,-8 1,-16 1,-24 0,-25 -2,-49 -5,-73 -3,-30 -8,-60 -13,-91 -8,-43 -18,-86 -31,-128 -8,-29 -21,-58 -40,-86z"/>
  <path id="8" class="fil0" d="M7461 733c5,42 14,82 28,121 4,13 9,26 15,38 3,7 8,13 13,19 5,5 12,8 20,8 8,0 15,-2 23,-7 7,-4 14,-10 20,-15 39,-40 77,-85 114,-136 36,-52 70,-102 102,-151 3,-4 6,-8 8,-13 4,-4 8,-7 13,-8l3 -1c4,0 8,1 11,3 5,4 8,8 8,13 1,2 1,3 1,4 0,4 -1,7 -3,11 -17,25 -33,50 -49,76 -25,42 -52,84 -80,124 -29,40 -60,78 -94,112 -17,17 -37,33 -59,47 -22,15 -45,22 -69,22 -18,0 -34,-5 -48,-16 -14,-10 -26,-23 -36,-38 -10,-15 -18,-30 -24,-45 -26,-62 -42,-127 -46,-195 -1,-11 -2,-21 -2,-31 0,-7 -1,-14 -1,-21 0,-24 2,-50 5,-78 4,-36 13,-70 27,-102 14,-32 35,-57 63,-73 17,-9 36,-13 55,-13 26,0 50,8 71,23 23,19 38,43 46,73 9,30 13,58 13,86 0,26 -4,52 -11,78 -8,26 -22,47 -45,64 -24,15 -50,22 -77,22 -5,0 -10,0 -15,-1zm-4 -48c5,0 10,0 15,0 6,0 14,0 21,-1 12,-2 23,-6 32,-12 15,-11 24,-27 29,-47 4,-20 6,-38 6,-55 0,-16 -1,-34 -5,-52 -3,-18 -9,-34 -18,-49 -2,-4 -5,-7 -8,-10 -4,-2 -8,-4 -12,-4 -4,0 -8,1 -11,4 -3,2 -6,5 -8,8 -12,17 -21,36 -26,56 -11,40 -17,81 -17,123 0,9 1,18 1,27 0,3 0,8 1,12z"/>
  <path id="9" class="fil0" d="M8000 553c-10,-64 -18,-127 -24,-191 -2,-27 -3,-53 -3,-80 0,-27 3,-59 7,-95 5,-36 15,-70 30,-101 14,-30 36,-52 65,-65 12,-5 24,-7 37,-7 12,0 24,2 36,7 26,13 46,33 59,63 13,30 22,62 25,97 4,35 6,65 6,90 0,54 -4,108 -12,162 -9,73 -22,145 -40,216 -5,22 -11,44 -18,65 16,42 38,79 67,112 6,6 12,11 19,14 7,4 14,6 23,6 17,0 34,-9 53,-26 18,-17 36,-38 53,-64 17,-26 32,-51 46,-77 14,-26 26,-48 35,-66l7 -13c2,-5 6,-8 11,-10 2,-1 4,-1 6,-1 3,0 5,1 8,2 5,3 9,7 11,12 0,1 0,3 0,5 0,3 0,6 -2,9l-13 28c-13,25 -28,53 -44,84 -17,30 -36,59 -57,88 -20,28 -43,51 -67,70 -24,18 -50,27 -77,27 -27,0 -51,-6 -73,-18 -21,-12 -40,-28 -57,-48 -14,29 -32,58 -52,85 -20,27 -44,50 -71,67 -27,18 -59,27 -94,27 -59,0 -104,-18 -136,-55 -32,-37 -48,-93 -48,-168 0,-78 18,-140 55,-188 37,-47 92,-71 164,-71 22,0 44,3 65,8zm85 250c-18,-32 -33,-65 -45,-99 -11,-31 -20,-63 -28,-96 -22,-8 -42,-12 -61,-12 -31,0 -57,18 -80,54 -23,36 -34,92 -34,167 0,52 9,90 27,114 18,24 39,36 64,36 20,0 39,-6 55,-19 23,-18 43,-40 60,-66 16,-26 30,-53 42,-79zm56 -171c0,-3 1,-5 2,-8 15,-66 27,-132 35,-199 4,-29 7,-57 9,-86 1,-23 2,-46 2,-68 0,-24 -1,-47 -3,-72 -2,-24 -7,-47 -14,-70 -1,-3 -3,-7 -5,-13 -2,-5 -4,-10 -8,-14 -3,-4 -6,-6 -11,-6 -3,0 -7,2 -11,5 -3,2 -6,5 -8,9 -8,10 -14,22 -17,34 -7,22 -12,45 -14,68 -2,24 -4,47 -4,70 0,43 3,86 7,129 5,55 14,110 26,164 4,19 9,38 14,57z"/>
  <path id="10" class="fil0" d="M8736 794c-16,2 -32,3 -48,3 -25,0 -47,-7 -65,-20 -17,-13 -31,-30 -39,-51 -9,-21 -14,-44 -14,-67 0,-36 10,-66 31,-91 20,-25 49,-37 87,-37 18,0 34,5 49,16 16,11 27,25 35,43 8,18 14,37 17,58 3,20 4,39 4,56 0,9 0,18 0,27 36,-11 64,-21 85,-31 21,-10 48,-27 80,-51 28,-22 54,-45 78,-69 4,-4 8,-6 14,-6 5,0 9,2 13,5 4,5 6,9 6,14 0,5 -2,10 -5,14 -23,24 -49,47 -77,68 -31,24 -62,46 -93,64 -31,18 -67,33 -107,44 -6,42 -20,84 -40,126 -21,42 -52,72 -92,89 -15,6 -31,8 -47,8 -19,0 -38,-3 -56,-10 -22,-10 -42,-24 -58,-41 -17,-18 -30,-38 -41,-60 -23,-49 -34,-99 -34,-151 0,-46 9,-88 28,-128 18,-39 45,-71 80,-96 34,-24 76,-36 125,-36l0 0c7,2 12,5 15,11 3,4 5,9 5,13 0,2 0,4 -1,5 -1,6 -4,10 -8,14 -4,3 -9,5 -15,5 -25,0 -44,8 -58,23 -14,15 -25,34 -32,57 -7,22 -12,46 -14,70 -3,24 -4,45 -4,62 0,13 1,31 4,53 3,21 8,43 16,65 7,22 16,40 29,56 12,15 27,22 45,22 16,0 30,-6 42,-18 12,-11 21,-24 28,-37 15,-29 25,-59 32,-91zm7 -51c1,-13 2,-26 2,-39 0,-8 -1,-18 -2,-32 -1,-14 -4,-28 -7,-41 -4,-14 -10,-25 -17,-35 -6,-9 -16,-14 -27,-14 -13,0 -22,4 -30,13 -7,8 -12,19 -15,31 -3,12 -4,23 -4,33 0,12 2,25 6,39 4,14 10,26 19,35 9,10 21,15 36,15 13,0 26,-2 39,-5z"/>
  <path id="11" class="fil0" d="M756 2656l1 -40c1,-28 2,-56 3,-84 2,-67 4,-134 4,-202 0,-27 -2,-56 -6,-85 -3,-29 -10,-57 -19,-84 -4,-13 -10,-26 -17,-39 -11,-17 -24,-25 -38,-25 -12,0 -23,8 -33,26 -11,22 -20,45 -26,71 -6,25 -11,47 -13,66 -9,55 -16,111 -19,166 -3,32 -5,64 -7,95 -2,31 -5,62 -7,92l-1 15c28,2 57,5 85,9 32,5 62,11 93,19zm-255 22l-1 0c-59,0 -117,6 -174,18 -31,7 -61,16 -90,28 -29,12 -55,27 -78,45 -23,18 -41,40 -55,66 -13,26 -20,57 -20,93 0,58 17,108 52,147 35,40 82,62 142,67 1,0 2,1 3,1 31,-2 60,-11 86,-28 31,-22 55,-51 73,-87 19,-35 32,-71 41,-107 13,-49 23,-99 29,-149 4,-31 8,-63 11,-93 -7,-1 -13,-1 -19,-1zm640 218c74,-154 117,-255 127,-303 1,-6 4,-10 8,-13 4,-2 7,-3 10,-3 2,0 4,0 5,1 5,1 9,3 12,8 2,3 3,7 3,11l0 3c-11,51 -57,164 -139,339 -81,175 -164,263 -246,263 -17,0 -33,-3 -48,-10 -34,-16 -60,-43 -77,-81 -18,-38 -30,-80 -36,-125 -5,-44 -8,-83 -8,-116 0,-53 0,-106 2,-159 -32,-9 -65,-16 -99,-21 -27,-4 -55,-7 -83,-9 -3,33 -6,66 -11,98 -6,53 -16,105 -29,155 -11,43 -28,85 -49,126 -21,41 -51,74 -88,100 -40,24 -82,36 -128,36 -52,0 -98,-11 -138,-35 -40,-23 -72,-55 -95,-95 -23,-41 -34,-87 -34,-138 0,-27 4,-53 11,-78 8,-25 20,-49 35,-71 29,-39 66,-69 111,-91 46,-22 94,-38 144,-47 51,-10 99,-15 145,-16 14,-1 26,-1 40,-1 12,0 25,0 38,1 1,-6 1,-11 2,-16 2,-31 4,-61 7,-92 2,-32 4,-63 7,-95 4,-57 10,-114 19,-170 3,-26 9,-53 17,-83 8,-30 20,-58 34,-83 15,-25 35,-45 59,-58 17,-8 35,-12 54,-12 17,0 34,4 51,10 33,17 58,42 76,77 17,36 29,74 35,116 6,42 9,79 9,111 0,68 -1,136 -3,204 -1,28 -2,56 -3,83 -4,85 -5,169 -5,253 0,30 1,60 5,91 3,31 9,61 19,89 7,24 16,42 26,56 11,13 23,20 37,20 39,0 96,-77 171,-230z"/>
  <path id="12" class="fil0" d="M1604 2626c-4,9 -8,20 -12,30 -10,25 -23,52 -39,79 -15,27 -34,53 -55,77 -20,23 -44,42 -70,57 -25,15 -54,23 -84,23 -17,0 -32,-4 -47,-12 -34,-21 -56,-56 -66,-106 -9,-40 -13,-81 -13,-123 0,-11 0,-23 1,-34 3,-55 8,-100 14,-135 2,-6 4,-10 9,-14 4,-3 9,-5 15,-5 10,0 21,0 32,1 11,1 21,4 31,8 7,2 13,6 19,10 8,7 12,15 12,25l0 3c-7,40 -11,81 -12,122l0 16c0,23 1,47 4,73 4,33 11,62 23,86 5,12 13,18 25,18 8,0 17,-2 25,-7 8,-4 15,-9 22,-14 24,-22 45,-47 64,-77 18,-30 34,-60 45,-90 13,-31 24,-64 32,-97l0 -2c0,-5 1,-9 3,-13 3,-6 9,-10 16,-12 8,-2 16,-2 24,-2 3,0 6,0 10,0 13,1 25,3 38,6 6,2 13,4 19,7 6,3 10,8 13,14 16,48 28,97 35,146 4,27 8,55 10,83 82,-66 166,-128 253,-186 4,-2 8,-3 12,-3l3 0c5,2 9,4 12,8 2,4 3,8 3,12l0 3c-1,5 -4,9 -9,13 -83,57 -161,119 -234,182 -12,10 -24,20 -36,31 1,17 1,35 1,53 0,50 -5,100 -14,150 -18,102 -54,198 -109,286 -22,35 -50,67 -83,96 -33,28 -70,46 -113,53 -9,2 -18,3 -27,3 -31,0 -60,-11 -86,-34 -15,-13 -26,-29 -33,-47 -7,-18 -10,-37 -10,-57 0,-24 6,-49 18,-76 12,-26 26,-51 43,-75 16,-24 32,-45 47,-64 35,-42 72,-82 111,-121 41,-42 84,-82 128,-122 2,-2 4,-4 7,-6 0,-13 -1,-26 -1,-39 -2,-47 -7,-93 -14,-139 -3,-21 -7,-42 -12,-62zm25 307c-34,31 -67,63 -99,95 -38,38 -73,77 -107,118 -12,15 -26,33 -41,54 -15,22 -28,43 -40,67 -11,22 -17,43 -17,63 0,17 4,33 12,49 4,7 9,11 15,14 7,3 14,4 21,4 16,0 32,-5 46,-16 54,-42 96,-94 128,-155 48,-92 75,-189 82,-293z"/>
  <path id="13" class="fil0" d="M2295 2707c-6,19 -13,41 -22,64 -9,23 -22,45 -37,66 -15,21 -35,39 -59,52 -24,14 -54,21 -90,21 -21,0 -40,-5 -58,-15 -18,-9 -33,-23 -45,-40 -16,-22 -27,-46 -34,-71 -6,-24 -9,-50 -9,-78 0,-27 6,-56 16,-86 10,-31 24,-57 42,-80 23,-29 51,-50 83,-65 32,-14 66,-21 103,-21 24,0 45,2 62,7 21,7 43,15 66,24 11,-3 21,-5 31,-5 13,0 25,2 37,7 8,3 15,7 21,14 7,6 10,14 10,23 -1,19 -1,39 -1,59l0 20c0,31 1,61 3,92 3,32 9,64 17,96 3,16 10,31 20,45 2,4 6,7 10,10 4,4 9,5 14,5 8,0 16,-3 23,-10 8,-7 15,-14 20,-20 25,-33 51,-71 76,-115 26,-44 47,-85 64,-123 2,-5 6,-8 11,-10 2,-1 4,-1 6,-1 3,0 6,0 8,2 6,2 9,6 11,10 1,3 1,6 1,8 0,3 0,5 -1,8l-16 32c-16,39 -34,76 -52,111 -19,36 -42,72 -70,107 -11,14 -22,27 -35,40 -14,13 -28,24 -44,33 -16,9 -32,13 -49,13 -25,0 -45,-8 -61,-24 -15,-16 -28,-35 -38,-56 -9,-22 -16,-43 -21,-64 -6,-28 -11,-57 -13,-85zm-14 -87c5,-20 8,-51 9,-92 -26,-13 -48,-20 -66,-20 -24,0 -47,7 -69,22 -22,14 -40,32 -54,51 -11,17 -21,37 -28,60 -7,24 -10,45 -10,65 0,19 1,37 4,54 4,17 10,33 18,50 10,22 25,33 46,33 27,-1 50,-15 70,-41 19,-26 36,-56 49,-91 13,-34 23,-65 31,-91z"/>
  <path id="14" class="fil0" d="M2728 2555c0,8 0,15 0,21 0,30 1,59 3,89 2,40 5,79 9,119 3,29 7,58 12,87 4,24 10,49 17,74 1,3 3,6 5,9 2,3 5,4 8,4 5,0 10,-2 16,-6 5,-5 10,-9 13,-12 34,-44 69,-99 103,-168 35,-68 60,-130 74,-186 1,-5 3,-9 8,-12 3,-2 7,-3 10,-3l4 0c6,1 10,4 13,9 2,3 3,7 3,11 0,1 0,2 -1,4 -26,120 -76,234 -152,341 -10,15 -22,31 -37,49 -16,17 -32,33 -51,46 -18,13 -37,20 -57,20 -33,0 -62,-37 -86,-111 -24,-73 -35,-170 -35,-288 0,-183 22,-320 64,-411 42,-92 97,-137 165,-137 18,0 36,5 52,14 17,11 30,25 37,43 8,17 12,36 12,56 0,41 -11,82 -34,125 -22,42 -49,82 -81,119 -32,37 -63,68 -94,94zm3 -67c7,-8 15,-15 22,-23 20,-20 40,-44 61,-71 21,-28 38,-57 53,-88 14,-31 22,-61 22,-89 0,-12 -3,-24 -8,-37 -4,-7 -10,-11 -18,-11 -5,0 -11,1 -17,3 -6,2 -11,5 -15,8 -24,22 -43,50 -57,86 -14,36 -24,73 -31,113 -6,40 -10,76 -12,109z"/>
  <path id="15" class="fil0" d="M3290 2707c-5,19 -12,41 -21,64 -10,23 -22,45 -37,66 -16,21 -35,39 -60,52 -24,14 -54,21 -89,21 -21,0 -41,-5 -58,-15 -18,-9 -33,-23 -46,-40 -16,-22 -27,-46 -33,-71 -6,-24 -9,-50 -9,-78 0,-27 5,-56 15,-86 11,-31 25,-57 42,-80 24,-29 52,-50 84,-65 32,-14 66,-21 103,-21 24,0 45,2 62,7 21,7 43,15 66,24 10,-3 21,-5 31,-5 12,0 24,2 36,7 8,3 16,7 22,14 6,6 9,14 9,23 0,19 -1,39 -1,59l0 20c0,31 1,61 4,92 3,32 8,64 16,96 4,16 11,31 20,45 3,4 6,7 11,10 4,4 8,5 14,5 7,0 15,-3 23,-10 8,-7 14,-14 19,-20 26,-33 52,-71 77,-115 25,-44 47,-85 64,-123 2,-5 5,-8 11,-10 2,-1 4,-1 6,-1 2,0 5,0 8,2 5,2 8,6 10,10 1,3 2,6 2,8 0,3 -1,5 -2,8l-15 32c-17,39 -34,76 -53,111 -18,36 -42,72 -70,107 -10,14 -22,27 -35,40 -13,13 -28,24 -43,33 -16,9 -33,13 -50,13 -24,0 -44,-8 -60,-24 -16,-16 -29,-35 -38,-56 -9,-22 -16,-43 -21,-64 -6,-28 -11,-57 -14,-85zm-14 -87c6,-20 9,-51 10,-92 -26,-13 -48,-20 -66,-20 -25,0 -48,7 -70,22 -22,14 -40,32 -54,51 -11,17 -20,37 -27,60 -7,24 -11,45 -11,65 0,19 2,37 5,54 4,17 9,33 18,50 9,22 25,33 46,33 27,-1 50,-15 70,-41 19,-26 35,-56 48,-91 13,-34 24,-65 31,-91z"/>
  <path id="16" class="fil0" d="M4394 2838l8 -74c11,-110 24,-220 39,-329 9,-63 20,-127 33,-190 11,-57 26,-112 44,-167 6,-17 13,-35 22,-55 9,-21 19,-40 32,-58 12,-19 27,-34 43,-46 16,-12 35,-18 56,-18 16,0 31,5 43,15 13,10 23,23 32,38 9,16 17,32 23,48 6,17 10,32 14,45 12,43 22,88 30,133 8,50 15,100 21,151 9,89 17,178 22,267 0,4 0,8 0,12 3,-9 6,-18 9,-27 9,-25 17,-50 25,-76 13,-37 26,-75 41,-111 13,-35 29,-68 46,-100 14,-26 32,-51 53,-74 21,-24 47,-39 76,-45 7,-2 14,-2 22,-2 11,0 22,2 33,7 18,10 32,26 41,46 10,21 16,44 19,68 4,24 6,45 7,64 0,70 -1,130 -2,181 -1,50 -2,85 -3,103 -1,38 -2,86 -2,142 0,43 3,85 9,127 3,37 11,68 22,93 10,19 21,29 32,29 15,0 33,-11 54,-32 22,-22 43,-48 65,-78 21,-30 41,-59 58,-86 17,-28 29,-48 36,-61 36,-66 71,-134 105,-202 2,-5 6,-8 10,-10 2,-1 5,-1 7,-1 3,0 6,1 9,2 4,3 7,7 9,12 1,2 1,4 1,6 0,3 0,5 -2,8 -33,69 -68,137 -105,203 -20,38 -47,84 -79,137 -33,53 -65,96 -97,128 -15,15 -32,27 -51,38 -18,10 -37,15 -56,15 -22,0 -43,-5 -63,-16 -29,-19 -50,-46 -62,-81 -13,-35 -21,-69 -25,-102 -5,-43 -7,-87 -7,-131 0,-56 1,-104 2,-141 0,-19 1,-56 3,-112 1,-55 2,-106 2,-153 -1,-24 -3,-48 -6,-72 -2,-8 -3,-16 -5,-24 -1,-4 -2,-7 -4,-11 -2,-3 -5,-5 -9,-5 -11,0 -28,19 -50,56 -16,30 -31,62 -43,93 -15,36 -28,72 -40,109 -9,26 -17,51 -25,76 -5,16 -11,32 -16,48 -12,37 -25,73 -39,109 -5,11 -14,17 -26,17 -26,0 -50,-4 -71,-12 -21,-9 -32,-23 -33,-43 -5,-128 -14,-255 -28,-382 -7,-63 -16,-125 -28,-187 -4,-21 -8,-43 -13,-64 -5,-19 -11,-37 -18,-56 -1,-5 -4,-11 -8,-17 -3,-6 -8,-9 -14,-9 -8,0 -17,9 -27,29 -10,19 -19,40 -26,62 -18,53 -32,107 -43,161 -13,62 -23,125 -32,187 -15,109 -27,202 -35,279 -8,77 -14,134 -18,170 -2,14 -4,29 -6,44 -2,10 -4,21 -7,31 -4,13 -13,19 -26,19 -20,0 -49,-6 -86,-19 -28,-12 -44,-35 -47,-70 -4,-27 -6,-53 -7,-79 -2,-32 -4,-76 -7,-131 -2,-55 -5,-118 -10,-190 -4,-45 -10,-91 -17,-137 -6,-42 -15,-83 -27,-123 -12,-43 -32,-82 -59,-117 -7,-8 -15,-15 -24,-20 -10,-6 -20,-9 -31,-9 -22,0 -40,9 -53,27 -15,19 -26,39 -33,62 -17,46 -25,94 -25,143l0 15c0,54 9,107 27,158 6,17 15,34 26,51 11,17 25,30 42,37 7,4 12,9 14,15 2,3 3,7 3,10 0,3 -1,7 -3,11 -3,6 -8,11 -14,14 -3,1 -6,1 -10,1 -3,0 -7,0 -10,-1 -25,-11 -45,-28 -61,-50 -15,-21 -28,-45 -37,-69 -20,-58 -31,-118 -31,-180l0 -4c0,-34 4,-70 11,-108 7,-38 20,-74 38,-106 18,-33 42,-59 73,-77 25,-14 50,-21 78,-21 31,0 58,7 81,20 34,19 60,45 80,78 20,34 35,68 46,104 14,46 24,94 31,142 7,43 12,86 15,130 5,66 9,131 11,196 1,35 4,85 8,149z"/>
  <path id="17" class="fil0" d="M5903 2707c-5,19 -12,41 -21,64 -10,23 -22,45 -37,66 -16,21 -35,39 -60,52 -24,14 -54,21 -89,21 -21,0 -41,-5 -58,-15 -18,-9 -33,-23 -46,-40 -16,-22 -27,-46 -33,-71 -6,-24 -9,-50 -9,-78 0,-27 5,-56 16,-86 10,-31 24,-57 42,-80 23,-29 51,-50 83,-65 32,-14 66,-21 103,-21 24,0 45,2 62,7 21,7 43,15 66,24 10,-3 21,-5 31,-5 12,0 24,2 37,7 7,3 15,7 21,14 6,6 10,14 10,23 -1,19 -2,39 -2,59l0 20c0,31 2,61 4,92 3,32 8,64 16,96 4,16 11,31 20,45 3,4 6,7 11,10 4,4 8,5 14,5 8,0 15,-3 23,-10 8,-7 14,-14 19,-20 26,-33 52,-71 77,-115 25,-44 47,-85 64,-123 2,-5 6,-8 11,-10 2,-1 4,-1 6,-1 3,0 5,0 8,2 5,2 9,6 10,10 2,3 2,6 2,8 0,3 0,5 -2,8l-15 32c-17,39 -34,76 -53,111 -18,36 -42,72 -70,107 -10,14 -22,27 -35,40 -13,13 -28,24 -43,33 -16,9 -33,13 -50,13 -24,0 -44,-8 -60,-24 -16,-16 -28,-35 -38,-56 -9,-22 -16,-43 -21,-64 -6,-28 -11,-57 -14,-85zm-14 -87c6,-20 9,-51 10,-92 -26,-13 -48,-20 -66,-20 -24,0 -48,7 -69,22 -23,14 -40,32 -54,51 -12,17 -21,37 -28,60 -7,24 -11,45 -11,65 0,19 2,37 5,54 4,17 9,33 18,50 9,22 25,33 46,33 27,-1 50,-15 70,-41 19,-26 35,-56 48,-91 13,-34 24,-65 31,-91z"/>
  <path id="18" class="fil0" d="M6435 2624c19,4 39,6 58,6 8,0 14,3 19,9 4,5 6,10 6,15 0,2 0,4 -1,6 -16,72 -27,145 -35,220 -3,31 -5,62 -5,92 0,10 0,19 1,29 1,14 2,29 3,43 2,9 3,18 5,27 1,7 3,15 5,22 1,2 2,4 4,8 1,3 2,5 4,8 2,2 4,3 7,3 3,0 7,-2 11,-7 3,-4 7,-9 9,-12l2 -4c7,-9 13,-18 19,-27 31,-50 62,-109 91,-179 30,-69 55,-132 75,-189l20 -57 5 -15c1,-2 2,-4 2,-5 5,-15 10,-30 16,-44 2,-5 5,-9 10,-10 2,-2 5,-2 8,-2 2,0 4,0 7,1 5,2 9,5 11,10 1,2 2,4 2,7 0,2 -1,5 -2,7 -5,15 -10,29 -16,43 0,2 0,4 -1,6l-5 15 -21 57 -21 62c-18,53 -37,107 -59,161 -22,53 -49,106 -81,158 -9,13 -19,28 -31,43 -12,15 -26,28 -41,39 -15,11 -31,17 -48,17 -18,0 -35,-5 -50,-14 -20,-13 -35,-31 -45,-54 -9,-24 -15,-49 -18,-75 -3,-27 -4,-51 -4,-72 0,-32 2,-64 5,-97 7,-71 19,-141 33,-211 -19,-5 -39,-12 -57,-20 -27,-10 -51,-26 -73,-46 -29,-27 -44,-60 -44,-97 0,-45 16,-99 47,-164 5,-10 12,-16 23,-16 18,0 37,3 56,9 7,2 14,5 21,9 7,4 11,9 14,15 -40,63 -60,118 -63,163 0,50 41,86 122,107z"/>
  <path id="19" class="fil0" d="M6731 2484l-97 -5c-7,0 -13,-3 -17,-8 -4,-4 -6,-10 -7,-17 1,-7 4,-12 9,-16 4,-5 9,-7 16,-7l2 0 110 5c17,-47 41,-90 71,-131 5,-6 11,-9 19,-9 9,0 19,0 29,1 9,1 19,3 28,6 9,4 16,9 21,15 4,5 6,11 6,17 0,3 0,5 0,8 -1,3 -3,6 -5,9 -18,28 -35,59 -47,91l100 5c6,0 12,3 16,8 4,4 6,10 6,17 0,7 -3,13 -8,17 -4,4 -10,6 -17,6l-114 -5c-17,59 -26,119 -26,180 0,31 2,62 7,94 5,31 12,62 23,91 6,15 15,30 26,44 11,14 25,23 41,28 4,0 7,1 11,1 11,0 21,-3 31,-9 10,-5 18,-12 26,-20 33,-33 63,-69 88,-108 25,-39 48,-80 68,-124 15,-31 28,-63 41,-95 2,-5 6,-9 10,-10 3,-2 5,-2 8,-2 3,0 5,0 7,1 5,2 9,5 11,10 1,2 2,4 2,7 0,2 -1,5 -2,7 -12,34 -27,67 -42,99 -13,28 -29,61 -49,97 -20,36 -42,70 -67,104 -25,34 -52,62 -82,84 -29,22 -61,33 -94,33 -14,0 -27,-2 -40,-6 -27,-10 -50,-26 -68,-48 -17,-22 -31,-46 -42,-72 -13,-33 -22,-66 -27,-101 -6,-36 -8,-70 -8,-105 0,-63 8,-125 26,-187z"/>
  <path id="20" class="fil0" d="M7544 2598c-16,59 -34,119 -52,178 -19,59 -42,116 -69,172 -18,39 -40,75 -67,108 -7,9 -14,16 -23,23 -15,13 -32,20 -52,20l-4 0c-25,-4 -46,-18 -62,-42 -17,-25 -29,-52 -39,-82 -9,-30 -15,-57 -19,-78 -11,-60 -17,-120 -19,-181 0,-16 0,-31 0,-46 0,-53 3,-105 8,-157 1,-7 4,-12 8,-16 5,-4 10,-6 16,-6 20,0 41,4 62,11 5,3 10,6 14,9 13,7 19,18 19,32 -5,41 -7,82 -7,123 0,11 1,21 1,31 1,54 5,107 12,159 2,11 4,21 7,32 3,17 7,35 11,52 3,10 5,20 8,30 3,9 6,17 10,26 2,6 6,12 9,17 1,1 1,2 3,3 1,1 2,2 3,2 1,0 1,-1 2,-1 1,0 1,0 2,-1 0,0 1,0 1,-1 3,-3 6,-6 8,-9 7,-10 14,-20 19,-31 9,-16 18,-32 26,-48 52,-109 94,-222 127,-339 1,-6 4,-10 8,-12 3,-2 7,-3 11,-3 1,0 3,0 5,1 5,1 8,5 11,9 2,3 3,6 3,10 0,1 -1,3 -1,5zm-241 -272c0,11 -1,23 -3,39 -3,15 -7,29 -14,41 -7,12 -16,18 -28,18 -11,0 -25,-1 -40,-2 -16,-2 -30,-6 -43,-12 -12,-6 -18,-16 -18,-30 0,-11 1,-24 4,-39 3,-14 8,-27 15,-37 8,-11 19,-16 32,-16 10,0 22,1 37,2 15,1 29,5 40,10 12,6 18,14 18,26z"/>
  <path id="21" class="fil0" d="M7621 2739c6,-17 13,-34 20,-51 19,-50 43,-98 72,-143 6,-10 14,-21 23,-32 9,-11 20,-21 31,-29 11,-8 23,-12 36,-12 8,0 15,2 22,5 23,13 38,34 43,64 6,31 9,67 10,110 0,28 -1,56 -3,83 -2,34 -5,74 -9,121 -5,47 -7,83 -8,107 0,18 2,37 5,58 3,21 8,32 15,32 21,-1 61,-76 120,-227 59,-151 91,-231 95,-240 3,-5 6,-8 11,-10 2,-1 4,-1 6,-1 3,0 6,1 9,2 5,3 8,6 10,11 1,2 1,4 1,6 0,3 -1,6 -2,9 -5,9 -34,84 -89,226 -55,142 -98,231 -129,267 -32,35 -62,53 -91,53 -9,0 -17,-2 -26,-5 -23,-13 -38,-34 -45,-65 -7,-30 -10,-58 -10,-82 0,-16 -1,-32 -1,-48 0,-21 1,-42 2,-63 2,-16 5,-49 9,-98 5,-50 7,-98 8,-146 0,-16 0,-32 -1,-47 0,-5 -2,-8 -5,-8 -4,0 -8,3 -11,9 -21,35 -38,73 -53,111 -13,30 -24,61 -35,93 -8,25 -15,51 -20,78 0,0 0,1 -1,1 -1,6 -4,11 -8,14 -5,3 -10,5 -15,5 -21,0 -42,-3 -61,-11 -9,-2 -17,-7 -24,-13 -8,-6 -12,-13 -13,-23 -2,-43 -6,-85 -11,-127 -3,-24 -7,-48 -12,-72 -3,-14 -7,-27 -12,-41 -3,-10 -7,-20 -13,-29 -3,-5 -5,-9 -5,-14 0,-3 1,-5 1,-8 3,-8 9,-14 17,-16 13,-3 26,-5 40,-5 15,0 31,4 45,11 5,3 10,6 14,10 5,4 9,8 11,13 9,21 16,43 21,65 5,27 10,53 13,80 1,7 2,14 3,22z"/>
  <path id="22" class="fil0" d="M8174 2719c5,42 14,82 27,122 5,12 10,25 16,37 3,7 7,13 13,19 5,6 11,8 19,8 8,0 16,-2 23,-7 8,-4 14,-9 20,-15 40,-39 78,-85 114,-136 37,-52 71,-102 103,-150 3,-5 5,-9 8,-14 3,-4 7,-7 12,-8l4 -1c4,0 7,1 11,4 5,3 7,7 8,12 0,2 1,3 1,5 0,3 -1,6 -4,10 -16,25 -32,50 -48,76 -26,42 -53,84 -81,124 -28,41 -59,78 -94,112 -17,17 -36,33 -58,47 -22,15 -45,22 -70,22 -18,0 -34,-5 -48,-16 -14,-10 -25,-23 -35,-38 -10,-15 -18,-30 -24,-45 -26,-62 -42,-127 -46,-195 -1,-10 -2,-21 -2,-31 -1,-7 -1,-14 -1,-21 0,-24 2,-50 5,-78 4,-36 13,-70 26,-102 14,-32 35,-57 64,-73 17,-9 35,-13 54,-13 26,0 50,8 72,23 22,19 38,43 46,73 8,30 12,58 12,86 0,26 -3,52 -11,78 -7,26 -22,48 -44,64 -24,15 -50,22 -78,22 -4,0 -9,0 -14,-1zm-5 -48c5,0 10,0 15,0 7,0 14,0 21,-1 12,-1 23,-5 33,-12 15,-11 24,-27 28,-47 5,-20 7,-38 7,-55 0,-16 -2,-34 -5,-52 -3,-18 -9,-34 -18,-49 -2,-4 -5,-7 -9,-10 -3,-2 -7,-4 -12,-4 -3,0 -7,1 -10,4 -3,2 -6,5 -8,8 -12,17 -21,36 -27,56 -11,40 -16,81 -16,123 0,9 0,18 1,27 0,4 0,8 0,12z"/>
  <path id="23" class="fil0" d="M8807 2938c19,14 36,31 51,50 39,52 59,108 59,170 0,33 -8,64 -26,93 -17,26 -38,45 -65,57 -26,13 -54,19 -84,19 -34,0 -60,-9 -79,-28 -19,-19 -29,-45 -29,-79 0,-19 3,-39 9,-59 5,-20 12,-39 19,-56 9,-23 20,-46 31,-68 12,-22 25,-44 37,-66 -20,-11 -41,-19 -63,-24 -22,-5 -45,-8 -68,-8 -7,0 -13,-3 -17,-8 -5,-4 -7,-10 -7,-16l0 -3c4,-29 10,-58 17,-87 11,-39 24,-77 39,-114 11,-26 25,-51 40,-75 -4,0 -8,0 -11,-1 -30,-1 -60,-7 -88,-17 -26,-8 -48,-20 -67,-37 -18,-17 -32,-38 -40,-64 0,-2 -1,-4 -1,-6 0,-4 1,-9 4,-12 2,-6 7,-10 13,-13 4,-2 8,-3 12,-3 11,-2 22,-3 33,-3 6,0 12,2 17,7 5,4 7,10 7,17 0,6 1,13 4,19 9,15 24,27 45,35 21,8 40,14 57,18 44,8 88,13 134,13 10,0 17,5 22,14 1,4 2,7 2,11 0,5 -2,10 -6,15 -24,31 -44,65 -59,102 -15,35 -27,70 -38,107 -4,18 -8,36 -11,54 5,1 10,2 15,3 18,4 35,10 51,18 80,-120 170,-235 269,-345 4,-4 8,-6 13,-6l2 0c4,0 8,1 12,4 4,4 7,9 7,14 0,5 -2,10 -5,14 -96,110 -181,224 -257,344zm-37 61c-3,5 -5,10 -8,14 -21,36 -40,73 -56,112 -6,15 -11,30 -16,47 -5,16 -7,33 -7,48 0,14 3,26 10,38 8,12 18,18 34,18 38,0 67,-11 85,-31 19,-20 28,-50 28,-87 0,-34 -8,-66 -23,-98 -12,-23 -27,-43 -47,-61z"/>
 </g>
</svg>
