<?xml version="1.0" encoding="UTF-8"?>
<!DOCTYPE svg PUBLIC "-//W3C//DTD SVG 1.1//EN" "http://www.w3.org/Graphics/SVG/1.1/DTD/svg11.dtd">
<!-- Creator: CorelDRAW X8 -->
<svg xmlns="http://www.w3.org/2000/svg" xml:space="preserve" width="60.9763mm" height="36.2226mm" version="1.1" style="shape-rendering:geometricPrecision; text-rendering:geometricPrecision; image-rendering:optimizeQuality; fill-rule:evenodd; clip-rule:evenodd"
viewBox="0 0 4422 2627"
 xmlns:xlink="http://www.w3.org/1999/xlink">
 <defs>
  <style type="text/css">
   <![CDATA[
    .fil0 {fill:white;fill-rule:nonzero}
   ]]>
  </style>
 </defs>
 <g id="Capa_x0020_1">
  <metadata id="CorelCorpID_0Corel-Layer"/>
  <path class="fil0" d="M206 333c-13,-13 -27,-26 -42,-38 -4,-3 -8,-6 -11,-9 -16,-12 -30,-25 -45,-38 -14,-13 -27,-28 -38,-44 -17,-27 -26,-57 -26,-90 0,-20 3,-38 11,-54 7,-17 19,-30 36,-41 11,-7 22,-11 34,-14 12,-3 24,-5 37,-5 19,0 38,5 56,15 20,12 35,28 45,49 10,20 15,41 16,64l0 1c0,4 -1,6 -3,9 -3,2 -6,4 -9,4 -4,0 -7,-1 -10,-4 -2,-2 -3,-5 -4,-9 0,-14 -3,-28 -8,-42 -5,-14 -13,-26 -23,-36 -6,-6 -12,-11 -19,-14 -7,-4 -15,-5 -23,-5 -7,0 -15,1 -23,3 -8,2 -14,5 -20,9 -11,9 -19,19 -23,31 -5,12 -7,25 -7,39 0,17 4,33 12,49 5,10 12,21 21,30 8,9 17,18 27,26 10,9 21,18 32,27 12,9 24,19 35,30 18,15 34,32 48,51l11 0c20,0 43,1 70,4 31,3 57,7 79,11 3,0 5,2 6,4 1,1 2,3 2,4 0,1 -1,2 -1,3 0,2 -1,4 -4,6 -1,1 -3,1 -4,1 -1,0 -2,0 -3,0 -25,-5 -46,-7 -63,-8 -9,-1 -19,-1 -29,-1 -8,0 -15,0 -23,0 -8,1 -16,1 -25,1 16,31 24,64 24,100 0,37 -8,67 -23,89 -15,22 -37,39 -63,49 -27,10 -57,15 -91,15 -27,0 -51,-5 -73,-14 -22,-9 -39,-23 -52,-42 -13,-18 -20,-42 -20,-70 0,-16 3,-31 10,-45 11,-22 27,-40 49,-54 22,-13 46,-24 73,-31 26,-8 50,-13 74,-16zm20 23c-13,2 -27,4 -41,7 -15,4 -31,8 -46,13 -11,4 -23,9 -35,15 -12,7 -23,14 -33,22 -10,8 -18,18 -24,29 -6,11 -10,23 -10,37 0,14 3,27 8,39 5,12 13,22 24,31 10,9 22,15 35,19 13,4 26,6 39,6 20,0 39,-4 57,-13 20,-12 35,-27 45,-46 9,-19 14,-40 14,-63 0,-36 -11,-67 -32,-95 0,0 0,0 -1,-1z"/>
  <path id="1" class="fil0" d="M578 407c-3,9 -6,19 -11,31 -4,11 -10,21 -18,32 -7,10 -17,18 -28,25 -12,6 -26,10 -44,10 -10,0 -19,-3 -28,-7 -8,-5 -16,-11 -22,-20 -7,-11 -13,-22 -16,-34 -3,-12 -4,-24 -4,-38 0,-13 2,-27 7,-42 5,-14 12,-27 21,-38 11,-14 24,-24 40,-31 15,-7 32,-11 50,-11 11,0 21,1 30,4 10,3 21,7 32,11 5,-1 10,-2 15,-2 6,0 11,1 17,3 4,2 8,4 11,7 3,3 4,7 4,11 0,10 0,19 0,29l0 9c0,15 0,30 1,45 2,15 5,31 8,46 2,8 5,15 10,22 1,2 3,4 5,5 2,2 4,2 7,2 4,0 7,-1 11,-5 4,-3 7,-6 10,-9 12,-16 24,-35 37,-56 12,-21 22,-41 30,-59 2,-3 3,-4 6,-5 1,0 2,-1 3,-1 1,0 2,1 4,1 2,2 4,3 5,6 0,1 0,2 0,3 0,1 0,3 0,4l-8 16c-8,18 -16,36 -25,53 -9,18 -21,35 -34,52 -5,6 -11,13 -17,19 -7,6 -14,12 -21,16 -8,4 -16,7 -24,7 -12,0 -22,-4 -29,-12 -8,-8 -14,-17 -19,-27 -4,-11 -7,-21 -10,-31 -3,-14 -5,-28 -6,-41zm-7 -42c3,-10 4,-25 4,-45 -12,-6 -23,-9 -31,-9 -12,0 -23,3 -34,10 -11,7 -19,15 -26,25 -5,8 -10,18 -13,29 -4,11 -6,22 -6,31 0,9 1,18 3,26 2,8 4,17 8,25 5,10 12,15 23,15 13,0 24,-7 33,-19 10,-13 18,-28 24,-44 6,-17 11,-32 15,-44z"/>
  <path id="2" class="fil0" d="M808 422c3,-8 6,-16 10,-24 9,-25 21,-48 35,-70 3,-5 6,-10 11,-15 4,-5 9,-10 15,-14 5,-4 11,-6 17,-6 4,0 8,1 11,3 11,6 18,16 21,31 3,14 4,32 4,53 0,13 0,27 -1,40 -1,16 -2,35 -5,58 -2,23 -3,40 -3,52 0,9 1,18 2,28 2,10 4,15 7,15 11,0 30,-36 59,-109 28,-73 43,-112 45,-116 2,-3 3,-4 6,-5 1,0 2,-1 3,-1 1,0 2,1 4,2 2,1 4,2 5,5 0,1 0,2 0,3 0,1 0,3 -1,4 -2,4 -16,41 -43,109 -26,69 -47,112 -62,129 -15,17 -30,26 -44,26 -4,0 -9,-1 -12,-2 -12,-7 -19,-17 -22,-32 -4,-15 -5,-28 -5,-40 0,-7 -1,-15 -1,-23 0,-10 1,-20 1,-30 1,-8 3,-24 5,-48 2,-24 3,-47 4,-70 0,-8 -1,-15 -1,-23 0,-2 -1,-4 -2,-4 -2,0 -4,2 -6,4 -10,18 -18,36 -26,54 -6,15 -11,30 -16,45 -4,13 -7,25 -10,38 0,0 0,0 0,1 -1,2 -2,5 -4,6 -3,2 -5,2 -8,3 -10,0 -20,-2 -29,-6 -4,-1 -8,-3 -12,-6 -3,-3 -5,-7 -6,-11 -1,-21 -3,-41 -5,-61 -2,-12 -4,-24 -6,-35 -2,-7 -3,-13 -6,-20 -1,-5 -3,-10 -6,-14 -2,-2 -2,-5 -2,-7 0,-1 0,-3 0,-4 2,-4 4,-6 8,-8 6,-1 13,-2 19,-2 8,0 15,2 22,5 3,2 5,3 7,5 2,2 4,4 5,6 5,11 8,21 10,32 3,13 5,26 7,38 0,4 1,8 1,11z"/>
  <path id="3" class="fil0" d="M1132 326c-5,-31 -9,-62 -12,-93 -1,-13 -1,-26 -1,-39 0,-13 1,-28 3,-45 3,-18 7,-34 14,-49 8,-15 18,-25 32,-31 6,-3 12,-4 18,-4 6,0 11,1 17,4 13,5 23,16 29,30 6,14 10,30 12,47 2,17 3,31 3,43 0,26 -2,52 -6,79 -4,35 -11,70 -19,104 -3,11 -6,21 -9,32 7,20 18,38 32,54 3,2 6,5 9,7 4,1 7,2 11,2 9,0 17,-4 26,-12 9,-9 17,-19 26,-31 8,-13 15,-25 22,-37 7,-13 12,-23 17,-32l3 -7c1,-2 3,-4 6,-4 1,-1 2,-1 2,-1 2,0 3,0 5,1 2,1 4,3 5,6 0,0 0,1 0,2 0,2 0,3 -1,5l-7 13c-6,12 -13,26 -21,40 -8,15 -17,29 -27,43 -10,14 -21,25 -33,34 -11,9 -24,13 -37,13 -13,0 -25,-3 -35,-9 -10,-5 -20,-13 -28,-23 -7,14 -15,28 -25,41 -10,13 -21,24 -34,33 -13,8 -29,13 -46,13 -28,0 -50,-9 -65,-27 -16,-18 -24,-45 -24,-81 0,-38 9,-68 27,-91 18,-23 44,-34 79,-34 11,0 21,1 32,4zm41 120c-9,-15 -16,-31 -22,-48 -5,-15 -10,-30 -13,-46 -11,-3 -21,-5 -30,-5 -15,0 -28,8 -39,26 -11,17 -16,44 -16,80 0,25 4,44 13,55 8,12 19,18 31,18 10,0 19,-3 27,-9 11,-9 20,-20 28,-32 8,-13 15,-26 21,-39zm27 -82c0,-2 0,-3 1,-4 7,-32 13,-64 17,-96 2,-14 3,-28 4,-42 1,-11 1,-22 1,-33 0,-11 0,-23 -1,-34 -2,-12 -4,-23 -7,-34 -1,-2 -1,-4 -2,-7 -1,-2 -3,-4 -4,-6 -2,-2 -4,-3 -6,-3 -1,0 -3,0 -5,2 -2,1 -3,3 -4,4 -4,5 -7,11 -8,17 -3,10 -6,22 -7,33 -1,11 -2,23 -2,33 0,21 1,42 4,63 2,27 6,53 12,79 2,9 4,18 7,28z"/>
  <path id="4" class="fil0" d="M1440 367c10,2 19,2 29,2 3,0 6,2 9,5 2,2 3,5 3,7 0,1 -1,2 -1,3 -7,35 -13,70 -17,106 -1,15 -2,30 -2,45 0,5 0,9 0,14 0,7 1,14 2,21 0,4 1,8 2,13 1,3 2,7 3,10 0,1 1,2 1,4 1,2 2,3 3,4 1,1 2,2 3,2 1,0 3,-1 5,-4 2,-2 3,-4 4,-6l1 -2c4,-4 7,-8 10,-13 15,-24 29,-52 44,-86 14,-33 26,-64 36,-91l9 -28 3 -7c0,-1 1,-2 1,-3 2,-7 5,-14 7,-21 2,-2 3,-4 5,-5 2,-1 3,-1 4,-1 1,0 2,0 4,1 2,1 4,2 5,4 0,1 1,3 1,4 0,1 -1,2 -1,3 -3,7 -5,14 -8,21 0,1 0,2 0,3l-3 7 -10 28 -10 30c-8,26 -18,51 -28,77 -11,26 -24,52 -40,77 -4,6 -9,13 -15,21 -5,7 -12,13 -19,19 -8,5 -15,8 -24,8 -8,0 -16,-3 -24,-7 -9,-6 -17,-15 -21,-26 -5,-12 -8,-24 -9,-36 -2,-13 -2,-25 -2,-35 0,-16 1,-31 2,-47 4,-34 9,-68 16,-102 -9,-3 -18,-6 -27,-10 -14,-5 -25,-12 -35,-22 -15,-13 -22,-29 -22,-47 0,-21 8,-48 23,-79 2,-5 6,-8 11,-8 9,0 18,2 27,5 4,1 7,2 10,4 3,2 6,4 7,7 -19,31 -29,57 -31,79 0,24 20,41 59,52z"/>
  <path id="5" class="fil0" d="M1741 407c-2,9 -5,19 -10,31 -4,11 -10,21 -18,32 -7,10 -17,18 -28,25 -12,6 -27,10 -44,10 -10,0 -19,-3 -28,-7 -8,-5 -16,-11 -22,-20 -8,-11 -13,-22 -16,-34 -3,-12 -4,-24 -4,-38 0,-13 2,-27 7,-42 5,-14 12,-27 21,-38 11,-14 24,-24 40,-31 15,-7 32,-11 50,-11 11,0 21,1 30,4 10,3 20,7 32,11 5,-1 10,-2 14,-2 6,0 12,1 18,3 4,2 7,4 11,7 3,3 4,7 4,11 0,10 0,19 0,29l0 9c0,15 0,30 1,45 2,15 4,31 8,46 2,8 5,15 10,22 1,2 3,4 5,5 2,2 4,2 7,2 3,0 7,-1 11,-5 4,-3 7,-6 9,-9 13,-16 25,-35 37,-56 13,-21 23,-41 31,-59 1,-3 3,-4 5,-5 2,0 2,-1 4,-1 1,0 2,1 3,1 3,2 5,3 5,6 1,1 1,2 1,3 0,1 0,3 -1,4l-7 16c-8,18 -17,36 -26,53 -8,18 -20,35 -33,52 -5,6 -11,13 -17,19 -7,6 -14,12 -21,16 -8,4 -16,7 -24,7 -12,0 -22,-4 -29,-12 -8,-8 -14,-17 -19,-27 -4,-11 -8,-21 -10,-31 -3,-14 -5,-28 -7,-41zm-6 -42c2,-10 4,-25 4,-45 -12,-6 -23,-9 -32,-9 -11,0 -22,3 -33,10 -11,7 -19,15 -26,25 -6,8 -10,18 -14,29 -3,11 -5,22 -5,31 0,9 1,18 3,26 1,8 4,17 8,25 5,10 12,15 22,15 13,0 25,-7 34,-19 10,-13 17,-28 24,-44 6,-17 11,-32 15,-44z"/>
  <path id="6" class="fil0" d="M2161 409c5,0 11,-1 17,-3 19,-8 35,-21 49,-39 14,-18 26,-37 36,-59 10,-21 18,-41 25,-60 2,-6 7,-8 15,-8 7,0 16,0 26,1 11,2 19,7 23,14 11,26 19,53 24,82 3,17 6,34 8,51 24,-10 52,-20 82,-29l30 -11c1,0 2,0 3,0 1,0 3,0 4,1 2,1 4,3 5,6 0,1 0,2 0,3 0,1 0,2 -1,4 -1,2 -3,3 -5,4 -34,12 -64,25 -91,38 -8,3 -16,7 -25,11 1,10 1,19 1,28 0,21 -2,44 -5,67 -3,24 -9,47 -18,68 -9,21 -21,39 -38,54 -13,11 -27,19 -43,24 -15,4 -31,7 -47,7 -13,0 -26,-3 -37,-9 -11,-6 -21,-13 -28,-24 -7,-10 -10,-22 -10,-35 0,-21 5,-40 16,-57 10,-18 24,-35 41,-50 17,-15 34,-28 53,-40 18,-12 35,-22 52,-30 -2,-28 -5,-56 -11,-83 -3,-15 -7,-30 -12,-46 -11,28 -26,56 -44,83 -18,26 -41,46 -68,59 -16,6 -31,9 -47,9 -12,0 -24,-2 -35,-7 -16,-6 -28,-17 -37,-30 -8,-14 -14,-29 -17,-46 -3,-17 -5,-33 -5,-48 0,-24 2,-47 6,-70 4,-24 11,-47 20,-68 8,-20 19,-38 31,-54 13,-17 28,-31 45,-43 30,-19 61,-28 96,-28 15,0 29,3 44,10 14,7 26,16 35,28 9,12 14,27 14,43 0,5 -1,11 -2,16 -1,5 -2,10 -5,15 -2,3 -4,5 -7,6 -2,1 -3,1 -4,1 -2,0 -4,-1 -6,-2 -3,-1 -6,-4 -7,-7 0,-1 0,-2 0,-4 0,-2 1,-4 2,-6 1,-3 2,-6 2,-9 1,-4 1,-7 1,-10 0,-11 -3,-21 -10,-30 -7,-8 -16,-14 -26,-18 -11,-5 -21,-7 -31,-7 -14,0 -28,3 -40,9 -23,13 -41,33 -55,59 -14,27 -24,56 -30,87 -7,31 -10,58 -10,82 0,12 1,26 4,40 2,14 7,28 14,40 7,13 18,20 33,20zm163 37c-14,8 -29,17 -44,27 -16,10 -31,22 -45,34 -14,13 -26,27 -35,42 -9,14 -14,30 -14,46 0,8 3,16 8,22 4,7 11,11 18,15 8,3 15,5 24,5 13,0 25,-4 36,-12 10,-7 18,-17 23,-28 6,-12 11,-24 14,-35 10,-36 15,-75 15,-116z"/>
  <path id="7" class="fil0" d="M2662 354c-8,29 -16,57 -25,86 -10,29 -21,56 -34,83 -8,19 -19,36 -32,53 -3,4 -7,7 -11,10 -7,7 -16,10 -25,10l-2 0c-12,-2 -22,-8 -30,-20 -8,-12 -14,-25 -19,-40 -4,-14 -7,-27 -9,-38 -6,-28 -8,-58 -9,-87 0,-8 0,-15 0,-22 0,-26 1,-51 4,-76 0,-3 1,-6 4,-8 2,-2 4,-3 7,-3 10,0 20,2 30,6 2,1 5,2 7,4 6,3 9,9 9,15 -2,20 -3,40 -3,60 0,5 0,10 0,15 0,26 3,51 6,77 1,5 2,10 3,15 2,9 4,17 6,25 1,5 2,10 4,15 1,4 3,8 4,12 2,3 3,6 5,8 0,1 0,2 1,2 1,1 1,1 2,1 0,0 0,0 1,0 0,0 0,0 0,-1 1,0 1,0 1,0 2,-2 3,-3 4,-5 3,-5 7,-10 9,-15 5,-7 9,-15 13,-23 25,-53 45,-107 61,-164 1,-3 2,-5 4,-6 2,-1 3,-1 5,-1 1,0 2,0 2,0 3,1 5,3 6,5 1,1 1,3 1,4 0,1 0,2 0,3zm-116 -131c0,5 -1,11 -2,18 -1,8 -3,14 -7,20 -3,6 -8,9 -13,9 -6,0 -12,-1 -20,-1 -8,-1 -14,-3 -20,-6 -6,-3 -9,-8 -9,-15 0,-5 0,-11 2,-18 1,-7 4,-13 7,-18 4,-5 9,-8 16,-8 4,0 10,1 18,1 7,1 13,2 19,5 6,3 9,7 9,13z"/>
  <path id="8" class="fil0" d="M2773 442c-8,1 -16,2 -23,2 -13,0 -23,-4 -32,-10 -8,-6 -15,-15 -19,-25 -4,-10 -6,-21 -6,-32 0,-18 5,-32 14,-44 10,-12 24,-18 42,-18 9,0 17,2 24,8 8,5 13,12 17,21 4,8 7,18 8,27 2,10 3,19 3,28 0,4 -1,8 -1,13 17,-6 31,-11 41,-15 11,-5 23,-14 39,-25 14,-10 26,-22 38,-33 2,-2 4,-3 6,-3 3,0 5,1 7,2 2,2 3,5 3,7 0,3 -1,5 -3,7 -11,11 -23,22 -37,32 -15,12 -30,23 -45,31 -15,9 -32,17 -52,22 -3,20 -9,40 -19,61 -10,20 -25,34 -44,43 -8,2 -15,4 -23,4 -9,0 -18,-2 -27,-5 -11,-5 -20,-12 -28,-20 -8,-9 -15,-18 -20,-29 -11,-24 -17,-48 -17,-73 0,-22 5,-43 14,-62 9,-19 22,-34 39,-46 16,-12 36,-18 60,-18l0 0c3,1 6,3 8,6 1,2 2,4 2,6 0,1 0,2 -1,2 0,3 -2,5 -4,7 -2,2 -4,3 -7,3 -12,0 -21,3 -28,10 -7,8 -12,17 -15,28 -4,11 -6,22 -7,34 -1,12 -2,22 -2,30 0,6 1,15 2,25 2,11 4,21 7,32 4,10 9,19 14,27 6,7 14,11 22,11 8,0 15,-3 20,-9 6,-6 11,-12 14,-18 7,-14 12,-29 16,-44zm3 -24c1,-7 1,-13 1,-19 0,-4 0,-9 -1,-16 0,-7 -2,-13 -3,-20 -2,-6 -5,-12 -8,-17 -4,-4 -8,-6 -13,-6 -7,0 -11,2 -15,6 -3,4 -6,9 -7,15 -2,6 -2,11 -2,16 0,6 1,12 3,19 1,6 5,12 9,17 4,4 10,7 17,7 7,0 13,-1 19,-2z"/>
  <path id="9" class="fil0" d="M3078 372c9,1 18,2 28,2 12,0 24,-1 36,-4 21,-6 40,-15 57,-29 2,-1 4,-2 6,-2l1 0c2,0 4,1 6,3 1,2 2,4 2,6l0 1c0,2 -1,5 -3,6 -18,15 -40,26 -67,34 -19,5 -37,8 -55,8 -7,0 -14,0 -21,-1 -1,3 -3,7 -5,10 -12,27 -27,52 -44,75 -6,9 -13,17 -20,25 -3,3 -6,6 -10,8 -4,3 -8,4 -12,4 -7,0 -13,-2 -18,-8 -6,-5 -10,-11 -14,-18 -4,-7 -7,-13 -9,-19 -12,-28 -21,-57 -28,-86 -5,-23 -10,-46 -13,-69 -1,-9 -2,-17 -3,-26 -1,-5 -1,-11 -1,-17 0,-3 0,-7 0,-10 1,-3 2,-6 4,-8 2,-2 5,-3 8,-3l7 0c10,1 19,3 28,6 4,1 8,3 12,6 4,2 6,6 7,11 0,16 2,31 4,47 3,19 7,38 12,57 5,20 10,39 16,58 4,9 7,19 11,28 1,-1 2,-2 2,-2 15,-22 29,-45 40,-69 1,-2 2,-4 3,-6 -20,-6 -36,-17 -47,-31 -11,-15 -17,-33 -17,-54 0,-10 3,-21 7,-32 4,-11 11,-20 19,-28 9,-8 19,-12 31,-12 12,0 22,4 30,11 9,7 15,16 19,27 4,11 6,22 6,32 0,10 -1,19 -3,28 -2,10 -4,19 -7,28 -2,4 -3,9 -5,13zm-22 -7c1,-4 3,-8 4,-12 3,-8 5,-16 7,-25 2,-8 3,-16 3,-25 0,-5 -1,-10 -3,-17 -1,-7 -4,-13 -8,-18 -3,-5 -8,-8 -15,-8 -2,0 -4,1 -7,2 -7,3 -12,10 -15,19 -4,9 -6,17 -6,24 0,29 13,49 40,60z"/>
  <path id="10" class="fil0" d="M3342 407c-2,9 -6,19 -10,31 -5,11 -11,21 -18,32 -8,10 -17,18 -29,25 -11,6 -26,10 -43,10 -10,0 -20,-3 -28,-7 -9,-5 -16,-11 -22,-20 -8,-11 -13,-22 -16,-34 -3,-12 -5,-24 -5,-38 0,-13 3,-27 8,-42 5,-14 12,-27 20,-38 12,-14 25,-24 40,-31 16,-7 33,-11 50,-11 12,0 22,1 30,4 10,3 21,7 32,11 5,-1 10,-2 15,-2 6,0 12,1 18,3 4,2 7,4 10,7 3,3 5,7 5,11 -1,10 -1,19 -1,29l0 9c0,15 1,30 2,45 1,15 4,31 8,46 2,8 5,15 10,22 1,2 3,4 5,5 2,2 4,2 6,2 4,0 8,-1 12,-5 4,-3 7,-6 9,-9 12,-16 25,-35 37,-56 12,-21 23,-41 31,-59 1,-3 3,-4 5,-5 1,0 2,-1 3,-1 1,0 3,1 4,1 3,2 4,3 5,6 1,1 1,2 1,3 0,1 0,3 -1,4l-7 16c-8,18 -17,36 -26,53 -9,18 -20,35 -34,52 -5,6 -10,13 -17,19 -6,6 -13,12 -21,16 -7,4 -15,7 -24,7 -11,0 -21,-4 -29,-12 -7,-8 -13,-17 -18,-27 -5,-11 -8,-21 -10,-31 -3,-14 -5,-28 -7,-41zm-7 -42c3,-10 5,-25 5,-45 -12,-6 -23,-9 -32,-9 -12,0 -23,3 -33,10 -11,7 -20,15 -26,25 -6,8 -10,18 -14,29 -3,11 -5,22 -5,31 0,9 1,18 2,26 2,8 5,17 9,25 5,10 12,15 22,15 13,0 24,-7 34,-19 9,-13 17,-28 24,-44 6,-17 11,-32 14,-44z"/>
  <path id="11" class="fil0" d="M4022 549c20,-40 35,-70 44,-91 9,-21 14,-34 16,-38 1,-3 3,-4 6,-5 1,0 1,0 2,0 2,0 3,0 5,0 2,2 4,3 5,6 0,1 0,2 0,3 0,1 0,3 -1,4 -2,4 -8,17 -17,39 -9,22 -23,52 -41,91 -18,38 -32,68 -41,89 -3,6 -7,14 -11,22 -5,8 -11,15 -17,21 -6,7 -13,10 -21,10 -4,0 -8,-1 -12,-3 -11,-6 -18,-16 -21,-31 -4,-15 -6,-28 -6,-40 0,-7 0,-15 0,-23 0,-8 1,-26 3,-53 0,-3 0,-7 1,-11 2,-28 3,-56 3,-85l0 -7c0,-8 0,-15 0,-23 0,-1 -1,-1 -1,-2 0,-1 0,-1 -1,-2l-1 0c-1,0 -2,1 -3,2 -1,1 -1,2 -2,2 -10,18 -18,36 -26,54 -6,15 -11,30 -16,45 -4,13 -8,25 -10,38 0,0 0,0 0,1 -1,2 -2,5 -5,6 -2,2 -4,2 -7,3 -10,0 -20,-2 -29,-6 -4,-1 -8,-3 -12,-6 -4,-3 -6,-7 -6,-11 -1,-21 -3,-41 -6,-61 -1,-12 -3,-24 -5,-35 -1,-6 -3,-11 -4,-16 -7,18 -13,36 -20,54 -16,47 -32,88 -48,123 -3,6 -7,14 -12,22 -4,8 -10,15 -16,21 -6,7 -13,10 -21,10 -4,0 -8,-1 -12,-3 -11,-6 -18,-16 -22,-31 -3,-15 -5,-28 -5,-40 0,-8 0,-15 0,-23 0,-10 0,-20 1,-31 1,-20 2,-40 3,-59 0,-4 1,-8 1,-12 2,-28 4,-56 4,-84l0 -8c0,-8 0,-15 0,-23 -1,-1 -1,-1 -1,-2 0,-1 -1,-1 -1,-2l-1 0c-1,0 -2,1 -3,2 -1,1 -2,2 -2,2 -10,18 -19,36 -26,54 -6,15 -12,30 -17,45 -4,13 -7,25 -9,38 0,0 -1,0 -1,1 0,2 -2,5 -4,6 -2,2 -4,2 -7,3 -10,0 -20,-2 -30,-6 -4,-1 -8,-3 -11,-6 -4,-3 -6,-7 -6,-11 -1,-21 -3,-41 -6,-61 -1,-12 -3,-24 -6,-35 -1,-7 -3,-13 -5,-20 -2,-5 -4,-10 -7,-14 -1,-2 -2,-5 -2,-7 0,-1 0,-3 1,-4 1,-4 4,-6 8,-8 6,-1 12,-2 19,-2 8,0 15,2 22,5 2,2 4,3 7,5 2,2 4,4 5,6 4,11 8,21 10,32 3,13 5,26 6,38 1,4 1,8 2,11 3,-8 6,-16 9,-24 10,-25 21,-48 35,-70 3,-5 7,-10 11,-15 5,-5 10,-10 15,-14 6,-4 12,-6 18,-6 3,0 7,1 11,2 11,7 18,17 20,32 3,14 5,27 5,39l0 14c0,13 -1,27 -2,40 0,18 -1,36 -3,54 0,2 0,4 0,6 0,2 -1,4 -1,6 -2,30 -3,60 -4,90 0,8 1,17 1,26 0,1 1,2 1,3 1,1 1,1 1,1 0,0 0,1 0,1l1 0c0,0 1,-1 2,-1 1,-1 2,-2 2,-3 20,-43 39,-87 56,-133 15,-46 26,-70 32,-71 6,-1 13,-2 19,-2 8,0 15,2 22,5 3,2 5,3 7,5 2,2 4,4 5,6 5,11 8,21 10,32 3,13 5,26 7,38 0,4 1,7 1,11 3,-8 6,-16 10,-25 9,-24 21,-47 34,-69 3,-5 7,-10 12,-15 4,-6 9,-10 15,-14 5,-4 11,-6 17,-6 4,0 8,1 11,2 11,6 18,17 21,32 3,14 4,27 4,39l0 14c0,13 0,27 -1,40 -1,18 -2,35 -3,52 -2,16 -2,27 -3,34 0,11 0,21 0,32 0,9 0,17 1,26 0,1 0,3 0,4 1,0 1,0 1,0 0,1 0,1 1,1l0 0c1,0 1,0 2,-1 1,-1 2,-2 3,-3 9,-19 23,-49 43,-88z"/>
  <path id="12" class="fil0" d="M4228 407c-3,9 -6,19 -10,31 -5,11 -11,21 -18,32 -8,10 -17,18 -29,25 -12,6 -26,10 -43,10 -11,0 -20,-3 -28,-7 -9,-5 -16,-11 -22,-20 -8,-11 -13,-22 -16,-34 -3,-12 -5,-24 -5,-38 0,-13 3,-27 8,-42 5,-14 11,-27 20,-38 11,-14 25,-24 40,-31 16,-7 32,-11 50,-11 12,0 22,1 30,4 10,3 21,7 32,11 5,-1 10,-2 15,-2 6,0 12,1 18,3 4,2 7,4 10,7 3,3 5,7 5,11 -1,10 -1,19 -1,29l0 9c0,15 1,30 2,45 1,15 4,31 8,46 2,8 5,15 10,22 1,2 2,4 4,5 2,2 5,2 7,2 4,0 8,-1 12,-5 3,-3 6,-6 9,-9 12,-16 25,-35 37,-56 12,-21 22,-41 31,-59 1,-3 3,-4 5,-5 1,0 2,-1 3,-1 1,0 3,1 4,1 2,2 4,3 5,6 1,1 1,2 1,3 0,1 0,3 -1,4l-7 16c-9,18 -17,36 -26,53 -9,18 -20,35 -34,52 -5,6 -10,13 -17,19 -6,6 -13,12 -21,16 -7,4 -15,7 -24,7 -11,0 -21,-4 -29,-12 -7,-8 -14,-17 -18,-27 -5,-11 -8,-21 -10,-31 -3,-14 -6,-28 -7,-41zm-7 -42c3,-10 4,-25 5,-45 -13,-6 -23,-9 -32,-9 -12,0 -23,3 -34,10 -10,7 -19,15 -26,25 -5,8 -10,18 -13,29 -4,11 -5,22 -5,31 0,9 1,18 2,26 2,8 5,17 9,25 4,10 12,15 22,15 13,0 24,-7 34,-19 9,-13 17,-28 23,-44 7,-17 12,-32 15,-44z"/>
  <path id="13" class="fil0" d="M114 1370c5,0 11,-2 16,-4 20,-8 36,-21 50,-39 14,-18 26,-37 36,-59 10,-21 18,-41 25,-60 2,-5 7,-8 14,-8 8,0 16,0 27,2 11,1 19,6 23,13 11,26 18,54 24,82 3,17 6,34 7,51 25,-10 53,-20 83,-29l30 -10c1,-1 2,-1 2,-1 2,0 4,1 5,1 2,1 4,3 5,6 0,1 0,2 0,3 0,1 0,2 -1,4 -1,2 -3,3 -5,5 -34,12 -64,24 -91,37 -8,4 -16,7 -25,12 0,9 1,18 1,27 0,21 -2,44 -5,68 -3,23 -9,46 -18,67 -9,21 -22,39 -38,54 -13,11 -27,19 -43,24 -15,4 -31,7 -48,7 -13,0 -25,-3 -36,-9 -12,-5 -21,-13 -28,-24 -7,-10 -10,-22 -10,-35 0,-20 5,-40 16,-57 10,-18 24,-35 41,-50 16,-15 34,-28 52,-40 19,-12 36,-22 53,-30 -2,-28 -5,-56 -11,-83 -3,-15 -7,-30 -12,-46 -11,28 -26,56 -44,83 -18,26 -41,46 -68,59 -16,6 -31,9 -47,9 -12,0 -24,-2 -35,-6 -16,-7 -28,-18 -37,-31 -9,-14 -14,-29 -17,-46 -3,-17 -5,-33 -5,-48 0,-24 2,-47 6,-70 4,-24 11,-46 20,-68 8,-20 18,-38 31,-54 13,-17 28,-31 45,-43 29,-19 61,-28 95,-28 16,0 30,4 45,10 14,7 26,16 35,28 9,13 14,27 14,43 0,5 -1,11 -2,16 -1,6 -2,11 -5,15 -2,3 -4,5 -8,6 -1,1 -2,1 -3,1 -2,0 -4,-1 -6,-1 -4,-2 -6,-5 -7,-8 0,-1 0,-2 0,-3 0,-2 1,-5 2,-7 1,-3 2,-6 2,-9 1,-4 1,-7 1,-10 0,-11 -3,-21 -10,-30 -7,-8 -16,-14 -27,-18 -10,-5 -20,-7 -31,-7 -13,0 -27,3 -39,10 -23,12 -41,32 -55,58 -14,27 -24,56 -30,87 -7,31 -10,58 -10,82 0,12 1,26 4,40 2,15 7,28 14,41 7,12 18,19 33,20zm162 36c-13,8 -28,17 -43,27 -16,10 -31,22 -45,35 -14,12 -26,26 -35,41 -9,14 -14,30 -14,46 0,9 3,16 7,22 5,7 11,12 19,15 7,3 15,5 23,5 14,0 26,-4 37,-12 10,-7 18,-17 23,-28 6,-12 11,-24 14,-35 10,-36 14,-75 14,-116z"/>
  <path id="14" class="fil0" d="M589 1367c-2,9 -6,20 -10,31 -5,11 -11,21 -18,32 -7,10 -17,18 -29,25 -11,7 -26,10 -43,10 -10,0 -20,-2 -28,-7 -9,-5 -16,-11 -22,-20 -8,-10 -13,-22 -16,-34 -3,-12 -5,-24 -5,-38 0,-13 3,-27 8,-41 5,-15 12,-28 20,-39 12,-14 25,-24 40,-31 16,-7 33,-10 50,-10 12,0 22,1 30,3 11,3 21,7 32,11 5,-1 10,-2 15,-2 6,0 12,1 18,3 4,2 7,4 10,7 3,3 5,7 5,11 -1,10 -1,19 -1,29l0 9c0,15 1,30 2,45 1,16 4,31 8,46 2,8 5,16 10,22 1,2 3,4 5,5 2,2 4,3 6,3 4,0 8,-2 12,-5 4,-4 7,-7 9,-10 12,-16 25,-34 37,-56 12,-21 23,-41 31,-59 1,-2 3,-4 5,-5 1,0 2,0 3,0 1,0 3,0 4,0 3,2 4,3 5,6 1,1 1,2 1,3 0,1 0,3 -1,4l-7 16c-8,18 -17,36 -26,53 -9,18 -20,35 -34,52 -4,7 -10,13 -17,19 -6,6 -13,12 -21,16 -7,5 -15,7 -24,7 -11,0 -21,-4 -29,-12 -7,-8 -13,-17 -18,-27 -5,-11 -8,-21 -10,-31 -3,-14 -5,-27 -7,-41zm-7 -42c3,-10 5,-25 5,-45 -12,-6 -23,-9 -32,-9 -12,0 -23,3 -33,10 -11,7 -20,16 -26,25 -6,8 -10,18 -14,29 -3,12 -5,22 -5,31 0,10 1,18 2,26 2,9 5,17 9,25 5,10 12,15 22,16 13,-1 24,-8 34,-20 9,-13 17,-27 24,-44 6,-17 11,-32 14,-44z"/>
  <path id="15" class="fil0" d="M799 1294c0,3 0,6 0,10 0,14 0,28 1,42 1,20 3,39 5,58 1,14 3,28 5,42 2,12 5,24 9,36 0,1 1,3 2,4 1,2 2,2 4,2 2,0 5,-1 7,-3 3,-2 5,-4 7,-6 16,-21 33,-48 50,-81 17,-32 28,-62 35,-89 1,-3 2,-5 4,-7 2,-1 3,-1 5,-1l2 0c3,1 5,2 6,5 1,1 2,3 2,5 0,0 0,1 -1,1 -12,59 -37,114 -73,166 -5,7 -11,15 -18,23 -8,9 -16,16 -25,23 -9,6 -18,9 -27,9 -16,0 -30,-18 -42,-53 -11,-36 -17,-83 -17,-140 0,-88 11,-155 31,-199 21,-44 47,-66 80,-66 9,0 17,3 25,7 8,5 14,12 18,21 4,8 6,17 6,27 0,20 -6,40 -17,60 -10,21 -24,40 -39,58 -15,18 -30,33 -45,46zm1 -33c4,-4 7,-7 11,-11 9,-10 19,-21 29,-35 10,-13 19,-27 26,-42 7,-15 10,-29 10,-43 0,-6 -1,-12 -3,-18 -2,-3 -5,-5 -9,-5 -3,0 -5,0 -8,1 -3,1 -5,3 -7,4 -12,11 -21,24 -28,42 -7,17 -12,35 -15,54 -3,19 -5,37 -6,53z"/>
  <path id="16" class="fil0" d="M1070 1367c-2,9 -5,20 -10,31 -4,11 -10,21 -18,32 -7,10 -17,18 -28,25 -12,7 -27,10 -44,10 -10,0 -19,-2 -28,-7 -8,-5 -16,-11 -22,-20 -8,-10 -13,-22 -16,-34 -3,-12 -4,-24 -4,-38 0,-13 2,-27 7,-41 5,-15 12,-28 21,-39 11,-14 24,-24 40,-31 15,-7 32,-10 50,-10 11,0 21,1 30,3 10,3 20,7 32,11 5,-1 10,-2 15,-2 5,0 11,1 17,3 4,2 8,4 11,7 3,3 4,7 4,11 0,10 0,19 0,29l0 9c0,15 0,30 1,45 2,16 4,31 8,46 2,8 5,16 10,22 1,2 3,4 5,5 2,2 4,3 7,3 4,0 7,-2 11,-5 4,-4 7,-7 9,-10 13,-16 25,-34 37,-56 13,-21 23,-41 31,-59 1,-2 3,-4 6,-5 1,0 2,0 3,0 1,0 2,0 4,0 2,2 4,3 4,6 1,1 1,2 1,3 0,1 0,3 -1,4l-7 16c-8,18 -17,36 -25,53 -9,18 -21,35 -34,52 -5,7 -11,13 -17,19 -7,6 -14,12 -21,16 -8,5 -16,7 -24,7 -12,0 -22,-4 -29,-12 -8,-8 -14,-17 -19,-27 -4,-11 -8,-21 -10,-31 -3,-14 -5,-27 -7,-41zm-6 -42c2,-10 4,-25 4,-45 -4,-1 -7,-3 -10,-4 -3,-2 -6,-3 -9,-4 -3,-1 -7,-1 -13,-1 -11,0 -22,3 -33,10 -11,7 -19,16 -26,25 -6,8 -10,18 -14,29 -3,12 -5,22 -5,31 0,10 1,18 3,26 1,9 4,17 8,25 5,10 12,15 23,16 13,-1 24,-8 33,-20 10,-13 18,-27 24,-44 6,-17 11,-32 15,-44zm-19 -201c16,0 24,7 24,21 0,6 -9,24 -26,54 -8,15 -15,22 -23,22 -5,0 -9,-4 -9,-12 0,-8 3,-24 8,-48 5,-25 14,-37 26,-37z"/>
  <path id="17" class="fil0" d="M1301 1382c3,-8 6,-16 10,-24 9,-25 21,-48 34,-70 3,-4 7,-10 12,-15 4,-5 9,-10 15,-14 5,-4 11,-6 17,-6 4,0 7,1 11,3 11,6 18,16 21,31 3,14 4,32 4,53 0,13 0,27 -1,40 -1,16 -3,36 -5,58 -2,23 -3,40 -3,52 0,9 1,18 2,28 2,10 4,15 7,15 11,0 30,-36 59,-109 28,-73 43,-112 45,-116 1,-2 3,-4 6,-5 1,0 1,-1 2,-1 2,0 3,1 5,2 2,1 4,3 5,5 0,1 0,2 0,3 0,1 0,3 -1,4 -2,4 -16,41 -43,109 -26,69 -47,112 -62,129 -16,17 -30,26 -44,26 -5,0 -9,-1 -13,-2 -11,-7 -18,-17 -21,-32 -4,-14 -5,-28 -5,-40 -1,-7 -1,-15 -1,-22 0,-11 1,-21 1,-31 1,-8 2,-24 5,-48 2,-24 3,-47 4,-70 0,-8 -1,-15 -1,-23 0,-2 -1,-3 -3,-3 -2,0 -3,1 -5,3 -10,18 -18,36 -26,54 -6,15 -11,30 -16,45 -4,13 -8,25 -10,38 0,0 0,0 0,1 -1,3 -2,5 -5,6 -2,2 -4,3 -7,3 -10,0 -20,-2 -29,-5 -4,-2 -8,-4 -12,-7 -4,-3 -6,-6 -6,-11 -1,-21 -3,-41 -6,-61 -1,-12 -3,-23 -5,-35 -2,-7 -4,-13 -6,-20 -1,-5 -3,-10 -6,-14 -2,-2 -3,-4 -3,-7 0,-1 1,-2 1,-4 1,-4 4,-6 8,-7 6,-2 13,-3 19,-3 8,0 15,2 22,6 3,1 5,2 7,4 2,2 4,4 5,7 5,10 8,20 10,31 3,13 5,26 7,39 0,3 1,7 1,10z"/>
  <path id="18" class="fil0" d="M272 2336c5,5 9,10 12,17 3,6 6,12 9,18l11 24c9,20 18,39 28,58 4,10 10,19 16,28 3,6 8,9 14,9 4,0 7,-1 10,-2 3,-2 6,-4 8,-7 22,-24 42,-52 59,-84 18,-32 32,-64 43,-94 3,-11 7,-22 11,-33 1,-2 2,-4 4,-5 2,-1 3,-1 5,-1 1,0 2,0 3,0 2,1 4,3 5,5 1,2 1,3 1,5 0,0 0,1 0,2 -4,11 -8,22 -12,33 -11,32 -26,67 -44,105 -19,38 -40,69 -64,92 -8,8 -16,14 -25,18 -9,5 -18,7 -27,7 -9,0 -17,-3 -24,-8 -7,-6 -14,-13 -20,-21 -5,-8 -10,-15 -14,-22 -8,-15 -16,-31 -23,-46 -4,-9 -8,-18 -12,-27 -4,-9 -8,-17 -12,-25 -4,-9 -8,-18 -13,-27 0,0 -1,0 -2,0 0,13 0,26 -1,39 -1,25 -2,49 -5,74 -1,11 -3,23 -6,34 -4,16 -10,29 -20,40 -9,10 -22,16 -39,16 -45,0 -81,-42 -108,-127 -26,-85 -40,-177 -40,-276 1,-32 6,-63 16,-94 9,-31 24,-59 46,-83 20,-21 43,-36 69,-46 26,-9 54,-13 82,-13 45,0 81,8 110,25 29,17 51,40 65,71 14,31 21,68 21,111 0,24 -4,48 -12,72 -9,23 -20,45 -35,64 -25,32 -55,56 -90,74zm-53 -13c1,0 1,0 2,0 34,-17 63,-41 85,-72 13,-18 24,-38 31,-59 7,-22 11,-44 11,-66 0,-21 -2,-42 -7,-64 -5,-21 -13,-40 -24,-58 -10,-17 -24,-32 -41,-42 -17,-11 -38,-17 -63,-17 -1,0 -3,0 -4,0 -25,0 -48,4 -70,12 -21,8 -41,20 -58,39 -24,28 -39,61 -47,97 -5,26 -8,52 -8,79 1,84 15,162 40,235 25,73 50,110 75,110 1,0 2,-1 3,-3 0,-2 1,-5 2,-7 0,-2 1,-4 1,-5 3,-17 6,-36 7,-54 3,-37 5,-73 5,-110 0,-8 0,-17 -1,-25 0,-49 -2,-99 -6,-148 -1,-19 -3,-38 -6,-57l0 0c-1,-12 -3,-24 -5,-35 -1,-1 -1,-2 -1,-4 0,-2 1,-5 3,-7 2,-4 6,-5 10,-5 5,0 11,0 16,1 6,1 11,2 16,4 4,1 8,3 12,6 3,3 5,6 6,11 2,13 4,27 6,41 2,19 4,37 5,56 3,46 5,91 5,137l0 10z"/>
  <path id="19" class="fil0" d="M622 2362c-8,1 -16,2 -23,2 -13,0 -23,-3 -32,-10 -8,-6 -15,-15 -19,-25 -4,-10 -6,-21 -6,-32 0,-17 5,-32 14,-44 10,-12 24,-18 42,-18 9,0 17,3 24,8 8,5 13,12 17,21 4,8 7,18 8,28 2,10 3,19 3,27 0,4 -1,9 -1,13 17,-5 31,-10 41,-15 11,-5 23,-13 39,-25 14,-10 26,-21 38,-33 2,-2 4,-3 6,-3 3,0 5,1 7,3 2,2 3,4 3,6 0,3 -1,5 -3,7 -11,12 -23,22 -37,33 -15,11 -30,22 -45,31 -15,9 -32,16 -52,21 -3,20 -9,41 -19,61 -10,20 -25,34 -44,43 -8,3 -15,4 -23,4 -9,0 -18,-2 -27,-5 -11,-5 -20,-12 -28,-20 -8,-9 -15,-18 -20,-29 -11,-23 -16,-48 -16,-73 0,-22 4,-43 13,-62 9,-19 22,-34 39,-46 16,-12 36,-17 60,-17l0 0c4,0 6,2 8,5 1,2 2,4 2,6 0,1 0,2 -1,3 0,2 -2,4 -4,6 -2,2 -4,3 -7,3 -12,0 -21,3 -28,11 -7,7 -12,16 -15,27 -4,11 -6,22 -7,34 -1,12 -2,22 -2,30 0,7 1,15 2,26 2,10 4,21 7,31 4,11 9,20 14,27 6,7 14,11 22,11 8,0 15,-3 21,-9 5,-5 10,-11 13,-18 7,-14 12,-28 16,-44zm3 -24c1,-7 1,-13 1,-19 0,-4 0,-9 -1,-16 0,-6 -2,-13 -3,-20 -2,-6 -5,-12 -8,-16 -4,-5 -8,-7 -13,-7 -7,0 -11,2 -15,6 -3,4 -6,9 -7,15 -2,6 -2,11 -2,16 0,6 1,12 3,19 1,7 5,12 9,17 4,5 10,7 17,7 7,0 13,-1 19,-2z"/>
  <path id="20" class="fil0" d="M860 2246c-5,-31 -9,-62 -11,-93 -1,-12 -2,-25 -2,-38 0,-13 1,-29 4,-46 2,-18 7,-34 14,-49 7,-15 17,-25 31,-31 6,-3 12,-4 18,-4 6,0 12,1 17,4 13,6 23,16 29,30 6,15 11,30 12,47 2,17 3,31 3,43 0,26 -2,53 -6,79 -4,35 -10,70 -19,104 -3,11 -5,21 -9,32 8,20 19,38 33,54 2,3 5,5 9,7 3,2 7,2 11,2 8,0 17,-4 25,-12 9,-8 18,-19 26,-31 8,-13 16,-25 22,-37 7,-13 13,-23 17,-32l4 -7c1,-2 3,-3 5,-4 1,-1 2,-1 3,-1 1,0 3,1 4,1 2,2 4,3 5,6 0,1 0,2 0,3 0,1 0,2 -1,4l-6 13c-6,12 -14,26 -22,41 -8,14 -17,29 -27,42 -10,14 -21,25 -32,34 -12,9 -24,13 -38,13 -13,0 -24,-2 -35,-8 -10,-6 -19,-14 -27,-24 -7,15 -16,28 -25,41 -10,13 -22,24 -35,33 -13,9 -28,13 -45,13 -29,0 -51,-9 -66,-27 -16,-18 -23,-45 -23,-81 0,-37 9,-68 27,-91 17,-22 44,-34 78,-34 11,0 22,1 32,4zm41 120c-9,-15 -16,-31 -22,-47 -5,-15 -9,-31 -13,-46 -11,-4 -20,-6 -30,-6 -14,0 -27,9 -38,26 -11,17 -17,44 -17,80 0,25 5,44 13,55 9,12 19,18 31,18 10,0 19,-3 27,-9 11,-9 20,-20 29,-32 8,-13 14,-26 20,-39zm27 -82c0,-1 1,-3 1,-4 8,-32 13,-64 17,-96 2,-14 3,-28 4,-42 1,-11 2,-22 2,-33 0,-11 -1,-22 -2,-34 -1,-12 -3,-23 -7,-34 0,-2 -1,-4 -2,-6 -1,-3 -2,-5 -4,-7 -1,-2 -3,-3 -5,-3 -2,0 -4,1 -6,2 -1,1 -3,3 -4,5 -4,5 -6,10 -8,16 -3,11 -5,22 -7,33 -1,12 -1,23 -1,34 0,21 1,41 3,62 3,27 7,53 12,79 2,10 5,19 7,28z"/>
  <path id="21" class="fil0" d="M1169 2287c9,2 19,3 28,3 4,0 7,1 9,4 2,3 3,5 3,8 0,0 0,1 0,2 -8,35 -14,71 -18,106 -1,15 -2,30 -2,45 0,5 0,9 0,14 1,7 1,14 2,21 1,4 2,8 2,13 1,3 2,7 3,11 0,0 1,2 2,3 0,2 1,3 2,4 1,1 2,2 3,2 2,0 3,-1 5,-4 2,-2 4,-4 5,-6l1 -1c3,-5 6,-9 9,-14 15,-24 30,-52 44,-86 15,-33 27,-64 36,-91l10 -28 2 -7c1,-1 1,-2 1,-3 3,-7 5,-14 8,-21 1,-2 2,-4 5,-5 1,-1 2,-1 4,-1 1,0 2,0 3,1 2,1 4,2 5,5 1,1 1,2 1,3 0,1 0,2 -1,4 -2,7 -5,13 -7,20 0,1 -1,2 -1,3l-3 7 -9 28 -11 30c-8,26 -18,52 -28,78 -11,25 -24,51 -39,76 -4,7 -9,14 -15,21 -6,7 -13,14 -20,19 -7,5 -15,8 -23,8 -9,0 -17,-2 -25,-7 -9,-6 -16,-15 -21,-26 -5,-11 -8,-23 -9,-36 -1,-13 -2,-25 -2,-35 0,-15 1,-31 3,-47 3,-34 9,-68 16,-102 -10,-2 -19,-5 -28,-9 -13,-6 -25,-13 -35,-23 -14,-13 -21,-29 -21,-47 0,-21 7,-48 22,-79 2,-5 6,-7 11,-7 9,0 18,1 27,4 4,1 7,2 11,4 3,2 5,4 6,7 -19,31 -29,57 -30,79 0,24 19,42 59,52z"/>
  <path id="22" class="fil0" d="M1495 2274c-7,29 -16,58 -25,86 -9,29 -20,57 -33,84 -9,18 -19,36 -32,52 -4,4 -7,7 -11,11 -8,6 -16,9 -26,9l-2 0c-12,-1 -22,-8 -30,-20 -8,-12 -14,-25 -18,-40 -5,-14 -8,-27 -10,-37 -5,-29 -8,-58 -9,-88 0,-7 0,-15 0,-22 0,-25 1,-51 4,-76 0,-3 2,-6 4,-8 2,-1 5,-2 8,-2 10,0 20,1 30,5 2,1 4,3 7,4 5,4 8,9 8,16 -2,19 -3,39 -3,59 0,5 0,10 1,15 0,26 2,52 6,77 1,5 2,10 3,15 1,9 3,17 5,26 1,4 3,9 4,14 2,4 3,8 5,12 1,4 3,6 4,9 1,0 1,1 2,1 0,1 1,1 1,1 1,0 1,0 1,0 0,0 1,0 1,0 0,-1 0,-1 1,-1 1,-2 2,-3 3,-5 4,-4 7,-9 10,-15 4,-7 8,-15 12,-23 25,-52 46,-107 61,-164 1,-2 3,-4 5,-6 1,0 3,-1 5,-1 0,0 1,0 2,0 2,1 4,3 5,5 1,2 2,3 2,5 0,0 0,1 -1,2zm-138 -190c16,0 24,7 24,20 0,7 -9,25 -26,55 -8,15 -15,22 -23,22 -6,0 -9,-4 -9,-13 0,-7 3,-23 8,-47 5,-25 14,-37 26,-37z"/>
  <path id="23" class="fil0" d="M1688 2329c18,-11 38,-22 60,-34 22,-11 42,-21 61,-29 1,-1 3,-1 4,-1 1,0 2,0 3,0 3,1 4,3 5,5 1,1 1,3 1,4 0,1 0,2 0,3 -1,3 -3,4 -5,5 -22,11 -41,21 -58,30 -16,10 -34,21 -51,32 -5,3 -10,6 -15,9 3,18 5,36 6,54 1,6 1,13 1,19 0,14 -1,29 -3,44 -2,21 -8,42 -16,62 -8,19 -21,36 -37,50 -11,9 -24,16 -38,21 -14,4 -28,6 -43,6 -20,0 -36,-6 -50,-19 -14,-13 -21,-30 -21,-49 0,-18 5,-35 15,-52 10,-18 22,-34 37,-50 15,-15 31,-30 47,-43 17,-13 31,-24 45,-33 -2,-10 -3,-20 -6,-29 -4,-19 -11,-37 -20,-54 -4,15 -9,29 -16,43 -7,14 -16,25 -28,34 -11,9 -25,14 -43,14 -12,0 -22,-3 -31,-9 -9,-5 -16,-13 -22,-22 -6,-10 -10,-20 -13,-31 -3,-11 -4,-22 -4,-32 0,-20 3,-39 9,-58 6,-18 16,-33 30,-44 13,-11 32,-17 55,-17l1 0c18,0 35,6 49,19 9,9 15,20 18,33 1,1 1,2 1,3 0,2 -1,4 -2,6 -2,3 -4,4 -8,5 -1,0 -1,0 -2,0 -2,0 -5,0 -7,-2 -2,-1 -4,-4 -5,-7 -2,-8 -6,-15 -12,-21 -5,-5 -11,-7 -18,-7 -6,0 -13,2 -19,5 -8,7 -15,14 -20,24 -4,9 -7,20 -9,30 -2,11 -2,21 -2,31 0,8 1,17 3,26 2,9 5,17 10,24 4,8 11,12 19,12 7,0 12,-3 17,-8 9,-11 15,-23 20,-37 5,-15 9,-29 11,-42 0,-1 0,-1 0,-2 0,-1 0,-3 1,-4 1,-4 4,-6 8,-8 6,-1 11,-1 17,-1 6,0 12,0 18,2 3,1 6,2 9,3 3,2 6,4 8,7 17,24 28,51 35,80zm-48 60c-12,8 -25,18 -39,29 -14,12 -27,24 -40,38 -13,13 -24,27 -33,42 -9,15 -13,29 -13,43 0,13 5,24 14,32 9,8 21,13 34,13 14,0 27,-5 36,-14 10,-9 18,-20 24,-34 5,-14 10,-29 13,-45 2,-16 4,-31 5,-46 0,-8 0,-15 0,-21 0,-7 0,-13 0,-18 0,-6 -1,-13 -1,-19z"/>
  <path id="24" class="fil0" d="M1958 2194l2 -10c0,-3 1,-5 4,-7 2,-2 4,-3 7,-3 9,0 18,1 27,3 4,1 7,2 10,3 3,1 5,3 7,6 1,2 2,4 2,7l0 2c-3,24 -5,49 -5,75 0,6 0,12 1,18 0,10 1,19 3,29 0,3 1,8 3,16 1,6 4,13 7,19 3,6 7,9 11,9 7,0 15,-4 25,-12 9,-8 19,-18 29,-29 10,-11 19,-22 27,-31 8,-10 13,-17 15,-20 2,-3 4,-4 6,-4l2 0c2,0 4,0 5,1 3,2 4,4 4,6l0 2c0,2 0,3 -1,5 -7,10 -16,22 -25,35 -10,12 -21,25 -32,37 -12,11 -24,21 -37,29 -13,8 -25,12 -38,12 -6,0 -12,-1 -18,-3 -16,-7 -27,-19 -33,-37 -7,-18 -11,-36 -12,-54 -4,13 -10,27 -17,40 -6,14 -14,26 -23,38 -10,12 -20,22 -32,29 -11,8 -25,11 -39,11 -9,0 -17,-2 -25,-6 -11,-7 -20,-17 -25,-30 -6,-13 -9,-27 -11,-42 -1,-15 -2,-29 -2,-40l0 -9c0,-21 2,-41 6,-62 1,-8 2,-15 4,-22 2,-8 4,-16 7,-23 2,-5 6,-8 11,-8 9,0 17,2 26,4 3,1 7,2 10,4 5,3 7,7 7,13 0,1 0,2 0,3 -4,13 -6,27 -8,40 -3,17 -4,35 -5,52 0,7 0,13 1,20 0,9 1,19 2,28 1,4 2,10 4,18 1,7 4,14 7,21 3,6 8,9 13,9 5,0 11,-2 16,-8 6,-6 11,-12 16,-19 4,-6 8,-12 11,-16 5,-10 10,-19 15,-29 3,-7 6,-15 9,-22 7,-20 13,-39 18,-59 3,-13 6,-26 8,-39z"/>
  <path id="25" class="fil0" d="M2171 2333c3,20 7,40 14,59 2,6 4,12 7,18 2,3 4,6 6,9 3,2 6,4 10,4 4,0 8,-1 11,-4 4,-2 7,-4 10,-7 19,-19 37,-41 55,-66 18,-25 34,-49 49,-72 2,-3 3,-5 4,-7 2,-2 4,-3 6,-4l2 0c2,0 4,0 5,1 3,2 4,4 4,6 0,1 1,2 1,3 0,1 -1,3 -2,4 -8,13 -16,25 -23,37 -13,21 -26,41 -39,60 -14,20 -29,38 -46,54 -8,9 -17,16 -28,23 -11,7 -22,11 -34,11 -8,0 -16,-3 -23,-8 -7,-5 -12,-11 -17,-18 -5,-7 -9,-15 -12,-22 -12,-30 -20,-61 -22,-94 0,-5 -1,-10 -1,-15 0,-4 0,-7 0,-10 0,-12 1,-25 2,-38 2,-18 6,-34 13,-50 7,-15 17,-27 30,-35 9,-4 18,-6 27,-6 12,0 24,4 34,11 11,9 19,21 23,35 4,15 6,29 6,42 0,12 -2,25 -6,38 -3,12 -10,23 -21,31 -12,7 -24,10 -38,10 -2,0 -4,0 -7,0zm-2 -24c3,1 5,1 8,1 3,0 6,0 10,-1 5,-1 11,-3 15,-6 8,-5 12,-13 14,-22 2,-10 3,-19 3,-27 0,-8 0,-16 -2,-25 -2,-9 -4,-17 -9,-24 -1,-2 -2,-3 -4,-5 -2,-1 -3,-1 -6,-1 -2,0 -3,0 -5,1 -1,1 -3,3 -4,4 -5,8 -10,17 -12,27 -6,20 -8,39 -8,60 0,4 0,8 0,13 0,1 0,3 0,5z"/>
  <path id="26" class="fil0" d="M2478 2439c9,7 17,15 24,24 19,25 29,52 29,82 0,16 -4,31 -13,45 -8,12 -18,22 -31,28 -13,6 -26,9 -41,9 -16,0 -29,-5 -38,-14 -9,-9 -14,-22 -14,-38 0,-9 1,-19 4,-29 3,-9 6,-18 9,-27 5,-11 10,-22 16,-32 5,-11 11,-22 18,-32 -10,-6 -20,-10 -31,-12 -11,-3 -22,-4 -33,-4 -3,0 -6,-1 -8,-4 -2,-2 -3,-4 -3,-7l0 -2c1,-14 4,-28 8,-42 5,-19 11,-37 19,-55 5,-13 11,-25 19,-36 -2,0 -4,0 -6,-1 -14,-1 -28,-3 -42,-8 -12,-4 -23,-10 -32,-18 -9,-8 -16,-18 -20,-31 0,-1 0,-2 0,-3 0,-2 0,-4 1,-6 2,-3 4,-5 7,-6 2,-1 4,-1 6,-1 5,-1 10,-2 15,-2 4,0 7,1 9,3 2,3 3,5 3,9 0,3 1,6 2,9 5,7 12,13 22,17 10,4 19,7 27,8 22,5 43,7 65,7 5,0 9,2 11,7 0,2 1,3 1,5 0,2 -1,5 -3,7 -12,15 -21,32 -29,49 -7,17 -13,35 -18,52 -2,9 -4,18 -5,26 2,1 5,1 7,2 9,2 17,5 25,8 39,-58 82,-113 130,-166 2,-2 4,-3 6,-3l1 0c2,0 4,0 6,2 2,2 3,4 3,6 0,3 -1,5 -2,7 -47,53 -88,109 -124,167zm-18 29c-2,2 -3,5 -4,7 -11,17 -20,35 -27,54 -3,7 -6,15 -8,23 -2,8 -4,15 -4,23 0,6 2,13 6,18 3,6 8,9 16,9 18,0 32,-5 41,-15 9,-10 13,-24 13,-42 0,-16 -3,-32 -11,-47 -5,-12 -13,-21 -22,-30z"/>
 </g>
</svg>
