<svg width="91" height="90" viewBox="0 0 91 90" fill="none" xmlns="http://www.w3.org/2000/svg">
<path d="M46.2039 1.2229C36.2676 1.2229 26.9045 4.4331 19.1083 10.4713C14.2548 14.2165 10.2803 18.8407 7.29941 24.2675C3.70706 30.7643 1.83447 38.1401 1.83447 45.6305C1.83447 70.0891 21.7453 90 46.2421 90C56.2166 90 65.6561 86.7516 73.4905 80.6369C78.2676 76.9299 82.3567 72.1528 85.2612 66.8025C88.8153 60.3439 90.6497 53.0063 90.6497 45.5923C90.6115 21.1337 70.6625 1.2229 46.2039 1.2229ZM56.102 38.293C56.4842 38.7898 56.8281 39.3248 57.1338 39.8981C57.172 39.9745 57.2103 40.0892 57.2485 40.1656C57.5542 40.7771 57.7835 41.3885 57.9746 42.0382C57.9746 42.0764 58.0128 42.1528 58.0128 42.1911C58.2039 42.879 58.3568 43.6051 58.4332 44.3312V44.3694C58.4714 44.7516 58.5096 45.1719 58.5096 45.5923C58.5096 46.3949 58.4332 47.1592 58.2803 47.8853C58.2803 47.9235 58.2803 47.9618 58.2803 48C58.1275 48.7261 57.9364 49.414 57.6689 50.1019C57.6689 50.1401 57.6307 50.2165 57.6307 50.2547C57.3631 50.9044 57.0192 51.5541 56.637 52.1274C56.5988 52.1656 56.5988 52.2038 56.5606 52.2802C56.1784 52.8535 55.758 53.4267 55.2612 53.9235C55.223 53.9618 55.1848 54 55.1466 54.0382C54.6498 54.535 54.1147 55.0318 53.5797 55.4522C53.5414 55.4904 53.5033 55.5286 53.465 55.5286C52.8918 55.949 52.2803 56.3312 51.6306 56.6369C51.5924 56.6369 51.5542 56.6751 51.516 56.6751C50.8663 56.9809 50.1402 57.2484 49.4141 57.4395H49.3758C48.6497 57.6305 47.8472 57.7452 47.0828 57.8216C46.8153 57.8598 46.5478 57.8598 46.2421 57.8598C45.4778 57.8598 44.7134 57.7834 43.9873 57.6305C43.9491 57.6305 43.8727 57.6305 43.8344 57.5923C43.1465 57.4395 42.4587 57.2484 41.809 57.0191C41.7326 56.9809 41.6561 56.9809 41.5797 56.9426C40.9682 56.6751 40.3567 56.3694 39.7835 56.0255C39.7071 55.9872 39.6306 55.949 39.5542 55.8726C38.981 55.5286 38.4841 55.1082 37.9873 54.6496C37.9109 54.6114 37.8727 54.535 37.7963 54.4968C37.2994 54.0382 36.8408 53.5414 36.4205 53.0063C36.3822 52.9681 36.344 52.8917 36.3058 52.8535C35.8854 52.2802 35.5032 51.707 35.1975 51.0573C35.1975 51.0191 35.1593 51.0191 35.1593 50.9809C34.5096 49.6433 34.051 48.191 33.9364 46.6242C33.8982 46.242 33.8599 45.8981 33.8599 45.5159C33.8599 44.7134 33.9363 43.949 34.0892 43.1847C34.0892 43.1465 34.0892 43.1083 34.0892 43.07C34.2421 42.3439 34.4332 41.656 34.7007 41.0063C34.7389 40.9299 34.7389 40.8535 34.7771 40.8152C35.0446 40.1656 35.3504 39.5923 35.7325 39.0191C35.7325 38.9809 35.7708 38.9809 35.7708 38.9427C35.8472 38.828 35.9236 38.7134 36 38.6369C36.344 38.1401 36.7262 37.6433 37.1083 37.2229C37.1848 37.1465 37.223 37.07 37.2994 36.9936C37.758 36.4968 38.293 36.0764 38.8281 35.656C38.9045 35.6178 38.9427 35.5414 39.0192 35.5032C39.5924 35.0828 40.2039 34.7388 40.8536 34.4331C40.8918 34.3949 40.93 34.3949 40.9682 34.3567C42.344 33.707 43.8727 33.3248 45.4778 33.2484C45.7071 33.2102 45.9364 33.2102 46.1657 33.2102C46.93 33.2102 47.6561 33.2866 48.3822 33.4012C48.4204 33.4012 48.4969 33.4012 48.5351 33.4395C49.223 33.5541 49.8727 33.7834 50.5223 34.0127C50.5988 34.0509 50.7134 34.0891 50.7899 34.0891C51.4013 34.3184 51.9746 34.6242 52.5478 34.9681C52.6625 35.0446 52.7389 35.0828 52.8153 35.1592C53.3504 35.5032 53.8472 35.8853 54.3058 36.3057C54.3822 36.3821 54.4969 36.4586 54.5733 36.535C55.0319 36.9554 55.4523 37.414 55.8344 37.9108C55.9491 38.1019 56.0256 38.1783 56.102 38.293Z" fill="#001226"/>
<path d="M44.4077 1.07007C34.4332 1.07007 25.2613 4.43313 17.9619 10.0892C13.2613 13.7198 9.32496 18.3057 6.45872 23.5414C3.05744 29.7325 1.1084 36.8026 1.1084 44.3694C1.1084 68.2548 20.4842 87.6688 44.4077 87.6688C54.4205 87.6688 63.6307 84.2675 70.9682 78.535C75.6689 74.9045 79.567 70.3185 82.4332 65.0446C85.7963 58.9299 87.7071 51.8599 87.7071 44.3694C87.7071 20.4459 68.2931 1.07007 44.4077 1.07007ZM56.7135 44.3694C56.7135 50.8663 51.6307 56.2548 45.2103 56.6752C44.9428 56.7134 44.6753 56.7134 44.3695 56.7134C37.9491 56.7134 32.6753 51.7834 32.102 45.4777C32.0638 45.0955 32.0256 44.7516 32.0256 44.3694C32.0256 37.758 37.1848 32.4077 43.6817 32.0637C43.911 32.0255 44.1402 32.0255 44.3695 32.0255C50.7517 32.0255 56.0256 36.879 56.637 43.1083V43.1465C56.7135 43.5287 56.7135 43.9491 56.7135 44.3694Z" fill="#7B87F2"/>
<path d="M17.9615 10.0891C20.9042 20.1019 29.5793 28.7006 43.7195 32.0636C37.2227 32.4076 32.0634 37.7579 32.0634 44.3694C32.0634 44.7515 32.1016 45.0955 32.1398 45.4776C20.7895 43.5668 4.16533 29.5031 6.45832 23.5413C9.32456 18.3057 13.2609 13.7197 17.9615 10.0891Z" fill="#CCCFE0"/>
<path d="M82.4332 65.0446C79.567 70.2802 75.6689 74.9044 70.9683 78.535C69.5542 68.1783 59.5797 60.8407 45.2485 56.6751C51.6689 56.2548 56.7517 50.9045 56.7517 44.3694C56.7517 43.949 56.7135 43.5286 56.6753 43.1465C68.6753 45.9745 78.8026 51.8981 82.4332 65.0446Z" fill="#CCCFE0"/>
<path d="M44.4076 25.2229C33.8598 25.2229 25.2993 33.7834 25.2993 44.3694C25.2993 54.9172 33.8598 63.4777 44.4076 63.4777C54.9936 63.4777 63.5541 54.9172 63.5541 44.3694C63.5159 33.7834 54.9554 25.2229 44.4076 25.2229ZM44.4076 56.7134C37.605 56.7134 32.0637 51.172 32.0637 44.3694C32.0637 37.5669 37.605 32.0254 44.4076 32.0254C51.2101 32.0254 56.7516 37.5286 56.7516 44.3694C56.7133 51.172 51.2101 56.7134 44.4076 56.7134Z" fill="white"/>
<path d="M44.4076 88.7771C19.949 88.7771 0 68.8662 0 44.4076C0 36.9172 1.91085 29.5414 5.46499 23.0446C8.44588 17.6178 12.4204 12.9936 17.2739 9.24841C25.07 3.17198 34.4713 0 44.3694 0C68.8662 0 88.7771 19.9108 88.7771 44.4076C88.7771 51.8217 86.9044 59.1592 83.3885 65.6178C80.4841 70.9682 76.3949 75.7452 71.6178 79.4522C63.7834 85.5287 54.3821 88.7771 44.4076 88.7771ZM44.4076 2.17835C34.9681 2.17835 26.0637 5.23567 18.6497 10.9682C14.0255 14.5223 10.242 18.9554 7.41402 24.0764C4.01275 30.2293 2.21658 37.2612 2.21658 44.3694C2.21658 67.6051 21.1337 86.5605 44.4076 86.5605C53.8853 86.5605 62.828 83.5032 70.2803 77.6561C74.828 74.1401 78.6879 69.5924 81.4395 64.5096C84.8025 58.3949 86.5605 51.4013 86.5605 44.3694C86.5987 21.0956 67.6815 2.17835 44.4076 2.17835Z" fill="#001226"/>
<path d="M44.4077 58.93C36.3822 58.93 29.8472 52.395 29.8472 44.3695C29.8472 41.9236 30.4587 39.4777 31.6434 37.3758C32.637 35.5797 33.9364 34.0892 35.5032 32.8281C38.0637 30.8408 41.1593 29.7708 44.4077 29.7708C52.4331 29.7708 59.0064 36.3058 59.0064 44.3695C59.0064 46.8153 58.395 49.223 57.2485 51.3249C56.2931 53.0828 54.9554 54.6497 53.3886 55.8727C50.7898 57.8981 47.6943 58.93 44.4077 58.93ZM44.4077 32.5988C41.7707 32.5988 39.2867 33.4395 37.223 35.0446C35.9236 36.0383 34.8917 37.2612 34.0892 38.7134C33.1338 40.4332 32.637 42.3822 32.637 44.3695C32.637 50.8281 37.9109 56.1019 44.3695 56.1019C47.0064 56.1019 49.4905 55.2612 51.5924 53.6179C52.8535 52.6242 53.9236 51.3631 54.6879 49.9491C55.6051 48.2293 56.102 46.3185 56.102 44.3313C56.1402 37.8727 50.9045 32.5988 44.4077 32.5988Z" fill="#001226"/>
</svg>
