<svg width="82" height="90" viewBox="0 0 82 90" fill="none" xmlns="http://www.w3.org/2000/svg">
<path d="M81.4955 8.75774V88.7698C81.4955 89.4574 80.9526 90.0002 80.2651 90.0002H7.81634C7.12876 90.0002 6.58594 89.4574 6.58594 88.7698V8.75774C6.58594 8.10635 7.12876 7.52734 7.81634 7.52734H80.2651C80.9526 7.52734 81.4955 8.07016 81.4955 8.75774Z" fill="#001226"/>
<path d="M3.32917 85.6573C2.06258 85.6573 1.04932 84.644 1.04932 83.3774V3.32917C1.04932 2.06259 2.06258 1.04932 3.32917 1.04932H75.7779C77.0445 1.04932 78.0578 2.06259 78.0578 3.32917V83.3774C78.0578 84.644 77.0445 85.6573 75.7779 85.6573H3.32917Z" fill="white"/>
<path d="M75.778 2.09892C76.4656 2.09892 77.0084 2.64174 77.0084 3.32931V83.3414C77.0084 84.0289 76.4656 84.5718 75.778 84.5718H3.32931C2.64174 84.5718 2.09892 84.0289 2.09892 83.3414V3.32931C2.09892 2.67792 2.64174 2.09892 3.32931 2.09892H75.778ZM75.778 0H3.32931C1.48371 0 0 1.48371 0 3.32931V83.3414C0 85.187 1.48371 86.6707 3.32931 86.6707H75.778C77.6236 86.6707 79.1074 85.187 79.1074 83.3414V3.32931C79.1074 1.48371 77.6236 0 75.778 0Z" fill="#001226"/>
<path d="M8.79353 57.901C7.52694 57.901 6.51367 56.8877 6.51367 55.6211V8.10603C6.51367 6.83944 7.52694 5.82617 8.79353 5.82617H70.3134C71.58 5.82617 72.5933 6.83944 72.5933 8.10603V55.6211C72.5933 56.8877 71.58 57.901 70.3134 57.901H8.79353Z" fill="white"/>
<path d="M70.3131 6.87577C71.0007 6.87577 71.5435 7.41859 71.5435 8.10617V55.6212C71.5435 56.3088 71.0007 56.8516 70.3131 56.8516H8.79318C8.1056 56.8516 7.56278 56.3088 7.56278 55.6212V8.10617C7.56278 7.45478 8.1056 6.87577 8.79318 6.87577H70.3131ZM70.3131 4.77686H8.79318C6.94758 4.77686 5.46387 6.26057 5.46387 8.10617V55.6212C5.46387 57.4668 6.94758 58.9506 8.79318 58.9506H70.3131C72.1587 58.9506 73.6424 57.4668 73.6424 55.6212V8.10617C73.6786 6.26057 72.1587 4.77686 70.3131 4.77686Z" fill="#001226"/>
<path d="M71.5804 8.10613V55.6212C71.5804 56.3088 71.0375 56.8516 70.35 56.8516H8.79387C8.1063 56.8516 7.56348 56.3088 7.56348 55.6212V8.10613C7.56348 7.45474 8.1063 6.87573 8.79387 6.87573H70.3138C71.0013 6.87573 71.5804 7.41855 71.5804 8.10613Z" fill="#EB2CE9"/>
<path d="M71.5802 70.748H44.041V72.847H71.5802V70.748Z" fill="#001226"/>
<path d="M10.6757 74.9094C12.3945 74.9094 13.7878 73.5161 13.7878 71.7972C13.7878 70.0784 12.3945 68.6851 10.6757 68.6851C8.95685 68.6851 7.56348 70.0784 7.56348 71.7972C7.56348 73.5161 8.95685 74.9094 10.6757 74.9094Z" fill="#FF7FA2"/>
<path d="M10.6753 75.959C8.39546 75.959 6.51367 74.1134 6.51367 71.7974C6.51367 69.5175 8.35927 67.6357 10.6753 67.6357C12.9552 67.6357 14.837 69.4813 14.837 71.7974C14.8008 74.0772 12.9552 75.959 10.6753 75.959ZM10.6753 69.7347C9.55348 69.7347 8.61259 70.6394 8.61259 71.7974C8.61259 72.9192 9.51729 73.8601 10.6753 73.8601C11.7971 73.8601 12.738 72.9554 12.738 71.7974C12.7018 70.6755 11.7971 69.7347 10.6753 69.7347Z" fill="#001226"/>
<path d="M21.6044 74.9094C23.3232 74.9094 24.7166 73.5161 24.7166 71.7972C24.7166 70.0784 23.3232 68.6851 21.6044 68.6851C19.8856 68.6851 18.4922 70.0784 18.4922 71.7972C18.4922 73.5161 19.8856 74.9094 21.6044 74.9094Z" fill="#FFBA0D"/>
<path d="M21.604 75.959C19.3242 75.959 17.4424 74.1134 17.4424 71.7974C17.4424 69.5175 19.288 67.6357 21.604 67.6357C23.8839 67.6357 25.7657 69.4813 25.7657 71.7974C25.7295 74.0772 23.8839 75.959 21.604 75.959ZM21.604 69.7347C20.4822 69.7347 19.5413 70.6394 19.5413 71.7974C19.5413 72.9192 20.446 73.8601 21.604 73.8601C22.7259 73.8601 23.6668 72.9554 23.6668 71.7974C23.6306 70.6755 22.7259 69.7347 21.604 69.7347Z" fill="#001226"/>
<path d="M20.8803 21.4597H14.873V38.9024H20.8803V21.4597Z" fill="white"/>
<path d="M36.224 40.6755H30.2168V46.6828H36.224V40.6755Z" fill="white"/>
<path d="M48.2381 46.6465H36.2236V52.6537H48.2381V46.6465Z" fill="white"/>
<path d="M54.2099 40.6755H48.2026V46.6828H54.2099V40.6755Z" fill="white"/>
<path d="M63.1479 21.4597H57.1406V38.9024H63.1479V21.4597Z" fill="white"/>
</svg>
