<svg width="72" height="90" viewBox="0 0 72 90" fill="none" xmlns="http://www.w3.org/2000/svg">
<path d="M20.7891 90.0001V33.6601L39.1032 22.363H71.1602V90.0001H20.7891Z" fill="#001226"/>
<path d="M17.79 86.9138V32.7576L33.2217 19.2476H68.1612V86.9138H17.79Z" fill="#FFEDC0"/>
<path d="M69.0057 87.7582H16.9458V32.379L32.9015 18.4324H69.0057V87.7582ZM18.6346 86.0695H67.317V20.1211H33.5421L18.6346 33.1652V86.0695Z" fill="#001226"/>
<path d="M29.1454 35.4363H24.0791V38.8138H29.1454V35.4363Z" fill="#001226"/>
<path d="M49.3812 35.4363H44.3149V38.8138H49.3812V35.4363Z" fill="#001226"/>
<path d="M39.2489 35.4363H34.1826V38.8138H39.2489V35.4363Z" fill="#001226"/>
<path d="M59.4847 35.4363H54.4185V38.8138H59.4847V35.4363Z" fill="#001226"/>
<path d="M60.9112 42.5405H24.0791V45.918H60.9112V42.5405Z" fill="#001226"/>
<path d="M37.56 49.6741H24.0791V53.0516H37.56V49.6741Z" fill="#001226"/>
<path d="M60.8818 49.6741H51.0405V53.0516H60.8818V49.6741Z" fill="#001226"/>
<path d="M60.9112 56.7786H24.0791V60.156H60.9112V56.7786Z" fill="#001226"/>
<path d="M30.8341 63.8831H24.0791V67.2606H30.8341V63.8831Z" fill="#001226"/>
<path d="M46.3526 63.8831H38.5786V67.2606H46.3526V63.8831Z" fill="#001226"/>
<path d="M60.8825 63.8831H54.1274V67.2606H60.8825V63.8831Z" fill="#001226"/>
<path d="M17.79 32.7576H32.7849L33.2217 19.2476L17.79 32.7576Z" fill="#FFEDC0"/>
<path d="M32.7848 33.6019H17.7899C17.4405 33.6019 17.1202 33.3981 17.0037 33.0487C16.8873 32.7284 16.9746 32.3499 17.2367 32.117L32.6683 18.6361C32.9304 18.4032 33.2798 18.3741 33.5709 18.5196C33.8621 18.6652 34.0659 18.9856 34.0659 19.3058L33.6292 32.7866C33.6 33.2234 33.2507 33.6019 32.7848 33.6019ZM20.0319 31.9131H31.9695L32.3189 21.1692L20.0319 31.9131Z" fill="#001226"/>
<path d="M14.4121 83.2158V29.0595L29.8437 15.5786H64.7541V83.2158H14.4121Z" fill="#FFEDC0"/>
<path d="M65.599 84.0605H13.5391V28.6814L29.4948 14.7346H65.599V84.0605ZM15.2278 82.3718H63.9102V16.3943H30.1353L15.2278 29.4383V82.3718Z" fill="#001226"/>
<path d="M25.7386 31.7673H20.6724V35.1449H25.7386V31.7673Z" fill="#001226"/>
<path d="M45.9749 31.7673H40.9087V35.1449H45.9749V31.7673Z" fill="#001226"/>
<path d="M35.8714 31.7673H30.8052V35.1449H35.8714V31.7673Z" fill="#001226"/>
<path d="M56.1067 31.7673H51.0405V35.1449H56.1067V31.7673Z" fill="#001226"/>
<path d="M57.5045 38.8718H20.6724V42.2493H57.5045V38.8718Z" fill="#001226"/>
<path d="M34.1532 45.9761H20.6724V49.3536H34.1532V45.9761Z" fill="#001226"/>
<path d="M57.5049 45.9761H47.6636V49.3536H57.5049V45.9761Z" fill="#001226"/>
<path d="M57.5045 53.0806H20.6724V56.458H57.5045V53.0806Z" fill="#001226"/>
<path d="M27.4273 60.1851H20.6724V63.5626H27.4273V60.1851Z" fill="#001226"/>
<path d="M42.9758 60.1851H35.2017V63.5626H42.9758V60.1851Z" fill="#001226"/>
<path d="M57.5045 60.1851H50.7495V63.5626H57.5045V60.1851Z" fill="#001226"/>
<path d="M14.4121 29.0595H29.3778L29.8437 15.5786L14.4121 29.0595Z" fill="#FFEDC0"/>
<path d="M29.3782 29.9039H14.4124C14.063 29.9039 13.7428 29.7001 13.6263 29.3507C13.5098 29.0304 13.5972 28.6519 13.8592 28.4189L29.2909 14.9381C29.5529 14.7052 29.9023 14.6761 30.1934 14.8216C30.4846 14.9672 30.6884 15.2875 30.6884 15.6078L30.2517 29.0886C30.2225 29.5545 29.844 29.9039 29.3782 29.9039ZM16.6544 28.2151H28.592L28.9414 17.4712L16.6544 28.2151Z" fill="#001226"/>
<path d="M11.0059 79.5473V25.3619L26.4375 11.8811H61.377V79.5473H11.0059Z" fill="#FFEDC0"/>
<path d="M62.2216 80.3915H10.1616V25.0123L26.1174 11.0657H62.2216V80.3915ZM11.8504 78.7028H60.5328V12.7253H26.7579L11.8504 25.7694V78.7028Z" fill="#001226"/>
<path d="M22.3617 28.0698H17.2954V31.4473H22.3617V28.0698Z" fill="#001226"/>
<path d="M42.597 28.0698H37.5308V31.4473H42.597V28.0698Z" fill="#001226"/>
<path d="M32.4651 28.0698H27.3989V31.4473H32.4651V28.0698Z" fill="#001226"/>
<path d="M52.701 28.0698H47.6348V31.4473H52.701V28.0698Z" fill="#001226"/>
<path d="M54.1275 35.1741H17.2954V38.5515H54.1275V35.1741Z" fill="#001226"/>
<path d="M30.7763 42.2783H17.2954V45.6558H30.7763V42.2783Z" fill="#001226"/>
<path d="M54.1274 42.2783H44.2861V45.6558H54.1274V42.2783Z" fill="#001226"/>
<path d="M54.1275 49.3826H17.2954V52.7601H54.1275V49.3826Z" fill="#001226"/>
<path d="M24.0504 56.4873H17.2954V59.8648H24.0504V56.4873Z" fill="#001226"/>
<path d="M39.5694 56.4873H31.7954V59.8648H39.5694V56.4873Z" fill="#001226"/>
<path d="M54.1275 56.4873H47.3726V59.8648H54.1275V56.4873Z" fill="#001226"/>
<path d="M11.0059 25.3619H26.0007L26.4375 11.8811L11.0059 25.3619Z" fill="#FFEDC0"/>
<path d="M26.0011 26.2062H11.0062C10.6568 26.2062 10.3365 26.0023 10.2201 25.6529C10.1036 25.3326 10.1909 24.9541 10.4529 24.7212L25.8846 11.2403C26.1466 11.0074 26.496 10.9783 26.7872 11.1239C27.0784 11.2695 27.2822 11.5898 27.2822 11.91L26.8454 25.3909C26.8454 25.8567 26.4669 26.2062 26.0011 26.2062ZM13.2481 24.5465H25.1858L25.5352 13.8026L13.2481 24.5465Z" fill="#001226"/>
<path d="M7.62891 75.8495V21.6933L23.0605 8.2124H58.0001V75.8495H7.62891Z" fill="#FFEDC0"/>
<path d="M58.8441 76.6942H6.78418V21.3151L22.7399 7.36841H58.8441V76.6942ZM8.47294 75.0055H57.1554V9.0571H23.3805L8.47294 22.1012V75.0055Z" fill="#001226"/>
<path d="M18.9545 24.4011H13.8882V27.7786H18.9545V24.4011Z" fill="#001226"/>
<path d="M39.1903 24.4011H34.124V27.7786H39.1903V24.4011Z" fill="#001226"/>
<path d="M29.0872 24.4011H24.021V27.7786H29.0872V24.4011Z" fill="#001226"/>
<path d="M49.323 24.4011H44.2568V27.7786H49.323V24.4011Z" fill="#001226"/>
<path d="M50.7203 31.5056H13.8882V34.8831H50.7203V31.5056Z" fill="#001226"/>
<path d="M27.369 38.6099H13.8882V41.9874H27.369V38.6099Z" fill="#001226"/>
<path d="M50.7207 38.6099H40.8794V41.9874H50.7207V38.6099Z" fill="#001226"/>
<path d="M50.7203 45.7144H13.8882V49.0918H50.7203V45.7144Z" fill="#001226"/>
<path d="M20.6431 52.8188H13.8882V56.1964H20.6431V52.8188Z" fill="#001226"/>
<path d="M36.1915 52.8188H28.4175V56.1964H36.1915V52.8188Z" fill="#001226"/>
<path d="M50.7203 52.8188H43.9653V56.1964H50.7203V52.8188Z" fill="#001226"/>
<path d="M7.62891 21.6933H22.6238L23.0605 8.2124L7.62891 21.6933Z" fill="#FFEDC0"/>
<path d="M22.6236 22.5377H7.62873C7.27933 22.5377 6.95907 22.3339 6.8426 21.9845C6.72614 21.6642 6.8135 21.2857 7.07555 21.0528L22.5072 7.57193C22.7692 7.339 23.1186 7.30984 23.4097 7.45542C23.7009 7.60101 23.9048 7.92134 23.9048 8.24162L23.468 21.7224C23.4389 22.1591 23.0604 22.5377 22.6236 22.5377ZM9.87067 20.8489H21.8083L22.1578 10.105L9.87067 20.8489Z" fill="#001226"/>
<path d="M4.22119 72.1515V17.9953L19.6528 4.5144H54.5924V72.1515H4.22119Z" fill="#FFEDC0"/>
<path d="M55.4373 72.9961H3.37744V17.6169L19.3331 3.67017H55.4373V72.9961ZM5.06613 71.3073H53.7486V5.32985H19.9737L5.06613 18.3739V71.3073Z" fill="#001226"/>
<path d="M15.5769 20.7031H10.5107V24.0806H15.5769V20.7031Z" fill="#001226"/>
<path d="M35.8128 20.7029H30.7466V24.0804H35.8128V20.7029Z" fill="#001226"/>
<path d="M25.68 20.7029H20.6138V24.0804H25.68V20.7029Z" fill="#001226"/>
<path d="M45.9452 20.7029H40.8789V24.0804H45.9452V20.7029Z" fill="#001226"/>
<path d="M47.3428 27.8076H10.5107V31.1851H47.3428V27.8076Z" fill="#001226"/>
<path d="M23.9915 34.9119H10.5107V38.2894H23.9915V34.9119Z" fill="#001226"/>
<path d="M47.3428 34.9119H37.5015V38.2894H47.3428V34.9119Z" fill="#001226"/>
<path d="M47.3428 42.0161H10.5107V45.3936H47.3428V42.0161Z" fill="#001226"/>
<path d="M17.2657 49.1206H10.5107V52.4981H17.2657V49.1206Z" fill="#001226"/>
<path d="M32.8136 49.1206H25.0396V52.4981H32.8136V49.1206Z" fill="#001226"/>
<path d="M47.3424 49.1206H40.5874V52.4981H47.3424V49.1206Z" fill="#001226"/>
<path d="M4.22119 17.9953H19.2161L19.6528 4.5144L4.22119 17.9953Z" fill="#FFEDC0"/>
<path d="M19.2159 18.8399H4.22101C3.87162 18.8399 3.55135 18.6361 3.43489 18.2867C3.31842 17.9665 3.40579 17.5879 3.66783 17.355L19.0995 3.87418C19.3615 3.64125 19.7109 3.61209 20.002 3.75767C20.2932 3.90325 20.497 4.22352 20.497 4.5438L20.0602 18.0246C20.0602 18.4905 19.6818 18.8399 19.2159 18.8399ZM6.46295 17.1512H18.4006L18.75 6.40728L6.46295 17.1512Z" fill="#001226"/>
<path d="M0.844727 68.4831V14.3268L16.2764 0.816895H51.2159V68.4831H0.844727Z" fill="#FFEDC0"/>
<path d="M52.0599 69.3275H0V13.9484L15.9557 0.00170898H52.0599V69.3275ZM1.68876 67.6389H50.3712V1.66132H16.5963L1.68876 14.7054V67.6389Z" fill="#001226"/>
<path d="M12.1713 17.0344H7.10498V20.4119H12.1713V17.0344Z" fill="#001226"/>
<path d="M32.4358 17.0344H27.3696V20.4119H32.4358V17.0344Z" fill="#001226"/>
<path d="M22.3036 17.0344H17.2373V20.4119H22.3036V17.0344Z" fill="#001226"/>
<path d="M42.5389 17.0344H37.4727V20.4119H42.5389V17.0344Z" fill="#001226"/>
<path d="M43.9371 24.1389H7.10498V27.5164H43.9371V24.1389Z" fill="#001226"/>
<path d="M20.5858 31.2434H7.10498V34.6209H20.5858V31.2434Z" fill="#001226"/>
<path d="M43.9365 31.2434H34.0952V34.6209H43.9365V31.2434Z" fill="#001226"/>
<path d="M43.9371 38.3477H7.10498V41.7252H43.9371V38.3477Z" fill="#001226"/>
<path d="M13.86 45.4519H7.10498V48.8294H13.86V45.4519Z" fill="#001226"/>
<path d="M29.4073 45.4519H21.6333V48.8294H29.4073V45.4519Z" fill="#001226"/>
<path d="M43.9371 45.4519H37.1821V48.8294H43.9371V45.4519Z" fill="#001226"/>
<path d="M0.844727 14.3268H15.8396L16.2764 0.816895L0.844727 14.3268Z" fill="#FFEDC0"/>
<path d="M15.8394 15.1712H0.844549C0.495154 15.1712 0.174889 14.9674 0.058424 14.618C-0.0580412 14.2686 0.0293219 13.9192 0.291368 13.6863L15.723 0.205432C15.985 -0.0274986 16.3345 -0.0565865 16.6256 0.088995C16.9168 0.234576 17.1206 0.554841 17.1206 0.87512L16.6838 14.356C16.6547 14.7927 16.2762 15.1712 15.8394 15.1712ZM3.08656 13.4825H15.0242L15.3736 2.73853L3.08656 13.4825Z" fill="#001226"/>
</svg>
