<svg width="87" height="90" viewBox="0 0 87 90" fill="none" xmlns="http://www.w3.org/2000/svg">
<path d="M83.7116 30.481C83.6154 30.2564 83.5191 30.0318 83.4228 29.8072C82.9736 28.7805 82.4923 27.7858 82.0111 26.8233C78.8346 20.7912 74.1822 15.497 68.5993 11.5505C68.2784 11.3259 67.9255 11.1013 67.6047 10.8767C60.5458 6.19224 52.3319 3.72168 43.7972 3.72168C35.6153 3.72168 27.6581 6.03182 20.7597 10.3955L20.2785 10.6842C19.9255 10.9088 19.6047 11.1334 19.2517 11.358C17.5191 12.5773 15.8186 13.9249 14.2785 15.3687C9.91482 19.4436 6.51375 24.3206 4.13942 29.7751C4.04317 29.9997 3.9469 30.2243 3.85065 30.481C1.70091 35.6789 0.64209 41.1976 0.64209 46.8768C0.64209 47.5185 0.642082 48.1602 0.674168 48.8019C0.674168 49.0265 0.706265 49.2511 0.706265 49.4757C1.09129 55.7965 2.79181 61.8286 5.80786 67.3794C5.87203 67.5077 5.9362 67.6361 6.03246 67.7644C6.1608 67.989 6.28915 68.2457 6.41749 68.4703C11.1662 76.6842 18.61 83.1655 27.3373 86.7591C27.9148 86.9837 28.4924 87.2404 29.102 87.4329C33.7865 89.1334 38.7277 89.9997 43.7651 89.9997C48.8025 89.9997 53.7437 89.1334 58.4282 87.4329C59.0378 87.2083 59.6153 86.9837 60.1929 86.7591C66.7704 84.0639 72.61 79.7003 77.1341 74.1816C78.61 72.3848 79.9255 70.4596 81.1127 68.4382C81.241 68.2136 81.3694 67.989 81.4977 67.7644C84.6421 62.0853 86.4389 55.9249 86.8239 49.4436C86.8239 49.219 86.856 48.9944 86.856 48.7698C86.8881 48.1281 86.8881 47.5184 86.8881 46.8446C86.9522 41.2297 85.8613 35.711 83.7116 30.481Z" fill="#001226"/>
<path d="M81.3689 27.4328C81.2726 27.2082 81.1763 26.9836 81.0801 26.7911C80.663 25.8285 80.2138 24.866 79.7325 23.9355C76.6523 18.0959 72.2566 13.0906 66.8983 9.33655C66.5774 9.11195 66.2566 8.88735 65.9357 8.69484C59.4223 4.36329 51.5935 1.8606 43.155 1.8606C34.8448 1.8606 27.1443 4.29911 20.663 8.53441C20.3421 8.75901 20.0213 8.95152 19.7004 9.17612C17.9999 10.3312 16.4277 11.6146 14.9197 13.0264C10.8127 16.8767 7.47581 21.5611 5.22982 26.8232C5.13357 27.0478 5.03732 27.2724 4.94107 27.4649C2.95176 32.3098 1.86084 37.6039 1.86084 43.1547C1.86084 43.7643 1.86085 44.374 1.89294 44.9836C1.89294 45.2082 1.92501 45.4328 1.92501 45.6253C2.27796 51.8178 4.01058 57.6253 6.80202 62.759C6.86619 62.8873 6.93036 63.0157 6.99453 63.144C7.12287 63.3686 7.25122 63.5932 7.37956 63.7857C11.9036 71.6146 18.9625 77.8392 27.401 81.3044C27.9464 81.529 28.5239 81.7536 29.1015 81.9462C33.4972 83.5183 38.2138 84.3846 43.1229 84.3846C48.0641 84.3846 52.7806 83.5183 57.1443 81.9462C57.7218 81.7536 58.2673 81.529 58.8448 81.3044C65.1977 78.6734 70.7806 74.5344 75.048 69.2724C76.4598 67.5397 77.7432 65.7109 78.8662 63.7857C78.9945 63.5611 79.1229 63.3365 79.2512 63.144C82.171 57.882 83.9678 51.9462 84.3528 45.6253C84.3528 45.4007 84.3849 45.1761 84.3849 44.9836C84.417 44.374 84.417 43.7643 84.417 43.1547C84.4491 37.5718 83.3582 32.2777 81.3689 27.4328Z" fill="#00C1FF"/>
<path d="M76.043 44.631C76.043 44.1176 76.0751 43.6042 76.0751 43.0908C76.0751 37.7967 75.305 32.5988 73.9254 27.7539H81.8505L81.658 27.3048C81.5617 27.0802 81.4654 26.8555 81.3692 26.6309L81.2729 26.4384H73.5082C72.4815 23.2299 71.1981 20.2459 69.6259 17.5187C67.8933 14.5026 65.8398 11.8716 63.5296 9.6577C64.6526 9.6577 65.7756 9.6577 66.8344 9.6577H67.8933L67.027 9.04807C66.7061 8.82347 66.3852 8.59888 66.0644 8.37428L65.9681 8.31009H65.936C64.7168 8.31009 63.4334 8.31009 62.1179 8.31009C60.9949 7.34752 59.8398 6.48122 58.6205 5.71116C54.1286 2.88763 48.9628 1.37962 43.3478 1.18711C43.2836 1.15502 43.2195 1.15503 43.1553 1.15503C42.9628 1.15503 42.8023 1.15503 42.6098 1.15503C42.4494 1.15503 42.3211 1.15503 42.1607 1.15503C42.0965 1.15503 42.0002 1.15502 41.936 1.18711C34.8451 1.44379 28.5885 3.81811 23.3906 8.14966C22.4601 8.14966 21.5617 8.14966 20.7275 8.14966H20.6312L20.535 8.21385C20.2141 8.43845 19.8933 8.63097 19.5724 8.85556L18.7061 9.46516H19.7649C20.4708 9.46516 21.1767 9.46516 21.9467 9.46516C20.4066 10.909 18.9949 12.5454 17.7114 14.3743C15.1767 17.9037 13.2195 22.0106 11.8077 26.4384H5.10183L5.00555 26.6309C4.9093 26.8555 4.81305 27.0802 4.7168 27.3048L4.52427 27.7539H11.3585C9.97883 32.5668 9.24085 37.7646 9.24085 43.1229C9.24085 43.6042 9.27294 44.1176 9.30503 44.5988H1.60449V44.9518C1.60449 45.1764 1.63657 45.401 1.63657 45.6256L1.66867 45.9465H9.3371C9.62587 51.9465 10.813 57.6898 12.8344 62.7914H6.51358L6.80236 63.2727C6.9307 63.4973 7.05905 63.7219 7.18739 63.9465L7.28364 64.1069H13.412C14.6312 66.8983 16.043 69.5294 17.7435 71.9037C20.5029 75.754 23.8077 78.8021 27.5296 80.9839H25.797L27.3692 81.6256C27.9467 81.8502 28.4922 82.0748 29.0697 82.2994H30.0323C33.69 83.9999 37.7328 84.9304 42.0644 85.0588C42.1285 85.0588 42.1606 85.0909 42.2248 85.0909C42.3852 85.0909 42.5457 85.0909 42.7061 85.0909C42.8665 85.0909 43.059 85.0909 43.2195 85.0909C43.2195 85.0909 43.2195 85.0909 43.2515 85.0909C43.3157 85.0909 43.3799 85.0588 43.4441 85.0588C47.7115 84.8983 51.7221 83.9999 55.3478 82.3315H57.305L57.3692 82.2994C57.9467 82.0748 58.5243 81.8823 59.0697 81.6256L60.6419 80.9839H57.8826C58.1713 80.8235 58.4601 80.663 58.7489 80.5026C63.1767 77.7112 66.8986 73.7326 69.7863 68.6951C70.6205 67.2513 71.3585 65.7112 72.0323 64.139H79.1874L79.2836 63.9785C79.412 63.7539 79.5403 63.5293 79.6687 63.3047L79.9574 62.8235H72.6098C74.6312 57.6898 75.8184 51.9144 76.1072 45.9785H84.8023L84.8344 45.6577C84.8344 45.4331 84.8665 45.2085 84.8665 44.9839V44.631H76.043ZM10.5243 43.155C10.5243 37.9892 11.2302 32.7272 12.674 27.786H27.9467C27.305 32.5668 26.9521 37.7646 26.9842 43.155C26.9842 43.6684 27.0163 44.1497 27.0163 44.631H10.5884C10.5564 44.1497 10.5243 43.6684 10.5243 43.155ZM74.7596 44.631H58.2997C58.2997 44.1176 58.2997 43.6363 58.2997 43.1229C58.2997 37.7325 57.9467 32.5347 57.305 27.786H72.5778C74.182 33.1443 74.92 38.9197 74.7596 44.631ZM28.2997 43.155C28.2997 37.7646 28.6205 32.5668 29.2943 27.786H42.5136V44.631H28.3318C28.3318 44.1497 28.2997 43.6363 28.2997 43.155ZM43.8291 26.4705V9.59351C46.2034 9.59351 48.5778 9.62559 50.92 9.62559C53.1018 13.7967 54.7703 19.6363 55.8291 26.4705H43.8291ZM42.4815 9.56143V26.4384H29.4869C30.1286 22.2031 30.9949 18.2887 32.1179 14.9518C32.7275 13.155 33.4654 11.2941 34.3638 9.52935C37.0269 9.56144 39.7221 9.56143 42.4815 9.56143ZM42.5136 45.9465V62.7914H30.0002C29.0376 57.6898 28.4601 51.9465 28.3318 45.9465H42.5136ZM42.5136 64.139V80.9839H37.3799C34.9735 78.4812 33.2729 74.6951 32.15 71.3261C31.412 69.1443 30.8023 66.7058 30.2569 64.139H42.5136ZM43.8612 80.9839V64.139H55.059C53.936 69.5935 52.3639 74.2459 50.4387 77.6149C49.6687 78.9625 48.8344 80.0855 47.9361 81.016H43.8612V80.9839ZM43.8291 62.8235V45.9785H56.9521C56.8237 52.0427 56.2462 57.7539 55.3157 62.8235H43.8291ZM43.8291 44.631V27.786H55.9895C56.6312 32.5347 56.9842 37.7325 56.9842 43.1229C56.9842 43.6363 56.9842 44.1176 56.9842 44.631H43.8291ZM43.797 8.24593V2.72719C46.1393 3.33682 48.2569 5.16571 50.1499 8.27801C48.0323 8.27801 45.9147 8.27802 43.797 8.24593ZM42.4815 8.24593C39.9788 8.24593 37.5403 8.21385 35.1339 8.21385C36.9628 5.19781 39.3692 2.85554 42.4815 2.53468V8.24593ZM42.5457 82.2994V83.7112C41.1981 83.5828 40.0109 83.0694 38.92 82.2994H42.5457ZM43.8612 82.2994H46.4601C45.6259 82.909 44.7596 83.2941 43.8612 83.5187V82.2994ZM57.1125 26.4705C56.0858 19.7325 54.4815 13.9251 52.3639 9.62559C55.5403 9.62559 58.6526 9.6577 61.6366 9.6577C64.6526 12.3208 66.8986 15.3689 68.535 18.1925C70.0109 20.7593 71.2302 23.5507 72.1927 26.4705H57.1125ZM51.69 8.27801C51.6259 8.18175 51.5938 8.08549 51.5296 7.98923C50.2141 5.71116 48.7703 4.01061 47.1981 2.88762C52.4601 3.68976 56.6633 5.74323 60.0323 8.34216C57.3371 8.31008 54.5136 8.31009 51.69 8.27801ZM33.6259 8.21385C30.7382 8.21385 27.9788 8.18174 25.412 8.18174C28.9735 5.51863 33.1767 3.65767 38.0858 2.88762C36.4494 4.07478 34.9414 5.87161 33.6259 8.21385ZM32.92 9.52935C32.182 11.0053 31.5082 12.6737 30.8665 14.5347C29.7114 17.9999 28.8131 22.0427 28.1393 26.4384H13.059C15.2088 19.7967 18.7382 13.7967 23.7435 9.46516C26.5671 9.49724 29.6473 9.52935 32.92 9.52935ZM27.0483 45.9465C27.1767 51.8823 27.7542 57.6577 28.7168 62.7914H14.2462C12.1927 57.6577 10.9414 51.8823 10.6205 45.9465H27.0483ZM28.9414 64.139C29.4868 66.8342 30.0965 69.3368 30.8344 71.5828C32.1499 75.5935 33.7863 78.7379 35.6152 81.016H30.2248C25.6045 78.8662 21.6259 75.4652 18.4494 70.8769C17.0376 68.8555 15.8184 66.5775 14.7596 64.171H28.9414V64.139ZM36.8344 82.2994C37.2515 82.7165 37.7007 83.0694 38.1179 83.3903C36.5457 83.1336 35.0376 82.7807 33.5617 82.2994H36.8344ZM48.5136 82.2994H51.7863C50.3746 82.7486 48.8665 83.1336 47.2622 83.3582C47.6794 83.0695 48.0965 82.7165 48.5136 82.2994ZM49.7008 80.9839C50.3425 80.1817 50.9842 79.2833 51.5617 78.2566C53.5831 74.7272 55.2195 69.8502 56.3746 64.139H70.4922C69.8826 65.4866 69.2729 66.8021 68.535 68.0534C65.8719 72.7058 61.5724 77.9037 54.9949 81.016H49.7008V80.9839ZM56.6633 62.8235C57.5938 57.7219 58.1713 52.0106 58.2997 45.9785H74.7275C74.4387 51.8502 73.2195 57.5935 71.1018 62.8235H56.6633Z" fill="white"/>
<path d="M43.1551 1.86098C51.5615 1.86098 59.3904 4.36367 65.9358 8.69522C66.2567 8.91982 66.5775 9.14441 66.8984 9.36901C72.2567 13.123 76.6845 18.1605 79.7326 23.9679C80.2139 24.8984 80.6631 25.8289 81.0802 26.8236C81.1765 27.0482 81.2727 27.2728 81.369 27.4653C83.3583 32.3102 84.4492 37.6043 84.4492 43.1551C84.4492 43.7647 84.4492 44.3744 84.4171 44.984C84.4171 45.2086 84.385 45.4332 84.385 45.6257C84 51.9465 82.2032 57.9145 79.2834 63.1444C79.1551 63.369 79.0267 63.5936 78.8984 63.7861C77.7754 65.7112 76.492 67.5722 75.0802 69.2727C70.7807 74.5027 65.2299 78.6738 58.877 81.3048C58.3315 81.5294 57.754 81.754 57.1765 81.9465C52.7807 83.5187 48.0642 84.385 43.1551 84.385C38.2139 84.385 33.4973 83.5187 29.1337 81.9465C28.5561 81.754 28.0107 81.5294 27.4332 81.3048C18.9946 77.8075 11.9358 71.615 7.41176 63.7861C7.28341 63.5615 7.15509 63.3369 7.02674 63.1444C6.96257 63.0161 6.89839 62.8877 6.83422 62.7594C4.04278 57.5936 2.31015 51.7861 1.95721 45.6257C1.95721 45.4011 1.92513 45.1765 1.92513 44.984C1.89305 44.3744 1.89306 43.7647 1.89306 43.1551C1.89306 37.6043 2.98396 32.3102 4.97326 27.4653C5.06952 27.2407 5.16578 27.0161 5.26204 26.8236C7.54011 21.5615 10.8449 16.877 14.9519 13.0268C16.4278 11.615 18.0321 10.3316 19.7326 9.1765C20.0535 8.9519 20.3743 8.7273 20.6952 8.53479C27.1444 4.2995 34.877 1.86098 43.1551 1.86098ZM43.1551 0C34.9733 0 27.016 2.31018 20.1176 6.67381L19.6364 6.96259C19.2834 7.18719 18.9626 7.41178 18.6096 7.63638C16.877 8.85563 15.1765 10.2032 13.6364 11.6471C9.27273 15.7219 5.87166 20.599 3.49733 26.0535C3.40108 26.2781 3.30481 26.5027 3.20856 26.7273C1.05882 31.9251 0 37.4439 0 43.123C0 43.7647 -7.83387e-06 44.4064 0.0320777 45.0481C0.0320777 45.2727 0.064175 45.4973 0.064175 45.7219C0.449202 52.0428 2.14972 58.0749 5.16577 63.6257L5.35829 64.0107C5.48663 64.2674 5.61497 64.492 5.7754 64.7166C10.5241 72.8984 17.9679 79.4118 26.6952 83.0054C27.2727 83.23 27.8503 83.4866 28.4599 83.6792C33.1444 85.3797 38.0856 86.246 43.123 86.246C48.1604 86.246 53.1016 85.3797 57.7861 83.6792C58.3957 83.4546 58.9732 83.23 59.5508 83.0054C66.1283 80.3102 71.9679 75.9465 76.492 70.4278C77.9679 68.631 79.2834 66.7059 80.4706 64.6845C80.5989 64.4599 80.7273 64.2353 80.8556 64.0107C84 58.3316 85.7968 52.1711 86.1818 45.6898C86.1818 45.4652 86.2139 45.2407 86.2139 45.0161C86.246 44.3743 86.246 43.7326 86.246 43.0909C86.246 37.4118 85.1551 31.8931 83.0053 26.6952C82.9091 26.4706 82.8128 26.246 82.7166 26.0214C82.2674 24.9947 81.7861 24 81.3048 23.0374C78.1283 17.0054 73.4759 11.7113 67.893 7.76473C67.5722 7.54013 67.2192 7.31554 66.8984 7.09094C59.9037 2.47062 51.6577 0 43.1551 0Z" fill="#001226"/>
</svg>
