<?xml version="1.0" standalone="no"?>
<!DOCTYPE svg PUBLIC "-//W3C//DTD SVG 1.1//EN" "http://www.w3.org/Graphics/SVG/1.1/DTD/svg11.dtd" >
<svg xmlns="http://www.w3.org/2000/svg">
<metadata></metadata>
<defs>
<font id="frankfurterregular" horiz-adv-x="819" >
<font-face units-per-em="2048" ascent="1638" descent="-410" />
<missing-glyph horiz-adv-x="608" />
<glyph horiz-adv-x="0" />
<glyph unicode="&#xd;" horiz-adv-x="608" />
<glyph unicode=" "  horiz-adv-x="608" />
<glyph unicode="&#x09;" horiz-adv-x="608" />
<glyph unicode="&#xa0;" horiz-adv-x="608" />
<glyph unicode="!" horiz-adv-x="669" d="M109 1130q0 111 62 178.5t165 67.5q55 0 105.5 -25.5t80.5 -70.5q37 -51 37 -152v-432q0 -113 -59.5 -179t-161.5 -66q-53 0 -102.5 22.5t-81.5 61.5q-43 55 -43 159zM123 205q0 43 16.5 81t46 67.5t68.5 46t82 16.5q90 0 151.5 -61.5t61.5 -151.5q0 -92 -60.5 -152.5 t-150.5 -60.5q-43 0 -83 17.5t-68.5 46t-46 68.5t-17.5 83z" />
<glyph unicode="&#x22;" horiz-adv-x="1003" d="M68 1188q0 39 16 72.5t43 59.5t62.5 41t76.5 15q43 0 79 -15t63.5 -41t43 -61.5t15.5 -74.5q0 -18 -3 -38t-10.5 -42.5t-20.5 -53t-34 -71.5q-29 -57 -46 -92t-31.5 -53.5t-26.5 -23.5t-29 -5q-27 0 -43 17.5t-49 82.5q-51 96 -78.5 169t-27.5 114zM535 1188 q0 39 16 72.5t43 59.5t62.5 41t76.5 15q43 0 79 -15t63.5 -41t43 -61.5t15.5 -74.5q0 -18 -3 -38t-10.5 -42.5t-20.5 -53t-34 -71.5q-29 -57 -46 -92t-31.5 -53.5t-26.5 -23.5t-29 -5q-27 0 -44 17.5t-50 82.5q-49 96 -76.5 169t-27.5 114z" />
<glyph unicode="#" d="M68 0v1366h684v-1366h-684zM82 14h655v1338h-655v-1338z" />
<glyph unicode="$" horiz-adv-x="1142" d="M51 311q0 39 16.5 76t43 64.5t61.5 44t74 16.5q82 0 153 -55l84 -66q37 -31 78 -31q23 0 40 17.5t17 42.5q0 35 -38.5 60.5t-141.5 56.5q-104 35 -167.5 71.5t-104.5 89.5t-61.5 118t-20.5 136q0 84 27.5 160t81.5 135q27 31 62.5 55.5t100.5 55.5q35 82 85.5 118.5 t127.5 36.5q72 0 122 -33.5t89 -107.5q78 -33 122 -61.5t73 -65.5q49 -68 49 -147q0 -80 -50 -135.5t-122 -55.5q-23 0 -44.5 4t-44 15.5t-51 29t-65.5 43.5q-29 23 -45 30t-33 7q-23 0 -39 -15t-16 -38q0 -27 19.5 -44t70.5 -34q55 -18 88 -29.5t54.5 -19.5t34 -14 t26.5 -13q272 -127 272 -403q0 -94 -33.5 -179t-97.5 -151q-29 -29 -60.5 -50t-88.5 -48q-8 -53 -19.5 -81t-34.5 -56q-33 -37 -77.5 -57.5t-94.5 -20.5q-106 0 -174 78q-16 23 -27.5 50.5t-21.5 74.5q-78 29 -121 52t-77 56q-47 47 -74 104.5t-27 112.5z" />
<glyph unicode="%" horiz-adv-x="2211" d="M68 971q0 90 33.5 168t92 136t137.5 91t169 33q88 0 166.5 -34t137 -92.5t92.5 -136t34 -167.5t-34 -168t-92.5 -136.5t-137 -92t-166.5 -33.5q-90 0 -169 33.5t-137.5 93t-92 137.5t-33.5 168zM338 973q0 -68 47 -116t115 -48q66 0 112.5 47t46.5 113q0 33 -13 62.5 t-34.5 51t-50.5 33.5t-61 12q-66 0 -114 -46t-48 -109zM459 72q0 39 28 73l1061 1211q39 45 88 45q47 0 79 -32t32 -77q0 -39 -37 -82l-1040 -1185q-33 -37 -53.5 -49.5t-49.5 -12.5q-45 0 -76.5 32t-31.5 77zM1282 397q0 90 34 168t92 136.5t137 91t169 32.5 q88 0 167 -33.5t137.5 -92t92 -136.5t33.5 -168t-33.5 -167.5t-92 -136t-137.5 -92.5t-169 -34t-168 34t-136 93.5t-92 137t-34 167.5zM1552 399q0 -68 47.5 -115.5t114.5 -47.5q66 0 113 47t47 112q0 66 -48 114t-114 48q-63 0 -111.5 -47.5t-48.5 -110.5z" />
<glyph unicode="&#x26;" horiz-adv-x="1253" d="M78 459q0 39 5 72.5t19.5 65.5t37 64.5t57.5 73.5q-25 33 -40.5 60.5t-25.5 53t-14 51.5t-4 54q0 90 38.5 171t105.5 141.5t155 96.5t186 36q88 0 173 -32t150.5 -85t105.5 -121.5t40 -140.5q0 -43 -17.5 -82t-48 -68.5t-70.5 -46t-85 -16.5q-66 0 -109 26.5t-86 92.5 q-12 20 -23.5 27.5t-27.5 7.5q-25 0 -42 -17.5t-17 -42.5t12 -38t51 -29q49 -23 69.5 -56t20.5 -92q0 -90 -67 -119l-74 -30q-14 -4 -22.5 -20.5t-8.5 -39.5q0 -25 17.5 -43t42.5 -18q49 0 90 57l88 127q23 35 75 58.5t99 23.5q43 0 85 -17.5t73.5 -46t51 -65.5t19.5 -76 q0 -51 -37 -131q41 -47 57.5 -82t16.5 -78q0 -45 -18.5 -85t-49 -70.5t-72.5 -48t-87 -17.5q-37 0 -70 11t-84 44q-74 -33 -123 -44t-108 -11q-104 0 -197.5 39t-163 106.5t-109.5 156.5t-40 192z" />
<glyph unicode="'" horiz-adv-x="536" d="M68 1188q0 39 16 72.5t43 59.5t62.5 41t76.5 15q43 0 79 -15t63.5 -41t43 -61.5t15.5 -74.5q0 -18 -3 -38t-10.5 -42.5t-20.5 -53t-34 -71.5q-29 -57 -46 -92t-31.5 -53.5t-26.5 -23.5t-29 -5q-27 0 -43 17.5t-49 82.5q-51 96 -78.5 169t-27.5 114z" />
<glyph unicode="(" horiz-adv-x="1024" d="M160 684q0 215 88 413.5t246 340.5q135 121 235 121q45 0 86 -17.5t72 -48.5t49 -72t18 -86q0 -61 -30 -116q-6 -10 -10.5 -16.5t-15.5 -16.5t-33.5 -29.5t-61.5 -54.5q-90 -74 -140.5 -185.5t-50.5 -232.5q0 -78 25 -160t68 -145q23 -35 54.5 -69t84.5 -79 q63 -53 87.5 -97t24.5 -103q0 -43 -17 -83t-48 -71t-71 -48t-83 -17q-80 0 -176 64.5t-182 180.5q-219 293 -219 627z" />
<glyph unicode=")" horiz-adv-x="1024" d="M68 1337q0 43 17 83t48 71t71 48t83 17q80 0 176 -65.5t182 -181.5q111 -147 165 -301t54 -324q0 -106 -22.5 -211.5t-65.5 -203t-105.5 -184.5t-140.5 -157q-139 -121 -235 -121q-45 0 -86 18.5t-72 49.5t-49 72t-18 86q0 61 30 114l10.5 17.5t15.5 18t32.5 28.5 t62.5 53q90 76 140.5 186.5t50.5 233.5q0 78 -25 160t-68 145q-23 35 -54.5 69t-84.5 77q-63 55 -87.5 98t-24.5 104z" />
<glyph unicode="*" horiz-adv-x="845" d="M82 872q0 59 65 99l58 33l-58 32q-61 37 -61 101q0 41 29.5 73.5t70.5 32.5q33 0 72 -22l59 -31v59q0 59 29 93t76 34q51 0 80.5 -33.5t29.5 -89.5v-59l56 31q23 14 38 19t29 5q43 0 75 -32.5t32 -75.5q0 -35 -13.5 -55.5t-52.5 -45.5l-57 -36l55 -33q41 -23 55.5 -44.5 t14.5 -56.5q0 -45 -31 -76.5t-71 -31.5q-37 0 -74 20l-56 33v-61q0 -125 -104 -125q-53 0 -82 32.5t-29 92.5v61l-63 -33q-35 -20 -64 -20q-47 0 -77.5 31.5t-30.5 78.5z" />
<glyph unicode="+" d="M68 0v1366h684v-1366h-684zM82 14h655v1338h-655v-1338z" />
<glyph unicode="," horiz-adv-x="573" d="M70 221q0 45 16 84t46 67.5t69 46t84 17.5q43 0 83 -17.5t68.5 -47t46 -68.5t17.5 -84q0 -25 -8.5 -54.5t-22.5 -58.5l-78 -159q-55 -115 -143 -115q-47 0 -83 32t-36 73q0 20 7.5 43.5t23.5 62.5q-53 47 -71.5 85t-18.5 93z" />
<glyph unicode="-" horiz-adv-x="729" d="M68 678q0 57 45 96q29 25 58.5 33t84.5 8h231q78 0 126.5 -37t48.5 -98q0 -66 -46.5 -104.5t-123.5 -38.5h-236q-59 0 -91 10t-61 41q-37 37 -36 90z" />
<glyph unicode="." horiz-adv-x="573" d="M74 205q0 90 61.5 151.5t151.5 61.5q43 0 83 -16.5t68.5 -46t46 -68.5t17.5 -82q0 -45 -17.5 -84t-46 -68.5t-68.5 -46t-83 -16.5q-45 0 -84 16.5t-68 46t-45 68.5t-16 84z" />
<glyph unicode="/" horiz-adv-x="1171" d="M14 66q0 66 35 122l701 1188q74 127 200 127q90 0 149.5 -61.5t59.5 -155.5q0 -53 -49 -135l-668 -1128q-29 -47 -53 -80t-51 -52.5t-55.5 -27.5t-65.5 -8q-88 0 -145.5 60t-57.5 151z" />
<glyph unicode="0" horiz-adv-x="1572" d="M68 686q0 150 56 280t153.5 226t228.5 151.5t280 55.5q150 0 281 -56.5t228.5 -153.5t153.5 -227.5t56 -279.5q0 -147 -56 -278.5t-154.5 -228.5t-229.5 -153.5t-279 -56.5q-150 0 -280.5 56.5t-228 154.5t-153.5 229t-56 281zM518 686q0 -55 21.5 -105.5t57.5 -87 t85 -58t104 -21.5t104.5 21.5t86.5 58t58.5 85t21.5 103.5t-21.5 103.5t-58.5 85t-86 58t-105 21.5q-53 0 -102 -21.5t-86 -57t-58.5 -84t-21.5 -101.5z" />
<glyph unicode="1" horiz-adv-x="759" d="M35 1157q0 106 84 166q35 25 68.5 34t99.5 9h67q76 0 117 -12.5t78 -44.5q43 -39 58.5 -83t15.5 -128v-856q0 -111 -62.5 -181.5t-161.5 -70.5q-49 0 -96 22.5t-80 61.5q-29 35 -40 72.5t-11 95.5v714q-137 59 -137 201z" />
<glyph unicode="2" horiz-adv-x="1150" d="M66 1001q0 76 39.5 148t107.5 127t154 89t178 34q106 0 200.5 -40t163 -109.5t108.5 -164t40 -202.5q0 -61 -12.5 -115.5t-43 -108t-80.5 -110.5t-126 -127q66 2 101.5 -5t70.5 -30q43 -29 67.5 -75t24.5 -99q0 -47 -17.5 -90t-48.5 -72q-16 -16 -32.5 -25.5t-36 -15.5 t-45 -8t-62.5 -2h-520q-102 0 -160.5 55.5t-58.5 151.5q0 53 17.5 90t64.5 88l405 436q25 27 33 41.5t8 30.5q0 25 -17.5 41t-41.5 16q-35 0 -51 -28l-37 -60q-23 -35 -70 -58.5t-96 -23.5q-47 0 -88 17.5t-72 48.5t-49 70.5t-18 84.5z" />
<glyph unicode="3" horiz-adv-x="1085" d="M27 365q0 45 18 84.5t49 69.5t72 47.5t88 17.5q53 0 100 -24.5t74 -65.5q18 -29 29.5 -45.5t18.5 -24.5t15.5 -9t20.5 -1q25 0 42 18.5t17 44.5q0 47 -57 74q-59 27 -85 59.5t-26 85.5q0 41 18.5 75t47.5 46l55 25q41 18 41 55q0 25 -17.5 43t-39.5 18q-18 0 -30.5 -10 t-35.5 -41q-66 -96 -178 -96q-47 0 -87 16.5t-70.5 46t-48 68.5t-17.5 84q0 72 39 138.5t103.5 118.5t147.5 84t171 32q98 0 187 -36t156.5 -97.5t107.5 -143.5t40 -172q0 -31 -4 -57.5t-15 -52t-28.5 -53t-44.5 -60.5q33 -41 55.5 -75t37 -65.5t19.5 -64.5t5 -71 q0 -98 -40 -187.5t-109.5 -155t-162 -104.5t-196.5 -39q-92 0 -179 34t-154.5 89t-108.5 127t-41 150z" />
<glyph unicode="4" horiz-adv-x="1292" d="M78 522v185q0 51 9 85.5t32 77.5l188 353q41 78 90 110.5t125 32.5h262q45 0 77 -3t55.5 -10t43 -19.5t37.5 -30.5q20 -23 32.5 -42.5t20 -45t10.5 -60.5t3 -86v-362q47 -10 73.5 -21.5t47.5 -28.5q33 -29 51 -71.5t18 -89.5q0 -51 -20.5 -96.5t-54.5 -75.5 q-23 -16 -46.5 -25.5t-68.5 -15.5v-39q0 -113 -62.5 -183.5t-160.5 -70.5q-55 0 -104.5 24.5t-80.5 67.5q-27 39 -36 81t-7 120h-270q-78 0 -121 12t-76 41q-35 31 -51 74t-16 112zM514 707h98v198z" />
<glyph unicode="5" horiz-adv-x="1069" d="M51 309q0 90 61.5 151.5t151.5 61.5q33 0 73 -14t83 -43q45 -29 61.5 -38t26.5 -9q23 0 41 18.5t18 40.5q0 16 -9 37t-21 31q-33 33 -150 43q-70 6 -113 11t-69.5 11t-42 16.5t-31.5 26.5q-63 59 -45 174l55 375q12 88 68.5 126t177.5 38h358q78 0 115 -8t66 -31 q37 -29 57.5 -72t20.5 -96q0 -98 -60.5 -157.5t-159.5 -59.5h-217q131 -27 203 -55.5t119 -73.5q129 -123 129 -330q0 -109 -40 -203t-108.5 -163.5t-161 -110.5t-198.5 -41q-88 0 -170 30t-146.5 78t-103.5 109.5t-39 126.5z" />
<glyph unicode="6" horiz-adv-x="1200" d="M68 494q0 125 63 254l238 491q31 66 86 101.5t120 35.5q47 0 88.5 -17.5t72 -47t49 -70.5t18.5 -86q0 -41 -15 -80l-32 -76q55 -23 95 -43t70.5 -41.5t54 -45t46.5 -52.5q109 -143 108 -321q0 -109 -41.5 -206t-113.5 -169t-168 -114t-207 -42t-207 42t-168.5 114 t-114.5 168t-42 205zM520 498q0 -37 22.5 -61.5t57.5 -24.5t57.5 23.5t22.5 58.5q0 33 -23.5 55t-54.5 22q-35 0 -58.5 -22t-23.5 -51z" />
<glyph unicode="7" horiz-adv-x="1044" d="M25 1157q0 92 63.5 150.5t165.5 58.5h510q113 0 171 -60.5t58 -175.5q0 -39 -5 -74.5t-15 -66.5l-293 -825q-61 -174 -215 -174q-47 0 -89 18.5t-73 49t-49 71.5t-18 88q0 55 18 105l231 620h-252q-92 0 -150 59.5t-58 155.5z" />
<glyph unicode="8" horiz-adv-x="1167" d="M78 451q0 39 5 70.5t18.5 62t35 64.5t53.5 77q-53 68 -72.5 116t-19.5 107q0 92 39 174t104.5 143.5t154.5 97.5t188 36q96 0 184 -37t154.5 -98.5t106.5 -142.5t40 -171q0 -59 -20.5 -108t-73.5 -119q33 -41 54.5 -75t34.5 -64.5t18 -61t5 -67.5q0 -100 -40.5 -189.5 t-109.5 -156t-161 -105.5t-194 -39t-193.5 39t-161 105.5t-109.5 154.5t-40 187zM526 473q0 -23 17.5 -40t40.5 -17q25 0 41 17.5t16 39.5q0 25 -16.5 42t-40.5 17q-25 0 -41.5 -17t-16.5 -42zM526 909q-2 -27 15.5 -45t42.5 -18q23 0 38 17.5t15 39.5q0 23 -16.5 39 t-38.5 16q-23 0 -38.5 -13t-17.5 -36z" />
<glyph unicode="9" horiz-adv-x="1200" d="M68 870q0 109 42 205t114.5 168t168.5 114t207 42q109 0 205 -42t169 -114t114.5 -167t41.5 -204q0 -123 -61 -254l-240 -493q-31 -63 -85 -99t-119 -36q-47 0 -89 17.5t-73 47t-48.5 69.5t-17.5 87q0 45 15 80l30 76q-53 23 -93 43t-70.5 41.5t-55 45t-47.5 52.5 q-53 70 -80.5 151.5t-27.5 169.5zM518 872q0 -33 23.5 -55t56.5 -22t56.5 21t23.5 52q0 37 -22.5 60.5t-57.5 23.5q-33 0 -56.5 -22.5t-23.5 -57.5z" />
<glyph unicode=":" horiz-adv-x="573" d="M74 205q0 90 61.5 151.5t151.5 61.5q43 0 83 -16.5t68.5 -46t46 -68.5t17.5 -82q0 -45 -17.5 -84t-46 -68.5t-68.5 -46t-83 -16.5q-45 0 -84 16.5t-68 46t-45 68.5t-16 84zM74 825q0 43 16 82t45 69t68 46t84 16q43 0 83 -17t68.5 -46t46 -69t17.5 -83t-17.5 -82 t-46 -68.5t-68.5 -46t-83 -16.5q-45 0 -84 16.5t-68 46t-45 68.5t-16 84z" />
<glyph unicode=";" horiz-adv-x="573" d="M70 203q0 92 61.5 154.5t153.5 62.5q43 0 82 -17.5t68.5 -47t46 -69.5t16.5 -85q0 -23 -7.5 -52.5t-21.5 -58.5l-78 -162q-57 -113 -143 -112q-47 0 -83 30.5t-36 71.5q0 20 7.5 44t23.5 63q-53 49 -71.5 87t-18.5 91zM70 825q0 43 16 82t46 69t69 46t84 16q43 0 83 -17 t68.5 -46t46 -69t17.5 -83t-17.5 -82t-46 -68.5t-68.5 -46t-83 -16.5q-45 0 -84 16.5t-69 46t-46 68.5t-16 84z" />
<glyph unicode="&#x3c;" d="M68 0v1366h684v-1366h-684zM82 14h655v1338h-655v-1338z" />
<glyph unicode="=" d="M68 0v1366h684v-1366h-684zM82 14h655v1338h-655v-1338z" />
<glyph unicode="&#x3e;" d="M68 0v1366h684v-1366h-684zM82 14h655v1338h-655v-1338z" />
<glyph unicode="?" horiz-adv-x="1062" d="M55 1028q0 74 38 140.5t102.5 117.5t148.5 82t176 31q104 0 193.5 -38t156 -104.5t103.5 -156.5t37 -197q0 -199 -131 -328q-63 -63 -144.5 -98t-165.5 -35q-227 0 -239 203q-2 25 6 50.5t22.5 49t34 41t41.5 25.5l103 39q39 14 38 53q0 23 -17 39t-40 16q-29 0 -57 -36 q-41 -59 -82 -84t-105 -25q-45 0 -84.5 17.5t-69.5 46t-47.5 68.5t-17.5 83zM319 207q0 43 16.5 81t46.5 66.5t68.5 45t81.5 16.5t82 -16.5t69 -46t46 -67.5t16 -81q0 -45 -16 -84t-46 -68.5t-69 -46t-82 -16.5q-92 0 -152.5 62.5t-60.5 154.5z" />
<glyph unicode="@" d="M68 0v1366h684v-1366h-684zM82 14h655v1338h-655v-1338z" />
<glyph unicode="A" horiz-adv-x="1404" d="M37 215q0 57 29 119l428 907q29 63 84 99t122 36q70 0 125.5 -35.5t85.5 -101.5l430 -917q27 -51 27 -109q0 -47 -18.5 -87t-49 -70.5t-71.5 -48t-88 -17.5q-78 0 -130.5 42t-99.5 146h-417q-43 -100 -97.5 -144t-136.5 -44q-47 0 -88 17.5t-70.5 48t-47 71.5t-17.5 88z M631 504h139l-70 164z" />
<glyph unicode="B" horiz-adv-x="1261" d="M106 295v774v66q2 102 67 166.5t165 64.5h192q55 0 93.5 -1t66 -3t49 -5t41.5 -7q141 -35 228.5 -146.5t87.5 -263.5q0 -59 -13.5 -102.5t-50.5 -106.5q82 -78 116 -152.5t34 -172.5q0 -180 -138 -306q-33 -31 -63.5 -50t-67 -30.5t-84 -15.5t-112.5 -4h-359 q-74 0 -114.5 13.5t-77.5 54.5q-20 23 -34.5 50t-20.5 56q-2 12 -3.5 33.5t-1.5 87.5zM555 420h76q59 0 78.5 11t19.5 42t-23.5 44t-76.5 13h-74v-110zM555 838h53q47 0 65.5 11t18.5 40t-20.5 41t-67.5 12h-49v-104z" />
<glyph unicode="C" horiz-adv-x="1466" d="M68 680q0 150 57 281t155.5 228t230.5 153.5t282 56.5q125 0 241.5 -42t214.5 -124q166 -133 166 -270q0 -47 -17.5 -88t-48 -72t-71.5 -48.5t-88 -17.5q-41 0 -80 15.5t-61 40.5l-66 71q-37 41 -88 61.5t-107 20.5q-55 0 -104 -20.5t-86 -56t-57.5 -85t-20.5 -104.5 t20.5 -103.5t57.5 -85t85 -57t103 -20.5t107.5 23.5t93.5 66.5l47 49q29 29 71 47t85 18q45 0 86 -18t71.5 -49t49 -71t18.5 -83q0 -123 -147 -252q-100 -86 -223 -133t-254 -47q-150 0 -282 56.5t-230.5 152.5t-154.5 227t-56 279z" />
<glyph unicode="D" horiz-adv-x="1431" d="M106 248v59v752v67q0 27 1.5 43.5t3.5 25.5t6 22q49 149 245 149h3h276q154 0 274.5 -42t221.5 -132q109 -96 167 -228.5t58 -279.5q0 -141 -57.5 -272t-161.5 -230q-66 -61 -149 -104t-173 -62q-88 -16 -231 -16h-191q-80 0 -119.5 7t-70.5 30q-74 47 -94 123 q-4 12 -5 23.5t-2.5 26.5t-1.5 38zM557 420q57 0 96 2t65.5 7t45 13.5t39.5 22.5q51 37 80.5 95t29.5 122q0 76 -39.5 139.5t-105.5 96.5q-33 16 -72 22t-102 6h-37v-526z" />
<glyph unicode="E" horiz-adv-x="1077" d="M106 260v57v742q0 43 1.5 69.5t3.5 44t6 29.5t10 29q14 39 44 67.5t65 44.5q18 8 32.5 12.5t34 6.5t49 3t78.5 1h270h78t45.5 -2t26.5 -4t22 -4q72 -18 114 -71.5t42 -125.5q0 -49 -19.5 -93t-54.5 -73q-31 -27 -69.5 -38t-102.5 -11h-225v-94h178q84 0 133.5 -45 t49.5 -117q0 -80 -60 -129q-27 -20 -56.5 -27.5t-82.5 -7.5h-162v-102h207q74 0 114 -11.5t74 -39.5q74 -63 74 -160q0 -47 -19.5 -91t-54.5 -73q-16 -14 -33.5 -23.5t-38 -14.5t-48 -7t-66.5 -2h-350q-78 0 -111 4t-61 14q-109 45 -129 164q-2 10 -4 19.5t-3.5 24 t-1.5 34.5z" />
<glyph unicode="F" horiz-adv-x="1021" d="M78 309v789q0 92 22.5 143t75.5 86q20 14 49 22.5t60 12.5q14 2 43.5 3t74.5 1h271q55 0 90 -1t59.5 -5t42 -10.5t35.5 -18.5q45 -27 70.5 -73t25.5 -99q0 -47 -19.5 -92t-51.5 -74q-33 -29 -71 -39t-99 -10h-228v-94h140q59 0 88.5 -5t56.5 -22q35 -23 55.5 -57.5 t20.5 -77.5q0 -80 -50.5 -123t-148.5 -43h-162v-215q0 -49 -1 -81.5t-5 -55.5t-11 -39t-19 -37q-29 -47 -79.5 -75.5t-109.5 -28.5q-63 0 -116.5 31.5t-80.5 84.5q-10 18 -15 35t-8 38.5t-4 52t-1 77.5z" />
<glyph unicode="G" horiz-adv-x="1421" d="M68 684q0 147 56 278.5t154.5 227.5t229.5 152.5t280 56.5q100 0 198.5 -28t184.5 -81q141 -90 142 -211q0 -47 -18.5 -88t-49.5 -71.5t-73 -48t-89 -17.5q-16 0 -32.5 3t-26.5 7l-100 54q-37 16 -73 26t-71 10q-53 0 -100 -21.5t-82 -58t-56.5 -86t-21.5 -102.5 q0 -55 21.5 -104.5t57.5 -85t85 -57t104 -21.5q43 0 75 11t81 40h-65q-92 0 -142.5 43t-50.5 121q0 164 209 164h10l148 -2q59 -2 98 -5.5t66.5 -11.5t46 -20.5t34.5 -32.5q59 -72 58 -199l-2 -116q-2 -43 -3 -67t-2 -38t-3.5 -23.5t-6.5 -21.5q-16 -53 -75.5 -110.5 t-149.5 -104.5q-154 -80 -323 -80q-150 0 -282 56.5t-230.5 153.5t-154.5 228.5t-56 280.5z" />
<glyph unicode="H" horiz-adv-x="1390" d="M106 281v823q0 72 9.5 110.5t38.5 73.5q33 41 79 64.5t99 23.5t102 -23.5t80 -64.5q14 -18 22.5 -34.5t13.5 -37t7 -50t2 -72.5v-193h275v186q0 82 9 122t38 79q31 41 75.5 64.5t98.5 23.5q53 0 101 -22.5t79 -63.5q27 -35 38 -78t11 -108v-828q0 -35 -2 -60.5t-6 -45.5 t-11.5 -36.5t-17.5 -35.5q-31 -51 -81 -79.5t-109 -28.5q-53 0 -101.5 23.5t-78.5 66.5q-12 18 -21.5 35.5t-13.5 40t-6 51.5t-2 69v197h-275v-192q0 -43 -2 -71t-6 -48.5t-11.5 -36.5t-19.5 -35q-31 -47 -80 -73.5t-106 -26.5q-59 0 -108.5 26.5t-80.5 73.5 q-12 18 -19 35.5t-11 39t-6.5 49.5t-2.5 67z" />
<glyph unicode="I" horiz-adv-x="661" d="M106 250v846q0 43 2.5 73.5t8.5 53t17 42t30 38.5q62 73 163 73h3q102 0 168 -71q35 -39 47 -82t12 -127v-846q0 -66 -13.5 -108t-43.5 -76q-33 -35 -78 -55.5t-90 -20.5q-47 0 -93 19.5t-75 51.5q-33 35 -45.5 76t-12.5 113z" />
<glyph unicode="J" horiz-adv-x="1206" d="M37 526q0 92 15.5 147.5t51.5 96.5q59 72 158 72q104 0 169 -68q61 -63 61 -165v-13v-76v-7q0 -42 22 -67q23 -26 61 -26q57 0 80 53q4 12 5.5 29.5t1.5 70.5v502q0 47 1 79t6 53.5t13 39t23 35.5q29 43 80 68.5t104 25.5q57 0 108.5 -26.5t79.5 -73.5q12 -18 19.5 -34.5 t11.5 -38t5 -51.5t1 -77v-473q0 -78 -4 -134t-15.5 -101t-28.5 -84t-44 -78q-76 -113 -193.5 -176.5t-253.5 -63.5q-115 0 -217 45t-180 129q-72 78 -106.5 171t-34.5 216z" />
<glyph unicode="K" horiz-adv-x="1316" d="M106 248v876q0 113 61.5 182.5t164.5 69.5q49 0 94 -20.5t76 -55.5q33 -35 46 -75.5t13 -102.5v-219l250 369q70 104 186 104q45 0 87 -18.5t73 -49t49.5 -71.5t18.5 -86q0 -68 -35 -119l-229 -334l278 -356q43 -53 43 -123q0 -47 -18.5 -89t-49 -72.5t-71.5 -49 t-86 -18.5q-47 0 -90 18.5t-68 48.5l-338 428v-235q0 -119 -61.5 -189.5t-163.5 -70.5q-106 0 -168 69.5t-62 188.5z" />
<glyph unicode="L" horiz-adv-x="1062" d="M106 352v770q0 117 60.5 185.5t163.5 68.5q53 0 100 -22.5t76 -59.5q14 -20 24.5 -39.5t16.5 -45t8 -58.5t2 -82v-647h221q57 0 93 -9.5t67 -31.5q41 -29 63.5 -74t22.5 -94q0 -45 -18.5 -89t-51.5 -73q-31 -29 -68.5 -40t-97.5 -11h-430q-131 0 -190 72q-20 23 -32.5 43 t-18.5 49t-8.5 73t-2.5 115z" />
<glyph unicode="M" horiz-adv-x="1722" d="M49 236q0 14 1 27t3 28l156 874q16 98 74.5 154.5t146.5 56.5q72 0 134.5 -41t90.5 -110l203 -453l227 483q27 53 81.5 87t117.5 34q41 0 84 -16.5t72 -44.5q29 -29 44 -61.5t25 -88.5l156 -880q4 -23 6 -41.5t2 -34.5q0 -47 -17.5 -87t-47 -68.5t-70.5 -46t-86 -17.5 q-86 0 -147.5 47t-75.5 125l-51 256l-88 -242q-68 -186 -232 -186q-84 0 -139 44t-90 140l-90 244l-37 -217q-16 -98 -76.5 -154.5t-149.5 -56.5q-100 0 -163.5 68.5t-63.5 177.5z" />
<glyph unicode="N" horiz-adv-x="1425" d="M106 270v865q0 111 65 176t171 65q49 0 89 -21.5t79 -68.5l358 -440v254q0 68 8.5 105.5t32.5 72.5q29 45 79 71.5t106 26.5q51 0 95 -21.5t77 -60.5q29 -37 41 -76.5t12 -103.5v-835q0 -82 -10.5 -124t-38.5 -81q-31 -41 -77 -62.5t-99 -21.5q-109 0 -179 92l-356 457 v-287q0 -68 -11 -105.5t-40 -74.5q-33 -39 -78 -60.5t-96 -21.5q-53 0 -100.5 23.5t-79.5 64.5q-29 39 -38.5 78t-9.5 114z" />
<glyph unicode="O" horiz-adv-x="1574" d="M68 690q0 147 56 276.5t153.5 225.5t228.5 151.5t280 55.5q150 0 281 -56.5t229.5 -152.5t154.5 -227.5t56 -278.5t-56 -278.5t-154.5 -229.5t-229.5 -154.5t-279 -56.5q-152 0 -282.5 56.5t-228 154.5t-153.5 230t-56 284zM520 684q0 -55 21.5 -105.5t57.5 -87t85 -58 t104 -21.5t104.5 21.5t85.5 58t57.5 86t21.5 104.5t-21.5 103.5t-57.5 84t-85 56t-105 20.5q-55 0 -104 -20.5t-85 -56t-57.5 -83t-21.5 -102.5z" />
<glyph unicode="P" horiz-adv-x="1202" d="M106 307v799q0 74 13.5 115t48.5 77q35 35 78 51.5t106 16.5h189q82 0 143 -5t108.5 -17.5t87.5 -32t78 -49.5q92 -70 142.5 -172.5t50.5 -217.5t-52 -217t-147 -174q-70 -53 -143.5 -75.5t-173.5 -22.5h-76v-133q0 -117 -61.5 -188.5t-163.5 -71.5q-57 0 -107.5 27.5 t-81.5 74.5q-12 20 -20 37.5t-12 39t-5.5 54.5t-1.5 84zM559 801q16 -1 31 -1q58 0 85 13q34 16 34 64q0 35 -29 53t-80 18h-41v-147z" />
<glyph unicode="Q" horiz-adv-x="1574" d="M68 684q0 150 56 280t153.5 226t228.5 152.5t282 56.5q150 0 280 -56.5t227.5 -152.5t153.5 -226t56 -280q0 -39 -3 -71.5t-10 -66.5t-19.5 -72t-30.5 -85q59 -53 83.5 -97t24.5 -99q0 -47 -17 -88.5t-48 -72t-72 -49t-86 -18.5q-27 0 -48.5 4t-44 15.5t-46 29 t-53.5 43.5q-53 -27 -96.5 -44t-83.5 -28.5t-79.5 -15.5t-87.5 -4q-150 0 -280.5 56.5t-229 154.5t-154.5 229.5t-56 278.5zM516 686q0 -57 20.5 -106.5t56.5 -86t85 -57t106 -20.5t107.5 20.5t87.5 57t57.5 86t20.5 106.5t-21.5 106.5t-58.5 86t-86 57t-107 20.5 q-55 0 -104 -21.5t-85 -58t-57.5 -86t-21.5 -104.5z" />
<glyph unicode="R" horiz-adv-x="1232" d="M106 264v842q0 74 16.5 120t57.5 81q39 35 81 47t124 12h188q84 0 129.5 -5t90.5 -15q80 -23 145.5 -68t112.5 -107.5t73.5 -138.5t26.5 -158q0 -98 -34 -179t-111 -169l106 -170q23 -35 33 -72.5t10 -72.5q0 -47 -17.5 -87t-48 -69.5t-71.5 -47t-88 -17.5 q-123 0 -187 104l-186 309v-186q0 -49 -17.5 -90t-47 -71.5t-69.5 -48t-87 -17.5q-51 0 -98.5 21.5t-77.5 60.5q-53 68 -54 192zM557 801h18h31h10q92 0 93 71q0 74 -95 74h-10h-20q-10 0 -27 2v-147z" />
<glyph unicode="S" horiz-adv-x="1155" d="M68 311q0 43 15 80t43 64.5t65.5 44t80.5 16.5q41 0 79 -15.5t81 -49.5q37 -29 59.5 -45.5t37 -25.5t24.5 -11t22 -2q27 0 42.5 16t15.5 43q0 35 -35 57q-4 2 -9 5.5t-14.5 7.5t-24.5 10t-42 16q-29 10 -55.5 19.5t-55.5 19.5q-297 104 -297 389q0 100 37 182 t102.5 141.5t159 92.5t203.5 33q92 0 172 -23.5t139.5 -63.5t93 -94.5t33.5 -117.5q0 -82 -49 -134.5t-127 -52.5q-47 0 -88 17.5t-98 60.5q-35 29 -55.5 39t-38.5 10q-23 0 -38.5 -15t-15.5 -38q0 -31 28 -49t108 -45q88 -27 165.5 -64.5t124.5 -78.5q63 -53 100.5 -138.5 t37.5 -183.5q0 -92 -34 -177t-95 -149q-70 -70 -163 -103.5t-220 -33.5q-109 0 -203 26.5t-164 74t-108.5 110t-38.5 135.5z" />
<glyph unicode="T" horiz-adv-x="1226" d="M37 1155q0 59 33.5 112.5t83.5 75.5q18 8 32.5 12.5t39 6.5t64.5 3t107 1h455h74h41t21 -1t18 -3q82 -10 133 -67.5t51 -137.5q0 -45 -19.5 -88t-54.5 -74q-53 -49 -174 -49h-100v-680q0 -61 -8.5 -100t-30.5 -74q-31 -49 -79 -75.5t-108 -26.5q-57 0 -105 24.5t-81 69.5 q-23 35 -31 72t-8 106v684h-121q-59 0 -99 14.5t-71 45.5q-63 68 -63 149z" />
<glyph unicode="U" horiz-adv-x="1335" d="M92 594v481q0 49 2 81t7 54.5t14.5 41t23.5 36.5q33 41 81 64.5t97 23.5q47 0 91.5 -19.5t74.5 -51.5q35 -35 48.5 -79t13.5 -116v-539q0 -74 31.5 -115.5t91.5 -41.5q59 0 91 40t32 111v545q0 37 2 63.5t7 46t14 36t26 34.5q33 41 78 63.5t96 22.5q49 0 97 -22.5 t79 -59.5q16 -18 26.5 -37.5t16.5 -43t8 -56.5t2 -78v-485q0 -139 -34.5 -241.5t-108.5 -186.5q-84 -96 -196.5 -148.5t-235.5 -52.5q-137 0 -260 63.5t-205 174.5q-31 43 -52.5 84t-35 87t-18.5 99t-5 121z" />
<glyph unicode="V" horiz-adv-x="1400" d="M35 1157q0 45 18.5 85t49 69.5t72.5 47t89 17.5q74 0 130.5 -42t88.5 -120l217 -512l234 535q27 63 84 101t125 38q47 0 88 -17.5t71.5 -47t48 -70.5t17.5 -86q0 -57 -25 -106l-423 -908q-72 -151 -218 -151h-2q-72 0 -127 36.5t-86 102.5l-419 905q-33 68 -33 123z" />
<glyph unicode="W" horiz-adv-x="1957" d="M35 1161q0 45 18.5 84t49 67.5t71.5 46t88 17.5q158 0 232 -182l145 -346l121 358q57 170 219 170t223 -176l127 -362l150 383q29 72 88 113.5t133 41.5q47 0 88 -17.5t71.5 -47t48 -70.5t17.5 -88q0 -20 -5 -43t-22 -63l-323 -881q-63 -176 -217 -176q-160 0 -219 172 l-152 448l-149 -446q-57 -174 -215 -174q-156 0 -213 155l-349 912q-12 29 -19 58.5t-7 45.5z" />
<glyph unicode="X" horiz-adv-x="1265" d="M41 213q0 41 13.5 81t39.5 73l256 338l-190 251q-49 66 -69.5 110t-20.5 85q0 45 18 86t50 71.5t73 49t88 18.5q111 0 190 -102l146 -193l137 172q53 68 97 95.5t102 27.5q47 0 89 -17.5t72.5 -48t49 -71.5t18.5 -86q0 -76 -72 -172l-208 -276l256 -343q49 -66 49 -149 q0 -47 -17.5 -87t-47.5 -70.5t-70.5 -48t-85.5 -17.5q-113 0 -185 96l-184 242l-184 -240q-41 -53 -84 -75.5t-101 -22.5q-47 0 -88 17.5t-71.5 48t-48 71.5t-17.5 86z" />
<glyph unicode="Y" horiz-adv-x="1230" d="M35 1157q0 45 17.5 85t48 69.5t70.5 47t87 17.5q59 0 110.5 -27.5t88.5 -78.5l157 -211l166 217q39 47 88.5 73.5t102.5 26.5q45 0 86 -17.5t71.5 -48t49 -71.5t18.5 -86q0 -68 -41 -131l-317 -457v-297q0 -63 -8.5 -100t-30.5 -72q-29 -49 -81 -77.5t-108 -28.5 q-55 0 -106 28.5t-82 75.5q-23 35 -31 72t-8 102v303l-303 449q-45 63 -45 137z" />
<glyph unicode="Z" horiz-adv-x="1241" d="M47 213q0 66 43 131l424 604h-244q-100 0 -161.5 57.5t-61.5 149.5q0 98 70 158q35 29 74.5 41t99.5 12h602q76 0 116 -9t74 -34q41 -29 64.5 -73t23.5 -93q0 -41 -12 -71.5t-53 -86.5l-404 -575h226q72 0 111.5 -9t74.5 -36q84 -61 84 -168q0 -49 -21.5 -93t-56.5 -73 q-35 -27 -72.5 -36t-111.5 -9h-664q-98 0 -161.5 59.5t-63.5 153.5z" />
<glyph unicode="[" horiz-adv-x="1024" d="M166 72v59v1118q0 43 1 70t2 44t5 29.5t10 28.5q33 80 111 113q18 8 32.5 12t34 6t49 3t78.5 1h140h78t46 -1t27.5 -3t22.5 -4q72 -20 112.5 -71.5t40.5 -118.5q0 -100 -71 -160q-31 -27 -71 -38t-101 -11h-111v-930h92q74 0 114 -11t75 -40q70 -57 69 -154 q0 -98 -69 -155q-16 -14 -34 -23.5t-39.5 -14.5t-49 -7t-64.5 -2h-223q-39 0 -64.5 1t-44 2t-33 5t-28.5 10q-106 43 -131 162q-2 12 -3 21.5t-2 23.5t-1 35z" />
<glyph unicode="\" horiz-adv-x="1171" d="M14 1290q0 92 59.5 152.5t147.5 60.5q127 0 203 -127l698 -1188q16 -29 26.5 -60.5t10.5 -59.5q0 -92 -58.5 -152.5t-146.5 -60.5q-37 0 -65.5 8t-55 27.5t-52 52t-52.5 80.5l-668 1128q-27 43 -37 76t-10 63z" />
<glyph unicode="]" horiz-adv-x="1024" d="M68 1358q0 104 92 164q18 12 44.5 20t51.5 12q12 2 41 2h98h140q51 0 80.5 -1t49 -3t33 -6t31.5 -12q39 -16 67.5 -46t43.5 -67q6 -16 10 -29.5t5 -31t2 -43t1 -68.5v-1118v-59q0 -20 -1 -34.5t-2 -24t-3 -21.5q-25 -117 -131 -162q-29 -12 -60.5 -15t-109.5 -3h-223 q-76 0 -115 9t-72 38q-70 59 -69 155q0 96 69 154q35 29 75 40t114 11h92v930h-111q-63 0 -102 11t-70 38q-72 61 -71 160z" />
<glyph unicode="^" d="M68 0v1366h684v-1366h-684zM82 14h655v1338h-655v-1338z" />
<glyph unicode="_" horiz-adv-x="1024" d="M0 -274h1024v-211h-1024v211z" />
<glyph unicode="`" horiz-adv-x="653" d="M137 1774q0 59 44 99t106 40q41 0 71.5 -19.5t65.5 -68.5q14 -20 31.5 -51t31.5 -62q16 -35 23.5 -59.5t7.5 -46.5q0 -27 -12 -52.5t-31.5 -46t-46.5 -33t-53 -12.5q-90 0 -144 97l-45 81q-27 49 -38 78t-11 56z" />
<glyph unicode="a" d="M68 0v1366h684v-1366h-684zM82 14h655v1338h-655v-1338z" />
<glyph unicode="b" d="M68 0v1366h684v-1366h-684zM82 14h655v1338h-655v-1338z" />
<glyph unicode="c" d="M68 0v1366h684v-1366h-684zM82 14h655v1338h-655v-1338z" />
<glyph unicode="d" d="M68 0v1366h684v-1366h-684zM82 14h655v1338h-655v-1338z" />
<glyph unicode="e" d="M68 0v1366h684v-1366h-684zM82 14h655v1338h-655v-1338z" />
<glyph unicode="f" d="M68 0v1366h684v-1366h-684zM82 14h655v1338h-655v-1338z" />
<glyph unicode="g" d="M68 0v1366h684v-1366h-684zM82 14h655v1338h-655v-1338z" />
<glyph unicode="h" d="M68 0v1366h684v-1366h-684zM82 14h655v1338h-655v-1338z" />
<glyph unicode="i" d="M68 0v1366h684v-1366h-684zM82 14h655v1338h-655v-1338z" />
<glyph unicode="j" d="M68 0v1366h684v-1366h-684zM82 14h655v1338h-655v-1338z" />
<glyph unicode="k" d="M68 0v1366h684v-1366h-684zM82 14h655v1338h-655v-1338z" />
<glyph unicode="l" d="M68 0v1366h684v-1366h-684zM82 14h655v1338h-655v-1338z" />
<glyph unicode="m" d="M68 0v1366h684v-1366h-684zM82 14h655v1338h-655v-1338z" />
<glyph unicode="n" d="M68 0v1366h684v-1366h-684zM82 14h655v1338h-655v-1338z" />
<glyph unicode="o" d="M68 0v1366h684v-1366h-684zM82 14h655v1338h-655v-1338z" />
<glyph unicode="p" d="M68 0v1366h684v-1366h-684zM82 14h655v1338h-655v-1338z" />
<glyph unicode="q" d="M68 0v1366h684v-1366h-684zM82 14h655v1338h-655v-1338z" />
<glyph unicode="r" d="M68 0v1366h684v-1366h-684zM82 14h655v1338h-655v-1338z" />
<glyph unicode="s" d="M68 0v1366h684v-1366h-684zM82 14h655v1338h-655v-1338z" />
<glyph unicode="t" d="M68 0v1366h684v-1366h-684zM82 14h655v1338h-655v-1338z" />
<glyph unicode="u" d="M68 0v1366h684v-1366h-684zM82 14h655v1338h-655v-1338z" />
<glyph unicode="v" d="M68 0v1366h684v-1366h-684zM82 14h655v1338h-655v-1338z" />
<glyph unicode="w" d="M68 0v1366h684v-1366h-684zM82 14h655v1338h-655v-1338z" />
<glyph unicode="x" d="M68 0v1366h684v-1366h-684zM82 14h655v1338h-655v-1338z" />
<glyph unicode="y" d="M68 0v1366h684v-1366h-684zM82 14h655v1338h-655v-1338z" />
<glyph unicode="z" d="M68 0v1366h684v-1366h-684zM82 14h655v1338h-655v-1338z" />
<glyph unicode="{" d="M68 0v1366h684v-1366h-684zM82 14h655v1338h-655v-1338z" />
<glyph unicode="|" d="M68 0v1366h684v-1366h-684zM82 14h655v1338h-655v-1338z" />
<glyph unicode="}" d="M68 0v1366h684v-1366h-684zM82 14h655v1338h-655v-1338z" />
<glyph unicode="~" d="M68 0v1366h684v-1366h-684zM82 14h655v1338h-655v-1338z" />
<glyph unicode="&#xa1;" horiz-adv-x="669" d="M109 238v430q0 113 60 180t161 67q55 0 104 -22.5t82 -63.5q23 -29 33 -66.5t10 -92.5v-434q0 -111 -61.5 -178.5t-163.5 -67.5q-55 0 -105.5 25.5t-81.5 70.5q-39 53 -38 152zM123 1163q0 90 60.5 151.5t150.5 61.5q43 0 83 -17.5t68.5 -46t46 -68.5t17.5 -83t-17.5 -81 t-46 -67.5t-67.5 -46t-82 -16.5q-90 0 -151.5 61.5t-61.5 151.5z" />
<glyph unicode="&#xa2;" horiz-adv-x="1150" d="M68 676q0 227 163 391q35 35 75 60.5t108 56.5q53 184 215 184q76 0 132 -44t79 -122l41 -16q59 -23 94 -41.5t57 -42.5q33 -31 49.5 -69t16.5 -79q0 -37 -14.5 -71.5t-39 -60t-57.5 -41t-69 -15.5q-29 0 -55.5 9t-80.5 40q-37 23 -71.5 33t-63.5 10q-33 0 -63.5 -15.5 t-54 -41t-38 -58t-14.5 -67.5q0 -37 14.5 -71t40 -58.5t58.5 -39.5t69 -15q16 0 27.5 1t26 7t37 20.5t65.5 38.5q29 16 56.5 26.5t50.5 10.5q35 0 66.5 -14.5t55 -39t38 -57t14.5 -69.5q0 -88 -80 -158q-20 -16 -57 -36.5t-105 -53.5q-4 -4 -23 -10q-16 -51 -31.5 -77 t-39.5 -46q-59 -47 -135 -47q-39 0 -78 14t-68 41q-20 16 -34.5 43t-30.5 72q-80 31 -144.5 82t-109.5 118.5t-68.5 147.5t-23.5 170z" />
<glyph unicode="&#xa3;" horiz-adv-x="1189" d="M68 647q0 55 23.5 89t76.5 57q-14 59 -19.5 92t-5.5 65q0 90 40 172t107.5 143.5t158 97.5t190.5 36q94 0 181 -34t154.5 -89t107.5 -127t40 -150q0 -47 -17.5 -87t-48 -70.5t-71.5 -48t-88 -17.5q-55 0 -106.5 27.5t-77.5 73.5l-27 47q-16 23 -43 22q-55 0 -55 -57 q0 -14 3 -34.5t13 -61.5q98 -4 141 -38t43 -106q0 -133 -165 -141l-19 -86h256q260 0 260 -211q0 -51 -21.5 -97t-58.5 -75q-47 -39 -147 -39h-475q-86 0 -132 10t-79 33q-37 29 -57.5 74t-20.5 96q0 55 16 121l25 92q4 10 8 30.5t10 51.5q-66 16 -93 48t-27 91z" />
<glyph unicode="&#xa4;" d="M68 0v1366h684v-1366h-684zM82 14h655v1338h-655v-1338z" />
<glyph unicode="&#xa5;" horiz-adv-x="1298" d="M68 1157q0 45 18 85t49 69.5t72 47t88 17.5q123 0 197 -108l157 -238l168 246q72 100 187 100q47 0 88 -17.5t71.5 -48t49 -71.5t18.5 -86q0 -70 -43 -131l-164 -236q201 -20 201 -174q0 -86 -62.5 -130t-183.5 -44h-107v-170q0 -63 -8 -100t-30 -72q-31 -49 -82.5 -77.5 t-108.5 -28.5q-55 0 -105.5 28.5t-80.5 75.5q-23 35 -31 72t-8 102v170h-113q-111 0 -171 46t-60 128q0 76 51 120t147 54l-159 234q-45 68 -45 137z" />
<glyph unicode="&#xa7;" d="M68 0v1366h684v-1366h-684zM82 14h655v1338h-655v-1338z" />
<glyph unicode="&#xa8;" horiz-adv-x="1126" d="M137 1690q0 76 52.5 128t127.5 52q74 0 126.5 -52.5t52.5 -129.5q0 -74 -52.5 -127.5t-128.5 -53.5q-74 0 -126 53.5t-52 129.5zM625 1692q0 76 53 129t131 53q76 0 128 -53.5t52 -128.5q0 -78 -52 -131.5t-128 -53.5q-78 0 -131 53.5t-53 131.5z" />
<glyph unicode="&#xa9;" d="M68 0v1366h684v-1366h-684zM82 14h655v1338h-655v-1338z" />
<glyph unicode="&#xaa;" d="M68 0v1366h684v-1366h-684zM82 14h655v1338h-655v-1338z" />
<glyph unicode="&#xab;" horiz-adv-x="1036" d="M82 676q0 18 8 45t21 43l133 199q20 31 52 48t66 17q31 0 57.5 -12t48 -32.5t34 -48.5t12.5 -56q0 -37 -20 -72l-82 -129l73 -113q25 -41 25 -92q0 -61 -42 -104t-103 -43q-37 0 -72 20.5t-57 52.5l-123 193q-31 47 -31 84zM524 682q0 16 6.5 37.5t16.5 36.5l131 202 q20 33 54 53.5t69 20.5q31 0 58.5 -12t49 -33.5t33.5 -49.5t12 -56q0 -33 -20 -68l-80 -131l80 -133q18 -31 18 -72q0 -61 -42 -104t-101 -43q-35 0 -71 18.5t-56 48.5l-121 185q-16 23 -26.5 51.5t-10.5 48.5z" />
<glyph unicode="&#xac;" d="M68 0v1366h684v-1366h-684zM82 14h655v1338h-655v-1338z" />
<glyph unicode="&#xad;" horiz-adv-x="729" d="M68 678q0 57 45 96q29 25 58.5 33t84.5 8h231q78 0 126.5 -37t48.5 -98q0 -66 -46.5 -104.5t-123.5 -38.5h-236q-59 0 -91 10t-61 41q-37 37 -36 90z" />
<glyph unicode="&#xae;" d="M68 0v1366h684v-1366h-684zM82 14h655v1338h-655v-1338z" />
<glyph unicode="&#xaf;" d="M68 0v1366h684v-1366h-684zM82 14h655v1338h-655v-1338z" />
<glyph unicode="&#xb0;" d="M68 0v1366h684v-1366h-684zM82 14h655v1338h-655v-1338z" />
<glyph unicode="&#xb1;" d="M68 0v1366h684v-1366h-684zM82 14h655v1338h-655v-1338z" />
<glyph unicode="&#xb4;" horiz-adv-x="655" d="M137 1614q0 29 20.5 73t65.5 117q37 63 69 88t79 25q61 0 105 -43t44 -102q0 -31 -18.5 -75t-61.5 -116q-41 -70 -71.5 -92.5t-79.5 -22.5q-63 0 -107.5 43t-44.5 105z" />
<glyph unicode="&#xb6;" d="M68 0v1366h684v-1366h-684zM82 14h655v1338h-655v-1338z" />
<glyph unicode="&#xb7;" horiz-adv-x="591" d="M82 684q0 43 16.5 82t46 67.5t68.5 45t82 16.5t83 -16.5t68.5 -46t46 -68.5t17.5 -82q0 -45 -17.5 -84t-46 -68.5t-67.5 -46t-84 -16.5q-43 0 -82 17.5t-68.5 47t-46 68.5t-16.5 84z" />
<glyph unicode="&#xb8;" d="M68 0v1366h684v-1366h-684zM82 14h655v1338h-655v-1338z" />
<glyph unicode="&#xba;" d="M68 0v1366h684v-1366h-684zM82 14h655v1338h-655v-1338z" />
<glyph unicode="&#xbb;" horiz-adv-x="1036" d="M82 479q0 37 18 68l80 131l-80 133q-18 31 -18 72q0 61 42 104t101 43q37 0 72 -18.5t55 -48.5l121 -185q16 -23 26.5 -51.5t10.5 -48.5q0 -16 -5 -38t-16 -36l-131 -203q-23 -35 -56.5 -54t-68.5 -19q-59 0 -105 46t-46 105zM520 479q0 33 23 72l80 129l-72 113 q-27 39 -27 90q0 61 43 104t103 43q37 0 71.5 -20.5t57.5 -53.5l125 -190q31 -47 30 -86q0 -18 -9 -45t-19 -43l-133 -199q-20 -29 -52 -47t-67 -18q-31 0 -58.5 12t-49 33.5t-34 48.5t-12.5 57z" />
<glyph unicode="&#xbf;" horiz-adv-x="1062" d="M55 487q0 199 129 328q63 61 145.5 96t166.5 35q227 0 237 -203q2 -47 -28.5 -97t-75.5 -66l-101 -39q-16 -8 -27.5 -22.5t-11.5 -33.5q0 -23 16.5 -39t41.5 -16q31 0 55 37q43 61 84 84.5t102 23.5q45 0 85 -16t71 -46t48.5 -68.5t17.5 -82.5q0 -74 -38 -141 t-102.5 -118.5t-148.5 -82t-176 -30.5q-104 0 -194.5 38t-156 104.5t-102.5 157.5t-37 197zM317 1186q0 45 16.5 84t46.5 67.5t68.5 45t83.5 16.5t84 -16.5t68 -46t45 -69.5t16 -85q0 -43 -17 -81t-46 -66.5t-68 -45t-84 -16.5q-43 0 -81.5 16.5t-68.5 46t-46.5 68.5 t-16.5 82z" />
<glyph unicode="&#xc0;" horiz-adv-x="1404" d="M37 215q0 57 29 119l428 907q29 63 84 99t122 36q70 0 125.5 -35.5t85.5 -101.5l430 -917q27 -51 27 -109q0 -47 -18.5 -87t-49 -70.5t-71.5 -48t-88 -17.5q-78 0 -130.5 42t-99.5 146h-417q-43 -100 -97.5 -144t-136.5 -44q-47 0 -88 17.5t-70.5 48t-47 71.5t-17.5 88z M450 1774q0 59 44 99t106 40q41 0 71.5 -19.5t65.5 -68.5q14 -20 31.5 -51t31.5 -62q16 -35 23.5 -59.5t7.5 -46.5q0 -27 -12 -52.5t-31.5 -46t-46.5 -33t-53 -12.5q-90 0 -144 97l-45 81q-27 49 -38 78t-11 56zM631 504h139l-70 164z" />
<glyph unicode="&#xc1;" horiz-adv-x="1404" d="M37 215q0 57 29 119l428 907q29 63 84 99t122 36q70 0 125.5 -35.5t85.5 -101.5l430 -917q27 -51 27 -109q0 -47 -18.5 -87t-49 -70.5t-71.5 -48t-88 -17.5q-78 0 -130.5 42t-99.5 146h-417q-43 -100 -97.5 -144t-136.5 -44q-47 0 -88 17.5t-70.5 48t-47 71.5t-17.5 88z M545 1614q0 29 20.5 73t65.5 117q37 63 69 88t79 25q61 0 105 -43t44 -102q0 -31 -18.5 -75t-61.5 -116q-41 -70 -71.5 -92.5t-79.5 -22.5q-63 0 -107.5 43t-44.5 105zM631 504h139l-70 164z" />
<glyph unicode="&#xc2;" horiz-adv-x="1404" d="M37 215q0 57 29 119l428 907q29 63 84 99t122 36q70 0 125.5 -35.5t85.5 -101.5l430 -917q27 -51 27 -109q0 -47 -18.5 -87t-49 -70.5t-71.5 -48t-88 -17.5q-78 0 -130.5 42t-99.5 146h-417q-43 -100 -97.5 -144t-136.5 -44q-47 0 -88 17.5t-70.5 48t-47 71.5t-17.5 88z M379 1618q0 33 19.5 68.5t50.5 60.5l155 123q51 43 103 43q66 0 129 -58l131 -118q63 -57 63 -129q0 -59 -44 -103.5t-101 -44.5q-27 0 -57.5 12.5t-53.5 30.5l-69 60l-72 -58q-49 -41 -104 -41q-31 0 -57.5 12.5t-47 34t-33 49t-12.5 58.5zM631 504h139l-70 164z" />
<glyph unicode="&#xc3;" horiz-adv-x="1404" d="M37 215q0 57 29 119l428 907q29 63 84 99t122 36q70 0 125.5 -35.5t85.5 -101.5l430 -917q27 -51 27 -109q0 -47 -18.5 -87t-49 -70.5t-71.5 -48t-88 -17.5q-78 0 -130.5 42t-99.5 146h-417q-43 -100 -97.5 -144t-136.5 -44q-47 0 -88 17.5t-70.5 48t-47 71.5t-17.5 88z M291 1634q2 49 22.5 91t54.5 73t78 48.5t93 17.5q72 0 143 -23l123 -41q18 -8 37 -8q27 0 49 16l62 43q16 10 53 11q51 0 87 -35t36 -84q0 -47 -20.5 -88t-55.5 -73t-81 -50.5t-97 -18.5q-88 0 -182 37l-72 27q-18 6 -39 6q-23 0 -37 -7t-49 -34q-23 -16 -40 -22.5t-40 -6.5 q-53 0 -91 36t-34 85zM631 504h139l-70 164z" />
<glyph unicode="&#xc4;" horiz-adv-x="1404" d="M37 215q0 57 29 119l428 907q29 63 84 99t122 36q70 0 125.5 -35.5t85.5 -101.5l430 -917q27 -51 27 -109q0 -47 -18.5 -87t-49 -70.5t-71.5 -48t-88 -17.5q-78 0 -130.5 42t-99.5 146h-417q-43 -100 -97.5 -144t-136.5 -44q-47 0 -88 17.5t-70.5 48t-47 71.5t-17.5 88z M278 1690q0 76 52.5 128t127.5 52q74 0 126.5 -52.5t52.5 -129.5q0 -74 -52.5 -127.5t-128.5 -53.5q-74 0 -126 53.5t-52 129.5zM631 504h139l-70 164zM766 1692q0 76 53 129t131 53q76 0 128 -53.5t52 -128.5q0 -78 -52 -131.5t-128 -53.5q-78 0 -131 53.5t-53 131.5z" />
<glyph unicode="&#xc5;" horiz-adv-x="1404" d="M37 215q0 57 29 119l428 907q29 63 84 99t122 36q70 0 125.5 -35.5t85.5 -101.5l430 -917q27 -51 27 -109q0 -47 -18.5 -87t-49 -70.5t-71.5 -48t-88 -17.5q-78 0 -130.5 42t-99.5 146h-417q-43 -100 -97.5 -144t-136.5 -44q-47 0 -88 17.5t-70.5 48t-47 71.5t-17.5 88z M506 1688q0 41 15.5 76.5t42 63t63.5 43t78 15.5t77 -15.5t63.5 -43t43 -64.5t15.5 -77q0 -41 -15.5 -78t-43 -64.5t-63.5 -43t-77 -15.5q-84 0 -141.5 59.5t-57.5 143.5zM631 504h139l-70 164zM664 1686q0 -18 11 -31t30 -13q16 0 29.5 13.5t13.5 30.5q0 18 -13.5 31.5 t-29.5 13.5q-18 0 -29.5 -13.5t-11.5 -31.5z" />
<glyph unicode="&#xc6;" horiz-adv-x="1769" d="M31 219q0 61 37 123l528 905q39 72 111 101q14 6 25 10t24.5 5t34 2t55.5 1h631q111 0 176 -58.5t65 -156.5q0 -94 -67 -152q-18 -16 -38 -27t-45.5 -17.5t-60 -8.5t-84.5 -2h-174v-92h150q102 0 145 -35q31 -23 48.5 -57.5t17.5 -73.5q0 -68 -49 -117q-29 -27 -64 -35 t-108 -8h-140v-102h211q68 0 109 -11.5t73 -37.5q74 -61 74 -162q0 -51 -22.5 -99t-61.5 -77q-31 -23 -63.5 -30t-104.5 -7h-389q-45 0 -75.5 2t-52 7t-39 14.5t-36.5 23.5q-31 25 -47 52.5t-30 76.5h-303q-27 -49 -42.5 -72.5t-33.5 -46.5q-63 -68 -154 -67q-47 0 -89 18.5 t-73.5 49t-50 72.5t-18.5 89zM670 500h125v235z" />
<glyph unicode="&#xc7;" horiz-adv-x="1466" d="M68 684q0 150 56 280t153.5 227t228.5 152.5t280 55.5q123 0 238 -39t207 -115q86 -70 134 -150.5t48 -152.5q0 -39 -19.5 -76t-51 -65.5t-72.5 -46t-84 -17.5q-45 0 -89 19.5t-73 52.5l-57 68q-31 35 -77 53t-97 18q-57 0 -107.5 -20.5t-87.5 -56t-58.5 -84 t-21.5 -103.5q0 -57 20.5 -106.5t57.5 -86t85 -57t103 -20.5q59 0 109.5 23.5t101.5 76.5q39 39 55.5 52.5t32.5 23.5q45 25 101 24q45 0 86 -17t71.5 -47t49 -70t18.5 -83q0 -51 -25.5 -104t-72.5 -104.5t-112.5 -96.5t-145.5 -78q6 -25 8 -38t2 -29q0 -33 -16.5 -63.5 t-59.5 -84.5l-63 -75q-45 -55 -86 -80t-84 -25q-37 0 -71 15.5t-59.5 41t-41 58.5t-15.5 69q0 49 62 134l30 40q-127 18 -234.5 82t-187 158t-124.5 214t-45 253z" />
<glyph unicode="&#xc8;" horiz-adv-x="1077" d="M106 260v57v742q0 43 1.5 69.5t3.5 44t6 29.5t10 29q14 39 44 67.5t65 44.5q18 8 32.5 12.5t34 6.5t49 3t78.5 1h270h78t45.5 -2t26.5 -4t22 -4q72 -18 114 -71.5t42 -125.5q0 -49 -19.5 -93t-54.5 -73q-31 -27 -69.5 -38t-102.5 -11h-225v-94h178q84 0 133.5 -45 t49.5 -117q0 -80 -60 -129q-27 -20 -56.5 -27.5t-82.5 -7.5h-162v-102h207q74 0 114 -11.5t74 -39.5q74 -63 74 -160q0 -47 -19.5 -91t-54.5 -73q-16 -14 -33.5 -23.5t-38 -14.5t-48 -7t-66.5 -2h-350q-78 0 -111 4t-61 14q-109 45 -129 164q-2 10 -4 19.5t-3.5 24 t-1.5 34.5zM340 1774q0 59 44 99t106 40q41 0 71.5 -19.5t65.5 -68.5q14 -20 31.5 -51t31.5 -62q16 -35 23.5 -59.5t7.5 -46.5q0 -27 -12 -52.5t-31.5 -46t-46.5 -33t-53 -12.5q-90 0 -144 97l-45 81q-27 49 -38 78t-11 56z" />
<glyph unicode="&#xc9;" horiz-adv-x="1077" d="M106 260v57v742q0 43 1.5 69.5t3.5 44t6 29.5t10 29q14 39 44 67.5t65 44.5q18 8 32.5 12.5t34 6.5t49 3t78.5 1h270h78t45.5 -2t26.5 -4t22 -4q72 -18 114 -71.5t42 -125.5q0 -49 -19.5 -93t-54.5 -73q-31 -27 -69.5 -38t-102.5 -11h-225v-94h178q84 0 133.5 -45 t49.5 -117q0 -80 -60 -129q-27 -20 -56.5 -27.5t-82.5 -7.5h-162v-102h207q74 0 114 -11.5t74 -39.5q74 -63 74 -160q0 -47 -19.5 -91t-54.5 -73q-16 -14 -33.5 -23.5t-38 -14.5t-48 -7t-66.5 -2h-350q-78 0 -111 4t-61 14q-109 45 -129 164q-2 10 -4 19.5t-3.5 24 t-1.5 34.5zM413 1614q0 29 20.5 73t65.5 117q37 63 69 88t79 25q61 0 105 -43t44 -102q0 -31 -18.5 -75t-61.5 -116q-41 -70 -71.5 -92.5t-79.5 -22.5q-63 0 -107.5 43t-44.5 105z" />
<glyph unicode="&#xca;" horiz-adv-x="1077" d="M106 260v57v742q0 43 1.5 69.5t3.5 44t6 29.5t10 29q14 39 44 67.5t65 44.5q18 8 32.5 12.5t34 6.5t49 3t78.5 1h270h78t45.5 -2t26.5 -4t22 -4q72 -18 114 -71.5t42 -125.5q0 -49 -19.5 -93t-54.5 -73q-31 -27 -69.5 -38t-102.5 -11h-225v-94h178q84 0 133.5 -45 t49.5 -117q0 -80 -60 -129q-27 -20 -56.5 -27.5t-82.5 -7.5h-162v-102h207q74 0 114 -11.5t74 -39.5q74 -63 74 -160q0 -47 -19.5 -91t-54.5 -73q-16 -14 -33.5 -23.5t-38 -14.5t-48 -7t-66.5 -2h-350q-78 0 -111 4t-61 14q-109 45 -129 164q-2 10 -4 19.5t-3.5 24 t-1.5 34.5zM205 1618q0 33 19.5 68.5t50.5 60.5l155 123q51 43 103 43q66 0 129 -58l131 -118q63 -57 63 -129q0 -59 -44 -103.5t-101 -44.5q-27 0 -57.5 12.5t-53.5 30.5l-69 60l-72 -58q-49 -41 -104 -41q-31 0 -57.5 12.5t-47 34t-33 49t-12.5 58.5z" />
<glyph unicode="&#xcb;" horiz-adv-x="1077" d="M106 260v57v742q0 43 1.5 69.5t3.5 44t6 29.5t10 29q14 39 44 67.5t65 44.5q18 8 32.5 12.5t34 6.5t49 3t78.5 1h270h78t45.5 -2t26.5 -4t22 -4q72 -18 114 -71.5t42 -125.5q0 -49 -19.5 -93t-54.5 -73q-31 -27 -69.5 -38t-102.5 -11h-225v-94h178q84 0 133.5 -45 t49.5 -117q0 -80 -60 -129q-27 -20 -56.5 -27.5t-82.5 -7.5h-162v-102h207q74 0 114 -11.5t74 -39.5q74 -63 74 -160q0 -47 -19.5 -91t-54.5 -73q-16 -14 -33.5 -23.5t-38 -14.5t-48 -7t-66.5 -2h-350q-78 0 -111 4t-61 14q-109 45 -129 164q-2 10 -4 19.5t-3.5 24 t-1.5 34.5zM112 1690q0 76 52.5 128t127.5 52q74 0 126.5 -52.5t52.5 -129.5q0 -74 -52.5 -127.5t-128.5 -53.5q-74 0 -126 53.5t-52 129.5zM600 1692q0 76 53 129t131 53q76 0 128 -53.5t52 -128.5q0 -78 -52 -131.5t-128 -53.5q-78 0 -131 53.5t-53 131.5z" />
<glyph unicode="&#xcc;" horiz-adv-x="661" d="M69 250v846q0 43 2.5 73.5t8.5 53t17 42t30 38.5q63 74 166 73q102 0 168 -71q35 -39 47 -82t12 -127v-846q0 -66 -13.5 -108t-43.5 -76q-33 -35 -78 -55.5t-90 -20.5q-47 0 -93 19.5t-75 51.5q-33 35 -45.5 76t-12.5 113zM69 1774q0 59 44 99t106 40q41 0 71.5 -19.5 t65.5 -68.5q14 -20 31.5 -51t31.5 -62q16 -35 23.5 -59.5t7.5 -46.5q0 -27 -12 -52.5t-31.5 -46t-46.5 -33t-53 -12.5q-90 0 -144 97l-45 81q-27 49 -38 78t-11 56z" />
<glyph unicode="&#xcd;" horiz-adv-x="661" d="M106 250v846q0 43 2.5 73.5t8.5 53t17 42t30 38.5q63 74 166 73q102 0 168 -71q35 -39 47 -82t12 -127v-846q0 -66 -13.5 -108t-43.5 -76q-33 -35 -78 -55.5t-90 -20.5q-47 0 -93 19.5t-75 51.5q-33 35 -45.5 76t-12.5 113zM192 1614q0 29 20.5 73t65.5 117q37 63 69 88 t79 25q61 0 105 -43t44 -102q0 -31 -18.5 -75t-61.5 -116q-41 -70 -71.5 -92.5t-79.5 -22.5q-63 0 -107.5 43t-44.5 105z" />
<glyph unicode="&#xce;" horiz-adv-x="661" d="M10 250v846q0 43 2.5 73.5t8.5 53t17 42t30 38.5q63 74 166 73q102 0 168 -71q35 -39 47 -82t12 -127v-846q0 -66 -13.5 -108t-43.5 -76q-33 -35 -78 -55.5t-90 -20.5q-47 0 -93 19.5t-75 51.5q-33 35 -45.5 76t-12.5 113zM10 1618q0 33 19.5 68.5t50.5 60.5l155 123 q51 43 103 43q66 0 129 -58l131 -118q63 -57 63 -129q0 -59 -44 -103.5t-101 -44.5q-27 0 -57.5 12.5t-53.5 30.5l-69 60l-72 -58q-49 -41 -104 -41q-31 0 -57.5 12.5t-47 34t-33 49t-12.5 58.5z" />
<glyph unicode="&#xcf;" horiz-adv-x="661" d="M-91 250v846q0 43 2.5 73.5t8.5 53t17 42t30 38.5q63 74 166 73q102 0 168 -71q35 -39 47 -82t12 -127v-846q0 -66 -13.5 -108t-43.5 -76q-33 -35 -78 -55.5t-90 -20.5q-47 0 -93 19.5t-75 51.5q-33 35 -45.5 76t-12.5 113zM-90 1690q0 76 52.5 128t127.5 52 q74 0 126.5 -52.5t52.5 -129.5q0 -74 -52.5 -127.5t-128.5 -53.5q-74 0 -126 53.5t-52 129.5zM398 1692q0 76 53 129t131 53q76 0 128 -53.5t52 -128.5q0 -78 -52 -131.5t-128 -53.5q-78 0 -131 53.5t-53 131.5z" />
<glyph unicode="&#xd1;" horiz-adv-x="1425" d="M106 270v865q0 111 65 176t171 65q49 0 89 -21.5t79 -68.5l358 -440v254q0 68 8.5 105.5t32.5 72.5q29 45 79 71.5t106 26.5q51 0 95 -21.5t77 -60.5q29 -37 41 -76.5t12 -103.5v-835q0 -82 -10.5 -124t-38.5 -81q-31 -41 -77 -62.5t-99 -21.5q-109 0 -179 92l-356 457 v-287q0 -68 -11 -105.5t-40 -74.5q-33 -39 -78 -60.5t-96 -21.5q-53 0 -100.5 23.5t-79.5 64.5q-29 39 -38.5 78t-9.5 114zM303 1634q2 49 22.5 91t54.5 73t78 48.5t93 17.5q72 0 143 -23l123 -41q18 -8 37 -8q27 0 49 16l62 43q16 10 53 11q51 0 87 -35t36 -84 q0 -47 -20.5 -88t-55.5 -73t-81 -50.5t-97 -18.5q-88 0 -182 37l-72 27q-18 6 -39 6q-23 0 -37 -7t-49 -34q-23 -16 -40 -22.5t-40 -6.5q-53 0 -91 36t-34 85z" />
<glyph unicode="&#xd2;" horiz-adv-x="1574" d="M68 690q0 147 56 276.5t153.5 225.5t228.5 151.5t280 55.5q150 0 281 -56.5t229.5 -152.5t154.5 -227.5t56 -278.5t-56 -278.5t-154.5 -229.5t-229.5 -154.5t-279 -56.5q-152 0 -282.5 56.5t-228 154.5t-153.5 230t-56 284zM504 1774q0 59 44 99t106 40q41 0 71.5 -19.5 t65.5 -68.5q14 -20 31.5 -51t31.5 -62q16 -35 23.5 -59.5t7.5 -46.5q0 -27 -12 -52.5t-31.5 -46t-46.5 -33t-53 -12.5q-90 0 -144 97l-45 81q-27 49 -38 78t-11 56zM520 684q0 -55 21.5 -105.5t57.5 -87t85 -58t104 -21.5t104.5 21.5t85.5 58t57.5 86t21.5 104.5 t-21.5 103.5t-57.5 84t-85 56t-105 20.5q-55 0 -104 -20.5t-85 -56t-57.5 -83t-21.5 -102.5z" />
<glyph unicode="&#xd3;" horiz-adv-x="1574" d="M68 690q0 147 56 276.5t153.5 225.5t228.5 151.5t280 55.5q150 0 281 -56.5t229.5 -152.5t154.5 -227.5t56 -278.5t-56 -278.5t-154.5 -229.5t-229.5 -154.5t-279 -56.5q-152 0 -282.5 56.5t-228 154.5t-153.5 230t-56 284zM520 684q0 -55 21.5 -105.5t57.5 -87t85 -58 t104 -21.5t104.5 21.5t85.5 58t57.5 86t21.5 104.5t-21.5 103.5t-57.5 84t-85 56t-105 20.5q-55 0 -104 -20.5t-85 -56t-57.5 -83t-21.5 -102.5zM641 1614q0 29 20.5 73t65.5 117q37 63 69 88t79 25q61 0 105 -43t44 -102q0 -31 -18.5 -75t-61.5 -116q-41 -70 -71.5 -92.5 t-79.5 -22.5q-63 0 -107.5 43t-44.5 105z" />
<glyph unicode="&#xd4;" horiz-adv-x="1574" d="M68 690q0 147 56 276.5t153.5 225.5t228.5 151.5t280 55.5q150 0 281 -56.5t229.5 -152.5t154.5 -227.5t56 -278.5t-56 -278.5t-154.5 -229.5t-229.5 -154.5t-279 -56.5q-152 0 -282.5 56.5t-228 154.5t-153.5 230t-56 284zM465 1618q0 33 19.5 68.5t50.5 60.5l155 123 q51 43 103 43q66 0 129 -58l131 -118q63 -57 63 -129q0 -59 -44 -103.5t-101 -44.5q-27 0 -57.5 12.5t-53.5 30.5l-69 60l-72 -58q-49 -41 -104 -41q-31 0 -57.5 12.5t-47 34t-33 49t-12.5 58.5zM520 684q0 -55 21.5 -105.5t57.5 -87t85 -58t104 -21.5t104.5 21.5t85.5 58 t57.5 86t21.5 104.5t-21.5 103.5t-57.5 84t-85 56t-105 20.5q-55 0 -104 -20.5t-85 -56t-57.5 -83t-21.5 -102.5z" />
<glyph unicode="&#xd5;" horiz-adv-x="1574" d="M68 690q0 147 56 276.5t153.5 225.5t228.5 151.5t280 55.5q150 0 281 -56.5t229.5 -152.5t154.5 -227.5t56 -278.5t-56 -278.5t-154.5 -229.5t-229.5 -154.5t-279 -56.5q-152 0 -282.5 56.5t-228 154.5t-153.5 230t-56 284zM377 1634q2 49 22.5 91t54.5 73t78 48.5 t93 17.5q72 0 143 -23l123 -41q18 -8 37 -8q27 0 49 16l62 43q16 10 53 11q51 0 87 -35t36 -84q0 -47 -20.5 -88t-55.5 -73t-81 -50.5t-97 -18.5q-88 0 -182 37l-72 27q-18 6 -39 6q-23 0 -37 -7t-49 -34q-23 -16 -40 -22.5t-40 -6.5q-53 0 -91 36t-34 85zM520 684 q0 -55 21.5 -105.5t57.5 -87t85 -58t104 -21.5t104.5 21.5t85.5 58t57.5 86t21.5 104.5t-21.5 103.5t-57.5 84t-85 56t-105 20.5q-55 0 -104 -20.5t-85 -56t-57.5 -83t-21.5 -102.5z" />
<glyph unicode="&#xd6;" horiz-adv-x="1574" d="M68 690q0 147 56 276.5t153.5 225.5t228.5 151.5t280 55.5q150 0 281 -56.5t229.5 -152.5t154.5 -227.5t56 -278.5t-56 -278.5t-154.5 -229.5t-229.5 -154.5t-279 -56.5q-152 0 -282.5 56.5t-228 154.5t-153.5 230t-56 284zM364 1690q0 76 52.5 128t127.5 52 q74 0 126.5 -52.5t52.5 -129.5q0 -74 -52.5 -127.5t-128.5 -53.5q-74 0 -126 53.5t-52 129.5zM520 684q0 -55 21.5 -105.5t57.5 -87t85 -58t104 -21.5t104.5 21.5t85.5 58t57.5 86t21.5 104.5t-21.5 103.5t-57.5 84t-85 56t-105 20.5q-55 0 -104 -20.5t-85 -56t-57.5 -83 t-21.5 -102.5zM852 1692q0 76 53 129t131 53q76 0 128 -53.5t52 -128.5q0 -78 -52 -131.5t-128 -53.5q-78 0 -131 53.5t-53 131.5z" />
<glyph unicode="&#xd8;" horiz-adv-x="1574" d="M66 674q0 152 56 284t153.5 230t229.5 154.5t283 56.5q41 0 76 -3t72 -12.5t79 -25t97 -37.5q55 45 92 61.5t80 16.5q45 0 86 -18.5t72 -49.5t49 -71.5t18 -85.5q0 -47 -16 -84t-63 -91q23 -53 37 -93t22 -74.5t11 -69.5t3 -74q0 -152 -56 -284t-154.5 -229 t-230.5 -153.5t-284 -56.5q-43 0 -77.5 3t-71.5 12.5t-78 24.5t-92 38q-47 -45 -83 -61.5t-83 -16.5q-45 0 -86 18.5t-72 50.5t-49 72.5t-18 86.5q0 43 16 77.5t59 87.5q-23 53 -38 94.5t-24 76t-12 69.5t-3 76zM516 684q0 -55 21.5 -105.5t57.5 -87t85 -58t104 -21.5 t104.5 21.5t85.5 58t57.5 86t21.5 104.5t-21.5 103.5t-58.5 85t-86 57t-105 20.5q-55 0 -103 -20.5t-84 -56t-57.5 -84t-21.5 -103.5z" />
<glyph unicode="&#xd9;" horiz-adv-x="1335" d="M92 594v481q0 49 2 81t7 54.5t14.5 41t23.5 36.5q33 41 81 64.5t97 23.5q47 0 91.5 -19.5t74.5 -51.5q35 -35 48.5 -79t13.5 -116v-539q0 -74 31.5 -115.5t91.5 -41.5q59 0 91 40t32 111v545q0 37 2 63.5t7 46t14 36t26 34.5q33 41 78 63.5t96 22.5q49 0 97 -22.5 t79 -59.5q16 -18 26.5 -37.5t16.5 -43t8 -56.5t2 -78v-485q0 -139 -34.5 -241.5t-108.5 -186.5q-84 -96 -196.5 -148.5t-235.5 -52.5q-137 0 -260 63.5t-205 174.5q-31 43 -52.5 84t-35 87t-18.5 99t-5 121zM395 1774q0 59 44 99t106 40q41 0 71.5 -19.5t65.5 -68.5 q14 -20 31.5 -51t31.5 -62q16 -35 23.5 -59.5t7.5 -46.5q0 -27 -12 -52.5t-31.5 -46t-46.5 -33t-53 -12.5q-90 0 -144 97l-45 81q-27 49 -38 78t-11 56z" />
<glyph unicode="&#xda;" horiz-adv-x="1335" d="M92 594v481q0 49 2 81t7 54.5t14.5 41t23.5 36.5q33 41 81 64.5t97 23.5q47 0 91.5 -19.5t74.5 -51.5q35 -35 48.5 -79t13.5 -116v-539q0 -74 31.5 -115.5t91.5 -41.5q59 0 91 40t32 111v545q0 37 2 63.5t7 46t14 36t26 34.5q33 41 78 63.5t96 22.5q49 0 97 -22.5 t79 -59.5q16 -18 26.5 -37.5t16.5 -43t8 -56.5t2 -78v-485q0 -139 -34.5 -241.5t-108.5 -186.5q-84 -96 -196.5 -148.5t-235.5 -52.5q-137 0 -260 63.5t-205 174.5q-31 43 -52.5 84t-35 87t-18.5 99t-5 121zM518 1614q0 29 20.5 73t65.5 117q37 63 69 88t79 25q61 0 105 -43 t44 -102q0 -31 -18.5 -75t-61.5 -116q-41 -70 -71.5 -92.5t-79.5 -22.5q-63 0 -107.5 43t-44.5 105z" />
<glyph unicode="&#xdb;" horiz-adv-x="1335" d="M92 594v481q0 49 2 81t7 54.5t14.5 41t23.5 36.5q33 41 81 64.5t97 23.5q47 0 91.5 -19.5t74.5 -51.5q35 -35 48.5 -79t13.5 -116v-539q0 -74 31.5 -115.5t91.5 -41.5q59 0 91 40t32 111v545q0 37 2 63.5t7 46t14 36t26 34.5q33 41 78 63.5t96 22.5q49 0 97 -22.5 t79 -59.5q16 -18 26.5 -37.5t16.5 -43t8 -56.5t2 -78v-485q0 -139 -34.5 -241.5t-108.5 -186.5q-84 -96 -196.5 -148.5t-235.5 -52.5q-137 0 -260 63.5t-205 174.5q-31 43 -52.5 84t-35 87t-18.5 99t-5 121zM344 1618q0 33 19.5 68.5t50.5 60.5l155 123q51 43 103 43 q66 0 129 -58l131 -118q63 -57 63 -129q0 -59 -44 -103.5t-101 -44.5q-27 0 -57.5 12.5t-53.5 30.5l-69 60l-72 -58q-49 -41 -104 -41q-31 0 -57.5 12.5t-47 34t-33 49t-12.5 58.5z" />
<glyph unicode="&#xdc;" horiz-adv-x="1335" d="M92 594v481q0 49 2 81t7 54.5t14.5 41t23.5 36.5q33 41 81 64.5t97 23.5q47 0 91.5 -19.5t74.5 -51.5q35 -35 48.5 -79t13.5 -116v-539q0 -74 31.5 -115.5t91.5 -41.5q59 0 91 40t32 111v545q0 37 2 63.5t7 46t14 36t26 34.5q33 41 78 63.5t96 22.5q49 0 97 -22.5 t79 -59.5q16 -18 26.5 -37.5t16.5 -43t8 -56.5t2 -78v-485q0 -139 -34.5 -241.5t-108.5 -186.5q-84 -96 -196.5 -148.5t-235.5 -52.5q-137 0 -260 63.5t-205 174.5q-31 43 -52.5 84t-35 87t-18.5 99t-5 121zM243 1690q0 76 52.5 128t127.5 52q74 0 126.5 -52.5t52.5 -129.5 q0 -74 -52.5 -127.5t-128.5 -53.5q-74 0 -126 53.5t-52 129.5zM731 1692q0 76 53 129t131 53q76 0 128 -53.5t52 -128.5q0 -78 -52 -131.5t-128 -53.5q-78 0 -131 53.5t-53 131.5z" />
<glyph unicode="&#xdf;" d="M68 0v1366h684v-1366h-684zM82 14h655v1338h-655v-1338z" />
<glyph unicode="&#xe0;" d="M68 0v1366h684v-1366h-684zM82 14h655v1338h-655v-1338z" />
<glyph unicode="&#xe1;" d="M68 0v1366h684v-1366h-684zM82 14h655v1338h-655v-1338z" />
<glyph unicode="&#xe2;" d="M68 0v1366h684v-1366h-684zM82 14h655v1338h-655v-1338z" />
<glyph unicode="&#xe3;" d="M68 0v1366h684v-1366h-684zM82 14h655v1338h-655v-1338z" />
<glyph unicode="&#xe4;" d="M68 0v1366h684v-1366h-684zM82 14h655v1338h-655v-1338z" />
<glyph unicode="&#xe5;" d="M68 0v1366h684v-1366h-684zM82 14h655v1338h-655v-1338z" />
<glyph unicode="&#xe6;" d="M68 0v1366h684v-1366h-684zM82 14h655v1338h-655v-1338z" />
<glyph unicode="&#xe7;" d="M68 0v1366h684v-1366h-684zM82 14h655v1338h-655v-1338z" />
<glyph unicode="&#xe8;" d="M68 0v1366h684v-1366h-684zM82 14h655v1338h-655v-1338z" />
<glyph unicode="&#xe9;" d="M68 0v1366h684v-1366h-684zM82 14h655v1338h-655v-1338z" />
<glyph unicode="&#xea;" d="M68 0v1366h684v-1366h-684zM82 14h655v1338h-655v-1338z" />
<glyph unicode="&#xeb;" d="M68 0v1366h684v-1366h-684zM82 14h655v1338h-655v-1338z" />
<glyph unicode="&#xec;" d="M68 0v1366h684v-1366h-684zM82 14h655v1338h-655v-1338z" />
<glyph unicode="&#xed;" d="M68 0v1366h684v-1366h-684zM82 14h655v1338h-655v-1338z" />
<glyph unicode="&#xee;" d="M68 0v1366h684v-1366h-684zM82 14h655v1338h-655v-1338z" />
<glyph unicode="&#xef;" d="M68 0v1366h684v-1366h-684zM82 14h655v1338h-655v-1338z" />
<glyph unicode="&#xf1;" d="M68 0v1366h684v-1366h-684zM82 14h655v1338h-655v-1338z" />
<glyph unicode="&#xf2;" d="M68 0v1366h684v-1366h-684zM82 14h655v1338h-655v-1338z" />
<glyph unicode="&#xf3;" d="M68 0v1366h684v-1366h-684zM82 14h655v1338h-655v-1338z" />
<glyph unicode="&#xf4;" d="M68 0v1366h684v-1366h-684zM82 14h655v1338h-655v-1338z" />
<glyph unicode="&#xf5;" d="M68 0v1366h684v-1366h-684zM82 14h655v1338h-655v-1338z" />
<glyph unicode="&#xf6;" d="M68 0v1366h684v-1366h-684zM82 14h655v1338h-655v-1338z" />
<glyph unicode="&#xf7;" d="M68 0v1366h684v-1366h-684zM82 14h655v1338h-655v-1338z" />
<glyph unicode="&#xf8;" d="M68 0v1366h684v-1366h-684zM82 14h655v1338h-655v-1338z" />
<glyph unicode="&#xf9;" d="M68 0v1366h684v-1366h-684zM82 14h655v1338h-655v-1338z" />
<glyph unicode="&#xfa;" d="M68 0v1366h684v-1366h-684zM82 14h655v1338h-655v-1338z" />
<glyph unicode="&#xfb;" d="M68 0v1366h684v-1366h-684zM82 14h655v1338h-655v-1338z" />
<glyph unicode="&#xfc;" d="M68 0v1366h684v-1366h-684zM82 14h655v1338h-655v-1338z" />
<glyph unicode="&#xff;" d="M68 0v1366h684v-1366h-684zM82 14h655v1338h-655v-1338z" />
<glyph unicode="&#x152;" horiz-adv-x="2033" d="M68 680q0 150 55 281t149.5 228t221.5 153.5t272 56.5q59 0 101 -7.5t96 -25.5h723q51 0 85.5 -2t59 -8t42 -15.5t34.5 -23.5q76 -66 75 -160q0 -47 -22.5 -92t-63.5 -76q-29 -23 -76.5 -32t-138.5 -9h-174v-100h135q41 0 68 -1t45.5 -5t31.5 -11.5t25 -19.5 q59 -49 60 -125q0 -39 -17.5 -75t-50.5 -60q-23 -16 -58.5 -22.5t-107.5 -6.5h-131v-104h174q49 0 82 -2t57.5 -7.5t42 -13.5t33.5 -22q39 -31 59.5 -73t20.5 -89q0 -51 -24.5 -97t-65.5 -77q-29 -20 -75 -28.5t-132 -8.5h-718q-29 -10 -52.5 -16.5t-47 -10.5t-47 -6 t-54.5 -2q-150 0 -266.5 49t-219.5 156q-100 104 -153 234.5t-53 275.5zM510 688q0 -55 22.5 -105.5t60.5 -88t88 -60t105 -22.5q57 0 107.5 21.5t87.5 59t58.5 88t21.5 109.5q0 57 -21.5 107.5t-58.5 87.5t-87 58.5t-108 21.5q-57 0 -107 -21.5t-88 -59.5t-59.5 -88.5 t-21.5 -107.5z" />
<glyph unicode="&#x153;" d="M68 0v1366h684v-1366h-684zM82 14h655v1338h-655v-1338z" />
<glyph unicode="&#x178;" horiz-adv-x="1230" d="M35 1157q0 45 17.5 85t48 69.5t70.5 47t87 17.5q59 0 110.5 -27.5t88.5 -78.5l157 -211l166 217q39 47 88.5 73.5t102.5 26.5q45 0 86 -17.5t71.5 -48t49 -71.5t18.5 -86q0 -68 -41 -131l-317 -457v-297q0 -63 -8.5 -100t-30.5 -72q-29 -49 -81 -77.5t-108 -28.5 q-55 0 -106 28.5t-82 75.5q-23 35 -31 72t-8 102v303l-303 449q-45 63 -45 137zM180 1690q0 76 52.5 128t127.5 52q74 0 126.5 -52.5t52.5 -129.5q0 -74 -52.5 -127.5t-128.5 -53.5q-74 0 -126 53.5t-52 129.5zM668 1692q0 76 53 129t131 53q76 0 128 -53.5t52 -128.5 q0 -78 -52 -131.5t-128 -53.5q-78 0 -131 53.5t-53 131.5z" />
<glyph unicode="&#x2c6;" horiz-adv-x="925" d="M137 1618q0 33 19.5 68.5t50.5 60.5l155 123q51 43 103 43q66 0 129 -58l131 -118q63 -57 63 -129q0 -59 -44 -103.5t-101 -44.5q-27 0 -57.5 12.5t-53.5 30.5l-69 60l-72 -58q-49 -41 -104 -41q-31 0 -57.5 12.5t-47 34t-33 49t-12.5 58.5z" />
<glyph unicode="&#x2dc;" horiz-adv-x="1110" d="M141 1634q2 49 22.5 91t54.5 73t78 48.5t93 17.5q72 0 143 -23l123 -41q18 -8 37 -8q27 0 49 16l62 43q16 10 53 11q51 0 87 -35t36 -84q0 -47 -20.5 -88t-55.5 -73t-81 -50.5t-97 -18.5q-88 0 -182 37l-72 27q-18 6 -39 6q-23 0 -37 -7t-49 -34q-23 -16 -40 -22.5 t-40 -6.5q-53 0 -91 36t-34 85z" />
<glyph unicode="&#x2000;" horiz-adv-x="958" />
<glyph unicode="&#x2001;" horiz-adv-x="1917" />
<glyph unicode="&#x2002;" horiz-adv-x="958" />
<glyph unicode="&#x2003;" horiz-adv-x="1917" />
<glyph unicode="&#x2004;" horiz-adv-x="639" />
<glyph unicode="&#x2005;" horiz-adv-x="479" />
<glyph unicode="&#x2006;" horiz-adv-x="319" />
<glyph unicode="&#x2007;" horiz-adv-x="319" />
<glyph unicode="&#x2008;" horiz-adv-x="239" />
<glyph unicode="&#x2009;" horiz-adv-x="383" />
<glyph unicode="&#x200a;" horiz-adv-x="106" />
<glyph unicode="&#x2010;" horiz-adv-x="729" d="M68 678q0 57 45 96q29 25 58.5 33t84.5 8h231q78 0 126.5 -37t48.5 -98q0 -66 -46.5 -104.5t-123.5 -38.5h-236q-59 0 -91 10t-61 41q-37 37 -36 90z" />
<glyph unicode="&#x2011;" horiz-adv-x="729" d="M68 678q0 57 45 96q29 25 58.5 33t84.5 8h231q78 0 126.5 -37t48.5 -98q0 -66 -46.5 -104.5t-123.5 -38.5h-236q-59 0 -91 10t-61 41q-37 37 -36 90z" />
<glyph unicode="&#x2012;" horiz-adv-x="729" d="M68 678q0 57 45 96q29 25 58.5 33t84.5 8h231q78 0 126.5 -37t48.5 -98q0 -66 -46.5 -104.5t-123.5 -38.5h-236q-59 0 -91 10t-61 41q-37 37 -36 90z" />
<glyph unicode="&#x2013;" horiz-adv-x="1314" d="M68 678q0 59 43 96q29 25 58.5 33t84.5 8h817q78 0 126 -37t48 -98q0 -66 -47 -104.5t-125 -38.5h-819q-59 0 -91 10t-61 41q-35 35 -34 90z" />
<glyph unicode="&#x2014;" horiz-adv-x="2185" d="M68 678q0 57 45 96q29 25 58.5 33t84.5 8h1688q78 0 125 -37t47 -98q0 -66 -46.5 -104.5t-123.5 -38.5h-1690q-59 0 -91 10t-61 41q-37 37 -36 90z" />
<glyph unicode="&#x2018;" horiz-adv-x="573" d="M84 989q0 74 53 174l43 82q39 72 70 101.5t72 29.5t70.5 -25.5t29.5 -60.5q0 -31 -23 -86q-2 -4 -3 -10t-5 -12q47 -31 72.5 -77t25.5 -99q0 -41 -17 -78t-45 -64.5t-65.5 -45t-76.5 -17.5t-75 16.5t-63.5 42t-45 59t-17.5 70.5z" />
<glyph unicode="&#x2019;" horiz-adv-x="573" d="M84 1171q0 39 17.5 77t45 65.5t64.5 45t78 17.5q39 0 74.5 -16.5t63.5 -42t45 -59t17 -70.5q0 -35 -13 -80t-40 -94l-43 -80q-39 -74 -69.5 -103.5t-71.5 -29.5t-70.5 26.5t-29.5 61.5q0 31 22 86q2 4 3 9t5 11q-47 31 -72.5 77t-25.5 99z" />
<glyph unicode="&#x201a;" d="M68 0v1366h684v-1366h-684zM82 14h655v1338h-655v-1338z" />
<glyph unicode="&#x201c;" horiz-adv-x="1073" d="M84 989q0 74 53 174l43 82q39 72 70 101.5t72 29.5t70.5 -25.5t29.5 -60.5q0 -31 -23 -86q-2 -4 -3 -10t-5 -12q47 -31 72.5 -77t25.5 -99q0 -41 -17 -78t-45 -64.5t-65.5 -45t-76.5 -17.5t-75 16.5t-63.5 42t-45 59t-17.5 70.5zM584 989q0 74 53 174l43 82 q37 72 68.5 101.5t72.5 29.5t71 -25.5t30 -60.5q0 -31 -23 -86q-2 -4 -3 -10t-5 -12q47 -31 72.5 -77t25.5 -99q0 -41 -17.5 -78t-46 -64.5t-65.5 -45t-78 -17.5q-37 0 -72.5 16.5t-63.5 42t-45 59t-17 70.5z" />
<glyph unicode="&#x201d;" horiz-adv-x="1073" d="M84 1171q0 39 17.5 77t45 65.5t64.5 45t78 17.5q39 0 74.5 -16.5t63.5 -42t45 -59t17 -70.5q0 -35 -13 -80t-40 -94l-43 -80q-39 -74 -69.5 -103.5t-71.5 -29.5t-70.5 26.5t-29.5 61.5q0 31 22 86q2 4 3 9t5 11q-47 31 -72.5 77t-25.5 99zM584 1171q0 39 17 77t45 65.5 t65 45t77 17.5q39 0 75 -16.5t63.5 -42t45 -59t17.5 -70.5q0 -35 -14 -80t-41 -94l-41 -80q-39 -74 -69.5 -103.5t-71.5 -29.5t-72 26.5t-31 61.5q0 14 7.5 36.5t17.5 49.5q2 4 3 9t5 11q-47 31 -72.5 77t-25.5 99z" />
<glyph unicode="&#x201e;" horiz-adv-x="1073" d="M84 233q0 39 17.5 77t45 65.5t64.5 45t78 17.5q39 0 74.5 -16t63.5 -43t45 -60.5t17 -68.5q0 -74 -53 -176l-43 -80q-39 -72 -69.5 -101.5t-71.5 -29.5t-70.5 25.5t-29.5 60.5q0 31 22 86q4 12 8 22q-47 31 -72.5 77t-25.5 99zM584 233q0 39 17 77t45 65.5t65 45t77 17.5 q39 0 75 -16t63.5 -43t45 -60.5t17.5 -68.5t-14 -80t-41 -96l-41 -80q-39 -72 -69.5 -101.5t-71.5 -29.5t-72 25.5t-31 60.5q0 16 7.5 37.5t17.5 48.5q4 12 8 22q-47 31 -72.5 77t-25.5 99z" />
<glyph unicode="&#x2022;" horiz-adv-x="794" d="M96 682q0 61 23.5 116.5t64.5 96.5t96.5 64.5t116.5 23.5q63 0 118.5 -23.5t96.5 -64.5t64.5 -96.5t23.5 -116.5t-23.5 -116.5t-64.5 -97.5t-96 -65.5t-119 -23.5q-61 0 -116.5 23.5t-96.5 65.5t-64.5 97.5t-23.5 116.5z" />
<glyph unicode="&#x2026;" horiz-adv-x="2048" d="M127 205q0 45 16.5 84t46 67.5t68.5 45t82 16.5q45 0 84 -16.5t67.5 -46t46 -68.5t17.5 -82q0 -45 -17.5 -84t-46 -68.5t-67.5 -46t-84 -16.5q-43 0 -82 16.5t-68.5 46t-46 68.5t-16.5 84zM811 205q0 90 61.5 151.5t151.5 61.5q43 0 83 -16.5t68.5 -46t46 -68.5t17.5 -82 q0 -45 -17.5 -84t-46 -68.5t-68.5 -46t-83 -16.5q-45 0 -84 16.5t-67.5 46t-45 68.5t-16.5 84zM1493 205q0 45 16.5 84t46 67.5t68.5 45t82 16.5t83 -16.5t68.5 -46t46 -68.5t17.5 -82q0 -45 -17.5 -84t-46 -68.5t-67.5 -46t-84 -16.5q-43 0 -82 16.5t-68.5 46t-46 68.5 t-16.5 84z" />
<glyph unicode="&#x202f;" horiz-adv-x="383" />
<glyph unicode="&#x2039;" horiz-adv-x="595" d="M82 676q0 18 8 45t21 43l133 199q20 31 52 48t66 17q31 0 57.5 -12t48 -32.5t34 -48.5t12.5 -56q0 -37 -20 -72l-82 -129l73 -113q25 -41 25 -92q0 -61 -42 -104t-103 -43q-37 0 -72 20.5t-57 52.5l-123 193q-31 47 -31 84z" />
<glyph unicode="&#x203a;" horiz-adv-x="595" d="M82 479q0 33 22 72l80 129l-71 113q-27 39 -27 90q0 61 42 104t103 43q37 0 72 -20.5t57 -53.5l125 -190q29 -45 29 -86q0 -18 -8 -45t-19 -43l-133 -199q-20 -29 -52 -47t-66 -18q-31 0 -58.5 12t-49.5 33.5t-34 48.5t-12 57z" />
<glyph unicode="&#x205f;" horiz-adv-x="479" />
<glyph unicode="&#x20ac;" horiz-adv-x="1368" d="M-61 688q0 47 21.5 87t59.5 63q35 20 65 22t69 2q31 115 95 213.5t154.5 170t201 112.5t233.5 41q47 0 92 -7.5t90 -17.5q201 -51 256 -176q23 -49 22 -94q0 -47 -17 -86t-46 -67.5t-69 -45t-85 -16.5q-16 0 -30.5 4t-26.5 8l-88 37q-47 18 -96 18q-129 0 -195 -94h148 q35 0 66.5 -4t62.5 -20q84 -45 84 -150q0 -47 -21.5 -87t-62.5 -62q-25 -14 -52.5 -19.5t-76.5 -5.5h-160q68 -109 201 -108q53 0 110 22l64 27q16 8 36.5 11t40.5 3q45 0 85 -16.5t70 -46t46.5 -69.5t16.5 -87q0 -45 -17 -80q-51 -115 -233 -172q-51 -16 -106.5 -24.5 t-108.5 -8.5q-125 0 -238 41t-203 115t-154.5 174t-90.5 219q-41 0 -74 5t-68 28t-53 60.5t-18 80.5z" />
<glyph unicode="&#x2122;" d="M68 0v1366h684v-1366h-684zM82 14h655v1338h-655v-1338z" />
<glyph unicode="&#x25fc;" horiz-adv-x="1361" d="M0 0v1362h1362v-1362h-1362z" />
<glyph unicode="&#xfb01;" d="M68 0v1366h684v-1366h-684zM82 14h655v1338h-655v-1338z" />
<glyph unicode="&#xfb02;" d="M68 0v1366h684v-1366h-684zM82 14h655v1338h-655v-1338z" />
</font>
</defs>
</svg>
