<?xml version="1.0" standalone="no"?>
<!DOCTYPE svg PUBLIC "-//W3C//DTD SVG 1.1//EN" "http://www.w3.org/Graphics/SVG/1.1/DTD/svg11.dtd" >
<svg xmlns="http://www.w3.org/2000/svg">
<metadata></metadata>
<defs>
<font id="frankfurter_mediumregular" horiz-adv-x="819" >
<font-face units-per-em="2048" ascent="1638" descent="-410" />
<missing-glyph horiz-adv-x="532" />
<glyph horiz-adv-x="0" />
<glyph unicode="&#xd;" horiz-adv-x="532" />
<glyph unicode=" "  horiz-adv-x="532" />
<glyph unicode="&#x09;" horiz-adv-x="532" />
<glyph unicode="&#xa0;" horiz-adv-x="532" />
<glyph unicode="!" horiz-adv-x="600" d="M123 158q0 74 52 125t126 51t125 -51.5t51 -124.5q0 -74 -51 -126t-125 -52t-126 52t-52 126zM158 575v31v588v33q2 72 40 115.5t103 43.5q66 0 104.5 -44t38.5 -115v-33v-588v-31q-2 -74 -39.5 -116.5t-103.5 -42.5t-104.5 44t-38.5 115z" />
<glyph unicode="&#x22;" horiz-adv-x="882" d="M123 1253q0 27 12 52.5t31.5 45t46.5 31t55 11.5q53 0 95.5 -40t42.5 -93q0 -12 -3.5 -25.5t-13.5 -50.5l-51 -197q-18 -70 -33.5 -95.5t-40.5 -25.5t-40 27t-36 98l-53 201q-8 29 -10 39t-2 22zM477 1253q0 27 12.5 52.5t32 45t46 31t55.5 11.5q55 0 96 -40t41 -93 q0 -12 -3 -25.5t-14 -50.5l-51 -197q-18 -70 -33.5 -95.5t-40.5 -25.5t-40 27t-35 98l-54 201q-8 29 -10 39t-2 22z" />
<glyph unicode="#" d="M68 0v1366h684v-1366h-684zM82 14h655v1338h-655v-1338z" />
<glyph unicode="$" horiz-adv-x="1122" d="M61 322q0 68 41 112.5t105 44.5q37 0 71.5 -15t77.5 -50q47 -39 78 -62.5t54.5 -36t44 -16.5t49.5 -4q70 0 115.5 43t45.5 106q0 66 -50 106t-167 68l-168 41q-125 31 -196.5 120t-71.5 212q0 92 37 171t102 130q35 27 71 46.5t95 41.5q2 33 6.5 52.5t12.5 37.5 q20 37 58 59.5t81 22.5q66 0 107.5 -43t48.5 -118l34 -13q70 -23 107 -42t72 -48q78 -72 77 -149q0 -61 -40.5 -105.5t-96.5 -44.5q-23 0 -45 7.5t-43 23.5q-6 4 -23.5 18.5t-45.5 36.5q-41 31 -76 44.5t-76 13.5q-66 0 -108 -35t-42 -90q0 -66 76 -99q16 -8 43 -15t96 -24 q233 -53 338 -155.5t105 -276.5q0 -78 -25.5 -148.5t-70.5 -127t-107.5 -96t-138.5 -56.5v-18q-4 -55 -13.5 -84t-31.5 -51q-49 -45 -113 -45q-74 0 -114.5 49t-40.5 139v4v6q-68 23 -110 40.5t-81 43.5q-154 98 -154 228z" />
<glyph unicode="%" horiz-adv-x="1544" d="M96 1065q0 63 24.5 120.5t66.5 100.5t98.5 67.5t122.5 24.5t123 -24.5t99 -66.5t66.5 -99.5t24.5 -120.5q0 -66 -24.5 -123t-66.5 -99t-99.5 -66.5t-120.5 -24.5q-66 0 -123.5 24.5t-99.5 66.5t-66.5 98t-24.5 122zM283 1067q0 -53 35.5 -90t89.5 -37q53 0 88.5 36 t35.5 89t-35.5 90t-88.5 37t-89 -37t-36 -88zM401 59q0 18 7.5 42t17.5 51l12 24l502 1077q35 72 61.5 99.5t65.5 27.5q35 0 56.5 -20.5t21.5 -54.5q0 -16 -7.5 -43t-17.5 -52l-8 -14l-506 -1087l-12 -27q-47 -100 -107 -100q-35 0 -60.5 23.5t-25.5 53.5zM821 301 q0 63 24.5 120.5t67.5 99.5t100 66.5t120 24.5q66 0 123 -24.5t100 -66.5t67.5 -99t24.5 -121q0 -66 -24.5 -123t-66.5 -99t-99.5 -66.5t-122.5 -24.5q-66 0 -122.5 24.5t-99.5 66.5t-67.5 99.5t-24.5 122.5zM1008 303q0 -53 36.5 -91t90.5 -38q53 0 89 37t36 90t-37 89 t-90 36q-51 0 -88 -36t-37 -87z" />
<glyph unicode="&#x26;" horiz-adv-x="1241" d="M61 459q0 111 40 191.5t128 146.5q-78 96 -77 217q0 76 34.5 144.5t93 121.5t135.5 85t160 32q96 0 181.5 -40t146.5 -114q41 -49 64.5 -102.5t23.5 -100.5q0 -55 -40 -95t-95 -40q-63 0 -102 49q-10 10 -14.5 22.5t-20.5 51.5q-39 98 -139 98q-59 0 -101.5 -38.5 t-42.5 -92.5q0 -23 5 -36t24 -39q25 -35 37 -48l334 -337q23 86 52.5 119.5t86.5 33.5q63 0 103 -48t40 -126q0 -41 -10 -77t-37 -99l-8 -21l61 -59l21 -20q53 -53 53 -109q0 -59 -41 -100t-100 -41q-25 0 -52.5 14t-52.5 37l-22 20l-25 25q-66 -55 -152.5 -86t-181.5 -31 q-109 0 -200.5 38t-161.5 104.5t-109 156.5t-39 193zM348 453q0 -94 63.5 -157t157.5 -63q43 0 76 10.5t68 39.5l-305 317q-33 -33 -46.5 -65.5t-13.5 -81.5z" />
<glyph unicode="'" horiz-adv-x="528" d="M123 1253q0 27 12 52.5t32.5 45t46.5 31t54 11.5q55 0 96.5 -40t41.5 -93q0 -12 -2.5 -25.5t-12.5 -50.5l-53 -197q-18 -70 -33.5 -95.5t-38.5 -25.5q-25 0 -41 27t-37 98l-53 201q-8 29 -10 39t-2 22z" />
<glyph unicode="(" horiz-adv-x="913" d="M150 702q0 80 18 168t51 174t78 164t98 140q43 47 99.5 95t113.5 85q47 29 77 40t60 11q57 0 99.5 -43t42.5 -102q0 -49 -23.5 -81t-85.5 -67q-78 -45 -139 -109.5t-106.5 -144.5t-69 -171t-23.5 -187q0 -193 91.5 -353.5t250.5 -252.5q53 -33 78 -65t25 -73 q0 -66 -42 -109.5t-102 -43.5q-70 0 -198 98q-193 145 -293 355t-100 472z" />
<glyph unicode=")" horiz-adv-x="913" d="M27 -78q0 49 23.5 81t84.5 67q76 45 138.5 109.5t107.5 144t68.5 171t23.5 187.5q0 193 -92 353.5t-250 252.5q-53 33 -77.5 64.5t-24.5 72.5q0 66 42 110t101 44q70 0 199 -98q193 -145 293 -355.5t100 -472.5q0 -80 -18.5 -168t-51 -173t-78 -162.5t-100.5 -139.5 q-41 -49 -97.5 -97t-113.5 -85q-47 -29 -76.5 -40t-60.5 -11q-59 0 -100 43t-41 102z" />
<glyph unicode="*" horiz-adv-x="890" d="M117 1126q0 39 21.5 63.5t56.5 24.5q23 0 49 -10l118 -43v146q0 35 24 57t60 22q37 0 60.5 -22.5t23.5 -56.5v-146l117 43q27 10 51 10q33 0 55.5 -25.5t22.5 -62.5q0 -31 -16.5 -49t-54.5 -33l-113 -40l76 -101q25 -35 24 -69q0 -35 -24.5 -58.5t-59.5 -23.5 q-47 0 -78 41l-84 116l-86 -116q-31 -41 -75 -41q-35 0 -60.5 23.5t-25.5 58.5q0 37 26 69l74 101l-113 40q-39 14 -54 33t-15 49z" />
<glyph unicode="+" d="M68 0v1366h684v-1366h-684zM82 14h655v1338h-655v-1338z" />
<glyph unicode="," horiz-adv-x="575" d="M109 152q0 37 14 68.5t37.5 56t56.5 39t70 14.5t68.5 -13.5t56 -37t39 -55t14.5 -68.5q0 -23 -6 -46.5t-17 -52.5l-65 -178q-18 -47 -39 -67.5t-53 -20.5q-35 0 -60.5 24.5t-25.5 55.5q0 20 16 70l16 39l-12 6q-111 53 -110 166z" />
<glyph unicode="-" horiz-adv-x="751" d="M137 541q0 61 42 99t110 38h30h111h31q70 -2 110.5 -39t40.5 -96q0 -61 -42 -99t-109 -38h-17h-125h-18q-78 0 -121 35.5t-43 99.5z" />
<glyph unicode="." horiz-adv-x="573" d="M109 158q0 74 51 125t125 51t126 -51.5t52 -124.5q0 -74 -52 -126t-126 -52t-125 52t-51 126z" />
<glyph unicode="/" horiz-adv-x="702" d="M16 -104q0 10 2 24t7 25l8 28l393 1473l8 29q31 109 125 108q53 0 89 -35t36 -88q0 -27 -6 -51l-4 -14l-398 -1485l-8 -31q-31 -106 -127 -106q-53 0 -89 34.5t-36 88.5z" />
<glyph unicode="0" horiz-adv-x="1529" d="M61 684q0 145 55.5 273t150.5 223.5t222.5 150.5t272.5 55q147 0 275 -55t224.5 -150.5t151.5 -223.5t55 -273t-55 -274t-150.5 -224.5t-223.5 -150.5t-273 -55t-274.5 55t-224.5 150.5t-150.5 224.5t-55.5 274zM371 688q0 -84 30.5 -155.5t84 -126t125 -85t153.5 -30.5 t152.5 30.5t124 84t84 125t30.5 153.5q0 80 -30.5 151.5t-84 125t-125 84t-153.5 30.5q-80 0 -150.5 -30.5t-125 -83t-85 -123t-30.5 -150.5z" />
<glyph unicode="1" horiz-adv-x="675" d="M-27 1223q0 63 44 103t116 40h31h184q176 0 176 -211v-958v-35q0 -82 -42 -129t-113 -47q-72 0 -115 49t-43 127v35v880l-47 2h-31q-74 0 -117 39t-43 105z" />
<glyph unicode="2" horiz-adv-x="1101" d="M61 901q0 100 38 188.5t103.5 154t152.5 104t186 38.5q104 0 193 -38.5t155.5 -105t104.5 -158t38 -195.5q0 -92 -33.5 -174t-99.5 -144l-299 -284h248h33q74 -2 116.5 -40t42.5 -104t-44 -104.5t-115 -38.5h-33h-559q-8 0 -16.5 1t-18.5 3l-74 16q-39 14 -64.5 50 t-25.5 75q0 25 16.5 62t36.5 55l519 510q59 59 59 129q0 33 -14.5 63.5t-38 54t-55 38t-66.5 14.5q-72 0 -122 -52t-50 -126l2 -37q0 -66 -45 -110t-111 -44q-74 0 -117 53.5t-43 145.5z" />
<glyph unicode="3" horiz-adv-x="1122" d="M47 455q0 76 46 125t118 49q66 0 107.5 -37t48.5 -96l2 -39q2 -35 18 -67t42 -54.5t57.5 -35.5t68.5 -13t70.5 14t59.5 39t40 56.5t14 66.5q0 61 -43 114.5t-104 73.5q-25 6 -38 10.5t-20.5 7.5t-10.5 6l-9 9q-12 12 -18.5 31.5t-6.5 42.5q0 68 46 88l51 26q29 16 47 43 t18 58q0 43 -31.5 74.5t-72.5 31.5q-76 0 -111 -102q-20 -53 -52 -75.5t-87 -22.5q-72 0 -117 46t-45 119q0 51 30 109.5t83 112.5q121 121 293 120q84 0 159.5 -30.5t134 -82.5t93.5 -122t35 -145q0 -59 -21 -110.5t-68 -104.5q41 -27 62.5 -44.5t40.5 -41.5 q39 -45 61.5 -110t22.5 -128q0 -98 -41 -186t-110.5 -155t-162 -106.5t-192.5 -39.5t-192.5 38.5t-162 104t-111.5 151.5t-42 181z" />
<glyph unicode="4" horiz-adv-x="1243" d="M68 463v127q0 27 14 64.5t37 66.5l24 31l340 477l21 28q37 57 78 83t96 26h45h137q59 0 86 -8t49 -33q41 -43 41 -139v-619h17q80 0 125 -37.5t45 -105.5q0 -39 -20.5 -74t-51.5 -51q-23 -10 -47.5 -14t-67.5 -4v-84v-35q-2 -80 -44 -128t-113 -48q-72 0 -114 49t-42 127 v35v84h-485q-8 0 -31 5t-43 11q-96 25 -96 166zM365 567h358v510z" />
<glyph unicode="5" horiz-adv-x="1089" d="M47 332q0 66 43 108.5t109 42.5q59 0 100 -37q8 -6 15.5 -17t27.5 -42q68 -102 174 -102q84 0 142.5 58t58.5 142q0 106 -87 166t-243 60q-29 0 -55.5 -1t-48.5 -3q-37 -6 -52 -7q-61 0 -98 34t-37 91v19q0 12 2 22l47 324l5 31q12 78 58 111.5t140 33.5h436h33 q72 -2 115 -40t43 -103q0 -66 -43 -105t-115 -39h-33h-342l-12 -94q29 4 45 4h37q111 0 205 -38t162.5 -105.5t108.5 -159.5t40 -199q0 -104 -40 -197t-109.5 -162t-161.5 -108.5t-199 -39.5q-207 0 -358 145q-113 106 -113 207z" />
<glyph unicode="6" horiz-adv-x="1183" d="M61 504q0 86 30 173t83 157l332 438l37 49q31 41 62.5 58.5t70.5 17.5q63 0 110.5 -45t47.5 -105q0 -27 -10.5 -56.5t-32.5 -57.5l-21 -27l-82 -115q96 -10 176 -51t137.5 -103.5t89 -146.5t31.5 -180q0 -111 -41 -207t-112.5 -169t-167.5 -113.5t-207 -40.5 q-109 0 -206 41.5t-170 112.5t-115 166t-42 204zM375 512q0 -45 17.5 -85t46 -69.5t68.5 -47t85 -17.5t84 17.5t68.5 47t47 68.5t17.5 84t-17.5 85t-47 68.5t-69.5 46t-85 17.5t-84 -17.5t-68.5 -46t-46 -68.5t-16.5 -83z" />
<glyph unicode="7" horiz-adv-x="950" d="M-14 1223q0 63 43 103t114 40h33h561q184 0 185 -178q0 -33 -6.5 -59.5t-22.5 -67.5l-373 -930l-12 -33q-49 -113 -150 -112q-31 0 -59.5 12t-50 31.5t-33.5 46t-12 57.5q0 37 16 80l14 33l332 833h-389h-33q-72 2 -114.5 40t-42.5 104z" />
<glyph unicode="8" horiz-adv-x="1105" d="M53 479q0 100 37 174t119 140q-23 31 -37 55t-23.5 47t-12.5 44.5t-3 47.5q0 80 34 152.5t91 128t133 87t160 31.5t160.5 -32.5t134 -88t91.5 -129t34 -155.5q0 -53 -16.5 -94t-57.5 -94q80 -57 117 -131t37 -179q0 -106 -38 -198t-105.5 -160t-159 -106.5t-195.5 -38.5 q-102 0 -193.5 39.5t-159 107.5t-107.5 159t-40 193zM375 467q0 -74 53 -127t127 -53q37 0 69.5 14t57.5 39t39 57.5t14 69.5q0 76 -52 129t-130 53q-74 0 -126 -53t-52 -129zM446 979q0 -47 31 -78t76 -31q43 0 73.5 31t30.5 74t-31.5 73.5t-72.5 30.5q-43 0 -75 -29.5 t-32 -70.5z" />
<glyph unicode="9" horiz-adv-x="1183" d="M61 856q0 111 41 207t113 169t168 113.5t207 40.5q109 0 205 -41.5t168.5 -113.5t115.5 -166t43 -201q0 -82 -30.5 -173t-83.5 -161l-334 -442q-47 -61 -78 -81.5t-76 -20.5q-31 0 -59.5 12t-50 32.5t-35 47t-13.5 57.5q0 27 10.5 56.5t33.5 56.5l20 28l70 97 q-98 12 -178 53t-137.5 103.5t-88.5 145.5t-31 181zM375 856q0 -45 17.5 -85t46 -68.5t68.5 -46t87 -17.5q43 0 83 16.5t68.5 46t46 68.5t17.5 84t-17.5 85t-47 69.5t-68.5 47t-84 17.5t-85 -17.5t-68.5 -47t-46 -68.5t-17.5 -84z" />
<glyph unicode=":" horiz-adv-x="573" d="M109 158q0 74 51 125t125 51t126 -51.5t52 -124.5q0 -74 -52 -126t-126 -52t-125 52t-51 126zM109 629q0 74 51 125t125 51t126 -51.5t52 -124.5q0 -74 -52 -126t-126 -52t-125 52t-51 126z" />
<glyph unicode=";" horiz-adv-x="575" d="M109 152q0 37 14 68.5t38.5 56t57.5 39t70 14.5t68.5 -13.5t55 -37t38 -55t14.5 -68.5q0 -43 -21 -99l-65 -178q-18 -47 -39 -67.5t-53 -20.5q-35 0 -60.5 24.5t-25.5 55.5q0 20 16 70l16 39l-12 6q-113 55 -112 166zM109 629q0 74 52 125t126 51t126 -51.5t52 -124.5 q0 -74 -52 -126t-126 -52t-126 52t-52 126z" />
<glyph unicode="&#x3c;" d="M68 0v1366h684v-1366h-684zM82 14h655v1338h-655v-1338z" />
<glyph unicode="=" d="M68 0v1366h684v-1366h-684zM82 14h655v1338h-655v-1338z" />
<glyph unicode="&#x3e;" d="M68 0v1366h684v-1366h-684zM82 14h655v1338h-655v-1338z" />
<glyph unicode="?" horiz-adv-x="1107" d="M61 946q0 59 31 134t78 132q70 82 168 128t209 46q100 0 189 -38.5t154.5 -105t104.5 -157t39 -192.5q0 -98 -39 -185t-104.5 -153t-153.5 -103.5t-186 -37.5q-76 0 -121 36.5t-45 100.5q0 59 35 92t112 45q223 35 224 213q0 43 -16.5 82t-46 68.5t-68.5 46t-82 16.5 q-164 0 -213 -201q-25 -111 -131 -110q-59 0 -98.5 40t-39.5 103zM383 158q0 74 51 125t125 51t126 -51.5t52 -124.5q0 -74 -52 -126t-126 -52t-125 52t-51 126z" />
<glyph unicode="@" d="M68 0v1366h684v-1366h-684zM82 14h655v1338h-655v-1338z" />
<glyph unicode="A" horiz-adv-x="1286" d="M0 141q0 39 23 88l14 31l452 1014q43 96 150 96q49 0 89 -24.5t60 -71.5l465 -1010q23 -49 29 -71.5t6 -51.5q0 -61 -47 -106t-111 -45q-104 0 -153 108l-14 33l-48 102h-548l-43 -100l-13 -31q-51 -110 -151 -110h-2q-63 0 -110.5 44t-47.5 105zM479 504h328l-166 393z " />
<glyph unicode="B" horiz-adv-x="1253" d="M150 182v37v928v37q0 182 180 182h37h317q195 0 301 -82q66 -51 101.5 -129t35.5 -170q0 -82 -26.5 -143.5t-85.5 -110.5q180 -119 180 -330q0 -109 -46 -197.5t-128 -142.5q-92 -61 -240 -61h-409h-37q-180 4 -180 182zM463 285h250q35 0 55 4t39 16q29 16 48 50t19 69 q0 66 -44 104.5t-115 38.5h-252v-282zM463 829h217q57 0 86 13q29 12 46 42.5t17 65.5q0 59 -39.5 93t-111.5 34h-215v-248z" />
<glyph unicode="C" horiz-adv-x="1361" d="M61 684q0 145 55.5 273t152 223.5t224.5 150.5t273 55q246 0 446 -163q59 -49 85 -88t26 -86q0 -63 -44 -107.5t-110 -44.5q-59 0 -114 49l-33 31q-51 47 -118.5 72.5t-139.5 25.5q-80 0 -151.5 -30.5t-124 -85t-83 -126t-30.5 -151.5t30.5 -151.5t85 -125t126 -84 t151.5 -30.5q66 0 133.5 23.5t108.5 60.5l55 51q51 49 117 49q63 0 108 -45t45 -108q0 -66 -73 -140q-94 -94 -226.5 -148t-267.5 -54q-145 0 -273 56t-224.5 151.5t-153 223.5t-56.5 273z" />
<glyph unicode="D" horiz-adv-x="1429" d="M150 182v37v928v37q4 182 182 182h37h264q158 0 265.5 -33t203.5 -108q127 -102 196.5 -243.5t69.5 -301.5q0 -88 -22.5 -173t-65.5 -160t-104.5 -138.5t-137.5 -110.5q-160 -98 -405 -98h-264h-37q-182 4 -182 182zM463 285h133q102 0 165.5 13t117.5 48q82 53 129 141 t47 193q0 88 -33 160.5t-93.5 124t-144.5 80t-186 28.5h-135v-788z" />
<glyph unicode="E" horiz-adv-x="1097" d="M150 182v37v928v37q4 182 182 182h37h499h33q72 -2 115 -40t43 -103q0 -66 -43 -105t-115 -39h-33h-405v-254h319h29q66 -2 105.5 -35.5t39.5 -93.5q0 -59 -39.5 -95t-105.5 -36h-29h-319v-278h416h32q72 -2 116 -40t44 -104t-44 -104.5t-116 -38.5h-32h-510h-37 q-182 4 -182 182z" />
<glyph unicode="F" horiz-adv-x="1095" d="M150 162v35v950v37q4 182 182 182h37h510h30q74 -2 117 -40t43 -103q0 -66 -44 -105t-116 -39h-30h-416v-266h321h29q66 -2 105.5 -37t39.5 -94q0 -57 -39.5 -93t-105.5 -36h-29h-321v-356v-35q0 -80 -42 -128t-114 -48t-114.5 49t-42.5 127z" />
<glyph unicode="G" horiz-adv-x="1411" d="M61 684q0 145 55.5 273t152 223.5t224.5 150.5t275 55q98 0 194.5 -28.5t182.5 -81.5q57 -37 80.5 -73t23.5 -83q0 -66 -44 -109.5t-109 -43.5q-16 0 -25.5 1t-21 6t-30 15t-48.5 31q-41 29 -94.5 44t-106.5 15q-82 0 -153.5 -31.5t-126 -85t-85 -126t-30.5 -152.5 q0 -84 32.5 -157.5t90 -128t136.5 -85t169 -30.5q78 0 131 24.5t76 69.5q16 33 16 108v23h-192h-31q-74 2 -117 40t-43 103q0 63 44 103.5t116 40.5h31h278h35q182 -4 182 -183v-37v-169q0 -66 -21.5 -126.5t-62.5 -107.5q-37 -43 -89 -78t-114.5 -60.5t-132 -39.5 t-137.5 -14q-145 0 -275 56t-226.5 151.5t-153 223.5t-56.5 273z" />
<glyph unicode="H" horiz-adv-x="1435" d="M150 162v35v972v35q2 80 44 127t113 47q72 0 114 -48t42 -126v-35v-331h510v331v35q0 80 42 127t113 47q72 0 115 -48t43 -126v-35v-972v-35q-4 -80 -45 -128t-113 -48t-113.5 49t-41.5 127v35v354h-510v-354v-35q0 -80 -42 -128t-114 -48t-114.5 49t-42.5 127z" />
<glyph unicode="I" horiz-adv-x="614" d="M150 162v35v972v35q2 80 44 127t113 47q72 0 114 -48t42 -126v-35v-972v-35q0 -80 -42 -128t-114 -48t-114.5 49t-42.5 127z" />
<glyph unicode="J" horiz-adv-x="1171" d="M33 475q0 78 43 127t112 49q59 0 103.5 -40t50.5 -99l4 -35q10 -82 64.5 -133t134.5 -51q57 0 105 28.5t71 75.5q8 16 13 30.5t8 33t4.5 43t1.5 61.5v604v35q2 80 44 127t113 47q70 0 113 -48t43 -126v-35v-639q0 -121 -22.5 -197.5t-80.5 -150.5q-155 -202 -407 -202h-2 q-104 0 -198.5 39.5t-165 107.5t-111.5 158t-41 190z" />
<glyph unicode="K" horiz-adv-x="1310" d="M150 162v35v972v35q2 80 44 127t113 47q72 0 114 -48t42 -126v-35v-325l459 459l22 24q59 57 121 57q66 0 112 -46t46 -111q0 -35 -18.5 -66t-65.5 -78l-389 -381l448 -413q53 -49 71.5 -79t18.5 -71q0 -66 -47 -111.5t-113 -45.5q-57 0 -116 55l-27 24l-522 492v-356 v-35q0 -80 -42 -128t-114 -48t-114.5 49t-42.5 127z" />
<glyph unicode="L" horiz-adv-x="1056" d="M150 182v37v950v35q2 80 44 127t113 47q72 0 114 -48t42 -126v-35v-882h375h32q72 -2 115 -40t43 -104t-43 -104.5t-115 -38.5h-32h-469h-37q-182 4 -182 182z" />
<glyph unicode="M" horiz-adv-x="1677" d="M63 143q0 12 1.5 27.5t5.5 28.5l8 32l239 1016q14 61 54.5 96t93.5 35q102 0 147 -118l222 -609l213 590q27 72 62.5 104.5t88.5 32.5q57 0 97 -35.5t57 -101.5l247 -1008l9 -32q6 -31 6 -62q0 -61 -45 -105t-109 -44q-59 0 -100 34.5t-57 100.5l-9 35l-133 547 l-182 -586l-10 -29q-16 -49 -52 -76.5t-81 -27.5q-102 0 -144 133l-180 586l-129 -547l-8 -33q-35 -137 -158 -137q-66 0 -110 44t-44 109z" />
<glyph unicode="N" horiz-adv-x="1482" d="M150 162v35v999q0 45 5 68.5t21 46.5q44 67 121 67h2q43 0 75 -18.5t72 -71.5l574 -723v604v35q2 80 44 127t112 47q72 0 114.5 -48t42.5 -126v-35v-983q0 -57 -4 -82.5t-20 -48.5q-23 -35 -61 -55t-81 -20t-72.5 19t-74.5 79l-557 715v-596v-35q0 -80 -42 -128t-114 -48 t-114.5 49t-42.5 127z" />
<glyph unicode="O" horiz-adv-x="1533" d="M61 682q0 145 55.5 274t150.5 224.5t223.5 150.5t273.5 55q135 0 266 -55t236 -155q100 -96 153.5 -224.5t53.5 -271.5q0 -145 -55.5 -272t-152 -222.5t-224.5 -150.5t-273 -55q-147 0 -275 55t-224.5 150.5t-152 223.5t-55.5 273zM373 680q0 -80 30.5 -151.5t85 -125 t126 -84t153.5 -30.5t152.5 30.5t124 84t84 124t30.5 152.5t-30.5 153.5t-84 125t-125 85t-151.5 31.5t-152.5 -31.5t-126 -85t-85 -126t-31.5 -152.5z" />
<glyph unicode="P" horiz-adv-x="1179" d="M150 162v35v950v37q0 182 180 182h37h231q41 0 90 -7t98 -18q184 -43 287 -208q37 -61 57.5 -131t20.5 -140t-19.5 -136.5t-56.5 -124.5t-88 -105t-115 -78q-55 -27 -110 -37t-148 -10h-151v-174v-35q-2 -80 -44 -128t-114 -48t-113.5 49t-41.5 127zM463 657h123 q70 0 99.5 5.5t57.5 21.5q47 27 76 75t29 101q0 57 -33 109.5t-84 77.5q-45 20 -145 20h-123v-410z" />
<glyph unicode="Q" horiz-adv-x="1562" d="M61 684q0 145 55.5 273t152 223.5t225.5 150.5t274 55q147 0 276.5 -56t225.5 -152.5t152.5 -225.5t56.5 -276q0 -90 -20.5 -169t-67.5 -169l61 -55l27 -23q65 -58 65 -125q0 -68 -45 -114t-110 -46q-57 0 -113 50l-27 22l-67 57q-102 -66 -200.5 -95t-207.5 -29 q-147 0 -277 55t-226.5 150.5t-153 224.5t-56.5 274zM377 684q0 -82 31.5 -153.5t85 -126t126 -85t154.5 -30.5q80 0 151.5 30.5t124 84t83 124t30.5 152.5q0 80 -30.5 152.5t-85 126t-125 85t-150.5 31.5q-82 0 -153.5 -30.5t-126 -84t-85 -125t-30.5 -151.5z" />
<glyph unicode="R" horiz-adv-x="1218" d="M150 162v35v950v37q4 182 182 182h37h211q121 0 200.5 -19.5t145.5 -62.5q106 -70 167.5 -181.5t61.5 -234.5q0 -143 -81 -247.5t-230 -157.5l233 -170q86 -66 86 -146q0 -66 -44 -112.5t-109 -46.5q-51 0 -109 45l-438 358v-194v-35q0 -80 -42 -128t-114 -48t-114.5 49 t-42.5 127zM463 662h119q70 0 107.5 7t66.5 23q45 29 70.5 75t25.5 99q0 59 -32 108.5t-85 76.5q-14 6 -27.5 10t-29.5 6t-41 3t-62 1h-112v-409z" />
<glyph unicode="S" horiz-adv-x="1122" d="M61 311q0 31 11.5 57.5t31 47t45 33t54.5 12.5q43 0 79.5 -17.5t88.5 -62.5q59 -55 110 -80t105 -25q70 0 116 42t46 106q0 53 -38 89t-122 60l-135 39q-156 45 -234 101q-61 41 -94 111.5t-33 160.5q0 88 35 162t97.5 127t150.5 82.5t192 29.5q88 0 167 -20t138.5 -56 t93 -84t33.5 -104q0 -59 -39.5 -102t-97.5 -43q-41 0 -78 27q-4 2 -22.5 17t-46.5 38q-81 65 -158 65h-2q-63 0 -108.5 -36.5t-45.5 -88.5q0 -51 36 -79.5t130 -51.5q90 -23 155.5 -44t117.5 -46q109 -51 165 -141t56 -209q0 -100 -36 -182t-102.5 -141.5t-157.5 -92 t-202 -32.5q-100 0 -191 26.5t-160 72.5t-110 106.5t-41 125.5z" />
<glyph unicode="T" horiz-adv-x="1140" d="M0 1223q0 63 44 103t116 40h30h758h33q72 -2 116 -40t44 -103q0 -66 -44 -105t-116 -39h-33h-221v-882v-35q-2 -80 -44 -128t-114 -48q-70 0 -112.5 49t-42.5 127v35v882h-224h-30q-74 2 -117 40t-43 104z" />
<glyph unicode="U" horiz-adv-x="1325" d="M109 532v637v35q0 80 42 127t113 47q72 0 115 -48t43 -126v-35v-637q0 -53 18.5 -98t50 -77.5t75.5 -52t96 -19.5q59 0 111 27.5t85 74.5q23 33 33 66.5t10 87.5v628v35q2 80 44 127t112 47q72 0 114.5 -48t42.5 -126v-35v-628q0 -119 -42 -221.5t-115.5 -178 t-174 -118.5t-216.5 -43q-117 0 -218.5 43t-177 117.5t-118.5 176t-43 215.5z" />
<glyph unicode="V" horiz-adv-x="1300" d="M27 1231q0 31 13 57.5t34.5 47t50.5 32.5t59 12q59 0 95 -31.5t69 -115.5l301 -752l305 754q33 84 69 114.5t95 30.5q31 0 58.5 -12t49 -32.5t34 -47t12.5 -57.5q0 -43 -19 -86l-14 -31l-436 -1001q-53 -119 -152 -119q-106 0 -157 119l-433 999l-14 31q-20 43 -20 88z " />
<glyph unicode="W" horiz-adv-x="1851" d="M25 1227q0 59 45 103t108 44t99 -34.5t63 -122.5l197 -644l229 695q16 49 58 78.5t100 29.5q53 0 93 -25.5t56 -68.5l242 -709l188 648q25 88 62 124.5t102 36.5q66 0 112 -44t46 -107q0 -37 -13 -70l-10 -33l-325 -1019q-41 -123 -150 -123q-51 0 -90 28.5t-57 79.5 l-254 719l-250 -719q-16 -51 -56 -79.5t-94 -28.5q-59 0 -93 28.5t-56 94.5l-332 1013l-10 33q-6 18 -8 36.5t-2 35.5z" />
<glyph unicode="X" horiz-adv-x="1220" d="M33 139q0 35 13 64.5t50 79.5l316 417l-295 383q-39 49 -52.5 78t-13.5 62q0 66 48 111.5t116 45.5q45 0 77 -22.5t79 -81.5l235 -315l246 313l22 29q58 77 136 77h2q31 0 60.5 -12t51 -33.5t34.5 -49.5t13 -56q0 -66 -63 -146l-305 -383l321 -419q35 -47 49.5 -78 t14.5 -66q0 -31 -13.5 -57.5t-35 -48t-51 -33.5t-60.5 -12q-45 0 -76.5 21.5t-79.5 80.5l-266 352l-254 -348q-47 -61 -79.5 -83.5t-79.5 -22.5q-31 0 -61 12t-51.5 33.5t-34.5 49.5t-13 58z" />
<glyph unicode="Y" horiz-adv-x="1181" d="M27 1227q0 61 46 107t111 46q78 0 138 -82l18 -28l250 -361l250 361l20 28q31 41 63.5 61.5t73.5 20.5q63 0 110.5 -46t47.5 -107q0 -51 -39 -107l-18 -28l-350 -508v-387v-35q-2 -80 -44 -128t-112 -48q-72 0 -115 49t-43 127v35v387l-350 508q-35 51 -46 77.5t-11 57.5 z" />
<glyph unicode="Z" horiz-adv-x="1181" d="M41 1223q0 63 44 103t116 40h30h672q47 0 75 -3t48 -11q41 -16 67.5 -58.5t26.5 -89.5q0 -53 -45 -114l-586 -803h461h33q72 -2 115 -40t43 -104t-43 -104.5t-115 -38.5h-33h-723q-86 0 -134 41t-48 115q0 55 37 106l594 817h-445h-30q-74 2 -117 40t-43 104z" />
<glyph unicode="[" horiz-adv-x="729" d="M190 -4v1364v37q4 182 183 182h37h116h33q74 -2 117 -40t43 -103q0 -66 -44 -105t-116 -39h-33h-63v-1229h76h30q74 -2 117 -39.5t43 -103.5t-44 -104.5t-116 -38.5h-30h-129q-84 0 -124 14t-69 55q-16 23 -21.5 53.5t-5.5 96.5z" />
<glyph unicode="\" horiz-adv-x="702" d="M16 1462q0 51 37 86t90 35q96 0 125 -108l8 -29l394 -1473l8 -28q6 -25 6 -54q0 -49 -36 -83.5t-89 -34.5q-96 0 -125 106l-8 31l-397 1485l-4 14q-4 14 -6.5 27.5t-2.5 25.5z" />
<glyph unicode="]" horiz-adv-x="729" d="M0 -80q0 66 44 104.5t116 38.5h30h76v1229h-65h-31q-74 2 -117 40t-43 104t44 104.5t116 38.5h33h116h37q182 -4 183 -182v-37v-1364q0 -70 -7.5 -101.5t-25.5 -56.5q-29 -35 -68 -48t-119 -13h-129h-30q-74 2 -117 40t-43 103z" />
<glyph unicode="^" d="M68 0v1366h684v-1366h-684zM82 14h655v1338h-655v-1338z" />
<glyph unicode="_" horiz-adv-x="1024" d="M0 -274h1024v-273h-1024v273z" />
<glyph unicode="`" horiz-adv-x="612" d="M135 1307q0 49 35 82.5t86 33.5q25 0 43 -9t41 -32l100 -104q37 -37 37 -84t-34.5 -82t-82.5 -35q-23 0 -45 9.5t-34 23.5l-113 119q-33 33 -33 78z" />
<glyph unicode="a" horiz-adv-x="1007" d="M55 332q0 76 28 141.5t76 113.5t112.5 75.5t140.5 27.5q51 0 99 -14t103 -43q0 76 -27.5 106.5t-92.5 30.5q-33 0 -74 -10l-66 -19q-29 -10 -48 -13t-36 -3q-47 0 -76.5 30.5t-29.5 78.5q0 80 90 128t235 48q100 0 183.5 -28t136.5 -81q47 -47 67 -121q18 -67 17 -170 v-22v-72v-311v-37q0 -53 -6 -79t-25 -50q-41 -53 -110 -53q-43 0 -73.5 19.5t-53.5 64.5q-59 -47 -114.5 -67.5t-117.5 -20.5q-72 0 -133 26.5t-107.5 74.5t-72 111.5t-25.5 137.5zM346 344q0 -59 39 -98t98 -39q57 0 94 38t37 95q0 59 -37.5 100t-97.5 41q-55 0 -94 -40 t-39 -97z" />
<glyph unicode="b" horiz-adv-x="1189" d="M123 164v1020v30q2 70 39 111t98 41q59 0 97 -42t38 -110v-30v-289q63 49 128 71.5t145 22.5q100 0 185 -39t147.5 -106.5t98.5 -159.5t36 -199q0 -109 -36 -202t-98.5 -160.5t-149.5 -105t-189 -37.5q-86 0 -149.5 23.5t-129.5 80.5q-33 -98 -129 -98q-37 0 -66.5 15 t-44.5 44q-12 23 -16 46.5t-4 72.5zM389 485q0 -49 18.5 -91t49 -72.5t72.5 -49t89 -18.5q49 0 91.5 18.5t73 50t49 73.5t18.5 91q0 47 -18.5 88t-50 72t-74 49.5t-89.5 18.5t-89 -18.5t-72.5 -49.5t-49 -73t-18.5 -89z" />
<glyph unicode="c" horiz-adv-x="1001" d="M55 487q0 102 40 194.5t108.5 161t160 108.5t193.5 40q78 0 154.5 -24.5t140.5 -67.5q55 -39 76.5 -70.5t21.5 -74.5q0 -57 -40 -96.5t-99 -39.5q-25 0 -41 6.5t-45 28.5q-45 35 -79 49.5t-77 14.5q-49 0 -93 -18.5t-75.5 -50.5t-50 -74t-18.5 -89q0 -49 18.5 -91 t50 -72.5t73.5 -49t91 -18.5q63 0 105 27q6 4 23.5 16t45.5 33q23 16 42.5 23t41.5 7q57 0 97.5 -39.5t40.5 -97.5q0 -45 -35 -88t-91.5 -77.5t-127 -56t-144.5 -21.5q-104 0 -197.5 39.5t-162 109.5t-108.5 162t-40 196z" />
<glyph unicode="d" horiz-adv-x="1189" d="M55 485q0 106 36 198.5t98.5 160t147.5 106.5t185 39q80 0 144.5 -22.5t128.5 -71.5v289v30q2 70 38.5 111t96.5 41q61 0 99 -42t38 -110v-30v-1020q0 -49 -4 -73.5t-16 -45.5q-16 -29 -45 -44t-66 -15q-94 0 -129 98q-66 -57 -129.5 -80.5t-149.5 -23.5 q-102 0 -189 37.5t-149.5 105t-98.5 161t-36 201.5zM340 487q0 -49 18.5 -91t49 -73.5t72.5 -50t91 -18.5q47 0 89 18.5t73 50t49.5 73.5t18.5 89t-18.5 89t-49.5 73t-73 49.5t-89 18.5t-89 -18.5t-73.5 -49.5t-50 -71.5t-18.5 -88.5z" />
<glyph unicode="e" horiz-adv-x="1024" d="M55 487q0 102 40 193.5t108.5 160t159 108.5t192.5 40q82 0 160 -27.5t137 -74.5t95 -108.5t36 -129.5q0 -45 -25.5 -74.5t-87.5 -58.5l-454 -201q63 -55 147 -55q41 0 79 13.5t79 43.5q25 18 44 25.5t42 7.5q59 0 98 -39t39 -96q0 -43 -24.5 -79t-77.5 -73 q-57 -41 -131 -62t-148 -21q-102 0 -194.5 40.5t-162 110.5t-110.5 162t-41 194zM336 516l348 150q-37 57 -121 57q-90 0 -154.5 -59.5t-72.5 -147.5z" />
<glyph unicode="f" horiz-adv-x="626" d="M6 846q0 55 38 89t99 34h9v24q0 47 2 81t7 59.5t11 46t16 39.5q37 72 102.5 109.5t153.5 37.5q53 0 100.5 -15.5t82.5 -41t55 -61.5t20 -74q0 -57 -36.5 -98.5t-87.5 -41.5q-29 0 -58 15l-28 16q-12 6 -23 6q-16 0 -28.5 -14.5t-14.5 -36.5q-2 -10 -2 -19v-32h49h27 q63 -2 100 -35t37 -88q0 -53 -38 -88t-99 -35h-27h-49v-555v-31q-2 -70 -39 -110.5t-98 -40.5t-98 42t-37 109v31v555q-145 10 -146 123z" />
<glyph unicode="g" horiz-adv-x="1118" d="M55 520q0 98 33 184.5t89 150t134 99t168 35.5q78 0 138.5 -20.5t130.5 -71.5q16 41 47.5 63.5t72.5 22.5q31 0 59.5 -14.5t47.5 -40.5q16 -23 21 -45.5t5 -65.5v-670q0 -113 -19 -189.5t-62 -129.5q-68 -84 -170.5 -129t-225.5 -45q-82 0 -155.5 18.5t-130 51t-89 75.5 t-32.5 90q0 55 38 94.5t93 39.5q31 0 55.5 -10.5t69.5 -43.5q47 -33 81.5 -46t82.5 -13q92 0 142 57.5t50 163.5v16q-59 -43 -116.5 -62t-129.5 -19q-92 0 -169.5 34.5t-135 96t-90.5 144.5t-33 179zM342 528q0 -86 57.5 -143t141.5 -57t141 57t57 141t-57 142.5t-141 58.5 q-41 0 -77 -15.5t-63.5 -42t-43 -63.5t-15.5 -78z" />
<glyph unicode="h" horiz-adv-x="1110" d="M123 137v31v1016v30q2 70 39 111t98 41t98 -42t37 -110v-18v-256q47 29 88 39t95 10q113 0 204.5 -48t147.5 -136q20 -31 32.5 -57.5t19.5 -57.5t10 -67.5t3 -87.5v-367v-31q-2 -70 -38.5 -110.5t-98.5 -40.5q-61 0 -98 42t-37 109v31v340q0 47 -5 71.5t-18 49.5 q-18 41 -57 63.5t-82 22.5q-41 0 -80 -21.5t-59 -56.5q-14 -25 -20.5 -54.5t-6.5 -74.5v-340v-31q-2 -70 -37.5 -110.5t-97.5 -40.5q-61 0 -99 42t-38 109z" />
<glyph unicode="i" horiz-adv-x="518" d="M94 1202q0 72 48 119t120 47q68 0 115 -47t47 -115t-48 -116t-118 -48q-33 0 -62.5 13.5t-52 35t-36 50t-13.5 61.5zM127 137v31v633v30q2 70 39 111t96 41q61 0 99 -42t38 -110v-30v-633v-31q-2 -70 -38.5 -110.5t-96.5 -40.5q-61 0 -99 42t-38 109z" />
<glyph unicode="j" horiz-adv-x="526" d="M-61 -205q0 72 65 113l53 35q66 41 66 194v664v30q2 70 39 111t98 41t98 -42t37 -110v-30v-649v-76v-70t-2 -45t-4 -31.5t-8 -31.5q-12 -49 -41 -93.5t-68 -77t-84 -51t-90 -18.5q-72 0 -115.5 39t-43.5 98zM102 1202q0 72 47 119t119 47q68 0 115 -47t47 -115t-48 -116 t-116 -48t-116 47.5t-48 112.5z" />
<glyph unicode="k" horiz-adv-x="1017" d="M123 137v31v1016v30q2 70 39 111t98 41t98 -42t37 -110v-30v-516l336 264l23 20q55 39 104 39q53 0 93 -42t40 -97q0 -72 -69 -121l-25 -18l-260 -189l278 -268q45 -43 60.5 -69.5t15.5 -61.5q0 -59 -42 -100t-101 -41q-53 0 -109 55l-20 22l-324 342v-235v-31 q-2 -70 -37.5 -110.5t-97.5 -40.5q-61 0 -99 42t-38 109z" />
<glyph unicode="l" horiz-adv-x="518" d="M123 137v31v1016v30q2 70 39 111t98 41t98 -42t37 -110v-18v-1028v-18v-8q1 -72 -33 -113q-36 -43 -102 -43q-61 0 -99 42t-38 109z" />
<glyph unicode="m" horiz-adv-x="1656" d="M117 137v31v410q0 84 33.5 158.5t91 131t134.5 89t163 32.5h3q148 0 287 -110q128 110 282 110h3q88 0 165 -33.5t135.5 -92t92 -137.5t33.5 -167v-391v-31q-2 -70 -38 -110.5t-97 -40.5t-99 42t-38 109v31v340q0 53 -3 78.5t-14 48.5q-16 39 -53 62.5t-82 23.5 q-41 0 -74.5 -19.5t-50.5 -54.5q-14 -29 -19 -57.5t-5 -81.5v-340v-31q0 -70 -37 -110.5t-99 -40.5q-61 0 -99 42t-38 109v31v340q0 74 -12 115q-12 45 -51 73.5t-88 28.5q-51 0 -89 -27.5t-53 -74.5q-8 -23 -10 -46.5t-2 -68.5v-340v-31q-2 -70 -39 -110.5t-98 -40.5 q-59 0 -97 42t-38 109z" />
<glyph unicode="n" horiz-adv-x="1112" d="M117 137v31v346q0 100 22.5 173t73.5 138q61 78 151.5 121t188.5 43q115 0 218 -58.5t165 -158.5q29 -47 44 -115.5t15 -150.5v-338v-31q-2 -70 -38.5 -110.5t-96.5 -40.5q-61 0 -99 42t-38 109v31v313q0 61 -4 88t-14 54q-18 41 -60.5 67.5t-89.5 26.5q-72 0 -119 -51.5 t-47 -124.5v-52v-321v-31q-2 -70 -39 -110.5t-98 -40.5q-59 0 -97 42t-38 109z" />
<glyph unicode="o" horiz-adv-x="1128" d="M55 475q0 109 40 203t108.5 162.5t161.5 108.5t202 40q104 0 196.5 -40t161 -108.5t108.5 -160.5t40 -199q0 -102 -40 -193t-109.5 -160t-161.5 -108.5t-197 -39.5q-104 0 -197.5 38.5t-162 106.5t-109.5 158t-41 192zM334 479q0 -45 18.5 -86t50 -71.5t73.5 -48 t89 -17.5t89 18.5t74 49t50.5 72.5t18.5 89q0 49 -18.5 91t-49.5 73t-73 49.5t-89 18.5q-49 0 -92 -18.5t-74.5 -50.5t-49 -75t-17.5 -94z" />
<glyph unicode="p" horiz-adv-x="1189" d="M123 -213v1020q0 49 4 73.5t16 45.5q33 57 111 57q96 0 129 -98q66 57 129 80.5t150 23.5q102 0 189 -38t149.5 -105.5t98.5 -160.5t36 -202t-36 -201t-98.5 -159.5t-147.5 -105t-185 -37.5q-80 0 -144.5 22.5t-128.5 73.5v-289v-31q-2 -72 -37.5 -111.5t-97.5 -39.5 q-61 0 -99 41t-38 110v31zM389 483q0 -47 18.5 -89t49 -72.5t72.5 -49t89 -18.5t89.5 18.5t74 49t50 71.5t18.5 88q0 49 -18.5 92t-49 74t-72.5 49.5t-92 18.5q-47 0 -89 -18.5t-72.5 -49.5t-49 -73t-18.5 -91z" />
<glyph unicode="q" horiz-adv-x="1189" d="M55 483q0 109 36 202t98.5 160.5t149.5 105.5t189 38q86 0 149.5 -23.5t129.5 -80.5q35 98 129 98q37 0 66.5 -15.5t44.5 -41.5q12 -23 16 -47.5t4 -71.5v-1020v-31q-2 -72 -39 -111.5t-98 -39.5q-59 0 -97 42t-38 109v31v289q-63 -51 -128 -73.5t-145 -22.5 q-100 0 -185 37.5t-147.5 105t-98.5 160t-36 200.5zM340 481q0 -47 18.5 -88t50 -71.5t73.5 -49t89 -18.5t89 18.5t73 49t49.5 72.5t18.5 89q0 49 -18.5 91t-49.5 73t-73 49.5t-89 18.5q-49 0 -91 -18.5t-72.5 -49.5t-49 -74t-18.5 -92z" />
<glyph unicode="r" horiz-adv-x="770" d="M123 137v31v616q0 31 1 50.5t2 33t5 23.5t10 20q41 72 117 72q84 0 125 -80q98 86 211 86q37 0 68.5 -13t55 -35.5t38 -53.5t14.5 -66q0 -68 -48 -115t-116 -47q-29 0 -44 6.5t-54 28.5q-31 18 -53 19q-33 0 -46.5 -29t-13.5 -96v-420v-31q-2 -70 -37.5 -110.5 t-97.5 -40.5q-61 0 -99 42t-38 109z" />
<glyph unicode="s" horiz-adv-x="913" d="M55 248q0 55 37 97t88 42q35 0 69 -17.5t75 -52.5q31 -27 52 -43t38.5 -25t34 -12.5t36.5 -3.5q41 0 68 20.5t27 51.5q0 49 -91 70q-57 14 -124.5 36.5t-110.5 43.5q-68 35 -109 100.5t-41 140.5q0 86 52.5 160t140.5 109q70 26 166 26q66 0 125 -15t103 -42t70.5 -61.5 t26.5 -73.5q0 -47 -36.5 -84t-85.5 -37q-27 0 -52.5 9t-64.5 32q-49 29 -69.5 38t-43.5 9t-37 -14.5t-14 -32.5q0 -35 35 -55.5t129 -45.5q70 -18 106.5 -31.5t69.5 -29.5q63 -35 98 -97.5t35 -140.5q0 -76 -28.5 -138t-81 -107t-125 -69.5t-158.5 -24.5q-80 0 -153.5 22.5 t-131 59t-91.5 85t-34 101.5z" />
<glyph unicode="t" horiz-adv-x="630" d="M14 846q0 123 147 123h9v145v31q2 72 39 111.5t98 39.5q59 0 97 -42t38 -109v-31v-145h31h29q61 -2 98 -35t37 -88q0 -53 -38 -88t-97 -35h-29h-31v-555v-31q-2 -70 -38.5 -110.5t-98.5 -40.5q-59 0 -97 42t-38 109v31v555h-14q-66 0 -104 32.5t-38 90.5z" />
<glyph unicode="u" horiz-adv-x="1112" d="M117 463v338v30q2 70 37.5 111t97.5 41q61 0 99 -42t38 -110v-30v-314q0 -61 4 -87.5t15 -51.5q18 -41 60 -68.5t89 -27.5q72 0 119 51t47 125v51v322v30q2 70 39 111t98 41q59 0 97 -42t38 -110v-30v-344q0 -100 -22.5 -174t-73.5 -138q-61 -78 -151.5 -121.5 t-188.5 -43.5q-115 0 -218 58t-165 159q-29 47 -44 116.5t-15 149.5z" />
<glyph unicode="v" horiz-adv-x="972" d="M14 856q0 53 40 90t93 37t83 -25.5t63 -95.5l196 -452l195 452q31 72 60.5 96.5t80.5 24.5q55 0 95.5 -37t40.5 -90q0 -39 -19 -76l-12 -28l-303 -666q-45 -100 -135 -100q-49 0 -79 22.5t-57 77.5l-311 664l-12 26q-18 43 -19 80z" />
<glyph unicode="w" horiz-adv-x="1413" d="M12 862q0 53 40 90t93 37q96 0 131 -106l9 -27l131 -401l153 417q23 59 54.5 87t85.5 28q94 0 133 -102l157 -430l121 393l8 31q39 110 134 110h2q55 0 96 -39t41 -94q0 -33 -12 -65l-11 -29l-237 -666q-23 -61 -52.5 -85.5t-80.5 -24.5q-53 0 -83 24.5t-57 85.5 l-161 404l-156 -402q-27 -66 -54.5 -89t-80.5 -23q-92 0 -125 86l-8 26l-248 670l-10 29q-12 33 -13 65z" />
<glyph unicode="x" horiz-adv-x="983" d="M25 125q0 29 14 56.5t49 68.5l225 256l-184 221q-35 41 -47 68.5t-12 58.5q0 53 41 92t100 39q37 0 63.5 -17.5t67.5 -64.5l154 -188l161 186q41 47 71 65.5t67 18.5q57 0 99 -42t42 -101q0 -29 -15.5 -57.5t-52.5 -69.5l-192 -209l219 -256q37 -41 50 -68.5t13 -56.5 q0 -57 -40.5 -99t-98.5 -42q-37 0 -66.5 19.5t-70.5 68.5l-186 227l-195 -231q-41 -47 -69.5 -65.5t-65.5 -18.5q-59 0 -100 41t-41 100z" />
<glyph unicode="y" horiz-adv-x="1003" d="M14 -158q0 53 36 93t85 40q31 0 58 -8l38 -10q20 -6 41 -6q49 0 80 82l29 73l-311 639l-15 27q-20 47 -20 82q0 53 42 91t95 38q88 0 131 -94l12 -27l201 -444l184 434l13 31q45 100 137 100q55 0 98 -41t43 -94q0 -23 -7 -46.5t-26 -62.5l-391 -823q-29 -59 -44 -86 t-38 -55q-41 -51 -102 -81t-127 -30q-49 0 -93 14.5t-77 39t-52.5 56t-19.5 68.5z" />
<glyph unicode="z" horiz-adv-x="897" d="M41 139q0 14 2 25.5t8 24t18.5 30t30.5 41.5l353 459h-220h-28q-63 2 -101 35.5t-38 89.5q0 57 38.5 91t100.5 34h28h447q76 0 122 -39t46 -105q0 -39 -35 -86l-375 -489h252h29q63 -2 100 -36t37 -89t-38 -90t-99 -35h-29h-487q-29 0 -47.5 3t-38.5 13q-33 16 -54.5 52 t-21.5 71z" />
<glyph unicode="{" d="M68 0v1366h684v-1366h-684zM82 14h655v1338h-655v-1338z" />
<glyph unicode="|" d="M68 0v1366h684v-1366h-684zM82 14h655v1338h-655v-1338z" />
<glyph unicode="}" d="M68 0v1366h684v-1366h-684zM82 14h655v1338h-655v-1338z" />
<glyph unicode="~" d="M68 0v1366h684v-1366h-684zM82 14h655v1338h-655v-1338z" />
<glyph unicode="&#xa1;" horiz-adv-x="600" d="M123 1208q0 74 52 126t126 52t125 -52t51 -126t-51 -125t-125 -51t-126 51.5t-52 124.5zM158 139v31v590v31q2 74 40 116.5t103 42.5q63 0 103 -44t40 -115v-31v-590v-31q-2 -74 -40.5 -116.5t-102.5 -42.5q-66 0 -104.5 44t-38.5 115z" />
<glyph unicode="&#xa2;" horiz-adv-x="1003" d="M55 745q0 84 27 161t74 140.5t112.5 110.5t145.5 70q2 98 33.5 138t103.5 40q76 0 107.5 -40t29.5 -138q47 -12 85 -28.5t79 -45.5q55 -39 75.5 -68.5t20.5 -74.5q0 -59 -40 -97.5t-101 -38.5q-23 0 -38 7.5t-44 27.5q-41 35 -78 49.5t-80 14.5q-49 0 -91 -18.5 t-74.5 -50.5t-51 -74t-18.5 -89t18.5 -89t50 -73.5t73.5 -50t91 -18.5q25 0 43.5 3t38 11t42 23.5t50.5 38.5q25 18 42.5 24t43.5 6q55 0 96.5 -40.5t41.5 -96.5q0 -35 -21.5 -68.5t-58.5 -64.5t-87.5 -54.5t-107.5 -37.5v-43q0 -51 -10 -79t-33 -46q-39 -33 -92 -33 q-41 0 -72.5 18.5t-46.5 49.5q-12 27 -16 53.5t-4 85.5q-74 29 -121 57.5t-90 71.5q-70 68 -109 163t-39 193z" />
<glyph unicode="&#xa3;" horiz-adv-x="1204" d="M47 655q0 61 43 103.5t109 42.5h12q-10 41 -13 67.5t-3 57.5q0 94 36.5 178t100 146.5t147.5 99t180 36.5q127 0 234.5 -65.5t175.5 -181.5q53 -96 53 -221q0 -90 -41 -143.5t-110 -53.5q-31 0 -64 13.5t-51 35.5q-20 18 -35 53q-12 25 -12 31l4 64v4t-2 10 q-10 61 -52 99t-102 38q-31 0 -57.5 -12.5t-48 -34t-33.5 -48t-12 -56.5q0 -12 3 -26.5t15 -66.5q2 -10 6 -24h29h33q74 -2 117 -41t43 -105t-44 -104.5t-116 -38.5h-25h-14q0 -61 -20.5 -119.5t-55.5 -105.5h508h33q74 -2 117 -40t43 -104t-44 -104.5t-116 -38.5h-31h-618 h-33q-80 4 -129 45t-49 107q0 31 9 69.5t32 104.5q16 49 25 76.5t14.5 46t7.5 32t4 31.5h-14q-59 0 -94.5 11.5t-57.5 35.5q-37 47 -37 96z" />
<glyph unicode="&#xa4;" d="M68 0v1366h684v-1366h-684zM82 14h655v1338h-655v-1338z" />
<glyph unicode="&#xa5;" horiz-adv-x="1181" d="M27 1227q0 63 46 108t111 45q47 0 83 -25.5t73 -84.5l250 -389l250 389q39 59 74.5 84.5t80.5 25.5q66 0 113 -45t47 -108q0 -53 -57 -135l-211 -287h18q78 0 123 -38t45 -105q0 -63 -45 -105q-23 -23 -54.5 -31t-90.5 -8h-135v-321v-35q-2 -82 -44 -129t-112 -47 q-72 0 -115 49t-43 127v35v321h-133h-31q-74 4 -116.5 42t-42.5 102q0 68 45 105.5t123 37.5h16l-211 287q-57 82 -57 135z" />
<glyph unicode="&#xa7;" d="M68 0v1366h684v-1366h-684zM82 14h655v1338h-655v-1338z" />
<glyph unicode="&#xa8;" horiz-adv-x="974" d="M137 1231q0 66 47 112t113 46t110 -45.5t44 -108.5q0 -66 -45.5 -111t-110.5 -45q-66 0 -112 45t-46 107zM526 1231q0 66 47 112t113 46t110 -45.5t44 -108.5q0 -66 -45 -111t-111 -45t-112 45t-46 107z" />
<glyph unicode="&#xa9;" d="M68 0v1366h684v-1366h-684zM82 14h655v1338h-655v-1338z" />
<glyph unicode="&#xaa;" d="M68 0v1366h684v-1366h-684zM82 14h655v1338h-655v-1338z" />
<glyph unicode="&#xab;" horiz-adv-x="890" d="M33 547q0 16 9 38.5t24 43.5l108 159l14 23q45 66 109 66q49 0 85 -36t36 -83q0 -37 -27 -80l-14 -23l-70 -108l70 -109l16 -22q27 -47 27 -84q0 -47 -37 -83t-88 -36q-41 0 -66.5 18.5t-60.5 71.5l-92 139l-15 23q-29 47 -28 82zM442 547q0 16 9.5 38.5t23.5 43.5 l109 159l14 23q45 66 109 66q49 0 84.5 -36t35.5 -83q0 -37 -26 -80l-15 -23l-69 -108l69 -109l17 -22q27 -47 26 -84q0 -47 -36.5 -83t-87.5 -36q-41 0 -67 18.5t-60 71.5l-93 139l-14 23q-29 47 -29 82z" />
<glyph unicode="&#xac;" d="M68 0v1366h684v-1366h-684zM82 14h655v1338h-655v-1338z" />
<glyph unicode="&#xad;" horiz-adv-x="751" d="M137 541q0 61 42 99t110 38h30h111h31q70 -2 110.5 -39t40.5 -96q0 -61 -42 -99t-109 -38h-17h-125h-18q-78 0 -121 35.5t-43 99.5z" />
<glyph unicode="&#xae;" d="M68 0v1366h684v-1366h-684zM82 14h655v1338h-655v-1338z" />
<glyph unicode="&#xaf;" d="M68 0v1366h684v-1366h-684zM82 14h655v1338h-655v-1338z" />
<glyph unicode="&#xb0;" d="M68 0v1366h684v-1366h-684zM82 14h655v1338h-655v-1338z" />
<glyph unicode="&#xb1;" d="M68 0v1366h684v-1366h-684zM82 14h655v1338h-655v-1338z" />
<glyph unicode="&#xb4;" horiz-adv-x="612" d="M135 1194q0 47 37 84l100 104q23 23 41.5 32t44.5 9q49 0 84 -34.5t35 -83.5q0 -43 -33 -76l-112 -119q-12 -14 -35 -23.5t-45 -9.5q-47 0 -82 35t-35 82z" />
<glyph unicode="&#xb6;" d="M68 0v1366h684v-1366h-684zM82 14h655v1338h-655v-1338z" />
<glyph unicode="&#xb7;" horiz-adv-x="573" d="M109 682q0 74 51 126t125 52t126 -52t52 -126t-52 -125t-126 -51t-125 51t-51 125z" />
<glyph unicode="&#xb8;" d="M68 0v1366h684v-1366h-684zM82 14h655v1338h-655v-1338z" />
<glyph unicode="&#xba;" d="M68 0v1366h684v-1366h-684zM82 14h655v1338h-655v-1338z" />
<glyph unicode="&#xbb;" horiz-adv-x="890" d="M61 332q0 18 8.5 40.5t20.5 43.5l14 22l70 109l-70 108l-14 23q-27 43 -27 80q0 47 37 83t86 36q66 0 109 -66l14 -23l109 -159q14 -20 22.5 -43t8.5 -39q0 -39 -27 -82l-14 -23l-95 -139q-35 -53 -60.5 -71.5t-64.5 -18.5q-51 0 -89 36t-38 83zM473 332q0 41 27 84 l14 22l70 109l-70 108l-14 23q-27 43 -27 80q0 47 37 83t86 36q66 0 109 -66l14 -23l108 -159q14 -20 22.5 -43t8.5 -39q0 -39 -27 -82l-14 -23l-94 -139q-35 -53 -60.5 -71.5t-64.5 -18.5q-51 0 -88 36t-37 83z" />
<glyph unicode="&#xbf;" horiz-adv-x="1107" d="M76 471q0 98 38 185t104.5 154t154.5 104.5t186 37.5q76 0 120 -36.5t44 -100.5q0 -59 -35 -93t-113 -44q-221 -35 -221 -213q0 -45 16.5 -84t45 -67.5t67.5 -45t82 -16.5q168 0 213 201q25 111 131 110q59 0 98.5 -41t39.5 -102t-31 -135t-78 -133q-68 -82 -167 -127 t-210 -45q-100 0 -188 38.5t-154.5 105t-104.5 156t-38 191.5zM373 1208q0 74 51 126t125 52t126 -52t52 -126t-52 -125t-126 -51t-125 51.5t-51 124.5z" />
<glyph unicode="&#xc0;" horiz-adv-x="1286" d="M0 141q0 39 23 88l14 31l452 1014q43 96 150 96q49 0 89 -24.5t60 -71.5l465 -1010q23 -49 29 -71.5t6 -51.5q0 -61 -47 -106t-111 -45q-104 0 -153 108l-14 33l-48 102h-548l-43 -100l-13 -31q-51 -111 -153 -110q-63 0 -110.5 44t-47.5 105zM403 1690q0 49 35 82.5 t86 33.5q25 0 43 -9t41 -32l100 -104q37 -37 37 -84t-34.5 -82t-82.5 -35q-23 0 -45 9.5t-34 23.5l-113 119q-33 33 -33 78zM479 504h328l-166 393z" />
<glyph unicode="&#xc1;" horiz-adv-x="1286" d="M0 141q0 39 23 88l14 31l452 1014q43 96 150 96q49 0 89 -24.5t60 -71.5l465 -1010q23 -49 29 -71.5t6 -51.5q0 -61 -47 -106t-111 -45q-104 0 -153 108l-14 33l-48 102h-548l-43 -100l-13 -31q-51 -111 -153 -110q-63 0 -110.5 44t-47.5 105zM479 504h328l-166 393z M502 1577q0 47 37 84l100 104q23 23 41.5 32t44.5 9q49 0 84 -34.5t35 -83.5q0 -43 -33 -76l-112 -119q-12 -14 -35 -23.5t-45 -9.5q-47 0 -82 35t-35 82z" />
<glyph unicode="&#xc2;" horiz-adv-x="1286" d="M0 141q0 39 23 88l14 31l452 1014q43 96 150 96q49 0 89 -24.5t60 -71.5l465 -1010q23 -49 29 -71.5t6 -51.5q0 -61 -47 -106t-111 -45q-104 0 -153 108l-14 33l-48 102h-548l-43 -100l-13 -31q-51 -111 -153 -110q-63 0 -110.5 44t-47.5 105zM385 1573q0 20 7.5 39.5 t19.5 30.5l153 141q10 10 33 16.5t41 6.5q23 0 44.5 -6.5t33.5 -16.5l139 -121q41 -35 41 -92q0 -47 -32.5 -81t-82.5 -34q-39 0 -67 23l-72 59l-69 -59q-10 -10 -31 -16.5t-41 -6.5q-47 0 -82 34t-35 83zM479 504h328l-166 393z" />
<glyph unicode="&#xc3;" horiz-adv-x="1286" d="M0 141q0 39 23 88l14 31l452 1014q43 96 150 96q49 0 89 -24.5t60 -71.5l465 -1010q23 -49 29 -71.5t6 -51.5q0 -61 -47 -106t-111 -45q-104 0 -153 108l-14 33l-48 102h-548l-43 -100l-13 -31q-51 -111 -153 -110q-63 0 -110.5 44t-47.5 105zM334 1575q0 37 16.5 69.5 t44 58.5t62.5 41t74 15q29 0 51.5 -6t65.5 -24q55 -27 94 -27q29 0 45 8l41 23q25 10 39 10q35 0 62.5 -28.5t27.5 -65.5t-17.5 -71t-46 -59.5t-66.5 -41t-79 -15.5q-25 0 -46.5 6.5t-60.5 22.5q-35 16 -57 22.5t-41 6.5q-29 0 -43 -11l-39 -20q-20 -10 -39 -10 q-37 0 -62.5 27.5t-25.5 68.5zM479 504h328l-166 393z" />
<glyph unicode="&#xc4;" horiz-adv-x="1286" d="M0 141q0 39 23 88l14 31l452 1014q43 96 150 96q49 0 89 -24.5t60 -71.5l465 -1010q23 -49 29 -71.5t6 -51.5q0 -61 -47 -106t-111 -45q-104 0 -153 108l-14 33l-48 102h-548l-43 -100l-13 -31q-51 -111 -153 -110q-63 0 -110.5 44t-47.5 105zM295 1618q0 66 47 112 t113 46t110 -45.5t44 -108.5q0 -66 -45.5 -111t-110.5 -45q-66 0 -112 45t-46 107zM479 504h328l-166 393zM684 1618q0 66 47 112t113 46t110 -45.5t44 -108.5q0 -66 -45 -111t-111 -45t-112 45t-46 107z" />
<glyph unicode="&#xc5;" horiz-adv-x="1286" d="M0 141q0 39 23 88l14 31l452 1014q43 96 150 96q49 0 89 -24.5t60 -71.5l465 -1010q23 -49 29 -71.5t6 -51.5q0 -61 -47 -106t-111 -45q-104 0 -153 108l-14 33l-48 102h-548l-43 -100l-13 -31q-51 -111 -153 -110q-63 0 -110.5 44t-47.5 105zM452 1634q0 80 55.5 135.5 t135.5 55.5q39 0 73.5 -14.5t60 -40t40 -60.5t14.5 -74t-15.5 -72.5t-41 -59t-60 -40t-73.5 -14.5t-73 14.5t-59.5 40t-41 59t-15.5 70.5zM479 504h328l-166 393zM548 1634q0 -35 27 -61.5t66 -26.5t66.5 27t27.5 63q0 39 -26.5 66t-65.5 27q-41 0 -68 -27t-27 -68z" />
<glyph unicode="&#xc6;" horiz-adv-x="1730" d="M-2 129q0 20 6 43t16 41l15 25l559 1042q27 47 59.5 66.5t89.5 19.5h756q45 0 70.5 -4t48.5 -16q33 -16 52.5 -49t19.5 -74q0 -145 -191 -146h-403v-252h319q45 0 65.5 -3t43.5 -13q29 -14 46 -46t17 -67t-18.5 -67.5t-46.5 -44.5q-16 -8 -44 -13.5t-63 -5.5h-319v-278 h415q43 0 71 -4t50 -15q31 -16 51.5 -51t20.5 -76q0 -39 -20.5 -73.5t-51.5 -49.5q-18 -8 -53 -13t-68 -5h-510q-37 0 -63.5 2t-45 7t-32.5 14.5t-29 23.5q-29 29 -39 61.5t-10 98.5v96h-360l-113 -219q-51 -104 -155 -104q-66 0 -111 43t-45 106zM555 567h227v445z" />
<glyph unicode="&#xc7;" horiz-adv-x="1361" d="M61 682q0 147 55.5 275t150.5 223.5t224.5 150.5t274.5 55q143 0 277.5 -57t228.5 -160q29 -33 40 -58.5t11 -57.5q0 -66 -44 -111t-110 -45q-33 0 -59.5 11.5t-54.5 39.5l-33 31q-51 45 -118.5 70.5t-139.5 25.5q-80 0 -151.5 -30.5t-124 -84t-83 -125t-30.5 -153.5 q0 -80 30.5 -151.5t85 -125t126 -84t151.5 -30.5q66 0 133.5 24.5t108.5 61.5l55 49q53 51 117 51q63 0 108 -45t45 -108q0 -55 -47 -113.5t-139 -116.5q-145 -94 -313 -110q41 -35 41 -90q0 -47 -33 -82l-119 -125q-14 -16 -37.5 -24.5t-48.5 -8.5q-51 0 -86 36t-35 87 q0 49 37 86l107 112q4 2 6 5.5t6 7.5q-131 18 -243 80.5t-193.5 155.5t-129 211t-47.5 247z" />
<glyph unicode="&#xc8;" horiz-adv-x="1097" d="M150 182v37v928v37q4 182 182 182h37h499h33q72 -2 115 -40t43 -103q0 -66 -43 -105t-115 -39h-33h-405v-254h319h29q66 -2 105.5 -35.5t39.5 -93.5q0 -59 -39.5 -95t-105.5 -36h-29h-319v-278h416h32q72 -2 116 -40t44 -104t-44 -104.5t-116 -38.5h-32h-510h-37 q-182 4 -182 182zM401 1690q0 49 35 82.5t86 33.5q25 0 43 -9t41 -32l100 -104q37 -37 37 -84t-34.5 -82t-82.5 -35q-23 0 -45 9.5t-34 23.5l-113 119q-33 33 -33 78z" />
<glyph unicode="&#xc9;" horiz-adv-x="1097" d="M150 182v37v928v37q4 182 182 182h37h499h33q72 -2 115 -40t43 -103q0 -66 -43 -105t-115 -39h-33h-405v-254h319h29q66 -2 105.5 -35.5t39.5 -93.5q0 -59 -39.5 -95t-105.5 -36h-29h-319v-278h416h32q72 -2 116 -40t44 -104t-44 -104.5t-116 -38.5h-32h-510h-37 q-182 4 -182 182zM502 1577q0 47 37 84l100 104q23 23 41.5 32t44.5 9q49 0 84 -34.5t35 -83.5q0 -43 -33 -76l-112 -119q-12 -14 -35 -23.5t-45 -9.5q-47 0 -82 35t-35 82z" />
<glyph unicode="&#xca;" horiz-adv-x="1097" d="M150 182v37v928v37q4 182 182 182h37h499h33q72 -2 115 -40t43 -103q0 -66 -43 -105t-115 -39h-33h-405v-254h319h29q66 -2 105.5 -35.5t39.5 -93.5q0 -59 -39.5 -95t-105.5 -36h-29h-319v-278h416h32q72 -2 116 -40t44 -104t-44 -104.5t-116 -38.5h-32h-510h-37 q-182 4 -182 182zM336 1579q0 20 7.5 39.5t19.5 30.5l153 141q10 10 33 16.5t41 6.5q23 0 44.5 -6.5t33.5 -16.5l139 -121q41 -35 41 -92q0 -47 -32.5 -81t-82.5 -34q-39 0 -67 23l-72 59l-69 -59q-10 -10 -31 -16.5t-41 -6.5q-47 0 -82 34t-35 83z" />
<glyph unicode="&#xcb;" horiz-adv-x="1097" d="M150 182v37v928v37q4 182 182 182h37h499h33q72 -2 115 -40t43 -103q0 -66 -43 -105t-115 -39h-33h-405v-254h319h29q66 -2 105.5 -35.5t39.5 -93.5q0 -59 -39.5 -95t-105.5 -36h-29h-319v-278h416h32q72 -2 116 -40t44 -104t-44 -104.5t-116 -38.5h-32h-510h-37 q-182 4 -182 182zM233 1614q0 66 47 112t113 46t110 -45.5t44 -108.5q0 -66 -45.5 -111t-110.5 -45q-66 0 -112 45t-46 107zM622 1614q0 66 47 112t113 46t110 -45.5t44 -108.5q0 -66 -45 -111t-111 -45t-112 45t-46 107z" />
<glyph unicode="&#xcc;" horiz-adv-x="614" d="M121 162v35v972v35q2 80 44 127t113 47q72 0 114 -48t42 -126v-35v-972v-35q0 -80 -42 -128t-114 -48t-114.5 49t-42.5 127zM121 1690q0 49 35 82.5t86 33.5q25 0 43 -9t41 -32l100 -104q37 -37 37 -84t-34.5 -82t-82.5 -35q-23 0 -45 9.5t-34 23.5l-113 119 q-33 33 -33 78z" />
<glyph unicode="&#xcd;" horiz-adv-x="614" d="M147 1577q0 47 37 84l100 104q23 23 41.5 32t44.5 9q49 0 84 -34.5t35 -83.5q0 -43 -33 -76l-112 -119q-12 -14 -35 -23.5t-45 -9.5q-47 0 -82 35t-35 82zM150 162v35v972v35q2 80 44 127t113 47q72 0 114 -48t42 -126v-35v-972v-35q0 -80 -42 -128t-114 -48t-114.5 49 t-42.5 127z" />
<glyph unicode="&#xce;" horiz-adv-x="614" d="M57 1579q0 20 7.5 39.5t19.5 30.5l153 141q10 10 33 16.5t41 6.5q23 0 44.5 -6.5t33.5 -16.5l139 -121q41 -35 41 -92q0 -47 -32.5 -81t-82.5 -34q-39 0 -67 23l-72 59l-69 -59q-10 -10 -31 -16.5t-41 -6.5q-47 0 -82 34t-35 83zM58 162v35v972v35q2 80 44 127t113 47 q72 0 114 -48t42 -126v-35v-972v-35q0 -80 -42 -128t-114 -48t-114.5 49t-42.5 127z" />
<glyph unicode="&#xcf;" horiz-adv-x="614" d="M-37 1614q0 66 47 112t113 46t110 -45.5t44 -108.5q0 -66 -45.5 -111t-110.5 -45q-66 0 -112 45t-46 107zM-36 162v35v972v35q2 80 44 127t113 47q72 0 114 -48t42 -126v-35v-972v-35q0 -80 -42 -128t-114 -48t-114.5 49t-42.5 127zM352 1614q0 66 47 112t113 46 t110 -45.5t44 -108.5q0 -66 -45 -111t-111 -45t-112 45t-46 107z" />
<glyph unicode="&#xd1;" horiz-adv-x="1482" d="M150 162v35v999q0 45 5 68.5t21 46.5q45 68 123 67q43 0 75 -18.5t72 -71.5l574 -723v604v35q2 80 44 127t112 47q72 0 114.5 -48t42.5 -126v-35v-983q0 -57 -4 -82.5t-20 -48.5q-23 -35 -61 -55t-81 -20t-72.5 19t-74.5 79l-557 715v-596v-35q0 -80 -42 -128t-114 -48 t-114.5 49t-42.5 127zM430 1569q0 37 16.5 69.5t44 58.5t62.5 41t74 15q29 0 51.5 -6t65.5 -24q55 -27 94 -27q29 0 45 8l41 23q25 10 39 10q35 0 62.5 -28.5t27.5 -65.5t-17.5 -71t-46 -59.5t-66.5 -41t-79 -15.5q-25 0 -46.5 6.5t-60.5 22.5q-35 16 -57 22.5t-41 6.5 q-29 0 -43 -11l-39 -20q-20 -10 -39 -10q-37 0 -62.5 27.5t-25.5 68.5z" />
<glyph unicode="&#xd2;" horiz-adv-x="1533" d="M61 682q0 145 55.5 274t150.5 224.5t223.5 150.5t273.5 55q135 0 266 -55t236 -155q100 -96 153.5 -224.5t53.5 -271.5q0 -145 -55.5 -272t-152 -222.5t-224.5 -150.5t-273 -55q-147 0 -275 55t-224.5 150.5t-152 223.5t-55.5 273zM373 680q0 -80 30.5 -151.5t85 -125 t126 -84t153.5 -30.5t152.5 30.5t124 84t84 124t30.5 152.5t-30.5 153.5t-84 125t-125 85t-151.5 31.5t-152.5 -31.5t-126 -85t-85 -126t-31.5 -152.5zM528 1690q0 49 35 82.5t86 33.5q25 0 43 -9t41 -32l100 -104q37 -37 37 -84t-34.5 -82t-82.5 -35q-23 0 -45 9.5 t-34 23.5l-113 119q-33 33 -33 78z" />
<glyph unicode="&#xd3;" horiz-adv-x="1533" d="M61 682q0 145 55.5 274t150.5 224.5t223.5 150.5t273.5 55q135 0 266 -55t236 -155q100 -96 153.5 -224.5t53.5 -271.5q0 -145 -55.5 -272t-152 -222.5t-224.5 -150.5t-273 -55q-147 0 -275 55t-224.5 150.5t-152 223.5t-55.5 273zM373 680q0 -80 30.5 -151.5t85 -125 t126 -84t153.5 -30.5t152.5 30.5t124 84t84 124t30.5 152.5t-30.5 153.5t-84 125t-125 85t-151.5 31.5t-152.5 -31.5t-126 -85t-85 -126t-31.5 -152.5zM639 1577q0 47 37 84l100 104q23 23 41.5 32t44.5 9q49 0 84 -34.5t35 -83.5q0 -43 -33 -76l-112 -119 q-12 -14 -35 -23.5t-45 -9.5q-47 0 -82 35t-35 82z" />
<glyph unicode="&#xd4;" horiz-adv-x="1533" d="M61 682q0 145 55.5 274t150.5 224.5t223.5 150.5t273.5 55q135 0 266 -55t236 -155q100 -96 153.5 -224.5t53.5 -271.5q0 -145 -55.5 -272t-152 -222.5t-224.5 -150.5t-273 -55q-147 0 -275 55t-224.5 150.5t-152 223.5t-55.5 273zM373 680q0 -80 30.5 -151.5t85 -125 t126 -84t153.5 -30.5t152.5 30.5t124 84t84 124t30.5 152.5t-30.5 153.5t-84 125t-125 85t-151.5 31.5t-152.5 -31.5t-126 -85t-85 -126t-31.5 -152.5zM506 1579q0 20 7.5 39.5t19.5 30.5l153 141q10 10 33 16.5t41 6.5q23 0 44.5 -6.5t33.5 -16.5l139 -121q41 -35 41 -92 q0 -47 -32.5 -81t-82.5 -34q-39 0 -67 23l-72 59l-69 -59q-10 -10 -31 -16.5t-41 -6.5q-47 0 -82 34t-35 83z" />
<glyph unicode="&#xd5;" horiz-adv-x="1533" d="M61 682q0 145 55.5 274t150.5 224.5t223.5 150.5t273.5 55q135 0 266 -55t236 -155q100 -96 153.5 -224.5t53.5 -271.5q0 -145 -55.5 -272t-152 -222.5t-224.5 -150.5t-273 -55q-147 0 -275 55t-224.5 150.5t-152 223.5t-55.5 273zM373 680q0 -80 30.5 -151.5t85 -125 t126 -84t153.5 -30.5t152.5 30.5t124 84t84 124t30.5 152.5t-30.5 153.5t-84 125t-125 85t-151.5 31.5t-152.5 -31.5t-126 -85t-85 -126t-31.5 -152.5zM452 1569q0 37 16.5 69.5t44 58.5t62.5 41t74 15q29 0 51.5 -6t65.5 -24q55 -27 94 -27q29 0 45 8l41 23q25 10 39 10 q35 0 62.5 -28.5t27.5 -65.5t-17.5 -71t-46 -59.5t-66.5 -41t-79 -15.5q-25 0 -46.5 6.5t-60.5 22.5q-35 16 -57 22.5t-41 6.5q-29 0 -43 -11l-39 -20q-20 -10 -39 -10q-37 0 -62.5 27.5t-25.5 68.5z" />
<glyph unicode="&#xd6;" horiz-adv-x="1533" d="M61 682q0 145 55.5 274t150.5 224.5t223.5 150.5t273.5 55q135 0 266 -55t236 -155q100 -96 153.5 -224.5t53.5 -271.5q0 -145 -55.5 -272t-152 -222.5t-224.5 -150.5t-273 -55q-147 0 -275 55t-224.5 150.5t-152 223.5t-55.5 273zM373 680q0 -80 30.5 -151.5t85 -125 t126 -84t153.5 -30.5t152.5 30.5t124 84t84 124t30.5 152.5t-30.5 153.5t-84 125t-125 85t-151.5 31.5t-152.5 -31.5t-126 -85t-85 -126t-31.5 -152.5zM416 1614q0 66 47 112t113 46t110 -45.5t44 -108.5q0 -66 -45.5 -111t-110.5 -45q-66 0 -112 45t-46 107zM805 1614 q0 66 47 112t113 46t110 -45.5t44 -108.5q0 -66 -45 -111t-111 -45t-112 45t-46 107z" />
<glyph unicode="&#xd8;" horiz-adv-x="1536" d="M61 659q0 154 54.5 287t149.5 231.5t225.5 153.5t281.5 55q225 0 375 -116l8 12q8 10 23.5 22.5t52.5 34.5q23 16 36 20.5t33 4.5q66 0 113 -48t47 -114q0 -41 -22.5 -75.5t-73.5 -75.5q111 -147 111 -357q0 -154 -54.5 -283.5t-150.5 -226t-227.5 -150.5t-284.5 -54 q-242 0 -369 108l-18 -22q-29 -33 -72 -57.5t-74 -24.5q-68 0 -113.5 48t-45.5 115q0 33 24.5 75t59.5 71l20 16q-57 74 -83 159t-26 191zM377 657q0 -78 22 -120l516 501q-49 37 -137 37q-86 0 -159.5 -31.5t-127 -88t-84 -133.5t-30.5 -165zM618 319q18 -18 48 -27t79 -9 q90 0 167 30.5t132.5 85t87 129t31.5 162.5q0 82 -24 135z" />
<glyph unicode="&#xd9;" horiz-adv-x="1325" d="M109 532v637v35q0 80 42 127t113 47q72 0 115 -48t43 -126v-35v-637q0 -53 18.5 -98t50 -77.5t75.5 -52t96 -19.5q59 0 111 27.5t85 74.5q23 33 33 66.5t10 87.5v628v35q2 80 44 127t112 47q72 0 114.5 -48t42.5 -126v-35v-628q0 -119 -42 -221.5t-115.5 -178 t-174 -118.5t-216.5 -43q-117 0 -218.5 43t-177 117.5t-118.5 176t-43 215.5zM440 1690q0 49 35 82.5t86 33.5q25 0 43 -9t41 -32l100 -104q37 -37 37 -84t-34.5 -82t-82.5 -35q-23 0 -45 9.5t-34 23.5l-113 119q-33 33 -33 78z" />
<glyph unicode="&#xda;" horiz-adv-x="1325" d="M109 532v637v35q0 80 42 127t113 47q72 0 115 -48t43 -126v-35v-637q0 -53 18.5 -98t50 -77.5t75.5 -52t96 -19.5q59 0 111 27.5t85 74.5q23 33 33 66.5t10 87.5v628v35q2 80 44 127t112 47q72 0 114.5 -48t42.5 -126v-35v-628q0 -119 -42 -221.5t-115.5 -178 t-174 -118.5t-216.5 -43q-117 0 -218.5 43t-177 117.5t-118.5 176t-43 215.5zM506 1577q0 47 37 84l100 104q23 23 41.5 32t44.5 9q49 0 84 -34.5t35 -83.5q0 -43 -33 -76l-112 -119q-12 -14 -35 -23.5t-45 -9.5q-47 0 -82 35t-35 82z" />
<glyph unicode="&#xdb;" horiz-adv-x="1325" d="M109 532v637v35q0 80 42 127t113 47q72 0 115 -48t43 -126v-35v-637q0 -53 18.5 -98t50 -77.5t75.5 -52t96 -19.5q59 0 111 27.5t85 74.5q23 33 33 66.5t10 87.5v628v35q2 80 44 127t112 47q72 0 114.5 -48t42.5 -126v-35v-628q0 -119 -42 -221.5t-115.5 -178 t-174 -118.5t-216.5 -43q-117 0 -218.5 43t-177 117.5t-118.5 176t-43 215.5zM401 1579q0 20 7.5 39.5t19.5 30.5l153 141q10 10 33 16.5t41 6.5q23 0 44.5 -6.5t33.5 -16.5l139 -121q41 -35 41 -92q0 -47 -32.5 -81t-82.5 -34q-39 0 -67 23l-72 59l-69 -59 q-10 -10 -31 -16.5t-41 -6.5q-47 0 -82 34t-35 83z" />
<glyph unicode="&#xdc;" horiz-adv-x="1325" d="M109 532v637v35q0 80 42 127t113 47q72 0 115 -48t43 -126v-35v-637q0 -53 18.5 -98t50 -77.5t75.5 -52t96 -19.5q59 0 111 27.5t85 74.5q23 33 33 66.5t10 87.5v628v35q2 80 44 127t112 47q72 0 114.5 -48t42.5 -126v-35v-628q0 -119 -42 -221.5t-115.5 -178 t-174 -118.5t-216.5 -43q-117 0 -218.5 43t-177 117.5t-118.5 176t-43 215.5zM311 1614q0 66 47 112t113 46t110 -45.5t44 -108.5q0 -66 -45.5 -111t-110.5 -45q-66 0 -112 45t-46 107zM700 1614q0 66 47 112t113 46t110 -45.5t44 -108.5q0 -66 -45 -111t-111 -45t-112 45 t-46 107z" />
<glyph unicode="&#xdf;" horiz-adv-x="1071" d="M123 137v31v776q0 102 20.5 168t73.5 125q53 61 133 95t176 34q86 0 159 -25.5t125 -71.5t82 -108.5t30 -136.5q0 -78 -28 -134t-87 -99q100 -43 155.5 -135.5t55.5 -217.5q0 -94 -33 -178t-90 -146.5t-133 -98t-162 -35.5q-68 0 -114 41.5t-46 103.5q0 51 35 88t86 41 l31 2q63 6 105 58.5t42 125.5q0 80 -50 128t-157 71q-57 12 -75.5 33.5t-18.5 75.5q0 53 19.5 77.5t70.5 34.5q127 27 127 127q0 49 -34.5 84t-88.5 35q-41 0 -73.5 -20.5t-46.5 -53.5q-10 -23 -13.5 -48.5t-3.5 -72.5v-743v-31q-2 -70 -37.5 -110.5t-97.5 -40.5 q-61 0 -99 42t-38 109z" />
<glyph unicode="&#xe0;" horiz-adv-x="1007" d="M55 332q0 76 28 141.5t76 113.5t112.5 75.5t140.5 27.5q51 0 99 -14t103 -43q0 76 -27.5 106.5t-92.5 30.5q-33 0 -74 -10l-66 -19q-29 -10 -48 -13t-36 -3q-47 0 -76.5 30.5t-29.5 78.5q0 80 90 128t235 48q100 0 183.5 -28t136.5 -81q47 -47 66.5 -120.5t17.5 -192.5 v-72v-311v-37q0 -53 -6 -79t-25 -50q-41 -53 -110 -53q-43 0 -73.5 19.5t-53.5 64.5q-59 -47 -114.5 -67.5t-117.5 -20.5q-72 0 -133 26.5t-107.5 74.5t-72 111.5t-25.5 137.5zM287 1307q0 49 35 82.5t86 33.5q25 0 43 -9t41 -32l100 -104q37 -37 37 -84t-34.5 -82 t-82.5 -35q-23 0 -45 9.5t-34 23.5l-113 119q-33 33 -33 78zM346 344q0 -59 39 -98t98 -39q57 0 94 38t37 95q0 59 -37.5 100t-97.5 41q-55 0 -94 -40t-39 -97z" />
<glyph unicode="&#xe1;" horiz-adv-x="1007" d="M55 332q0 76 28 141.5t76 113.5t112.5 75.5t140.5 27.5q51 0 99 -14t103 -43q0 76 -27.5 106.5t-92.5 30.5q-33 0 -74 -10l-66 -19q-29 -10 -48 -13t-36 -3q-47 0 -76.5 30.5t-29.5 78.5q0 80 90 128t235 48q100 0 183.5 -28t136.5 -81q47 -47 66.5 -120.5t17.5 -192.5 v-72v-311v-37q0 -53 -6 -79t-25 -50q-41 -53 -110 -53q-43 0 -73.5 19.5t-53.5 64.5q-59 -47 -114.5 -67.5t-117.5 -20.5q-72 0 -133 26.5t-107.5 74.5t-72 111.5t-25.5 137.5zM346 344q0 -59 39 -98t98 -39q57 0 94 38t37 95q0 59 -37.5 100t-97.5 41q-55 0 -94 -40 t-39 -97zM383 1194q0 47 37 84l100 104q23 23 41.5 32t44.5 9q49 0 84 -34.5t35 -83.5q0 -43 -33 -76l-112 -119q-12 -14 -35 -23.5t-45 -9.5q-47 0 -82 35t-35 82z" />
<glyph unicode="&#xe2;" horiz-adv-x="1007" d="M55 332q0 76 28 141.5t76 113.5t112.5 75.5t140.5 27.5q51 0 99 -14t103 -43q0 76 -27.5 106.5t-92.5 30.5q-33 0 -74 -10l-66 -19q-29 -10 -48 -13t-36 -3q-47 0 -76.5 30.5t-29.5 78.5q0 80 90 128t235 48q100 0 183.5 -28t136.5 -81q47 -47 66.5 -120.5t17.5 -192.5 v-72v-311v-37q0 -53 -6 -79t-25 -50q-41 -53 -110 -53q-43 0 -73.5 19.5t-53.5 64.5q-59 -47 -114.5 -67.5t-117.5 -20.5q-72 0 -133 26.5t-107.5 74.5t-72 111.5t-25.5 137.5zM248 1196q0 20 7.5 39.5t19.5 30.5l153 141q10 10 33 16.5t41 6.5q23 0 44.5 -6.5t33.5 -16.5 l139 -121q41 -35 41 -92q0 -47 -32.5 -81t-82.5 -34q-39 0 -67 23l-72 59l-69 -59q-10 -10 -31 -16.5t-41 -6.5q-47 0 -82 34t-35 83zM346 344q0 -59 39 -98t98 -39q57 0 94 38t37 95q0 59 -37.5 100t-97.5 41q-55 0 -94 -40t-39 -97z" />
<glyph unicode="&#xe3;" horiz-adv-x="1007" d="M55 332q0 76 28 141.5t76 113.5t112.5 75.5t140.5 27.5q51 0 99 -14t103 -43q0 76 -27.5 106.5t-92.5 30.5q-33 0 -74 -10l-66 -19q-29 -10 -48 -13t-36 -3q-47 0 -76.5 30.5t-29.5 78.5q0 80 90 128t235 48q100 0 183.5 -28t136.5 -81q47 -47 66.5 -120.5t17.5 -192.5 v-72v-311v-37q0 -53 -6 -79t-25 -50q-41 -53 -110 -53q-43 0 -73.5 19.5t-53.5 64.5q-59 -47 -114.5 -67.5t-117.5 -20.5q-72 0 -133 26.5t-107.5 74.5t-72 111.5t-25.5 137.5zM192 1192q0 37 16.5 69.5t44 58.5t62.5 41t74 15q29 0 51.5 -6t65.5 -24q55 -27 94 -27 q29 0 45 8l41 23q25 10 39 10q35 0 62.5 -28.5t27.5 -65.5t-17.5 -71t-46 -59.5t-66.5 -41t-79 -15.5q-25 0 -46.5 6.5t-60.5 22.5q-35 16 -57 22.5t-41 6.5q-29 0 -43 -11l-39 -20q-20 -10 -39 -10q-37 0 -62.5 27.5t-25.5 68.5zM346 344q0 -59 39 -98t98 -39q57 0 94 38 t37 95q0 59 -37.5 100t-97.5 41q-55 0 -94 -40t-39 -97z" />
<glyph unicode="&#xe4;" horiz-adv-x="1007" d="M55 332q0 76 28 141.5t76 113.5t112.5 75.5t140.5 27.5q51 0 99 -14t103 -43q0 76 -27.5 106.5t-92.5 30.5q-33 0 -74 -10l-66 -19q-29 -10 -48 -13t-36 -3q-47 0 -76.5 30.5t-29.5 78.5q0 80 90 128t235 48q100 0 183.5 -28t136.5 -81q47 -47 66.5 -120.5t17.5 -192.5 v-72v-311v-37q0 -53 -6 -79t-25 -50q-41 -53 -110 -53q-43 0 -73.5 19.5t-53.5 64.5q-59 -47 -114.5 -67.5t-117.5 -20.5q-72 0 -133 26.5t-107.5 74.5t-72 111.5t-25.5 137.5zM153 1231q0 66 47 112t113 46t110 -45.5t44 -108.5q0 -66 -45.5 -111t-110.5 -45q-66 0 -112 45 t-46 107zM346 344q0 -59 39 -98t98 -39q57 0 94 38t37 95q0 59 -37.5 100t-97.5 41q-55 0 -94 -40t-39 -97zM542 1231q0 66 47 112t113 46t110 -45.5t44 -108.5q0 -66 -45 -111t-111 -45t-112 45t-46 107z" />
<glyph unicode="&#xe5;" horiz-adv-x="1007" d="M55 332q0 76 28 141.5t76 113.5t112.5 75.5t140.5 27.5q51 0 99 -14t103 -43q0 76 -27.5 106.5t-92.5 30.5q-33 0 -74 -10l-66 -19q-29 -10 -48 -13t-36 -3q-47 0 -76.5 30.5t-29.5 78.5q0 80 90 128t235 48q100 0 183.5 -28t136.5 -81q47 -47 66.5 -120.5t17.5 -192.5 v-72v-311v-37q0 -53 -6 -79t-25 -50q-41 -53 -110 -53q-43 0 -73.5 19.5t-53.5 64.5q-59 -47 -114.5 -67.5t-117.5 -20.5q-72 0 -133 26.5t-107.5 74.5t-72 111.5t-25.5 137.5zM315 1251q0 80 55.5 135.5t135.5 55.5q39 0 73.5 -14.5t60 -40t40 -60.5t14.5 -74t-15.5 -72.5 t-41 -59t-60 -40t-73.5 -14.5t-73 14.5t-59.5 40t-41 59t-15.5 70.5zM346 344q0 -59 39 -98t98 -39q57 0 94 38t37 95q0 59 -37.5 100t-97.5 41q-55 0 -94 -40t-39 -97zM411 1251q0 -35 27 -61.5t66 -26.5t66.5 27t27.5 63q0 39 -26.5 66t-65.5 27q-41 0 -68 -27t-27 -68z " />
<glyph unicode="&#xe6;" horiz-adv-x="1533" d="M55 319q0 74 28 138.5t76 112.5t112.5 76t138.5 28q27 0 47 -2t41.5 -8.5t46 -17.5t59.5 -28q0 39 -5 57.5t-15 35.5q-14 20 -40 32.5t-55 12.5q-39 0 -118 -25q-31 -10 -48.5 -15t-27.5 -8t-18.5 -4.5t-18.5 -1.5q-45 0 -74.5 31t-29.5 78q0 39 24.5 71.5t68.5 56.5 t104.5 37t131.5 13q88 0 158 -21.5t135 -70.5q57 45 131 68.5t154 23.5q86 0 165 -28.5t138 -77.5t95 -112.5t36 -133.5q0 -90 -84 -123l-491 -199q59 -59 153 -59q35 0 68 9t59 28l31 20q37 27 80 27q55 0 95 -40t40 -97q0 -43 -32 -83t-84 -72t-118.5 -50t-138.5 -18 q-98 0 -191.5 36.5t-160.5 102.5q-78 -76 -148.5 -107.5t-166.5 -31.5q-86 0 -155 28.5t-116 87.5q-80 98 -80 223zM344 330q0 -53 39 -91t94 -38q53 0 93 39t40 92q0 57 -39 97t-92 40q-59 0 -97 -40t-38 -99zM844 518l352 141q-49 57 -129 58q-84 0 -142.5 -51.5 t-80.5 -147.5z" />
<glyph unicode="&#xe7;" horiz-adv-x="1001" d="M55 487q0 104 40 195.5t107.5 160t159 108.5t195.5 40q90 0 177 -31.5t155 -89.5q35 -29 48 -54t13 -60q0 -59 -40 -98.5t-101 -39.5q-23 0 -39 7.5t-45 27.5q-45 35 -79 49.5t-77 14.5q-49 0 -93 -18.5t-75.5 -49.5t-50 -72.5t-18.5 -91.5q0 -49 18.5 -91t50 -72.5 t74.5 -49t92 -18.5q23 0 39.5 2t34.5 10t41 23.5t57 40.5q23 16 42.5 23t43.5 7q55 0 95.5 -39.5t40.5 -97.5q0 -37 -25 -74.5t-68 -69.5t-101 -55.5t-124 -35.5q35 -39 35 -86q0 -41 -31 -78l-112 -117q-14 -16 -37 -24.5t-45 -8.5q-47 0 -81 35t-34 82q0 49 35 84l108 113 q-94 16 -172 62t-134 111.5t-88 149.5t-32 176z" />
<glyph unicode="&#xe8;" horiz-adv-x="1024" d="M55 487q0 102 40 193.5t108.5 160t159 108.5t192.5 40q82 0 160 -27.5t137 -74.5t95 -108.5t36 -129.5q0 -45 -25.5 -74.5t-87.5 -58.5l-454 -201q63 -55 147 -55q41 0 79 13.5t79 43.5q25 18 44 25.5t42 7.5q59 0 98 -39t39 -96q0 -43 -24.5 -79t-77.5 -73 q-57 -41 -131 -62t-148 -21q-102 0 -194.5 40.5t-162 110.5t-110.5 162t-41 194zM287 1307q0 49 35 82.5t86 33.5q25 0 43 -9t41 -32l100 -104q37 -37 37 -84t-34.5 -82t-82.5 -35q-23 0 -45 9.5t-34 23.5l-113 119q-33 33 -33 78zM336 516l348 150q-37 57 -121 57 q-90 0 -154.5 -59.5t-72.5 -147.5z" />
<glyph unicode="&#xe9;" horiz-adv-x="1024" d="M55 487q0 102 40 193.5t108.5 160t159 108.5t192.5 40q82 0 160 -27.5t137 -74.5t95 -108.5t36 -129.5q0 -45 -25.5 -74.5t-87.5 -58.5l-454 -201q63 -55 147 -55q41 0 79 13.5t79 43.5q25 18 44 25.5t42 7.5q59 0 98 -39t39 -96q0 -43 -24.5 -79t-77.5 -73 q-57 -41 -131 -62t-148 -21q-102 0 -194.5 40.5t-162 110.5t-110.5 162t-41 194zM336 516l348 150q-37 57 -121 57q-90 0 -154.5 -59.5t-72.5 -147.5zM436 1194q0 47 37 84l100 104q23 23 41.5 32t44.5 9q49 0 84 -34.5t35 -83.5q0 -43 -33 -76l-112 -119q-12 -14 -35 -23.5 t-45 -9.5q-47 0 -82 35t-35 82z" />
<glyph unicode="&#xea;" horiz-adv-x="1024" d="M55 487q0 102 40 193.5t108.5 160t159 108.5t192.5 40q82 0 160 -27.5t137 -74.5t95 -108.5t36 -129.5q0 -45 -25.5 -74.5t-87.5 -58.5l-454 -201q63 -55 147 -55q41 0 79 13.5t79 43.5q25 18 44 25.5t42 7.5q59 0 98 -39t39 -96q0 -43 -24.5 -79t-77.5 -73 q-57 -41 -131 -62t-148 -21q-102 0 -194.5 40.5t-162 110.5t-110.5 162t-41 194zM256 1196q0 20 7.5 39.5t19.5 30.5l153 141q10 10 33 16.5t41 6.5q23 0 44.5 -6.5t33.5 -16.5l139 -121q41 -35 41 -92q0 -47 -32.5 -81t-82.5 -34q-39 0 -67 23l-72 59l-69 -59 q-10 -10 -31 -16.5t-41 -6.5q-47 0 -82 34t-35 83zM336 516l348 150q-37 57 -121 57q-90 0 -154.5 -59.5t-72.5 -147.5z" />
<glyph unicode="&#xeb;" horiz-adv-x="1024" d="M55 487q0 102 40 193.5t108.5 160t159 108.5t192.5 40q82 0 160 -27.5t137 -74.5t95 -108.5t36 -129.5q0 -45 -25.5 -74.5t-87.5 -58.5l-454 -201q63 -55 147 -55q41 0 79 13.5t79 43.5q25 18 44 25.5t42 7.5q59 0 98 -39t39 -96q0 -43 -24.5 -79t-77.5 -73 q-57 -41 -131 -62t-148 -21q-102 0 -194.5 40.5t-162 110.5t-110.5 162t-41 194zM162 1231q0 66 47 112t113 46t110 -45.5t44 -108.5q0 -66 -45.5 -111t-110.5 -45q-66 0 -112 45t-46 107zM336 516l348 150q-37 57 -121 57q-90 0 -154.5 -59.5t-72.5 -147.5zM551 1231 q0 66 47 112t113 46t110 -45.5t44 -108.5q0 -66 -45 -111t-111 -45t-112 45t-46 107z" />
<glyph unicode="&#xec;" horiz-adv-x="518" d="M69 1307q0 49 35 82.5t86 33.5q25 0 43 -9t41 -32l100 -104q37 -37 37 -84t-34.5 -82t-82.5 -35q-23 0 -45 9.5t-34 23.5l-113 119q-33 33 -33 78zM70 137v31v633v30q2 70 39 111t98 41t98 -42t37 -110v-30v-633v-31q-2 -70 -37.5 -110.5t-97.5 -40.5q-61 0 -99 42 t-38 109z" />
<glyph unicode="&#xed;" horiz-adv-x="518" d="M110 1194q0 47 37 84l100 104q23 23 41.5 32t44.5 9q49 0 84 -34.5t35 -83.5q0 -43 -33 -76l-112 -119q-12 -14 -35 -23.5t-45 -9.5q-47 0 -82 35t-35 82zM111 137v31v633v30q2 70 39 111t98 41t98 -42t37 -110v-30v-633v-31q-2 -70 -37.5 -110.5t-97.5 -40.5 q-61 0 -99 42t-38 109z" />
<glyph unicode="&#xee;" horiz-adv-x="518" d="M6 137v31v633v30q2 70 39 111t98 41t98 -42t37 -110v-30v-633v-31q-2 -70 -37.5 -110.5t-97.5 -40.5q-61 0 -99 42t-38 109zM6 1196q0 20 7.5 39.5t19.5 30.5l153 141q10 10 33 16.5t41 6.5q23 0 44.5 -6.5t33.5 -16.5l139 -121q41 -35 41 -92q0 -47 -32.5 -81t-82.5 -34 q-39 0 -67 23l-72 59l-69 -59q-10 -10 -31 -16.5t-41 -6.5q-47 0 -82 34t-35 83z" />
<glyph unicode="&#xef;" horiz-adv-x="518" d="M-88 137v31v633v30q2 70 39 111t98 41t98 -42t37 -110v-30v-633v-31q-2 -70 -37.5 -110.5t-97.5 -40.5q-61 0 -99 42t-38 109zM-88 1231q0 66 47 112t113 46t110 -45.5t44 -108.5q0 -66 -45.5 -111t-110.5 -45q-66 0 -112 45t-46 107zM301 1231q0 66 47 112t113 46 t110 -45.5t44 -108.5q0 -66 -45 -111t-111 -45t-112 45t-46 107z" />
<glyph unicode="&#xf1;" horiz-adv-x="1112" d="M117 137v31v346q0 100 22.5 173t73.5 138q61 78 151.5 121t188.5 43q115 0 218 -58.5t165 -158.5q29 -47 44 -115.5t15 -150.5v-338v-31q-2 -70 -38.5 -110.5t-96.5 -40.5q-61 0 -99 42t-38 109v31v313q0 61 -4 88t-14 54q-18 41 -60.5 67.5t-89.5 26.5q-72 0 -119 -51.5 t-47 -124.5v-52v-321v-31q-2 -70 -39 -110.5t-98 -40.5q-59 0 -97 42t-38 109zM246 1192q0 37 16.5 69.5t44 58.5t62.5 41t74 15q29 0 51.5 -6t65.5 -24q55 -27 94 -27q29 0 45 8l41 23q25 10 39 10q35 0 62.5 -28.5t27.5 -65.5t-17.5 -71t-46 -59.5t-66.5 -41t-79 -15.5 q-25 0 -46.5 6.5t-60.5 22.5q-35 16 -57 22.5t-41 6.5q-29 0 -43 -11l-39 -20q-20 -10 -39 -10q-37 0 -62.5 27.5t-25.5 68.5z" />
<glyph unicode="&#xf2;" horiz-adv-x="1128" d="M55 475q0 109 40 203t108.5 162.5t161.5 108.5t202 40q104 0 196.5 -40t161 -108.5t108.5 -160.5t40 -199q0 -102 -40 -193t-109.5 -160t-161.5 -108.5t-197 -39.5q-104 0 -197.5 38.5t-162 106.5t-109.5 158t-41 192zM313 1307q0 49 35 82.5t86 33.5q25 0 43 -9t41 -32 l100 -104q37 -37 37 -84t-34.5 -82t-82.5 -35q-23 0 -45 9.5t-34 23.5l-113 119q-33 33 -33 78zM334 479q0 -45 18.5 -86t50 -71.5t73.5 -48t89 -17.5t89 18.5t74 49t50.5 72.5t18.5 89q0 49 -18.5 91t-49.5 73t-73 49.5t-89 18.5q-49 0 -92 -18.5t-74.5 -50.5t-49 -75 t-17.5 -94z" />
<glyph unicode="&#xf3;" horiz-adv-x="1128" d="M55 475q0 109 40 203t108.5 162.5t161.5 108.5t202 40q104 0 196.5 -40t161 -108.5t108.5 -160.5t40 -199q0 -102 -40 -193t-109.5 -160t-161.5 -108.5t-197 -39.5q-104 0 -197.5 38.5t-162 106.5t-109.5 158t-41 192zM334 479q0 -45 18.5 -86t50 -71.5t73.5 -48 t89 -17.5t89 18.5t74 49t50.5 72.5t18.5 89q0 49 -18.5 91t-49.5 73t-73 49.5t-89 18.5q-49 0 -92 -18.5t-74.5 -50.5t-49 -75t-17.5 -94zM436 1194q0 47 37 84l100 104q23 23 41.5 32t44.5 9q49 0 84 -34.5t35 -83.5q0 -43 -33 -76l-112 -119q-12 -14 -35 -23.5t-45 -9.5 q-47 0 -82 35t-35 82z" />
<glyph unicode="&#xf4;" horiz-adv-x="1128" d="M55 475q0 109 40 203t108.5 162.5t161.5 108.5t202 40q104 0 196.5 -40t161 -108.5t108.5 -160.5t40 -199q0 -102 -40 -193t-109.5 -160t-161.5 -108.5t-197 -39.5q-104 0 -197.5 38.5t-162 106.5t-109.5 158t-41 192zM307 1196q0 20 7.5 39.5t19.5 30.5l153 141 q10 10 33 16.5t41 6.5q23 0 44.5 -6.5t33.5 -16.5l139 -121q41 -35 41 -92q0 -47 -32.5 -81t-82.5 -34q-39 0 -67 23l-72 59l-69 -59q-10 -10 -31 -16.5t-41 -6.5q-47 0 -82 34t-35 83zM334 479q0 -45 18.5 -86t50 -71.5t73.5 -48t89 -17.5t89 18.5t74 49t50.5 72.5t18.5 89 q0 49 -18.5 91t-49.5 73t-73 49.5t-89 18.5q-49 0 -92 -18.5t-74.5 -50.5t-49 -75t-17.5 -94z" />
<glyph unicode="&#xf5;" horiz-adv-x="1128" d="M55 475q0 109 40 203t108.5 162.5t161.5 108.5t202 40q104 0 196.5 -40t161 -108.5t108.5 -160.5t40 -199q0 -102 -40 -193t-109.5 -160t-161.5 -108.5t-197 -39.5q-104 0 -197.5 38.5t-162 106.5t-109.5 158t-41 192zM254 1192q0 37 16.5 69.5t44 58.5t62.5 41t74 15 q29 0 51.5 -6t65.5 -24q55 -27 94 -27q29 0 45 8l41 23q25 10 39 10q35 0 62.5 -28.5t27.5 -65.5t-17.5 -71t-46 -59.5t-66.5 -41t-79 -15.5q-25 0 -46.5 6.5t-60.5 22.5q-35 16 -57 22.5t-41 6.5q-29 0 -43 -11l-39 -20q-20 -10 -39 -10q-37 0 -62.5 27.5t-25.5 68.5z M334 479q0 -45 18.5 -86t50 -71.5t73.5 -48t89 -17.5t89 18.5t74 49t50.5 72.5t18.5 89q0 49 -18.5 91t-49.5 73t-73 49.5t-89 18.5q-49 0 -92 -18.5t-74.5 -50.5t-49 -75t-17.5 -94z" />
<glyph unicode="&#xf6;" horiz-adv-x="1128" d="M55 475q0 109 40 203t108.5 162.5t161.5 108.5t202 40q104 0 196.5 -40t161 -108.5t108.5 -160.5t40 -199q0 -102 -40 -193t-109.5 -160t-161.5 -108.5t-197 -39.5q-104 0 -197.5 38.5t-162 106.5t-109.5 158t-41 192zM213 1231q0 66 47 112t113 46t110 -45.5t44 -108.5 q0 -66 -45.5 -111t-110.5 -45q-66 0 -112 45t-46 107zM334 479q0 -45 18.5 -86t50 -71.5t73.5 -48t89 -17.5t89 18.5t74 49t50.5 72.5t18.5 89q0 49 -18.5 91t-49.5 73t-73 49.5t-89 18.5q-49 0 -92 -18.5t-74.5 -50.5t-49 -75t-17.5 -94zM602 1231q0 66 47 112t113 46 t110 -45.5t44 -108.5q0 -66 -45 -111t-111 -45t-112 45t-46 107z" />
<glyph unicode="&#xf7;" d="M68 0v1366h684v-1366h-684zM82 14h655v1338h-655v-1338z" />
<glyph unicode="&#xf8;" horiz-adv-x="1146" d="M53 92q0 55 88 137q-76 106 -75 258q0 102 39.5 193.5t109.5 160t162 108.5t194 40q74 0 142.5 -18.5t124.5 -52.5q68 86 139 86q47 0 83 -37t36 -84q0 -29 -12.5 -53.5t-47.5 -59.5l-24 -25q72 -123 71 -262q0 -102 -39.5 -193t-109.5 -160t-161 -109.5t-191 -40.5 q-78 0 -151 20t-116 55q-45 -51 -72.5 -69.5t-66.5 -18.5q-49 0 -86 37t-37 88zM328 475q0 -12 2 -22.5t6 -26.5l303 293q-23 14 -66 14q-51 0 -96 -19.5t-77.5 -54t-52 -82t-19.5 -102.5zM516 256q20 -10 33.5 -13t32.5 -3q49 0 92 20.5t75.5 56t52 81.5t19.5 98 q0 12 -1 22t-5 27z" />
<glyph unicode="&#xf9;" horiz-adv-x="1112" d="M117 463v338v30q2 70 37.5 111t97.5 41q61 0 99 -42t38 -110v-30v-314q0 -61 4 -87.5t15 -51.5q18 -41 60 -68.5t89 -27.5q72 0 119 51t47 125v51v322v30q2 70 39 111t98 41q59 0 97 -42t38 -110v-30v-344q0 -100 -22.5 -174t-73.5 -138q-61 -78 -151.5 -121.5 t-188.5 -43.5q-115 0 -218 58t-165 159q-29 47 -44 116.5t-15 149.5zM313 1307q0 49 35 82.5t86 33.5q25 0 43 -9t41 -32l100 -104q37 -37 37 -84t-34.5 -82t-82.5 -35q-23 0 -45 9.5t-34 23.5l-113 119q-33 33 -33 78z" />
<glyph unicode="&#xfa;" horiz-adv-x="1112" d="M117 463v338v30q2 70 37.5 111t97.5 41q61 0 99 -42t38 -110v-30v-314q0 -61 4 -87.5t15 -51.5q18 -41 60 -68.5t89 -27.5q72 0 119 51t47 125v51v322v30q2 70 39 111t98 41q59 0 97 -42t38 -110v-30v-344q0 -100 -22.5 -174t-73.5 -138q-61 -78 -151.5 -121.5 t-188.5 -43.5q-115 0 -218 58t-165 159q-29 47 -44 116.5t-15 149.5zM450 1194q0 47 37 84l100 104q23 23 41.5 32t44.5 9q49 0 84 -34.5t35 -83.5q0 -43 -33 -76l-112 -119q-12 -14 -35 -23.5t-45 -9.5q-47 0 -82 35t-35 82z" />
<glyph unicode="&#xfb;" horiz-adv-x="1112" d="M117 463v338v30q2 70 37.5 111t97.5 41q61 0 99 -42t38 -110v-30v-314q0 -61 4 -87.5t15 -51.5q18 -41 60 -68.5t89 -27.5q72 0 119 51t47 125v51v322v30q2 70 39 111t98 41q59 0 97 -42t38 -110v-30v-344q0 -100 -22.5 -174t-73.5 -138q-61 -78 -151.5 -121.5 t-188.5 -43.5q-115 0 -218 58t-165 159q-29 47 -44 116.5t-15 149.5zM299 1196q0 20 7.5 39.5t19.5 30.5l153 141q10 10 33 16.5t41 6.5q23 0 44.5 -6.5t33.5 -16.5l139 -121q41 -35 41 -92q0 -47 -32.5 -81t-82.5 -34q-39 0 -67 23l-72 59l-69 -59q-10 -10 -31 -16.5 t-41 -6.5q-47 0 -82 34t-35 83z" />
<glyph unicode="&#xfc;" horiz-adv-x="1112" d="M117 463v338v30q2 70 37.5 111t97.5 41q61 0 99 -42t38 -110v-30v-314q0 -61 4 -87.5t15 -51.5q18 -41 60 -68.5t89 -27.5q72 0 119 51t47 125v51v322v30q2 70 39 111t98 41q59 0 97 -42t38 -110v-30v-344q0 -100 -22.5 -174t-73.5 -138q-61 -78 -151.5 -121.5 t-188.5 -43.5q-115 0 -218 58t-165 159q-29 47 -44 116.5t-15 149.5zM205 1231q0 66 47 112t113 46t110 -45.5t44 -108.5q0 -66 -45.5 -111t-110.5 -45q-66 0 -112 45t-46 107zM594 1231q0 66 47 112t113 46t110 -45.5t44 -108.5q0 -66 -45 -111t-111 -45t-112 45t-46 107z " />
<glyph unicode="&#xff;" horiz-adv-x="1003" d="M14 -158q0 53 36 93t85 40q31 0 58 -8l38 -10q20 -6 41 -6q49 0 80 82l29 73l-311 639l-15 27q-20 47 -20 82q0 53 42 91t95 38q88 0 131 -94l12 -27l201 -444l184 434l13 31q45 100 137 100q55 0 98 -41t43 -94q0 -23 -7 -46.5t-26 -62.5l-391 -823q-29 -59 -44 -86 t-38 -55q-41 -51 -102 -81t-127 -30q-49 0 -93 14.5t-77 39t-52.5 56t-19.5 68.5zM155 1231q0 66 47 112t113 46t110 -45.5t44 -108.5q0 -66 -45.5 -111t-110.5 -45q-66 0 -112 45t-46 107zM544 1231q0 66 47 112t113 46t110 -45.5t44 -108.5q0 -66 -45 -111t-111 -45 t-112 45t-46 107z" />
<glyph unicode="&#x152;" horiz-adv-x="1886" d="M61 684q0 147 55.5 275t152 223.5t226.5 149.5t281 54q70 0 124 -12t114 -41q27 20 47 26.5t55 6.5h39h498q76 0 121 -20q31 -14 51 -49t20 -76q0 -39 -21.5 -75t-49.5 -50q-16 -10 -52 -15.5t-67 -5.5h-402v-252h314h32q66 -2 105 -35.5t39 -93.5q0 -59 -39 -95 t-105 -36h-30h-316v-280h414q47 0 73.5 -3.5t47.5 -13.5q31 -14 51.5 -49t20.5 -76q0 -66 -43 -104.5t-115 -36.5h-33h-510h-43q-35 -2 -55.5 3t-46.5 20q-72 -23 -129.5 -33t-116.5 -10q-147 0 -275 55t-224.5 150.5t-152 224.5t-55.5 274zM375 680q0 -82 31.5 -153.5 t85 -125t126 -84t156.5 -30.5q47 0 84 8t82 31v704q-43 23 -81 33t-85 10q-84 0 -156.5 -30.5t-126 -84t-85 -125t-31.5 -153.5z" />
<glyph unicode="&#x153;" horiz-adv-x="1757" d="M55 483q0 104 40 196.5t108.5 161t162 108.5t197.5 40q223 0 371 -162q57 76 154.5 119t205.5 43q98 0 185.5 -37t150.5 -106q39 -41 62.5 -94.5t23.5 -98.5q0 -49 -24.5 -79.5t-85.5 -59.5l-451 -201q27 -27 66 -42t84 -15q78 0 153 57q25 20 43.5 26.5t44.5 6.5 q57 0 97 -39t40 -96q0 -41 -24.5 -76t-79.5 -72q-55 -39 -129 -61t-145 -22q-53 0 -108.5 12t-105 33.5t-91.5 50t-66 63.5q-59 -72 -160.5 -115.5t-208.5 -43.5q-104 0 -197.5 39.5t-163 108.5t-109.5 160t-40 195zM332 479q0 -47 18.5 -88t50 -71.5t74.5 -48t90 -17.5 t89 18.5t74 49t50.5 72.5t18.5 89q0 49 -18.5 91t-49.5 73t-73 49.5t-91 18.5t-92 -18.5t-73.5 -50.5t-49 -75t-18.5 -92zM1073 514l348 150q-41 55 -123 55q-43 0 -83.5 -16.5t-71.5 -45t-50.5 -65.5t-19.5 -78z" />
<glyph unicode="&#x178;" horiz-adv-x="1181" d="M27 1227q0 61 46 107t111 46q78 0 138 -82l18 -28l250 -361l250 361l20 28q31 41 63.5 61.5t73.5 20.5q63 0 110.5 -46t47.5 -107q0 -51 -39 -107l-18 -28l-350 -508v-387v-35q-2 -80 -44 -128t-112 -48q-72 0 -115 49t-43 127v35v387l-350 508q-35 51 -46 77.5t-11 57.5 zM227 1610q0 66 47 112t113 46t110 -45.5t44 -108.5q0 -66 -45.5 -111t-110.5 -45q-66 0 -112 45t-46 107zM616 1610q0 66 47 112t113 46t110 -45.5t44 -108.5q0 -66 -45 -111t-111 -45t-112 45t-46 107z" />
<glyph unicode="&#x2c6;" horiz-adv-x="782" d="M135 1196q0 20 7.5 39.5t19.5 30.5l153 141q10 10 33 16.5t41 6.5q23 0 44.5 -6.5t33.5 -16.5l139 -121q41 -35 41 -92q0 -47 -32.5 -81t-82.5 -34q-39 0 -67 23l-72 59l-69 -59q-10 -10 -31 -16.5t-41 -6.5q-47 0 -82 34t-35 83z" />
<glyph unicode="&#x2dc;" horiz-adv-x="897" d="M137 1192q0 37 16.5 69.5t44 58.5t62.5 41t74 15q29 0 51.5 -6t65.5 -24q55 -27 94 -27q29 0 45 8l41 23q25 10 39 10q35 0 62.5 -28.5t27.5 -65.5t-17.5 -71t-46 -59.5t-66.5 -41t-79 -15.5q-25 0 -46.5 6.5t-60.5 22.5q-35 16 -57 22.5t-41 6.5q-29 0 -43 -11l-39 -20 q-20 -10 -39 -10q-37 0 -62.5 27.5t-25.5 68.5z" />
<glyph unicode="&#x2000;" horiz-adv-x="912" />
<glyph unicode="&#x2001;" horiz-adv-x="1825" />
<glyph unicode="&#x2002;" horiz-adv-x="912" />
<glyph unicode="&#x2003;" horiz-adv-x="1825" />
<glyph unicode="&#x2004;" horiz-adv-x="608" />
<glyph unicode="&#x2005;" horiz-adv-x="456" />
<glyph unicode="&#x2006;" horiz-adv-x="304" />
<glyph unicode="&#x2007;" horiz-adv-x="304" />
<glyph unicode="&#x2008;" horiz-adv-x="228" />
<glyph unicode="&#x2009;" horiz-adv-x="365" />
<glyph unicode="&#x200a;" horiz-adv-x="101" />
<glyph unicode="&#x2010;" horiz-adv-x="751" d="M137 541q0 61 42 99t110 38h30h111h31q70 -2 110.5 -39t40.5 -96q0 -61 -42 -99t-109 -38h-17h-125h-18q-78 0 -121 35.5t-43 99.5z" />
<glyph unicode="&#x2011;" horiz-adv-x="751" d="M137 541q0 61 42 99t110 38h30h111h31q70 -2 110.5 -39t40.5 -96q0 -61 -42 -99t-109 -38h-17h-125h-18q-78 0 -121 35.5t-43 99.5z" />
<glyph unicode="&#x2012;" horiz-adv-x="751" d="M137 541q0 61 42 99t110 38h30h111h31q70 -2 110.5 -39t40.5 -96q0 -61 -42 -99t-109 -38h-17h-125h-18q-78 0 -121 35.5t-43 99.5z" />
<glyph unicode="&#x2013;" horiz-adv-x="1155" d="M137 541q0 61 42 99t110 38h30h517h30q70 -2 111 -39t41 -96q0 -61 -42 -99t-110 -38h-16h-531h-18q-78 0 -121 35.5t-43 99.5z" />
<glyph unicode="&#x2014;" horiz-adv-x="2320" d="M137 541q0 61 42 99t110 38h30h1684h31q70 -2 110.5 -39t40.5 -96q0 -61 -42 -99t-109 -38h-19h-1696h-18q-78 0 -121 35.5t-43 99.5z" />
<glyph unicode="&#x2018;" horiz-adv-x="567" d="M123 1067q0 33 18 88l62 160q16 43 34.5 61.5t47.5 18.5t53 -22.5t24 -49.5q0 -18 -16 -61l-12 -37l10 -6q100 -49 100 -148q0 -66 -48 -114t-113 -48q-33 0 -63 12.5t-51.5 34t-33.5 50t-12 61.5z" />
<glyph unicode="&#x2019;" horiz-adv-x="567" d="M123 1231q0 66 48 114t114 48q33 0 62.5 -12.5t51 -34t33.5 -50t12 -61.5q0 -35 -20 -88l-59 -160q-16 -43 -35 -61.5t-47 -18.5q-29 0 -53.5 22.5t-24.5 49.5t16 61l12 37l-10 6q-100 49 -100 148z" />
<glyph unicode="&#x201a;" d="M68 0v1366h684v-1366h-684zM82 14h655v1338h-655v-1338z" />
<glyph unicode="&#x201c;" horiz-adv-x="970" d="M123 1067q0 33 18 88l62 160q16 43 34.5 61.5t47.5 18.5t53 -22.5t24 -49.5q0 -18 -16 -61l-12 -37l10 -6q100 -49 100 -148q0 -66 -48 -114t-113 -48q-33 0 -63 12.5t-51.5 34t-33.5 50t-12 61.5zM526 1067q0 33 19 88l59 160q16 43 35.5 61.5t48.5 18.5t53.5 -22.5 t24.5 -49.5q0 -18 -16 -61l-15 -37l13 -6q100 -49 100 -148q0 -66 -48 -114t-114 -48q-33 0 -62.5 12.5t-51 34t-34 50t-12.5 61.5z" />
<glyph unicode="&#x201d;" horiz-adv-x="970" d="M123 1231q0 66 48 114t114 48q33 0 62.5 -12.5t51 -34t33.5 -50t12 -61.5q0 -35 -20 -88l-59 -160q-16 -43 -35 -61.5t-47 -18.5q-29 0 -53.5 22.5t-24.5 49.5t16 61l12 37l-10 6q-100 49 -100 148zM526 1231q0 66 47.5 114t112.5 48q33 0 62.5 -12.5t51 -34t35 -50 t13.5 -61.5q0 -35 -21 -88l-59 -160q-16 -43 -34.5 -61.5t-49.5 -18.5q-29 0 -52.5 22.5t-23.5 49.5q0 25 15 61l14 37l-10 6q-100 47 -101 148z" />
<glyph unicode="&#x201e;" horiz-adv-x="970" d="M123 143q0 33 13.5 63t35 52.5t51 35.5t62.5 13q66 0 112.5 -47t46.5 -113q0 -35 -20 -88l-59 -159q-16 -43 -35 -60.5t-47 -17.5q-29 0 -53.5 21.5t-24.5 50.5q0 23 16 61l12 35l-10 6q-100 49 -100 147zM526 143q0 66 47.5 115t112.5 49q66 0 114 -47t48 -113 q0 -35 -21 -88l-59 -159q-16 -43 -34.5 -60.5t-49.5 -17.5q-29 0 -52.5 21.5t-23.5 50.5q0 20 15 61l14 35l-10 6q-100 47 -101 147z" />
<glyph unicode="&#x2022;" horiz-adv-x="927" d="M109 682q0 74 27.5 138.5t76.5 113.5t113.5 76.5t138.5 27.5t138.5 -27.5t112.5 -76.5t75.5 -113.5t27.5 -138.5t-27.5 -138.5t-75.5 -112.5t-112.5 -75.5t-138.5 -27.5t-138.5 27.5t-113.5 75.5t-76.5 112.5t-27.5 138.5z" />
<glyph unicode="&#x2026;" horiz-adv-x="2048" d="M164 158q0 74 52 125t126 51t125 -51.5t51 -124.5q0 -74 -51 -126t-125 -52t-126 52t-52 126zM848 158q0 74 51 125t125 51t126 -51.5t52 -124.5q0 -74 -52 -126t-126 -52t-125 52t-51 126zM1530 158q0 74 51 125t125 51t126 -51.5t52 -124.5q0 -74 -52 -126t-126 -52 t-125 52t-51 126z" />
<glyph unicode="&#x202f;" horiz-adv-x="365" />
<glyph unicode="&#x2039;" horiz-adv-x="481" d="M33 547q0 16 9 38.5t24 43.5l108 159l14 23q45 66 109 66q49 0 85 -36t36 -83q0 -37 -27 -80l-14 -23l-70 -108l70 -109l16 -22q27 -47 27 -84q0 -47 -37 -83t-88 -36q-41 0 -66.5 18.5t-60.5 71.5l-92 139l-15 23q-29 47 -28 82z" />
<glyph unicode="&#x203a;" horiz-adv-x="481" d="M61 332q0 18 8.5 40.5t20.5 43.5l14 22l70 109l-70 108l-14 23q-27 43 -27 80q0 47 37 83t86 36q66 0 109 -66l14 -23l109 -159q14 -20 22.5 -43t8.5 -39q0 -39 -27 -82l-14 -23l-95 -139q-35 -53 -60.5 -71.5t-64.5 -18.5q-51 0 -89 36t-38 83z" />
<glyph unicode="&#x205f;" horiz-adv-x="456" />
<glyph unicode="&#x20ac;" horiz-adv-x="1204" d="M-78 688q0 68 45 105.5t123 37.5h16q25 117 87.5 218.5t152.5 175t204 116.5t241 43q45 0 91 -7t89 -17q35 -10 68.5 -22.5t59 -33t42 -50t16.5 -70.5q0 -63 -45 -107.5t-106 -44.5q-33 0 -62 10l-43 15q-27 10 -55.5 13t-59.5 3q-119 0 -216 -67.5t-142 -174.5h289 q78 0 123 -37.5t45 -105.5q0 -63 -45 -104q-23 -23 -54.5 -31t-91.5 -8h-270q43 -121 148.5 -187.5t242.5 -66.5q41 0 76 12l70 25q33 12 63 12q63 0 108.5 -45t45.5 -111t-40 -101.5t-98 -57.5q-53 -20 -119.5 -32.5t-125.5 -12.5q-129 0 -244 43t-206 118.5t-153.5 179 t-87.5 224.5h-22q-74 0 -117 40t-43 103z" />
<glyph unicode="&#x2122;" d="M68 0v1366h684v-1366h-684zM82 14h655v1338h-655v-1338z" />
<glyph unicode="&#x25fc;" horiz-adv-x="983" d="M0 0v983h983v-983h-983z" />
<glyph unicode="&#xfb01;" horiz-adv-x="1099" d="M6 846q0 55 38 89t99 34h9v24q2 57 5 97t10 69t18.5 52.5t27.5 45.5q35 49 91 79t114 30q82 0 131 -49t49 -135q0 -59 -23.5 -99.5t-58.5 -40.5q-8 0 -15 3.5t-18 7.5l-12 6q-6 4 -16 4q-16 0 -23.5 -20.5t-7.5 -73.5h377q47 0 69.5 -3t40.5 -14q68 -35 68 -135v-31v-618 v-31q-2 -70 -39 -110.5t-98 -40.5q-59 0 -97 42t-38 109v31v555h-283v-555v-31q-2 -70 -39 -110.5t-98 -40.5t-98 42t-37 109v31v555q-145 10 -146 123zM676 1202q0 72 48 119t120 47q66 0 114 -47t48 -115t-48.5 -115t-117.5 -47q-33 0 -62.5 12.5t-52.5 34t-36 50 t-13 61.5z" />
<glyph unicode="&#xfb02;" horiz-adv-x="1099" d="M6 846q0 55 38 89t99 34h7l2 24q2 57 5 97t10 69t18.5 52.5t27.5 45.5q35 49 91 79t114 30q82 0 131 -49t49 -135q0 -59 -23.5 -98.5t-58.5 -39.5q-14 0 -33 9l-12 6q-6 4 -16 4q-16 0 -23.5 -20.5t-9.5 -73.5h283v215v30q2 70 38.5 111t98.5 41q59 0 97 -42t38 -110v-18 v-1028v-31q-2 -70 -39 -110.5t-96 -40.5q-61 0 -99 42t-38 109v31v555h-283v-555v-31q0 -70 -37 -110.5t-98 -40.5t-99 42t-38 109v31v555q-143 10 -144 123z" />
</font>
</defs>
</svg>
