<?xml version="1.0" encoding="UTF-8"?><!DOCTYPE svg PUBLIC "-//W3C//DTD SVG 1.1//EN" "http://www.w3.org/Graphics/SVG/1.1/DTD/svg11.dtd"><svg xmlns="http://www.w3.org/2000/svg"><symbol id="icon-arr-left" viewBox="0 0 25.336 31.994">
    <path d="M20.944.987v30L1.506 16.241l-.335-.254-.335-.254L20.944.987z"/>
    <path d="M24.836 5.362v21.25L11.042 16.167l-.238-.18L24.836 5.362z"/>
</symbol><symbol id="icon-arr-right" viewBox="0 0 25.336 31.994">
    <path d="M24.5 15.733l-.335.254-.335.254L4.392 30.987v-30L24.5 15.733z"/>
    <path d="M14.532 15.987l-.238.18L.5 26.612V5.362l14.032 10.625z"/>
</symbol><symbol id="icon-arr" viewBox="0 0 32.514 67.434">
    <path stroke-miterlimit="10" d="M1.017 46.5h30.5l-15 20.107z"/>
    <path stroke-miterlimit="10" d="M5.017 42.5h22.125L16.517 57.146z"/>
    <path stroke-miterlimit="10" d="M16.517 0v66"/>
</symbol><symbol id="icon-behance" viewBox="0 0 32 20">
    <g>
        <path d="M12.914 9.272s3.027-.23 3.027-3.852c0-3.619-2.053-5.403-5.191-5.403L0 0v20h11s5.5.174 5.5-6c0 0 .404-4.728-3.586-4.728zM4 3h5.5s1.882.031 1.882 2.471C11.382 8 9.5 8 9.5 8H4V3zm6 14H4v-6h6s3 .031 3 3-2.568 3-3 3z"/>
        <path d="M25 5c-7.513 0-7.5 7.5-7.5 7.5S17 20 25 20c0 0 7 0 7-6h-4s0 3-3 3c0 0-3 0-3-4h10c0-2 0-8-7-8zm-3 6s-.066-3 3-3c3.065 0 3 3 3 3h-6z"/>
        <path d="M21 2h8v2h-8z"/>
    </g>
</symbol><symbol id="icon-close" viewBox="0 0 33.696 33.696">
    <path d="M33.696 31.582L32.3 32.978 17.216 17.894 1.414 33.696 0 32.282 15.802 16.48.718 1.396 2.114 0l15.084 15.084L32 .282l1.414 1.414-14.802 14.802 15.084 15.084z"/>
</symbol><symbol id="icon-linkedin" viewBox="0 0 27.793 27.669">
    <title/>
    <path d="M5.83 27.669V9.37H.174v18.299H5.83zm0-24.785C5.797 1.247 4.705 0 2.932 0 1.159 0 0 1.247 0 2.884c0 1.602 1.125 2.885 2.864 2.885h.034c1.807 0 2.932-1.283 2.932-2.885zm9.227 24.785V17.244c0-.558.04-1.116.204-1.514.449-1.115 1.47-2.27 3.184-2.27 2.246 0 3.654 1.274 3.654 3.784V27.67h5.694V16.965c0-5.734-3.061-8.403-7.144-8.403-3.348 0-4.817 1.872-5.633 3.146l.041-2.447H9.373c.082 1.752 0 18.409 0 18.409h5.684z"/>
</symbol><symbol id="icon-logo" viewBox="0 0 50 16.002">
    <path d="M49.042 15.92h-9.596v-.713h9.115L39.282 1.435v.026l-9.765 14.5-.001-.035-.017.026v-.135l-.002.144-4.513-6.672-4.5 6.683-.001.03-9.76-14.493-9.284 13.778h9.115v.714H.958L0 16.002 10.728.08v.014l8.982 13.343V.073l.032.047-.001-.043 5.256 7.775L30.239.064v.038l.034-.049v13.37L39.272.054V0L50 15.921l-.958-.001zM20.483 2.635v11.923l4.023-5.976-4.023-5.947zm9.016 11.876V2.585l-4.023 5.974 4.023 5.952z"/>
</symbol><symbol id="icon-message" viewBox="0 0 16 11">
    <path d="M16 1.049V.988a.995.995 0 0 0-.293-.678l-.022-.021s-.021 0-.021-.021c-.043-.041-.084-.06-.127-.102-.021 0-.021-.021-.042-.021-.043-.021-.105-.042-.148-.061-.022 0-.022-.021-.043-.021a.607.607 0 0 0-.188-.042h-.043c-.062 0-.148-.021-.232-.021H1.135c-.083 0-.167 0-.252.021-.022 0-.043 0-.063.021C.758.063.694.063.653.084.632.084.632.105.61.105.568.126.505.147.463.166l-.022.02C.398.208.358.247.315.268L.253.329A.96.96 0 0 0 0 .885v9.232a.988.988 0 0 0 .398.677c.189.125.42.206.692.206h13.816c.062 0 .147 0 .21-.021h.042c.063-.021.127-.021.167-.042h.022a.95.95 0 0 0 .651-.925V1.11v-.042C16 1.07 16 1.07 16 1.049zM14.657.761l-6.613 6.31-1.513-1.439L1.345.76l13.312.001zM.779 9.828V1.275L5.67 5.88.779 9.828zm7.055.43H1.472l4.766-3.824 1.532 1.46c.062.061.126.081.188.102h.128c.063-.021.148-.041.189-.102l1.448-1.379 4.786 3.743H7.834zm7.388-.411L10.31 5.962l4.912-4.687v8.572z"/>
</symbol><symbol id="icon-quote" viewBox="0 0 26.1 33">
    <path d="M17.9 33l8.3-33H11.7L0 33h17.9z"/>
</symbol></svg>